G04 #@! TF.GenerationSoftware,KiCad,Pcbnew,9.0.2*
G04 #@! TF.CreationDate,2025-12-31T10:57:56+01:00*
G04 #@! TF.ProjectId,synthmate_L432,73796e74-686d-4617-9465-5f4c3433322e,rev?*
G04 #@! TF.SameCoordinates,Original*
G04 #@! TF.FileFunction,Copper,L4,Bot*
G04 #@! TF.FilePolarity,Positive*
%FSLAX46Y46*%
G04 Gerber Fmt 4.6, Leading zero omitted, Abs format (unit mm)*
G04 Created by KiCad (PCBNEW 9.0.2) date 2025-12-31 10:57:56*
%MOMM*%
%LPD*%
G01*
G04 APERTURE LIST*
G04 #@! TA.AperFunction,ComponentPad*
%ADD10R,1.700000X1.700000*%
G04 #@! TD*
G04 #@! TA.AperFunction,ComponentPad*
%ADD11C,1.700000*%
G04 #@! TD*
G04 #@! TA.AperFunction,HeatsinkPad*
%ADD12O,1.000000X2.100000*%
G04 #@! TD*
G04 #@! TA.AperFunction,HeatsinkPad*
%ADD13O,1.000000X1.800000*%
G04 #@! TD*
G04 #@! TA.AperFunction,ComponentPad*
%ADD14R,0.850000X0.850000*%
G04 #@! TD*
G04 #@! TA.AperFunction,ComponentPad*
%ADD15C,0.850000*%
G04 #@! TD*
G04 #@! TA.AperFunction,ComponentPad*
%ADD16C,1.524000*%
G04 #@! TD*
G04 #@! TA.AperFunction,ComponentPad*
%ADD17R,2.000000X2.000000*%
G04 #@! TD*
G04 #@! TA.AperFunction,ComponentPad*
%ADD18C,2.000000*%
G04 #@! TD*
G04 #@! TA.AperFunction,ComponentPad*
%ADD19R,2.000000X3.200000*%
G04 #@! TD*
G04 #@! TA.AperFunction,SMDPad,CuDef*
%ADD20R,2.400000X0.740000*%
G04 #@! TD*
G04 #@! TA.AperFunction,ViaPad*
%ADD21C,0.500000*%
G04 #@! TD*
G04 #@! TA.AperFunction,Conductor*
%ADD22C,0.300000*%
G04 #@! TD*
G04 #@! TA.AperFunction,Conductor*
%ADD23C,0.200000*%
G04 #@! TD*
G04 APERTURE END LIST*
D10*
G04 #@! TO.P,J5,1,Pin_1*
G04 #@! TO.N,GND*
X151610000Y-105600000D03*
D11*
G04 #@! TO.P,J5,2,Pin_2*
G04 #@! TO.N,SWCLK*
X151610000Y-103060000D03*
G04 #@! TO.P,J5,3,Pin_3*
G04 #@! TO.N,SWDIO*
X151610000Y-100520000D03*
G04 #@! TO.P,J5,4,Pin_4*
G04 #@! TO.N,3V3*
X151610000Y-97980000D03*
G04 #@! TD*
D12*
G04 #@! TO.P,J1,S1,SHIELD*
G04 #@! TO.N,GND*
X142200000Y-77530000D03*
D13*
X142200000Y-73350000D03*
D12*
X133560000Y-77530000D03*
D13*
X133560000Y-73350000D03*
G04 #@! TD*
D14*
G04 #@! TO.P,J3,1,Pin_1*
G04 #@! TO.N,Net-(J3-Pin_1)*
X139550000Y-94170000D03*
D15*
G04 #@! TO.P,J3,2,Pin_2*
G04 #@! TO.N,Net-(J3-Pin_2)*
X139550000Y-95170000D03*
G04 #@! TD*
D16*
G04 #@! TO.P,SW3,1,B*
G04 #@! TO.N,GND*
X137160000Y-99060000D03*
G04 #@! TO.P,SW3,2,C*
G04 #@! TO.N,Net-(SW3-C)*
X137160000Y-104140000D03*
G04 #@! TO.P,SW3,3,A*
G04 #@! TO.N,unconnected-(SW3-A-Pad3)*
X129540000Y-99060000D03*
G04 #@! TO.P,SW3,4*
G04 #@! TO.N,N/C*
X129540000Y-104140000D03*
G04 #@! TD*
G04 #@! TO.P,SW2,1,B*
G04 #@! TO.N,GND*
X149860000Y-99060000D03*
G04 #@! TO.P,SW2,2,C*
G04 #@! TO.N,Net-(SW2-C)*
X149860000Y-104140000D03*
G04 #@! TO.P,SW2,3,A*
G04 #@! TO.N,unconnected-(SW2-A-Pad3)*
X142240000Y-99060000D03*
G04 #@! TO.P,SW2,4*
G04 #@! TO.N,N/C*
X142240000Y-104140000D03*
G04 #@! TD*
D17*
G04 #@! TO.P,SW1,A,A*
G04 #@! TO.N,Net-(R7-Pad1)*
X149360000Y-88770000D03*
D18*
G04 #@! TO.P,SW1,B,B*
G04 #@! TO.N,Net-(R6-Pad1)*
X144360000Y-88770000D03*
G04 #@! TO.P,SW1,C,C*
G04 #@! TO.N,GND*
X146860000Y-88770000D03*
D19*
G04 #@! TO.P,SW1,MP*
G04 #@! TO.N,N/C*
X141260000Y-81270000D03*
X152280000Y-81270000D03*
D18*
G04 #@! TO.P,SW1,S1,S1*
G04 #@! TO.N,Net-(R1-Pad1)*
X144360000Y-74270000D03*
G04 #@! TO.P,SW1,S2,S2*
G04 #@! TO.N,GND*
X149360000Y-74270000D03*
G04 #@! TD*
D20*
G04 #@! TO.P,J8,1,NC*
G04 #@! TO.N,unconnected-(J8-NC-Pad1)*
X148270000Y-95250000D03*
G04 #@! TO.P,J8,2,NC*
G04 #@! TO.N,unconnected-(J8-NC-Pad2)*
X144370000Y-95250000D03*
G04 #@! TO.P,J8,3,VCC*
G04 #@! TO.N,3V3*
X148270000Y-96520000D03*
G04 #@! TO.P,J8,4,JTMS/SWDIO*
G04 #@! TO.N,SWDIO*
X144370000Y-96520000D03*
G04 #@! TO.P,J8,5,GND*
G04 #@! TO.N,GND*
X148270000Y-97790000D03*
G04 #@! TO.P,J8,6,JCLK/SWCLK*
G04 #@! TO.N,SWCLK*
X144370000Y-97790000D03*
G04 #@! TO.P,J8,7,GND*
G04 #@! TO.N,GND*
X148270000Y-99060000D03*
G04 #@! TO.P,J8,8,JTDO/SWO*
G04 #@! TO.N,unconnected-(J8-JTDO{slash}SWO-Pad8)*
X144370000Y-99060000D03*
G04 #@! TO.P,J8,9,JRCLK/NC*
G04 #@! TO.N,unconnected-(J8-JRCLK{slash}NC-Pad9)*
X148270000Y-100330000D03*
G04 #@! TO.P,J8,10,JTDI/NC*
G04 #@! TO.N,unconnected-(J8-JTDI{slash}NC-Pad10)*
X144370000Y-100330000D03*
G04 #@! TO.P,J8,11,GNDDetect*
G04 #@! TO.N,unconnected-(J8-GNDDetect-Pad11)*
X148270000Y-101600000D03*
G04 #@! TO.P,J8,12,~{RST}*
G04 #@! TO.N,NRST*
X144370000Y-101600000D03*
G04 #@! TO.P,J8,13,VCP_RX*
G04 #@! TO.N,unconnected-(J8-VCP_RX-Pad13)*
X148270000Y-102870000D03*
G04 #@! TO.P,J8,14,VCP_TX*
G04 #@! TO.N,unconnected-(J8-VCP_TX-Pad14)*
X144370000Y-102870000D03*
G04 #@! TD*
D16*
G04 #@! TO.P,SW5,1,B*
G04 #@! TO.N,GND*
X137160000Y-81280000D03*
G04 #@! TO.P,SW5,2,C*
G04 #@! TO.N,Net-(SW5-C)*
X137160000Y-86360000D03*
G04 #@! TO.P,SW5,3,A*
G04 #@! TO.N,unconnected-(SW5-A-Pad3)*
X129540000Y-81280000D03*
G04 #@! TO.P,SW5,4*
G04 #@! TO.N,N/C*
X129540000Y-86360000D03*
G04 #@! TD*
D21*
G04 #@! TO.N,GND*
X137890000Y-80160000D03*
G04 #@! TO.N,CS*
X135791100Y-97343900D03*
X140842600Y-99831500D03*
G04 #@! TO.N,pushbutton_C*
X131240400Y-91741200D03*
X131460000Y-105411200D03*
G04 #@! TO.N,MISO*
X137219500Y-97198200D03*
X140936900Y-98647900D03*
G04 #@! TO.N,Net-(U1-PA9)*
X138586300Y-86629800D03*
X131088000Y-84385200D03*
G04 #@! TO.N,usb_switch*
X132738300Y-89032700D03*
X134641400Y-97254100D03*
G04 #@! TO.N,Net-(C10-Pad1)*
X142768600Y-102595800D03*
X132760000Y-101964500D03*
G04 #@! TO.N,Net-(C8-Pad1)*
X139905000Y-83882500D03*
X127750900Y-85305300D03*
G04 #@! TO.N,Net-(C7-Pad1)*
X142727100Y-93149900D03*
X134175700Y-99072700D03*
G04 #@! TO.N,Net-(C6-Pad1)*
X135979200Y-100128500D03*
X142743200Y-100452800D03*
G04 #@! TO.N,SWDIO*
X135444500Y-88370400D03*
G04 #@! TO.N,pushbutton_A*
X128601100Y-95631700D03*
X132038700Y-91058700D03*
G04 #@! TO.N,USART1_RX*
X138312200Y-89221900D03*
X133999300Y-88007000D03*
G04 #@! TO.N,SWCLK*
X134857700Y-90227900D03*
G04 #@! TO.N,BOOT0*
X133955400Y-97582100D03*
X133652300Y-98618800D03*
X130740200Y-90818500D03*
G04 #@! TO.N,LED*
X145120200Y-80864300D03*
X134357600Y-88703500D03*
G04 #@! TO.N,NRST*
X130736700Y-96441700D03*
G04 #@! TO.N,GND*
X137834000Y-92238900D03*
X148020000Y-86100000D03*
X139859998Y-81920000D03*
X141360000Y-88070000D03*
X139170000Y-104490000D03*
X131040000Y-95820000D03*
X138050000Y-101150000D03*
X138170000Y-99060000D03*
X131760000Y-87980000D03*
X150970000Y-74510000D03*
X142250000Y-97220000D03*
X146470000Y-80690000D03*
X131415000Y-98015000D03*
X132430000Y-75160000D03*
X147971808Y-103640002D03*
X136690000Y-83832600D03*
X147130000Y-87510000D03*
X139660000Y-93240000D03*
X131415428Y-98015000D03*
X137833924Y-92238943D03*
X145270000Y-86620000D03*
X148280000Y-91080000D03*
X129493000Y-96670000D03*
X131240000Y-101770000D03*
X131785000Y-80160000D03*
X129493361Y-96670000D03*
X132600000Y-90530000D03*
X146670000Y-84160000D03*
X133670000Y-93846100D03*
X138174182Y-93821838D03*
X146920000Y-76200000D03*
X139070000Y-106070000D03*
X134550000Y-93890000D03*
X141505000Y-78735000D03*
X134170000Y-78910000D03*
X149930000Y-100260000D03*
X148080000Y-76270000D03*
X148270000Y-98440000D03*
X135250000Y-93846100D03*
X138174000Y-93821800D03*
X144620000Y-80330000D03*
X133830000Y-80920000D03*
X147490000Y-81490000D03*
G04 #@! TO.N,3V3*
X133582600Y-83832600D03*
X130180000Y-87750000D03*
X146669998Y-102740000D03*
X145970002Y-97700000D03*
X130420000Y-94800000D03*
X150370000Y-95630000D03*
X135250000Y-105560000D03*
X131820000Y-83250000D03*
X132074000Y-96584300D03*
X145620000Y-105360000D03*
X132074327Y-96584327D03*
X149804420Y-97200537D03*
X138550000Y-83370000D03*
X138660000Y-93390000D03*
X149730000Y-80800000D03*
X134020000Y-87150000D03*
X142250000Y-95520000D03*
X148920000Y-82160000D03*
X146944320Y-84749281D03*
X143210000Y-78640000D03*
X146730000Y-94180000D03*
X132080000Y-88790000D03*
X136060000Y-102400000D03*
X140670000Y-96920000D03*
G04 #@! TO.N,GND*
X130440000Y-93790000D03*
G04 #@! TD*
D22*
G04 #@! TO.N,3V3*
X149830000Y-96520000D02*
X150370000Y-95980000D01*
X150370000Y-95980000D02*
X150370000Y-95630000D01*
D23*
G04 #@! TO.N,CS*
X139059000Y-98047900D02*
X140842600Y-99831500D01*
X136495100Y-98047900D02*
X139059000Y-98047900D01*
X135791100Y-97343900D02*
X136495100Y-98047900D01*
G04 #@! TO.N,pushbutton_C*
X129903400Y-93078200D02*
X131240400Y-91741200D01*
X129903400Y-95210400D02*
X129903400Y-93078200D01*
X130170200Y-95477200D02*
X129903400Y-95210400D01*
X130170200Y-98133200D02*
X130170200Y-95477200D01*
X130739800Y-98702800D02*
X130170200Y-98133200D01*
X130739800Y-104691000D02*
X130739800Y-98702800D01*
X131460000Y-105411200D02*
X130739800Y-104691000D01*
G04 #@! TO.N,MISO*
X139487200Y-97198200D02*
X137219500Y-97198200D01*
X140936900Y-98647900D02*
X139487200Y-97198200D01*
G04 #@! TO.N,Net-(U1-PA9)*
X131351700Y-84648900D02*
X131088000Y-84385200D01*
X131351700Y-84649000D02*
X131351700Y-84648900D01*
X136890500Y-84649000D02*
X131351700Y-84649000D01*
X138586300Y-86344800D02*
X136890500Y-84649000D01*
X138586300Y-86629800D02*
X138586300Y-86344800D01*
G04 #@! TO.N,usb_switch*
X133485200Y-89779600D02*
X132738300Y-89032700D01*
X133485200Y-92211400D02*
X133485200Y-89779600D01*
X133135100Y-92561500D02*
X133485200Y-92211400D01*
X133135100Y-95747800D02*
X133135100Y-92561500D01*
X134641400Y-97254100D02*
X133135100Y-95747800D01*
G04 #@! TO.N,Net-(C10-Pad1)*
X137030600Y-102595800D02*
X142768600Y-102595800D01*
X136282600Y-101847800D02*
X137030600Y-102595800D01*
X132876700Y-101847800D02*
X136282600Y-101847800D01*
X132760000Y-101964500D02*
X132876700Y-101847800D01*
G04 #@! TO.N,Net-(C8-Pad1)*
X129245000Y-83811200D02*
X127750900Y-85305300D01*
X132002300Y-83811200D02*
X129245000Y-83811200D01*
X132506700Y-83306800D02*
X132002300Y-83811200D01*
X136989400Y-83306800D02*
X132506700Y-83306800D01*
X137565100Y-83882500D02*
X136989400Y-83306800D01*
X139905000Y-83882500D02*
X137565100Y-83882500D01*
G04 #@! TO.N,Net-(C7-Pad1)*
X141649900Y-93149900D02*
X142727100Y-93149900D01*
X138750400Y-90250400D02*
X141649900Y-93149900D01*
X136189800Y-90250400D02*
X138750400Y-90250400D01*
X135612400Y-89673000D02*
X136189800Y-90250400D01*
X134690900Y-89673000D02*
X135612400Y-89673000D01*
X134314100Y-90049800D02*
X134690900Y-89673000D01*
X134314100Y-91640100D02*
X134314100Y-90049800D01*
X135757600Y-93083600D02*
X134314100Y-91640100D01*
X135757600Y-94054700D02*
X135757600Y-93083600D01*
X135290900Y-94521400D02*
X135757600Y-94054700D01*
X135290900Y-97957500D02*
X135290900Y-94521400D01*
X134175700Y-99072700D02*
X135290900Y-97957500D01*
G04 #@! TO.N,Net-(C6-Pad1)*
X140756700Y-100452800D02*
X142743200Y-100452800D01*
X140432400Y-100128500D02*
X140756700Y-100452800D01*
X135979200Y-100128500D02*
X140432400Y-100128500D01*
G04 #@! TO.N,SWDIO*
X151179800Y-100950200D02*
X151610000Y-100520000D01*
X146953600Y-100950200D02*
X151179800Y-100950200D01*
X146531100Y-100527700D02*
X146953600Y-100950200D01*
X146531100Y-97231000D02*
X146531100Y-100527700D01*
X145820100Y-96520000D02*
X146531100Y-97231000D01*
X145095100Y-96520000D02*
X144370000Y-96520000D01*
X145095100Y-96520000D02*
X145732600Y-96520000D01*
X145732600Y-96520000D02*
X145820100Y-96520000D01*
X135953800Y-87861100D02*
X135444500Y-88370400D01*
X140127300Y-87861100D02*
X135953800Y-87861100D01*
X145820100Y-93553900D02*
X140127300Y-87861100D01*
X145820100Y-96520000D02*
X145820100Y-93553900D01*
G04 #@! TO.N,pushbutton_A*
X131208400Y-91058700D02*
X132038700Y-91058700D01*
X130540200Y-91726900D02*
X131208400Y-91058700D01*
X130540200Y-91946100D02*
X130540200Y-91726900D01*
X128601100Y-93885200D02*
X130540200Y-91946100D01*
X128601100Y-95631700D02*
X128601100Y-93885200D01*
G04 #@! TO.N,USART1_RX*
X133818800Y-88187500D02*
X133999300Y-88007000D01*
X133818800Y-88943100D02*
X133818800Y-88187500D01*
X134134700Y-89259000D02*
X133818800Y-88943100D01*
X136096000Y-89259000D02*
X134134700Y-89259000D01*
X136737300Y-89900300D02*
X136096000Y-89259000D01*
X137633800Y-89900300D02*
X136737300Y-89900300D01*
X138312200Y-89221900D02*
X137633800Y-89900300D01*
G04 #@! TO.N,SWCLK*
X145023700Y-97790000D02*
X144370000Y-97790000D01*
X145820100Y-98586400D02*
X145023700Y-97790000D01*
X145820100Y-101150000D02*
X145820100Y-98586400D01*
X146920000Y-102249900D02*
X145820100Y-101150000D01*
X150799900Y-102249900D02*
X146920000Y-102249900D01*
X151610000Y-103060000D02*
X150799900Y-102249900D01*
X144370000Y-97790000D02*
X142919900Y-97790000D01*
X142919900Y-97169900D02*
X142919900Y-97790000D01*
X141770200Y-96020200D02*
X142919900Y-97169900D01*
X139419300Y-96020200D02*
X141770200Y-96020200D01*
X134857700Y-91458600D02*
X139419300Y-96020200D01*
X134857700Y-90227900D02*
X134857700Y-91458600D01*
G04 #@! TO.N,BOOT0*
X133652300Y-97885200D02*
X133652300Y-98618800D01*
X133955400Y-97582100D02*
X133652300Y-97885200D01*
X131533400Y-90025300D02*
X130740200Y-90818500D01*
X132852500Y-90025300D02*
X131533400Y-90025300D01*
X133135100Y-90307900D02*
X132852500Y-90025300D01*
X133135100Y-92045000D02*
X133135100Y-90307900D01*
X132784500Y-92395600D02*
X133135100Y-92045000D01*
X132784500Y-96411200D02*
X132784500Y-92395600D01*
X133955400Y-97582100D02*
X132784500Y-96411200D01*
G04 #@! TO.N,LED*
X135688900Y-87372200D02*
X134357600Y-88703500D01*
X138612300Y-87372200D02*
X135688900Y-87372200D01*
X145120200Y-80864300D02*
X138612300Y-87372200D01*
G04 #@! TO.N,NRST*
X134937700Y-100642700D02*
X130736700Y-96441700D01*
X139050500Y-100642700D02*
X134937700Y-100642700D01*
X140007800Y-101600000D02*
X139050500Y-100642700D01*
X144370000Y-101600000D02*
X140007800Y-101600000D01*
D22*
G04 #@! TO.N,GND*
X148270000Y-98440000D02*
X148270000Y-97790000D01*
X148270000Y-99060000D02*
X148270000Y-98440000D01*
D23*
X147960000Y-103628194D02*
X147960000Y-103491000D01*
X147971808Y-103640002D02*
X147960000Y-103628194D01*
X137160000Y-99060000D02*
X138170000Y-99060000D01*
G04 #@! TO.N,3V3*
X145970002Y-97700000D02*
X145821000Y-97700000D01*
D22*
X148270000Y-96520000D02*
X149830000Y-96520000D01*
G04 #@! TD*
M02*
