G04 #@! TF.GenerationSoftware,KiCad,Pcbnew,9.0.2*
G04 #@! TF.CreationDate,2025-12-31T10:57:56+01:00*
G04 #@! TF.ProjectId,synthmate_L432,73796e74-686d-4617-9465-5f4c3433322e,rev?*
G04 #@! TF.SameCoordinates,Original*
G04 #@! TF.FileFunction,Legend,Bot*
G04 #@! TF.FilePolarity,Positive*
%FSLAX46Y46*%
G04 Gerber Fmt 4.6, Leading zero omitted, Abs format (unit mm)*
G04 Created by KiCad (PCBNEW 9.0.2) date 2025-12-31 10:57:56*
%MOMM*%
%LPD*%
G01*
G04 APERTURE LIST*
%ADD10C,0.100000*%
%ADD11C,0.150000*%
%ADD12C,0.120000*%
%ADD13R,1.700000X1.700000*%
%ADD14C,1.700000*%
%ADD15C,0.650000*%
%ADD16O,1.000000X2.100000*%
%ADD17O,1.000000X1.800000*%
%ADD18R,0.850000X0.850000*%
%ADD19C,0.850000*%
%ADD20C,1.000000*%
%ADD21C,1.524000*%
%ADD22R,2.000000X2.000000*%
%ADD23C,2.000000*%
%ADD24R,2.000000X3.200000*%
%ADD25R,2.400000X0.740000*%
G04 APERTURE END LIST*
D10*
X141409925Y-97081260D02*
X140914687Y-97081260D01*
X140914687Y-97081260D02*
X141181353Y-97690784D01*
X141181353Y-97690784D02*
X141067068Y-97690784D01*
X141067068Y-97690784D02*
X140990877Y-97766974D01*
X140990877Y-97766974D02*
X140952782Y-97843165D01*
X140952782Y-97843165D02*
X140914687Y-97995546D01*
X140914687Y-97995546D02*
X140914687Y-98376498D01*
X140914687Y-98376498D02*
X140952782Y-98528879D01*
X140952782Y-98528879D02*
X140990877Y-98605070D01*
X140990877Y-98605070D02*
X141067068Y-98681260D01*
X141067068Y-98681260D02*
X141295639Y-98681260D01*
X141295639Y-98681260D02*
X141371830Y-98605070D01*
X141371830Y-98605070D02*
X141409925Y-98528879D01*
X140686115Y-97081260D02*
X140419448Y-98681260D01*
X140419448Y-98681260D02*
X140152782Y-97081260D01*
X139962306Y-97081260D02*
X139467068Y-97081260D01*
X139467068Y-97081260D02*
X139733734Y-97690784D01*
X139733734Y-97690784D02*
X139619449Y-97690784D01*
X139619449Y-97690784D02*
X139543258Y-97766974D01*
X139543258Y-97766974D02*
X139505163Y-97843165D01*
X139505163Y-97843165D02*
X139467068Y-97995546D01*
X139467068Y-97995546D02*
X139467068Y-98376498D01*
X139467068Y-98376498D02*
X139505163Y-98528879D01*
X139505163Y-98528879D02*
X139543258Y-98605070D01*
X139543258Y-98605070D02*
X139619449Y-98681260D01*
X139619449Y-98681260D02*
X139848020Y-98681260D01*
X139848020Y-98681260D02*
X139924211Y-98605070D01*
X139924211Y-98605070D02*
X139962306Y-98528879D01*
X141371830Y-101180980D02*
X141257544Y-101257170D01*
X141257544Y-101257170D02*
X141067068Y-101257170D01*
X141067068Y-101257170D02*
X140990877Y-101180980D01*
X140990877Y-101180980D02*
X140952782Y-101104789D01*
X140952782Y-101104789D02*
X140914687Y-100952408D01*
X140914687Y-100952408D02*
X140914687Y-100800027D01*
X140914687Y-100800027D02*
X140952782Y-100647646D01*
X140952782Y-100647646D02*
X140990877Y-100571456D01*
X140990877Y-100571456D02*
X141067068Y-100495265D01*
X141067068Y-100495265D02*
X141219449Y-100419075D01*
X141219449Y-100419075D02*
X141295639Y-100342884D01*
X141295639Y-100342884D02*
X141333734Y-100266694D01*
X141333734Y-100266694D02*
X141371830Y-100114313D01*
X141371830Y-100114313D02*
X141371830Y-99961932D01*
X141371830Y-99961932D02*
X141333734Y-99809551D01*
X141333734Y-99809551D02*
X141295639Y-99733360D01*
X141295639Y-99733360D02*
X141219449Y-99657170D01*
X141219449Y-99657170D02*
X141028972Y-99657170D01*
X141028972Y-99657170D02*
X140914687Y-99733360D01*
X140648020Y-99657170D02*
X140457544Y-101257170D01*
X140457544Y-101257170D02*
X140305163Y-100114313D01*
X140305163Y-100114313D02*
X140152782Y-101257170D01*
X140152782Y-101257170D02*
X139962306Y-99657170D01*
X139657543Y-101257170D02*
X139657543Y-99657170D01*
X139657543Y-99657170D02*
X139467067Y-99657170D01*
X139467067Y-99657170D02*
X139352781Y-99733360D01*
X139352781Y-99733360D02*
X139276591Y-99885741D01*
X139276591Y-99885741D02*
X139238496Y-100038122D01*
X139238496Y-100038122D02*
X139200400Y-100342884D01*
X139200400Y-100342884D02*
X139200400Y-100571456D01*
X139200400Y-100571456D02*
X139238496Y-100876218D01*
X139238496Y-100876218D02*
X139276591Y-101028599D01*
X139276591Y-101028599D02*
X139352781Y-101180980D01*
X139352781Y-101180980D02*
X139467067Y-101257170D01*
X139467067Y-101257170D02*
X139657543Y-101257170D01*
X138857543Y-101257170D02*
X138857543Y-99657170D01*
X138324210Y-99657170D02*
X138171829Y-99657170D01*
X138171829Y-99657170D02*
X138095639Y-99733360D01*
X138095639Y-99733360D02*
X138019448Y-99885741D01*
X138019448Y-99885741D02*
X137981353Y-100190503D01*
X137981353Y-100190503D02*
X137981353Y-100723837D01*
X137981353Y-100723837D02*
X138019448Y-101028599D01*
X138019448Y-101028599D02*
X138095639Y-101180980D01*
X138095639Y-101180980D02*
X138171829Y-101257170D01*
X138171829Y-101257170D02*
X138324210Y-101257170D01*
X138324210Y-101257170D02*
X138400401Y-101180980D01*
X138400401Y-101180980D02*
X138476591Y-101028599D01*
X138476591Y-101028599D02*
X138514687Y-100723837D01*
X138514687Y-100723837D02*
X138514687Y-100190503D01*
X138514687Y-100190503D02*
X138476591Y-99885741D01*
X138476591Y-99885741D02*
X138400401Y-99733360D01*
X138400401Y-99733360D02*
X138324210Y-99657170D01*
X141371830Y-103756890D02*
X141257544Y-103833080D01*
X141257544Y-103833080D02*
X141067068Y-103833080D01*
X141067068Y-103833080D02*
X140990877Y-103756890D01*
X140990877Y-103756890D02*
X140952782Y-103680699D01*
X140952782Y-103680699D02*
X140914687Y-103528318D01*
X140914687Y-103528318D02*
X140914687Y-103375937D01*
X140914687Y-103375937D02*
X140952782Y-103223556D01*
X140952782Y-103223556D02*
X140990877Y-103147366D01*
X140990877Y-103147366D02*
X141067068Y-103071175D01*
X141067068Y-103071175D02*
X141219449Y-102994985D01*
X141219449Y-102994985D02*
X141295639Y-102918794D01*
X141295639Y-102918794D02*
X141333734Y-102842604D01*
X141333734Y-102842604D02*
X141371830Y-102690223D01*
X141371830Y-102690223D02*
X141371830Y-102537842D01*
X141371830Y-102537842D02*
X141333734Y-102385461D01*
X141333734Y-102385461D02*
X141295639Y-102309270D01*
X141295639Y-102309270D02*
X141219449Y-102233080D01*
X141219449Y-102233080D02*
X141028972Y-102233080D01*
X141028972Y-102233080D02*
X140914687Y-102309270D01*
X140648020Y-102233080D02*
X140457544Y-103833080D01*
X140457544Y-103833080D02*
X140305163Y-102690223D01*
X140305163Y-102690223D02*
X140152782Y-103833080D01*
X140152782Y-103833080D02*
X139962306Y-102233080D01*
X139200400Y-103680699D02*
X139238496Y-103756890D01*
X139238496Y-103756890D02*
X139352781Y-103833080D01*
X139352781Y-103833080D02*
X139428972Y-103833080D01*
X139428972Y-103833080D02*
X139543258Y-103756890D01*
X139543258Y-103756890D02*
X139619448Y-103604509D01*
X139619448Y-103604509D02*
X139657543Y-103452128D01*
X139657543Y-103452128D02*
X139695639Y-103147366D01*
X139695639Y-103147366D02*
X139695639Y-102918794D01*
X139695639Y-102918794D02*
X139657543Y-102614032D01*
X139657543Y-102614032D02*
X139619448Y-102461651D01*
X139619448Y-102461651D02*
X139543258Y-102309270D01*
X139543258Y-102309270D02*
X139428972Y-102233080D01*
X139428972Y-102233080D02*
X139352781Y-102233080D01*
X139352781Y-102233080D02*
X139238496Y-102309270D01*
X139238496Y-102309270D02*
X139200400Y-102385461D01*
X138476591Y-103833080D02*
X138857543Y-103833080D01*
X138857543Y-103833080D02*
X138857543Y-102233080D01*
X138209924Y-103833080D02*
X138209924Y-102233080D01*
X137752781Y-103833080D02*
X138095639Y-102918794D01*
X137752781Y-102233080D02*
X138209924Y-103147366D01*
X140914687Y-104885180D02*
X140990877Y-104808990D01*
X140990877Y-104808990D02*
X141105163Y-104808990D01*
X141105163Y-104808990D02*
X141219449Y-104885180D01*
X141219449Y-104885180D02*
X141295639Y-105037561D01*
X141295639Y-105037561D02*
X141333734Y-105189942D01*
X141333734Y-105189942D02*
X141371830Y-105494704D01*
X141371830Y-105494704D02*
X141371830Y-105723276D01*
X141371830Y-105723276D02*
X141333734Y-106028038D01*
X141333734Y-106028038D02*
X141295639Y-106180419D01*
X141295639Y-106180419D02*
X141219449Y-106332800D01*
X141219449Y-106332800D02*
X141105163Y-106408990D01*
X141105163Y-106408990D02*
X141028972Y-106408990D01*
X141028972Y-106408990D02*
X140914687Y-106332800D01*
X140914687Y-106332800D02*
X140876591Y-106256609D01*
X140876591Y-106256609D02*
X140876591Y-105723276D01*
X140876591Y-105723276D02*
X141028972Y-105723276D01*
X140533734Y-106408990D02*
X140533734Y-104808990D01*
X140533734Y-104808990D02*
X140076591Y-106408990D01*
X140076591Y-106408990D02*
X140076591Y-104808990D01*
X139695639Y-106408990D02*
X139695639Y-104808990D01*
X139695639Y-104808990D02*
X139505163Y-104808990D01*
X139505163Y-104808990D02*
X139390877Y-104885180D01*
X139390877Y-104885180D02*
X139314687Y-105037561D01*
X139314687Y-105037561D02*
X139276592Y-105189942D01*
X139276592Y-105189942D02*
X139238496Y-105494704D01*
X139238496Y-105494704D02*
X139238496Y-105723276D01*
X139238496Y-105723276D02*
X139276592Y-106028038D01*
X139276592Y-106028038D02*
X139314687Y-106180419D01*
X139314687Y-106180419D02*
X139390877Y-106332800D01*
X139390877Y-106332800D02*
X139505163Y-106408990D01*
X139505163Y-106408990D02*
X139695639Y-106408990D01*
D11*
X139695832Y-101527200D02*
X139552975Y-101574819D01*
X139552975Y-101574819D02*
X139314880Y-101574819D01*
X139314880Y-101574819D02*
X139219642Y-101527200D01*
X139219642Y-101527200D02*
X139172023Y-101479580D01*
X139172023Y-101479580D02*
X139124404Y-101384342D01*
X139124404Y-101384342D02*
X139124404Y-101289104D01*
X139124404Y-101289104D02*
X139172023Y-101193866D01*
X139172023Y-101193866D02*
X139219642Y-101146247D01*
X139219642Y-101146247D02*
X139314880Y-101098628D01*
X139314880Y-101098628D02*
X139505356Y-101051009D01*
X139505356Y-101051009D02*
X139600594Y-101003390D01*
X139600594Y-101003390D02*
X139648213Y-100955771D01*
X139648213Y-100955771D02*
X139695832Y-100860533D01*
X139695832Y-100860533D02*
X139695832Y-100765295D01*
X139695832Y-100765295D02*
X139648213Y-100670057D01*
X139648213Y-100670057D02*
X139600594Y-100622438D01*
X139600594Y-100622438D02*
X139505356Y-100574819D01*
X139505356Y-100574819D02*
X139267261Y-100574819D01*
X139267261Y-100574819D02*
X139124404Y-100622438D01*
X138791070Y-100574819D02*
X138552975Y-101574819D01*
X138552975Y-101574819D02*
X138362499Y-100860533D01*
X138362499Y-100860533D02*
X138172023Y-101574819D01*
X138172023Y-101574819D02*
X137933928Y-100574819D01*
X137648213Y-100574819D02*
X137029166Y-100574819D01*
X137029166Y-100574819D02*
X137362499Y-100955771D01*
X137362499Y-100955771D02*
X137219642Y-100955771D01*
X137219642Y-100955771D02*
X137124404Y-101003390D01*
X137124404Y-101003390D02*
X137076785Y-101051009D01*
X137076785Y-101051009D02*
X137029166Y-101146247D01*
X137029166Y-101146247D02*
X137029166Y-101384342D01*
X137029166Y-101384342D02*
X137076785Y-101479580D01*
X137076785Y-101479580D02*
X137124404Y-101527200D01*
X137124404Y-101527200D02*
X137219642Y-101574819D01*
X137219642Y-101574819D02*
X137505356Y-101574819D01*
X137505356Y-101574819D02*
X137600594Y-101527200D01*
X137600594Y-101527200D02*
X137648213Y-101479580D01*
X147383332Y-102007200D02*
X147240475Y-102054819D01*
X147240475Y-102054819D02*
X147002380Y-102054819D01*
X147002380Y-102054819D02*
X146907142Y-102007200D01*
X146907142Y-102007200D02*
X146859523Y-101959580D01*
X146859523Y-101959580D02*
X146811904Y-101864342D01*
X146811904Y-101864342D02*
X146811904Y-101769104D01*
X146811904Y-101769104D02*
X146859523Y-101673866D01*
X146859523Y-101673866D02*
X146907142Y-101626247D01*
X146907142Y-101626247D02*
X147002380Y-101578628D01*
X147002380Y-101578628D02*
X147192856Y-101531009D01*
X147192856Y-101531009D02*
X147288094Y-101483390D01*
X147288094Y-101483390D02*
X147335713Y-101435771D01*
X147335713Y-101435771D02*
X147383332Y-101340533D01*
X147383332Y-101340533D02*
X147383332Y-101245295D01*
X147383332Y-101245295D02*
X147335713Y-101150057D01*
X147335713Y-101150057D02*
X147288094Y-101102438D01*
X147288094Y-101102438D02*
X147192856Y-101054819D01*
X147192856Y-101054819D02*
X146954761Y-101054819D01*
X146954761Y-101054819D02*
X146811904Y-101102438D01*
X146478570Y-101054819D02*
X146240475Y-102054819D01*
X146240475Y-102054819D02*
X146049999Y-101340533D01*
X146049999Y-101340533D02*
X145859523Y-102054819D01*
X145859523Y-102054819D02*
X145621428Y-101054819D01*
X145288094Y-101150057D02*
X145240475Y-101102438D01*
X145240475Y-101102438D02*
X145145237Y-101054819D01*
X145145237Y-101054819D02*
X144907142Y-101054819D01*
X144907142Y-101054819D02*
X144811904Y-101102438D01*
X144811904Y-101102438D02*
X144764285Y-101150057D01*
X144764285Y-101150057D02*
X144716666Y-101245295D01*
X144716666Y-101245295D02*
X144716666Y-101340533D01*
X144716666Y-101340533D02*
X144764285Y-101483390D01*
X144764285Y-101483390D02*
X145335713Y-102054819D01*
X145335713Y-102054819D02*
X144716666Y-102054819D01*
X154467200Y-84636667D02*
X154514819Y-84779524D01*
X154514819Y-84779524D02*
X154514819Y-85017619D01*
X154514819Y-85017619D02*
X154467200Y-85112857D01*
X154467200Y-85112857D02*
X154419580Y-85160476D01*
X154419580Y-85160476D02*
X154324342Y-85208095D01*
X154324342Y-85208095D02*
X154229104Y-85208095D01*
X154229104Y-85208095D02*
X154133866Y-85160476D01*
X154133866Y-85160476D02*
X154086247Y-85112857D01*
X154086247Y-85112857D02*
X154038628Y-85017619D01*
X154038628Y-85017619D02*
X153991009Y-84827143D01*
X153991009Y-84827143D02*
X153943390Y-84731905D01*
X153943390Y-84731905D02*
X153895771Y-84684286D01*
X153895771Y-84684286D02*
X153800533Y-84636667D01*
X153800533Y-84636667D02*
X153705295Y-84636667D01*
X153705295Y-84636667D02*
X153610057Y-84684286D01*
X153610057Y-84684286D02*
X153562438Y-84731905D01*
X153562438Y-84731905D02*
X153514819Y-84827143D01*
X153514819Y-84827143D02*
X153514819Y-85065238D01*
X153514819Y-85065238D02*
X153562438Y-85208095D01*
X153514819Y-85541429D02*
X154514819Y-85779524D01*
X154514819Y-85779524D02*
X153800533Y-85970000D01*
X153800533Y-85970000D02*
X154514819Y-86160476D01*
X154514819Y-86160476D02*
X153514819Y-86398572D01*
X154514819Y-87303333D02*
X154514819Y-86731905D01*
X154514819Y-87017619D02*
X153514819Y-87017619D01*
X153514819Y-87017619D02*
X153657676Y-86922381D01*
X153657676Y-86922381D02*
X153752914Y-86827143D01*
X153752914Y-86827143D02*
X153800533Y-86731905D01*
X146448333Y-92959819D02*
X146448333Y-93674104D01*
X146448333Y-93674104D02*
X146495952Y-93816961D01*
X146495952Y-93816961D02*
X146591190Y-93912200D01*
X146591190Y-93912200D02*
X146734047Y-93959819D01*
X146734047Y-93959819D02*
X146829285Y-93959819D01*
X145829285Y-93388390D02*
X145924523Y-93340771D01*
X145924523Y-93340771D02*
X145972142Y-93293152D01*
X145972142Y-93293152D02*
X146019761Y-93197914D01*
X146019761Y-93197914D02*
X146019761Y-93150295D01*
X146019761Y-93150295D02*
X145972142Y-93055057D01*
X145972142Y-93055057D02*
X145924523Y-93007438D01*
X145924523Y-93007438D02*
X145829285Y-92959819D01*
X145829285Y-92959819D02*
X145638809Y-92959819D01*
X145638809Y-92959819D02*
X145543571Y-93007438D01*
X145543571Y-93007438D02*
X145495952Y-93055057D01*
X145495952Y-93055057D02*
X145448333Y-93150295D01*
X145448333Y-93150295D02*
X145448333Y-93197914D01*
X145448333Y-93197914D02*
X145495952Y-93293152D01*
X145495952Y-93293152D02*
X145543571Y-93340771D01*
X145543571Y-93340771D02*
X145638809Y-93388390D01*
X145638809Y-93388390D02*
X145829285Y-93388390D01*
X145829285Y-93388390D02*
X145924523Y-93436009D01*
X145924523Y-93436009D02*
X145972142Y-93483628D01*
X145972142Y-93483628D02*
X146019761Y-93578866D01*
X146019761Y-93578866D02*
X146019761Y-93769342D01*
X146019761Y-93769342D02*
X145972142Y-93864580D01*
X145972142Y-93864580D02*
X145924523Y-93912200D01*
X145924523Y-93912200D02*
X145829285Y-93959819D01*
X145829285Y-93959819D02*
X145638809Y-93959819D01*
X145638809Y-93959819D02*
X145543571Y-93912200D01*
X145543571Y-93912200D02*
X145495952Y-93864580D01*
X145495952Y-93864580D02*
X145448333Y-93769342D01*
X145448333Y-93769342D02*
X145448333Y-93578866D01*
X145448333Y-93578866D02*
X145495952Y-93483628D01*
X145495952Y-93483628D02*
X145543571Y-93436009D01*
X145543571Y-93436009D02*
X145638809Y-93388390D01*
X134683332Y-84227200D02*
X134540475Y-84274819D01*
X134540475Y-84274819D02*
X134302380Y-84274819D01*
X134302380Y-84274819D02*
X134207142Y-84227200D01*
X134207142Y-84227200D02*
X134159523Y-84179580D01*
X134159523Y-84179580D02*
X134111904Y-84084342D01*
X134111904Y-84084342D02*
X134111904Y-83989104D01*
X134111904Y-83989104D02*
X134159523Y-83893866D01*
X134159523Y-83893866D02*
X134207142Y-83846247D01*
X134207142Y-83846247D02*
X134302380Y-83798628D01*
X134302380Y-83798628D02*
X134492856Y-83751009D01*
X134492856Y-83751009D02*
X134588094Y-83703390D01*
X134588094Y-83703390D02*
X134635713Y-83655771D01*
X134635713Y-83655771D02*
X134683332Y-83560533D01*
X134683332Y-83560533D02*
X134683332Y-83465295D01*
X134683332Y-83465295D02*
X134635713Y-83370057D01*
X134635713Y-83370057D02*
X134588094Y-83322438D01*
X134588094Y-83322438D02*
X134492856Y-83274819D01*
X134492856Y-83274819D02*
X134254761Y-83274819D01*
X134254761Y-83274819D02*
X134111904Y-83322438D01*
X133778570Y-83274819D02*
X133540475Y-84274819D01*
X133540475Y-84274819D02*
X133349999Y-83560533D01*
X133349999Y-83560533D02*
X133159523Y-84274819D01*
X133159523Y-84274819D02*
X132921428Y-83274819D01*
X132064285Y-83274819D02*
X132540475Y-83274819D01*
X132540475Y-83274819D02*
X132588094Y-83751009D01*
X132588094Y-83751009D02*
X132540475Y-83703390D01*
X132540475Y-83703390D02*
X132445237Y-83655771D01*
X132445237Y-83655771D02*
X132207142Y-83655771D01*
X132207142Y-83655771D02*
X132111904Y-83703390D01*
X132111904Y-83703390D02*
X132064285Y-83751009D01*
X132064285Y-83751009D02*
X132016666Y-83846247D01*
X132016666Y-83846247D02*
X132016666Y-84084342D01*
X132016666Y-84084342D02*
X132064285Y-84179580D01*
X132064285Y-84179580D02*
X132111904Y-84227200D01*
X132111904Y-84227200D02*
X132207142Y-84274819D01*
X132207142Y-84274819D02*
X132445237Y-84274819D01*
X132445237Y-84274819D02*
X132540475Y-84227200D01*
X132540475Y-84227200D02*
X132588094Y-84179580D01*
D12*
G04 #@! TO.C,SW3*
X127175000Y-90560000D02*
X127175000Y-107560000D01*
X127175000Y-107560000D02*
X139525000Y-107560000D01*
X139525000Y-90560000D02*
X127175000Y-90560000D01*
X139525000Y-107560000D02*
X139525000Y-90560000D01*
G04 #@! TO.C,SW2*
X139875000Y-90560000D02*
X139875000Y-107560000D01*
X139875000Y-107560000D02*
X152225000Y-107560000D01*
X152225000Y-90560000D02*
X139875000Y-90560000D01*
X152225000Y-107560000D02*
X152225000Y-90560000D01*
G04 #@! TO.C,SW1*
X140960000Y-75170000D02*
X140960000Y-79270000D01*
X140960000Y-83270000D02*
X140960000Y-87370000D01*
X143360000Y-75170000D02*
X140960000Y-75170000D01*
X146860000Y-81770000D02*
X146860000Y-80770000D01*
X147360000Y-81270000D02*
X146360000Y-81270000D01*
X148160000Y-75170000D02*
X145560000Y-75170000D01*
X150660000Y-88770000D02*
X150960000Y-89070000D01*
X150960000Y-88470000D02*
X150660000Y-88770000D01*
X150960000Y-89070000D02*
X150960000Y-88470000D01*
X152760000Y-75170000D02*
X150360000Y-75170000D01*
X152760000Y-79270000D02*
X152760000Y-75170000D01*
X152760000Y-83270000D02*
X152760000Y-87370000D01*
X152760000Y-87370000D02*
X140960000Y-87370000D01*
X149860000Y-81270000D02*
G75*
G02*
X143860000Y-81270000I-3000000J0D01*
G01*
X143860000Y-81270000D02*
G75*
G02*
X149860000Y-81270000I3000000J0D01*
G01*
G04 #@! TO.C,J8*
X144505000Y-94505000D02*
X144505000Y-94570000D01*
X144505000Y-103550000D02*
X144505000Y-103615000D01*
X148135000Y-94505000D02*
X144505000Y-94505000D01*
X148135000Y-94505000D02*
X148135000Y-94570000D01*
X148135000Y-103550000D02*
X148135000Y-103615000D01*
X148135000Y-103615000D02*
X144505000Y-103615000D01*
X149410000Y-94570000D02*
X148135000Y-94570000D01*
G04 #@! TO.C,SW5*
X127175000Y-72780000D02*
X127175000Y-89780000D01*
X127175000Y-89780000D02*
X139525000Y-89780000D01*
X139525000Y-72780000D02*
X127175000Y-72780000D01*
X139525000Y-89780000D02*
X139525000Y-72780000D01*
G04 #@! TD*
%LPC*%
D13*
G04 #@! TO.C,J5*
X151610000Y-105600000D03*
D14*
X151610000Y-103060000D03*
X151610000Y-100520000D03*
X151610000Y-97980000D03*
G04 #@! TD*
D15*
G04 #@! TO.C,J1*
X140770000Y-77030000D03*
X134990000Y-77030000D03*
D16*
X142200000Y-77530000D03*
D17*
X142200000Y-73350000D03*
D16*
X133560000Y-77530000D03*
D17*
X133560000Y-73350000D03*
G04 #@! TD*
D18*
G04 #@! TO.C,J3*
X139550000Y-94170000D03*
D19*
X139550000Y-95170000D03*
G04 #@! TD*
D20*
G04 #@! TO.C,SW3*
X137160000Y-106680000D03*
X129540000Y-91440000D03*
D21*
X137160000Y-99060000D03*
X137160000Y-104140000D03*
X129540000Y-99060000D03*
X129540000Y-104140000D03*
G04 #@! TD*
D20*
G04 #@! TO.C,SW2*
X149860000Y-106680000D03*
X142240000Y-91440000D03*
D21*
X149860000Y-99060000D03*
X149860000Y-104140000D03*
X142240000Y-99060000D03*
X142240000Y-104140000D03*
G04 #@! TD*
D22*
G04 #@! TO.C,SW1*
X149360000Y-88770000D03*
D23*
X144360000Y-88770000D03*
X146860000Y-88770000D03*
D24*
X141260000Y-81270000D03*
X152280000Y-81270000D03*
D23*
X144360000Y-74270000D03*
X149360000Y-74270000D03*
G04 #@! TD*
D25*
G04 #@! TO.C,J8*
X148270000Y-95250000D03*
X144370000Y-95250000D03*
X148270000Y-96520000D03*
X144370000Y-96520000D03*
X148270000Y-97790000D03*
X144370000Y-97790000D03*
X148270000Y-99060000D03*
X144370000Y-99060000D03*
X148270000Y-100330000D03*
X144370000Y-100330000D03*
X148270000Y-101600000D03*
X144370000Y-101600000D03*
X148270000Y-102870000D03*
X144370000Y-102870000D03*
G04 #@! TD*
D20*
G04 #@! TO.C,SW5*
X137160000Y-88900000D03*
X129540000Y-73660000D03*
D21*
X137160000Y-81280000D03*
X137160000Y-86360000D03*
X129540000Y-81280000D03*
X129540000Y-86360000D03*
G04 #@! TD*
%LPD*%
M02*
