G04 #@! TF.GenerationSoftware,KiCad,Pcbnew,9.0.2*
G04 #@! TF.CreationDate,2025-12-31T10:57:56+01:00*
G04 #@! TF.ProjectId,synthmate_L432,73796e74-686d-4617-9465-5f4c3433322e,rev?*
G04 #@! TF.SameCoordinates,Original*
G04 #@! TF.FileFunction,Copper,L1,Top*
G04 #@! TF.FilePolarity,Positive*
%FSLAX46Y46*%
G04 Gerber Fmt 4.6, Leading zero omitted, Abs format (unit mm)*
G04 Created by KiCad (PCBNEW 9.0.2) date 2025-12-31 10:57:56*
%MOMM*%
%LPD*%
G01*
G04 APERTURE LIST*
G04 Aperture macros list*
%AMRoundRect*
0 Rectangle with rounded corners*
0 $1 Rounding radius*
0 $2 $3 $4 $5 $6 $7 $8 $9 X,Y pos of 4 corners*
0 Add a 4 corners polygon primitive as box body*
4,1,4,$2,$3,$4,$5,$6,$7,$8,$9,$2,$3,0*
0 Add four circle primitives for the rounded corners*
1,1,$1+$1,$2,$3*
1,1,$1+$1,$4,$5*
1,1,$1+$1,$6,$7*
1,1,$1+$1,$8,$9*
0 Add four rect primitives between the rounded corners*
20,1,$1+$1,$2,$3,$4,$5,0*
20,1,$1+$1,$4,$5,$6,$7,0*
20,1,$1+$1,$6,$7,$8,$9,0*
20,1,$1+$1,$8,$9,$2,$3,0*%
%AMRotRect*
0 Rectangle, with rotation*
0 The origin of the aperture is its center*
0 $1 length*
0 $2 width*
0 $3 Rotation angle, in degrees counterclockwise*
0 Add horizontal line*
21,1,$1,$2,0,0,$3*%
G04 Aperture macros list end*
G04 #@! TA.AperFunction,ComponentPad*
%ADD10R,1.700000X1.700000*%
G04 #@! TD*
G04 #@! TA.AperFunction,ComponentPad*
%ADD11C,1.700000*%
G04 #@! TD*
G04 #@! TA.AperFunction,SMDPad,CuDef*
%ADD12RoundRect,0.100000X-0.100000X0.637500X-0.100000X-0.637500X0.100000X-0.637500X0.100000X0.637500X0*%
G04 #@! TD*
G04 #@! TA.AperFunction,SMDPad,CuDef*
%ADD13RoundRect,0.225000X-0.225000X-0.250000X0.225000X-0.250000X0.225000X0.250000X-0.225000X0.250000X0*%
G04 #@! TD*
G04 #@! TA.AperFunction,SMDPad,CuDef*
%ADD14RoundRect,0.200000X0.200000X0.275000X-0.200000X0.275000X-0.200000X-0.275000X0.200000X-0.275000X0*%
G04 #@! TD*
G04 #@! TA.AperFunction,SMDPad,CuDef*
%ADD15RoundRect,0.150000X0.150000X0.425000X-0.150000X0.425000X-0.150000X-0.425000X0.150000X-0.425000X0*%
G04 #@! TD*
G04 #@! TA.AperFunction,SMDPad,CuDef*
%ADD16RoundRect,0.075000X0.075000X0.500000X-0.075000X0.500000X-0.075000X-0.500000X0.075000X-0.500000X0*%
G04 #@! TD*
G04 #@! TA.AperFunction,HeatsinkPad*
%ADD17O,1.000000X2.100000*%
G04 #@! TD*
G04 #@! TA.AperFunction,HeatsinkPad*
%ADD18O,1.000000X1.800000*%
G04 #@! TD*
G04 #@! TA.AperFunction,SMDPad,CuDef*
%ADD19RoundRect,0.112500X0.112500X-0.187500X0.112500X0.187500X-0.112500X0.187500X-0.112500X-0.187500X0*%
G04 #@! TD*
G04 #@! TA.AperFunction,SMDPad,CuDef*
%ADD20RoundRect,0.200000X-0.275000X0.200000X-0.275000X-0.200000X0.275000X-0.200000X0.275000X0.200000X0*%
G04 #@! TD*
G04 #@! TA.AperFunction,SMDPad,CuDef*
%ADD21RoundRect,0.150000X0.150000X-0.825000X0.150000X0.825000X-0.150000X0.825000X-0.150000X-0.825000X0*%
G04 #@! TD*
G04 #@! TA.AperFunction,SMDPad,CuDef*
%ADD22RoundRect,0.225000X0.225000X0.250000X-0.225000X0.250000X-0.225000X-0.250000X0.225000X-0.250000X0*%
G04 #@! TD*
G04 #@! TA.AperFunction,SMDPad,CuDef*
%ADD23R,0.300000X0.704800*%
G04 #@! TD*
G04 #@! TA.AperFunction,SMDPad,CuDef*
%ADD24R,0.249936X0.704850*%
G04 #@! TD*
G04 #@! TA.AperFunction,SMDPad,CuDef*
%ADD25R,0.754888X0.350012*%
G04 #@! TD*
G04 #@! TA.AperFunction,SMDPad,CuDef*
%ADD26RoundRect,0.112500X-0.187500X-0.112500X0.187500X-0.112500X0.187500X0.112500X-0.187500X0.112500X0*%
G04 #@! TD*
G04 #@! TA.AperFunction,SMDPad,CuDef*
%ADD27RoundRect,0.225000X0.250000X-0.225000X0.250000X0.225000X-0.250000X0.225000X-0.250000X-0.225000X0*%
G04 #@! TD*
G04 #@! TA.AperFunction,SMDPad,CuDef*
%ADD28RoundRect,0.100000X-0.100000X0.225000X-0.100000X-0.225000X0.100000X-0.225000X0.100000X0.225000X0*%
G04 #@! TD*
G04 #@! TA.AperFunction,SMDPad,CuDef*
%ADD29RoundRect,0.225000X-0.250000X0.225000X-0.250000X-0.225000X0.250000X-0.225000X0.250000X0.225000X0*%
G04 #@! TD*
G04 #@! TA.AperFunction,SMDPad,CuDef*
%ADD30RoundRect,0.200000X-0.200000X-0.275000X0.200000X-0.275000X0.200000X0.275000X-0.200000X0.275000X0*%
G04 #@! TD*
G04 #@! TA.AperFunction,SMDPad,CuDef*
%ADD31RoundRect,0.200000X0.275000X-0.200000X0.275000X0.200000X-0.275000X0.200000X-0.275000X-0.200000X0*%
G04 #@! TD*
G04 #@! TA.AperFunction,SMDPad,CuDef*
%ADD32RoundRect,0.150000X0.150000X-0.512500X0.150000X0.512500X-0.150000X0.512500X-0.150000X-0.512500X0*%
G04 #@! TD*
G04 #@! TA.AperFunction,SMDPad,CuDef*
%ADD33RoundRect,0.250000X-0.325000X-0.450000X0.325000X-0.450000X0.325000X0.450000X-0.325000X0.450000X0*%
G04 #@! TD*
G04 #@! TA.AperFunction,SMDPad,CuDef*
%ADD34RoundRect,0.250000X-0.650000X0.325000X-0.650000X-0.325000X0.650000X-0.325000X0.650000X0.325000X0*%
G04 #@! TD*
G04 #@! TA.AperFunction,SMDPad,CuDef*
%ADD35RoundRect,0.062500X-0.220971X-0.309359X0.309359X0.220971X0.220971X0.309359X-0.309359X-0.220971X0*%
G04 #@! TD*
G04 #@! TA.AperFunction,SMDPad,CuDef*
%ADD36RoundRect,0.062500X0.220971X-0.309359X0.309359X-0.220971X-0.220971X0.309359X-0.309359X0.220971X0*%
G04 #@! TD*
G04 #@! TA.AperFunction,HeatsinkPad*
%ADD37RotRect,3.450000X3.450000X45.000000*%
G04 #@! TD*
G04 #@! TA.AperFunction,ComponentPad*
%ADD38R,0.850000X0.850000*%
G04 #@! TD*
G04 #@! TA.AperFunction,ComponentPad*
%ADD39C,0.850000*%
G04 #@! TD*
G04 #@! TA.AperFunction,ComponentPad*
%ADD40C,1.524000*%
G04 #@! TD*
G04 #@! TA.AperFunction,ComponentPad*
%ADD41R,2.000000X2.000000*%
G04 #@! TD*
G04 #@! TA.AperFunction,ComponentPad*
%ADD42C,2.000000*%
G04 #@! TD*
G04 #@! TA.AperFunction,ComponentPad*
%ADD43R,2.000000X3.200000*%
G04 #@! TD*
G04 #@! TA.AperFunction,ViaPad*
%ADD44C,0.500000*%
G04 #@! TD*
G04 #@! TA.AperFunction,Conductor*
%ADD45C,0.200000*%
G04 #@! TD*
G04 #@! TA.AperFunction,Conductor*
%ADD46C,0.300000*%
G04 #@! TD*
G04 APERTURE END LIST*
D10*
G04 #@! TO.P,J5,1,Pin_1*
G04 #@! TO.N,GND*
X151610000Y-105600000D03*
D11*
G04 #@! TO.P,J5,2,Pin_2*
G04 #@! TO.N,SWCLK*
X151610000Y-103060000D03*
G04 #@! TO.P,J5,3,Pin_3*
G04 #@! TO.N,SWDIO*
X151610000Y-100520000D03*
G04 #@! TO.P,J5,4,Pin_4*
G04 #@! TO.N,3V3*
X151610000Y-97980000D03*
G04 #@! TD*
D12*
G04 #@! TO.P,U6,1*
G04 #@! TO.N,Net-(C6-Pad1)*
X135360000Y-100825000D03*
G04 #@! TO.P,U6,2*
G04 #@! TO.N,enc_A*
X134710000Y-100825000D03*
G04 #@! TO.P,U6,3*
G04 #@! TO.N,Net-(C7-Pad1)*
X134060000Y-100825000D03*
G04 #@! TO.P,U6,4*
G04 #@! TO.N,enc_B*
X133410000Y-100825000D03*
G04 #@! TO.P,U6,5*
G04 #@! TO.N,Net-(C10-Pad1)*
X132760000Y-100825000D03*
G04 #@! TO.P,U6,6*
G04 #@! TO.N,BOOT0*
X132110000Y-100825000D03*
G04 #@! TO.P,U6,7,GND*
G04 #@! TO.N,GND*
X131460000Y-100825000D03*
G04 #@! TO.P,U6,8*
G04 #@! TO.N,pushbutton_C*
X131460000Y-106550000D03*
G04 #@! TO.P,U6,9*
G04 #@! TO.N,Net-(C8-Pad1)*
X132110000Y-106550000D03*
G04 #@! TO.P,U6,10*
G04 #@! TO.N,pushbutton_B*
X132760000Y-106550000D03*
G04 #@! TO.P,U6,11*
G04 #@! TO.N,Net-(C9-Pad1)*
X133410000Y-106550000D03*
G04 #@! TO.P,U6,12*
G04 #@! TO.N,pushbutton_A*
X134060000Y-106550000D03*
G04 #@! TO.P,U6,13*
G04 #@! TO.N,Net-(C17-Pad1)*
X134710000Y-106550000D03*
G04 #@! TO.P,U6,14,3.3V*
G04 #@! TO.N,3V3*
X135360000Y-106550000D03*
G04 #@! TD*
D13*
G04 #@! TO.P,C13,1*
G04 #@! TO.N,3V3*
X136890000Y-101970000D03*
G04 #@! TO.P,C13,2*
G04 #@! TO.N,GND*
X138440000Y-101970000D03*
G04 #@! TD*
D14*
G04 #@! TO.P,R13,1*
G04 #@! TO.N,Net-(SW2-C)*
X144340000Y-106070000D03*
G04 #@! TO.P,R13,2*
G04 #@! TO.N,Net-(C9-Pad1)*
X142690000Y-106070000D03*
G04 #@! TD*
D15*
G04 #@! TO.P,J1,A1,GND*
G04 #@! TO.N,GND*
X141080000Y-78105000D03*
G04 #@! TO.P,J1,A4,VBUS*
G04 #@! TO.N,5V*
X140280000Y-78105000D03*
D16*
G04 #@! TO.P,J1,A5,CC1*
G04 #@! TO.N,Net-(J1-CC1)*
X139130000Y-78105000D03*
G04 #@! TO.P,J1,A6,D+*
G04 #@! TO.N,/usb_P*
X138130000Y-78105000D03*
G04 #@! TO.P,J1,A7,D-*
G04 #@! TO.N,/usb_N*
X137630000Y-78105000D03*
G04 #@! TO.P,J1,A8,SBU1*
G04 #@! TO.N,unconnected-(J1-SBU1-PadA8)*
X136630000Y-78105000D03*
D15*
G04 #@! TO.P,J1,A9,VBUS*
G04 #@! TO.N,5V*
X135480000Y-78105000D03*
G04 #@! TO.P,J1,A12,GND*
G04 #@! TO.N,GND*
X134680000Y-78105000D03*
G04 #@! TO.P,J1,B1,GND*
X134680000Y-78105000D03*
G04 #@! TO.P,J1,B4,VBUS*
G04 #@! TO.N,5V*
X135480000Y-78105000D03*
D16*
G04 #@! TO.P,J1,B5,CC2*
G04 #@! TO.N,Net-(J1-CC2)*
X136130000Y-78105000D03*
G04 #@! TO.P,J1,B6,D+*
G04 #@! TO.N,/usb_P*
X137130000Y-78105000D03*
G04 #@! TO.P,J1,B7,D-*
G04 #@! TO.N,/usb_N*
X138630000Y-78105000D03*
G04 #@! TO.P,J1,B8,SBU2*
G04 #@! TO.N,unconnected-(J1-SBU2-PadB8)*
X139630000Y-78105000D03*
D15*
G04 #@! TO.P,J1,B9,VBUS*
G04 #@! TO.N,5V*
X140280000Y-78105000D03*
G04 #@! TO.P,J1,B12,GND*
G04 #@! TO.N,GND*
X141080000Y-78105000D03*
D17*
G04 #@! TO.P,J1,S1,SHIELD*
X142200000Y-77530000D03*
D18*
X142200000Y-73350000D03*
D17*
X133560000Y-77530000D03*
D18*
X133560000Y-73350000D03*
G04 #@! TD*
D19*
G04 #@! TO.P,D2,1,K*
G04 #@! TO.N,5V*
X146470000Y-82090000D03*
G04 #@! TO.P,D2,2,A*
G04 #@! TO.N,GND*
X146470000Y-79990000D03*
G04 #@! TD*
D20*
G04 #@! TO.P,R6,1*
G04 #@! TO.N,Net-(R6-Pad1)*
X146730000Y-91780000D03*
G04 #@! TO.P,R6,2*
G04 #@! TO.N,3V3*
X146730000Y-93430000D03*
G04 #@! TD*
D21*
G04 #@! TO.P,U5,1,~{S}*
G04 #@! TO.N,CS*
X144140000Y-101370000D03*
G04 #@! TO.P,U5,2,Q*
G04 #@! TO.N,MISO*
X145410000Y-101370000D03*
G04 #@! TO.P,U5,3,~{W}*
G04 #@! TO.N,3V3*
X146680000Y-101370000D03*
G04 #@! TO.P,U5,4,VSS*
G04 #@! TO.N,GND*
X147950000Y-101370000D03*
G04 #@! TO.P,U5,5,D*
G04 #@! TO.N,MOSI*
X147950000Y-96420000D03*
G04 #@! TO.P,U5,6,C*
G04 #@! TO.N,SCK*
X146680000Y-96420000D03*
G04 #@! TO.P,U5,7,~{HOLD}*
G04 #@! TO.N,3V3*
X145410000Y-96420000D03*
G04 #@! TO.P,U5,8,VCC*
X144140000Y-96420000D03*
G04 #@! TD*
D22*
G04 #@! TO.P,C15,1*
G04 #@! TO.N,3V3*
X133337500Y-87200000D03*
G04 #@! TO.P,C15,2*
G04 #@! TO.N,GND*
X131787500Y-87200000D03*
G04 #@! TD*
D23*
G04 #@! TO.P,U2,1,1D+*
G04 #@! TO.N,USART1_TX*
X134399999Y-84560000D03*
D24*
G04 #@! TO.P,U2,2,1D-*
G04 #@! TO.N,USART1_RX*
X134900000Y-84560000D03*
G04 #@! TO.P,U2,3,2D+*
G04 #@! TO.N,/usb_mcu_P*
X135400000Y-84560000D03*
D23*
G04 #@! TO.P,U2,4,2D-*
G04 #@! TO.N,/usb_mcu_N*
X135900001Y-84560000D03*
D25*
G04 #@! TO.P,U2,5,GND*
G04 #@! TO.N,GND*
X136102444Y-83832600D03*
D23*
G04 #@! TO.P,U2,6,\u002AOE*
X135900001Y-83105200D03*
D24*
G04 #@! TO.P,U2,7,D-*
G04 #@! TO.N,/usb_N*
X135400000Y-83105200D03*
G04 #@! TO.P,U2,8,D+*
G04 #@! TO.N,/usb_P*
X134900000Y-83105200D03*
D23*
G04 #@! TO.P,U2,9,S*
G04 #@! TO.N,usb_switch*
X134399999Y-83105200D03*
D25*
G04 #@! TO.P,U2,10,VCC*
G04 #@! TO.N,3V3*
X134197556Y-83832600D03*
G04 #@! TD*
D26*
G04 #@! TO.P,D3,1,K*
G04 #@! TO.N,3V3*
X131540000Y-88790000D03*
G04 #@! TO.P,D3,2,A*
G04 #@! TO.N,USART1_RX*
X133640000Y-88790000D03*
G04 #@! TD*
D27*
G04 #@! TO.P,C10,1*
G04 #@! TO.N,Net-(C10-Pad1)*
X146940000Y-78490000D03*
G04 #@! TO.P,C10,2*
G04 #@! TO.N,GND*
X146940000Y-76940000D03*
G04 #@! TD*
D28*
G04 #@! TO.P,U3,1,VIN*
G04 #@! TO.N,5V*
X147307500Y-83400000D03*
G04 #@! TO.P,U3,2,GND*
G04 #@! TO.N,GND*
X146657500Y-83400000D03*
G04 #@! TO.P,U3,3,EN*
G04 #@! TO.N,5V*
X146007500Y-83400000D03*
G04 #@! TO.P,U3,4,NC*
G04 #@! TO.N,unconnected-(U3-NC-Pad4)*
X146007500Y-85300000D03*
G04 #@! TO.P,U3,5,VOUT*
G04 #@! TO.N,3V3*
X147307500Y-85300000D03*
G04 #@! TD*
D14*
G04 #@! TO.P,R11,1*
G04 #@! TO.N,Net-(SW2-C)*
X147340000Y-106090000D03*
G04 #@! TO.P,R11,2*
G04 #@! TO.N,3V3*
X145690000Y-106090000D03*
G04 #@! TD*
D27*
G04 #@! TO.P,C6,1*
G04 #@! TO.N,Net-(C6-Pad1)*
X148250000Y-93370000D03*
G04 #@! TO.P,C6,2*
G04 #@! TO.N,GND*
X148250000Y-91820000D03*
G04 #@! TD*
D29*
G04 #@! TO.P,C12,1*
G04 #@! TO.N,3V3*
X131430000Y-97165000D03*
G04 #@! TO.P,C12,2*
G04 #@! TO.N,GND*
X131430000Y-98715000D03*
G04 #@! TD*
D20*
G04 #@! TO.P,R1,1*
G04 #@! TO.N,Net-(R1-Pad1)*
X143970000Y-76890000D03*
G04 #@! TO.P,R1,2*
G04 #@! TO.N,3V3*
X143970000Y-78540000D03*
G04 #@! TD*
D30*
G04 #@! TO.P,R3,1*
G04 #@! TO.N,GND*
X133230000Y-79990000D03*
G04 #@! TO.P,R3,2*
G04 #@! TO.N,Net-(J1-CC2)*
X134880000Y-79990000D03*
G04 #@! TD*
D31*
G04 #@! TO.P,R15,1*
G04 #@! TO.N,Net-(SW3-C)*
X139920000Y-98560000D03*
G04 #@! TO.P,R15,2*
G04 #@! TO.N,3V3*
X139920000Y-96910000D03*
G04 #@! TD*
G04 #@! TO.P,R5,1*
G04 #@! TO.N,NRST*
X130180000Y-89970000D03*
G04 #@! TO.P,R5,2*
G04 #@! TO.N,3V3*
X130180000Y-88320000D03*
G04 #@! TD*
D27*
G04 #@! TO.P,C11,1*
G04 #@! TO.N,3V3*
X129520000Y-94410000D03*
G04 #@! TO.P,C11,2*
G04 #@! TO.N,GND*
X129520000Y-92860000D03*
G04 #@! TD*
D31*
G04 #@! TO.P,R14,1*
G04 #@! TO.N,Net-(C10-Pad1)*
X145450000Y-78535000D03*
G04 #@! TO.P,R14,2*
G04 #@! TO.N,Net-(R1-Pad1)*
X145450000Y-76885000D03*
G04 #@! TD*
D13*
G04 #@! TO.P,C5,1*
G04 #@! TO.N,3V3*
X138905000Y-92400000D03*
G04 #@! TO.P,C5,2*
G04 #@! TO.N,GND*
X140455000Y-92400000D03*
G04 #@! TD*
D29*
G04 #@! TO.P,C18,1*
G04 #@! TO.N,3V3*
X142230000Y-94820000D03*
G04 #@! TO.P,C18,2*
G04 #@! TO.N,GND*
X142230000Y-96370000D03*
G04 #@! TD*
D30*
G04 #@! TO.P,R16,1*
G04 #@! TO.N,Net-(U4-Y)*
X131747500Y-85670000D03*
G04 #@! TO.P,R16,2*
G04 #@! TO.N,USART1_TX*
X133397500Y-85670000D03*
G04 #@! TD*
D31*
G04 #@! TO.P,R8,1*
G04 #@! TO.N,Net-(C6-Pad1)*
X149760000Y-93430000D03*
G04 #@! TO.P,R8,2*
G04 #@! TO.N,Net-(R7-Pad1)*
X149760000Y-91780000D03*
G04 #@! TD*
G04 #@! TO.P,R18,1*
G04 #@! TO.N,3V3*
X132530000Y-83260000D03*
G04 #@! TO.P,R18,2*
G04 #@! TO.N,usb_switch*
X132530000Y-81610000D03*
G04 #@! TD*
D30*
G04 #@! TO.P,R4,1*
G04 #@! TO.N,LED*
X148340000Y-78930000D03*
G04 #@! TO.P,R4,2*
G04 #@! TO.N,Net-(D1-A)*
X149990000Y-78930000D03*
G04 #@! TD*
D31*
G04 #@! TO.P,R10,1*
G04 #@! TO.N,Net-(SW5-C)*
X139150000Y-84470000D03*
G04 #@! TO.P,R10,2*
G04 #@! TO.N,3V3*
X139150000Y-82820000D03*
G04 #@! TD*
D32*
G04 #@! TO.P,U4,1,NC*
G04 #@! TO.N,unconnected-(U4-NC-Pad1)*
X129865000Y-79150000D03*
G04 #@! TO.P,U4,2,A*
G04 #@! TO.N,Net-(U1-PA9)*
X130815000Y-79150000D03*
G04 #@! TO.P,U4,3,GND*
G04 #@! TO.N,GND*
X131765000Y-79150000D03*
G04 #@! TO.P,U4,4,Y*
G04 #@! TO.N,Net-(U4-Y)*
X131765000Y-76875000D03*
G04 #@! TO.P,U4,5,VCC*
G04 #@! TO.N,5V*
X129865000Y-76875000D03*
G04 #@! TD*
D29*
G04 #@! TO.P,C2,1*
G04 #@! TO.N,NRST*
X129500000Y-95820000D03*
G04 #@! TO.P,C2,2*
G04 #@! TO.N,GND*
X129500000Y-97370000D03*
G04 #@! TD*
G04 #@! TO.P,C17,1*
G04 #@! TO.N,Net-(C17-Pad1)*
X139920000Y-102960000D03*
G04 #@! TO.P,C17,2*
G04 #@! TO.N,GND*
X139920000Y-104510000D03*
G04 #@! TD*
D13*
G04 #@! TO.P,C16,1*
G04 #@! TO.N,5V*
X130065000Y-75160000D03*
G04 #@! TO.P,C16,2*
G04 #@! TO.N,GND*
X131615000Y-75160000D03*
G04 #@! TD*
D20*
G04 #@! TO.P,R17,1*
G04 #@! TO.N,Net-(SW3-C)*
X139920000Y-99930000D03*
G04 #@! TO.P,R17,2*
G04 #@! TO.N,Net-(C17-Pad1)*
X139920000Y-101580000D03*
G04 #@! TD*
D33*
G04 #@! TO.P,D1,1,K*
G04 #@! TO.N,GND*
X148590000Y-77210000D03*
G04 #@! TO.P,D1,2,A*
G04 #@! TO.N,Net-(D1-A)*
X150640000Y-77210000D03*
G04 #@! TD*
D22*
G04 #@! TO.P,C9,1*
G04 #@! TO.N,Net-(C9-Pad1)*
X141300000Y-106070000D03*
G04 #@! TO.P,C9,2*
G04 #@! TO.N,GND*
X139750000Y-106070000D03*
G04 #@! TD*
D20*
G04 #@! TO.P,R7,1*
G04 #@! TO.N,Net-(R7-Pad1)*
X149780000Y-94750000D03*
G04 #@! TO.P,R7,2*
G04 #@! TO.N,3V3*
X149780000Y-96400000D03*
G04 #@! TD*
D22*
G04 #@! TO.P,C4,1*
G04 #@! TO.N,3V3*
X149730000Y-81500000D03*
G04 #@! TO.P,C4,2*
G04 #@! TO.N,GND*
X148180000Y-81500000D03*
G04 #@! TD*
D34*
G04 #@! TO.P,C1,1*
G04 #@! TO.N,5V*
X144090000Y-83055000D03*
G04 #@! TO.P,C1,2*
G04 #@! TO.N,GND*
X144090000Y-86005000D03*
G04 #@! TD*
D29*
G04 #@! TO.P,C8,1*
G04 #@! TO.N,Net-(C8-Pad1)*
X140680000Y-85880000D03*
G04 #@! TO.P,C8,2*
G04 #@! TO.N,GND*
X140680000Y-87430000D03*
G04 #@! TD*
D31*
G04 #@! TO.P,R12,1*
G04 #@! TO.N,Net-(SW5-C)*
X139130000Y-87490000D03*
G04 #@! TO.P,R12,2*
G04 #@! TO.N,Net-(C8-Pad1)*
X139130000Y-85840000D03*
G04 #@! TD*
D27*
G04 #@! TO.P,C3,1*
G04 #@! TO.N,5V*
X143942500Y-81475000D03*
G04 #@! TO.P,C3,2*
G04 #@! TO.N,GND*
X143942500Y-79925000D03*
G04 #@! TD*
D31*
G04 #@! TO.P,R2,1*
G04 #@! TO.N,GND*
X139170000Y-81500000D03*
G04 #@! TO.P,R2,2*
G04 #@! TO.N,Net-(J1-CC1)*
X139170000Y-79850000D03*
G04 #@! TD*
D35*
G04 #@! TO.P,U1,1,VDD*
G04 #@! TO.N,3V3*
X131497990Y-94332236D03*
G04 #@! TO.P,U1,2,PC14*
G04 #@! TO.N,GND*
X131851544Y-94685789D03*
G04 #@! TO.P,U1,3,PC15*
X132205097Y-95039343D03*
G04 #@! TO.P,U1,4,NRST*
G04 #@! TO.N,NRST*
X132558651Y-95392896D03*
G04 #@! TO.P,U1,5,VDDA*
G04 #@! TO.N,3V3*
X132912204Y-95746449D03*
G04 #@! TO.P,U1,6,PA0*
G04 #@! TO.N,enc_B*
X133265757Y-96100003D03*
G04 #@! TO.P,U1,7,PA1*
G04 #@! TO.N,enc_A*
X133619311Y-96453556D03*
G04 #@! TO.P,U1,8,PA2*
G04 #@! TO.N,BOOT0*
X133972864Y-96807110D03*
D36*
G04 #@! TO.P,U1,9,PA3*
G04 #@! TO.N,usb_switch*
X134945136Y-96807110D03*
G04 #@! TO.P,U1,10,PA4*
G04 #@! TO.N,CS*
X135298689Y-96453556D03*
G04 #@! TO.P,U1,11,PA5*
G04 #@! TO.N,SCK*
X135652243Y-96100003D03*
G04 #@! TO.P,U1,12,PA6*
G04 #@! TO.N,MISO*
X136005796Y-95746449D03*
G04 #@! TO.P,U1,13,PA7*
G04 #@! TO.N,MOSI*
X136359349Y-95392896D03*
G04 #@! TO.P,U1,14,PB0*
G04 #@! TO.N,Net-(J3-Pin_2)*
X136712903Y-95039343D03*
G04 #@! TO.P,U1,15,PB1*
G04 #@! TO.N,Net-(J3-Pin_1)*
X137066456Y-94685789D03*
G04 #@! TO.P,U1,16,VSS*
G04 #@! TO.N,GND*
X137420010Y-94332236D03*
D35*
G04 #@! TO.P,U1,17,VDD*
G04 #@! TO.N,3V3*
X137420010Y-93359964D03*
G04 #@! TO.P,U1,18,PA8*
G04 #@! TO.N,GND*
X137066456Y-93006411D03*
G04 #@! TO.P,U1,19,PA9*
G04 #@! TO.N,Net-(U1-PA9)*
X136712903Y-92652857D03*
G04 #@! TO.P,U1,20,PA10*
G04 #@! TO.N,USART1_RX*
X136359349Y-92299304D03*
G04 #@! TO.P,U1,21,PA11*
G04 #@! TO.N,/usb_mcu_N*
X136005796Y-91945751D03*
G04 #@! TO.P,U1,22,PA12*
G04 #@! TO.N,/usb_mcu_P*
X135652243Y-91592197D03*
G04 #@! TO.P,U1,23,PA13*
G04 #@! TO.N,SWDIO*
X135298689Y-91238644D03*
G04 #@! TO.P,U1,24,PA14*
G04 #@! TO.N,SWCLK*
X134945136Y-90885090D03*
D36*
G04 #@! TO.P,U1,25,PA15*
G04 #@! TO.N,LED*
X133972864Y-90885090D03*
G04 #@! TO.P,U1,26,PB3*
G04 #@! TO.N,GND*
X133619311Y-91238644D03*
G04 #@! TO.P,U1,27,PB4*
X133265757Y-91592197D03*
G04 #@! TO.P,U1,28,PB5*
G04 #@! TO.N,pushbutton_A*
X132912204Y-91945751D03*
G04 #@! TO.P,U1,29,PB6*
G04 #@! TO.N,pushbutton_B*
X132558651Y-92299304D03*
G04 #@! TO.P,U1,30,PB7*
G04 #@! TO.N,pushbutton_C*
X132205097Y-92652857D03*
G04 #@! TO.P,U1,31,PH3*
G04 #@! TO.N,BOOT0*
X131851544Y-93006411D03*
G04 #@! TO.P,U1,32,VSS*
G04 #@! TO.N,GND*
X131497990Y-93359964D03*
D37*
G04 #@! TO.P,U1,33,VSS*
X134459000Y-93846100D03*
G04 #@! TD*
D34*
G04 #@! TO.P,C14,1*
G04 #@! TO.N,3V3*
X149280000Y-83080000D03*
G04 #@! TO.P,C14,2*
G04 #@! TO.N,GND*
X149280000Y-86030000D03*
G04 #@! TD*
D31*
G04 #@! TO.P,R9,1*
G04 #@! TO.N,Net-(C7-Pad1)*
X145240000Y-93430000D03*
G04 #@! TO.P,R9,2*
G04 #@! TO.N,Net-(R6-Pad1)*
X145240000Y-91780000D03*
G04 #@! TD*
D38*
G04 #@! TO.P,J3,1,Pin_1*
G04 #@! TO.N,Net-(J3-Pin_1)*
X139550000Y-94170000D03*
D39*
G04 #@! TO.P,J3,2,Pin_2*
G04 #@! TO.N,Net-(J3-Pin_2)*
X139550000Y-95170000D03*
G04 #@! TD*
D27*
G04 #@! TO.P,C7,1*
G04 #@! TO.N,Net-(C7-Pad1)*
X143760000Y-93380000D03*
G04 #@! TO.P,C7,2*
G04 #@! TO.N,GND*
X143760000Y-91830000D03*
G04 #@! TD*
D40*
G04 #@! TO.P,SW3,1,B*
G04 #@! TO.N,GND*
X137160000Y-99060000D03*
G04 #@! TO.P,SW3,2,C*
G04 #@! TO.N,Net-(SW3-C)*
X137160000Y-104140000D03*
G04 #@! TO.P,SW3,3,A*
G04 #@! TO.N,unconnected-(SW3-A-Pad3)*
X129540000Y-99060000D03*
G04 #@! TO.P,SW3,4*
G04 #@! TO.N,N/C*
X129540000Y-104140000D03*
G04 #@! TD*
G04 #@! TO.P,SW2,1,B*
G04 #@! TO.N,GND*
X149860000Y-99060000D03*
G04 #@! TO.P,SW2,2,C*
G04 #@! TO.N,Net-(SW2-C)*
X149860000Y-104140000D03*
G04 #@! TO.P,SW2,3,A*
G04 #@! TO.N,unconnected-(SW2-A-Pad3)*
X142240000Y-99060000D03*
G04 #@! TO.P,SW2,4*
G04 #@! TO.N,N/C*
X142240000Y-104140000D03*
G04 #@! TD*
D41*
G04 #@! TO.P,SW1,A,A*
G04 #@! TO.N,Net-(R7-Pad1)*
X149360000Y-88770000D03*
D42*
G04 #@! TO.P,SW1,B,B*
G04 #@! TO.N,Net-(R6-Pad1)*
X144360000Y-88770000D03*
G04 #@! TO.P,SW1,C,C*
G04 #@! TO.N,GND*
X146860000Y-88770000D03*
D43*
G04 #@! TO.P,SW1,MP*
G04 #@! TO.N,N/C*
X141260000Y-81270000D03*
X152280000Y-81270000D03*
D42*
G04 #@! TO.P,SW1,S1,S1*
G04 #@! TO.N,Net-(R1-Pad1)*
X144360000Y-74270000D03*
G04 #@! TO.P,SW1,S2,S2*
G04 #@! TO.N,GND*
X149360000Y-74270000D03*
G04 #@! TD*
D40*
G04 #@! TO.P,SW5,1,B*
G04 #@! TO.N,GND*
X137160000Y-81280000D03*
G04 #@! TO.P,SW5,2,C*
G04 #@! TO.N,Net-(SW5-C)*
X137160000Y-86360000D03*
G04 #@! TO.P,SW5,3,A*
G04 #@! TO.N,unconnected-(SW5-A-Pad3)*
X129540000Y-81280000D03*
G04 #@! TO.P,SW5,4*
G04 #@! TO.N,N/C*
X129540000Y-86360000D03*
G04 #@! TD*
D44*
G04 #@! TO.N,GND*
X137890000Y-80160000D03*
G04 #@! TO.N,CS*
X135791100Y-97343900D03*
X140842600Y-99831500D03*
G04 #@! TO.N,pushbutton_C*
X131240400Y-91741200D03*
X131460000Y-105411200D03*
G04 #@! TO.N,MISO*
X137219500Y-97198200D03*
X140936900Y-98647900D03*
G04 #@! TO.N,Net-(U1-PA9)*
X138586300Y-86629800D03*
X131088000Y-84385200D03*
G04 #@! TO.N,usb_switch*
X132738300Y-89032700D03*
X134641400Y-97254100D03*
G04 #@! TO.N,Net-(C10-Pad1)*
X142768600Y-102595800D03*
X132760000Y-101964500D03*
G04 #@! TO.N,Net-(C8-Pad1)*
X139905000Y-83882500D03*
X127750900Y-85305300D03*
G04 #@! TO.N,Net-(C7-Pad1)*
X142727100Y-93149900D03*
X134175700Y-99072700D03*
G04 #@! TO.N,Net-(C6-Pad1)*
X135979200Y-100128500D03*
X142743200Y-100452800D03*
G04 #@! TO.N,SWDIO*
X135444500Y-88370400D03*
G04 #@! TO.N,pushbutton_A*
X128601100Y-95631700D03*
X132038700Y-91058700D03*
G04 #@! TO.N,USART1_RX*
X138312200Y-89221900D03*
X133999300Y-88007000D03*
G04 #@! TO.N,SWCLK*
X134857700Y-90227900D03*
G04 #@! TO.N,BOOT0*
X133955400Y-97582100D03*
X133652300Y-98618800D03*
X130740200Y-90818500D03*
G04 #@! TO.N,LED*
X145120200Y-80864300D03*
X134357600Y-88703500D03*
G04 #@! TO.N,NRST*
X130736700Y-96441700D03*
G04 #@! TO.N,GND*
X137834000Y-92238900D03*
X148020000Y-86100000D03*
X139859998Y-81920000D03*
X141360000Y-88070000D03*
X139170000Y-104490000D03*
X131040000Y-95820000D03*
X138050000Y-101150000D03*
X138170000Y-99060000D03*
X131760000Y-87980000D03*
X150970000Y-74510000D03*
X142250000Y-97220000D03*
X146470000Y-80690000D03*
X131415000Y-98015000D03*
X132430000Y-75160000D03*
X147971808Y-103640002D03*
X136690000Y-83832600D03*
X147130000Y-87510000D03*
X139660000Y-93240000D03*
X131415428Y-98015000D03*
X137833924Y-92238943D03*
X145270000Y-86620000D03*
X148280000Y-91080000D03*
X129493000Y-96670000D03*
X131240000Y-101770000D03*
X131785000Y-80160000D03*
X129493361Y-96670000D03*
X132600000Y-90530000D03*
X146670000Y-84160000D03*
X133670000Y-93846100D03*
X138174182Y-93821838D03*
X146920000Y-76200000D03*
X139070000Y-106070000D03*
X134550000Y-93890000D03*
X141505000Y-78735000D03*
X134170000Y-78910000D03*
X149930000Y-100260000D03*
X148080000Y-76270000D03*
X148270000Y-98440000D03*
X135250000Y-93846100D03*
X138174000Y-93821800D03*
X144620000Y-80330000D03*
X133830000Y-80920000D03*
X147490000Y-81490000D03*
G04 #@! TO.N,3V3*
X133582600Y-83832600D03*
X130180000Y-87750000D03*
X146669998Y-102740000D03*
X145970002Y-97700000D03*
X130420000Y-94800000D03*
X150370000Y-95630000D03*
X135250000Y-105560000D03*
X131820000Y-83250000D03*
X132074000Y-96584300D03*
X145620000Y-105360000D03*
X132074327Y-96584327D03*
X149804420Y-97200537D03*
X138550000Y-83370000D03*
X138660000Y-93390000D03*
X149730000Y-80800000D03*
X134020000Y-87150000D03*
X142250000Y-95520000D03*
X148920000Y-82160000D03*
X146944320Y-84749281D03*
X143210000Y-78640000D03*
X146730000Y-94180000D03*
X132080000Y-88790000D03*
X136060000Y-102400000D03*
X140670000Y-96920000D03*
G04 #@! TO.N,GND*
X130440000Y-93790000D03*
G04 #@! TD*
D45*
G04 #@! TO.N,3V3*
X149780000Y-96400000D02*
X149780000Y-97176117D01*
X149780000Y-97176117D02*
X149804420Y-97200537D01*
D46*
G04 #@! TO.N,5V*
X136241376Y-76884800D02*
X136296176Y-76830000D01*
X139479000Y-76830000D02*
X139533800Y-76884800D01*
X136296176Y-76830000D02*
X139479000Y-76830000D01*
D45*
G04 #@! TO.N,/usb_P*
X137130000Y-78105000D02*
X137130000Y-77530001D01*
X138130000Y-77566888D02*
X138130000Y-78105000D01*
X137130000Y-77530001D02*
X137381001Y-77279000D01*
X137842112Y-77279000D02*
X138130000Y-77566888D01*
X137381001Y-77279000D02*
X137842112Y-77279000D01*
D46*
G04 #@! TO.N,5V*
X136241376Y-76884800D02*
X135376576Y-76020000D01*
X135376576Y-76020000D02*
X134650000Y-76020000D01*
X135480000Y-78105000D02*
X135480000Y-77646176D01*
X135480000Y-77646176D02*
X136241376Y-76884800D01*
X140280000Y-77631000D02*
X140280000Y-78105000D01*
X139533800Y-76884800D02*
X140280000Y-77631000D01*
D45*
G04 #@! TO.N,GND*
X137160000Y-80890000D02*
X137890000Y-80160000D01*
X137160000Y-81280000D02*
X137160000Y-80890000D01*
X137160000Y-81280000D02*
X138950000Y-81280000D01*
X138950000Y-81280000D02*
X139170000Y-81500000D01*
X135900001Y-83105200D02*
X135900001Y-82539999D01*
X135900001Y-82539999D02*
X137160000Y-81280000D01*
G04 #@! TO.N,/usb_N*
X135400000Y-83105200D02*
X135400000Y-81221479D01*
X135400000Y-81221479D02*
X137690479Y-78931000D01*
X137690479Y-78931000D02*
X137881001Y-78931000D01*
X137630000Y-78105000D02*
X137630000Y-78679999D01*
X137630000Y-78679999D02*
X137881001Y-78931000D01*
X137881001Y-78931000D02*
X138540112Y-78931000D01*
X138540112Y-78931000D02*
X138630000Y-78841112D01*
X138630000Y-78841112D02*
X138630000Y-78105000D01*
G04 #@! TO.N,Net-(J3-Pin_2)*
X137232300Y-95558700D02*
X136712900Y-95039300D01*
X139161300Y-95558700D02*
X137232300Y-95558700D01*
X139550000Y-95170000D02*
X139161300Y-95558700D01*
G04 #@! TO.N,Net-(J3-Pin_1)*
X139550000Y-94170000D02*
X138874900Y-94170000D01*
X137571300Y-95190600D02*
X137066500Y-94685800D01*
X138107500Y-95190600D02*
X137571300Y-95190600D01*
X138874900Y-94423200D02*
X138107500Y-95190600D01*
X138874900Y-94170000D02*
X138874900Y-94423200D01*
G04 #@! TO.N,MOSI*
X136918200Y-95951800D02*
X136359300Y-95392900D01*
X139765300Y-95951800D02*
X136918200Y-95951800D01*
X141598200Y-94118900D02*
X139765300Y-95951800D01*
X145961500Y-94118900D02*
X141598200Y-94118900D01*
X147950000Y-96107400D02*
X145961500Y-94118900D01*
X147950000Y-96420000D02*
X147950000Y-96107400D01*
G04 #@! TO.N,CS*
X135791100Y-96946000D02*
X135791100Y-97343900D01*
X135298700Y-96453600D02*
X135791100Y-96946000D01*
X142381100Y-101370000D02*
X144140000Y-101370000D01*
X140842600Y-99831500D02*
X142381100Y-101370000D01*
G04 #@! TO.N,pushbutton_C*
X131460000Y-106550000D02*
X131460000Y-105411200D01*
X131293400Y-91741200D02*
X131240400Y-91741200D01*
X132205100Y-92652900D02*
X131293400Y-91741200D01*
G04 #@! TO.N,SCK*
X146680000Y-97742700D02*
X146680000Y-96420000D01*
X146192300Y-98230400D02*
X146680000Y-97742700D01*
X144904300Y-98230400D02*
X146192300Y-98230400D01*
X144539700Y-97865800D02*
X144904300Y-98230400D01*
X137121500Y-97865800D02*
X144539700Y-97865800D01*
X136562200Y-97306500D02*
X137121500Y-97865800D01*
X136562200Y-97010000D02*
X136562200Y-97306500D01*
X135652200Y-96100000D02*
X136562200Y-97010000D01*
G04 #@! TO.N,MISO*
X137219500Y-96960100D02*
X137219500Y-97198200D01*
X136005800Y-95746400D02*
X137219500Y-96960100D01*
X140936900Y-99218500D02*
X140936900Y-98647900D01*
X141342700Y-99624300D02*
X140936900Y-99218500D01*
X141342700Y-99809000D02*
X141342700Y-99624300D01*
X142529600Y-100995900D02*
X141342700Y-99809000D01*
X142972100Y-100995900D02*
X142529600Y-100995900D01*
X143828800Y-100139200D02*
X142972100Y-100995900D01*
X144539600Y-100139200D02*
X143828800Y-100139200D01*
X145410000Y-101009600D02*
X144539600Y-100139200D01*
X145410000Y-101370000D02*
X145410000Y-101009600D01*
G04 #@! TO.N,Net-(U1-PA9)*
X139384000Y-86629800D02*
X138586300Y-86629800D01*
X139856000Y-87101800D02*
X139384000Y-86629800D01*
X139856000Y-88764600D02*
X139856000Y-87101800D01*
X137265000Y-91355600D02*
X139856000Y-88764600D01*
X137265000Y-92100800D02*
X137265000Y-91355600D01*
X136712900Y-92652900D02*
X137265000Y-92100800D01*
X130929700Y-84226900D02*
X131088000Y-84385200D01*
X130929700Y-79264700D02*
X130929700Y-84226900D01*
X130815000Y-79150000D02*
X130929700Y-79264700D01*
G04 #@! TO.N,/usb_mcu_P*
X135787400Y-91457000D02*
X135652200Y-91592200D01*
X135823000Y-91457000D02*
X135787400Y-91457000D01*
G04 #@! TO.N,/usb_mcu_N*
X136005800Y-91910500D02*
X136005800Y-91945800D01*
X136158000Y-91758300D02*
X136005800Y-91910500D01*
G04 #@! TO.N,usb_switch*
X134400000Y-83105200D02*
X134400000Y-82502700D01*
X133507300Y-81610000D02*
X134400000Y-82502700D01*
X132530000Y-81610000D02*
X133507300Y-81610000D01*
X131299100Y-82840900D02*
X132530000Y-81610000D01*
X131299100Y-83776900D02*
X131299100Y-82840900D01*
X132606000Y-85083800D02*
X131299100Y-83776900D01*
X132606000Y-88900400D02*
X132606000Y-85083800D01*
X132738300Y-89032700D02*
X132606000Y-88900400D01*
X134945100Y-96950400D02*
X134945100Y-96807100D01*
X134641400Y-97254100D02*
X134945100Y-96950400D01*
G04 #@! TO.N,Net-(U4-Y)*
X131644000Y-85670000D02*
X131747500Y-85670000D01*
X130579400Y-84605400D02*
X131644000Y-85670000D01*
X130579400Y-80887800D02*
X130579400Y-84605400D01*
X129765900Y-80074300D02*
X130579400Y-80887800D01*
X129540100Y-80074300D02*
X129765900Y-80074300D01*
X129289100Y-79823300D02*
X129540100Y-80074300D01*
X129289100Y-78483000D02*
X129289100Y-79823300D01*
X129784200Y-77987900D02*
X129289100Y-78483000D01*
X130652100Y-77987900D02*
X129784200Y-77987900D01*
X131765000Y-76875000D02*
X130652100Y-77987900D01*
G04 #@! TO.N,Net-(SW3-C)*
X139920000Y-99930000D02*
X139920000Y-98560000D01*
X139184200Y-100665800D02*
X139920000Y-99930000D01*
X139184200Y-102439600D02*
X139184200Y-100665800D01*
X137483800Y-104140000D02*
X139184200Y-102439600D01*
X137160000Y-104140000D02*
X137483800Y-104140000D01*
G04 #@! TO.N,Net-(R7-Pad1)*
X149360000Y-88770000D02*
X149360000Y-90020100D01*
X149760000Y-90420100D02*
X149360000Y-90020100D01*
X149760000Y-91780000D02*
X149760000Y-90420100D01*
X150514200Y-92534200D02*
X149760000Y-91780000D01*
X150514200Y-94015800D02*
X150514200Y-92534200D01*
X149780000Y-94750000D02*
X150514200Y-94015800D01*
G04 #@! TO.N,Net-(R6-Pad1)*
X145240000Y-89650000D02*
X145240000Y-91780000D01*
X144360000Y-88770000D02*
X145240000Y-89650000D01*
X145240000Y-91780000D02*
X146730000Y-91780000D01*
G04 #@! TO.N,Net-(R1-Pad1)*
X143970000Y-74660000D02*
X143970000Y-76890000D01*
X144360000Y-74270000D02*
X143970000Y-74660000D01*
X143975000Y-76885000D02*
X143970000Y-76890000D01*
X145450000Y-76885000D02*
X143975000Y-76885000D01*
G04 #@! TO.N,Net-(C10-Pad1)*
X146895000Y-78535000D02*
X145450000Y-78535000D01*
X146940000Y-78490000D02*
X146895000Y-78535000D01*
X132760000Y-100825000D02*
X132760000Y-101964500D01*
X145751200Y-102595800D02*
X142768600Y-102595800D01*
X146022400Y-102324600D02*
X145751200Y-102595800D01*
X146022400Y-100426200D02*
X146022400Y-102324600D01*
X147126000Y-99322600D02*
X146022400Y-100426200D01*
X148095000Y-99322600D02*
X147126000Y-99322600D01*
X149462600Y-97955000D02*
X148095000Y-99322600D01*
X149868100Y-97955000D02*
X149462600Y-97955000D01*
X150880300Y-96942800D02*
X149868100Y-97955000D01*
X150880300Y-85879900D02*
X150880300Y-96942800D01*
X150121800Y-85121400D02*
X150880300Y-85879900D01*
X149616300Y-85121400D02*
X150121800Y-85121400D01*
X148022300Y-83527400D02*
X149616300Y-85121400D01*
X148022300Y-82809800D02*
X148022300Y-83527400D01*
X146989700Y-81777200D02*
X148022300Y-82809800D01*
X146989700Y-78539700D02*
X146989700Y-81777200D01*
X146940000Y-78490000D02*
X146989700Y-78539700D01*
G04 #@! TO.N,Net-(C9-Pad1)*
X142690000Y-106070000D02*
X141300000Y-106070000D01*
X133410000Y-107178000D02*
X133410000Y-106550000D01*
X134194900Y-107962900D02*
X133410000Y-107178000D01*
X139407100Y-107962900D02*
X134194900Y-107962900D01*
X141300000Y-106070000D02*
X139407100Y-107962900D01*
G04 #@! TO.N,Net-(C8-Pad1)*
X139130000Y-85840000D02*
X139905000Y-85840000D01*
X140640000Y-85840000D02*
X140680000Y-85880000D01*
X139905000Y-85840000D02*
X140640000Y-85840000D01*
X139905000Y-85840000D02*
X139905000Y-83882500D01*
X132110000Y-104993600D02*
X132110000Y-106550000D01*
X127750900Y-100634500D02*
X132110000Y-104993600D01*
X127750900Y-85305300D02*
X127750900Y-100634500D01*
G04 #@! TO.N,Net-(C7-Pad1)*
X143810000Y-93430000D02*
X143760000Y-93380000D01*
X145240000Y-93430000D02*
X143810000Y-93430000D01*
X142727100Y-93150000D02*
X142727100Y-93149900D01*
X143530000Y-93150000D02*
X142727100Y-93150000D01*
X143760000Y-93380000D02*
X143530000Y-93150000D01*
X134175700Y-100709300D02*
X134060000Y-100825000D01*
X134175700Y-99072700D02*
X134175700Y-100709300D01*
G04 #@! TO.N,Net-(C6-Pad1)*
X148310000Y-93430000D02*
X148250000Y-93370000D01*
X149760000Y-93430000D02*
X148310000Y-93430000D01*
X148522200Y-93642200D02*
X148250000Y-93370000D01*
X148522200Y-97389700D02*
X148522200Y-93642200D01*
X146939500Y-98972400D02*
X148522200Y-97389700D01*
X144223600Y-98972400D02*
X146939500Y-98972400D01*
X142743200Y-100452800D02*
X144223600Y-98972400D01*
X135979200Y-100205800D02*
X135979200Y-100128500D01*
X135360000Y-100825000D02*
X135979200Y-100205800D01*
G04 #@! TO.N,Net-(J1-CC2)*
X136130000Y-78740000D02*
X136130000Y-78105000D01*
X134880000Y-79990000D02*
X136130000Y-78740000D01*
G04 #@! TO.N,Net-(J1-CC1)*
X139130000Y-79810000D02*
X139130000Y-78105000D01*
X139170000Y-79850000D02*
X139130000Y-79810000D01*
G04 #@! TO.N,/usb_P*
X137130000Y-78645900D02*
X137130000Y-78105000D01*
X137155000Y-78670900D02*
X137130000Y-78645900D01*
G04 #@! TO.N,5V*
X147307500Y-83164200D02*
X147307500Y-83400000D01*
X147308000Y-83163700D02*
X147307500Y-83164200D01*
X143942500Y-81253700D02*
X143942500Y-81475000D01*
X143960000Y-81236200D02*
X143942500Y-81253700D01*
X129865000Y-76830000D02*
X129865000Y-76875000D01*
X143942500Y-82191200D02*
X143942500Y-81475000D01*
X144090000Y-82338700D02*
X143942500Y-82191200D01*
X130065000Y-75545000D02*
X130065000Y-75160000D01*
X144435000Y-83400000D02*
X144090000Y-83055000D01*
X140280000Y-78530000D02*
X140280000Y-78105000D01*
X135480000Y-78105000D02*
X135480000Y-77716900D01*
G04 #@! TO.N,Net-(SW2-C)*
X147910000Y-106090000D02*
X147340000Y-106090000D01*
X149860000Y-104140000D02*
X147910000Y-106090000D01*
X145158100Y-106888100D02*
X144340000Y-106070000D01*
X146541900Y-106888100D02*
X145158100Y-106888100D01*
X147340000Y-106090000D02*
X146541900Y-106888100D01*
G04 #@! TO.N,SWDIO*
X135607800Y-90929500D02*
X135298700Y-91238600D01*
X135607800Y-88533700D02*
X135607800Y-90929500D01*
X135444500Y-88370400D02*
X135607800Y-88533700D01*
G04 #@! TO.N,pushbutton_A*
X132912200Y-91932200D02*
X132912200Y-91945800D01*
X132038700Y-91058700D02*
X132912200Y-91932200D01*
X128515700Y-95717100D02*
X128601100Y-95631700D01*
X128515700Y-100293700D02*
X128515700Y-95717100D01*
X134060000Y-105838000D02*
X128515700Y-100293700D01*
X134060000Y-106550000D02*
X134060000Y-105838000D01*
G04 #@! TO.N,pushbutton_B*
X132760000Y-105033300D02*
X132760000Y-106550000D01*
X128101000Y-100374300D02*
X132760000Y-105033300D01*
X128101000Y-90861900D02*
X128101000Y-100374300D01*
X129657900Y-89305000D02*
X128101000Y-90861900D01*
X130640200Y-89305000D02*
X129657900Y-89305000D01*
X131380200Y-90045000D02*
X130640200Y-89305000D01*
X131380200Y-91120800D02*
X131380200Y-90045000D01*
X132558700Y-92299300D02*
X131380200Y-91120800D01*
G04 #@! TO.N,USART1_TX*
X134396300Y-84556300D02*
X134400000Y-84560000D01*
X134178500Y-84556300D02*
X134396300Y-84556300D01*
X134178500Y-84889000D02*
X134178500Y-84556300D01*
X133397500Y-85670000D02*
X134178500Y-84889000D01*
G04 #@! TO.N,USART1_RX*
X133640000Y-88366300D02*
X133640000Y-88790000D01*
X133999300Y-88007000D02*
X133640000Y-88366300D01*
X134900000Y-87106300D02*
X133999300Y-88007000D01*
X134900000Y-84560000D02*
X134900000Y-87106300D01*
X136660200Y-90873900D02*
X138312200Y-89221900D01*
X136660200Y-91998400D02*
X136660200Y-90873900D01*
X136359300Y-92299300D02*
X136660200Y-91998400D01*
G04 #@! TO.N,enc_B*
X133410000Y-102026400D02*
X133410000Y-100825000D01*
X132954700Y-102481700D02*
X133410000Y-102026400D01*
X131224500Y-102481700D02*
X132954700Y-102481700D01*
X130723900Y-101981100D02*
X131224500Y-102481700D01*
X130723900Y-100275200D02*
X130723900Y-101981100D01*
X131554100Y-99445000D02*
X130723900Y-100275200D01*
X131848300Y-99445000D02*
X131554100Y-99445000D01*
X132950600Y-98342700D02*
X131848300Y-99445000D01*
X132950600Y-96415200D02*
X132950600Y-98342700D01*
X133265800Y-96100000D02*
X132950600Y-96415200D01*
G04 #@! TO.N,Net-(SW5-C)*
X137328600Y-86360000D02*
X137160000Y-86360000D01*
X138458600Y-87490000D02*
X137328600Y-86360000D01*
X139130000Y-87490000D02*
X138458600Y-87490000D01*
X137328600Y-86291400D02*
X139150000Y-84470000D01*
X137328600Y-86360000D02*
X137328600Y-86291400D01*
G04 #@! TO.N,SWCLK*
X134945100Y-90315300D02*
X134857700Y-90227900D01*
X134945100Y-90885100D02*
X134945100Y-90315300D01*
G04 #@! TO.N,Net-(C17-Pad1)*
X139920000Y-101580000D02*
X139920000Y-102335500D01*
X139920000Y-102335500D02*
X139920000Y-102960000D01*
X134710000Y-107191300D02*
X134710000Y-106550000D01*
X135082800Y-107564100D02*
X134710000Y-107191300D01*
X135615500Y-107564100D02*
X135082800Y-107564100D01*
X136022700Y-107156900D02*
X135615500Y-107564100D01*
X136022700Y-106366800D02*
X136022700Y-107156900D01*
X136796400Y-105593100D02*
X136022700Y-106366800D01*
X137165200Y-105593100D02*
X136796400Y-105593100D01*
X139920000Y-102838300D02*
X137165200Y-105593100D01*
X139920000Y-102335500D02*
X139920000Y-102838300D01*
G04 #@! TO.N,BOOT0*
X133955400Y-96824600D02*
X133955400Y-97582100D01*
X133972900Y-96807100D02*
X133955400Y-96824600D01*
X132110000Y-100161100D02*
X132110000Y-100825000D01*
X133652300Y-98618800D02*
X132110000Y-100161100D01*
X130740200Y-91980700D02*
X130740200Y-90818500D01*
X131765900Y-93006400D02*
X130740200Y-91980700D01*
X131851500Y-93006400D02*
X131765900Y-93006400D01*
G04 #@! TO.N,enc_A*
X133300700Y-96772200D02*
X133619300Y-96453600D01*
X133300700Y-97679700D02*
X133300700Y-96772200D01*
X133739700Y-98118700D02*
X133300700Y-97679700D01*
X133929000Y-98118700D02*
X133739700Y-98118700D01*
X134710000Y-98899700D02*
X133929000Y-98118700D01*
X134710000Y-100825000D02*
X134710000Y-98899700D01*
G04 #@! TO.N,LED*
X145120200Y-79588500D02*
X145120200Y-80864300D01*
X144696000Y-79164300D02*
X145120200Y-79588500D01*
X144696000Y-78162100D02*
X144696000Y-79164300D01*
X145095100Y-77763000D02*
X144696000Y-78162100D01*
X147397500Y-77763000D02*
X145095100Y-77763000D01*
X148340000Y-78705500D02*
X147397500Y-77763000D01*
X148340000Y-78930000D02*
X148340000Y-78705500D01*
X134357600Y-90500400D02*
X134357600Y-88703500D01*
X133972900Y-90885100D02*
X134357600Y-90500400D01*
G04 #@! TO.N,Net-(D1-A)*
X150640000Y-78280000D02*
X149990000Y-78930000D01*
X150640000Y-77210000D02*
X150640000Y-78280000D01*
G04 #@! TO.N,NRST*
X130736700Y-96441700D02*
X130736700Y-96321000D01*
X132558800Y-95393000D02*
X132558900Y-95393000D01*
X132558700Y-95392900D02*
X132558800Y-95393000D01*
X128515500Y-94835500D02*
X129500000Y-95820000D01*
X128515500Y-90988800D02*
X128515500Y-94835500D01*
X129534300Y-89970000D02*
X128515500Y-90988800D01*
X130180000Y-89970000D02*
X129534300Y-89970000D01*
G04 #@! TO.N,3V3*
X132493300Y-96165300D02*
X132912200Y-95746400D01*
X132493100Y-96165300D02*
X132493300Y-96165300D01*
X132520000Y-83250000D02*
X132530000Y-83260000D01*
X132420000Y-83250000D02*
X132520000Y-83250000D01*
X130180000Y-87913700D02*
X130180000Y-88320000D01*
X131430000Y-97087000D02*
X131430000Y-97165000D01*
X131692000Y-96825000D02*
X131430000Y-97087000D01*
X147307500Y-85206700D02*
X147307500Y-85300000D01*
X147308000Y-85206200D02*
X147307500Y-85206700D01*
X133387500Y-87150000D02*
X133337500Y-87200000D01*
X135360000Y-105972500D02*
X135360000Y-106550000D01*
X135250000Y-105862500D02*
X135360000Y-105972500D01*
G04 #@! TO.N,GND*
X133265800Y-91592200D02*
X133266000Y-91592200D01*
X134502900Y-93890000D02*
X134459000Y-93846100D01*
X134550000Y-93890000D02*
X134502900Y-93890000D01*
X132600000Y-90530000D02*
X132540000Y-90590000D01*
X133265000Y-90884300D02*
X133619300Y-91238600D01*
X133264500Y-90884300D02*
X133265000Y-90884300D01*
X137663900Y-94576100D02*
X137420000Y-94332200D01*
X137676000Y-94576100D02*
X137663900Y-94576100D01*
X131814800Y-95429600D02*
X132205100Y-95039300D01*
X131814600Y-95429600D02*
X131814800Y-95429600D01*
X131765000Y-79645000D02*
X131765000Y-79150000D01*
X131785000Y-79665000D02*
X131765000Y-79645000D01*
X133230000Y-80320000D02*
X133230000Y-79990000D01*
X146657500Y-83773200D02*
X146657500Y-83400000D01*
X146658000Y-83773700D02*
X146657500Y-83773200D01*
X143760000Y-90470000D02*
X143760000Y-91830000D01*
X141360000Y-88070000D02*
X143760000Y-90470000D01*
X141080000Y-78310000D02*
X141080000Y-78105000D01*
X134680000Y-78400000D02*
X134680000Y-78105000D01*
X131460000Y-100935000D02*
X131460000Y-100825000D01*
X131350000Y-101045000D02*
X131460000Y-100935000D01*
G04 #@! TO.N,/usb_mcu_P*
X135958000Y-91321794D02*
X135958000Y-87168000D01*
X135399999Y-86609999D02*
X135399999Y-84560000D01*
X135958000Y-87168000D02*
X135399999Y-86609999D01*
X135687597Y-91592197D02*
X135958000Y-91321794D01*
G04 #@! TO.N,/usb_mcu_N*
X135900000Y-86580000D02*
X135900000Y-84560000D01*
X136005796Y-91910396D02*
X136310000Y-91606192D01*
X136310000Y-86990000D02*
X135900000Y-86580000D01*
X136310000Y-91606192D02*
X136310000Y-86990000D01*
G04 #@! TO.N,/usb_P*
X137155000Y-78555000D02*
X137155000Y-78786800D01*
X134899999Y-81041801D02*
X134899999Y-83105200D01*
X137155000Y-78786800D02*
X134899999Y-81041801D01*
D46*
G04 #@! TO.N,5V*
X143166500Y-80374110D02*
X143468390Y-80676000D01*
X143468390Y-80676000D02*
X143868000Y-80676000D01*
X143960000Y-80768000D02*
X143960000Y-81457500D01*
X130080000Y-75530000D02*
X129865000Y-75745000D01*
X140280000Y-78530000D02*
X141040000Y-79290000D01*
X147307500Y-83400000D02*
X147307500Y-82927500D01*
X146470000Y-82090000D02*
X146007500Y-82552500D01*
X133014000Y-74384000D02*
X134650000Y-76020000D01*
X147307500Y-82927500D02*
X146470000Y-82090000D01*
X146007500Y-83400000D02*
X144435000Y-83400000D01*
X143868000Y-80676000D02*
X143960000Y-80768000D01*
X143166500Y-79974500D02*
X143166500Y-80374110D01*
X146007500Y-82552500D02*
X146007500Y-83400000D01*
X130841000Y-74384000D02*
X133014000Y-74384000D01*
X144090000Y-83055000D02*
X144090000Y-81622500D01*
X129865000Y-75745000D02*
X129865000Y-76830000D01*
X130065000Y-75160000D02*
X130841000Y-74384000D01*
X141040000Y-79290000D02*
X142482000Y-79290000D01*
X142482000Y-79290000D02*
X143166500Y-79974500D01*
D45*
G04 #@! TO.N,USART1_TX*
X134235100Y-84612600D02*
X134122500Y-84500000D01*
G04 #@! TO.N,NRST*
X132558651Y-95392896D02*
X131630547Y-96321000D01*
X130001000Y-96321000D02*
X129500000Y-95820000D01*
X131630547Y-96321000D02*
X130001000Y-96321000D01*
G04 #@! TO.N,GND*
X131760000Y-87227500D02*
X131787500Y-87200000D01*
X132600000Y-90530000D02*
X132910000Y-90530000D01*
X131040000Y-95497333D02*
X131851544Y-94685789D01*
X140680000Y-87430000D02*
X140720000Y-87430000D01*
D46*
X140300000Y-93240000D02*
X140455000Y-93085000D01*
D45*
X148090000Y-86030000D02*
X148020000Y-86100000D01*
D46*
X149860000Y-99060000D02*
X149860000Y-100190000D01*
D45*
X138440000Y-101970000D02*
X138440000Y-101540000D01*
X144090000Y-86005000D02*
X144655000Y-86005000D01*
D46*
X131615000Y-75160000D02*
X132430000Y-75160000D01*
D45*
X148250000Y-91110000D02*
X148280000Y-91080000D01*
X131240000Y-101760000D02*
X131350000Y-101650000D01*
D46*
X149630000Y-74500000D02*
X150960000Y-74500000D01*
D45*
X132540000Y-90590000D02*
X132540000Y-90866440D01*
X131240000Y-101770000D02*
X131240000Y-101760000D01*
X146657500Y-84147500D02*
X146670000Y-84160000D01*
X149280000Y-86030000D02*
X148090000Y-86030000D01*
X137833924Y-92238943D02*
X137066456Y-93006411D01*
X144655000Y-86005000D02*
X145270000Y-86620000D01*
X140720000Y-87430000D02*
X141360000Y-88070000D01*
X131040000Y-95820000D02*
X131424440Y-95820000D01*
X136690000Y-83832600D02*
X136102443Y-83832600D01*
D46*
X131785000Y-80160000D02*
X131785000Y-79170000D01*
D45*
X139330000Y-104490000D02*
X139350000Y-104510000D01*
X143942500Y-79925000D02*
X144215000Y-79925000D01*
X146940000Y-76940000D02*
X146940000Y-76220000D01*
X144215000Y-79925000D02*
X144620000Y-80330000D01*
X132540000Y-90866440D02*
X133265757Y-91592197D01*
X139070000Y-106070000D02*
X139750000Y-106070000D01*
D46*
X149860000Y-100190000D02*
X149930000Y-100260000D01*
D45*
X146940000Y-76220000D02*
X146920000Y-76200000D01*
X138440000Y-101540000D02*
X138050000Y-101150000D01*
X131760000Y-87980000D02*
X131760000Y-87227500D01*
X137920000Y-94820000D02*
X138174182Y-94565818D01*
X142200000Y-77530000D02*
X142200000Y-78040000D01*
X139350000Y-104510000D02*
X139920000Y-104510000D01*
X129500000Y-96676639D02*
X129493361Y-96670000D01*
X131430000Y-98029572D02*
X131415428Y-98015000D01*
X147950000Y-103618194D02*
X147971808Y-103640002D01*
X132910000Y-90530000D02*
X133618644Y-91238644D01*
X131424440Y-95820000D02*
X132205097Y-95039343D01*
X146470000Y-79990000D02*
X146470000Y-80690000D01*
X142200000Y-78040000D02*
X141505000Y-78735000D01*
X138174182Y-94565818D02*
X138174182Y-93821838D01*
X147130000Y-89000000D02*
X147130000Y-87510000D01*
X146657500Y-83400000D02*
X146657500Y-84147500D01*
D46*
X134680000Y-78400000D02*
X134170000Y-78910000D01*
X140455000Y-93085000D02*
X140455000Y-92400000D01*
D45*
X129500000Y-97370000D02*
X129500000Y-96676639D01*
X139439998Y-81500000D02*
X139859998Y-81920000D01*
X147950000Y-101370000D02*
X147950000Y-103618194D01*
X131040000Y-95820000D02*
X131040000Y-95497333D01*
D46*
X150960000Y-74500000D02*
X150970000Y-74510000D01*
D45*
X148590000Y-76780000D02*
X148080000Y-76270000D01*
D46*
X139660000Y-93240000D02*
X140300000Y-93240000D01*
D45*
X131350000Y-101650000D02*
X131350000Y-100440000D01*
X142230000Y-96370000D02*
X142230000Y-97200000D01*
D46*
X133830000Y-80920000D02*
X133200000Y-80290000D01*
D45*
X131430000Y-98715000D02*
X131430000Y-98029572D01*
D46*
X141080000Y-78310000D02*
X141505000Y-78735000D01*
D45*
X139170000Y-81500000D02*
X139439998Y-81500000D01*
X137432236Y-94332236D02*
X137920000Y-94820000D01*
X142230000Y-97200000D02*
X142250000Y-97220000D01*
X148250000Y-91820000D02*
X148250000Y-91110000D01*
X148000000Y-81500000D02*
X148180000Y-81500000D01*
X148590000Y-77210000D02*
X148590000Y-76780000D01*
X139170000Y-104490000D02*
X139330000Y-104490000D01*
X147490000Y-81490000D02*
X147990000Y-81490000D01*
X147990000Y-81490000D02*
X148000000Y-81500000D01*
G04 #@! TO.N,3V3*
X142230000Y-94820000D02*
X142230000Y-95500000D01*
X138379974Y-92400000D02*
X137420010Y-93359964D01*
X138660000Y-93390000D02*
X138905000Y-93145000D01*
X146680000Y-102729998D02*
X146669998Y-102740000D01*
X142230000Y-95500000D02*
X142250000Y-95520000D01*
X149730000Y-81500000D02*
X149730000Y-81740000D01*
X132074327Y-96584327D02*
X131833654Y-96825000D01*
X143970000Y-78540000D02*
X143310000Y-78540000D01*
X130420000Y-94800000D02*
X131030226Y-94800000D01*
D46*
X134020000Y-87150000D02*
X133287500Y-87150000D01*
D45*
X135250000Y-105560000D02*
X135250000Y-106165000D01*
X129520000Y-94410000D02*
X130030000Y-94410000D01*
X139100000Y-82820000D02*
X138550000Y-83370000D01*
D46*
X130180000Y-88077500D02*
X130422500Y-88320000D01*
D45*
X136490000Y-101970000D02*
X136060000Y-102400000D01*
X131833654Y-96825000D02*
X131550000Y-96825000D01*
X146680000Y-101370000D02*
X146680000Y-102729998D01*
X136890000Y-101970000D02*
X136490000Y-101970000D01*
D46*
X144140000Y-96420000D02*
X145410000Y-96420000D01*
D45*
X149730000Y-80800000D02*
X149730000Y-81500000D01*
X139150000Y-82820000D02*
X139100000Y-82820000D01*
X131030226Y-94800000D02*
X131497990Y-94332236D01*
X132912204Y-95746449D02*
X132074327Y-96584327D01*
X145410000Y-96420000D02*
X145410000Y-97139998D01*
X138905000Y-93145000D02*
X138905000Y-92400000D01*
X132080000Y-88790000D02*
X131540000Y-88790000D01*
D46*
X131820000Y-83250000D02*
X132420000Y-83250000D01*
D45*
X145410000Y-97139998D02*
X145970002Y-97700000D01*
X133582600Y-83832600D02*
X134197556Y-83832600D01*
X147307500Y-85112461D02*
X146944320Y-84749281D01*
X145690000Y-106090000D02*
X145690000Y-105430000D01*
X138905000Y-92400000D02*
X138379974Y-92400000D01*
D46*
X130180000Y-87750000D02*
X130180000Y-88077500D01*
D45*
X147307500Y-85300000D02*
X147307500Y-85112461D01*
X148920000Y-82720000D02*
X149280000Y-83080000D01*
X146730000Y-93430000D02*
X146730000Y-94180000D01*
X145690000Y-105430000D02*
X145620000Y-105360000D01*
X130030000Y-94410000D02*
X130420000Y-94800000D01*
X148920000Y-82160000D02*
X148920000Y-82720000D01*
X143310000Y-78540000D02*
X143210000Y-78640000D01*
X139920000Y-96910000D02*
X140660000Y-96910000D01*
X140660000Y-96910000D02*
X140670000Y-96920000D01*
G04 #@! TO.N,GND*
X130998026Y-92860000D02*
X129520000Y-92860000D01*
X131497990Y-93359964D02*
X130998026Y-92860000D01*
X129520000Y-92860000D02*
X129520000Y-92870000D01*
X129520000Y-92870000D02*
X130440000Y-93790000D01*
G04 #@! TD*
M02*
