G04 #@! TF.GenerationSoftware,KiCad,Pcbnew,9.0.2*
G04 #@! TF.CreationDate,2025-12-31T10:57:56+01:00*
G04 #@! TF.ProjectId,synthmate_L432,73796e74-686d-4617-9465-5f4c3433322e,rev?*
G04 #@! TF.SameCoordinates,Original*
G04 #@! TF.FileFunction,Other,User*
%FSLAX46Y46*%
G04 Gerber Fmt 4.6, Leading zero omitted, Abs format (unit mm)*
G04 Created by KiCad (PCBNEW 9.0.2) date 2025-12-31 10:57:56*
%MOMM*%
%LPD*%
G01*
G04 APERTURE LIST*
%ADD10C,0.050000*%
%ADD11C,0.152400*%
G04 APERTURE END LIST*
D10*
G04 #@! TO.C,J5*
X149840000Y-96210000D02*
X149840000Y-107370000D01*
X149840000Y-107370000D02*
X153380000Y-107370000D01*
X153380000Y-96210000D02*
X149840000Y-96210000D01*
X153380000Y-107370000D02*
X153380000Y-96210000D01*
G04 #@! TO.C,U6*
X130660000Y-101237500D02*
X131010000Y-101237500D01*
X130660000Y-106137500D02*
X130660000Y-101237500D01*
X131010000Y-99837500D02*
X135810000Y-99837500D01*
X131010000Y-101237500D02*
X131010000Y-99837500D01*
X131010000Y-106137500D02*
X130660000Y-106137500D01*
X131010000Y-107537500D02*
X131010000Y-106137500D01*
X135810000Y-99837500D02*
X135810000Y-101237500D01*
X135810000Y-101237500D02*
X136160000Y-101237500D01*
X135810000Y-106137500D02*
X135810000Y-107537500D01*
X135810000Y-107537500D02*
X131010000Y-107537500D01*
X136160000Y-101237500D02*
X136160000Y-106137500D01*
X136160000Y-106137500D02*
X135810000Y-106137500D01*
G04 #@! TO.C,C13*
X136185000Y-101240000D02*
X139145000Y-101240000D01*
X136185000Y-102700000D02*
X136185000Y-101240000D01*
X139145000Y-101240000D02*
X139145000Y-102700000D01*
X139145000Y-102700000D02*
X136185000Y-102700000D01*
G04 #@! TO.C,R13*
X142035000Y-105340000D02*
X144995000Y-105340000D01*
X142035000Y-106800000D02*
X142035000Y-105340000D01*
X144995000Y-105340000D02*
X144995000Y-106800000D01*
X144995000Y-106800000D02*
X142035000Y-106800000D01*
G04 #@! TO.C,J1*
X143200000Y-79185000D02*
X132560000Y-79185000D01*
X132560000Y-70245000D01*
X143200000Y-70245000D01*
X143200000Y-79185000D01*
G04 #@! TO.C,D2*
X145520000Y-79440000D02*
X147420000Y-79440000D01*
X145520000Y-82640000D02*
X145520000Y-79440000D01*
X145520000Y-82640000D02*
X147420000Y-82640000D01*
X147420000Y-82640000D02*
X147420000Y-79440000D01*
G04 #@! TO.C,R6*
X146000000Y-91125000D02*
X147460000Y-91125000D01*
X146000000Y-94085000D02*
X146000000Y-91125000D01*
X147460000Y-91125000D02*
X147460000Y-94085000D01*
X147460000Y-94085000D02*
X146000000Y-94085000D01*
G04 #@! TO.C,U5*
X143345000Y-96695000D02*
X143585000Y-96695000D01*
X143345000Y-101095000D02*
X143345000Y-96695000D01*
X143585000Y-95195000D02*
X148505000Y-95195000D01*
X143585000Y-96695000D02*
X143585000Y-95195000D01*
X143585000Y-101095000D02*
X143345000Y-101095000D01*
X143585000Y-102595000D02*
X143585000Y-101095000D01*
X148505000Y-95195000D02*
X148505000Y-96695000D01*
X148505000Y-96695000D02*
X148745000Y-96695000D01*
X148505000Y-101095000D02*
X148505000Y-102595000D01*
X148505000Y-102595000D02*
X143585000Y-102595000D01*
X148745000Y-96695000D02*
X148745000Y-101095000D01*
X148745000Y-101095000D02*
X148505000Y-101095000D01*
G04 #@! TO.C,C15*
X131082500Y-86470000D02*
X134042500Y-86470000D01*
X131082500Y-87930000D02*
X131082500Y-86470000D01*
X134042500Y-86470000D02*
X134042500Y-87930000D01*
X134042500Y-87930000D02*
X131082500Y-87930000D01*
D11*
G04 #@! TO.C,U2*
X133671000Y-83582600D02*
X133871000Y-83582600D01*
X133671000Y-84082600D02*
X133671000Y-83582600D01*
X133871000Y-82803600D02*
X134150000Y-82803600D01*
X133871000Y-83582600D02*
X133871000Y-82803600D01*
X133871000Y-84082600D02*
X133671000Y-84082600D01*
X133871000Y-84861600D02*
X133871000Y-84082600D01*
X134150000Y-82603600D02*
X136150000Y-82603600D01*
X134150000Y-82803600D02*
X134150000Y-82603600D01*
X134150000Y-84861600D02*
X133871000Y-84861600D01*
X134150000Y-85061600D02*
X134150000Y-84861600D01*
X136150000Y-82603600D02*
X136150000Y-82803600D01*
X136150000Y-82803600D02*
X136429000Y-82803600D01*
X136150000Y-84861600D02*
X136150000Y-85061600D01*
X136150000Y-85061600D02*
X134150000Y-85061600D01*
X136429000Y-82803600D02*
X136429000Y-83582600D01*
X136429000Y-83582600D02*
X136629000Y-83582600D01*
X136429000Y-84082600D02*
X136429000Y-84861600D01*
X136429000Y-84861600D02*
X136150000Y-84861600D01*
X136629000Y-83582600D02*
X136629000Y-84082600D01*
X136629000Y-84082600D02*
X136429000Y-84082600D01*
D10*
G04 #@! TO.C,D3*
X130990000Y-87840000D02*
X130990000Y-89740000D01*
X130990000Y-87840000D02*
X134190000Y-87840000D01*
X130990000Y-89740000D02*
X134190000Y-89740000D01*
X134190000Y-87840000D02*
X134190000Y-89740000D01*
G04 #@! TO.C,C10*
X146210000Y-76235000D02*
X147670000Y-76235000D01*
X146210000Y-79195000D02*
X146210000Y-76235000D01*
X147670000Y-76235000D02*
X147670000Y-79195000D01*
X147670000Y-79195000D02*
X146210000Y-79195000D01*
G04 #@! TO.C,U3*
X145257500Y-82750000D02*
X145257500Y-85950000D01*
X145257500Y-85950000D02*
X148057500Y-85950000D01*
X148057500Y-82750000D02*
X145257500Y-82750000D01*
X148057500Y-82750000D02*
X148057500Y-85950000D01*
G04 #@! TO.C,R11*
X145035000Y-105360000D02*
X147995000Y-105360000D01*
X145035000Y-106820000D02*
X145035000Y-105360000D01*
X147995000Y-105360000D02*
X147995000Y-106820000D01*
X147995000Y-106820000D02*
X145035000Y-106820000D01*
G04 #@! TO.C,C6*
X147520000Y-91115000D02*
X148980000Y-91115000D01*
X147520000Y-94075000D02*
X147520000Y-91115000D01*
X148980000Y-91115000D02*
X148980000Y-94075000D01*
X148980000Y-94075000D02*
X147520000Y-94075000D01*
G04 #@! TO.C,C12*
X130700000Y-96460000D02*
X132160000Y-96460000D01*
X130700000Y-99420000D02*
X130700000Y-96460000D01*
X132160000Y-96460000D02*
X132160000Y-99420000D01*
X132160000Y-99420000D02*
X130700000Y-99420000D01*
G04 #@! TO.C,R1*
X143240000Y-76235000D02*
X144700000Y-76235000D01*
X143240000Y-79195000D02*
X143240000Y-76235000D01*
X144700000Y-76235000D02*
X144700000Y-79195000D01*
X144700000Y-79195000D02*
X143240000Y-79195000D01*
G04 #@! TO.C,R3*
X132575000Y-79260000D02*
X135535000Y-79260000D01*
X132575000Y-80720000D02*
X132575000Y-79260000D01*
X135535000Y-79260000D02*
X135535000Y-80720000D01*
X135535000Y-80720000D02*
X132575000Y-80720000D01*
G04 #@! TO.C,R15*
X139190000Y-96255000D02*
X140650000Y-96255000D01*
X139190000Y-99215000D02*
X139190000Y-96255000D01*
X140650000Y-96255000D02*
X140650000Y-99215000D01*
X140650000Y-99215000D02*
X139190000Y-99215000D01*
G04 #@! TO.C,R5*
X129450000Y-87665000D02*
X130910000Y-87665000D01*
X129450000Y-90625000D02*
X129450000Y-87665000D01*
X130910000Y-87665000D02*
X130910000Y-90625000D01*
X130910000Y-90625000D02*
X129450000Y-90625000D01*
G04 #@! TO.C,C11*
X128790000Y-92155000D02*
X130250000Y-92155000D01*
X128790000Y-95115000D02*
X128790000Y-92155000D01*
X130250000Y-92155000D02*
X130250000Y-95115000D01*
X130250000Y-95115000D02*
X128790000Y-95115000D01*
G04 #@! TO.C,R14*
X144720000Y-76230000D02*
X146180000Y-76230000D01*
X144720000Y-79190000D02*
X144720000Y-76230000D01*
X146180000Y-76230000D02*
X146180000Y-79190000D01*
X146180000Y-79190000D02*
X144720000Y-79190000D01*
G04 #@! TO.C,C5*
X138200000Y-91670000D02*
X141160000Y-91670000D01*
X138200000Y-93130000D02*
X138200000Y-91670000D01*
X141160000Y-91670000D02*
X141160000Y-93130000D01*
X141160000Y-93130000D02*
X138200000Y-93130000D01*
G04 #@! TO.C,C18*
X141500000Y-94115000D02*
X142960000Y-94115000D01*
X141500000Y-97075000D02*
X141500000Y-94115000D01*
X142960000Y-94115000D02*
X142960000Y-97075000D01*
X142960000Y-97075000D02*
X141500000Y-97075000D01*
G04 #@! TO.C,R16*
X131092500Y-84940000D02*
X134052500Y-84940000D01*
X131092500Y-86400000D02*
X131092500Y-84940000D01*
X134052500Y-84940000D02*
X134052500Y-86400000D01*
X134052500Y-86400000D02*
X131092500Y-86400000D01*
G04 #@! TO.C,R8*
X149030000Y-91125000D02*
X150490000Y-91125000D01*
X149030000Y-94085000D02*
X149030000Y-91125000D01*
X150490000Y-91125000D02*
X150490000Y-94085000D01*
X150490000Y-94085000D02*
X149030000Y-94085000D01*
G04 #@! TO.C,R18*
X131800000Y-80955000D02*
X133260000Y-80955000D01*
X131800000Y-83915000D02*
X131800000Y-80955000D01*
X133260000Y-80955000D02*
X133260000Y-83915000D01*
X133260000Y-83915000D02*
X131800000Y-83915000D01*
G04 #@! TO.C,R4*
X147685000Y-78200000D02*
X150645000Y-78200000D01*
X147685000Y-79660000D02*
X147685000Y-78200000D01*
X150645000Y-78200000D02*
X150645000Y-79660000D01*
X150645000Y-79660000D02*
X147685000Y-79660000D01*
G04 #@! TO.C,R10*
X138420000Y-82165000D02*
X139880000Y-82165000D01*
X138420000Y-85125000D02*
X138420000Y-82165000D01*
X139880000Y-82165000D02*
X139880000Y-85125000D01*
X139880000Y-85125000D02*
X138420000Y-85125000D01*
G04 #@! TO.C,U4*
X129115000Y-76962500D02*
X129315000Y-76962500D01*
X129115000Y-79062500D02*
X129115000Y-76962500D01*
X129315000Y-75962500D02*
X132315000Y-75962500D01*
X129315000Y-76962500D02*
X129315000Y-75962500D01*
X129315000Y-79062500D02*
X129115000Y-79062500D01*
X129315000Y-80062500D02*
X129315000Y-79062500D01*
X132315000Y-75962500D02*
X132315000Y-76962500D01*
X132315000Y-76962500D02*
X132515000Y-76962500D01*
X132315000Y-79062500D02*
X132315000Y-80062500D01*
X132315000Y-80062500D02*
X129315000Y-80062500D01*
X132515000Y-76962500D02*
X132515000Y-79062500D01*
X132515000Y-79062500D02*
X132315000Y-79062500D01*
G04 #@! TO.C,C2*
X128770000Y-95115000D02*
X130230000Y-95115000D01*
X128770000Y-98075000D02*
X128770000Y-95115000D01*
X130230000Y-95115000D02*
X130230000Y-98075000D01*
X130230000Y-98075000D02*
X128770000Y-98075000D01*
G04 #@! TO.C,C17*
X139190000Y-102255000D02*
X140650000Y-102255000D01*
X139190000Y-105215000D02*
X139190000Y-102255000D01*
X140650000Y-102255000D02*
X140650000Y-105215000D01*
X140650000Y-105215000D02*
X139190000Y-105215000D01*
G04 #@! TO.C,C16*
X129360000Y-74430000D02*
X132320000Y-74430000D01*
X129360000Y-75890000D02*
X129360000Y-74430000D01*
X132320000Y-74430000D02*
X132320000Y-75890000D01*
X132320000Y-75890000D02*
X129360000Y-75890000D01*
G04 #@! TO.C,R17*
X139190000Y-99275000D02*
X140650000Y-99275000D01*
X139190000Y-102235000D02*
X139190000Y-99275000D01*
X140650000Y-99275000D02*
X140650000Y-102235000D01*
X140650000Y-102235000D02*
X139190000Y-102235000D01*
G04 #@! TO.C,D1*
X147765000Y-76260000D02*
X151465000Y-76260000D01*
X147765000Y-78160000D02*
X147765000Y-76260000D01*
X151465000Y-76260000D02*
X151465000Y-78160000D01*
X151465000Y-78160000D02*
X147765000Y-78160000D01*
G04 #@! TO.C,C9*
X139045000Y-105340000D02*
X142005000Y-105340000D01*
X139045000Y-106800000D02*
X139045000Y-105340000D01*
X142005000Y-105340000D02*
X142005000Y-106800000D01*
X142005000Y-106800000D02*
X139045000Y-106800000D01*
G04 #@! TO.C,R7*
X149050000Y-94095000D02*
X150510000Y-94095000D01*
X149050000Y-97055000D02*
X149050000Y-94095000D01*
X150510000Y-94095000D02*
X150510000Y-97055000D01*
X150510000Y-97055000D02*
X149050000Y-97055000D01*
G04 #@! TO.C,C4*
X147475000Y-80770000D02*
X150435000Y-80770000D01*
X147475000Y-82230000D02*
X147475000Y-80770000D01*
X150435000Y-80770000D02*
X150435000Y-82230000D01*
X150435000Y-82230000D02*
X147475000Y-82230000D01*
G04 #@! TO.C,C1*
X142940000Y-82230000D02*
X145240000Y-82230000D01*
X142940000Y-86830000D02*
X142940000Y-82230000D01*
X145240000Y-82230000D02*
X145240000Y-86830000D01*
X145240000Y-86830000D02*
X142940000Y-86830000D01*
G04 #@! TO.C,C8*
X139950000Y-85175000D02*
X141410000Y-85175000D01*
X139950000Y-88135000D02*
X139950000Y-85175000D01*
X141410000Y-85175000D02*
X141410000Y-88135000D01*
X141410000Y-88135000D02*
X139950000Y-88135000D01*
G04 #@! TO.C,R12*
X138400000Y-85185000D02*
X139860000Y-85185000D01*
X138400000Y-88145000D02*
X138400000Y-85185000D01*
X139860000Y-85185000D02*
X139860000Y-88145000D01*
X139860000Y-88145000D02*
X138400000Y-88145000D01*
G04 #@! TO.C,C3*
X143212500Y-79220000D02*
X144672500Y-79220000D01*
X143212500Y-82180000D02*
X143212500Y-79220000D01*
X144672500Y-79220000D02*
X144672500Y-82180000D01*
X144672500Y-82180000D02*
X143212500Y-82180000D01*
G04 #@! TO.C,R2*
X138440000Y-79195000D02*
X139900000Y-79195000D01*
X138440000Y-82155000D02*
X138440000Y-79195000D01*
X139900000Y-79195000D02*
X139900000Y-82155000D01*
X139900000Y-82155000D02*
X138440000Y-82155000D01*
G04 #@! TO.C,U1*
X130569913Y-93846100D02*
X131008319Y-93407694D01*
X130739618Y-93138993D02*
X133751893Y-90126718D01*
X130739618Y-94553207D02*
X131008319Y-94284506D01*
X131008319Y-93407694D02*
X130739618Y-93138993D01*
X131008319Y-94284506D02*
X130569913Y-93846100D01*
X133751893Y-90126718D02*
X134020594Y-90395419D01*
X133751893Y-97565482D02*
X130739618Y-94553207D01*
X134020594Y-90395419D02*
X134459000Y-89957013D01*
X134020594Y-97296781D02*
X133751893Y-97565482D01*
X134459000Y-89957013D02*
X134897406Y-90395419D01*
X134459000Y-97735187D02*
X134020594Y-97296781D01*
X134897406Y-90395419D02*
X135166107Y-90126718D01*
X134897406Y-97296781D02*
X134459000Y-97735187D01*
X135166107Y-90126718D02*
X138178382Y-93138993D01*
X135166107Y-97565482D02*
X134897406Y-97296781D01*
X137909681Y-93407694D02*
X138348087Y-93846100D01*
X137909681Y-94284506D02*
X138178382Y-94553207D01*
X138178382Y-93138993D02*
X137909681Y-93407694D01*
X138178382Y-94553207D02*
X135166107Y-97565482D01*
X138348087Y-93846100D02*
X137909681Y-94284506D01*
G04 #@! TO.C,C14*
X148130000Y-82255000D02*
X150430000Y-82255000D01*
X148130000Y-86855000D02*
X148130000Y-82255000D01*
X150430000Y-82255000D02*
X150430000Y-86855000D01*
X150430000Y-86855000D02*
X148130000Y-86855000D01*
G04 #@! TO.C,R9*
X144510000Y-91125000D02*
X145970000Y-91125000D01*
X144510000Y-94085000D02*
X144510000Y-91125000D01*
X145970000Y-91125000D02*
X145970000Y-94085000D01*
X145970000Y-94085000D02*
X144510000Y-94085000D01*
G04 #@! TO.C,J3*
X138410000Y-93170000D02*
X138410000Y-96170000D01*
X138410000Y-96170000D02*
X140690000Y-96170000D01*
X140690000Y-93170000D02*
X138410000Y-93170000D01*
X140690000Y-96170000D02*
X140690000Y-93170000D01*
G04 #@! TO.C,C7*
X143030000Y-91125000D02*
X144490000Y-91125000D01*
X143030000Y-94085000D02*
X143030000Y-91125000D01*
X144490000Y-91125000D02*
X144490000Y-94085000D01*
X144490000Y-94085000D02*
X143030000Y-94085000D01*
G04 #@! TD*
M02*
