G04 #@! TF.GenerationSoftware,KiCad,Pcbnew,9.0.2*
G04 #@! TF.CreationDate,2025-12-31T10:57:56+01:00*
G04 #@! TF.ProjectId,synthmate_L432,73796e74-686d-4617-9465-5f4c3433322e,rev?*
G04 #@! TF.SameCoordinates,Original*
G04 #@! TF.FileFunction,AssemblyDrawing,Top*
%FSLAX46Y46*%
G04 Gerber Fmt 4.6, Leading zero omitted, Abs format (unit mm)*
G04 Created by KiCad (PCBNEW 9.0.2) date 2025-12-31 10:57:56*
%MOMM*%
%LPD*%
G01*
G04 APERTURE LIST*
%ADD10C,0.150000*%
%ADD11C,0.060000*%
%ADD12C,0.075000*%
%ADD13C,0.080000*%
%ADD14C,0.120000*%
%ADD15C,0.114000*%
%ADD16C,0.100000*%
%ADD17C,0.025400*%
G04 APERTURE END LIST*
D10*
X147871904Y-95959580D02*
X147824285Y-96007200D01*
X147824285Y-96007200D02*
X147681428Y-96054819D01*
X147681428Y-96054819D02*
X147586190Y-96054819D01*
X147586190Y-96054819D02*
X147443333Y-96007200D01*
X147443333Y-96007200D02*
X147348095Y-95911961D01*
X147348095Y-95911961D02*
X147300476Y-95816723D01*
X147300476Y-95816723D02*
X147252857Y-95626247D01*
X147252857Y-95626247D02*
X147252857Y-95483390D01*
X147252857Y-95483390D02*
X147300476Y-95292914D01*
X147300476Y-95292914D02*
X147348095Y-95197676D01*
X147348095Y-95197676D02*
X147443333Y-95102438D01*
X147443333Y-95102438D02*
X147586190Y-95054819D01*
X147586190Y-95054819D02*
X147681428Y-95054819D01*
X147681428Y-95054819D02*
X147824285Y-95102438D01*
X147824285Y-95102438D02*
X147871904Y-95150057D01*
X148443333Y-96054819D02*
X148348095Y-96007200D01*
X148348095Y-96007200D02*
X148300476Y-95959580D01*
X148300476Y-95959580D02*
X148252857Y-95864342D01*
X148252857Y-95864342D02*
X148252857Y-95578628D01*
X148252857Y-95578628D02*
X148300476Y-95483390D01*
X148300476Y-95483390D02*
X148348095Y-95435771D01*
X148348095Y-95435771D02*
X148443333Y-95388152D01*
X148443333Y-95388152D02*
X148586190Y-95388152D01*
X148586190Y-95388152D02*
X148681428Y-95435771D01*
X148681428Y-95435771D02*
X148729047Y-95483390D01*
X148729047Y-95483390D02*
X148776666Y-95578628D01*
X148776666Y-95578628D02*
X148776666Y-95864342D01*
X148776666Y-95864342D02*
X148729047Y-95959580D01*
X148729047Y-95959580D02*
X148681428Y-96007200D01*
X148681428Y-96007200D02*
X148586190Y-96054819D01*
X148586190Y-96054819D02*
X148443333Y-96054819D01*
X149205238Y-95388152D02*
X149205238Y-96054819D01*
X149205238Y-95483390D02*
X149252857Y-95435771D01*
X149252857Y-95435771D02*
X149348095Y-95388152D01*
X149348095Y-95388152D02*
X149490952Y-95388152D01*
X149490952Y-95388152D02*
X149586190Y-95435771D01*
X149586190Y-95435771D02*
X149633809Y-95531009D01*
X149633809Y-95531009D02*
X149633809Y-96054819D01*
X150110000Y-95388152D02*
X150110000Y-96054819D01*
X150110000Y-95483390D02*
X150157619Y-95435771D01*
X150157619Y-95435771D02*
X150252857Y-95388152D01*
X150252857Y-95388152D02*
X150395714Y-95388152D01*
X150395714Y-95388152D02*
X150490952Y-95435771D01*
X150490952Y-95435771D02*
X150538571Y-95531009D01*
X150538571Y-95531009D02*
X150538571Y-96054819D01*
X150776667Y-96150057D02*
X151538571Y-96150057D01*
X151967143Y-95054819D02*
X152062381Y-95054819D01*
X152062381Y-95054819D02*
X152157619Y-95102438D01*
X152157619Y-95102438D02*
X152205238Y-95150057D01*
X152205238Y-95150057D02*
X152252857Y-95245295D01*
X152252857Y-95245295D02*
X152300476Y-95435771D01*
X152300476Y-95435771D02*
X152300476Y-95673866D01*
X152300476Y-95673866D02*
X152252857Y-95864342D01*
X152252857Y-95864342D02*
X152205238Y-95959580D01*
X152205238Y-95959580D02*
X152157619Y-96007200D01*
X152157619Y-96007200D02*
X152062381Y-96054819D01*
X152062381Y-96054819D02*
X151967143Y-96054819D01*
X151967143Y-96054819D02*
X151871905Y-96007200D01*
X151871905Y-96007200D02*
X151824286Y-95959580D01*
X151824286Y-95959580D02*
X151776667Y-95864342D01*
X151776667Y-95864342D02*
X151729048Y-95673866D01*
X151729048Y-95673866D02*
X151729048Y-95435771D01*
X151729048Y-95435771D02*
X151776667Y-95245295D01*
X151776667Y-95245295D02*
X151824286Y-95150057D01*
X151824286Y-95150057D02*
X151871905Y-95102438D01*
X151871905Y-95102438D02*
X151967143Y-95054819D01*
X153252857Y-96054819D02*
X152681429Y-96054819D01*
X152967143Y-96054819D02*
X152967143Y-95054819D01*
X152967143Y-95054819D02*
X152871905Y-95197676D01*
X152871905Y-95197676D02*
X152776667Y-95292914D01*
X152776667Y-95292914D02*
X152681429Y-95340533D01*
X153586191Y-96054819D02*
X154110000Y-95388152D01*
X153586191Y-95388152D02*
X154110000Y-96054819D01*
X154681429Y-95054819D02*
X154776667Y-95054819D01*
X154776667Y-95054819D02*
X154871905Y-95102438D01*
X154871905Y-95102438D02*
X154919524Y-95150057D01*
X154919524Y-95150057D02*
X154967143Y-95245295D01*
X154967143Y-95245295D02*
X155014762Y-95435771D01*
X155014762Y-95435771D02*
X155014762Y-95673866D01*
X155014762Y-95673866D02*
X154967143Y-95864342D01*
X154967143Y-95864342D02*
X154919524Y-95959580D01*
X154919524Y-95959580D02*
X154871905Y-96007200D01*
X154871905Y-96007200D02*
X154776667Y-96054819D01*
X154776667Y-96054819D02*
X154681429Y-96054819D01*
X154681429Y-96054819D02*
X154586191Y-96007200D01*
X154586191Y-96007200D02*
X154538572Y-95959580D01*
X154538572Y-95959580D02*
X154490953Y-95864342D01*
X154490953Y-95864342D02*
X154443334Y-95673866D01*
X154443334Y-95673866D02*
X154443334Y-95435771D01*
X154443334Y-95435771D02*
X154490953Y-95245295D01*
X154490953Y-95245295D02*
X154538572Y-95150057D01*
X154538572Y-95150057D02*
X154586191Y-95102438D01*
X154586191Y-95102438D02*
X154681429Y-95054819D01*
X155871905Y-95388152D02*
X155871905Y-96054819D01*
X155633810Y-95007200D02*
X155395715Y-95721485D01*
X155395715Y-95721485D02*
X156014762Y-95721485D01*
X151064819Y-102123333D02*
X151779104Y-102123333D01*
X151779104Y-102123333D02*
X151921961Y-102170952D01*
X151921961Y-102170952D02*
X152017200Y-102266190D01*
X152017200Y-102266190D02*
X152064819Y-102409047D01*
X152064819Y-102409047D02*
X152064819Y-102504285D01*
X151064819Y-101170952D02*
X151064819Y-101647142D01*
X151064819Y-101647142D02*
X151541009Y-101694761D01*
X151541009Y-101694761D02*
X151493390Y-101647142D01*
X151493390Y-101647142D02*
X151445771Y-101551904D01*
X151445771Y-101551904D02*
X151445771Y-101313809D01*
X151445771Y-101313809D02*
X151493390Y-101218571D01*
X151493390Y-101218571D02*
X151541009Y-101170952D01*
X151541009Y-101170952D02*
X151636247Y-101123333D01*
X151636247Y-101123333D02*
X151874342Y-101123333D01*
X151874342Y-101123333D02*
X151969580Y-101170952D01*
X151969580Y-101170952D02*
X152017200Y-101218571D01*
X152017200Y-101218571D02*
X152064819Y-101313809D01*
X152064819Y-101313809D02*
X152064819Y-101551904D01*
X152064819Y-101551904D02*
X152017200Y-101647142D01*
X152017200Y-101647142D02*
X151969580Y-101694761D01*
X130367200Y-109235118D02*
X130414819Y-109092261D01*
X130414819Y-109092261D02*
X130414819Y-108854166D01*
X130414819Y-108854166D02*
X130367200Y-108758928D01*
X130367200Y-108758928D02*
X130319580Y-108711309D01*
X130319580Y-108711309D02*
X130224342Y-108663690D01*
X130224342Y-108663690D02*
X130129104Y-108663690D01*
X130129104Y-108663690D02*
X130033866Y-108711309D01*
X130033866Y-108711309D02*
X129986247Y-108758928D01*
X129986247Y-108758928D02*
X129938628Y-108854166D01*
X129938628Y-108854166D02*
X129891009Y-109044642D01*
X129891009Y-109044642D02*
X129843390Y-109139880D01*
X129843390Y-109139880D02*
X129795771Y-109187499D01*
X129795771Y-109187499D02*
X129700533Y-109235118D01*
X129700533Y-109235118D02*
X129605295Y-109235118D01*
X129605295Y-109235118D02*
X129510057Y-109187499D01*
X129510057Y-109187499D02*
X129462438Y-109139880D01*
X129462438Y-109139880D02*
X129414819Y-109044642D01*
X129414819Y-109044642D02*
X129414819Y-108806547D01*
X129414819Y-108806547D02*
X129462438Y-108663690D01*
X130414819Y-108235118D02*
X129414819Y-108235118D01*
X129414819Y-108235118D02*
X130414819Y-107663690D01*
X130414819Y-107663690D02*
X129414819Y-107663690D01*
X129414819Y-107282737D02*
X129414819Y-106616071D01*
X129414819Y-106616071D02*
X130414819Y-107044642D01*
X129748152Y-105806547D02*
X130414819Y-105806547D01*
X129367200Y-106044642D02*
X130081485Y-106282737D01*
X130081485Y-106282737D02*
X130081485Y-105663690D01*
X130414819Y-104806547D02*
X130414819Y-105282737D01*
X130414819Y-105282737D02*
X129414819Y-105282737D01*
X129414819Y-104616070D02*
X130414819Y-104282737D01*
X130414819Y-104282737D02*
X129414819Y-103949404D01*
X130414819Y-103092261D02*
X130414819Y-103663689D01*
X130414819Y-103377975D02*
X129414819Y-103377975D01*
X129414819Y-103377975D02*
X129557676Y-103473213D01*
X129557676Y-103473213D02*
X129652914Y-103568451D01*
X129652914Y-103568451D02*
X129700533Y-103663689D01*
X129748152Y-102235118D02*
X130414819Y-102235118D01*
X129367200Y-102473213D02*
X130081485Y-102711308D01*
X130081485Y-102711308D02*
X130081485Y-102092261D01*
X130129104Y-101758927D02*
X130129104Y-101282737D01*
X130414819Y-101854165D02*
X129414819Y-101520832D01*
X129414819Y-101520832D02*
X130414819Y-101187499D01*
X130414819Y-100854165D02*
X129414819Y-100854165D01*
X129414819Y-100854165D02*
X129414819Y-100473213D01*
X129414819Y-100473213D02*
X129462438Y-100377975D01*
X129462438Y-100377975D02*
X129510057Y-100330356D01*
X129510057Y-100330356D02*
X129605295Y-100282737D01*
X129605295Y-100282737D02*
X129748152Y-100282737D01*
X129748152Y-100282737D02*
X129843390Y-100330356D01*
X129843390Y-100330356D02*
X129891009Y-100377975D01*
X129891009Y-100377975D02*
X129938628Y-100473213D01*
X129938628Y-100473213D02*
X129938628Y-100854165D01*
X129414819Y-99949403D02*
X130414819Y-99711308D01*
X130414819Y-99711308D02*
X129700533Y-99520832D01*
X129700533Y-99520832D02*
X130414819Y-99330356D01*
X130414819Y-99330356D02*
X129414819Y-99092261D01*
X130414819Y-98139880D02*
X129938628Y-98473213D01*
X130414819Y-98711308D02*
X129414819Y-98711308D01*
X129414819Y-98711308D02*
X129414819Y-98330356D01*
X129414819Y-98330356D02*
X129462438Y-98235118D01*
X129462438Y-98235118D02*
X129510057Y-98187499D01*
X129510057Y-98187499D02*
X129605295Y-98139880D01*
X129605295Y-98139880D02*
X129748152Y-98139880D01*
X129748152Y-98139880D02*
X129843390Y-98187499D01*
X129843390Y-98187499D02*
X129891009Y-98235118D01*
X129891009Y-98235118D02*
X129938628Y-98330356D01*
X129938628Y-98330356D02*
X129938628Y-98711308D01*
X132864819Y-104449404D02*
X133674342Y-104449404D01*
X133674342Y-104449404D02*
X133769580Y-104401785D01*
X133769580Y-104401785D02*
X133817200Y-104354166D01*
X133817200Y-104354166D02*
X133864819Y-104258928D01*
X133864819Y-104258928D02*
X133864819Y-104068452D01*
X133864819Y-104068452D02*
X133817200Y-103973214D01*
X133817200Y-103973214D02*
X133769580Y-103925595D01*
X133769580Y-103925595D02*
X133674342Y-103877976D01*
X133674342Y-103877976D02*
X132864819Y-103877976D01*
X132864819Y-102973214D02*
X132864819Y-103163690D01*
X132864819Y-103163690D02*
X132912438Y-103258928D01*
X132912438Y-103258928D02*
X132960057Y-103306547D01*
X132960057Y-103306547D02*
X133102914Y-103401785D01*
X133102914Y-103401785D02*
X133293390Y-103449404D01*
X133293390Y-103449404D02*
X133674342Y-103449404D01*
X133674342Y-103449404D02*
X133769580Y-103401785D01*
X133769580Y-103401785D02*
X133817200Y-103354166D01*
X133817200Y-103354166D02*
X133864819Y-103258928D01*
X133864819Y-103258928D02*
X133864819Y-103068452D01*
X133864819Y-103068452D02*
X133817200Y-102973214D01*
X133817200Y-102973214D02*
X133769580Y-102925595D01*
X133769580Y-102925595D02*
X133674342Y-102877976D01*
X133674342Y-102877976D02*
X133436247Y-102877976D01*
X133436247Y-102877976D02*
X133341009Y-102925595D01*
X133341009Y-102925595D02*
X133293390Y-102973214D01*
X133293390Y-102973214D02*
X133245771Y-103068452D01*
X133245771Y-103068452D02*
X133245771Y-103258928D01*
X133245771Y-103258928D02*
X133293390Y-103354166D01*
X133293390Y-103354166D02*
X133341009Y-103401785D01*
X133341009Y-103401785D02*
X133436247Y-103449404D01*
X137069761Y-103854819D02*
X136498333Y-103854819D01*
X136784047Y-103854819D02*
X136784047Y-102854819D01*
X136784047Y-102854819D02*
X136688809Y-102997676D01*
X136688809Y-102997676D02*
X136593571Y-103092914D01*
X136593571Y-103092914D02*
X136498333Y-103140533D01*
X137926904Y-103188152D02*
X137926904Y-103854819D01*
X137498333Y-103188152D02*
X137498333Y-103711961D01*
X137498333Y-103711961D02*
X137545952Y-103807200D01*
X137545952Y-103807200D02*
X137641190Y-103854819D01*
X137641190Y-103854819D02*
X137784047Y-103854819D01*
X137784047Y-103854819D02*
X137879285Y-103807200D01*
X137879285Y-103807200D02*
X137926904Y-103759580D01*
X138736428Y-103331009D02*
X138403095Y-103331009D01*
X138403095Y-103854819D02*
X138403095Y-102854819D01*
X138403095Y-102854819D02*
X138879285Y-102854819D01*
D11*
X137407857Y-102113832D02*
X137388809Y-102132880D01*
X137388809Y-102132880D02*
X137331667Y-102151927D01*
X137331667Y-102151927D02*
X137293571Y-102151927D01*
X137293571Y-102151927D02*
X137236428Y-102132880D01*
X137236428Y-102132880D02*
X137198333Y-102094784D01*
X137198333Y-102094784D02*
X137179286Y-102056689D01*
X137179286Y-102056689D02*
X137160238Y-101980499D01*
X137160238Y-101980499D02*
X137160238Y-101923356D01*
X137160238Y-101923356D02*
X137179286Y-101847165D01*
X137179286Y-101847165D02*
X137198333Y-101809070D01*
X137198333Y-101809070D02*
X137236428Y-101770975D01*
X137236428Y-101770975D02*
X137293571Y-101751927D01*
X137293571Y-101751927D02*
X137331667Y-101751927D01*
X137331667Y-101751927D02*
X137388809Y-101770975D01*
X137388809Y-101770975D02*
X137407857Y-101790022D01*
X137788809Y-102151927D02*
X137560238Y-102151927D01*
X137674524Y-102151927D02*
X137674524Y-101751927D01*
X137674524Y-101751927D02*
X137636428Y-101809070D01*
X137636428Y-101809070D02*
X137598333Y-101847165D01*
X137598333Y-101847165D02*
X137560238Y-101866213D01*
X137922142Y-101751927D02*
X138169761Y-101751927D01*
X138169761Y-101751927D02*
X138036428Y-101904308D01*
X138036428Y-101904308D02*
X138093571Y-101904308D01*
X138093571Y-101904308D02*
X138131666Y-101923356D01*
X138131666Y-101923356D02*
X138150714Y-101942403D01*
X138150714Y-101942403D02*
X138169761Y-101980499D01*
X138169761Y-101980499D02*
X138169761Y-102075737D01*
X138169761Y-102075737D02*
X138150714Y-102113832D01*
X138150714Y-102113832D02*
X138131666Y-102132880D01*
X138131666Y-102132880D02*
X138093571Y-102151927D01*
X138093571Y-102151927D02*
X137979285Y-102151927D01*
X137979285Y-102151927D02*
X137941190Y-102132880D01*
X137941190Y-102132880D02*
X137922142Y-102113832D01*
D10*
X142919761Y-105094819D02*
X142348333Y-105094819D01*
X142634047Y-105094819D02*
X142634047Y-104094819D01*
X142634047Y-104094819D02*
X142538809Y-104237676D01*
X142538809Y-104237676D02*
X142443571Y-104332914D01*
X142443571Y-104332914D02*
X142348333Y-104380533D01*
X143538809Y-104094819D02*
X143634047Y-104094819D01*
X143634047Y-104094819D02*
X143729285Y-104142438D01*
X143729285Y-104142438D02*
X143776904Y-104190057D01*
X143776904Y-104190057D02*
X143824523Y-104285295D01*
X143824523Y-104285295D02*
X143872142Y-104475771D01*
X143872142Y-104475771D02*
X143872142Y-104713866D01*
X143872142Y-104713866D02*
X143824523Y-104904342D01*
X143824523Y-104904342D02*
X143776904Y-104999580D01*
X143776904Y-104999580D02*
X143729285Y-105047200D01*
X143729285Y-105047200D02*
X143634047Y-105094819D01*
X143634047Y-105094819D02*
X143538809Y-105094819D01*
X143538809Y-105094819D02*
X143443571Y-105047200D01*
X143443571Y-105047200D02*
X143395952Y-104999580D01*
X143395952Y-104999580D02*
X143348333Y-104904342D01*
X143348333Y-104904342D02*
X143300714Y-104713866D01*
X143300714Y-104713866D02*
X143300714Y-104475771D01*
X143300714Y-104475771D02*
X143348333Y-104285295D01*
X143348333Y-104285295D02*
X143395952Y-104190057D01*
X143395952Y-104190057D02*
X143443571Y-104142438D01*
X143443571Y-104142438D02*
X143538809Y-104094819D01*
X144300714Y-105094819D02*
X144300714Y-104094819D01*
X144395952Y-104713866D02*
X144681666Y-105094819D01*
X144681666Y-104428152D02*
X144300714Y-104809104D01*
D11*
X143257857Y-106251927D02*
X143124524Y-106061451D01*
X143029286Y-106251927D02*
X143029286Y-105851927D01*
X143029286Y-105851927D02*
X143181667Y-105851927D01*
X143181667Y-105851927D02*
X143219762Y-105870975D01*
X143219762Y-105870975D02*
X143238809Y-105890022D01*
X143238809Y-105890022D02*
X143257857Y-105928118D01*
X143257857Y-105928118D02*
X143257857Y-105985260D01*
X143257857Y-105985260D02*
X143238809Y-106023356D01*
X143238809Y-106023356D02*
X143219762Y-106042403D01*
X143219762Y-106042403D02*
X143181667Y-106061451D01*
X143181667Y-106061451D02*
X143029286Y-106061451D01*
X143638809Y-106251927D02*
X143410238Y-106251927D01*
X143524524Y-106251927D02*
X143524524Y-105851927D01*
X143524524Y-105851927D02*
X143486428Y-105909070D01*
X143486428Y-105909070D02*
X143448333Y-105947165D01*
X143448333Y-105947165D02*
X143410238Y-105966213D01*
X143772142Y-105851927D02*
X144019761Y-105851927D01*
X144019761Y-105851927D02*
X143886428Y-106004308D01*
X143886428Y-106004308D02*
X143943571Y-106004308D01*
X143943571Y-106004308D02*
X143981666Y-106023356D01*
X143981666Y-106023356D02*
X144000714Y-106042403D01*
X144000714Y-106042403D02*
X144019761Y-106080499D01*
X144019761Y-106080499D02*
X144019761Y-106175737D01*
X144019761Y-106175737D02*
X144000714Y-106213832D01*
X144000714Y-106213832D02*
X143981666Y-106232880D01*
X143981666Y-106232880D02*
X143943571Y-106251927D01*
X143943571Y-106251927D02*
X143829285Y-106251927D01*
X143829285Y-106251927D02*
X143791190Y-106232880D01*
X143791190Y-106232880D02*
X143772142Y-106213832D01*
D10*
X145689523Y-69970180D02*
X145689523Y-69160657D01*
X145689523Y-69160657D02*
X145641904Y-69065419D01*
X145641904Y-69065419D02*
X145594285Y-69017800D01*
X145594285Y-69017800D02*
X145499047Y-68970180D01*
X145499047Y-68970180D02*
X145308571Y-68970180D01*
X145308571Y-68970180D02*
X145213333Y-69017800D01*
X145213333Y-69017800D02*
X145165714Y-69065419D01*
X145165714Y-69065419D02*
X145118095Y-69160657D01*
X145118095Y-69160657D02*
X145118095Y-69970180D01*
X144689523Y-69017800D02*
X144546666Y-68970180D01*
X144546666Y-68970180D02*
X144308571Y-68970180D01*
X144308571Y-68970180D02*
X144213333Y-69017800D01*
X144213333Y-69017800D02*
X144165714Y-69065419D01*
X144165714Y-69065419D02*
X144118095Y-69160657D01*
X144118095Y-69160657D02*
X144118095Y-69255895D01*
X144118095Y-69255895D02*
X144165714Y-69351133D01*
X144165714Y-69351133D02*
X144213333Y-69398752D01*
X144213333Y-69398752D02*
X144308571Y-69446371D01*
X144308571Y-69446371D02*
X144499047Y-69493990D01*
X144499047Y-69493990D02*
X144594285Y-69541609D01*
X144594285Y-69541609D02*
X144641904Y-69589228D01*
X144641904Y-69589228D02*
X144689523Y-69684466D01*
X144689523Y-69684466D02*
X144689523Y-69779704D01*
X144689523Y-69779704D02*
X144641904Y-69874942D01*
X144641904Y-69874942D02*
X144594285Y-69922561D01*
X144594285Y-69922561D02*
X144499047Y-69970180D01*
X144499047Y-69970180D02*
X144260952Y-69970180D01*
X144260952Y-69970180D02*
X144118095Y-69922561D01*
X143356190Y-69493990D02*
X143213333Y-69446371D01*
X143213333Y-69446371D02*
X143165714Y-69398752D01*
X143165714Y-69398752D02*
X143118095Y-69303514D01*
X143118095Y-69303514D02*
X143118095Y-69160657D01*
X143118095Y-69160657D02*
X143165714Y-69065419D01*
X143165714Y-69065419D02*
X143213333Y-69017800D01*
X143213333Y-69017800D02*
X143308571Y-68970180D01*
X143308571Y-68970180D02*
X143689523Y-68970180D01*
X143689523Y-68970180D02*
X143689523Y-69970180D01*
X143689523Y-69970180D02*
X143356190Y-69970180D01*
X143356190Y-69970180D02*
X143260952Y-69922561D01*
X143260952Y-69922561D02*
X143213333Y-69874942D01*
X143213333Y-69874942D02*
X143165714Y-69779704D01*
X143165714Y-69779704D02*
X143165714Y-69684466D01*
X143165714Y-69684466D02*
X143213333Y-69589228D01*
X143213333Y-69589228D02*
X143260952Y-69541609D01*
X143260952Y-69541609D02*
X143356190Y-69493990D01*
X143356190Y-69493990D02*
X143689523Y-69493990D01*
X142260952Y-69636847D02*
X142260952Y-68970180D01*
X142499047Y-70017800D02*
X142737142Y-69303514D01*
X142737142Y-69303514D02*
X142118095Y-69303514D01*
X141213333Y-68970180D02*
X141784761Y-68970180D01*
X141499047Y-68970180D02*
X141499047Y-69970180D01*
X141499047Y-69970180D02*
X141594285Y-69827323D01*
X141594285Y-69827323D02*
X141689523Y-69732085D01*
X141689523Y-69732085D02*
X141784761Y-69684466D01*
X140594285Y-69970180D02*
X140499047Y-69970180D01*
X140499047Y-69970180D02*
X140403809Y-69922561D01*
X140403809Y-69922561D02*
X140356190Y-69874942D01*
X140356190Y-69874942D02*
X140308571Y-69779704D01*
X140308571Y-69779704D02*
X140260952Y-69589228D01*
X140260952Y-69589228D02*
X140260952Y-69351133D01*
X140260952Y-69351133D02*
X140308571Y-69160657D01*
X140308571Y-69160657D02*
X140356190Y-69065419D01*
X140356190Y-69065419D02*
X140403809Y-69017800D01*
X140403809Y-69017800D02*
X140499047Y-68970180D01*
X140499047Y-68970180D02*
X140594285Y-68970180D01*
X140594285Y-68970180D02*
X140689523Y-69017800D01*
X140689523Y-69017800D02*
X140737142Y-69065419D01*
X140737142Y-69065419D02*
X140784761Y-69160657D01*
X140784761Y-69160657D02*
X140832380Y-69351133D01*
X140832380Y-69351133D02*
X140832380Y-69589228D01*
X140832380Y-69589228D02*
X140784761Y-69779704D01*
X140784761Y-69779704D02*
X140737142Y-69874942D01*
X140737142Y-69874942D02*
X140689523Y-69922561D01*
X140689523Y-69922561D02*
X140594285Y-69970180D01*
X139356190Y-69970180D02*
X139832380Y-69970180D01*
X139832380Y-69970180D02*
X139879999Y-69493990D01*
X139879999Y-69493990D02*
X139832380Y-69541609D01*
X139832380Y-69541609D02*
X139737142Y-69589228D01*
X139737142Y-69589228D02*
X139499047Y-69589228D01*
X139499047Y-69589228D02*
X139403809Y-69541609D01*
X139403809Y-69541609D02*
X139356190Y-69493990D01*
X139356190Y-69493990D02*
X139308571Y-69398752D01*
X139308571Y-69398752D02*
X139308571Y-69160657D01*
X139308571Y-69160657D02*
X139356190Y-69065419D01*
X139356190Y-69065419D02*
X139403809Y-69017800D01*
X139403809Y-69017800D02*
X139499047Y-68970180D01*
X139499047Y-68970180D02*
X139737142Y-68970180D01*
X139737142Y-68970180D02*
X139832380Y-69017800D01*
X139832380Y-69017800D02*
X139879999Y-69065419D01*
X138879999Y-69351133D02*
X138118095Y-69351133D01*
X137118095Y-69922561D02*
X137213333Y-69970180D01*
X137213333Y-69970180D02*
X137356190Y-69970180D01*
X137356190Y-69970180D02*
X137499047Y-69922561D01*
X137499047Y-69922561D02*
X137594285Y-69827323D01*
X137594285Y-69827323D02*
X137641904Y-69732085D01*
X137641904Y-69732085D02*
X137689523Y-69541609D01*
X137689523Y-69541609D02*
X137689523Y-69398752D01*
X137689523Y-69398752D02*
X137641904Y-69208276D01*
X137641904Y-69208276D02*
X137594285Y-69113038D01*
X137594285Y-69113038D02*
X137499047Y-69017800D01*
X137499047Y-69017800D02*
X137356190Y-68970180D01*
X137356190Y-68970180D02*
X137260952Y-68970180D01*
X137260952Y-68970180D02*
X137118095Y-69017800D01*
X137118095Y-69017800D02*
X137070476Y-69065419D01*
X137070476Y-69065419D02*
X137070476Y-69398752D01*
X137070476Y-69398752D02*
X137260952Y-69398752D01*
X136308571Y-69493990D02*
X136641904Y-69493990D01*
X136641904Y-68970180D02*
X136641904Y-69970180D01*
X136641904Y-69970180D02*
X136165714Y-69970180D01*
X135784761Y-69351133D02*
X135022857Y-69351133D01*
X134594285Y-69255895D02*
X134118095Y-69255895D01*
X134689523Y-68970180D02*
X134356190Y-69970180D01*
X134356190Y-69970180D02*
X134022857Y-68970180D01*
X133689523Y-69351133D02*
X132927619Y-69351133D01*
X131927619Y-68970180D02*
X132499047Y-68970180D01*
X132213333Y-68970180D02*
X132213333Y-69970180D01*
X132213333Y-69970180D02*
X132308571Y-69827323D01*
X132308571Y-69827323D02*
X132403809Y-69732085D01*
X132403809Y-69732085D02*
X132499047Y-69684466D01*
X131546666Y-69874942D02*
X131499047Y-69922561D01*
X131499047Y-69922561D02*
X131403809Y-69970180D01*
X131403809Y-69970180D02*
X131165714Y-69970180D01*
X131165714Y-69970180D02*
X131070476Y-69922561D01*
X131070476Y-69922561D02*
X131022857Y-69874942D01*
X131022857Y-69874942D02*
X130975238Y-69779704D01*
X130975238Y-69779704D02*
X130975238Y-69684466D01*
X130975238Y-69684466D02*
X131022857Y-69541609D01*
X131022857Y-69541609D02*
X131594285Y-68970180D01*
X131594285Y-68970180D02*
X130975238Y-68970180D01*
X130356190Y-69970180D02*
X130260952Y-69970180D01*
X130260952Y-69970180D02*
X130165714Y-69922561D01*
X130165714Y-69922561D02*
X130118095Y-69874942D01*
X130118095Y-69874942D02*
X130070476Y-69779704D01*
X130070476Y-69779704D02*
X130022857Y-69589228D01*
X130022857Y-69589228D02*
X130022857Y-69351133D01*
X130022857Y-69351133D02*
X130070476Y-69160657D01*
X130070476Y-69160657D02*
X130118095Y-69065419D01*
X130118095Y-69065419D02*
X130165714Y-69017800D01*
X130165714Y-69017800D02*
X130260952Y-68970180D01*
X130260952Y-68970180D02*
X130356190Y-68970180D01*
X130356190Y-68970180D02*
X130451428Y-69017800D01*
X130451428Y-69017800D02*
X130499047Y-69065419D01*
X130499047Y-69065419D02*
X130546666Y-69160657D01*
X130546666Y-69160657D02*
X130594285Y-69351133D01*
X130594285Y-69351133D02*
X130594285Y-69589228D01*
X130594285Y-69589228D02*
X130546666Y-69779704D01*
X130546666Y-69779704D02*
X130499047Y-69874942D01*
X130499047Y-69874942D02*
X130451428Y-69922561D01*
X130451428Y-69922561D02*
X130356190Y-69970180D01*
X138213333Y-74970180D02*
X138213333Y-74255895D01*
X138213333Y-74255895D02*
X138260952Y-74113038D01*
X138260952Y-74113038D02*
X138356190Y-74017800D01*
X138356190Y-74017800D02*
X138499047Y-73970180D01*
X138499047Y-73970180D02*
X138594285Y-73970180D01*
X137213333Y-73970180D02*
X137784761Y-73970180D01*
X137499047Y-73970180D02*
X137499047Y-74970180D01*
X137499047Y-74970180D02*
X137594285Y-74827323D01*
X137594285Y-74827323D02*
X137689523Y-74732085D01*
X137689523Y-74732085D02*
X137784761Y-74684466D01*
X148824819Y-84130476D02*
X148824819Y-84701904D01*
X148824819Y-84416190D02*
X147824819Y-84416190D01*
X147824819Y-84416190D02*
X147967676Y-84511428D01*
X147967676Y-84511428D02*
X148062914Y-84606666D01*
X148062914Y-84606666D02*
X148110533Y-84701904D01*
X148824819Y-83701904D02*
X147824819Y-83701904D01*
X147824819Y-83701904D02*
X148824819Y-83130476D01*
X148824819Y-83130476D02*
X147824819Y-83130476D01*
X147824819Y-82178095D02*
X147824819Y-82654285D01*
X147824819Y-82654285D02*
X148301009Y-82701904D01*
X148301009Y-82701904D02*
X148253390Y-82654285D01*
X148253390Y-82654285D02*
X148205771Y-82559047D01*
X148205771Y-82559047D02*
X148205771Y-82320952D01*
X148205771Y-82320952D02*
X148253390Y-82225714D01*
X148253390Y-82225714D02*
X148301009Y-82178095D01*
X148301009Y-82178095D02*
X148396247Y-82130476D01*
X148396247Y-82130476D02*
X148634342Y-82130476D01*
X148634342Y-82130476D02*
X148729580Y-82178095D01*
X148729580Y-82178095D02*
X148777200Y-82225714D01*
X148777200Y-82225714D02*
X148824819Y-82320952D01*
X148824819Y-82320952D02*
X148824819Y-82559047D01*
X148824819Y-82559047D02*
X148777200Y-82654285D01*
X148777200Y-82654285D02*
X148729580Y-82701904D01*
X148253390Y-81559047D02*
X148205771Y-81654285D01*
X148205771Y-81654285D02*
X148158152Y-81701904D01*
X148158152Y-81701904D02*
X148062914Y-81749523D01*
X148062914Y-81749523D02*
X148015295Y-81749523D01*
X148015295Y-81749523D02*
X147920057Y-81701904D01*
X147920057Y-81701904D02*
X147872438Y-81654285D01*
X147872438Y-81654285D02*
X147824819Y-81559047D01*
X147824819Y-81559047D02*
X147824819Y-81368571D01*
X147824819Y-81368571D02*
X147872438Y-81273333D01*
X147872438Y-81273333D02*
X147920057Y-81225714D01*
X147920057Y-81225714D02*
X148015295Y-81178095D01*
X148015295Y-81178095D02*
X148062914Y-81178095D01*
X148062914Y-81178095D02*
X148158152Y-81225714D01*
X148158152Y-81225714D02*
X148205771Y-81273333D01*
X148205771Y-81273333D02*
X148253390Y-81368571D01*
X148253390Y-81368571D02*
X148253390Y-81559047D01*
X148253390Y-81559047D02*
X148301009Y-81654285D01*
X148301009Y-81654285D02*
X148348628Y-81701904D01*
X148348628Y-81701904D02*
X148443866Y-81749523D01*
X148443866Y-81749523D02*
X148634342Y-81749523D01*
X148634342Y-81749523D02*
X148729580Y-81701904D01*
X148729580Y-81701904D02*
X148777200Y-81654285D01*
X148777200Y-81654285D02*
X148824819Y-81559047D01*
X148824819Y-81559047D02*
X148824819Y-81368571D01*
X148824819Y-81368571D02*
X148777200Y-81273333D01*
X148777200Y-81273333D02*
X148729580Y-81225714D01*
X148729580Y-81225714D02*
X148634342Y-81178095D01*
X148634342Y-81178095D02*
X148443866Y-81178095D01*
X148443866Y-81178095D02*
X148348628Y-81225714D01*
X148348628Y-81225714D02*
X148301009Y-81273333D01*
X148301009Y-81273333D02*
X148253390Y-81368571D01*
X148824819Y-80225714D02*
X148824819Y-80797142D01*
X148824819Y-80511428D02*
X147824819Y-80511428D01*
X147824819Y-80511428D02*
X147967676Y-80606666D01*
X147967676Y-80606666D02*
X148062914Y-80701904D01*
X148062914Y-80701904D02*
X148110533Y-80797142D01*
X148824819Y-79749523D02*
X148824819Y-79559047D01*
X148824819Y-79559047D02*
X148777200Y-79463809D01*
X148777200Y-79463809D02*
X148729580Y-79416190D01*
X148729580Y-79416190D02*
X148586723Y-79320952D01*
X148586723Y-79320952D02*
X148396247Y-79273333D01*
X148396247Y-79273333D02*
X148015295Y-79273333D01*
X148015295Y-79273333D02*
X147920057Y-79320952D01*
X147920057Y-79320952D02*
X147872438Y-79368571D01*
X147872438Y-79368571D02*
X147824819Y-79463809D01*
X147824819Y-79463809D02*
X147824819Y-79654285D01*
X147824819Y-79654285D02*
X147872438Y-79749523D01*
X147872438Y-79749523D02*
X147920057Y-79797142D01*
X147920057Y-79797142D02*
X148015295Y-79844761D01*
X148015295Y-79844761D02*
X148253390Y-79844761D01*
X148253390Y-79844761D02*
X148348628Y-79797142D01*
X148348628Y-79797142D02*
X148396247Y-79749523D01*
X148396247Y-79749523D02*
X148443866Y-79654285D01*
X148443866Y-79654285D02*
X148443866Y-79463809D01*
X148443866Y-79463809D02*
X148396247Y-79368571D01*
X148396247Y-79368571D02*
X148348628Y-79320952D01*
X148348628Y-79320952D02*
X148253390Y-79273333D01*
X147824819Y-78939999D02*
X148824819Y-78701904D01*
X148824819Y-78701904D02*
X148110533Y-78511428D01*
X148110533Y-78511428D02*
X148824819Y-78320952D01*
X148824819Y-78320952D02*
X147824819Y-78082857D01*
X148777200Y-77749523D02*
X148824819Y-77606666D01*
X148824819Y-77606666D02*
X148824819Y-77368571D01*
X148824819Y-77368571D02*
X148777200Y-77273333D01*
X148777200Y-77273333D02*
X148729580Y-77225714D01*
X148729580Y-77225714D02*
X148634342Y-77178095D01*
X148634342Y-77178095D02*
X148539104Y-77178095D01*
X148539104Y-77178095D02*
X148443866Y-77225714D01*
X148443866Y-77225714D02*
X148396247Y-77273333D01*
X148396247Y-77273333D02*
X148348628Y-77368571D01*
X148348628Y-77368571D02*
X148301009Y-77559047D01*
X148301009Y-77559047D02*
X148253390Y-77654285D01*
X148253390Y-77654285D02*
X148205771Y-77701904D01*
X148205771Y-77701904D02*
X148110533Y-77749523D01*
X148110533Y-77749523D02*
X148015295Y-77749523D01*
X148015295Y-77749523D02*
X147920057Y-77701904D01*
X147920057Y-77701904D02*
X147872438Y-77654285D01*
X147872438Y-77654285D02*
X147824819Y-77559047D01*
X147824819Y-77559047D02*
X147824819Y-77320952D01*
X147824819Y-77320952D02*
X147872438Y-77178095D01*
X145074819Y-81778094D02*
X144074819Y-81778094D01*
X144074819Y-81778094D02*
X144074819Y-81539999D01*
X144074819Y-81539999D02*
X144122438Y-81397142D01*
X144122438Y-81397142D02*
X144217676Y-81301904D01*
X144217676Y-81301904D02*
X144312914Y-81254285D01*
X144312914Y-81254285D02*
X144503390Y-81206666D01*
X144503390Y-81206666D02*
X144646247Y-81206666D01*
X144646247Y-81206666D02*
X144836723Y-81254285D01*
X144836723Y-81254285D02*
X144931961Y-81301904D01*
X144931961Y-81301904D02*
X145027200Y-81397142D01*
X145027200Y-81397142D02*
X145074819Y-81539999D01*
X145074819Y-81539999D02*
X145074819Y-81778094D01*
X144170057Y-80825713D02*
X144122438Y-80778094D01*
X144122438Y-80778094D02*
X144074819Y-80682856D01*
X144074819Y-80682856D02*
X144074819Y-80444761D01*
X144074819Y-80444761D02*
X144122438Y-80349523D01*
X144122438Y-80349523D02*
X144170057Y-80301904D01*
X144170057Y-80301904D02*
X144265295Y-80254285D01*
X144265295Y-80254285D02*
X144360533Y-80254285D01*
X144360533Y-80254285D02*
X144503390Y-80301904D01*
X144503390Y-80301904D02*
X145074819Y-80873332D01*
X145074819Y-80873332D02*
X145074819Y-80254285D01*
X145754819Y-93200238D02*
X145754819Y-93771666D01*
X145754819Y-93485952D02*
X144754819Y-93485952D01*
X144754819Y-93485952D02*
X144897676Y-93581190D01*
X144897676Y-93581190D02*
X144992914Y-93676428D01*
X144992914Y-93676428D02*
X145040533Y-93771666D01*
X144754819Y-92581190D02*
X144754819Y-92485952D01*
X144754819Y-92485952D02*
X144802438Y-92390714D01*
X144802438Y-92390714D02*
X144850057Y-92343095D01*
X144850057Y-92343095D02*
X144945295Y-92295476D01*
X144945295Y-92295476D02*
X145135771Y-92247857D01*
X145135771Y-92247857D02*
X145373866Y-92247857D01*
X145373866Y-92247857D02*
X145564342Y-92295476D01*
X145564342Y-92295476D02*
X145659580Y-92343095D01*
X145659580Y-92343095D02*
X145707200Y-92390714D01*
X145707200Y-92390714D02*
X145754819Y-92485952D01*
X145754819Y-92485952D02*
X145754819Y-92581190D01*
X145754819Y-92581190D02*
X145707200Y-92676428D01*
X145707200Y-92676428D02*
X145659580Y-92724047D01*
X145659580Y-92724047D02*
X145564342Y-92771666D01*
X145564342Y-92771666D02*
X145373866Y-92819285D01*
X145373866Y-92819285D02*
X145135771Y-92819285D01*
X145135771Y-92819285D02*
X144945295Y-92771666D01*
X144945295Y-92771666D02*
X144850057Y-92724047D01*
X144850057Y-92724047D02*
X144802438Y-92676428D01*
X144802438Y-92676428D02*
X144754819Y-92581190D01*
X145754819Y-91819285D02*
X144754819Y-91819285D01*
X145373866Y-91724047D02*
X145754819Y-91438333D01*
X145088152Y-91438333D02*
X145469104Y-91819285D01*
D11*
X146911927Y-92671666D02*
X146721451Y-92804999D01*
X146911927Y-92900237D02*
X146511927Y-92900237D01*
X146511927Y-92900237D02*
X146511927Y-92747856D01*
X146511927Y-92747856D02*
X146530975Y-92709761D01*
X146530975Y-92709761D02*
X146550022Y-92690714D01*
X146550022Y-92690714D02*
X146588118Y-92671666D01*
X146588118Y-92671666D02*
X146645260Y-92671666D01*
X146645260Y-92671666D02*
X146683356Y-92690714D01*
X146683356Y-92690714D02*
X146702403Y-92709761D01*
X146702403Y-92709761D02*
X146721451Y-92747856D01*
X146721451Y-92747856D02*
X146721451Y-92900237D01*
X146511927Y-92328809D02*
X146511927Y-92404999D01*
X146511927Y-92404999D02*
X146530975Y-92443095D01*
X146530975Y-92443095D02*
X146550022Y-92462142D01*
X146550022Y-92462142D02*
X146607165Y-92500237D01*
X146607165Y-92500237D02*
X146683356Y-92519285D01*
X146683356Y-92519285D02*
X146835737Y-92519285D01*
X146835737Y-92519285D02*
X146873832Y-92500237D01*
X146873832Y-92500237D02*
X146892880Y-92481190D01*
X146892880Y-92481190D02*
X146911927Y-92443095D01*
X146911927Y-92443095D02*
X146911927Y-92366904D01*
X146911927Y-92366904D02*
X146892880Y-92328809D01*
X146892880Y-92328809D02*
X146873832Y-92309761D01*
X146873832Y-92309761D02*
X146835737Y-92290714D01*
X146835737Y-92290714D02*
X146740499Y-92290714D01*
X146740499Y-92290714D02*
X146702403Y-92309761D01*
X146702403Y-92309761D02*
X146683356Y-92328809D01*
X146683356Y-92328809D02*
X146664308Y-92366904D01*
X146664308Y-92366904D02*
X146664308Y-92443095D01*
X146664308Y-92443095D02*
X146683356Y-92481190D01*
X146683356Y-92481190D02*
X146702403Y-92500237D01*
X146702403Y-92500237D02*
X146740499Y-92519285D01*
D10*
X149899819Y-105775951D02*
X148899819Y-105775951D01*
X148899819Y-105775951D02*
X149614104Y-105442618D01*
X149614104Y-105442618D02*
X148899819Y-105109285D01*
X148899819Y-105109285D02*
X149899819Y-105109285D01*
X149899819Y-104585475D02*
X149899819Y-104394999D01*
X149899819Y-104394999D02*
X149852200Y-104299761D01*
X149852200Y-104299761D02*
X149804580Y-104252142D01*
X149804580Y-104252142D02*
X149661723Y-104156904D01*
X149661723Y-104156904D02*
X149471247Y-104109285D01*
X149471247Y-104109285D02*
X149090295Y-104109285D01*
X149090295Y-104109285D02*
X148995057Y-104156904D01*
X148995057Y-104156904D02*
X148947438Y-104204523D01*
X148947438Y-104204523D02*
X148899819Y-104299761D01*
X148899819Y-104299761D02*
X148899819Y-104490237D01*
X148899819Y-104490237D02*
X148947438Y-104585475D01*
X148947438Y-104585475D02*
X148995057Y-104633094D01*
X148995057Y-104633094D02*
X149090295Y-104680713D01*
X149090295Y-104680713D02*
X149328390Y-104680713D01*
X149328390Y-104680713D02*
X149423628Y-104633094D01*
X149423628Y-104633094D02*
X149471247Y-104585475D01*
X149471247Y-104585475D02*
X149518866Y-104490237D01*
X149518866Y-104490237D02*
X149518866Y-104299761D01*
X149518866Y-104299761D02*
X149471247Y-104204523D01*
X149471247Y-104204523D02*
X149423628Y-104156904D01*
X149423628Y-104156904D02*
X149328390Y-104109285D01*
X148899819Y-103204523D02*
X148899819Y-103680713D01*
X148899819Y-103680713D02*
X149376009Y-103728332D01*
X149376009Y-103728332D02*
X149328390Y-103680713D01*
X149328390Y-103680713D02*
X149280771Y-103585475D01*
X149280771Y-103585475D02*
X149280771Y-103347380D01*
X149280771Y-103347380D02*
X149328390Y-103252142D01*
X149328390Y-103252142D02*
X149376009Y-103204523D01*
X149376009Y-103204523D02*
X149471247Y-103156904D01*
X149471247Y-103156904D02*
X149709342Y-103156904D01*
X149709342Y-103156904D02*
X149804580Y-103204523D01*
X149804580Y-103204523D02*
X149852200Y-103252142D01*
X149852200Y-103252142D02*
X149899819Y-103347380D01*
X149899819Y-103347380D02*
X149899819Y-103585475D01*
X149899819Y-103585475D02*
X149852200Y-103680713D01*
X149852200Y-103680713D02*
X149804580Y-103728332D01*
X149899819Y-102728332D02*
X148899819Y-102728332D01*
X148899819Y-102728332D02*
X149614104Y-102394999D01*
X149614104Y-102394999D02*
X148899819Y-102061666D01*
X148899819Y-102061666D02*
X149899819Y-102061666D01*
X148899819Y-101394999D02*
X148899819Y-101299761D01*
X148899819Y-101299761D02*
X148947438Y-101204523D01*
X148947438Y-101204523D02*
X148995057Y-101156904D01*
X148995057Y-101156904D02*
X149090295Y-101109285D01*
X149090295Y-101109285D02*
X149280771Y-101061666D01*
X149280771Y-101061666D02*
X149518866Y-101061666D01*
X149518866Y-101061666D02*
X149709342Y-101109285D01*
X149709342Y-101109285D02*
X149804580Y-101156904D01*
X149804580Y-101156904D02*
X149852200Y-101204523D01*
X149852200Y-101204523D02*
X149899819Y-101299761D01*
X149899819Y-101299761D02*
X149899819Y-101394999D01*
X149899819Y-101394999D02*
X149852200Y-101490237D01*
X149852200Y-101490237D02*
X149804580Y-101537856D01*
X149804580Y-101537856D02*
X149709342Y-101585475D01*
X149709342Y-101585475D02*
X149518866Y-101633094D01*
X149518866Y-101633094D02*
X149280771Y-101633094D01*
X149280771Y-101633094D02*
X149090295Y-101585475D01*
X149090295Y-101585475D02*
X148995057Y-101537856D01*
X148995057Y-101537856D02*
X148947438Y-101490237D01*
X148947438Y-101490237D02*
X148899819Y-101394999D01*
X149233152Y-100204523D02*
X149899819Y-100204523D01*
X148852200Y-100442618D02*
X149566485Y-100680713D01*
X149566485Y-100680713D02*
X149566485Y-100061666D01*
X149518866Y-99680713D02*
X149518866Y-98918809D01*
X149899819Y-98442618D02*
X148899819Y-98442618D01*
X148899819Y-98442618D02*
X148899819Y-98204523D01*
X148899819Y-98204523D02*
X148947438Y-98061666D01*
X148947438Y-98061666D02*
X149042676Y-97966428D01*
X149042676Y-97966428D02*
X149137914Y-97918809D01*
X149137914Y-97918809D02*
X149328390Y-97871190D01*
X149328390Y-97871190D02*
X149471247Y-97871190D01*
X149471247Y-97871190D02*
X149661723Y-97918809D01*
X149661723Y-97918809D02*
X149756961Y-97966428D01*
X149756961Y-97966428D02*
X149852200Y-98061666D01*
X149852200Y-98061666D02*
X149899819Y-98204523D01*
X149899819Y-98204523D02*
X149899819Y-98442618D01*
X149899819Y-96871190D02*
X149423628Y-97204523D01*
X149899819Y-97442618D02*
X148899819Y-97442618D01*
X148899819Y-97442618D02*
X148899819Y-97061666D01*
X148899819Y-97061666D02*
X148947438Y-96966428D01*
X148947438Y-96966428D02*
X148995057Y-96918809D01*
X148995057Y-96918809D02*
X149090295Y-96871190D01*
X149090295Y-96871190D02*
X149233152Y-96871190D01*
X149233152Y-96871190D02*
X149328390Y-96918809D01*
X149328390Y-96918809D02*
X149376009Y-96966428D01*
X149376009Y-96966428D02*
X149423628Y-97061666D01*
X149423628Y-97061666D02*
X149423628Y-97442618D01*
X149899819Y-96442618D02*
X148899819Y-96442618D01*
X148899819Y-96442618D02*
X149614104Y-96109285D01*
X149614104Y-96109285D02*
X148899819Y-95775952D01*
X148899819Y-95775952D02*
X149899819Y-95775952D01*
X149899819Y-95299761D02*
X148899819Y-95299761D01*
X148899819Y-95299761D02*
X149899819Y-94728333D01*
X149899819Y-94728333D02*
X148899819Y-94728333D01*
X148899819Y-93823571D02*
X148899819Y-94014047D01*
X148899819Y-94014047D02*
X148947438Y-94109285D01*
X148947438Y-94109285D02*
X148995057Y-94156904D01*
X148995057Y-94156904D02*
X149137914Y-94252142D01*
X149137914Y-94252142D02*
X149328390Y-94299761D01*
X149328390Y-94299761D02*
X149709342Y-94299761D01*
X149709342Y-94299761D02*
X149804580Y-94252142D01*
X149804580Y-94252142D02*
X149852200Y-94204523D01*
X149852200Y-94204523D02*
X149899819Y-94109285D01*
X149899819Y-94109285D02*
X149899819Y-93918809D01*
X149899819Y-93918809D02*
X149852200Y-93823571D01*
X149852200Y-93823571D02*
X149804580Y-93775952D01*
X149804580Y-93775952D02*
X149709342Y-93728333D01*
X149709342Y-93728333D02*
X149471247Y-93728333D01*
X149471247Y-93728333D02*
X149376009Y-93775952D01*
X149376009Y-93775952D02*
X149328390Y-93823571D01*
X149328390Y-93823571D02*
X149280771Y-93918809D01*
X149280771Y-93918809D02*
X149280771Y-94109285D01*
X149280771Y-94109285D02*
X149328390Y-94204523D01*
X149328390Y-94204523D02*
X149376009Y-94252142D01*
X149376009Y-94252142D02*
X149471247Y-94299761D01*
X148899819Y-93442618D02*
X148899819Y-92871190D01*
X149899819Y-93156904D02*
X148899819Y-93156904D01*
X149899819Y-92537856D02*
X148899819Y-92537856D01*
X148899819Y-92537856D02*
X148899819Y-92156904D01*
X148899819Y-92156904D02*
X148947438Y-92061666D01*
X148947438Y-92061666D02*
X148995057Y-92014047D01*
X148995057Y-92014047D02*
X149090295Y-91966428D01*
X149090295Y-91966428D02*
X149233152Y-91966428D01*
X149233152Y-91966428D02*
X149328390Y-92014047D01*
X149328390Y-92014047D02*
X149376009Y-92061666D01*
X149376009Y-92061666D02*
X149423628Y-92156904D01*
X149423628Y-92156904D02*
X149423628Y-92537856D01*
X145510566Y-99641666D02*
X146303900Y-99641666D01*
X146303900Y-99641666D02*
X146397233Y-99595000D01*
X146397233Y-99595000D02*
X146443900Y-99548333D01*
X146443900Y-99548333D02*
X146490566Y-99455000D01*
X146490566Y-99455000D02*
X146490566Y-99268333D01*
X146490566Y-99268333D02*
X146443900Y-99175000D01*
X146443900Y-99175000D02*
X146397233Y-99128333D01*
X146397233Y-99128333D02*
X146303900Y-99081666D01*
X146303900Y-99081666D02*
X145510566Y-99081666D01*
X145510566Y-98148333D02*
X145510566Y-98614999D01*
X145510566Y-98614999D02*
X145977233Y-98661666D01*
X145977233Y-98661666D02*
X145930566Y-98614999D01*
X145930566Y-98614999D02*
X145883900Y-98521666D01*
X145883900Y-98521666D02*
X145883900Y-98288333D01*
X145883900Y-98288333D02*
X145930566Y-98194999D01*
X145930566Y-98194999D02*
X145977233Y-98148333D01*
X145977233Y-98148333D02*
X146070566Y-98101666D01*
X146070566Y-98101666D02*
X146303900Y-98101666D01*
X146303900Y-98101666D02*
X146397233Y-98148333D01*
X146397233Y-98148333D02*
X146443900Y-98194999D01*
X146443900Y-98194999D02*
X146490566Y-98288333D01*
X146490566Y-98288333D02*
X146490566Y-98521666D01*
X146490566Y-98521666D02*
X146443900Y-98614999D01*
X146443900Y-98614999D02*
X146397233Y-98661666D01*
X131967261Y-86224819D02*
X131395833Y-86224819D01*
X131681547Y-86224819D02*
X131681547Y-85224819D01*
X131681547Y-85224819D02*
X131586309Y-85367676D01*
X131586309Y-85367676D02*
X131491071Y-85462914D01*
X131491071Y-85462914D02*
X131395833Y-85510533D01*
X132824404Y-85558152D02*
X132824404Y-86224819D01*
X132395833Y-85558152D02*
X132395833Y-86081961D01*
X132395833Y-86081961D02*
X132443452Y-86177200D01*
X132443452Y-86177200D02*
X132538690Y-86224819D01*
X132538690Y-86224819D02*
X132681547Y-86224819D01*
X132681547Y-86224819D02*
X132776785Y-86177200D01*
X132776785Y-86177200D02*
X132824404Y-86129580D01*
X133633928Y-85701009D02*
X133300595Y-85701009D01*
X133300595Y-86224819D02*
X133300595Y-85224819D01*
X133300595Y-85224819D02*
X133776785Y-85224819D01*
D11*
X132305357Y-87343832D02*
X132286309Y-87362880D01*
X132286309Y-87362880D02*
X132229167Y-87381927D01*
X132229167Y-87381927D02*
X132191071Y-87381927D01*
X132191071Y-87381927D02*
X132133928Y-87362880D01*
X132133928Y-87362880D02*
X132095833Y-87324784D01*
X132095833Y-87324784D02*
X132076786Y-87286689D01*
X132076786Y-87286689D02*
X132057738Y-87210499D01*
X132057738Y-87210499D02*
X132057738Y-87153356D01*
X132057738Y-87153356D02*
X132076786Y-87077165D01*
X132076786Y-87077165D02*
X132095833Y-87039070D01*
X132095833Y-87039070D02*
X132133928Y-87000975D01*
X132133928Y-87000975D02*
X132191071Y-86981927D01*
X132191071Y-86981927D02*
X132229167Y-86981927D01*
X132229167Y-86981927D02*
X132286309Y-87000975D01*
X132286309Y-87000975D02*
X132305357Y-87020022D01*
X132686309Y-87381927D02*
X132457738Y-87381927D01*
X132572024Y-87381927D02*
X132572024Y-86981927D01*
X132572024Y-86981927D02*
X132533928Y-87039070D01*
X132533928Y-87039070D02*
X132495833Y-87077165D01*
X132495833Y-87077165D02*
X132457738Y-87096213D01*
X133048214Y-86981927D02*
X132857738Y-86981927D01*
X132857738Y-86981927D02*
X132838690Y-87172403D01*
X132838690Y-87172403D02*
X132857738Y-87153356D01*
X132857738Y-87153356D02*
X132895833Y-87134308D01*
X132895833Y-87134308D02*
X132991071Y-87134308D01*
X132991071Y-87134308D02*
X133029166Y-87153356D01*
X133029166Y-87153356D02*
X133048214Y-87172403D01*
X133048214Y-87172403D02*
X133067261Y-87210499D01*
X133067261Y-87210499D02*
X133067261Y-87305737D01*
X133067261Y-87305737D02*
X133048214Y-87343832D01*
X133048214Y-87343832D02*
X133029166Y-87362880D01*
X133029166Y-87362880D02*
X132991071Y-87381927D01*
X132991071Y-87381927D02*
X132895833Y-87381927D01*
X132895833Y-87381927D02*
X132857738Y-87362880D01*
X132857738Y-87362880D02*
X132838690Y-87343832D01*
D10*
X134604819Y-90356409D02*
X134604819Y-89784981D01*
X135604819Y-90070695D02*
X134604819Y-90070695D01*
X135557200Y-89499266D02*
X135604819Y-89356409D01*
X135604819Y-89356409D02*
X135604819Y-89118314D01*
X135604819Y-89118314D02*
X135557200Y-89023076D01*
X135557200Y-89023076D02*
X135509580Y-88975457D01*
X135509580Y-88975457D02*
X135414342Y-88927838D01*
X135414342Y-88927838D02*
X135319104Y-88927838D01*
X135319104Y-88927838D02*
X135223866Y-88975457D01*
X135223866Y-88975457D02*
X135176247Y-89023076D01*
X135176247Y-89023076D02*
X135128628Y-89118314D01*
X135128628Y-89118314D02*
X135081009Y-89308790D01*
X135081009Y-89308790D02*
X135033390Y-89404028D01*
X135033390Y-89404028D02*
X134985771Y-89451647D01*
X134985771Y-89451647D02*
X134890533Y-89499266D01*
X134890533Y-89499266D02*
X134795295Y-89499266D01*
X134795295Y-89499266D02*
X134700057Y-89451647D01*
X134700057Y-89451647D02*
X134652438Y-89404028D01*
X134652438Y-89404028D02*
X134604819Y-89308790D01*
X134604819Y-89308790D02*
X134604819Y-89070695D01*
X134604819Y-89070695D02*
X134652438Y-88927838D01*
X134604819Y-88594504D02*
X134604819Y-87975457D01*
X134604819Y-87975457D02*
X134985771Y-88308790D01*
X134985771Y-88308790D02*
X134985771Y-88165933D01*
X134985771Y-88165933D02*
X135033390Y-88070695D01*
X135033390Y-88070695D02*
X135081009Y-88023076D01*
X135081009Y-88023076D02*
X135176247Y-87975457D01*
X135176247Y-87975457D02*
X135414342Y-87975457D01*
X135414342Y-87975457D02*
X135509580Y-88023076D01*
X135509580Y-88023076D02*
X135557200Y-88070695D01*
X135557200Y-88070695D02*
X135604819Y-88165933D01*
X135604819Y-88165933D02*
X135604819Y-88451647D01*
X135604819Y-88451647D02*
X135557200Y-88546885D01*
X135557200Y-88546885D02*
X135509580Y-88594504D01*
X134604819Y-87546885D02*
X135414342Y-87546885D01*
X135414342Y-87546885D02*
X135509580Y-87499266D01*
X135509580Y-87499266D02*
X135557200Y-87451647D01*
X135557200Y-87451647D02*
X135604819Y-87356409D01*
X135604819Y-87356409D02*
X135604819Y-87165933D01*
X135604819Y-87165933D02*
X135557200Y-87070695D01*
X135557200Y-87070695D02*
X135509580Y-87023076D01*
X135509580Y-87023076D02*
X135414342Y-86975457D01*
X135414342Y-86975457D02*
X134604819Y-86975457D01*
X135557200Y-86546885D02*
X135604819Y-86404028D01*
X135604819Y-86404028D02*
X135604819Y-86165933D01*
X135604819Y-86165933D02*
X135557200Y-86070695D01*
X135557200Y-86070695D02*
X135509580Y-86023076D01*
X135509580Y-86023076D02*
X135414342Y-85975457D01*
X135414342Y-85975457D02*
X135319104Y-85975457D01*
X135319104Y-85975457D02*
X135223866Y-86023076D01*
X135223866Y-86023076D02*
X135176247Y-86070695D01*
X135176247Y-86070695D02*
X135128628Y-86165933D01*
X135128628Y-86165933D02*
X135081009Y-86356409D01*
X135081009Y-86356409D02*
X135033390Y-86451647D01*
X135033390Y-86451647D02*
X134985771Y-86499266D01*
X134985771Y-86499266D02*
X134890533Y-86546885D01*
X134890533Y-86546885D02*
X134795295Y-86546885D01*
X134795295Y-86546885D02*
X134700057Y-86499266D01*
X134700057Y-86499266D02*
X134652438Y-86451647D01*
X134652438Y-86451647D02*
X134604819Y-86356409D01*
X134604819Y-86356409D02*
X134604819Y-86118314D01*
X134604819Y-86118314D02*
X134652438Y-85975457D01*
X135081009Y-85213552D02*
X135128628Y-85070695D01*
X135128628Y-85070695D02*
X135176247Y-85023076D01*
X135176247Y-85023076D02*
X135271485Y-84975457D01*
X135271485Y-84975457D02*
X135414342Y-84975457D01*
X135414342Y-84975457D02*
X135509580Y-85023076D01*
X135509580Y-85023076D02*
X135557200Y-85070695D01*
X135557200Y-85070695D02*
X135604819Y-85165933D01*
X135604819Y-85165933D02*
X135604819Y-85546885D01*
X135604819Y-85546885D02*
X134604819Y-85546885D01*
X134604819Y-85546885D02*
X134604819Y-85213552D01*
X134604819Y-85213552D02*
X134652438Y-85118314D01*
X134652438Y-85118314D02*
X134700057Y-85070695D01*
X134700057Y-85070695D02*
X134795295Y-85023076D01*
X134795295Y-85023076D02*
X134890533Y-85023076D01*
X134890533Y-85023076D02*
X134985771Y-85070695D01*
X134985771Y-85070695D02*
X135033390Y-85118314D01*
X135033390Y-85118314D02*
X135081009Y-85213552D01*
X135081009Y-85213552D02*
X135081009Y-85546885D01*
X134700057Y-84594504D02*
X134652438Y-84546885D01*
X134652438Y-84546885D02*
X134604819Y-84451647D01*
X134604819Y-84451647D02*
X134604819Y-84213552D01*
X134604819Y-84213552D02*
X134652438Y-84118314D01*
X134652438Y-84118314D02*
X134700057Y-84070695D01*
X134700057Y-84070695D02*
X134795295Y-84023076D01*
X134795295Y-84023076D02*
X134890533Y-84023076D01*
X134890533Y-84023076D02*
X135033390Y-84070695D01*
X135033390Y-84070695D02*
X135604819Y-84642123D01*
X135604819Y-84642123D02*
X135604819Y-84023076D01*
X134700057Y-83642123D02*
X134652438Y-83594504D01*
X134652438Y-83594504D02*
X134604819Y-83499266D01*
X134604819Y-83499266D02*
X134604819Y-83261171D01*
X134604819Y-83261171D02*
X134652438Y-83165933D01*
X134652438Y-83165933D02*
X134700057Y-83118314D01*
X134700057Y-83118314D02*
X134795295Y-83070695D01*
X134795295Y-83070695D02*
X134890533Y-83070695D01*
X134890533Y-83070695D02*
X135033390Y-83118314D01*
X135033390Y-83118314D02*
X135604819Y-83689742D01*
X135604819Y-83689742D02*
X135604819Y-83070695D01*
X135604819Y-82118314D02*
X135604819Y-82689742D01*
X135604819Y-82404028D02*
X134604819Y-82404028D01*
X134604819Y-82404028D02*
X134747676Y-82499266D01*
X134747676Y-82499266D02*
X134842914Y-82594504D01*
X134842914Y-82594504D02*
X134890533Y-82689742D01*
X135319104Y-81737361D02*
X135319104Y-81261171D01*
X135604819Y-81832599D02*
X134604819Y-81499266D01*
X134604819Y-81499266D02*
X135604819Y-81165933D01*
X135604819Y-80261171D02*
X135128628Y-80594504D01*
X135604819Y-80832599D02*
X134604819Y-80832599D01*
X134604819Y-80832599D02*
X134604819Y-80451647D01*
X134604819Y-80451647D02*
X134652438Y-80356409D01*
X134652438Y-80356409D02*
X134700057Y-80308790D01*
X134700057Y-80308790D02*
X134795295Y-80261171D01*
X134795295Y-80261171D02*
X134938152Y-80261171D01*
X134938152Y-80261171D02*
X135033390Y-80308790D01*
X135033390Y-80308790D02*
X135081009Y-80356409D01*
X135081009Y-80356409D02*
X135128628Y-80451647D01*
X135128628Y-80451647D02*
X135128628Y-80832599D01*
X135557200Y-79880218D02*
X135604819Y-79737361D01*
X135604819Y-79737361D02*
X135604819Y-79499266D01*
X135604819Y-79499266D02*
X135557200Y-79404028D01*
X135557200Y-79404028D02*
X135509580Y-79356409D01*
X135509580Y-79356409D02*
X135414342Y-79308790D01*
X135414342Y-79308790D02*
X135319104Y-79308790D01*
X135319104Y-79308790D02*
X135223866Y-79356409D01*
X135223866Y-79356409D02*
X135176247Y-79404028D01*
X135176247Y-79404028D02*
X135128628Y-79499266D01*
X135128628Y-79499266D02*
X135081009Y-79689742D01*
X135081009Y-79689742D02*
X135033390Y-79784980D01*
X135033390Y-79784980D02*
X134985771Y-79832599D01*
X134985771Y-79832599D02*
X134890533Y-79880218D01*
X134890533Y-79880218D02*
X134795295Y-79880218D01*
X134795295Y-79880218D02*
X134700057Y-79832599D01*
X134700057Y-79832599D02*
X134652438Y-79784980D01*
X134652438Y-79784980D02*
X134604819Y-79689742D01*
X134604819Y-79689742D02*
X134604819Y-79451647D01*
X134604819Y-79451647D02*
X134652438Y-79308790D01*
X135081009Y-78880218D02*
X135081009Y-78546885D01*
X135604819Y-78404028D02*
X135604819Y-78880218D01*
X135604819Y-78880218D02*
X134604819Y-78880218D01*
X134604819Y-78880218D02*
X134604819Y-78404028D01*
X135604819Y-77404028D02*
X135128628Y-77737361D01*
X135604819Y-77975456D02*
X134604819Y-77975456D01*
X134604819Y-77975456D02*
X134604819Y-77594504D01*
X134604819Y-77594504D02*
X134652438Y-77499266D01*
X134652438Y-77499266D02*
X134700057Y-77451647D01*
X134700057Y-77451647D02*
X134795295Y-77404028D01*
X134795295Y-77404028D02*
X134938152Y-77404028D01*
X134938152Y-77404028D02*
X135033390Y-77451647D01*
X135033390Y-77451647D02*
X135081009Y-77499266D01*
X135081009Y-77499266D02*
X135128628Y-77594504D01*
X135128628Y-77594504D02*
X135128628Y-77975456D01*
X133604819Y-84207599D02*
X133842914Y-84207599D01*
X133747676Y-84445694D02*
X133842914Y-84207599D01*
X133842914Y-84207599D02*
X133747676Y-83969504D01*
X134033390Y-84350456D02*
X133842914Y-84207599D01*
X133842914Y-84207599D02*
X134033390Y-84064742D01*
X134604819Y-84594504D02*
X135414342Y-84594504D01*
X135414342Y-84594504D02*
X135509580Y-84546885D01*
X135509580Y-84546885D02*
X135557200Y-84499266D01*
X135557200Y-84499266D02*
X135604819Y-84404028D01*
X135604819Y-84404028D02*
X135604819Y-84213552D01*
X135604819Y-84213552D02*
X135557200Y-84118314D01*
X135557200Y-84118314D02*
X135509580Y-84070695D01*
X135509580Y-84070695D02*
X135414342Y-84023076D01*
X135414342Y-84023076D02*
X134604819Y-84023076D01*
X134700057Y-83594504D02*
X134652438Y-83546885D01*
X134652438Y-83546885D02*
X134604819Y-83451647D01*
X134604819Y-83451647D02*
X134604819Y-83213552D01*
X134604819Y-83213552D02*
X134652438Y-83118314D01*
X134652438Y-83118314D02*
X134700057Y-83070695D01*
X134700057Y-83070695D02*
X134795295Y-83023076D01*
X134795295Y-83023076D02*
X134890533Y-83023076D01*
X134890533Y-83023076D02*
X135033390Y-83070695D01*
X135033390Y-83070695D02*
X135604819Y-83642123D01*
X135604819Y-83642123D02*
X135604819Y-83023076D01*
X133604819Y-84207599D02*
X133842914Y-84207599D01*
X133747676Y-84445694D02*
X133842914Y-84207599D01*
X133842914Y-84207599D02*
X133747676Y-83969504D01*
X134033390Y-84350456D02*
X133842914Y-84207599D01*
X133842914Y-84207599D02*
X134033390Y-84064742D01*
X129499523Y-91144819D02*
X128928095Y-91144819D01*
X129213809Y-91144819D02*
X129213809Y-90144819D01*
X129213809Y-90144819D02*
X129118571Y-90287676D01*
X129118571Y-90287676D02*
X129023333Y-90382914D01*
X129023333Y-90382914D02*
X128928095Y-90430533D01*
X129928095Y-91144819D02*
X129928095Y-90144819D01*
X129928095Y-90144819D02*
X130499523Y-91144819D01*
X130499523Y-91144819D02*
X130499523Y-90144819D01*
X131451904Y-90144819D02*
X130975714Y-90144819D01*
X130975714Y-90144819D02*
X130928095Y-90621009D01*
X130928095Y-90621009D02*
X130975714Y-90573390D01*
X130975714Y-90573390D02*
X131070952Y-90525771D01*
X131070952Y-90525771D02*
X131309047Y-90525771D01*
X131309047Y-90525771D02*
X131404285Y-90573390D01*
X131404285Y-90573390D02*
X131451904Y-90621009D01*
X131451904Y-90621009D02*
X131499523Y-90716247D01*
X131499523Y-90716247D02*
X131499523Y-90954342D01*
X131499523Y-90954342D02*
X131451904Y-91049580D01*
X131451904Y-91049580D02*
X131404285Y-91097200D01*
X131404285Y-91097200D02*
X131309047Y-91144819D01*
X131309047Y-91144819D02*
X131070952Y-91144819D01*
X131070952Y-91144819D02*
X130975714Y-91097200D01*
X130975714Y-91097200D02*
X130928095Y-91049580D01*
X132070952Y-90573390D02*
X131975714Y-90525771D01*
X131975714Y-90525771D02*
X131928095Y-90478152D01*
X131928095Y-90478152D02*
X131880476Y-90382914D01*
X131880476Y-90382914D02*
X131880476Y-90335295D01*
X131880476Y-90335295D02*
X131928095Y-90240057D01*
X131928095Y-90240057D02*
X131975714Y-90192438D01*
X131975714Y-90192438D02*
X132070952Y-90144819D01*
X132070952Y-90144819D02*
X132261428Y-90144819D01*
X132261428Y-90144819D02*
X132356666Y-90192438D01*
X132356666Y-90192438D02*
X132404285Y-90240057D01*
X132404285Y-90240057D02*
X132451904Y-90335295D01*
X132451904Y-90335295D02*
X132451904Y-90382914D01*
X132451904Y-90382914D02*
X132404285Y-90478152D01*
X132404285Y-90478152D02*
X132356666Y-90525771D01*
X132356666Y-90525771D02*
X132261428Y-90573390D01*
X132261428Y-90573390D02*
X132070952Y-90573390D01*
X132070952Y-90573390D02*
X131975714Y-90621009D01*
X131975714Y-90621009D02*
X131928095Y-90668628D01*
X131928095Y-90668628D02*
X131880476Y-90763866D01*
X131880476Y-90763866D02*
X131880476Y-90954342D01*
X131880476Y-90954342D02*
X131928095Y-91049580D01*
X131928095Y-91049580D02*
X131975714Y-91097200D01*
X131975714Y-91097200D02*
X132070952Y-91144819D01*
X132070952Y-91144819D02*
X132261428Y-91144819D01*
X132261428Y-91144819D02*
X132356666Y-91097200D01*
X132356666Y-91097200D02*
X132404285Y-91049580D01*
X132404285Y-91049580D02*
X132451904Y-90954342D01*
X132451904Y-90954342D02*
X132451904Y-90763866D01*
X132451904Y-90763866D02*
X132404285Y-90668628D01*
X132404285Y-90668628D02*
X132356666Y-90621009D01*
X132356666Y-90621009D02*
X132261428Y-90573390D01*
X133404285Y-91144819D02*
X132832857Y-91144819D01*
X133118571Y-91144819D02*
X133118571Y-90144819D01*
X133118571Y-90144819D02*
X133023333Y-90287676D01*
X133023333Y-90287676D02*
X132928095Y-90382914D01*
X132928095Y-90382914D02*
X132832857Y-90430533D01*
X133880476Y-91144819D02*
X134070952Y-91144819D01*
X134070952Y-91144819D02*
X134166190Y-91097200D01*
X134166190Y-91097200D02*
X134213809Y-91049580D01*
X134213809Y-91049580D02*
X134309047Y-90906723D01*
X134309047Y-90906723D02*
X134356666Y-90716247D01*
X134356666Y-90716247D02*
X134356666Y-90335295D01*
X134356666Y-90335295D02*
X134309047Y-90240057D01*
X134309047Y-90240057D02*
X134261428Y-90192438D01*
X134261428Y-90192438D02*
X134166190Y-90144819D01*
X134166190Y-90144819D02*
X133975714Y-90144819D01*
X133975714Y-90144819D02*
X133880476Y-90192438D01*
X133880476Y-90192438D02*
X133832857Y-90240057D01*
X133832857Y-90240057D02*
X133785238Y-90335295D01*
X133785238Y-90335295D02*
X133785238Y-90573390D01*
X133785238Y-90573390D02*
X133832857Y-90668628D01*
X133832857Y-90668628D02*
X133880476Y-90716247D01*
X133880476Y-90716247D02*
X133975714Y-90763866D01*
X133975714Y-90763866D02*
X134166190Y-90763866D01*
X134166190Y-90763866D02*
X134261428Y-90716247D01*
X134261428Y-90716247D02*
X134309047Y-90668628D01*
X134309047Y-90668628D02*
X134356666Y-90573390D01*
X134690000Y-90144819D02*
X134928095Y-91144819D01*
X134928095Y-91144819D02*
X135118571Y-90430533D01*
X135118571Y-90430533D02*
X135309047Y-91144819D01*
X135309047Y-91144819D02*
X135547143Y-90144819D01*
X135880476Y-91097200D02*
X136023333Y-91144819D01*
X136023333Y-91144819D02*
X136261428Y-91144819D01*
X136261428Y-91144819D02*
X136356666Y-91097200D01*
X136356666Y-91097200D02*
X136404285Y-91049580D01*
X136404285Y-91049580D02*
X136451904Y-90954342D01*
X136451904Y-90954342D02*
X136451904Y-90859104D01*
X136451904Y-90859104D02*
X136404285Y-90763866D01*
X136404285Y-90763866D02*
X136356666Y-90716247D01*
X136356666Y-90716247D02*
X136261428Y-90668628D01*
X136261428Y-90668628D02*
X136070952Y-90621009D01*
X136070952Y-90621009D02*
X135975714Y-90573390D01*
X135975714Y-90573390D02*
X135928095Y-90525771D01*
X135928095Y-90525771D02*
X135880476Y-90430533D01*
X135880476Y-90430533D02*
X135880476Y-90335295D01*
X135880476Y-90335295D02*
X135928095Y-90240057D01*
X135928095Y-90240057D02*
X135975714Y-90192438D01*
X135975714Y-90192438D02*
X136070952Y-90144819D01*
X136070952Y-90144819D02*
X136309047Y-90144819D01*
X136309047Y-90144819D02*
X136451904Y-90192438D01*
X131851905Y-87394819D02*
X131851905Y-86394819D01*
X131851905Y-86394819D02*
X132090000Y-86394819D01*
X132090000Y-86394819D02*
X132232857Y-86442438D01*
X132232857Y-86442438D02*
X132328095Y-86537676D01*
X132328095Y-86537676D02*
X132375714Y-86632914D01*
X132375714Y-86632914D02*
X132423333Y-86823390D01*
X132423333Y-86823390D02*
X132423333Y-86966247D01*
X132423333Y-86966247D02*
X132375714Y-87156723D01*
X132375714Y-87156723D02*
X132328095Y-87251961D01*
X132328095Y-87251961D02*
X132232857Y-87347200D01*
X132232857Y-87347200D02*
X132090000Y-87394819D01*
X132090000Y-87394819D02*
X131851905Y-87394819D01*
X132756667Y-86394819D02*
X133375714Y-86394819D01*
X133375714Y-86394819D02*
X133042381Y-86775771D01*
X133042381Y-86775771D02*
X133185238Y-86775771D01*
X133185238Y-86775771D02*
X133280476Y-86823390D01*
X133280476Y-86823390D02*
X133328095Y-86871009D01*
X133328095Y-86871009D02*
X133375714Y-86966247D01*
X133375714Y-86966247D02*
X133375714Y-87204342D01*
X133375714Y-87204342D02*
X133328095Y-87299580D01*
X133328095Y-87299580D02*
X133280476Y-87347200D01*
X133280476Y-87347200D02*
X133185238Y-87394819D01*
X133185238Y-87394819D02*
X132899524Y-87394819D01*
X132899524Y-87394819D02*
X132804286Y-87347200D01*
X132804286Y-87347200D02*
X132756667Y-87299580D01*
X148824819Y-78310238D02*
X148824819Y-78881666D01*
X148824819Y-78595952D02*
X147824819Y-78595952D01*
X147824819Y-78595952D02*
X147967676Y-78691190D01*
X147967676Y-78691190D02*
X148062914Y-78786428D01*
X148062914Y-78786428D02*
X148110533Y-78881666D01*
X148158152Y-77453095D02*
X148824819Y-77453095D01*
X148158152Y-77881666D02*
X148681961Y-77881666D01*
X148681961Y-77881666D02*
X148777200Y-77834047D01*
X148777200Y-77834047D02*
X148824819Y-77738809D01*
X148824819Y-77738809D02*
X148824819Y-77595952D01*
X148824819Y-77595952D02*
X148777200Y-77500714D01*
X148777200Y-77500714D02*
X148729580Y-77453095D01*
X148301009Y-76643571D02*
X148301009Y-76976904D01*
X148824819Y-76976904D02*
X147824819Y-76976904D01*
X147824819Y-76976904D02*
X147824819Y-76500714D01*
D11*
X147083832Y-77972142D02*
X147102880Y-77991190D01*
X147102880Y-77991190D02*
X147121927Y-78048332D01*
X147121927Y-78048332D02*
X147121927Y-78086428D01*
X147121927Y-78086428D02*
X147102880Y-78143571D01*
X147102880Y-78143571D02*
X147064784Y-78181666D01*
X147064784Y-78181666D02*
X147026689Y-78200713D01*
X147026689Y-78200713D02*
X146950499Y-78219761D01*
X146950499Y-78219761D02*
X146893356Y-78219761D01*
X146893356Y-78219761D02*
X146817165Y-78200713D01*
X146817165Y-78200713D02*
X146779070Y-78181666D01*
X146779070Y-78181666D02*
X146740975Y-78143571D01*
X146740975Y-78143571D02*
X146721927Y-78086428D01*
X146721927Y-78086428D02*
X146721927Y-78048332D01*
X146721927Y-78048332D02*
X146740975Y-77991190D01*
X146740975Y-77991190D02*
X146760022Y-77972142D01*
X147121927Y-77591190D02*
X147121927Y-77819761D01*
X147121927Y-77705475D02*
X146721927Y-77705475D01*
X146721927Y-77705475D02*
X146779070Y-77743571D01*
X146779070Y-77743571D02*
X146817165Y-77781666D01*
X146817165Y-77781666D02*
X146836213Y-77819761D01*
X146721927Y-77343571D02*
X146721927Y-77305476D01*
X146721927Y-77305476D02*
X146740975Y-77267380D01*
X146740975Y-77267380D02*
X146760022Y-77248333D01*
X146760022Y-77248333D02*
X146798118Y-77229285D01*
X146798118Y-77229285D02*
X146874308Y-77210238D01*
X146874308Y-77210238D02*
X146969546Y-77210238D01*
X146969546Y-77210238D02*
X147045737Y-77229285D01*
X147045737Y-77229285D02*
X147083832Y-77248333D01*
X147083832Y-77248333D02*
X147102880Y-77267380D01*
X147102880Y-77267380D02*
X147121927Y-77305476D01*
X147121927Y-77305476D02*
X147121927Y-77343571D01*
X147121927Y-77343571D02*
X147102880Y-77381666D01*
X147102880Y-77381666D02*
X147083832Y-77400714D01*
X147083832Y-77400714D02*
X147045737Y-77419761D01*
X147045737Y-77419761D02*
X146969546Y-77438809D01*
X146969546Y-77438809D02*
X146874308Y-77438809D01*
X146874308Y-77438809D02*
X146798118Y-77419761D01*
X146798118Y-77419761D02*
X146760022Y-77400714D01*
X146760022Y-77400714D02*
X146740975Y-77381666D01*
X146740975Y-77381666D02*
X146721927Y-77343571D01*
D10*
X145112319Y-90540475D02*
X144112319Y-90540475D01*
X144112319Y-90540475D02*
X144826604Y-90207142D01*
X144826604Y-90207142D02*
X144112319Y-89873809D01*
X144112319Y-89873809D02*
X145112319Y-89873809D01*
X145112319Y-89397618D02*
X144112319Y-89397618D01*
X145017080Y-88350000D02*
X145064700Y-88397619D01*
X145064700Y-88397619D02*
X145112319Y-88540476D01*
X145112319Y-88540476D02*
X145112319Y-88635714D01*
X145112319Y-88635714D02*
X145064700Y-88778571D01*
X145064700Y-88778571D02*
X144969461Y-88873809D01*
X144969461Y-88873809D02*
X144874223Y-88921428D01*
X144874223Y-88921428D02*
X144683747Y-88969047D01*
X144683747Y-88969047D02*
X144540890Y-88969047D01*
X144540890Y-88969047D02*
X144350414Y-88921428D01*
X144350414Y-88921428D02*
X144255176Y-88873809D01*
X144255176Y-88873809D02*
X144159938Y-88778571D01*
X144159938Y-88778571D02*
X144112319Y-88635714D01*
X144112319Y-88635714D02*
X144112319Y-88540476D01*
X144112319Y-88540476D02*
X144159938Y-88397619D01*
X144159938Y-88397619D02*
X144207557Y-88350000D01*
X144112319Y-87445238D02*
X144112319Y-87921428D01*
X144112319Y-87921428D02*
X144588509Y-87969047D01*
X144588509Y-87969047D02*
X144540890Y-87921428D01*
X144540890Y-87921428D02*
X144493271Y-87826190D01*
X144493271Y-87826190D02*
X144493271Y-87588095D01*
X144493271Y-87588095D02*
X144540890Y-87492857D01*
X144540890Y-87492857D02*
X144588509Y-87445238D01*
X144588509Y-87445238D02*
X144683747Y-87397619D01*
X144683747Y-87397619D02*
X144921842Y-87397619D01*
X144921842Y-87397619D02*
X145017080Y-87445238D01*
X145017080Y-87445238D02*
X145064700Y-87492857D01*
X145064700Y-87492857D02*
X145112319Y-87588095D01*
X145112319Y-87588095D02*
X145112319Y-87826190D01*
X145112319Y-87826190D02*
X145064700Y-87921428D01*
X145064700Y-87921428D02*
X145017080Y-87969047D01*
X144112319Y-87064285D02*
X144112319Y-86445238D01*
X144112319Y-86445238D02*
X144493271Y-86778571D01*
X144493271Y-86778571D02*
X144493271Y-86635714D01*
X144493271Y-86635714D02*
X144540890Y-86540476D01*
X144540890Y-86540476D02*
X144588509Y-86492857D01*
X144588509Y-86492857D02*
X144683747Y-86445238D01*
X144683747Y-86445238D02*
X144921842Y-86445238D01*
X144921842Y-86445238D02*
X145017080Y-86492857D01*
X145017080Y-86492857D02*
X145064700Y-86540476D01*
X145064700Y-86540476D02*
X145112319Y-86635714D01*
X145112319Y-86635714D02*
X145112319Y-86921428D01*
X145112319Y-86921428D02*
X145064700Y-87016666D01*
X145064700Y-87016666D02*
X145017080Y-87064285D01*
X144112319Y-85588095D02*
X144112319Y-85778571D01*
X144112319Y-85778571D02*
X144159938Y-85873809D01*
X144159938Y-85873809D02*
X144207557Y-85921428D01*
X144207557Y-85921428D02*
X144350414Y-86016666D01*
X144350414Y-86016666D02*
X144540890Y-86064285D01*
X144540890Y-86064285D02*
X144921842Y-86064285D01*
X144921842Y-86064285D02*
X145017080Y-86016666D01*
X145017080Y-86016666D02*
X145064700Y-85969047D01*
X145064700Y-85969047D02*
X145112319Y-85873809D01*
X145112319Y-85873809D02*
X145112319Y-85683333D01*
X145112319Y-85683333D02*
X145064700Y-85588095D01*
X145064700Y-85588095D02*
X145017080Y-85540476D01*
X145017080Y-85540476D02*
X144921842Y-85492857D01*
X144921842Y-85492857D02*
X144683747Y-85492857D01*
X144683747Y-85492857D02*
X144588509Y-85540476D01*
X144588509Y-85540476D02*
X144540890Y-85588095D01*
X144540890Y-85588095D02*
X144493271Y-85683333D01*
X144493271Y-85683333D02*
X144493271Y-85873809D01*
X144493271Y-85873809D02*
X144540890Y-85969047D01*
X144540890Y-85969047D02*
X144588509Y-86016666D01*
X144588509Y-86016666D02*
X144683747Y-86064285D01*
X144112319Y-84588095D02*
X144112319Y-85064285D01*
X144112319Y-85064285D02*
X144588509Y-85111904D01*
X144588509Y-85111904D02*
X144540890Y-85064285D01*
X144540890Y-85064285D02*
X144493271Y-84969047D01*
X144493271Y-84969047D02*
X144493271Y-84730952D01*
X144493271Y-84730952D02*
X144540890Y-84635714D01*
X144540890Y-84635714D02*
X144588509Y-84588095D01*
X144588509Y-84588095D02*
X144683747Y-84540476D01*
X144683747Y-84540476D02*
X144921842Y-84540476D01*
X144921842Y-84540476D02*
X145017080Y-84588095D01*
X145017080Y-84588095D02*
X145064700Y-84635714D01*
X145064700Y-84635714D02*
X145112319Y-84730952D01*
X145112319Y-84730952D02*
X145112319Y-84969047D01*
X145112319Y-84969047D02*
X145064700Y-85064285D01*
X145064700Y-85064285D02*
X145017080Y-85111904D01*
X144731366Y-84111904D02*
X144731366Y-83350000D01*
X144112319Y-82969047D02*
X144112319Y-82350000D01*
X144112319Y-82350000D02*
X144493271Y-82683333D01*
X144493271Y-82683333D02*
X144493271Y-82540476D01*
X144493271Y-82540476D02*
X144540890Y-82445238D01*
X144540890Y-82445238D02*
X144588509Y-82397619D01*
X144588509Y-82397619D02*
X144683747Y-82350000D01*
X144683747Y-82350000D02*
X144921842Y-82350000D01*
X144921842Y-82350000D02*
X145017080Y-82397619D01*
X145017080Y-82397619D02*
X145064700Y-82445238D01*
X145064700Y-82445238D02*
X145112319Y-82540476D01*
X145112319Y-82540476D02*
X145112319Y-82826190D01*
X145112319Y-82826190D02*
X145064700Y-82921428D01*
X145064700Y-82921428D02*
X145017080Y-82969047D01*
X145017080Y-81921428D02*
X145064700Y-81873809D01*
X145064700Y-81873809D02*
X145112319Y-81921428D01*
X145112319Y-81921428D02*
X145064700Y-81969047D01*
X145064700Y-81969047D02*
X145017080Y-81921428D01*
X145017080Y-81921428D02*
X145112319Y-81921428D01*
X144112319Y-81540476D02*
X144112319Y-80921429D01*
X144112319Y-80921429D02*
X144493271Y-81254762D01*
X144493271Y-81254762D02*
X144493271Y-81111905D01*
X144493271Y-81111905D02*
X144540890Y-81016667D01*
X144540890Y-81016667D02*
X144588509Y-80969048D01*
X144588509Y-80969048D02*
X144683747Y-80921429D01*
X144683747Y-80921429D02*
X144921842Y-80921429D01*
X144921842Y-80921429D02*
X145017080Y-80969048D01*
X145017080Y-80969048D02*
X145064700Y-81016667D01*
X145064700Y-81016667D02*
X145112319Y-81111905D01*
X145112319Y-81111905D02*
X145112319Y-81397619D01*
X145112319Y-81397619D02*
X145064700Y-81492857D01*
X145064700Y-81492857D02*
X145017080Y-81540476D01*
X144636128Y-80302381D02*
X145112319Y-80302381D01*
X144112319Y-80635714D02*
X144636128Y-80302381D01*
X144636128Y-80302381D02*
X144112319Y-79969048D01*
X145017080Y-79064286D02*
X145064700Y-79111905D01*
X145064700Y-79111905D02*
X145112319Y-79254762D01*
X145112319Y-79254762D02*
X145112319Y-79350000D01*
X145112319Y-79350000D02*
X145064700Y-79492857D01*
X145064700Y-79492857D02*
X144969461Y-79588095D01*
X144969461Y-79588095D02*
X144874223Y-79635714D01*
X144874223Y-79635714D02*
X144683747Y-79683333D01*
X144683747Y-79683333D02*
X144540890Y-79683333D01*
X144540890Y-79683333D02*
X144350414Y-79635714D01*
X144350414Y-79635714D02*
X144255176Y-79588095D01*
X144255176Y-79588095D02*
X144159938Y-79492857D01*
X144159938Y-79492857D02*
X144112319Y-79350000D01*
X144112319Y-79350000D02*
X144112319Y-79254762D01*
X144112319Y-79254762D02*
X144159938Y-79111905D01*
X144159938Y-79111905D02*
X144207557Y-79064286D01*
X144112319Y-78159524D02*
X144112319Y-78635714D01*
X144112319Y-78635714D02*
X144588509Y-78683333D01*
X144588509Y-78683333D02*
X144540890Y-78635714D01*
X144540890Y-78635714D02*
X144493271Y-78540476D01*
X144493271Y-78540476D02*
X144493271Y-78302381D01*
X144493271Y-78302381D02*
X144540890Y-78207143D01*
X144540890Y-78207143D02*
X144588509Y-78159524D01*
X144588509Y-78159524D02*
X144683747Y-78111905D01*
X144683747Y-78111905D02*
X144921842Y-78111905D01*
X144921842Y-78111905D02*
X145017080Y-78159524D01*
X145017080Y-78159524D02*
X145064700Y-78207143D01*
X145064700Y-78207143D02*
X145112319Y-78302381D01*
X145112319Y-78302381D02*
X145112319Y-78540476D01*
X145112319Y-78540476D02*
X145064700Y-78635714D01*
X145064700Y-78635714D02*
X145017080Y-78683333D01*
D12*
X146276547Y-84077409D02*
X146276547Y-84482171D01*
X146276547Y-84482171D02*
X146300357Y-84529790D01*
X146300357Y-84529790D02*
X146324166Y-84553600D01*
X146324166Y-84553600D02*
X146371785Y-84577409D01*
X146371785Y-84577409D02*
X146467023Y-84577409D01*
X146467023Y-84577409D02*
X146514642Y-84553600D01*
X146514642Y-84553600D02*
X146538452Y-84529790D01*
X146538452Y-84529790D02*
X146562261Y-84482171D01*
X146562261Y-84482171D02*
X146562261Y-84077409D01*
X146752738Y-84077409D02*
X147062262Y-84077409D01*
X147062262Y-84077409D02*
X146895595Y-84267885D01*
X146895595Y-84267885D02*
X146967024Y-84267885D01*
X146967024Y-84267885D02*
X147014643Y-84291695D01*
X147014643Y-84291695D02*
X147038452Y-84315504D01*
X147038452Y-84315504D02*
X147062262Y-84363123D01*
X147062262Y-84363123D02*
X147062262Y-84482171D01*
X147062262Y-84482171D02*
X147038452Y-84529790D01*
X147038452Y-84529790D02*
X147014643Y-84553600D01*
X147014643Y-84553600D02*
X146967024Y-84577409D01*
X146967024Y-84577409D02*
X146824167Y-84577409D01*
X146824167Y-84577409D02*
X146776548Y-84553600D01*
X146776548Y-84553600D02*
X146752738Y-84529790D01*
D10*
X145919761Y-105114819D02*
X145348333Y-105114819D01*
X145634047Y-105114819D02*
X145634047Y-104114819D01*
X145634047Y-104114819D02*
X145538809Y-104257676D01*
X145538809Y-104257676D02*
X145443571Y-104352914D01*
X145443571Y-104352914D02*
X145348333Y-104400533D01*
X146538809Y-104114819D02*
X146634047Y-104114819D01*
X146634047Y-104114819D02*
X146729285Y-104162438D01*
X146729285Y-104162438D02*
X146776904Y-104210057D01*
X146776904Y-104210057D02*
X146824523Y-104305295D01*
X146824523Y-104305295D02*
X146872142Y-104495771D01*
X146872142Y-104495771D02*
X146872142Y-104733866D01*
X146872142Y-104733866D02*
X146824523Y-104924342D01*
X146824523Y-104924342D02*
X146776904Y-105019580D01*
X146776904Y-105019580D02*
X146729285Y-105067200D01*
X146729285Y-105067200D02*
X146634047Y-105114819D01*
X146634047Y-105114819D02*
X146538809Y-105114819D01*
X146538809Y-105114819D02*
X146443571Y-105067200D01*
X146443571Y-105067200D02*
X146395952Y-105019580D01*
X146395952Y-105019580D02*
X146348333Y-104924342D01*
X146348333Y-104924342D02*
X146300714Y-104733866D01*
X146300714Y-104733866D02*
X146300714Y-104495771D01*
X146300714Y-104495771D02*
X146348333Y-104305295D01*
X146348333Y-104305295D02*
X146395952Y-104210057D01*
X146395952Y-104210057D02*
X146443571Y-104162438D01*
X146443571Y-104162438D02*
X146538809Y-104114819D01*
X147300714Y-105114819D02*
X147300714Y-104114819D01*
X147395952Y-104733866D02*
X147681666Y-105114819D01*
X147681666Y-104448152D02*
X147300714Y-104829104D01*
D11*
X146257857Y-106271927D02*
X146124524Y-106081451D01*
X146029286Y-106271927D02*
X146029286Y-105871927D01*
X146029286Y-105871927D02*
X146181667Y-105871927D01*
X146181667Y-105871927D02*
X146219762Y-105890975D01*
X146219762Y-105890975D02*
X146238809Y-105910022D01*
X146238809Y-105910022D02*
X146257857Y-105948118D01*
X146257857Y-105948118D02*
X146257857Y-106005260D01*
X146257857Y-106005260D02*
X146238809Y-106043356D01*
X146238809Y-106043356D02*
X146219762Y-106062403D01*
X146219762Y-106062403D02*
X146181667Y-106081451D01*
X146181667Y-106081451D02*
X146029286Y-106081451D01*
X146638809Y-106271927D02*
X146410238Y-106271927D01*
X146524524Y-106271927D02*
X146524524Y-105871927D01*
X146524524Y-105871927D02*
X146486428Y-105929070D01*
X146486428Y-105929070D02*
X146448333Y-105967165D01*
X146448333Y-105967165D02*
X146410238Y-105986213D01*
X147019761Y-106271927D02*
X146791190Y-106271927D01*
X146905476Y-106271927D02*
X146905476Y-105871927D01*
X146905476Y-105871927D02*
X146867380Y-105929070D01*
X146867380Y-105929070D02*
X146829285Y-105967165D01*
X146829285Y-105967165D02*
X146791190Y-105986213D01*
D10*
X150134819Y-93190238D02*
X150134819Y-93761666D01*
X150134819Y-93475952D02*
X149134819Y-93475952D01*
X149134819Y-93475952D02*
X149277676Y-93571190D01*
X149277676Y-93571190D02*
X149372914Y-93666428D01*
X149372914Y-93666428D02*
X149420533Y-93761666D01*
X149468152Y-92333095D02*
X150134819Y-92333095D01*
X149468152Y-92761666D02*
X149991961Y-92761666D01*
X149991961Y-92761666D02*
X150087200Y-92714047D01*
X150087200Y-92714047D02*
X150134819Y-92618809D01*
X150134819Y-92618809D02*
X150134819Y-92475952D01*
X150134819Y-92475952D02*
X150087200Y-92380714D01*
X150087200Y-92380714D02*
X150039580Y-92333095D01*
X149611009Y-91523571D02*
X149611009Y-91856904D01*
X150134819Y-91856904D02*
X149134819Y-91856904D01*
X149134819Y-91856904D02*
X149134819Y-91380714D01*
D11*
X148393832Y-92661666D02*
X148412880Y-92680714D01*
X148412880Y-92680714D02*
X148431927Y-92737856D01*
X148431927Y-92737856D02*
X148431927Y-92775952D01*
X148431927Y-92775952D02*
X148412880Y-92833095D01*
X148412880Y-92833095D02*
X148374784Y-92871190D01*
X148374784Y-92871190D02*
X148336689Y-92890237D01*
X148336689Y-92890237D02*
X148260499Y-92909285D01*
X148260499Y-92909285D02*
X148203356Y-92909285D01*
X148203356Y-92909285D02*
X148127165Y-92890237D01*
X148127165Y-92890237D02*
X148089070Y-92871190D01*
X148089070Y-92871190D02*
X148050975Y-92833095D01*
X148050975Y-92833095D02*
X148031927Y-92775952D01*
X148031927Y-92775952D02*
X148031927Y-92737856D01*
X148031927Y-92737856D02*
X148050975Y-92680714D01*
X148050975Y-92680714D02*
X148070022Y-92661666D01*
X148031927Y-92318809D02*
X148031927Y-92394999D01*
X148031927Y-92394999D02*
X148050975Y-92433095D01*
X148050975Y-92433095D02*
X148070022Y-92452142D01*
X148070022Y-92452142D02*
X148127165Y-92490237D01*
X148127165Y-92490237D02*
X148203356Y-92509285D01*
X148203356Y-92509285D02*
X148355737Y-92509285D01*
X148355737Y-92509285D02*
X148393832Y-92490237D01*
X148393832Y-92490237D02*
X148412880Y-92471190D01*
X148412880Y-92471190D02*
X148431927Y-92433095D01*
X148431927Y-92433095D02*
X148431927Y-92356904D01*
X148431927Y-92356904D02*
X148412880Y-92318809D01*
X148412880Y-92318809D02*
X148393832Y-92299761D01*
X148393832Y-92299761D02*
X148355737Y-92280714D01*
X148355737Y-92280714D02*
X148260499Y-92280714D01*
X148260499Y-92280714D02*
X148222403Y-92299761D01*
X148222403Y-92299761D02*
X148203356Y-92318809D01*
X148203356Y-92318809D02*
X148184308Y-92356904D01*
X148184308Y-92356904D02*
X148184308Y-92433095D01*
X148184308Y-92433095D02*
X148203356Y-92471190D01*
X148203356Y-92471190D02*
X148222403Y-92490237D01*
X148222403Y-92490237D02*
X148260499Y-92509285D01*
D10*
X130454819Y-98535238D02*
X130454819Y-99106666D01*
X130454819Y-98820952D02*
X129454819Y-98820952D01*
X129454819Y-98820952D02*
X129597676Y-98916190D01*
X129597676Y-98916190D02*
X129692914Y-99011428D01*
X129692914Y-99011428D02*
X129740533Y-99106666D01*
X129788152Y-97678095D02*
X130454819Y-97678095D01*
X129788152Y-98106666D02*
X130311961Y-98106666D01*
X130311961Y-98106666D02*
X130407200Y-98059047D01*
X130407200Y-98059047D02*
X130454819Y-97963809D01*
X130454819Y-97963809D02*
X130454819Y-97820952D01*
X130454819Y-97820952D02*
X130407200Y-97725714D01*
X130407200Y-97725714D02*
X130359580Y-97678095D01*
X129931009Y-96868571D02*
X129931009Y-97201904D01*
X130454819Y-97201904D02*
X129454819Y-97201904D01*
X129454819Y-97201904D02*
X129454819Y-96725714D01*
D11*
X131573832Y-98197142D02*
X131592880Y-98216190D01*
X131592880Y-98216190D02*
X131611927Y-98273332D01*
X131611927Y-98273332D02*
X131611927Y-98311428D01*
X131611927Y-98311428D02*
X131592880Y-98368571D01*
X131592880Y-98368571D02*
X131554784Y-98406666D01*
X131554784Y-98406666D02*
X131516689Y-98425713D01*
X131516689Y-98425713D02*
X131440499Y-98444761D01*
X131440499Y-98444761D02*
X131383356Y-98444761D01*
X131383356Y-98444761D02*
X131307165Y-98425713D01*
X131307165Y-98425713D02*
X131269070Y-98406666D01*
X131269070Y-98406666D02*
X131230975Y-98368571D01*
X131230975Y-98368571D02*
X131211927Y-98311428D01*
X131211927Y-98311428D02*
X131211927Y-98273332D01*
X131211927Y-98273332D02*
X131230975Y-98216190D01*
X131230975Y-98216190D02*
X131250022Y-98197142D01*
X131611927Y-97816190D02*
X131611927Y-98044761D01*
X131611927Y-97930475D02*
X131211927Y-97930475D01*
X131211927Y-97930475D02*
X131269070Y-97968571D01*
X131269070Y-97968571D02*
X131307165Y-98006666D01*
X131307165Y-98006666D02*
X131326213Y-98044761D01*
X131250022Y-97663809D02*
X131230975Y-97644761D01*
X131230975Y-97644761D02*
X131211927Y-97606666D01*
X131211927Y-97606666D02*
X131211927Y-97511428D01*
X131211927Y-97511428D02*
X131230975Y-97473333D01*
X131230975Y-97473333D02*
X131250022Y-97454285D01*
X131250022Y-97454285D02*
X131288118Y-97435238D01*
X131288118Y-97435238D02*
X131326213Y-97435238D01*
X131326213Y-97435238D02*
X131383356Y-97454285D01*
X131383356Y-97454285D02*
X131611927Y-97682857D01*
X131611927Y-97682857D02*
X131611927Y-97435238D01*
D10*
X142994819Y-78310238D02*
X142994819Y-78881666D01*
X142994819Y-78595952D02*
X141994819Y-78595952D01*
X141994819Y-78595952D02*
X142137676Y-78691190D01*
X142137676Y-78691190D02*
X142232914Y-78786428D01*
X142232914Y-78786428D02*
X142280533Y-78881666D01*
X141994819Y-77691190D02*
X141994819Y-77595952D01*
X141994819Y-77595952D02*
X142042438Y-77500714D01*
X142042438Y-77500714D02*
X142090057Y-77453095D01*
X142090057Y-77453095D02*
X142185295Y-77405476D01*
X142185295Y-77405476D02*
X142375771Y-77357857D01*
X142375771Y-77357857D02*
X142613866Y-77357857D01*
X142613866Y-77357857D02*
X142804342Y-77405476D01*
X142804342Y-77405476D02*
X142899580Y-77453095D01*
X142899580Y-77453095D02*
X142947200Y-77500714D01*
X142947200Y-77500714D02*
X142994819Y-77595952D01*
X142994819Y-77595952D02*
X142994819Y-77691190D01*
X142994819Y-77691190D02*
X142947200Y-77786428D01*
X142947200Y-77786428D02*
X142899580Y-77834047D01*
X142899580Y-77834047D02*
X142804342Y-77881666D01*
X142804342Y-77881666D02*
X142613866Y-77929285D01*
X142613866Y-77929285D02*
X142375771Y-77929285D01*
X142375771Y-77929285D02*
X142185295Y-77881666D01*
X142185295Y-77881666D02*
X142090057Y-77834047D01*
X142090057Y-77834047D02*
X142042438Y-77786428D01*
X142042438Y-77786428D02*
X141994819Y-77691190D01*
X142994819Y-76929285D02*
X141994819Y-76929285D01*
X142613866Y-76834047D02*
X142994819Y-76548333D01*
X142328152Y-76548333D02*
X142709104Y-76929285D01*
D11*
X144151927Y-77781666D02*
X143961451Y-77914999D01*
X144151927Y-78010237D02*
X143751927Y-78010237D01*
X143751927Y-78010237D02*
X143751927Y-77857856D01*
X143751927Y-77857856D02*
X143770975Y-77819761D01*
X143770975Y-77819761D02*
X143790022Y-77800714D01*
X143790022Y-77800714D02*
X143828118Y-77781666D01*
X143828118Y-77781666D02*
X143885260Y-77781666D01*
X143885260Y-77781666D02*
X143923356Y-77800714D01*
X143923356Y-77800714D02*
X143942403Y-77819761D01*
X143942403Y-77819761D02*
X143961451Y-77857856D01*
X143961451Y-77857856D02*
X143961451Y-78010237D01*
X144151927Y-77400714D02*
X144151927Y-77629285D01*
X144151927Y-77514999D02*
X143751927Y-77514999D01*
X143751927Y-77514999D02*
X143809070Y-77553095D01*
X143809070Y-77553095D02*
X143847165Y-77591190D01*
X143847165Y-77591190D02*
X143866213Y-77629285D01*
D10*
X133412142Y-80874819D02*
X132935952Y-80874819D01*
X132935952Y-80874819D02*
X132888333Y-81351009D01*
X132888333Y-81351009D02*
X132935952Y-81303390D01*
X132935952Y-81303390D02*
X133031190Y-81255771D01*
X133031190Y-81255771D02*
X133269285Y-81255771D01*
X133269285Y-81255771D02*
X133364523Y-81303390D01*
X133364523Y-81303390D02*
X133412142Y-81351009D01*
X133412142Y-81351009D02*
X133459761Y-81446247D01*
X133459761Y-81446247D02*
X133459761Y-81684342D01*
X133459761Y-81684342D02*
X133412142Y-81779580D01*
X133412142Y-81779580D02*
X133364523Y-81827200D01*
X133364523Y-81827200D02*
X133269285Y-81874819D01*
X133269285Y-81874819D02*
X133031190Y-81874819D01*
X133031190Y-81874819D02*
X132935952Y-81827200D01*
X132935952Y-81827200D02*
X132888333Y-81779580D01*
X133888333Y-81874819D02*
X133888333Y-80874819D01*
X133983571Y-81493866D02*
X134269285Y-81874819D01*
X134269285Y-81208152D02*
X133888333Y-81589104D01*
X135221666Y-81874819D02*
X134650238Y-81874819D01*
X134935952Y-81874819D02*
X134935952Y-80874819D01*
X134935952Y-80874819D02*
X134840714Y-81017676D01*
X134840714Y-81017676D02*
X134745476Y-81112914D01*
X134745476Y-81112914D02*
X134650238Y-81160533D01*
D11*
X133988333Y-80171927D02*
X133855000Y-79981451D01*
X133759762Y-80171927D02*
X133759762Y-79771927D01*
X133759762Y-79771927D02*
X133912143Y-79771927D01*
X133912143Y-79771927D02*
X133950238Y-79790975D01*
X133950238Y-79790975D02*
X133969285Y-79810022D01*
X133969285Y-79810022D02*
X133988333Y-79848118D01*
X133988333Y-79848118D02*
X133988333Y-79905260D01*
X133988333Y-79905260D02*
X133969285Y-79943356D01*
X133969285Y-79943356D02*
X133950238Y-79962403D01*
X133950238Y-79962403D02*
X133912143Y-79981451D01*
X133912143Y-79981451D02*
X133759762Y-79981451D01*
X134121666Y-79771927D02*
X134369285Y-79771927D01*
X134369285Y-79771927D02*
X134235952Y-79924308D01*
X134235952Y-79924308D02*
X134293095Y-79924308D01*
X134293095Y-79924308D02*
X134331190Y-79943356D01*
X134331190Y-79943356D02*
X134350238Y-79962403D01*
X134350238Y-79962403D02*
X134369285Y-80000499D01*
X134369285Y-80000499D02*
X134369285Y-80095737D01*
X134369285Y-80095737D02*
X134350238Y-80133832D01*
X134350238Y-80133832D02*
X134331190Y-80152880D01*
X134331190Y-80152880D02*
X134293095Y-80171927D01*
X134293095Y-80171927D02*
X134178809Y-80171927D01*
X134178809Y-80171927D02*
X134140714Y-80152880D01*
X134140714Y-80152880D02*
X134121666Y-80133832D01*
D10*
X141804819Y-98330238D02*
X141804819Y-98901666D01*
X141804819Y-98615952D02*
X140804819Y-98615952D01*
X140804819Y-98615952D02*
X140947676Y-98711190D01*
X140947676Y-98711190D02*
X141042914Y-98806428D01*
X141042914Y-98806428D02*
X141090533Y-98901666D01*
X140804819Y-97711190D02*
X140804819Y-97615952D01*
X140804819Y-97615952D02*
X140852438Y-97520714D01*
X140852438Y-97520714D02*
X140900057Y-97473095D01*
X140900057Y-97473095D02*
X140995295Y-97425476D01*
X140995295Y-97425476D02*
X141185771Y-97377857D01*
X141185771Y-97377857D02*
X141423866Y-97377857D01*
X141423866Y-97377857D02*
X141614342Y-97425476D01*
X141614342Y-97425476D02*
X141709580Y-97473095D01*
X141709580Y-97473095D02*
X141757200Y-97520714D01*
X141757200Y-97520714D02*
X141804819Y-97615952D01*
X141804819Y-97615952D02*
X141804819Y-97711190D01*
X141804819Y-97711190D02*
X141757200Y-97806428D01*
X141757200Y-97806428D02*
X141709580Y-97854047D01*
X141709580Y-97854047D02*
X141614342Y-97901666D01*
X141614342Y-97901666D02*
X141423866Y-97949285D01*
X141423866Y-97949285D02*
X141185771Y-97949285D01*
X141185771Y-97949285D02*
X140995295Y-97901666D01*
X140995295Y-97901666D02*
X140900057Y-97854047D01*
X140900057Y-97854047D02*
X140852438Y-97806428D01*
X140852438Y-97806428D02*
X140804819Y-97711190D01*
X141804819Y-96949285D02*
X140804819Y-96949285D01*
X141423866Y-96854047D02*
X141804819Y-96568333D01*
X141138152Y-96568333D02*
X141519104Y-96949285D01*
D11*
X140101927Y-97992142D02*
X139911451Y-98125475D01*
X140101927Y-98220713D02*
X139701927Y-98220713D01*
X139701927Y-98220713D02*
X139701927Y-98068332D01*
X139701927Y-98068332D02*
X139720975Y-98030237D01*
X139720975Y-98030237D02*
X139740022Y-98011190D01*
X139740022Y-98011190D02*
X139778118Y-97992142D01*
X139778118Y-97992142D02*
X139835260Y-97992142D01*
X139835260Y-97992142D02*
X139873356Y-98011190D01*
X139873356Y-98011190D02*
X139892403Y-98030237D01*
X139892403Y-98030237D02*
X139911451Y-98068332D01*
X139911451Y-98068332D02*
X139911451Y-98220713D01*
X140101927Y-97611190D02*
X140101927Y-97839761D01*
X140101927Y-97725475D02*
X139701927Y-97725475D01*
X139701927Y-97725475D02*
X139759070Y-97763571D01*
X139759070Y-97763571D02*
X139797165Y-97801666D01*
X139797165Y-97801666D02*
X139816213Y-97839761D01*
X139701927Y-97249285D02*
X139701927Y-97439761D01*
X139701927Y-97439761D02*
X139892403Y-97458809D01*
X139892403Y-97458809D02*
X139873356Y-97439761D01*
X139873356Y-97439761D02*
X139854308Y-97401666D01*
X139854308Y-97401666D02*
X139854308Y-97306428D01*
X139854308Y-97306428D02*
X139873356Y-97268333D01*
X139873356Y-97268333D02*
X139892403Y-97249285D01*
X139892403Y-97249285D02*
X139930499Y-97230238D01*
X139930499Y-97230238D02*
X140025737Y-97230238D01*
X140025737Y-97230238D02*
X140063832Y-97249285D01*
X140063832Y-97249285D02*
X140082880Y-97268333D01*
X140082880Y-97268333D02*
X140101927Y-97306428D01*
X140101927Y-97306428D02*
X140101927Y-97401666D01*
X140101927Y-97401666D02*
X140082880Y-97439761D01*
X140082880Y-97439761D02*
X140063832Y-97458809D01*
D10*
X132064819Y-89740238D02*
X132064819Y-90311666D01*
X132064819Y-90025952D02*
X131064819Y-90025952D01*
X131064819Y-90025952D02*
X131207676Y-90121190D01*
X131207676Y-90121190D02*
X131302914Y-90216428D01*
X131302914Y-90216428D02*
X131350533Y-90311666D01*
X131064819Y-89121190D02*
X131064819Y-89025952D01*
X131064819Y-89025952D02*
X131112438Y-88930714D01*
X131112438Y-88930714D02*
X131160057Y-88883095D01*
X131160057Y-88883095D02*
X131255295Y-88835476D01*
X131255295Y-88835476D02*
X131445771Y-88787857D01*
X131445771Y-88787857D02*
X131683866Y-88787857D01*
X131683866Y-88787857D02*
X131874342Y-88835476D01*
X131874342Y-88835476D02*
X131969580Y-88883095D01*
X131969580Y-88883095D02*
X132017200Y-88930714D01*
X132017200Y-88930714D02*
X132064819Y-89025952D01*
X132064819Y-89025952D02*
X132064819Y-89121190D01*
X132064819Y-89121190D02*
X132017200Y-89216428D01*
X132017200Y-89216428D02*
X131969580Y-89264047D01*
X131969580Y-89264047D02*
X131874342Y-89311666D01*
X131874342Y-89311666D02*
X131683866Y-89359285D01*
X131683866Y-89359285D02*
X131445771Y-89359285D01*
X131445771Y-89359285D02*
X131255295Y-89311666D01*
X131255295Y-89311666D02*
X131160057Y-89264047D01*
X131160057Y-89264047D02*
X131112438Y-89216428D01*
X131112438Y-89216428D02*
X131064819Y-89121190D01*
X132064819Y-88359285D02*
X131064819Y-88359285D01*
X131683866Y-88264047D02*
X132064819Y-87978333D01*
X131398152Y-87978333D02*
X131779104Y-88359285D01*
D11*
X130361927Y-89211666D02*
X130171451Y-89344999D01*
X130361927Y-89440237D02*
X129961927Y-89440237D01*
X129961927Y-89440237D02*
X129961927Y-89287856D01*
X129961927Y-89287856D02*
X129980975Y-89249761D01*
X129980975Y-89249761D02*
X130000022Y-89230714D01*
X130000022Y-89230714D02*
X130038118Y-89211666D01*
X130038118Y-89211666D02*
X130095260Y-89211666D01*
X130095260Y-89211666D02*
X130133356Y-89230714D01*
X130133356Y-89230714D02*
X130152403Y-89249761D01*
X130152403Y-89249761D02*
X130171451Y-89287856D01*
X130171451Y-89287856D02*
X130171451Y-89440237D01*
X129961927Y-88849761D02*
X129961927Y-89040237D01*
X129961927Y-89040237D02*
X130152403Y-89059285D01*
X130152403Y-89059285D02*
X130133356Y-89040237D01*
X130133356Y-89040237D02*
X130114308Y-89002142D01*
X130114308Y-89002142D02*
X130114308Y-88906904D01*
X130114308Y-88906904D02*
X130133356Y-88868809D01*
X130133356Y-88868809D02*
X130152403Y-88849761D01*
X130152403Y-88849761D02*
X130190499Y-88830714D01*
X130190499Y-88830714D02*
X130285737Y-88830714D01*
X130285737Y-88830714D02*
X130323832Y-88849761D01*
X130323832Y-88849761D02*
X130342880Y-88868809D01*
X130342880Y-88868809D02*
X130361927Y-88906904D01*
X130361927Y-88906904D02*
X130361927Y-89002142D01*
X130361927Y-89002142D02*
X130342880Y-89040237D01*
X130342880Y-89040237D02*
X130323832Y-89059285D01*
D10*
X131404819Y-94230238D02*
X131404819Y-94801666D01*
X131404819Y-94515952D02*
X130404819Y-94515952D01*
X130404819Y-94515952D02*
X130547676Y-94611190D01*
X130547676Y-94611190D02*
X130642914Y-94706428D01*
X130642914Y-94706428D02*
X130690533Y-94801666D01*
X130738152Y-93373095D02*
X131404819Y-93373095D01*
X130738152Y-93801666D02*
X131261961Y-93801666D01*
X131261961Y-93801666D02*
X131357200Y-93754047D01*
X131357200Y-93754047D02*
X131404819Y-93658809D01*
X131404819Y-93658809D02*
X131404819Y-93515952D01*
X131404819Y-93515952D02*
X131357200Y-93420714D01*
X131357200Y-93420714D02*
X131309580Y-93373095D01*
X130881009Y-92563571D02*
X130881009Y-92896904D01*
X131404819Y-92896904D02*
X130404819Y-92896904D01*
X130404819Y-92896904D02*
X130404819Y-92420714D01*
D11*
X129663832Y-93892142D02*
X129682880Y-93911190D01*
X129682880Y-93911190D02*
X129701927Y-93968332D01*
X129701927Y-93968332D02*
X129701927Y-94006428D01*
X129701927Y-94006428D02*
X129682880Y-94063571D01*
X129682880Y-94063571D02*
X129644784Y-94101666D01*
X129644784Y-94101666D02*
X129606689Y-94120713D01*
X129606689Y-94120713D02*
X129530499Y-94139761D01*
X129530499Y-94139761D02*
X129473356Y-94139761D01*
X129473356Y-94139761D02*
X129397165Y-94120713D01*
X129397165Y-94120713D02*
X129359070Y-94101666D01*
X129359070Y-94101666D02*
X129320975Y-94063571D01*
X129320975Y-94063571D02*
X129301927Y-94006428D01*
X129301927Y-94006428D02*
X129301927Y-93968332D01*
X129301927Y-93968332D02*
X129320975Y-93911190D01*
X129320975Y-93911190D02*
X129340022Y-93892142D01*
X129701927Y-93511190D02*
X129701927Y-93739761D01*
X129701927Y-93625475D02*
X129301927Y-93625475D01*
X129301927Y-93625475D02*
X129359070Y-93663571D01*
X129359070Y-93663571D02*
X129397165Y-93701666D01*
X129397165Y-93701666D02*
X129416213Y-93739761D01*
X129701927Y-93130238D02*
X129701927Y-93358809D01*
X129701927Y-93244523D02*
X129301927Y-93244523D01*
X129301927Y-93244523D02*
X129359070Y-93282619D01*
X129359070Y-93282619D02*
X129397165Y-93320714D01*
X129397165Y-93320714D02*
X129416213Y-93358809D01*
D10*
X147334819Y-78305238D02*
X147334819Y-78876666D01*
X147334819Y-78590952D02*
X146334819Y-78590952D01*
X146334819Y-78590952D02*
X146477676Y-78686190D01*
X146477676Y-78686190D02*
X146572914Y-78781428D01*
X146572914Y-78781428D02*
X146620533Y-78876666D01*
X146334819Y-77686190D02*
X146334819Y-77590952D01*
X146334819Y-77590952D02*
X146382438Y-77495714D01*
X146382438Y-77495714D02*
X146430057Y-77448095D01*
X146430057Y-77448095D02*
X146525295Y-77400476D01*
X146525295Y-77400476D02*
X146715771Y-77352857D01*
X146715771Y-77352857D02*
X146953866Y-77352857D01*
X146953866Y-77352857D02*
X147144342Y-77400476D01*
X147144342Y-77400476D02*
X147239580Y-77448095D01*
X147239580Y-77448095D02*
X147287200Y-77495714D01*
X147287200Y-77495714D02*
X147334819Y-77590952D01*
X147334819Y-77590952D02*
X147334819Y-77686190D01*
X147334819Y-77686190D02*
X147287200Y-77781428D01*
X147287200Y-77781428D02*
X147239580Y-77829047D01*
X147239580Y-77829047D02*
X147144342Y-77876666D01*
X147144342Y-77876666D02*
X146953866Y-77924285D01*
X146953866Y-77924285D02*
X146715771Y-77924285D01*
X146715771Y-77924285D02*
X146525295Y-77876666D01*
X146525295Y-77876666D02*
X146430057Y-77829047D01*
X146430057Y-77829047D02*
X146382438Y-77781428D01*
X146382438Y-77781428D02*
X146334819Y-77686190D01*
X147334819Y-76924285D02*
X146334819Y-76924285D01*
X146953866Y-76829047D02*
X147334819Y-76543333D01*
X146668152Y-76543333D02*
X147049104Y-76924285D01*
D11*
X145631927Y-77967142D02*
X145441451Y-78100475D01*
X145631927Y-78195713D02*
X145231927Y-78195713D01*
X145231927Y-78195713D02*
X145231927Y-78043332D01*
X145231927Y-78043332D02*
X145250975Y-78005237D01*
X145250975Y-78005237D02*
X145270022Y-77986190D01*
X145270022Y-77986190D02*
X145308118Y-77967142D01*
X145308118Y-77967142D02*
X145365260Y-77967142D01*
X145365260Y-77967142D02*
X145403356Y-77986190D01*
X145403356Y-77986190D02*
X145422403Y-78005237D01*
X145422403Y-78005237D02*
X145441451Y-78043332D01*
X145441451Y-78043332D02*
X145441451Y-78195713D01*
X145631927Y-77586190D02*
X145631927Y-77814761D01*
X145631927Y-77700475D02*
X145231927Y-77700475D01*
X145231927Y-77700475D02*
X145289070Y-77738571D01*
X145289070Y-77738571D02*
X145327165Y-77776666D01*
X145327165Y-77776666D02*
X145346213Y-77814761D01*
X145365260Y-77243333D02*
X145631927Y-77243333D01*
X145212880Y-77338571D02*
X145498594Y-77433809D01*
X145498594Y-77433809D02*
X145498594Y-77186190D01*
D10*
X139084761Y-94284819D02*
X138513333Y-94284819D01*
X138799047Y-94284819D02*
X138799047Y-93284819D01*
X138799047Y-93284819D02*
X138703809Y-93427676D01*
X138703809Y-93427676D02*
X138608571Y-93522914D01*
X138608571Y-93522914D02*
X138513333Y-93570533D01*
X139941904Y-93618152D02*
X139941904Y-94284819D01*
X139513333Y-93618152D02*
X139513333Y-94141961D01*
X139513333Y-94141961D02*
X139560952Y-94237200D01*
X139560952Y-94237200D02*
X139656190Y-94284819D01*
X139656190Y-94284819D02*
X139799047Y-94284819D01*
X139799047Y-94284819D02*
X139894285Y-94237200D01*
X139894285Y-94237200D02*
X139941904Y-94189580D01*
X140751428Y-93761009D02*
X140418095Y-93761009D01*
X140418095Y-94284819D02*
X140418095Y-93284819D01*
X140418095Y-93284819D02*
X140894285Y-93284819D01*
D11*
X139613333Y-92543832D02*
X139594285Y-92562880D01*
X139594285Y-92562880D02*
X139537143Y-92581927D01*
X139537143Y-92581927D02*
X139499047Y-92581927D01*
X139499047Y-92581927D02*
X139441904Y-92562880D01*
X139441904Y-92562880D02*
X139403809Y-92524784D01*
X139403809Y-92524784D02*
X139384762Y-92486689D01*
X139384762Y-92486689D02*
X139365714Y-92410499D01*
X139365714Y-92410499D02*
X139365714Y-92353356D01*
X139365714Y-92353356D02*
X139384762Y-92277165D01*
X139384762Y-92277165D02*
X139403809Y-92239070D01*
X139403809Y-92239070D02*
X139441904Y-92200975D01*
X139441904Y-92200975D02*
X139499047Y-92181927D01*
X139499047Y-92181927D02*
X139537143Y-92181927D01*
X139537143Y-92181927D02*
X139594285Y-92200975D01*
X139594285Y-92200975D02*
X139613333Y-92220022D01*
X139975238Y-92181927D02*
X139784762Y-92181927D01*
X139784762Y-92181927D02*
X139765714Y-92372403D01*
X139765714Y-92372403D02*
X139784762Y-92353356D01*
X139784762Y-92353356D02*
X139822857Y-92334308D01*
X139822857Y-92334308D02*
X139918095Y-92334308D01*
X139918095Y-92334308D02*
X139956190Y-92353356D01*
X139956190Y-92353356D02*
X139975238Y-92372403D01*
X139975238Y-92372403D02*
X139994285Y-92410499D01*
X139994285Y-92410499D02*
X139994285Y-92505737D01*
X139994285Y-92505737D02*
X139975238Y-92543832D01*
X139975238Y-92543832D02*
X139956190Y-92562880D01*
X139956190Y-92562880D02*
X139918095Y-92581927D01*
X139918095Y-92581927D02*
X139822857Y-92581927D01*
X139822857Y-92581927D02*
X139784762Y-92562880D01*
X139784762Y-92562880D02*
X139765714Y-92543832D01*
D10*
X141254819Y-96190238D02*
X141254819Y-96761666D01*
X141254819Y-96475952D02*
X140254819Y-96475952D01*
X140254819Y-96475952D02*
X140397676Y-96571190D01*
X140397676Y-96571190D02*
X140492914Y-96666428D01*
X140492914Y-96666428D02*
X140540533Y-96761666D01*
X140588152Y-95333095D02*
X141254819Y-95333095D01*
X140588152Y-95761666D02*
X141111961Y-95761666D01*
X141111961Y-95761666D02*
X141207200Y-95714047D01*
X141207200Y-95714047D02*
X141254819Y-95618809D01*
X141254819Y-95618809D02*
X141254819Y-95475952D01*
X141254819Y-95475952D02*
X141207200Y-95380714D01*
X141207200Y-95380714D02*
X141159580Y-95333095D01*
X140731009Y-94523571D02*
X140731009Y-94856904D01*
X141254819Y-94856904D02*
X140254819Y-94856904D01*
X140254819Y-94856904D02*
X140254819Y-94380714D01*
D11*
X142373832Y-95852142D02*
X142392880Y-95871190D01*
X142392880Y-95871190D02*
X142411927Y-95928332D01*
X142411927Y-95928332D02*
X142411927Y-95966428D01*
X142411927Y-95966428D02*
X142392880Y-96023571D01*
X142392880Y-96023571D02*
X142354784Y-96061666D01*
X142354784Y-96061666D02*
X142316689Y-96080713D01*
X142316689Y-96080713D02*
X142240499Y-96099761D01*
X142240499Y-96099761D02*
X142183356Y-96099761D01*
X142183356Y-96099761D02*
X142107165Y-96080713D01*
X142107165Y-96080713D02*
X142069070Y-96061666D01*
X142069070Y-96061666D02*
X142030975Y-96023571D01*
X142030975Y-96023571D02*
X142011927Y-95966428D01*
X142011927Y-95966428D02*
X142011927Y-95928332D01*
X142011927Y-95928332D02*
X142030975Y-95871190D01*
X142030975Y-95871190D02*
X142050022Y-95852142D01*
X142411927Y-95471190D02*
X142411927Y-95699761D01*
X142411927Y-95585475D02*
X142011927Y-95585475D01*
X142011927Y-95585475D02*
X142069070Y-95623571D01*
X142069070Y-95623571D02*
X142107165Y-95661666D01*
X142107165Y-95661666D02*
X142126213Y-95699761D01*
X142183356Y-95242619D02*
X142164308Y-95280714D01*
X142164308Y-95280714D02*
X142145260Y-95299761D01*
X142145260Y-95299761D02*
X142107165Y-95318809D01*
X142107165Y-95318809D02*
X142088118Y-95318809D01*
X142088118Y-95318809D02*
X142050022Y-95299761D01*
X142050022Y-95299761D02*
X142030975Y-95280714D01*
X142030975Y-95280714D02*
X142011927Y-95242619D01*
X142011927Y-95242619D02*
X142011927Y-95166428D01*
X142011927Y-95166428D02*
X142030975Y-95128333D01*
X142030975Y-95128333D02*
X142050022Y-95109285D01*
X142050022Y-95109285D02*
X142088118Y-95090238D01*
X142088118Y-95090238D02*
X142107165Y-95090238D01*
X142107165Y-95090238D02*
X142145260Y-95109285D01*
X142145260Y-95109285D02*
X142164308Y-95128333D01*
X142164308Y-95128333D02*
X142183356Y-95166428D01*
X142183356Y-95166428D02*
X142183356Y-95242619D01*
X142183356Y-95242619D02*
X142202403Y-95280714D01*
X142202403Y-95280714D02*
X142221451Y-95299761D01*
X142221451Y-95299761D02*
X142259546Y-95318809D01*
X142259546Y-95318809D02*
X142335737Y-95318809D01*
X142335737Y-95318809D02*
X142373832Y-95299761D01*
X142373832Y-95299761D02*
X142392880Y-95280714D01*
X142392880Y-95280714D02*
X142411927Y-95242619D01*
X142411927Y-95242619D02*
X142411927Y-95166428D01*
X142411927Y-95166428D02*
X142392880Y-95128333D01*
X142392880Y-95128333D02*
X142373832Y-95109285D01*
X142373832Y-95109285D02*
X142335737Y-95090238D01*
X142335737Y-95090238D02*
X142259546Y-95090238D01*
X142259546Y-95090238D02*
X142221451Y-95109285D01*
X142221451Y-95109285D02*
X142202403Y-95128333D01*
X142202403Y-95128333D02*
X142183356Y-95166428D01*
D10*
X130834405Y-86650057D02*
X130882024Y-86602438D01*
X130882024Y-86602438D02*
X130977262Y-86554819D01*
X130977262Y-86554819D02*
X131215357Y-86554819D01*
X131215357Y-86554819D02*
X131310595Y-86602438D01*
X131310595Y-86602438D02*
X131358214Y-86650057D01*
X131358214Y-86650057D02*
X131405833Y-86745295D01*
X131405833Y-86745295D02*
X131405833Y-86840533D01*
X131405833Y-86840533D02*
X131358214Y-86983390D01*
X131358214Y-86983390D02*
X130786786Y-87554819D01*
X130786786Y-87554819D02*
X131405833Y-87554819D01*
X131786786Y-86650057D02*
X131834405Y-86602438D01*
X131834405Y-86602438D02*
X131929643Y-86554819D01*
X131929643Y-86554819D02*
X132167738Y-86554819D01*
X132167738Y-86554819D02*
X132262976Y-86602438D01*
X132262976Y-86602438D02*
X132310595Y-86650057D01*
X132310595Y-86650057D02*
X132358214Y-86745295D01*
X132358214Y-86745295D02*
X132358214Y-86840533D01*
X132358214Y-86840533D02*
X132310595Y-86983390D01*
X132310595Y-86983390D02*
X131739167Y-87554819D01*
X131739167Y-87554819D02*
X132358214Y-87554819D01*
X132977262Y-86554819D02*
X133072500Y-86554819D01*
X133072500Y-86554819D02*
X133167738Y-86602438D01*
X133167738Y-86602438D02*
X133215357Y-86650057D01*
X133215357Y-86650057D02*
X133262976Y-86745295D01*
X133262976Y-86745295D02*
X133310595Y-86935771D01*
X133310595Y-86935771D02*
X133310595Y-87173866D01*
X133310595Y-87173866D02*
X133262976Y-87364342D01*
X133262976Y-87364342D02*
X133215357Y-87459580D01*
X133215357Y-87459580D02*
X133167738Y-87507200D01*
X133167738Y-87507200D02*
X133072500Y-87554819D01*
X133072500Y-87554819D02*
X132977262Y-87554819D01*
X132977262Y-87554819D02*
X132882024Y-87507200D01*
X132882024Y-87507200D02*
X132834405Y-87459580D01*
X132834405Y-87459580D02*
X132786786Y-87364342D01*
X132786786Y-87364342D02*
X132739167Y-87173866D01*
X132739167Y-87173866D02*
X132739167Y-86935771D01*
X132739167Y-86935771D02*
X132786786Y-86745295D01*
X132786786Y-86745295D02*
X132834405Y-86650057D01*
X132834405Y-86650057D02*
X132882024Y-86602438D01*
X132882024Y-86602438D02*
X132977262Y-86554819D01*
X134310595Y-87554819D02*
X133977262Y-87078628D01*
X133739167Y-87554819D02*
X133739167Y-86554819D01*
X133739167Y-86554819D02*
X134120119Y-86554819D01*
X134120119Y-86554819D02*
X134215357Y-86602438D01*
X134215357Y-86602438D02*
X134262976Y-86650057D01*
X134262976Y-86650057D02*
X134310595Y-86745295D01*
X134310595Y-86745295D02*
X134310595Y-86888152D01*
X134310595Y-86888152D02*
X134262976Y-86983390D01*
X134262976Y-86983390D02*
X134215357Y-87031009D01*
X134215357Y-87031009D02*
X134120119Y-87078628D01*
X134120119Y-87078628D02*
X133739167Y-87078628D01*
D11*
X132315357Y-85851927D02*
X132182024Y-85661451D01*
X132086786Y-85851927D02*
X132086786Y-85451927D01*
X132086786Y-85451927D02*
X132239167Y-85451927D01*
X132239167Y-85451927D02*
X132277262Y-85470975D01*
X132277262Y-85470975D02*
X132296309Y-85490022D01*
X132296309Y-85490022D02*
X132315357Y-85528118D01*
X132315357Y-85528118D02*
X132315357Y-85585260D01*
X132315357Y-85585260D02*
X132296309Y-85623356D01*
X132296309Y-85623356D02*
X132277262Y-85642403D01*
X132277262Y-85642403D02*
X132239167Y-85661451D01*
X132239167Y-85661451D02*
X132086786Y-85661451D01*
X132696309Y-85851927D02*
X132467738Y-85851927D01*
X132582024Y-85851927D02*
X132582024Y-85451927D01*
X132582024Y-85451927D02*
X132543928Y-85509070D01*
X132543928Y-85509070D02*
X132505833Y-85547165D01*
X132505833Y-85547165D02*
X132467738Y-85566213D01*
X133039166Y-85451927D02*
X132962976Y-85451927D01*
X132962976Y-85451927D02*
X132924880Y-85470975D01*
X132924880Y-85470975D02*
X132905833Y-85490022D01*
X132905833Y-85490022D02*
X132867738Y-85547165D01*
X132867738Y-85547165D02*
X132848690Y-85623356D01*
X132848690Y-85623356D02*
X132848690Y-85775737D01*
X132848690Y-85775737D02*
X132867738Y-85813832D01*
X132867738Y-85813832D02*
X132886785Y-85832880D01*
X132886785Y-85832880D02*
X132924880Y-85851927D01*
X132924880Y-85851927D02*
X133001071Y-85851927D01*
X133001071Y-85851927D02*
X133039166Y-85832880D01*
X133039166Y-85832880D02*
X133058214Y-85813832D01*
X133058214Y-85813832D02*
X133077261Y-85775737D01*
X133077261Y-85775737D02*
X133077261Y-85680499D01*
X133077261Y-85680499D02*
X133058214Y-85642403D01*
X133058214Y-85642403D02*
X133039166Y-85623356D01*
X133039166Y-85623356D02*
X133001071Y-85604308D01*
X133001071Y-85604308D02*
X132924880Y-85604308D01*
X132924880Y-85604308D02*
X132886785Y-85623356D01*
X132886785Y-85623356D02*
X132867738Y-85642403D01*
X132867738Y-85642403D02*
X132848690Y-85680499D01*
D10*
X151644819Y-93200238D02*
X151644819Y-93771666D01*
X151644819Y-93485952D02*
X150644819Y-93485952D01*
X150644819Y-93485952D02*
X150787676Y-93581190D01*
X150787676Y-93581190D02*
X150882914Y-93676428D01*
X150882914Y-93676428D02*
X150930533Y-93771666D01*
X150644819Y-92581190D02*
X150644819Y-92485952D01*
X150644819Y-92485952D02*
X150692438Y-92390714D01*
X150692438Y-92390714D02*
X150740057Y-92343095D01*
X150740057Y-92343095D02*
X150835295Y-92295476D01*
X150835295Y-92295476D02*
X151025771Y-92247857D01*
X151025771Y-92247857D02*
X151263866Y-92247857D01*
X151263866Y-92247857D02*
X151454342Y-92295476D01*
X151454342Y-92295476D02*
X151549580Y-92343095D01*
X151549580Y-92343095D02*
X151597200Y-92390714D01*
X151597200Y-92390714D02*
X151644819Y-92485952D01*
X151644819Y-92485952D02*
X151644819Y-92581190D01*
X151644819Y-92581190D02*
X151597200Y-92676428D01*
X151597200Y-92676428D02*
X151549580Y-92724047D01*
X151549580Y-92724047D02*
X151454342Y-92771666D01*
X151454342Y-92771666D02*
X151263866Y-92819285D01*
X151263866Y-92819285D02*
X151025771Y-92819285D01*
X151025771Y-92819285D02*
X150835295Y-92771666D01*
X150835295Y-92771666D02*
X150740057Y-92724047D01*
X150740057Y-92724047D02*
X150692438Y-92676428D01*
X150692438Y-92676428D02*
X150644819Y-92581190D01*
X151644819Y-91819285D02*
X150644819Y-91819285D01*
X151263866Y-91724047D02*
X151644819Y-91438333D01*
X150978152Y-91438333D02*
X151359104Y-91819285D01*
D11*
X149941927Y-92671666D02*
X149751451Y-92804999D01*
X149941927Y-92900237D02*
X149541927Y-92900237D01*
X149541927Y-92900237D02*
X149541927Y-92747856D01*
X149541927Y-92747856D02*
X149560975Y-92709761D01*
X149560975Y-92709761D02*
X149580022Y-92690714D01*
X149580022Y-92690714D02*
X149618118Y-92671666D01*
X149618118Y-92671666D02*
X149675260Y-92671666D01*
X149675260Y-92671666D02*
X149713356Y-92690714D01*
X149713356Y-92690714D02*
X149732403Y-92709761D01*
X149732403Y-92709761D02*
X149751451Y-92747856D01*
X149751451Y-92747856D02*
X149751451Y-92900237D01*
X149713356Y-92443095D02*
X149694308Y-92481190D01*
X149694308Y-92481190D02*
X149675260Y-92500237D01*
X149675260Y-92500237D02*
X149637165Y-92519285D01*
X149637165Y-92519285D02*
X149618118Y-92519285D01*
X149618118Y-92519285D02*
X149580022Y-92500237D01*
X149580022Y-92500237D02*
X149560975Y-92481190D01*
X149560975Y-92481190D02*
X149541927Y-92443095D01*
X149541927Y-92443095D02*
X149541927Y-92366904D01*
X149541927Y-92366904D02*
X149560975Y-92328809D01*
X149560975Y-92328809D02*
X149580022Y-92309761D01*
X149580022Y-92309761D02*
X149618118Y-92290714D01*
X149618118Y-92290714D02*
X149637165Y-92290714D01*
X149637165Y-92290714D02*
X149675260Y-92309761D01*
X149675260Y-92309761D02*
X149694308Y-92328809D01*
X149694308Y-92328809D02*
X149713356Y-92366904D01*
X149713356Y-92366904D02*
X149713356Y-92443095D01*
X149713356Y-92443095D02*
X149732403Y-92481190D01*
X149732403Y-92481190D02*
X149751451Y-92500237D01*
X149751451Y-92500237D02*
X149789546Y-92519285D01*
X149789546Y-92519285D02*
X149865737Y-92519285D01*
X149865737Y-92519285D02*
X149903832Y-92500237D01*
X149903832Y-92500237D02*
X149922880Y-92481190D01*
X149922880Y-92481190D02*
X149941927Y-92443095D01*
X149941927Y-92443095D02*
X149941927Y-92366904D01*
X149941927Y-92366904D02*
X149922880Y-92328809D01*
X149922880Y-92328809D02*
X149903832Y-92309761D01*
X149903832Y-92309761D02*
X149865737Y-92290714D01*
X149865737Y-92290714D02*
X149789546Y-92290714D01*
X149789546Y-92290714D02*
X149751451Y-92309761D01*
X149751451Y-92309761D02*
X149732403Y-92328809D01*
X149732403Y-92328809D02*
X149713356Y-92366904D01*
D10*
X133510057Y-83601666D02*
X133462438Y-83554047D01*
X133462438Y-83554047D02*
X133414819Y-83458809D01*
X133414819Y-83458809D02*
X133414819Y-83220714D01*
X133414819Y-83220714D02*
X133462438Y-83125476D01*
X133462438Y-83125476D02*
X133510057Y-83077857D01*
X133510057Y-83077857D02*
X133605295Y-83030238D01*
X133605295Y-83030238D02*
X133700533Y-83030238D01*
X133700533Y-83030238D02*
X133843390Y-83077857D01*
X133843390Y-83077857D02*
X134414819Y-83649285D01*
X134414819Y-83649285D02*
X134414819Y-83030238D01*
X133414819Y-82411190D02*
X133414819Y-82315952D01*
X133414819Y-82315952D02*
X133462438Y-82220714D01*
X133462438Y-82220714D02*
X133510057Y-82173095D01*
X133510057Y-82173095D02*
X133605295Y-82125476D01*
X133605295Y-82125476D02*
X133795771Y-82077857D01*
X133795771Y-82077857D02*
X134033866Y-82077857D01*
X134033866Y-82077857D02*
X134224342Y-82125476D01*
X134224342Y-82125476D02*
X134319580Y-82173095D01*
X134319580Y-82173095D02*
X134367200Y-82220714D01*
X134367200Y-82220714D02*
X134414819Y-82315952D01*
X134414819Y-82315952D02*
X134414819Y-82411190D01*
X134414819Y-82411190D02*
X134367200Y-82506428D01*
X134367200Y-82506428D02*
X134319580Y-82554047D01*
X134319580Y-82554047D02*
X134224342Y-82601666D01*
X134224342Y-82601666D02*
X134033866Y-82649285D01*
X134033866Y-82649285D02*
X133795771Y-82649285D01*
X133795771Y-82649285D02*
X133605295Y-82601666D01*
X133605295Y-82601666D02*
X133510057Y-82554047D01*
X133510057Y-82554047D02*
X133462438Y-82506428D01*
X133462438Y-82506428D02*
X133414819Y-82411190D01*
X134414819Y-81649285D02*
X133414819Y-81649285D01*
X134033866Y-81554047D02*
X134414819Y-81268333D01*
X133748152Y-81268333D02*
X134129104Y-81649285D01*
D11*
X132711927Y-82692142D02*
X132521451Y-82825475D01*
X132711927Y-82920713D02*
X132311927Y-82920713D01*
X132311927Y-82920713D02*
X132311927Y-82768332D01*
X132311927Y-82768332D02*
X132330975Y-82730237D01*
X132330975Y-82730237D02*
X132350022Y-82711190D01*
X132350022Y-82711190D02*
X132388118Y-82692142D01*
X132388118Y-82692142D02*
X132445260Y-82692142D01*
X132445260Y-82692142D02*
X132483356Y-82711190D01*
X132483356Y-82711190D02*
X132502403Y-82730237D01*
X132502403Y-82730237D02*
X132521451Y-82768332D01*
X132521451Y-82768332D02*
X132521451Y-82920713D01*
X132711927Y-82311190D02*
X132711927Y-82539761D01*
X132711927Y-82425475D02*
X132311927Y-82425475D01*
X132311927Y-82425475D02*
X132369070Y-82463571D01*
X132369070Y-82463571D02*
X132407165Y-82501666D01*
X132407165Y-82501666D02*
X132426213Y-82539761D01*
X132483356Y-82082619D02*
X132464308Y-82120714D01*
X132464308Y-82120714D02*
X132445260Y-82139761D01*
X132445260Y-82139761D02*
X132407165Y-82158809D01*
X132407165Y-82158809D02*
X132388118Y-82158809D01*
X132388118Y-82158809D02*
X132350022Y-82139761D01*
X132350022Y-82139761D02*
X132330975Y-82120714D01*
X132330975Y-82120714D02*
X132311927Y-82082619D01*
X132311927Y-82082619D02*
X132311927Y-82006428D01*
X132311927Y-82006428D02*
X132330975Y-81968333D01*
X132330975Y-81968333D02*
X132350022Y-81949285D01*
X132350022Y-81949285D02*
X132388118Y-81930238D01*
X132388118Y-81930238D02*
X132407165Y-81930238D01*
X132407165Y-81930238D02*
X132445260Y-81949285D01*
X132445260Y-81949285D02*
X132464308Y-81968333D01*
X132464308Y-81968333D02*
X132483356Y-82006428D01*
X132483356Y-82006428D02*
X132483356Y-82082619D01*
X132483356Y-82082619D02*
X132502403Y-82120714D01*
X132502403Y-82120714D02*
X132521451Y-82139761D01*
X132521451Y-82139761D02*
X132559546Y-82158809D01*
X132559546Y-82158809D02*
X132635737Y-82158809D01*
X132635737Y-82158809D02*
X132673832Y-82139761D01*
X132673832Y-82139761D02*
X132692880Y-82120714D01*
X132692880Y-82120714D02*
X132711927Y-82082619D01*
X132711927Y-82082619D02*
X132711927Y-82006428D01*
X132711927Y-82006428D02*
X132692880Y-81968333D01*
X132692880Y-81968333D02*
X132673832Y-81949285D01*
X132673832Y-81949285D02*
X132635737Y-81930238D01*
X132635737Y-81930238D02*
X132559546Y-81930238D01*
X132559546Y-81930238D02*
X132521451Y-81949285D01*
X132521451Y-81949285D02*
X132502403Y-81968333D01*
X132502403Y-81968333D02*
X132483356Y-82006428D01*
D10*
X149045952Y-80814819D02*
X148474524Y-80814819D01*
X148760238Y-80814819D02*
X148760238Y-79814819D01*
X148760238Y-79814819D02*
X148665000Y-79957676D01*
X148665000Y-79957676D02*
X148569762Y-80052914D01*
X148569762Y-80052914D02*
X148474524Y-80100533D01*
X149474524Y-80814819D02*
X149474524Y-79814819D01*
X149569762Y-80433866D02*
X149855476Y-80814819D01*
X149855476Y-80148152D02*
X149474524Y-80529104D01*
D11*
X149098333Y-79111927D02*
X148965000Y-78921451D01*
X148869762Y-79111927D02*
X148869762Y-78711927D01*
X148869762Y-78711927D02*
X149022143Y-78711927D01*
X149022143Y-78711927D02*
X149060238Y-78730975D01*
X149060238Y-78730975D02*
X149079285Y-78750022D01*
X149079285Y-78750022D02*
X149098333Y-78788118D01*
X149098333Y-78788118D02*
X149098333Y-78845260D01*
X149098333Y-78845260D02*
X149079285Y-78883356D01*
X149079285Y-78883356D02*
X149060238Y-78902403D01*
X149060238Y-78902403D02*
X149022143Y-78921451D01*
X149022143Y-78921451D02*
X148869762Y-78921451D01*
X149441190Y-78845260D02*
X149441190Y-79111927D01*
X149345952Y-78692880D02*
X149250714Y-78978594D01*
X149250714Y-78978594D02*
X149498333Y-78978594D01*
D10*
X141034819Y-84240238D02*
X141034819Y-84811666D01*
X141034819Y-84525952D02*
X140034819Y-84525952D01*
X140034819Y-84525952D02*
X140177676Y-84621190D01*
X140177676Y-84621190D02*
X140272914Y-84716428D01*
X140272914Y-84716428D02*
X140320533Y-84811666D01*
X140034819Y-83621190D02*
X140034819Y-83525952D01*
X140034819Y-83525952D02*
X140082438Y-83430714D01*
X140082438Y-83430714D02*
X140130057Y-83383095D01*
X140130057Y-83383095D02*
X140225295Y-83335476D01*
X140225295Y-83335476D02*
X140415771Y-83287857D01*
X140415771Y-83287857D02*
X140653866Y-83287857D01*
X140653866Y-83287857D02*
X140844342Y-83335476D01*
X140844342Y-83335476D02*
X140939580Y-83383095D01*
X140939580Y-83383095D02*
X140987200Y-83430714D01*
X140987200Y-83430714D02*
X141034819Y-83525952D01*
X141034819Y-83525952D02*
X141034819Y-83621190D01*
X141034819Y-83621190D02*
X140987200Y-83716428D01*
X140987200Y-83716428D02*
X140939580Y-83764047D01*
X140939580Y-83764047D02*
X140844342Y-83811666D01*
X140844342Y-83811666D02*
X140653866Y-83859285D01*
X140653866Y-83859285D02*
X140415771Y-83859285D01*
X140415771Y-83859285D02*
X140225295Y-83811666D01*
X140225295Y-83811666D02*
X140130057Y-83764047D01*
X140130057Y-83764047D02*
X140082438Y-83716428D01*
X140082438Y-83716428D02*
X140034819Y-83621190D01*
X141034819Y-82859285D02*
X140034819Y-82859285D01*
X140653866Y-82764047D02*
X141034819Y-82478333D01*
X140368152Y-82478333D02*
X140749104Y-82859285D01*
D11*
X139331927Y-83902142D02*
X139141451Y-84035475D01*
X139331927Y-84130713D02*
X138931927Y-84130713D01*
X138931927Y-84130713D02*
X138931927Y-83978332D01*
X138931927Y-83978332D02*
X138950975Y-83940237D01*
X138950975Y-83940237D02*
X138970022Y-83921190D01*
X138970022Y-83921190D02*
X139008118Y-83902142D01*
X139008118Y-83902142D02*
X139065260Y-83902142D01*
X139065260Y-83902142D02*
X139103356Y-83921190D01*
X139103356Y-83921190D02*
X139122403Y-83940237D01*
X139122403Y-83940237D02*
X139141451Y-83978332D01*
X139141451Y-83978332D02*
X139141451Y-84130713D01*
X139331927Y-83521190D02*
X139331927Y-83749761D01*
X139331927Y-83635475D02*
X138931927Y-83635475D01*
X138931927Y-83635475D02*
X138989070Y-83673571D01*
X138989070Y-83673571D02*
X139027165Y-83711666D01*
X139027165Y-83711666D02*
X139046213Y-83749761D01*
X138931927Y-83273571D02*
X138931927Y-83235476D01*
X138931927Y-83235476D02*
X138950975Y-83197380D01*
X138950975Y-83197380D02*
X138970022Y-83178333D01*
X138970022Y-83178333D02*
X139008118Y-83159285D01*
X139008118Y-83159285D02*
X139084308Y-83140238D01*
X139084308Y-83140238D02*
X139179546Y-83140238D01*
X139179546Y-83140238D02*
X139255737Y-83159285D01*
X139255737Y-83159285D02*
X139293832Y-83178333D01*
X139293832Y-83178333D02*
X139312880Y-83197380D01*
X139312880Y-83197380D02*
X139331927Y-83235476D01*
X139331927Y-83235476D02*
X139331927Y-83273571D01*
X139331927Y-83273571D02*
X139312880Y-83311666D01*
X139312880Y-83311666D02*
X139293832Y-83330714D01*
X139293832Y-83330714D02*
X139255737Y-83349761D01*
X139255737Y-83349761D02*
X139179546Y-83368809D01*
X139179546Y-83368809D02*
X139084308Y-83368809D01*
X139084308Y-83368809D02*
X139008118Y-83349761D01*
X139008118Y-83349761D02*
X138970022Y-83330714D01*
X138970022Y-83330714D02*
X138950975Y-83311666D01*
X138950975Y-83311666D02*
X138931927Y-83273571D01*
D10*
X133622200Y-84345833D02*
X133669819Y-84202976D01*
X133669819Y-84202976D02*
X133669819Y-83964881D01*
X133669819Y-83964881D02*
X133622200Y-83869643D01*
X133622200Y-83869643D02*
X133574580Y-83822024D01*
X133574580Y-83822024D02*
X133479342Y-83774405D01*
X133479342Y-83774405D02*
X133384104Y-83774405D01*
X133384104Y-83774405D02*
X133288866Y-83822024D01*
X133288866Y-83822024D02*
X133241247Y-83869643D01*
X133241247Y-83869643D02*
X133193628Y-83964881D01*
X133193628Y-83964881D02*
X133146009Y-84155357D01*
X133146009Y-84155357D02*
X133098390Y-84250595D01*
X133098390Y-84250595D02*
X133050771Y-84298214D01*
X133050771Y-84298214D02*
X132955533Y-84345833D01*
X132955533Y-84345833D02*
X132860295Y-84345833D01*
X132860295Y-84345833D02*
X132765057Y-84298214D01*
X132765057Y-84298214D02*
X132717438Y-84250595D01*
X132717438Y-84250595D02*
X132669819Y-84155357D01*
X132669819Y-84155357D02*
X132669819Y-83917262D01*
X132669819Y-83917262D02*
X132717438Y-83774405D01*
X133669819Y-83345833D02*
X132669819Y-83345833D01*
X132669819Y-83345833D02*
X133669819Y-82774405D01*
X133669819Y-82774405D02*
X132669819Y-82774405D01*
X132669819Y-82393452D02*
X132669819Y-81726786D01*
X132669819Y-81726786D02*
X133669819Y-82155357D01*
X133003152Y-80917262D02*
X133669819Y-80917262D01*
X132622200Y-81155357D02*
X133336485Y-81393452D01*
X133336485Y-81393452D02*
X133336485Y-80774405D01*
X133669819Y-79917262D02*
X133669819Y-80393452D01*
X133669819Y-80393452D02*
X132669819Y-80393452D01*
X132669819Y-79726785D02*
X133669819Y-79393452D01*
X133669819Y-79393452D02*
X132669819Y-79060119D01*
X133669819Y-78202976D02*
X133669819Y-78774404D01*
X133669819Y-78488690D02*
X132669819Y-78488690D01*
X132669819Y-78488690D02*
X132812676Y-78583928D01*
X132812676Y-78583928D02*
X132907914Y-78679166D01*
X132907914Y-78679166D02*
X132955533Y-78774404D01*
X132669819Y-77917261D02*
X132669819Y-77345833D01*
X133669819Y-77631547D02*
X132669819Y-77631547D01*
X132669819Y-77107737D02*
X132669819Y-76488690D01*
X132669819Y-76488690D02*
X133050771Y-76822023D01*
X133050771Y-76822023D02*
X133050771Y-76679166D01*
X133050771Y-76679166D02*
X133098390Y-76583928D01*
X133098390Y-76583928D02*
X133146009Y-76536309D01*
X133146009Y-76536309D02*
X133241247Y-76488690D01*
X133241247Y-76488690D02*
X133479342Y-76488690D01*
X133479342Y-76488690D02*
X133574580Y-76536309D01*
X133574580Y-76536309D02*
X133622200Y-76583928D01*
X133622200Y-76583928D02*
X133669819Y-76679166D01*
X133669819Y-76679166D02*
X133669819Y-76964880D01*
X133669819Y-76964880D02*
X133622200Y-77060118D01*
X133622200Y-77060118D02*
X133574580Y-77107737D01*
X133003152Y-75631547D02*
X133669819Y-75631547D01*
X132622200Y-75869642D02*
X133336485Y-76107737D01*
X133336485Y-76107737D02*
X133336485Y-75488690D01*
X133669819Y-75107737D02*
X132669819Y-75107737D01*
X132669819Y-75107737D02*
X132669819Y-74869642D01*
X132669819Y-74869642D02*
X132717438Y-74726785D01*
X132717438Y-74726785D02*
X132812676Y-74631547D01*
X132812676Y-74631547D02*
X132907914Y-74583928D01*
X132907914Y-74583928D02*
X133098390Y-74536309D01*
X133098390Y-74536309D02*
X133241247Y-74536309D01*
X133241247Y-74536309D02*
X133431723Y-74583928D01*
X133431723Y-74583928D02*
X133526961Y-74631547D01*
X133526961Y-74631547D02*
X133622200Y-74726785D01*
X133622200Y-74726785D02*
X133669819Y-74869642D01*
X133669819Y-74869642D02*
X133669819Y-75107737D01*
X133146009Y-73774404D02*
X133193628Y-73631547D01*
X133193628Y-73631547D02*
X133241247Y-73583928D01*
X133241247Y-73583928D02*
X133336485Y-73536309D01*
X133336485Y-73536309D02*
X133479342Y-73536309D01*
X133479342Y-73536309D02*
X133574580Y-73583928D01*
X133574580Y-73583928D02*
X133622200Y-73631547D01*
X133622200Y-73631547D02*
X133669819Y-73726785D01*
X133669819Y-73726785D02*
X133669819Y-74107737D01*
X133669819Y-74107737D02*
X132669819Y-74107737D01*
X132669819Y-74107737D02*
X132669819Y-73774404D01*
X132669819Y-73774404D02*
X132717438Y-73679166D01*
X132717438Y-73679166D02*
X132765057Y-73631547D01*
X132765057Y-73631547D02*
X132860295Y-73583928D01*
X132860295Y-73583928D02*
X132955533Y-73583928D01*
X132955533Y-73583928D02*
X133050771Y-73631547D01*
X133050771Y-73631547D02*
X133098390Y-73679166D01*
X133098390Y-73679166D02*
X133146009Y-73774404D01*
X133146009Y-73774404D02*
X133146009Y-74107737D01*
X132669819Y-73250594D02*
X133669819Y-72917261D01*
X133669819Y-72917261D02*
X132669819Y-72583928D01*
X133669819Y-71679166D02*
X133193628Y-72012499D01*
X133669819Y-72250594D02*
X132669819Y-72250594D01*
X132669819Y-72250594D02*
X132669819Y-71869642D01*
X132669819Y-71869642D02*
X132717438Y-71774404D01*
X132717438Y-71774404D02*
X132765057Y-71726785D01*
X132765057Y-71726785D02*
X132860295Y-71679166D01*
X132860295Y-71679166D02*
X133003152Y-71679166D01*
X133003152Y-71679166D02*
X133098390Y-71726785D01*
X133098390Y-71726785D02*
X133146009Y-71774404D01*
X133146009Y-71774404D02*
X133193628Y-71869642D01*
X133193628Y-71869642D02*
X133193628Y-72250594D01*
D11*
X130596927Y-78317261D02*
X130920737Y-78317261D01*
X130920737Y-78317261D02*
X130958832Y-78298214D01*
X130958832Y-78298214D02*
X130977880Y-78279166D01*
X130977880Y-78279166D02*
X130996927Y-78241071D01*
X130996927Y-78241071D02*
X130996927Y-78164880D01*
X130996927Y-78164880D02*
X130977880Y-78126785D01*
X130977880Y-78126785D02*
X130958832Y-78107738D01*
X130958832Y-78107738D02*
X130920737Y-78088690D01*
X130920737Y-78088690D02*
X130596927Y-78088690D01*
X130730260Y-77726785D02*
X130996927Y-77726785D01*
X130577880Y-77822023D02*
X130863594Y-77917261D01*
X130863594Y-77917261D02*
X130863594Y-77669642D01*
D10*
X128524819Y-97190238D02*
X128524819Y-97761666D01*
X128524819Y-97475952D02*
X127524819Y-97475952D01*
X127524819Y-97475952D02*
X127667676Y-97571190D01*
X127667676Y-97571190D02*
X127762914Y-97666428D01*
X127762914Y-97666428D02*
X127810533Y-97761666D01*
X127858152Y-96333095D02*
X128524819Y-96333095D01*
X127858152Y-96761666D02*
X128381961Y-96761666D01*
X128381961Y-96761666D02*
X128477200Y-96714047D01*
X128477200Y-96714047D02*
X128524819Y-96618809D01*
X128524819Y-96618809D02*
X128524819Y-96475952D01*
X128524819Y-96475952D02*
X128477200Y-96380714D01*
X128477200Y-96380714D02*
X128429580Y-96333095D01*
X128001009Y-95523571D02*
X128001009Y-95856904D01*
X128524819Y-95856904D02*
X127524819Y-95856904D01*
X127524819Y-95856904D02*
X127524819Y-95380714D01*
D11*
X129643832Y-96661666D02*
X129662880Y-96680714D01*
X129662880Y-96680714D02*
X129681927Y-96737856D01*
X129681927Y-96737856D02*
X129681927Y-96775952D01*
X129681927Y-96775952D02*
X129662880Y-96833095D01*
X129662880Y-96833095D02*
X129624784Y-96871190D01*
X129624784Y-96871190D02*
X129586689Y-96890237D01*
X129586689Y-96890237D02*
X129510499Y-96909285D01*
X129510499Y-96909285D02*
X129453356Y-96909285D01*
X129453356Y-96909285D02*
X129377165Y-96890237D01*
X129377165Y-96890237D02*
X129339070Y-96871190D01*
X129339070Y-96871190D02*
X129300975Y-96833095D01*
X129300975Y-96833095D02*
X129281927Y-96775952D01*
X129281927Y-96775952D02*
X129281927Y-96737856D01*
X129281927Y-96737856D02*
X129300975Y-96680714D01*
X129300975Y-96680714D02*
X129320022Y-96661666D01*
X129320022Y-96509285D02*
X129300975Y-96490237D01*
X129300975Y-96490237D02*
X129281927Y-96452142D01*
X129281927Y-96452142D02*
X129281927Y-96356904D01*
X129281927Y-96356904D02*
X129300975Y-96318809D01*
X129300975Y-96318809D02*
X129320022Y-96299761D01*
X129320022Y-96299761D02*
X129358118Y-96280714D01*
X129358118Y-96280714D02*
X129396213Y-96280714D01*
X129396213Y-96280714D02*
X129453356Y-96299761D01*
X129453356Y-96299761D02*
X129681927Y-96528333D01*
X129681927Y-96528333D02*
X129681927Y-96280714D01*
D10*
X138944819Y-104330238D02*
X138944819Y-104901666D01*
X138944819Y-104615952D02*
X137944819Y-104615952D01*
X137944819Y-104615952D02*
X138087676Y-104711190D01*
X138087676Y-104711190D02*
X138182914Y-104806428D01*
X138182914Y-104806428D02*
X138230533Y-104901666D01*
X138278152Y-103473095D02*
X138944819Y-103473095D01*
X138278152Y-103901666D02*
X138801961Y-103901666D01*
X138801961Y-103901666D02*
X138897200Y-103854047D01*
X138897200Y-103854047D02*
X138944819Y-103758809D01*
X138944819Y-103758809D02*
X138944819Y-103615952D01*
X138944819Y-103615952D02*
X138897200Y-103520714D01*
X138897200Y-103520714D02*
X138849580Y-103473095D01*
X138421009Y-102663571D02*
X138421009Y-102996904D01*
X138944819Y-102996904D02*
X137944819Y-102996904D01*
X137944819Y-102996904D02*
X137944819Y-102520714D01*
D11*
X140063832Y-103992142D02*
X140082880Y-104011190D01*
X140082880Y-104011190D02*
X140101927Y-104068332D01*
X140101927Y-104068332D02*
X140101927Y-104106428D01*
X140101927Y-104106428D02*
X140082880Y-104163571D01*
X140082880Y-104163571D02*
X140044784Y-104201666D01*
X140044784Y-104201666D02*
X140006689Y-104220713D01*
X140006689Y-104220713D02*
X139930499Y-104239761D01*
X139930499Y-104239761D02*
X139873356Y-104239761D01*
X139873356Y-104239761D02*
X139797165Y-104220713D01*
X139797165Y-104220713D02*
X139759070Y-104201666D01*
X139759070Y-104201666D02*
X139720975Y-104163571D01*
X139720975Y-104163571D02*
X139701927Y-104106428D01*
X139701927Y-104106428D02*
X139701927Y-104068332D01*
X139701927Y-104068332D02*
X139720975Y-104011190D01*
X139720975Y-104011190D02*
X139740022Y-103992142D01*
X140101927Y-103611190D02*
X140101927Y-103839761D01*
X140101927Y-103725475D02*
X139701927Y-103725475D01*
X139701927Y-103725475D02*
X139759070Y-103763571D01*
X139759070Y-103763571D02*
X139797165Y-103801666D01*
X139797165Y-103801666D02*
X139816213Y-103839761D01*
X139701927Y-103477857D02*
X139701927Y-103211190D01*
X139701927Y-103211190D02*
X140101927Y-103382619D01*
D10*
X130244761Y-77044819D02*
X129673333Y-77044819D01*
X129959047Y-77044819D02*
X129959047Y-76044819D01*
X129959047Y-76044819D02*
X129863809Y-76187676D01*
X129863809Y-76187676D02*
X129768571Y-76282914D01*
X129768571Y-76282914D02*
X129673333Y-76330533D01*
X131101904Y-76378152D02*
X131101904Y-77044819D01*
X130673333Y-76378152D02*
X130673333Y-76901961D01*
X130673333Y-76901961D02*
X130720952Y-76997200D01*
X130720952Y-76997200D02*
X130816190Y-77044819D01*
X130816190Y-77044819D02*
X130959047Y-77044819D01*
X130959047Y-77044819D02*
X131054285Y-76997200D01*
X131054285Y-76997200D02*
X131101904Y-76949580D01*
X131911428Y-76521009D02*
X131578095Y-76521009D01*
X131578095Y-77044819D02*
X131578095Y-76044819D01*
X131578095Y-76044819D02*
X132054285Y-76044819D01*
D11*
X130582857Y-75303832D02*
X130563809Y-75322880D01*
X130563809Y-75322880D02*
X130506667Y-75341927D01*
X130506667Y-75341927D02*
X130468571Y-75341927D01*
X130468571Y-75341927D02*
X130411428Y-75322880D01*
X130411428Y-75322880D02*
X130373333Y-75284784D01*
X130373333Y-75284784D02*
X130354286Y-75246689D01*
X130354286Y-75246689D02*
X130335238Y-75170499D01*
X130335238Y-75170499D02*
X130335238Y-75113356D01*
X130335238Y-75113356D02*
X130354286Y-75037165D01*
X130354286Y-75037165D02*
X130373333Y-74999070D01*
X130373333Y-74999070D02*
X130411428Y-74960975D01*
X130411428Y-74960975D02*
X130468571Y-74941927D01*
X130468571Y-74941927D02*
X130506667Y-74941927D01*
X130506667Y-74941927D02*
X130563809Y-74960975D01*
X130563809Y-74960975D02*
X130582857Y-74980022D01*
X130963809Y-75341927D02*
X130735238Y-75341927D01*
X130849524Y-75341927D02*
X130849524Y-74941927D01*
X130849524Y-74941927D02*
X130811428Y-74999070D01*
X130811428Y-74999070D02*
X130773333Y-75037165D01*
X130773333Y-75037165D02*
X130735238Y-75056213D01*
X131306666Y-74941927D02*
X131230476Y-74941927D01*
X131230476Y-74941927D02*
X131192380Y-74960975D01*
X131192380Y-74960975D02*
X131173333Y-74980022D01*
X131173333Y-74980022D02*
X131135238Y-75037165D01*
X131135238Y-75037165D02*
X131116190Y-75113356D01*
X131116190Y-75113356D02*
X131116190Y-75265737D01*
X131116190Y-75265737D02*
X131135238Y-75303832D01*
X131135238Y-75303832D02*
X131154285Y-75322880D01*
X131154285Y-75322880D02*
X131192380Y-75341927D01*
X131192380Y-75341927D02*
X131268571Y-75341927D01*
X131268571Y-75341927D02*
X131306666Y-75322880D01*
X131306666Y-75322880D02*
X131325714Y-75303832D01*
X131325714Y-75303832D02*
X131344761Y-75265737D01*
X131344761Y-75265737D02*
X131344761Y-75170499D01*
X131344761Y-75170499D02*
X131325714Y-75132403D01*
X131325714Y-75132403D02*
X131306666Y-75113356D01*
X131306666Y-75113356D02*
X131268571Y-75094308D01*
X131268571Y-75094308D02*
X131192380Y-75094308D01*
X131192380Y-75094308D02*
X131154285Y-75113356D01*
X131154285Y-75113356D02*
X131135238Y-75132403D01*
X131135238Y-75132403D02*
X131116190Y-75170499D01*
D10*
X138944819Y-101350238D02*
X138944819Y-101921666D01*
X138944819Y-101635952D02*
X137944819Y-101635952D01*
X137944819Y-101635952D02*
X138087676Y-101731190D01*
X138087676Y-101731190D02*
X138182914Y-101826428D01*
X138182914Y-101826428D02*
X138230533Y-101921666D01*
X137944819Y-100731190D02*
X137944819Y-100635952D01*
X137944819Y-100635952D02*
X137992438Y-100540714D01*
X137992438Y-100540714D02*
X138040057Y-100493095D01*
X138040057Y-100493095D02*
X138135295Y-100445476D01*
X138135295Y-100445476D02*
X138325771Y-100397857D01*
X138325771Y-100397857D02*
X138563866Y-100397857D01*
X138563866Y-100397857D02*
X138754342Y-100445476D01*
X138754342Y-100445476D02*
X138849580Y-100493095D01*
X138849580Y-100493095D02*
X138897200Y-100540714D01*
X138897200Y-100540714D02*
X138944819Y-100635952D01*
X138944819Y-100635952D02*
X138944819Y-100731190D01*
X138944819Y-100731190D02*
X138897200Y-100826428D01*
X138897200Y-100826428D02*
X138849580Y-100874047D01*
X138849580Y-100874047D02*
X138754342Y-100921666D01*
X138754342Y-100921666D02*
X138563866Y-100969285D01*
X138563866Y-100969285D02*
X138325771Y-100969285D01*
X138325771Y-100969285D02*
X138135295Y-100921666D01*
X138135295Y-100921666D02*
X138040057Y-100874047D01*
X138040057Y-100874047D02*
X137992438Y-100826428D01*
X137992438Y-100826428D02*
X137944819Y-100731190D01*
X138944819Y-99969285D02*
X137944819Y-99969285D01*
X138563866Y-99874047D02*
X138944819Y-99588333D01*
X138278152Y-99588333D02*
X138659104Y-99969285D01*
D11*
X140101927Y-101012142D02*
X139911451Y-101145475D01*
X140101927Y-101240713D02*
X139701927Y-101240713D01*
X139701927Y-101240713D02*
X139701927Y-101088332D01*
X139701927Y-101088332D02*
X139720975Y-101050237D01*
X139720975Y-101050237D02*
X139740022Y-101031190D01*
X139740022Y-101031190D02*
X139778118Y-101012142D01*
X139778118Y-101012142D02*
X139835260Y-101012142D01*
X139835260Y-101012142D02*
X139873356Y-101031190D01*
X139873356Y-101031190D02*
X139892403Y-101050237D01*
X139892403Y-101050237D02*
X139911451Y-101088332D01*
X139911451Y-101088332D02*
X139911451Y-101240713D01*
X140101927Y-100631190D02*
X140101927Y-100859761D01*
X140101927Y-100745475D02*
X139701927Y-100745475D01*
X139701927Y-100745475D02*
X139759070Y-100783571D01*
X139759070Y-100783571D02*
X139797165Y-100821666D01*
X139797165Y-100821666D02*
X139816213Y-100859761D01*
X139701927Y-100497857D02*
X139701927Y-100231190D01*
X139701927Y-100231190D02*
X140101927Y-100402619D01*
D10*
X148972142Y-79314819D02*
X148495952Y-79314819D01*
X148495952Y-79314819D02*
X148495952Y-78314819D01*
X149305476Y-78791009D02*
X149638809Y-78791009D01*
X149781666Y-79314819D02*
X149305476Y-79314819D01*
X149305476Y-79314819D02*
X149305476Y-78314819D01*
X149305476Y-78314819D02*
X149781666Y-78314819D01*
X150210238Y-79314819D02*
X150210238Y-78314819D01*
X150210238Y-78314819D02*
X150448333Y-78314819D01*
X150448333Y-78314819D02*
X150591190Y-78362438D01*
X150591190Y-78362438D02*
X150686428Y-78457676D01*
X150686428Y-78457676D02*
X150734047Y-78552914D01*
X150734047Y-78552914D02*
X150781666Y-78743390D01*
X150781666Y-78743390D02*
X150781666Y-78886247D01*
X150781666Y-78886247D02*
X150734047Y-79076723D01*
X150734047Y-79076723D02*
X150686428Y-79171961D01*
X150686428Y-79171961D02*
X150591190Y-79267200D01*
X150591190Y-79267200D02*
X150448333Y-79314819D01*
X150448333Y-79314819D02*
X150210238Y-79314819D01*
D13*
X149245952Y-77437149D02*
X149245952Y-76937149D01*
X149245952Y-76937149D02*
X149365000Y-76937149D01*
X149365000Y-76937149D02*
X149436428Y-76960959D01*
X149436428Y-76960959D02*
X149484047Y-77008578D01*
X149484047Y-77008578D02*
X149507857Y-77056197D01*
X149507857Y-77056197D02*
X149531666Y-77151435D01*
X149531666Y-77151435D02*
X149531666Y-77222863D01*
X149531666Y-77222863D02*
X149507857Y-77318101D01*
X149507857Y-77318101D02*
X149484047Y-77365720D01*
X149484047Y-77365720D02*
X149436428Y-77413340D01*
X149436428Y-77413340D02*
X149365000Y-77437149D01*
X149365000Y-77437149D02*
X149245952Y-77437149D01*
X150007857Y-77437149D02*
X149722143Y-77437149D01*
X149865000Y-77437149D02*
X149865000Y-76937149D01*
X149865000Y-76937149D02*
X149817381Y-77008578D01*
X149817381Y-77008578D02*
X149769762Y-77056197D01*
X149769762Y-77056197D02*
X149722143Y-77080006D01*
D10*
X139929761Y-105094819D02*
X139358333Y-105094819D01*
X139644047Y-105094819D02*
X139644047Y-104094819D01*
X139644047Y-104094819D02*
X139548809Y-104237676D01*
X139548809Y-104237676D02*
X139453571Y-104332914D01*
X139453571Y-104332914D02*
X139358333Y-104380533D01*
X140786904Y-104428152D02*
X140786904Y-105094819D01*
X140358333Y-104428152D02*
X140358333Y-104951961D01*
X140358333Y-104951961D02*
X140405952Y-105047200D01*
X140405952Y-105047200D02*
X140501190Y-105094819D01*
X140501190Y-105094819D02*
X140644047Y-105094819D01*
X140644047Y-105094819D02*
X140739285Y-105047200D01*
X140739285Y-105047200D02*
X140786904Y-104999580D01*
X141596428Y-104571009D02*
X141263095Y-104571009D01*
X141263095Y-105094819D02*
X141263095Y-104094819D01*
X141263095Y-104094819D02*
X141739285Y-104094819D01*
D11*
X140458333Y-106213832D02*
X140439285Y-106232880D01*
X140439285Y-106232880D02*
X140382143Y-106251927D01*
X140382143Y-106251927D02*
X140344047Y-106251927D01*
X140344047Y-106251927D02*
X140286904Y-106232880D01*
X140286904Y-106232880D02*
X140248809Y-106194784D01*
X140248809Y-106194784D02*
X140229762Y-106156689D01*
X140229762Y-106156689D02*
X140210714Y-106080499D01*
X140210714Y-106080499D02*
X140210714Y-106023356D01*
X140210714Y-106023356D02*
X140229762Y-105947165D01*
X140229762Y-105947165D02*
X140248809Y-105909070D01*
X140248809Y-105909070D02*
X140286904Y-105870975D01*
X140286904Y-105870975D02*
X140344047Y-105851927D01*
X140344047Y-105851927D02*
X140382143Y-105851927D01*
X140382143Y-105851927D02*
X140439285Y-105870975D01*
X140439285Y-105870975D02*
X140458333Y-105890022D01*
X140648809Y-106251927D02*
X140725000Y-106251927D01*
X140725000Y-106251927D02*
X140763095Y-106232880D01*
X140763095Y-106232880D02*
X140782143Y-106213832D01*
X140782143Y-106213832D02*
X140820238Y-106156689D01*
X140820238Y-106156689D02*
X140839285Y-106080499D01*
X140839285Y-106080499D02*
X140839285Y-105928118D01*
X140839285Y-105928118D02*
X140820238Y-105890022D01*
X140820238Y-105890022D02*
X140801190Y-105870975D01*
X140801190Y-105870975D02*
X140763095Y-105851927D01*
X140763095Y-105851927D02*
X140686904Y-105851927D01*
X140686904Y-105851927D02*
X140648809Y-105870975D01*
X140648809Y-105870975D02*
X140629762Y-105890022D01*
X140629762Y-105890022D02*
X140610714Y-105928118D01*
X140610714Y-105928118D02*
X140610714Y-106023356D01*
X140610714Y-106023356D02*
X140629762Y-106061451D01*
X140629762Y-106061451D02*
X140648809Y-106080499D01*
X140648809Y-106080499D02*
X140686904Y-106099546D01*
X140686904Y-106099546D02*
X140763095Y-106099546D01*
X140763095Y-106099546D02*
X140801190Y-106080499D01*
X140801190Y-106080499D02*
X140820238Y-106061451D01*
X140820238Y-106061451D02*
X140839285Y-106023356D01*
D10*
X148804819Y-96170238D02*
X148804819Y-96741666D01*
X148804819Y-96455952D02*
X147804819Y-96455952D01*
X147804819Y-96455952D02*
X147947676Y-96551190D01*
X147947676Y-96551190D02*
X148042914Y-96646428D01*
X148042914Y-96646428D02*
X148090533Y-96741666D01*
X147804819Y-95551190D02*
X147804819Y-95455952D01*
X147804819Y-95455952D02*
X147852438Y-95360714D01*
X147852438Y-95360714D02*
X147900057Y-95313095D01*
X147900057Y-95313095D02*
X147995295Y-95265476D01*
X147995295Y-95265476D02*
X148185771Y-95217857D01*
X148185771Y-95217857D02*
X148423866Y-95217857D01*
X148423866Y-95217857D02*
X148614342Y-95265476D01*
X148614342Y-95265476D02*
X148709580Y-95313095D01*
X148709580Y-95313095D02*
X148757200Y-95360714D01*
X148757200Y-95360714D02*
X148804819Y-95455952D01*
X148804819Y-95455952D02*
X148804819Y-95551190D01*
X148804819Y-95551190D02*
X148757200Y-95646428D01*
X148757200Y-95646428D02*
X148709580Y-95694047D01*
X148709580Y-95694047D02*
X148614342Y-95741666D01*
X148614342Y-95741666D02*
X148423866Y-95789285D01*
X148423866Y-95789285D02*
X148185771Y-95789285D01*
X148185771Y-95789285D02*
X147995295Y-95741666D01*
X147995295Y-95741666D02*
X147900057Y-95694047D01*
X147900057Y-95694047D02*
X147852438Y-95646428D01*
X147852438Y-95646428D02*
X147804819Y-95551190D01*
X148804819Y-94789285D02*
X147804819Y-94789285D01*
X148423866Y-94694047D02*
X148804819Y-94408333D01*
X148138152Y-94408333D02*
X148519104Y-94789285D01*
D11*
X149961927Y-95641666D02*
X149771451Y-95774999D01*
X149961927Y-95870237D02*
X149561927Y-95870237D01*
X149561927Y-95870237D02*
X149561927Y-95717856D01*
X149561927Y-95717856D02*
X149580975Y-95679761D01*
X149580975Y-95679761D02*
X149600022Y-95660714D01*
X149600022Y-95660714D02*
X149638118Y-95641666D01*
X149638118Y-95641666D02*
X149695260Y-95641666D01*
X149695260Y-95641666D02*
X149733356Y-95660714D01*
X149733356Y-95660714D02*
X149752403Y-95679761D01*
X149752403Y-95679761D02*
X149771451Y-95717856D01*
X149771451Y-95717856D02*
X149771451Y-95870237D01*
X149561927Y-95508333D02*
X149561927Y-95241666D01*
X149561927Y-95241666D02*
X149961927Y-95413095D01*
D10*
X148359761Y-80524819D02*
X147788333Y-80524819D01*
X148074047Y-80524819D02*
X148074047Y-79524819D01*
X148074047Y-79524819D02*
X147978809Y-79667676D01*
X147978809Y-79667676D02*
X147883571Y-79762914D01*
X147883571Y-79762914D02*
X147788333Y-79810533D01*
X149216904Y-79858152D02*
X149216904Y-80524819D01*
X148788333Y-79858152D02*
X148788333Y-80381961D01*
X148788333Y-80381961D02*
X148835952Y-80477200D01*
X148835952Y-80477200D02*
X148931190Y-80524819D01*
X148931190Y-80524819D02*
X149074047Y-80524819D01*
X149074047Y-80524819D02*
X149169285Y-80477200D01*
X149169285Y-80477200D02*
X149216904Y-80429580D01*
X150026428Y-80001009D02*
X149693095Y-80001009D01*
X149693095Y-80524819D02*
X149693095Y-79524819D01*
X149693095Y-79524819D02*
X150169285Y-79524819D01*
D11*
X148888333Y-81643832D02*
X148869285Y-81662880D01*
X148869285Y-81662880D02*
X148812143Y-81681927D01*
X148812143Y-81681927D02*
X148774047Y-81681927D01*
X148774047Y-81681927D02*
X148716904Y-81662880D01*
X148716904Y-81662880D02*
X148678809Y-81624784D01*
X148678809Y-81624784D02*
X148659762Y-81586689D01*
X148659762Y-81586689D02*
X148640714Y-81510499D01*
X148640714Y-81510499D02*
X148640714Y-81453356D01*
X148640714Y-81453356D02*
X148659762Y-81377165D01*
X148659762Y-81377165D02*
X148678809Y-81339070D01*
X148678809Y-81339070D02*
X148716904Y-81300975D01*
X148716904Y-81300975D02*
X148774047Y-81281927D01*
X148774047Y-81281927D02*
X148812143Y-81281927D01*
X148812143Y-81281927D02*
X148869285Y-81300975D01*
X148869285Y-81300975D02*
X148888333Y-81320022D01*
X149231190Y-81415260D02*
X149231190Y-81681927D01*
X149135952Y-81262880D02*
X149040714Y-81548594D01*
X149040714Y-81548594D02*
X149288333Y-81548594D01*
D10*
X142694819Y-87506190D02*
X142694819Y-88077618D01*
X142694819Y-87791904D02*
X141694819Y-87791904D01*
X141694819Y-87791904D02*
X141837676Y-87887142D01*
X141837676Y-87887142D02*
X141932914Y-87982380D01*
X141932914Y-87982380D02*
X141980533Y-88077618D01*
X141694819Y-86649047D02*
X141694819Y-86839523D01*
X141694819Y-86839523D02*
X141742438Y-86934761D01*
X141742438Y-86934761D02*
X141790057Y-86982380D01*
X141790057Y-86982380D02*
X141932914Y-87077618D01*
X141932914Y-87077618D02*
X142123390Y-87125237D01*
X142123390Y-87125237D02*
X142504342Y-87125237D01*
X142504342Y-87125237D02*
X142599580Y-87077618D01*
X142599580Y-87077618D02*
X142647200Y-87029999D01*
X142647200Y-87029999D02*
X142694819Y-86934761D01*
X142694819Y-86934761D02*
X142694819Y-86744285D01*
X142694819Y-86744285D02*
X142647200Y-86649047D01*
X142647200Y-86649047D02*
X142599580Y-86601428D01*
X142599580Y-86601428D02*
X142504342Y-86553809D01*
X142504342Y-86553809D02*
X142266247Y-86553809D01*
X142266247Y-86553809D02*
X142171009Y-86601428D01*
X142171009Y-86601428D02*
X142123390Y-86649047D01*
X142123390Y-86649047D02*
X142075771Y-86744285D01*
X142075771Y-86744285D02*
X142075771Y-86934761D01*
X142075771Y-86934761D02*
X142123390Y-87029999D01*
X142123390Y-87029999D02*
X142171009Y-87077618D01*
X142171009Y-87077618D02*
X142266247Y-87125237D01*
X141694819Y-86268094D02*
X142694819Y-85934761D01*
X142694819Y-85934761D02*
X141694819Y-85601428D01*
X141647200Y-84553809D02*
X142932914Y-85410951D01*
X142028152Y-83791904D02*
X142694819Y-83791904D01*
X141647200Y-84029999D02*
X142361485Y-84268094D01*
X142361485Y-84268094D02*
X142361485Y-83649047D01*
X141694819Y-83363332D02*
X141694819Y-82696666D01*
X141694819Y-82696666D02*
X142694819Y-83125237D01*
X142028152Y-81887142D02*
X142694819Y-81887142D01*
X142028152Y-82315713D02*
X142551961Y-82315713D01*
X142551961Y-82315713D02*
X142647200Y-82268094D01*
X142647200Y-82268094D02*
X142694819Y-82172856D01*
X142694819Y-82172856D02*
X142694819Y-82029999D01*
X142694819Y-82029999D02*
X142647200Y-81934761D01*
X142647200Y-81934761D02*
X142599580Y-81887142D01*
X142171009Y-81077618D02*
X142171009Y-81410951D01*
X142694819Y-81410951D02*
X141694819Y-81410951D01*
X141694819Y-81410951D02*
X141694819Y-80934761D01*
D14*
X144377664Y-84663332D02*
X144415760Y-84701428D01*
X144415760Y-84701428D02*
X144453855Y-84815713D01*
X144453855Y-84815713D02*
X144453855Y-84891904D01*
X144453855Y-84891904D02*
X144415760Y-85006190D01*
X144415760Y-85006190D02*
X144339569Y-85082380D01*
X144339569Y-85082380D02*
X144263379Y-85120475D01*
X144263379Y-85120475D02*
X144110998Y-85158571D01*
X144110998Y-85158571D02*
X143996712Y-85158571D01*
X143996712Y-85158571D02*
X143844331Y-85120475D01*
X143844331Y-85120475D02*
X143768140Y-85082380D01*
X143768140Y-85082380D02*
X143691950Y-85006190D01*
X143691950Y-85006190D02*
X143653855Y-84891904D01*
X143653855Y-84891904D02*
X143653855Y-84815713D01*
X143653855Y-84815713D02*
X143691950Y-84701428D01*
X143691950Y-84701428D02*
X143730045Y-84663332D01*
X144453855Y-83901428D02*
X144453855Y-84358571D01*
X144453855Y-84129999D02*
X143653855Y-84129999D01*
X143653855Y-84129999D02*
X143768140Y-84206190D01*
X143768140Y-84206190D02*
X143844331Y-84282380D01*
X143844331Y-84282380D02*
X143882426Y-84358571D01*
D10*
X139704819Y-87250238D02*
X139704819Y-87821666D01*
X139704819Y-87535952D02*
X138704819Y-87535952D01*
X138704819Y-87535952D02*
X138847676Y-87631190D01*
X138847676Y-87631190D02*
X138942914Y-87726428D01*
X138942914Y-87726428D02*
X138990533Y-87821666D01*
X139038152Y-86393095D02*
X139704819Y-86393095D01*
X139038152Y-86821666D02*
X139561961Y-86821666D01*
X139561961Y-86821666D02*
X139657200Y-86774047D01*
X139657200Y-86774047D02*
X139704819Y-86678809D01*
X139704819Y-86678809D02*
X139704819Y-86535952D01*
X139704819Y-86535952D02*
X139657200Y-86440714D01*
X139657200Y-86440714D02*
X139609580Y-86393095D01*
X139181009Y-85583571D02*
X139181009Y-85916904D01*
X139704819Y-85916904D02*
X138704819Y-85916904D01*
X138704819Y-85916904D02*
X138704819Y-85440714D01*
D11*
X140823832Y-86721666D02*
X140842880Y-86740714D01*
X140842880Y-86740714D02*
X140861927Y-86797856D01*
X140861927Y-86797856D02*
X140861927Y-86835952D01*
X140861927Y-86835952D02*
X140842880Y-86893095D01*
X140842880Y-86893095D02*
X140804784Y-86931190D01*
X140804784Y-86931190D02*
X140766689Y-86950237D01*
X140766689Y-86950237D02*
X140690499Y-86969285D01*
X140690499Y-86969285D02*
X140633356Y-86969285D01*
X140633356Y-86969285D02*
X140557165Y-86950237D01*
X140557165Y-86950237D02*
X140519070Y-86931190D01*
X140519070Y-86931190D02*
X140480975Y-86893095D01*
X140480975Y-86893095D02*
X140461927Y-86835952D01*
X140461927Y-86835952D02*
X140461927Y-86797856D01*
X140461927Y-86797856D02*
X140480975Y-86740714D01*
X140480975Y-86740714D02*
X140500022Y-86721666D01*
X140633356Y-86493095D02*
X140614308Y-86531190D01*
X140614308Y-86531190D02*
X140595260Y-86550237D01*
X140595260Y-86550237D02*
X140557165Y-86569285D01*
X140557165Y-86569285D02*
X140538118Y-86569285D01*
X140538118Y-86569285D02*
X140500022Y-86550237D01*
X140500022Y-86550237D02*
X140480975Y-86531190D01*
X140480975Y-86531190D02*
X140461927Y-86493095D01*
X140461927Y-86493095D02*
X140461927Y-86416904D01*
X140461927Y-86416904D02*
X140480975Y-86378809D01*
X140480975Y-86378809D02*
X140500022Y-86359761D01*
X140500022Y-86359761D02*
X140538118Y-86340714D01*
X140538118Y-86340714D02*
X140557165Y-86340714D01*
X140557165Y-86340714D02*
X140595260Y-86359761D01*
X140595260Y-86359761D02*
X140614308Y-86378809D01*
X140614308Y-86378809D02*
X140633356Y-86416904D01*
X140633356Y-86416904D02*
X140633356Y-86493095D01*
X140633356Y-86493095D02*
X140652403Y-86531190D01*
X140652403Y-86531190D02*
X140671451Y-86550237D01*
X140671451Y-86550237D02*
X140709546Y-86569285D01*
X140709546Y-86569285D02*
X140785737Y-86569285D01*
X140785737Y-86569285D02*
X140823832Y-86550237D01*
X140823832Y-86550237D02*
X140842880Y-86531190D01*
X140842880Y-86531190D02*
X140861927Y-86493095D01*
X140861927Y-86493095D02*
X140861927Y-86416904D01*
X140861927Y-86416904D02*
X140842880Y-86378809D01*
X140842880Y-86378809D02*
X140823832Y-86359761D01*
X140823832Y-86359761D02*
X140785737Y-86340714D01*
X140785737Y-86340714D02*
X140709546Y-86340714D01*
X140709546Y-86340714D02*
X140671451Y-86359761D01*
X140671451Y-86359761D02*
X140652403Y-86378809D01*
X140652403Y-86378809D02*
X140633356Y-86416904D01*
D10*
X141014819Y-87260238D02*
X141014819Y-87831666D01*
X141014819Y-87545952D02*
X140014819Y-87545952D01*
X140014819Y-87545952D02*
X140157676Y-87641190D01*
X140157676Y-87641190D02*
X140252914Y-87736428D01*
X140252914Y-87736428D02*
X140300533Y-87831666D01*
X140014819Y-86641190D02*
X140014819Y-86545952D01*
X140014819Y-86545952D02*
X140062438Y-86450714D01*
X140062438Y-86450714D02*
X140110057Y-86403095D01*
X140110057Y-86403095D02*
X140205295Y-86355476D01*
X140205295Y-86355476D02*
X140395771Y-86307857D01*
X140395771Y-86307857D02*
X140633866Y-86307857D01*
X140633866Y-86307857D02*
X140824342Y-86355476D01*
X140824342Y-86355476D02*
X140919580Y-86403095D01*
X140919580Y-86403095D02*
X140967200Y-86450714D01*
X140967200Y-86450714D02*
X141014819Y-86545952D01*
X141014819Y-86545952D02*
X141014819Y-86641190D01*
X141014819Y-86641190D02*
X140967200Y-86736428D01*
X140967200Y-86736428D02*
X140919580Y-86784047D01*
X140919580Y-86784047D02*
X140824342Y-86831666D01*
X140824342Y-86831666D02*
X140633866Y-86879285D01*
X140633866Y-86879285D02*
X140395771Y-86879285D01*
X140395771Y-86879285D02*
X140205295Y-86831666D01*
X140205295Y-86831666D02*
X140110057Y-86784047D01*
X140110057Y-86784047D02*
X140062438Y-86736428D01*
X140062438Y-86736428D02*
X140014819Y-86641190D01*
X141014819Y-85879285D02*
X140014819Y-85879285D01*
X140633866Y-85784047D02*
X141014819Y-85498333D01*
X140348152Y-85498333D02*
X140729104Y-85879285D01*
D11*
X139311927Y-86922142D02*
X139121451Y-87055475D01*
X139311927Y-87150713D02*
X138911927Y-87150713D01*
X138911927Y-87150713D02*
X138911927Y-86998332D01*
X138911927Y-86998332D02*
X138930975Y-86960237D01*
X138930975Y-86960237D02*
X138950022Y-86941190D01*
X138950022Y-86941190D02*
X138988118Y-86922142D01*
X138988118Y-86922142D02*
X139045260Y-86922142D01*
X139045260Y-86922142D02*
X139083356Y-86941190D01*
X139083356Y-86941190D02*
X139102403Y-86960237D01*
X139102403Y-86960237D02*
X139121451Y-86998332D01*
X139121451Y-86998332D02*
X139121451Y-87150713D01*
X139311927Y-86541190D02*
X139311927Y-86769761D01*
X139311927Y-86655475D02*
X138911927Y-86655475D01*
X138911927Y-86655475D02*
X138969070Y-86693571D01*
X138969070Y-86693571D02*
X139007165Y-86731666D01*
X139007165Y-86731666D02*
X139026213Y-86769761D01*
X138950022Y-86388809D02*
X138930975Y-86369761D01*
X138930975Y-86369761D02*
X138911927Y-86331666D01*
X138911927Y-86331666D02*
X138911927Y-86236428D01*
X138911927Y-86236428D02*
X138930975Y-86198333D01*
X138930975Y-86198333D02*
X138950022Y-86179285D01*
X138950022Y-86179285D02*
X138988118Y-86160238D01*
X138988118Y-86160238D02*
X139026213Y-86160238D01*
X139026213Y-86160238D02*
X139083356Y-86179285D01*
X139083356Y-86179285D02*
X139311927Y-86407857D01*
X139311927Y-86407857D02*
X139311927Y-86160238D01*
D10*
X145827319Y-81295238D02*
X145827319Y-81866666D01*
X145827319Y-81580952D02*
X144827319Y-81580952D01*
X144827319Y-81580952D02*
X144970176Y-81676190D01*
X144970176Y-81676190D02*
X145065414Y-81771428D01*
X145065414Y-81771428D02*
X145113033Y-81866666D01*
X145160652Y-80438095D02*
X145827319Y-80438095D01*
X145160652Y-80866666D02*
X145684461Y-80866666D01*
X145684461Y-80866666D02*
X145779700Y-80819047D01*
X145779700Y-80819047D02*
X145827319Y-80723809D01*
X145827319Y-80723809D02*
X145827319Y-80580952D01*
X145827319Y-80580952D02*
X145779700Y-80485714D01*
X145779700Y-80485714D02*
X145732080Y-80438095D01*
X145303509Y-79628571D02*
X145303509Y-79961904D01*
X145827319Y-79961904D02*
X144827319Y-79961904D01*
X144827319Y-79961904D02*
X144827319Y-79485714D01*
D11*
X144086332Y-80766666D02*
X144105380Y-80785714D01*
X144105380Y-80785714D02*
X144124427Y-80842856D01*
X144124427Y-80842856D02*
X144124427Y-80880952D01*
X144124427Y-80880952D02*
X144105380Y-80938095D01*
X144105380Y-80938095D02*
X144067284Y-80976190D01*
X144067284Y-80976190D02*
X144029189Y-80995237D01*
X144029189Y-80995237D02*
X143952999Y-81014285D01*
X143952999Y-81014285D02*
X143895856Y-81014285D01*
X143895856Y-81014285D02*
X143819665Y-80995237D01*
X143819665Y-80995237D02*
X143781570Y-80976190D01*
X143781570Y-80976190D02*
X143743475Y-80938095D01*
X143743475Y-80938095D02*
X143724427Y-80880952D01*
X143724427Y-80880952D02*
X143724427Y-80842856D01*
X143724427Y-80842856D02*
X143743475Y-80785714D01*
X143743475Y-80785714D02*
X143762522Y-80766666D01*
X143724427Y-80633333D02*
X143724427Y-80385714D01*
X143724427Y-80385714D02*
X143876808Y-80519047D01*
X143876808Y-80519047D02*
X143876808Y-80461904D01*
X143876808Y-80461904D02*
X143895856Y-80423809D01*
X143895856Y-80423809D02*
X143914903Y-80404761D01*
X143914903Y-80404761D02*
X143952999Y-80385714D01*
X143952999Y-80385714D02*
X144048237Y-80385714D01*
X144048237Y-80385714D02*
X144086332Y-80404761D01*
X144086332Y-80404761D02*
X144105380Y-80423809D01*
X144105380Y-80423809D02*
X144124427Y-80461904D01*
X144124427Y-80461904D02*
X144124427Y-80576190D01*
X144124427Y-80576190D02*
X144105380Y-80614285D01*
X144105380Y-80614285D02*
X144086332Y-80633333D01*
D10*
X140054819Y-81317857D02*
X140054819Y-81794047D01*
X140054819Y-81794047D02*
X140531009Y-81841666D01*
X140531009Y-81841666D02*
X140483390Y-81794047D01*
X140483390Y-81794047D02*
X140435771Y-81698809D01*
X140435771Y-81698809D02*
X140435771Y-81460714D01*
X140435771Y-81460714D02*
X140483390Y-81365476D01*
X140483390Y-81365476D02*
X140531009Y-81317857D01*
X140531009Y-81317857D02*
X140626247Y-81270238D01*
X140626247Y-81270238D02*
X140864342Y-81270238D01*
X140864342Y-81270238D02*
X140959580Y-81317857D01*
X140959580Y-81317857D02*
X141007200Y-81365476D01*
X141007200Y-81365476D02*
X141054819Y-81460714D01*
X141054819Y-81460714D02*
X141054819Y-81698809D01*
X141054819Y-81698809D02*
X141007200Y-81794047D01*
X141007200Y-81794047D02*
X140959580Y-81841666D01*
X141054819Y-80841666D02*
X140054819Y-80841666D01*
X140673866Y-80746428D02*
X141054819Y-80460714D01*
X140388152Y-80460714D02*
X140769104Y-80841666D01*
X141054819Y-79508333D02*
X141054819Y-80079761D01*
X141054819Y-79794047D02*
X140054819Y-79794047D01*
X140054819Y-79794047D02*
X140197676Y-79889285D01*
X140197676Y-79889285D02*
X140292914Y-79984523D01*
X140292914Y-79984523D02*
X140340533Y-80079761D01*
D11*
X139351927Y-80741666D02*
X139161451Y-80874999D01*
X139351927Y-80970237D02*
X138951927Y-80970237D01*
X138951927Y-80970237D02*
X138951927Y-80817856D01*
X138951927Y-80817856D02*
X138970975Y-80779761D01*
X138970975Y-80779761D02*
X138990022Y-80760714D01*
X138990022Y-80760714D02*
X139028118Y-80741666D01*
X139028118Y-80741666D02*
X139085260Y-80741666D01*
X139085260Y-80741666D02*
X139123356Y-80760714D01*
X139123356Y-80760714D02*
X139142403Y-80779761D01*
X139142403Y-80779761D02*
X139161451Y-80817856D01*
X139161451Y-80817856D02*
X139161451Y-80970237D01*
X138990022Y-80589285D02*
X138970975Y-80570237D01*
X138970975Y-80570237D02*
X138951927Y-80532142D01*
X138951927Y-80532142D02*
X138951927Y-80436904D01*
X138951927Y-80436904D02*
X138970975Y-80398809D01*
X138970975Y-80398809D02*
X138990022Y-80379761D01*
X138990022Y-80379761D02*
X139028118Y-80360714D01*
X139028118Y-80360714D02*
X139066213Y-80360714D01*
X139066213Y-80360714D02*
X139123356Y-80379761D01*
X139123356Y-80379761D02*
X139351927Y-80608333D01*
X139351927Y-80608333D02*
X139351927Y-80360714D01*
D10*
X133195676Y-101101729D02*
X133330363Y-101034386D01*
X133330363Y-101034386D02*
X133498721Y-100866027D01*
X133498721Y-100866027D02*
X133532393Y-100765012D01*
X133532393Y-100765012D02*
X133532393Y-100697668D01*
X133532393Y-100697668D02*
X133498721Y-100596653D01*
X133498721Y-100596653D02*
X133431378Y-100529309D01*
X133431378Y-100529309D02*
X133330363Y-100495638D01*
X133330363Y-100495638D02*
X133263019Y-100495638D01*
X133263019Y-100495638D02*
X133162004Y-100529309D01*
X133162004Y-100529309D02*
X132993645Y-100630325D01*
X132993645Y-100630325D02*
X132892630Y-100663996D01*
X132892630Y-100663996D02*
X132825286Y-100663996D01*
X132825286Y-100663996D02*
X132724271Y-100630325D01*
X132724271Y-100630325D02*
X132656928Y-100562981D01*
X132656928Y-100562981D02*
X132623256Y-100461966D01*
X132623256Y-100461966D02*
X132623256Y-100394622D01*
X132623256Y-100394622D02*
X132656928Y-100293607D01*
X132656928Y-100293607D02*
X132825286Y-100125248D01*
X132825286Y-100125248D02*
X132959973Y-100057905D01*
X133128332Y-99822203D02*
X133532393Y-99418142D01*
X134037469Y-100327279D02*
X133330363Y-99620172D01*
X134475202Y-99889546D02*
X133768096Y-99182439D01*
X133768096Y-99182439D02*
X134508874Y-99451813D01*
X134508874Y-99451813D02*
X134239500Y-98711035D01*
X134239500Y-98711035D02*
X134946607Y-99418141D01*
X134508874Y-98441661D02*
X134946607Y-98003928D01*
X134946607Y-98003928D02*
X134980279Y-98509004D01*
X134980279Y-98509004D02*
X135081294Y-98407989D01*
X135081294Y-98407989D02*
X135182309Y-98374317D01*
X135182309Y-98374317D02*
X135249653Y-98374317D01*
X135249653Y-98374317D02*
X135350668Y-98407989D01*
X135350668Y-98407989D02*
X135519027Y-98576348D01*
X135519027Y-98576348D02*
X135552698Y-98677363D01*
X135552698Y-98677363D02*
X135552698Y-98744706D01*
X135552698Y-98744706D02*
X135519027Y-98845722D01*
X135519027Y-98845722D02*
X135316996Y-99047752D01*
X135316996Y-99047752D02*
X135215981Y-99081424D01*
X135215981Y-99081424D02*
X135148637Y-99081424D01*
X135283324Y-97801897D02*
X135283324Y-97734554D01*
X135283324Y-97734554D02*
X135316996Y-97633539D01*
X135316996Y-97633539D02*
X135485355Y-97465180D01*
X135485355Y-97465180D02*
X135586370Y-97431508D01*
X135586370Y-97431508D02*
X135653714Y-97431508D01*
X135653714Y-97431508D02*
X135754729Y-97465180D01*
X135754729Y-97465180D02*
X135822072Y-97532523D01*
X135822072Y-97532523D02*
X135889416Y-97667210D01*
X135889416Y-97667210D02*
X135889416Y-98475332D01*
X135889416Y-98475332D02*
X136327149Y-98037600D01*
X136966912Y-97397836D02*
X136630194Y-97734554D01*
X136630194Y-97734554D02*
X135923088Y-97027447D01*
X137034256Y-96387684D02*
X137505660Y-96859088D01*
X136596523Y-96286668D02*
X136933240Y-96960103D01*
X136933240Y-96960103D02*
X137370973Y-96522371D01*
X137101599Y-95848936D02*
X137539332Y-95411203D01*
X137539332Y-95411203D02*
X137573004Y-95916279D01*
X137573004Y-95916279D02*
X137674019Y-95815264D01*
X137674019Y-95815264D02*
X137775034Y-95781592D01*
X137775034Y-95781592D02*
X137842378Y-95781592D01*
X137842378Y-95781592D02*
X137943393Y-95815264D01*
X137943393Y-95815264D02*
X138111752Y-95983623D01*
X138111752Y-95983623D02*
X138145423Y-96084638D01*
X138145423Y-96084638D02*
X138145423Y-96151981D01*
X138145423Y-96151981D02*
X138111752Y-96252997D01*
X138111752Y-96252997D02*
X137909721Y-96455027D01*
X137909721Y-96455027D02*
X137808706Y-96488699D01*
X137808706Y-96488699D02*
X137741362Y-96488699D01*
X137876049Y-95209172D02*
X137876049Y-95141829D01*
X137876049Y-95141829D02*
X137909721Y-95040814D01*
X137909721Y-95040814D02*
X138078080Y-94872455D01*
X138078080Y-94872455D02*
X138179095Y-94838783D01*
X138179095Y-94838783D02*
X138246439Y-94838783D01*
X138246439Y-94838783D02*
X138347454Y-94872455D01*
X138347454Y-94872455D02*
X138414797Y-94939798D01*
X138414797Y-94939798D02*
X138482141Y-95074485D01*
X138482141Y-95074485D02*
X138482141Y-95882607D01*
X138482141Y-95882607D02*
X138919874Y-95444875D01*
X139222920Y-95141829D02*
X138515813Y-94434722D01*
X139626981Y-94737768D02*
X138919874Y-94636752D01*
X138919874Y-94030661D02*
X138919874Y-94838783D01*
X139795339Y-93828630D02*
X139930026Y-93761287D01*
X139930026Y-93761287D02*
X139997370Y-93761287D01*
X139997370Y-93761287D02*
X140098385Y-93794959D01*
X140098385Y-93794959D02*
X140199400Y-93895974D01*
X140199400Y-93895974D02*
X140233072Y-93996989D01*
X140233072Y-93996989D02*
X140233072Y-94064333D01*
X140233072Y-94064333D02*
X140199400Y-94165348D01*
X140199400Y-94165348D02*
X139930026Y-94434722D01*
X139930026Y-94434722D02*
X139222920Y-93727615D01*
X139222920Y-93727615D02*
X139458622Y-93491913D01*
X139458622Y-93491913D02*
X139559637Y-93458241D01*
X139559637Y-93458241D02*
X139626981Y-93458241D01*
X139626981Y-93458241D02*
X139727996Y-93491913D01*
X139727996Y-93491913D02*
X139795339Y-93559256D01*
X139795339Y-93559256D02*
X139829011Y-93660272D01*
X139829011Y-93660272D02*
X139829011Y-93727615D01*
X139829011Y-93727615D02*
X139795339Y-93828630D01*
X139795339Y-93828630D02*
X139559637Y-94064333D01*
X139930026Y-93020508D02*
X140502446Y-93592928D01*
X140502446Y-93592928D02*
X140603461Y-93626600D01*
X140603461Y-93626600D02*
X140670805Y-93626600D01*
X140670805Y-93626600D02*
X140771820Y-93592928D01*
X140771820Y-93592928D02*
X140906507Y-93458241D01*
X140906507Y-93458241D02*
X140940179Y-93357226D01*
X140940179Y-93357226D02*
X140940179Y-93289882D01*
X140940179Y-93289882D02*
X140906507Y-93188867D01*
X140906507Y-93188867D02*
X140334087Y-92616447D01*
X140973851Y-91976684D02*
X140839164Y-92111371D01*
X140839164Y-92111371D02*
X140805492Y-92212386D01*
X140805492Y-92212386D02*
X140805492Y-92279730D01*
X140805492Y-92279730D02*
X140839164Y-92448089D01*
X140839164Y-92448089D02*
X140940179Y-92616447D01*
X140940179Y-92616447D02*
X141209553Y-92885821D01*
X141209553Y-92885821D02*
X141310568Y-92919493D01*
X141310568Y-92919493D02*
X141377912Y-92919493D01*
X141377912Y-92919493D02*
X141478927Y-92885821D01*
X141478927Y-92885821D02*
X141613614Y-92751134D01*
X141613614Y-92751134D02*
X141647286Y-92650119D01*
X141647286Y-92650119D02*
X141647286Y-92582776D01*
X141647286Y-92582776D02*
X141613614Y-92481760D01*
X141613614Y-92481760D02*
X141445255Y-92313402D01*
X141445255Y-92313402D02*
X141344240Y-92279730D01*
X141344240Y-92279730D02*
X141276896Y-92279730D01*
X141276896Y-92279730D02*
X141175881Y-92313402D01*
X141175881Y-92313402D02*
X141041194Y-92448089D01*
X141041194Y-92448089D02*
X141007522Y-92549104D01*
X141007522Y-92549104D02*
X141007522Y-92616447D01*
X141007522Y-92616447D02*
X141041194Y-92717463D01*
X133479949Y-94029398D02*
X134052369Y-94601818D01*
X134052369Y-94601818D02*
X134153384Y-94635490D01*
X134153384Y-94635490D02*
X134220728Y-94635490D01*
X134220728Y-94635490D02*
X134321743Y-94601818D01*
X134321743Y-94601818D02*
X134456430Y-94467131D01*
X134456430Y-94467131D02*
X134490102Y-94366116D01*
X134490102Y-94366116D02*
X134490102Y-94298772D01*
X134490102Y-94298772D02*
X134456430Y-94197757D01*
X134456430Y-94197757D02*
X133884010Y-93625337D01*
X135298224Y-93625337D02*
X134894163Y-94029398D01*
X135096193Y-93827368D02*
X134389087Y-93120261D01*
X134389087Y-93120261D02*
X134422758Y-93288620D01*
X134422758Y-93288620D02*
X134422758Y-93423307D01*
X134422758Y-93423307D02*
X134389087Y-93524322D01*
X147884819Y-87531190D02*
X147884819Y-88102618D01*
X147884819Y-87816904D02*
X146884819Y-87816904D01*
X146884819Y-87816904D02*
X147027676Y-87912142D01*
X147027676Y-87912142D02*
X147122914Y-88007380D01*
X147122914Y-88007380D02*
X147170533Y-88102618D01*
X146884819Y-86674047D02*
X146884819Y-86864523D01*
X146884819Y-86864523D02*
X146932438Y-86959761D01*
X146932438Y-86959761D02*
X146980057Y-87007380D01*
X146980057Y-87007380D02*
X147122914Y-87102618D01*
X147122914Y-87102618D02*
X147313390Y-87150237D01*
X147313390Y-87150237D02*
X147694342Y-87150237D01*
X147694342Y-87150237D02*
X147789580Y-87102618D01*
X147789580Y-87102618D02*
X147837200Y-87054999D01*
X147837200Y-87054999D02*
X147884819Y-86959761D01*
X147884819Y-86959761D02*
X147884819Y-86769285D01*
X147884819Y-86769285D02*
X147837200Y-86674047D01*
X147837200Y-86674047D02*
X147789580Y-86626428D01*
X147789580Y-86626428D02*
X147694342Y-86578809D01*
X147694342Y-86578809D02*
X147456247Y-86578809D01*
X147456247Y-86578809D02*
X147361009Y-86626428D01*
X147361009Y-86626428D02*
X147313390Y-86674047D01*
X147313390Y-86674047D02*
X147265771Y-86769285D01*
X147265771Y-86769285D02*
X147265771Y-86959761D01*
X147265771Y-86959761D02*
X147313390Y-87054999D01*
X147313390Y-87054999D02*
X147361009Y-87102618D01*
X147361009Y-87102618D02*
X147456247Y-87150237D01*
X146884819Y-86293094D02*
X147884819Y-85959761D01*
X147884819Y-85959761D02*
X146884819Y-85626428D01*
X146837200Y-84578809D02*
X148122914Y-85435951D01*
X147218152Y-83816904D02*
X147884819Y-83816904D01*
X146837200Y-84054999D02*
X147551485Y-84293094D01*
X147551485Y-84293094D02*
X147551485Y-83674047D01*
X146884819Y-83388332D02*
X146884819Y-82721666D01*
X146884819Y-82721666D02*
X147884819Y-83150237D01*
X147218152Y-81912142D02*
X147884819Y-81912142D01*
X147218152Y-82340713D02*
X147741961Y-82340713D01*
X147741961Y-82340713D02*
X147837200Y-82293094D01*
X147837200Y-82293094D02*
X147884819Y-82197856D01*
X147884819Y-82197856D02*
X147884819Y-82054999D01*
X147884819Y-82054999D02*
X147837200Y-81959761D01*
X147837200Y-81959761D02*
X147789580Y-81912142D01*
X147361009Y-81102618D02*
X147361009Y-81435951D01*
X147884819Y-81435951D02*
X146884819Y-81435951D01*
X146884819Y-81435951D02*
X146884819Y-80959761D01*
D14*
X149567664Y-85069285D02*
X149605760Y-85107381D01*
X149605760Y-85107381D02*
X149643855Y-85221666D01*
X149643855Y-85221666D02*
X149643855Y-85297857D01*
X149643855Y-85297857D02*
X149605760Y-85412143D01*
X149605760Y-85412143D02*
X149529569Y-85488333D01*
X149529569Y-85488333D02*
X149453379Y-85526428D01*
X149453379Y-85526428D02*
X149300998Y-85564524D01*
X149300998Y-85564524D02*
X149186712Y-85564524D01*
X149186712Y-85564524D02*
X149034331Y-85526428D01*
X149034331Y-85526428D02*
X148958140Y-85488333D01*
X148958140Y-85488333D02*
X148881950Y-85412143D01*
X148881950Y-85412143D02*
X148843855Y-85297857D01*
X148843855Y-85297857D02*
X148843855Y-85221666D01*
X148843855Y-85221666D02*
X148881950Y-85107381D01*
X148881950Y-85107381D02*
X148920045Y-85069285D01*
X149643855Y-84307381D02*
X149643855Y-84764524D01*
X149643855Y-84535952D02*
X148843855Y-84535952D01*
X148843855Y-84535952D02*
X148958140Y-84612143D01*
X148958140Y-84612143D02*
X149034331Y-84688333D01*
X149034331Y-84688333D02*
X149072426Y-84764524D01*
X149110521Y-83621666D02*
X149643855Y-83621666D01*
X148805760Y-83812142D02*
X149377188Y-84002619D01*
X149377188Y-84002619D02*
X149377188Y-83507380D01*
D10*
X147124819Y-93200238D02*
X147124819Y-93771666D01*
X147124819Y-93485952D02*
X146124819Y-93485952D01*
X146124819Y-93485952D02*
X146267676Y-93581190D01*
X146267676Y-93581190D02*
X146362914Y-93676428D01*
X146362914Y-93676428D02*
X146410533Y-93771666D01*
X146124819Y-92581190D02*
X146124819Y-92485952D01*
X146124819Y-92485952D02*
X146172438Y-92390714D01*
X146172438Y-92390714D02*
X146220057Y-92343095D01*
X146220057Y-92343095D02*
X146315295Y-92295476D01*
X146315295Y-92295476D02*
X146505771Y-92247857D01*
X146505771Y-92247857D02*
X146743866Y-92247857D01*
X146743866Y-92247857D02*
X146934342Y-92295476D01*
X146934342Y-92295476D02*
X147029580Y-92343095D01*
X147029580Y-92343095D02*
X147077200Y-92390714D01*
X147077200Y-92390714D02*
X147124819Y-92485952D01*
X147124819Y-92485952D02*
X147124819Y-92581190D01*
X147124819Y-92581190D02*
X147077200Y-92676428D01*
X147077200Y-92676428D02*
X147029580Y-92724047D01*
X147029580Y-92724047D02*
X146934342Y-92771666D01*
X146934342Y-92771666D02*
X146743866Y-92819285D01*
X146743866Y-92819285D02*
X146505771Y-92819285D01*
X146505771Y-92819285D02*
X146315295Y-92771666D01*
X146315295Y-92771666D02*
X146220057Y-92724047D01*
X146220057Y-92724047D02*
X146172438Y-92676428D01*
X146172438Y-92676428D02*
X146124819Y-92581190D01*
X147124819Y-91819285D02*
X146124819Y-91819285D01*
X146743866Y-91724047D02*
X147124819Y-91438333D01*
X146458152Y-91438333D02*
X146839104Y-91819285D01*
D11*
X145421927Y-92671666D02*
X145231451Y-92804999D01*
X145421927Y-92900237D02*
X145021927Y-92900237D01*
X145021927Y-92900237D02*
X145021927Y-92747856D01*
X145021927Y-92747856D02*
X145040975Y-92709761D01*
X145040975Y-92709761D02*
X145060022Y-92690714D01*
X145060022Y-92690714D02*
X145098118Y-92671666D01*
X145098118Y-92671666D02*
X145155260Y-92671666D01*
X145155260Y-92671666D02*
X145193356Y-92690714D01*
X145193356Y-92690714D02*
X145212403Y-92709761D01*
X145212403Y-92709761D02*
X145231451Y-92747856D01*
X145231451Y-92747856D02*
X145231451Y-92900237D01*
X145421927Y-92481190D02*
X145421927Y-92404999D01*
X145421927Y-92404999D02*
X145402880Y-92366904D01*
X145402880Y-92366904D02*
X145383832Y-92347856D01*
X145383832Y-92347856D02*
X145326689Y-92309761D01*
X145326689Y-92309761D02*
X145250499Y-92290714D01*
X145250499Y-92290714D02*
X145098118Y-92290714D01*
X145098118Y-92290714D02*
X145060022Y-92309761D01*
X145060022Y-92309761D02*
X145040975Y-92328809D01*
X145040975Y-92328809D02*
X145021927Y-92366904D01*
X145021927Y-92366904D02*
X145021927Y-92443095D01*
X145021927Y-92443095D02*
X145040975Y-92481190D01*
X145040975Y-92481190D02*
X145060022Y-92500237D01*
X145060022Y-92500237D02*
X145098118Y-92519285D01*
X145098118Y-92519285D02*
X145193356Y-92519285D01*
X145193356Y-92519285D02*
X145231451Y-92500237D01*
X145231451Y-92500237D02*
X145250499Y-92481190D01*
X145250499Y-92481190D02*
X145269546Y-92443095D01*
X145269546Y-92443095D02*
X145269546Y-92366904D01*
X145269546Y-92366904D02*
X145250499Y-92328809D01*
X145250499Y-92328809D02*
X145231451Y-92309761D01*
X145231451Y-92309761D02*
X145193356Y-92290714D01*
D10*
X135811904Y-97139580D02*
X135764285Y-97187200D01*
X135764285Y-97187200D02*
X135621428Y-97234819D01*
X135621428Y-97234819D02*
X135526190Y-97234819D01*
X135526190Y-97234819D02*
X135383333Y-97187200D01*
X135383333Y-97187200D02*
X135288095Y-97091961D01*
X135288095Y-97091961D02*
X135240476Y-96996723D01*
X135240476Y-96996723D02*
X135192857Y-96806247D01*
X135192857Y-96806247D02*
X135192857Y-96663390D01*
X135192857Y-96663390D02*
X135240476Y-96472914D01*
X135240476Y-96472914D02*
X135288095Y-96377676D01*
X135288095Y-96377676D02*
X135383333Y-96282438D01*
X135383333Y-96282438D02*
X135526190Y-96234819D01*
X135526190Y-96234819D02*
X135621428Y-96234819D01*
X135621428Y-96234819D02*
X135764285Y-96282438D01*
X135764285Y-96282438D02*
X135811904Y-96330057D01*
X136383333Y-97234819D02*
X136288095Y-97187200D01*
X136288095Y-97187200D02*
X136240476Y-97139580D01*
X136240476Y-97139580D02*
X136192857Y-97044342D01*
X136192857Y-97044342D02*
X136192857Y-96758628D01*
X136192857Y-96758628D02*
X136240476Y-96663390D01*
X136240476Y-96663390D02*
X136288095Y-96615771D01*
X136288095Y-96615771D02*
X136383333Y-96568152D01*
X136383333Y-96568152D02*
X136526190Y-96568152D01*
X136526190Y-96568152D02*
X136621428Y-96615771D01*
X136621428Y-96615771D02*
X136669047Y-96663390D01*
X136669047Y-96663390D02*
X136716666Y-96758628D01*
X136716666Y-96758628D02*
X136716666Y-97044342D01*
X136716666Y-97044342D02*
X136669047Y-97139580D01*
X136669047Y-97139580D02*
X136621428Y-97187200D01*
X136621428Y-97187200D02*
X136526190Y-97234819D01*
X136526190Y-97234819D02*
X136383333Y-97234819D01*
X137145238Y-96568152D02*
X137145238Y-97234819D01*
X137145238Y-96663390D02*
X137192857Y-96615771D01*
X137192857Y-96615771D02*
X137288095Y-96568152D01*
X137288095Y-96568152D02*
X137430952Y-96568152D01*
X137430952Y-96568152D02*
X137526190Y-96615771D01*
X137526190Y-96615771D02*
X137573809Y-96711009D01*
X137573809Y-96711009D02*
X137573809Y-97234819D01*
X138050000Y-96568152D02*
X138050000Y-97234819D01*
X138050000Y-96663390D02*
X138097619Y-96615771D01*
X138097619Y-96615771D02*
X138192857Y-96568152D01*
X138192857Y-96568152D02*
X138335714Y-96568152D01*
X138335714Y-96568152D02*
X138430952Y-96615771D01*
X138430952Y-96615771D02*
X138478571Y-96711009D01*
X138478571Y-96711009D02*
X138478571Y-97234819D01*
X138716667Y-97330057D02*
X139478571Y-97330057D01*
X139907143Y-96234819D02*
X140002381Y-96234819D01*
X140002381Y-96234819D02*
X140097619Y-96282438D01*
X140097619Y-96282438D02*
X140145238Y-96330057D01*
X140145238Y-96330057D02*
X140192857Y-96425295D01*
X140192857Y-96425295D02*
X140240476Y-96615771D01*
X140240476Y-96615771D02*
X140240476Y-96853866D01*
X140240476Y-96853866D02*
X140192857Y-97044342D01*
X140192857Y-97044342D02*
X140145238Y-97139580D01*
X140145238Y-97139580D02*
X140097619Y-97187200D01*
X140097619Y-97187200D02*
X140002381Y-97234819D01*
X140002381Y-97234819D02*
X139907143Y-97234819D01*
X139907143Y-97234819D02*
X139811905Y-97187200D01*
X139811905Y-97187200D02*
X139764286Y-97139580D01*
X139764286Y-97139580D02*
X139716667Y-97044342D01*
X139716667Y-97044342D02*
X139669048Y-96853866D01*
X139669048Y-96853866D02*
X139669048Y-96615771D01*
X139669048Y-96615771D02*
X139716667Y-96425295D01*
X139716667Y-96425295D02*
X139764286Y-96330057D01*
X139764286Y-96330057D02*
X139811905Y-96282438D01*
X139811905Y-96282438D02*
X139907143Y-96234819D01*
X141192857Y-97234819D02*
X140621429Y-97234819D01*
X140907143Y-97234819D02*
X140907143Y-96234819D01*
X140907143Y-96234819D02*
X140811905Y-96377676D01*
X140811905Y-96377676D02*
X140716667Y-96472914D01*
X140716667Y-96472914D02*
X140621429Y-96520533D01*
X141526191Y-97234819D02*
X142050000Y-96568152D01*
X141526191Y-96568152D02*
X142050000Y-97234819D01*
X142621429Y-96234819D02*
X142716667Y-96234819D01*
X142716667Y-96234819D02*
X142811905Y-96282438D01*
X142811905Y-96282438D02*
X142859524Y-96330057D01*
X142859524Y-96330057D02*
X142907143Y-96425295D01*
X142907143Y-96425295D02*
X142954762Y-96615771D01*
X142954762Y-96615771D02*
X142954762Y-96853866D01*
X142954762Y-96853866D02*
X142907143Y-97044342D01*
X142907143Y-97044342D02*
X142859524Y-97139580D01*
X142859524Y-97139580D02*
X142811905Y-97187200D01*
X142811905Y-97187200D02*
X142716667Y-97234819D01*
X142716667Y-97234819D02*
X142621429Y-97234819D01*
X142621429Y-97234819D02*
X142526191Y-97187200D01*
X142526191Y-97187200D02*
X142478572Y-97139580D01*
X142478572Y-97139580D02*
X142430953Y-97044342D01*
X142430953Y-97044342D02*
X142383334Y-96853866D01*
X142383334Y-96853866D02*
X142383334Y-96615771D01*
X142383334Y-96615771D02*
X142430953Y-96425295D01*
X142430953Y-96425295D02*
X142478572Y-96330057D01*
X142478572Y-96330057D02*
X142526191Y-96282438D01*
X142526191Y-96282438D02*
X142621429Y-96234819D01*
X143335715Y-96330057D02*
X143383334Y-96282438D01*
X143383334Y-96282438D02*
X143478572Y-96234819D01*
X143478572Y-96234819D02*
X143716667Y-96234819D01*
X143716667Y-96234819D02*
X143811905Y-96282438D01*
X143811905Y-96282438D02*
X143859524Y-96330057D01*
X143859524Y-96330057D02*
X143907143Y-96425295D01*
X143907143Y-96425295D02*
X143907143Y-96520533D01*
X143907143Y-96520533D02*
X143859524Y-96663390D01*
X143859524Y-96663390D02*
X143288096Y-97234819D01*
X143288096Y-97234819D02*
X143907143Y-97234819D01*
D15*
X139135662Y-94923333D02*
X139678519Y-94923333D01*
X139678519Y-94923333D02*
X139787091Y-94959524D01*
X139787091Y-94959524D02*
X139859472Y-95031905D01*
X139859472Y-95031905D02*
X139895662Y-95140476D01*
X139895662Y-95140476D02*
X139895662Y-95212857D01*
X139135662Y-94633809D02*
X139135662Y-94163333D01*
X139135662Y-94163333D02*
X139425186Y-94416666D01*
X139425186Y-94416666D02*
X139425186Y-94308095D01*
X139425186Y-94308095D02*
X139461376Y-94235714D01*
X139461376Y-94235714D02*
X139497567Y-94199523D01*
X139497567Y-94199523D02*
X139569948Y-94163333D01*
X139569948Y-94163333D02*
X139750900Y-94163333D01*
X139750900Y-94163333D02*
X139823281Y-94199523D01*
X139823281Y-94199523D02*
X139859472Y-94235714D01*
X139859472Y-94235714D02*
X139895662Y-94308095D01*
X139895662Y-94308095D02*
X139895662Y-94525238D01*
X139895662Y-94525238D02*
X139859472Y-94597619D01*
X139859472Y-94597619D02*
X139823281Y-94633809D01*
D10*
X145644819Y-93200238D02*
X145644819Y-93771666D01*
X145644819Y-93485952D02*
X144644819Y-93485952D01*
X144644819Y-93485952D02*
X144787676Y-93581190D01*
X144787676Y-93581190D02*
X144882914Y-93676428D01*
X144882914Y-93676428D02*
X144930533Y-93771666D01*
X144978152Y-92343095D02*
X145644819Y-92343095D01*
X144978152Y-92771666D02*
X145501961Y-92771666D01*
X145501961Y-92771666D02*
X145597200Y-92724047D01*
X145597200Y-92724047D02*
X145644819Y-92628809D01*
X145644819Y-92628809D02*
X145644819Y-92485952D01*
X145644819Y-92485952D02*
X145597200Y-92390714D01*
X145597200Y-92390714D02*
X145549580Y-92343095D01*
X145121009Y-91533571D02*
X145121009Y-91866904D01*
X145644819Y-91866904D02*
X144644819Y-91866904D01*
X144644819Y-91866904D02*
X144644819Y-91390714D01*
D11*
X143903832Y-92671666D02*
X143922880Y-92690714D01*
X143922880Y-92690714D02*
X143941927Y-92747856D01*
X143941927Y-92747856D02*
X143941927Y-92785952D01*
X143941927Y-92785952D02*
X143922880Y-92843095D01*
X143922880Y-92843095D02*
X143884784Y-92881190D01*
X143884784Y-92881190D02*
X143846689Y-92900237D01*
X143846689Y-92900237D02*
X143770499Y-92919285D01*
X143770499Y-92919285D02*
X143713356Y-92919285D01*
X143713356Y-92919285D02*
X143637165Y-92900237D01*
X143637165Y-92900237D02*
X143599070Y-92881190D01*
X143599070Y-92881190D02*
X143560975Y-92843095D01*
X143560975Y-92843095D02*
X143541927Y-92785952D01*
X143541927Y-92785952D02*
X143541927Y-92747856D01*
X143541927Y-92747856D02*
X143560975Y-92690714D01*
X143560975Y-92690714D02*
X143580022Y-92671666D01*
X143541927Y-92538333D02*
X143541927Y-92271666D01*
X143541927Y-92271666D02*
X143941927Y-92443095D01*
D16*
G04 #@! TO.C,J5*
X150340000Y-96710000D02*
X152880000Y-96710000D01*
X150340000Y-106870000D02*
X150340000Y-96710000D01*
X152245000Y-106870000D02*
X150340000Y-106870000D01*
X152880000Y-96710000D02*
X152880000Y-106235000D01*
X152880000Y-106235000D02*
X152245000Y-106870000D01*
G04 #@! TO.C,U6*
X130910000Y-101487500D02*
X134910000Y-101487500D01*
X130910000Y-105887500D02*
X130910000Y-101487500D01*
X134910000Y-101487500D02*
X135910000Y-102487500D01*
X135910000Y-102487500D02*
X135910000Y-105887500D01*
X135910000Y-105887500D02*
X130910000Y-105887500D01*
G04 #@! TO.C,C13*
X136865000Y-101570000D02*
X138465000Y-101570000D01*
X136865000Y-102370000D02*
X136865000Y-101570000D01*
X138465000Y-101570000D02*
X138465000Y-102370000D01*
X138465000Y-102370000D02*
X136865000Y-102370000D01*
G04 #@! TO.C,R13*
X142715000Y-105657500D02*
X144315000Y-105657500D01*
X142715000Y-106482500D02*
X142715000Y-105657500D01*
X144315000Y-105657500D02*
X144315000Y-106482500D01*
X144315000Y-106482500D02*
X142715000Y-106482500D01*
G04 #@! TO.C,J1*
X142350000Y-78100000D02*
X133410000Y-78100000D01*
X133410000Y-70750000D01*
X142350000Y-70750000D01*
X142350000Y-78100000D01*
G04 #@! TO.C,D2*
X145770000Y-80140000D02*
X147170000Y-80140000D01*
X145770000Y-81940000D02*
X145770000Y-80140000D01*
X146120000Y-80840000D02*
X146820000Y-80840000D01*
X146120000Y-81340000D02*
X146820000Y-81340000D01*
X146470000Y-80840000D02*
X146470000Y-80590000D01*
X146470000Y-81340000D02*
X146120000Y-80840000D01*
X146470000Y-81340000D02*
X146470000Y-81540000D01*
X146820000Y-80840000D02*
X146470000Y-81340000D01*
X147170000Y-80140000D02*
X147170000Y-81940000D01*
X147170000Y-81940000D02*
X145770000Y-81940000D01*
G04 #@! TO.C,R6*
X146317500Y-91805000D02*
X147142500Y-91805000D01*
X146317500Y-93405000D02*
X146317500Y-91805000D01*
X147142500Y-91805000D02*
X147142500Y-93405000D01*
X147142500Y-93405000D02*
X146317500Y-93405000D01*
G04 #@! TO.C,U5*
X143595000Y-96945000D02*
X148495000Y-96945000D01*
X143595000Y-99870000D02*
X143595000Y-96945000D01*
X144570000Y-100845000D02*
X143595000Y-99870000D01*
X148495000Y-96945000D02*
X148495000Y-100845000D01*
X148495000Y-100845000D02*
X144570000Y-100845000D01*
G04 #@! TO.C,C15*
X131762500Y-86800000D02*
X133362500Y-86800000D01*
X131762500Y-87600000D02*
X131762500Y-86800000D01*
X133362500Y-86800000D02*
X133362500Y-87600000D01*
X133362500Y-87600000D02*
X131762500Y-87600000D01*
D17*
G04 #@! TO.C,U2*
X134125000Y-83057600D02*
X134125000Y-83057600D01*
X134125000Y-83057600D02*
X134125000Y-84607600D01*
X134125000Y-83682600D02*
X134125000Y-83682600D01*
X134125000Y-83682600D02*
X134125000Y-83982600D01*
X134125000Y-83982600D02*
X134125000Y-83682600D01*
X134125000Y-83982600D02*
X134125000Y-83982600D01*
X134125000Y-84607600D02*
X134125000Y-84607600D01*
X134125000Y-84607600D02*
X136175000Y-84607600D01*
X134250000Y-83057600D02*
X134250000Y-83057600D01*
X134250000Y-83057600D02*
X134550000Y-83057600D01*
X134250000Y-84607600D02*
X134250000Y-84607600D01*
X134250000Y-84607600D02*
X134550000Y-84607600D01*
X134550000Y-83057600D02*
X134250000Y-83057600D01*
X134550000Y-83057600D02*
X134550000Y-83057600D01*
X134550000Y-84607600D02*
X134250000Y-84607600D01*
X134550000Y-84607600D02*
X134550000Y-84607600D01*
X134750000Y-83057600D02*
X134750000Y-83057600D01*
X134750000Y-83057600D02*
X135050000Y-83057600D01*
X134750000Y-84607600D02*
X134750000Y-84607600D01*
X134750000Y-84607600D02*
X135050000Y-84607600D01*
X135050000Y-83057600D02*
X134750000Y-83057600D01*
X135050000Y-83057600D02*
X135050000Y-83057600D01*
X135050000Y-84607600D02*
X134750000Y-84607600D01*
X135050000Y-84607600D02*
X135050000Y-84607600D01*
X135250000Y-83057600D02*
X135250000Y-83057600D01*
X135250000Y-83057600D02*
X135550000Y-83057600D01*
X135250000Y-84607600D02*
X135250000Y-84607600D01*
X135250000Y-84607600D02*
X135550000Y-84607600D01*
X135395000Y-84607600D02*
X134125000Y-83337600D01*
X135550000Y-83057600D02*
X135250000Y-83057600D01*
X135550000Y-83057600D02*
X135550000Y-83057600D01*
X135550000Y-84607600D02*
X135250000Y-84607600D01*
X135550000Y-84607600D02*
X135550000Y-84607600D01*
X135750000Y-83057600D02*
X135750000Y-83057600D01*
X135750000Y-83057600D02*
X136050000Y-83057600D01*
X135750000Y-84607600D02*
X135750000Y-84607600D01*
X135750000Y-84607600D02*
X136050000Y-84607600D01*
X136050000Y-83057600D02*
X135750000Y-83057600D01*
X136050000Y-83057600D02*
X136050000Y-83057600D01*
X136050000Y-84607600D02*
X135750000Y-84607600D01*
X136050000Y-84607600D02*
X136050000Y-84607600D01*
X136175000Y-83057600D02*
X134125000Y-83057600D01*
X136175000Y-83057600D02*
X136175000Y-83057600D01*
X136175000Y-83682600D02*
X136175000Y-83682600D01*
X136175000Y-83682600D02*
X136175000Y-83982600D01*
X136175000Y-83982600D02*
X136175000Y-83682600D01*
X136175000Y-83982600D02*
X136175000Y-83982600D01*
X136175000Y-84607600D02*
X136175000Y-83057600D01*
X136175000Y-84607600D02*
X136175000Y-84607600D01*
D16*
G04 #@! TO.C,D3*
X131690000Y-88090000D02*
X133490000Y-88090000D01*
X131690000Y-89490000D02*
X131690000Y-88090000D01*
X132290000Y-88440000D02*
X132290000Y-89140000D01*
X132290000Y-88790000D02*
X132090000Y-88790000D01*
X132290000Y-88790000D02*
X132790000Y-88440000D01*
X132790000Y-88440000D02*
X132790000Y-89140000D01*
X132790000Y-88790000D02*
X133040000Y-88790000D01*
X132790000Y-89140000D02*
X132290000Y-88790000D01*
X133490000Y-88090000D02*
X133490000Y-89490000D01*
X133490000Y-89490000D02*
X131690000Y-89490000D01*
G04 #@! TO.C,C10*
X146540000Y-76915000D02*
X147340000Y-76915000D01*
X146540000Y-78515000D02*
X146540000Y-76915000D01*
X147340000Y-76915000D02*
X147340000Y-78515000D01*
X147340000Y-78515000D02*
X146540000Y-78515000D01*
G04 #@! TO.C,U3*
X145557500Y-85025000D02*
X145557500Y-83675000D01*
X147257500Y-83675000D02*
X145557500Y-83675000D01*
X147757500Y-84175000D02*
X147257500Y-83675000D01*
X147757500Y-85025000D02*
X145557500Y-85025000D01*
X147757500Y-85025000D02*
X147757500Y-84175000D01*
G04 #@! TO.C,R11*
X145715000Y-105677500D02*
X147315000Y-105677500D01*
X145715000Y-106502500D02*
X145715000Y-105677500D01*
X147315000Y-105677500D02*
X147315000Y-106502500D01*
X147315000Y-106502500D02*
X145715000Y-106502500D01*
G04 #@! TO.C,C6*
X147850000Y-91795000D02*
X148650000Y-91795000D01*
X147850000Y-93395000D02*
X147850000Y-91795000D01*
X148650000Y-91795000D02*
X148650000Y-93395000D01*
X148650000Y-93395000D02*
X147850000Y-93395000D01*
G04 #@! TO.C,C12*
X131030000Y-97140000D02*
X131830000Y-97140000D01*
X131030000Y-98740000D02*
X131030000Y-97140000D01*
X131830000Y-97140000D02*
X131830000Y-98740000D01*
X131830000Y-98740000D02*
X131030000Y-98740000D01*
G04 #@! TO.C,R1*
X143557500Y-76915000D02*
X144382500Y-76915000D01*
X143557500Y-78515000D02*
X143557500Y-76915000D01*
X144382500Y-76915000D02*
X144382500Y-78515000D01*
X144382500Y-78515000D02*
X143557500Y-78515000D01*
G04 #@! TO.C,R3*
X133255000Y-79577500D02*
X134855000Y-79577500D01*
X133255000Y-80402500D02*
X133255000Y-79577500D01*
X134855000Y-79577500D02*
X134855000Y-80402500D01*
X134855000Y-80402500D02*
X133255000Y-80402500D01*
G04 #@! TO.C,R15*
X139507500Y-96935000D02*
X140332500Y-96935000D01*
X139507500Y-98535000D02*
X139507500Y-96935000D01*
X140332500Y-96935000D02*
X140332500Y-98535000D01*
X140332500Y-98535000D02*
X139507500Y-98535000D01*
G04 #@! TO.C,R5*
X129767500Y-88345000D02*
X130592500Y-88345000D01*
X129767500Y-89945000D02*
X129767500Y-88345000D01*
X130592500Y-88345000D02*
X130592500Y-89945000D01*
X130592500Y-89945000D02*
X129767500Y-89945000D01*
G04 #@! TO.C,C11*
X129120000Y-92835000D02*
X129920000Y-92835000D01*
X129120000Y-94435000D02*
X129120000Y-92835000D01*
X129920000Y-92835000D02*
X129920000Y-94435000D01*
X129920000Y-94435000D02*
X129120000Y-94435000D01*
G04 #@! TO.C,R14*
X145037500Y-76910000D02*
X145862500Y-76910000D01*
X145037500Y-78510000D02*
X145037500Y-76910000D01*
X145862500Y-76910000D02*
X145862500Y-78510000D01*
X145862500Y-78510000D02*
X145037500Y-78510000D01*
G04 #@! TO.C,C5*
X138880000Y-92000000D02*
X140480000Y-92000000D01*
X138880000Y-92800000D02*
X138880000Y-92000000D01*
X140480000Y-92000000D02*
X140480000Y-92800000D01*
X140480000Y-92800000D02*
X138880000Y-92800000D01*
G04 #@! TO.C,C18*
X141830000Y-94795000D02*
X142630000Y-94795000D01*
X141830000Y-96395000D02*
X141830000Y-94795000D01*
X142630000Y-94795000D02*
X142630000Y-96395000D01*
X142630000Y-96395000D02*
X141830000Y-96395000D01*
G04 #@! TO.C,R16*
X131772500Y-85257500D02*
X133372500Y-85257500D01*
X131772500Y-86082500D02*
X131772500Y-85257500D01*
X133372500Y-85257500D02*
X133372500Y-86082500D01*
X133372500Y-86082500D02*
X131772500Y-86082500D01*
G04 #@! TO.C,R8*
X149347500Y-91805000D02*
X150172500Y-91805000D01*
X149347500Y-93405000D02*
X149347500Y-91805000D01*
X150172500Y-91805000D02*
X150172500Y-93405000D01*
X150172500Y-93405000D02*
X149347500Y-93405000D01*
G04 #@! TO.C,R18*
X132117500Y-81635000D02*
X132942500Y-81635000D01*
X132117500Y-83235000D02*
X132117500Y-81635000D01*
X132942500Y-81635000D02*
X132942500Y-83235000D01*
X132942500Y-83235000D02*
X132117500Y-83235000D01*
G04 #@! TO.C,R4*
X148365000Y-78517500D02*
X149965000Y-78517500D01*
X148365000Y-79342500D02*
X148365000Y-78517500D01*
X149965000Y-78517500D02*
X149965000Y-79342500D01*
X149965000Y-79342500D02*
X148365000Y-79342500D01*
G04 #@! TO.C,R10*
X138737500Y-82845000D02*
X139562500Y-82845000D01*
X138737500Y-84445000D02*
X138737500Y-82845000D01*
X139562500Y-82845000D02*
X139562500Y-84445000D01*
X139562500Y-84445000D02*
X138737500Y-84445000D01*
G04 #@! TO.C,U4*
X129365000Y-77212500D02*
X132265000Y-77212500D01*
X129365000Y-78412500D02*
X129365000Y-77212500D01*
X129765000Y-78812500D02*
X129365000Y-78412500D01*
X132265000Y-77212500D02*
X132265000Y-78812500D01*
X132265000Y-78812500D02*
X129765000Y-78812500D01*
G04 #@! TO.C,C2*
X129100000Y-95795000D02*
X129900000Y-95795000D01*
X129100000Y-97395000D02*
X129100000Y-95795000D01*
X129900000Y-95795000D02*
X129900000Y-97395000D01*
X129900000Y-97395000D02*
X129100000Y-97395000D01*
G04 #@! TO.C,C17*
X139520000Y-102935000D02*
X140320000Y-102935000D01*
X139520000Y-104535000D02*
X139520000Y-102935000D01*
X140320000Y-102935000D02*
X140320000Y-104535000D01*
X140320000Y-104535000D02*
X139520000Y-104535000D01*
G04 #@! TO.C,C16*
X130040000Y-74760000D02*
X131640000Y-74760000D01*
X130040000Y-75560000D02*
X130040000Y-74760000D01*
X131640000Y-74760000D02*
X131640000Y-75560000D01*
X131640000Y-75560000D02*
X130040000Y-75560000D01*
G04 #@! TO.C,R17*
X139507500Y-99955000D02*
X140332500Y-99955000D01*
X139507500Y-101555000D02*
X139507500Y-99955000D01*
X140332500Y-99955000D02*
X140332500Y-101555000D01*
X140332500Y-101555000D02*
X139507500Y-101555000D01*
G04 #@! TO.C,D1*
X148615000Y-76910000D02*
X148615000Y-77810000D01*
X148615000Y-77810000D02*
X150615000Y-77810000D01*
X148915000Y-76610000D02*
X148615000Y-76910000D01*
X150615000Y-76610000D02*
X148915000Y-76610000D01*
X150615000Y-77810000D02*
X150615000Y-76610000D01*
G04 #@! TO.C,C9*
X139725000Y-105670000D02*
X141325000Y-105670000D01*
X139725000Y-106470000D02*
X139725000Y-105670000D01*
X141325000Y-105670000D02*
X141325000Y-106470000D01*
X141325000Y-106470000D02*
X139725000Y-106470000D01*
G04 #@! TO.C,R7*
X149367500Y-94775000D02*
X150192500Y-94775000D01*
X149367500Y-96375000D02*
X149367500Y-94775000D01*
X150192500Y-94775000D02*
X150192500Y-96375000D01*
X150192500Y-96375000D02*
X149367500Y-96375000D01*
G04 #@! TO.C,C4*
X148155000Y-81100000D02*
X149755000Y-81100000D01*
X148155000Y-81900000D02*
X148155000Y-81100000D01*
X149755000Y-81100000D02*
X149755000Y-81900000D01*
X149755000Y-81900000D02*
X148155000Y-81900000D01*
G04 #@! TO.C,C1*
X143290000Y-82930000D02*
X144890000Y-82930000D01*
X143290000Y-86130000D02*
X143290000Y-82930000D01*
X144890000Y-82930000D02*
X144890000Y-86130000D01*
X144890000Y-86130000D02*
X143290000Y-86130000D01*
G04 #@! TO.C,C8*
X140280000Y-85855000D02*
X141080000Y-85855000D01*
X140280000Y-87455000D02*
X140280000Y-85855000D01*
X141080000Y-85855000D02*
X141080000Y-87455000D01*
X141080000Y-87455000D02*
X140280000Y-87455000D01*
G04 #@! TO.C,R12*
X138717500Y-85865000D02*
X139542500Y-85865000D01*
X138717500Y-87465000D02*
X138717500Y-85865000D01*
X139542500Y-85865000D02*
X139542500Y-87465000D01*
X139542500Y-87465000D02*
X138717500Y-87465000D01*
G04 #@! TO.C,C3*
X143542500Y-79900000D02*
X144342500Y-79900000D01*
X143542500Y-81500000D02*
X143542500Y-79900000D01*
X144342500Y-79900000D02*
X144342500Y-81500000D01*
X144342500Y-81500000D02*
X143542500Y-81500000D01*
G04 #@! TO.C,R2*
X138757500Y-79875000D02*
X139582500Y-79875000D01*
X138757500Y-81475000D02*
X138757500Y-79875000D01*
X139582500Y-79875000D02*
X139582500Y-81475000D01*
X139582500Y-81475000D02*
X138757500Y-81475000D01*
G04 #@! TO.C,U1*
X137994534Y-93846100D02*
X134459000Y-97381634D01*
X131630573Y-94553207D01*
X131630573Y-93138993D01*
X134459000Y-90310566D01*
X137994534Y-93846100D01*
G04 #@! TO.C,C14*
X148480000Y-82955000D02*
X150080000Y-82955000D01*
X148480000Y-86155000D02*
X148480000Y-82955000D01*
X150080000Y-82955000D02*
X150080000Y-86155000D01*
X150080000Y-86155000D02*
X148480000Y-86155000D01*
G04 #@! TO.C,R9*
X144827500Y-91805000D02*
X145652500Y-91805000D01*
X144827500Y-93405000D02*
X144827500Y-91805000D01*
X145652500Y-91805000D02*
X145652500Y-93405000D01*
X145652500Y-93405000D02*
X144827500Y-93405000D01*
G04 #@! TO.C,J3*
X138915000Y-93987500D02*
X139232500Y-93670000D01*
X138915000Y-95670000D02*
X138915000Y-93987500D01*
X139232500Y-93670000D02*
X140185000Y-93670000D01*
X140185000Y-93670000D02*
X140185000Y-95670000D01*
X140185000Y-95670000D02*
X138915000Y-95670000D01*
G04 #@! TO.C,C7*
X143360000Y-91805000D02*
X144160000Y-91805000D01*
X143360000Y-93405000D02*
X143360000Y-91805000D01*
X144160000Y-91805000D02*
X144160000Y-93405000D01*
X144160000Y-93405000D02*
X143360000Y-93405000D01*
G04 #@! TD*
M02*
