G04 #@! TF.GenerationSoftware,KiCad,Pcbnew,9.0.2*
G04 #@! TF.CreationDate,2025-12-31T10:57:56+01:00*
G04 #@! TF.ProjectId,synthmate_L432,73796e74-686d-4617-9465-5f4c3433322e,rev?*
G04 #@! TF.SameCoordinates,Original*
G04 #@! TF.FileFunction,Legend,Top*
G04 #@! TF.FilePolarity,Positive*
%FSLAX46Y46*%
G04 Gerber Fmt 4.6, Leading zero omitted, Abs format (unit mm)*
G04 Created by KiCad (PCBNEW 9.0.2) date 2025-12-31 10:57:56*
%MOMM*%
%LPD*%
G01*
G04 APERTURE LIST*
G04 Aperture macros list*
%AMRoundRect*
0 Rectangle with rounded corners*
0 $1 Rounding radius*
0 $2 $3 $4 $5 $6 $7 $8 $9 X,Y pos of 4 corners*
0 Add a 4 corners polygon primitive as box body*
4,1,4,$2,$3,$4,$5,$6,$7,$8,$9,$2,$3,0*
0 Add four circle primitives for the rounded corners*
1,1,$1+$1,$2,$3*
1,1,$1+$1,$4,$5*
1,1,$1+$1,$6,$7*
1,1,$1+$1,$8,$9*
0 Add four rect primitives between the rounded corners*
20,1,$1+$1,$2,$3,$4,$5,0*
20,1,$1+$1,$4,$5,$6,$7,0*
20,1,$1+$1,$6,$7,$8,$9,0*
20,1,$1+$1,$8,$9,$2,$3,0*%
%AMRotRect*
0 Rectangle, with rotation*
0 The origin of the aperture is its center*
0 $1 length*
0 $2 width*
0 $3 Rotation angle, in degrees counterclockwise*
0 Add horizontal line*
21,1,$1,$2,0,0,$3*%
G04 Aperture macros list end*
%ADD10C,0.150000*%
%ADD11C,0.120000*%
%ADD12C,0.000000*%
%ADD13R,1.700000X1.700000*%
%ADD14C,1.700000*%
%ADD15RoundRect,0.100000X-0.100000X0.637500X-0.100000X-0.637500X0.100000X-0.637500X0.100000X0.637500X0*%
%ADD16RoundRect,0.225000X-0.225000X-0.250000X0.225000X-0.250000X0.225000X0.250000X-0.225000X0.250000X0*%
%ADD17RoundRect,0.200000X0.200000X0.275000X-0.200000X0.275000X-0.200000X-0.275000X0.200000X-0.275000X0*%
%ADD18C,0.650000*%
%ADD19RoundRect,0.150000X0.150000X0.425000X-0.150000X0.425000X-0.150000X-0.425000X0.150000X-0.425000X0*%
%ADD20RoundRect,0.075000X0.075000X0.500000X-0.075000X0.500000X-0.075000X-0.500000X0.075000X-0.500000X0*%
%ADD21O,1.000000X2.100000*%
%ADD22O,1.000000X1.800000*%
%ADD23RoundRect,0.112500X0.112500X-0.187500X0.112500X0.187500X-0.112500X0.187500X-0.112500X-0.187500X0*%
%ADD24RoundRect,0.200000X-0.275000X0.200000X-0.275000X-0.200000X0.275000X-0.200000X0.275000X0.200000X0*%
%ADD25RoundRect,0.150000X0.150000X-0.825000X0.150000X0.825000X-0.150000X0.825000X-0.150000X-0.825000X0*%
%ADD26RoundRect,0.225000X0.225000X0.250000X-0.225000X0.250000X-0.225000X-0.250000X0.225000X-0.250000X0*%
%ADD27R,0.300000X0.704800*%
%ADD28R,0.249936X0.704850*%
%ADD29R,0.754888X0.350012*%
%ADD30RoundRect,0.112500X-0.187500X-0.112500X0.187500X-0.112500X0.187500X0.112500X-0.187500X0.112500X0*%
%ADD31RoundRect,0.225000X0.250000X-0.225000X0.250000X0.225000X-0.250000X0.225000X-0.250000X-0.225000X0*%
%ADD32RoundRect,0.100000X-0.100000X0.225000X-0.100000X-0.225000X0.100000X-0.225000X0.100000X0.225000X0*%
%ADD33RoundRect,0.225000X-0.250000X0.225000X-0.250000X-0.225000X0.250000X-0.225000X0.250000X0.225000X0*%
%ADD34RoundRect,0.200000X-0.200000X-0.275000X0.200000X-0.275000X0.200000X0.275000X-0.200000X0.275000X0*%
%ADD35RoundRect,0.200000X0.275000X-0.200000X0.275000X0.200000X-0.275000X0.200000X-0.275000X-0.200000X0*%
%ADD36RoundRect,0.150000X0.150000X-0.512500X0.150000X0.512500X-0.150000X0.512500X-0.150000X-0.512500X0*%
%ADD37RoundRect,0.250000X-0.325000X-0.450000X0.325000X-0.450000X0.325000X0.450000X-0.325000X0.450000X0*%
%ADD38RoundRect,0.250000X-0.650000X0.325000X-0.650000X-0.325000X0.650000X-0.325000X0.650000X0.325000X0*%
%ADD39RoundRect,0.062500X-0.220971X-0.309359X0.309359X0.220971X0.220971X0.309359X-0.309359X-0.220971X0*%
%ADD40RoundRect,0.062500X0.220971X-0.309359X0.309359X-0.220971X-0.220971X0.309359X-0.309359X0.220971X0*%
%ADD41RotRect,3.450000X3.450000X45.000000*%
%ADD42R,0.850000X0.850000*%
%ADD43C,0.850000*%
%ADD44C,1.000000*%
%ADD45C,1.524000*%
%ADD46R,2.000000X2.000000*%
%ADD47C,2.000000*%
%ADD48R,2.000000X3.200000*%
G04 APERTURE END LIST*
D10*
X151276666Y-107434819D02*
X151276666Y-108149104D01*
X151276666Y-108149104D02*
X151229047Y-108291961D01*
X151229047Y-108291961D02*
X151133809Y-108387200D01*
X151133809Y-108387200D02*
X150990952Y-108434819D01*
X150990952Y-108434819D02*
X150895714Y-108434819D01*
X152229047Y-107434819D02*
X151752857Y-107434819D01*
X151752857Y-107434819D02*
X151705238Y-107911009D01*
X151705238Y-107911009D02*
X151752857Y-107863390D01*
X151752857Y-107863390D02*
X151848095Y-107815771D01*
X151848095Y-107815771D02*
X152086190Y-107815771D01*
X152086190Y-107815771D02*
X152181428Y-107863390D01*
X152181428Y-107863390D02*
X152229047Y-107911009D01*
X152229047Y-107911009D02*
X152276666Y-108006247D01*
X152276666Y-108006247D02*
X152276666Y-108244342D01*
X152276666Y-108244342D02*
X152229047Y-108339580D01*
X152229047Y-108339580D02*
X152181428Y-108387200D01*
X152181428Y-108387200D02*
X152086190Y-108434819D01*
X152086190Y-108434819D02*
X151848095Y-108434819D01*
X151848095Y-108434819D02*
X151752857Y-108387200D01*
X151752857Y-108387200D02*
X151705238Y-108339580D01*
X136314819Y-104449404D02*
X137124342Y-104449404D01*
X137124342Y-104449404D02*
X137219580Y-104401785D01*
X137219580Y-104401785D02*
X137267200Y-104354166D01*
X137267200Y-104354166D02*
X137314819Y-104258928D01*
X137314819Y-104258928D02*
X137314819Y-104068452D01*
X137314819Y-104068452D02*
X137267200Y-103973214D01*
X137267200Y-103973214D02*
X137219580Y-103925595D01*
X137219580Y-103925595D02*
X137124342Y-103877976D01*
X137124342Y-103877976D02*
X136314819Y-103877976D01*
X136314819Y-102973214D02*
X136314819Y-103163690D01*
X136314819Y-103163690D02*
X136362438Y-103258928D01*
X136362438Y-103258928D02*
X136410057Y-103306547D01*
X136410057Y-103306547D02*
X136552914Y-103401785D01*
X136552914Y-103401785D02*
X136743390Y-103449404D01*
X136743390Y-103449404D02*
X137124342Y-103449404D01*
X137124342Y-103449404D02*
X137219580Y-103401785D01*
X137219580Y-103401785D02*
X137267200Y-103354166D01*
X137267200Y-103354166D02*
X137314819Y-103258928D01*
X137314819Y-103258928D02*
X137314819Y-103068452D01*
X137314819Y-103068452D02*
X137267200Y-102973214D01*
X137267200Y-102973214D02*
X137219580Y-102925595D01*
X137219580Y-102925595D02*
X137124342Y-102877976D01*
X137124342Y-102877976D02*
X136886247Y-102877976D01*
X136886247Y-102877976D02*
X136791009Y-102925595D01*
X136791009Y-102925595D02*
X136743390Y-102973214D01*
X136743390Y-102973214D02*
X136695771Y-103068452D01*
X136695771Y-103068452D02*
X136695771Y-103258928D01*
X136695771Y-103258928D02*
X136743390Y-103354166D01*
X136743390Y-103354166D02*
X136791009Y-103401785D01*
X136791009Y-103401785D02*
X136886247Y-103449404D01*
X137022142Y-100899580D02*
X136974523Y-100947200D01*
X136974523Y-100947200D02*
X136831666Y-100994819D01*
X136831666Y-100994819D02*
X136736428Y-100994819D01*
X136736428Y-100994819D02*
X136593571Y-100947200D01*
X136593571Y-100947200D02*
X136498333Y-100851961D01*
X136498333Y-100851961D02*
X136450714Y-100756723D01*
X136450714Y-100756723D02*
X136403095Y-100566247D01*
X136403095Y-100566247D02*
X136403095Y-100423390D01*
X136403095Y-100423390D02*
X136450714Y-100232914D01*
X136450714Y-100232914D02*
X136498333Y-100137676D01*
X136498333Y-100137676D02*
X136593571Y-100042438D01*
X136593571Y-100042438D02*
X136736428Y-99994819D01*
X136736428Y-99994819D02*
X136831666Y-99994819D01*
X136831666Y-99994819D02*
X136974523Y-100042438D01*
X136974523Y-100042438D02*
X137022142Y-100090057D01*
X137974523Y-100994819D02*
X137403095Y-100994819D01*
X137688809Y-100994819D02*
X137688809Y-99994819D01*
X137688809Y-99994819D02*
X137593571Y-100137676D01*
X137593571Y-100137676D02*
X137498333Y-100232914D01*
X137498333Y-100232914D02*
X137403095Y-100280533D01*
X138307857Y-99994819D02*
X138926904Y-99994819D01*
X138926904Y-99994819D02*
X138593571Y-100375771D01*
X138593571Y-100375771D02*
X138736428Y-100375771D01*
X138736428Y-100375771D02*
X138831666Y-100423390D01*
X138831666Y-100423390D02*
X138879285Y-100471009D01*
X138879285Y-100471009D02*
X138926904Y-100566247D01*
X138926904Y-100566247D02*
X138926904Y-100804342D01*
X138926904Y-100804342D02*
X138879285Y-100899580D01*
X138879285Y-100899580D02*
X138831666Y-100947200D01*
X138831666Y-100947200D02*
X138736428Y-100994819D01*
X138736428Y-100994819D02*
X138450714Y-100994819D01*
X138450714Y-100994819D02*
X138355476Y-100947200D01*
X138355476Y-100947200D02*
X138307857Y-100899580D01*
X142872142Y-107954819D02*
X142538809Y-107478628D01*
X142300714Y-107954819D02*
X142300714Y-106954819D01*
X142300714Y-106954819D02*
X142681666Y-106954819D01*
X142681666Y-106954819D02*
X142776904Y-107002438D01*
X142776904Y-107002438D02*
X142824523Y-107050057D01*
X142824523Y-107050057D02*
X142872142Y-107145295D01*
X142872142Y-107145295D02*
X142872142Y-107288152D01*
X142872142Y-107288152D02*
X142824523Y-107383390D01*
X142824523Y-107383390D02*
X142776904Y-107431009D01*
X142776904Y-107431009D02*
X142681666Y-107478628D01*
X142681666Y-107478628D02*
X142300714Y-107478628D01*
X143824523Y-107954819D02*
X143253095Y-107954819D01*
X143538809Y-107954819D02*
X143538809Y-106954819D01*
X143538809Y-106954819D02*
X143443571Y-107097676D01*
X143443571Y-107097676D02*
X143348333Y-107192914D01*
X143348333Y-107192914D02*
X143253095Y-107240533D01*
X144157857Y-106954819D02*
X144776904Y-106954819D01*
X144776904Y-106954819D02*
X144443571Y-107335771D01*
X144443571Y-107335771D02*
X144586428Y-107335771D01*
X144586428Y-107335771D02*
X144681666Y-107383390D01*
X144681666Y-107383390D02*
X144729285Y-107431009D01*
X144729285Y-107431009D02*
X144776904Y-107526247D01*
X144776904Y-107526247D02*
X144776904Y-107764342D01*
X144776904Y-107764342D02*
X144729285Y-107859580D01*
X144729285Y-107859580D02*
X144681666Y-107907200D01*
X144681666Y-107907200D02*
X144586428Y-107954819D01*
X144586428Y-107954819D02*
X144300714Y-107954819D01*
X144300714Y-107954819D02*
X144205476Y-107907200D01*
X144205476Y-107907200D02*
X144157857Y-107859580D01*
X138073333Y-74225180D02*
X138073333Y-73510895D01*
X138073333Y-73510895D02*
X138120952Y-73368038D01*
X138120952Y-73368038D02*
X138216190Y-73272800D01*
X138216190Y-73272800D02*
X138359047Y-73225180D01*
X138359047Y-73225180D02*
X138454285Y-73225180D01*
X137073333Y-73225180D02*
X137644761Y-73225180D01*
X137359047Y-73225180D02*
X137359047Y-74225180D01*
X137359047Y-74225180D02*
X137454285Y-74082323D01*
X137454285Y-74082323D02*
X137549523Y-73987085D01*
X137549523Y-73987085D02*
X137644761Y-73939466D01*
X145074819Y-81778094D02*
X144074819Y-81778094D01*
X144074819Y-81778094D02*
X144074819Y-81539999D01*
X144074819Y-81539999D02*
X144122438Y-81397142D01*
X144122438Y-81397142D02*
X144217676Y-81301904D01*
X144217676Y-81301904D02*
X144312914Y-81254285D01*
X144312914Y-81254285D02*
X144503390Y-81206666D01*
X144503390Y-81206666D02*
X144646247Y-81206666D01*
X144646247Y-81206666D02*
X144836723Y-81254285D01*
X144836723Y-81254285D02*
X144931961Y-81301904D01*
X144931961Y-81301904D02*
X145027200Y-81397142D01*
X145027200Y-81397142D02*
X145074819Y-81539999D01*
X145074819Y-81539999D02*
X145074819Y-81778094D01*
X144170057Y-80825713D02*
X144122438Y-80778094D01*
X144122438Y-80778094D02*
X144074819Y-80682856D01*
X144074819Y-80682856D02*
X144074819Y-80444761D01*
X144074819Y-80444761D02*
X144122438Y-80349523D01*
X144122438Y-80349523D02*
X144170057Y-80301904D01*
X144170057Y-80301904D02*
X144265295Y-80254285D01*
X144265295Y-80254285D02*
X144360533Y-80254285D01*
X144360533Y-80254285D02*
X144503390Y-80301904D01*
X144503390Y-80301904D02*
X145074819Y-80873332D01*
X145074819Y-80873332D02*
X145074819Y-80254285D01*
X148614819Y-92771666D02*
X148138628Y-93104999D01*
X148614819Y-93343094D02*
X147614819Y-93343094D01*
X147614819Y-93343094D02*
X147614819Y-92962142D01*
X147614819Y-92962142D02*
X147662438Y-92866904D01*
X147662438Y-92866904D02*
X147710057Y-92819285D01*
X147710057Y-92819285D02*
X147805295Y-92771666D01*
X147805295Y-92771666D02*
X147948152Y-92771666D01*
X147948152Y-92771666D02*
X148043390Y-92819285D01*
X148043390Y-92819285D02*
X148091009Y-92866904D01*
X148091009Y-92866904D02*
X148138628Y-92962142D01*
X148138628Y-92962142D02*
X148138628Y-93343094D01*
X147614819Y-91914523D02*
X147614819Y-92104999D01*
X147614819Y-92104999D02*
X147662438Y-92200237D01*
X147662438Y-92200237D02*
X147710057Y-92247856D01*
X147710057Y-92247856D02*
X147852914Y-92343094D01*
X147852914Y-92343094D02*
X148043390Y-92390713D01*
X148043390Y-92390713D02*
X148424342Y-92390713D01*
X148424342Y-92390713D02*
X148519580Y-92343094D01*
X148519580Y-92343094D02*
X148567200Y-92295475D01*
X148567200Y-92295475D02*
X148614819Y-92200237D01*
X148614819Y-92200237D02*
X148614819Y-92009761D01*
X148614819Y-92009761D02*
X148567200Y-91914523D01*
X148567200Y-91914523D02*
X148519580Y-91866904D01*
X148519580Y-91866904D02*
X148424342Y-91819285D01*
X148424342Y-91819285D02*
X148186247Y-91819285D01*
X148186247Y-91819285D02*
X148091009Y-91866904D01*
X148091009Y-91866904D02*
X148043390Y-91914523D01*
X148043390Y-91914523D02*
X147995771Y-92009761D01*
X147995771Y-92009761D02*
X147995771Y-92200237D01*
X147995771Y-92200237D02*
X148043390Y-92295475D01*
X148043390Y-92295475D02*
X148091009Y-92343094D01*
X148091009Y-92343094D02*
X148186247Y-92390713D01*
X142099819Y-99656904D02*
X142909342Y-99656904D01*
X142909342Y-99656904D02*
X143004580Y-99609285D01*
X143004580Y-99609285D02*
X143052200Y-99561666D01*
X143052200Y-99561666D02*
X143099819Y-99466428D01*
X143099819Y-99466428D02*
X143099819Y-99275952D01*
X143099819Y-99275952D02*
X143052200Y-99180714D01*
X143052200Y-99180714D02*
X143004580Y-99133095D01*
X143004580Y-99133095D02*
X142909342Y-99085476D01*
X142909342Y-99085476D02*
X142099819Y-99085476D01*
X142099819Y-98133095D02*
X142099819Y-98609285D01*
X142099819Y-98609285D02*
X142576009Y-98656904D01*
X142576009Y-98656904D02*
X142528390Y-98609285D01*
X142528390Y-98609285D02*
X142480771Y-98514047D01*
X142480771Y-98514047D02*
X142480771Y-98275952D01*
X142480771Y-98275952D02*
X142528390Y-98180714D01*
X142528390Y-98180714D02*
X142576009Y-98133095D01*
X142576009Y-98133095D02*
X142671247Y-98085476D01*
X142671247Y-98085476D02*
X142909342Y-98085476D01*
X142909342Y-98085476D02*
X143004580Y-98133095D01*
X143004580Y-98133095D02*
X143052200Y-98180714D01*
X143052200Y-98180714D02*
X143099819Y-98275952D01*
X143099819Y-98275952D02*
X143099819Y-98514047D01*
X143099819Y-98514047D02*
X143052200Y-98609285D01*
X143052200Y-98609285D02*
X143004580Y-98656904D01*
X131919642Y-88989580D02*
X131872023Y-89037200D01*
X131872023Y-89037200D02*
X131729166Y-89084819D01*
X131729166Y-89084819D02*
X131633928Y-89084819D01*
X131633928Y-89084819D02*
X131491071Y-89037200D01*
X131491071Y-89037200D02*
X131395833Y-88941961D01*
X131395833Y-88941961D02*
X131348214Y-88846723D01*
X131348214Y-88846723D02*
X131300595Y-88656247D01*
X131300595Y-88656247D02*
X131300595Y-88513390D01*
X131300595Y-88513390D02*
X131348214Y-88322914D01*
X131348214Y-88322914D02*
X131395833Y-88227676D01*
X131395833Y-88227676D02*
X131491071Y-88132438D01*
X131491071Y-88132438D02*
X131633928Y-88084819D01*
X131633928Y-88084819D02*
X131729166Y-88084819D01*
X131729166Y-88084819D02*
X131872023Y-88132438D01*
X131872023Y-88132438D02*
X131919642Y-88180057D01*
X132872023Y-89084819D02*
X132300595Y-89084819D01*
X132586309Y-89084819D02*
X132586309Y-88084819D01*
X132586309Y-88084819D02*
X132491071Y-88227676D01*
X132491071Y-88227676D02*
X132395833Y-88322914D01*
X132395833Y-88322914D02*
X132300595Y-88370533D01*
X133776785Y-88084819D02*
X133300595Y-88084819D01*
X133300595Y-88084819D02*
X133252976Y-88561009D01*
X133252976Y-88561009D02*
X133300595Y-88513390D01*
X133300595Y-88513390D02*
X133395833Y-88465771D01*
X133395833Y-88465771D02*
X133633928Y-88465771D01*
X133633928Y-88465771D02*
X133729166Y-88513390D01*
X133729166Y-88513390D02*
X133776785Y-88561009D01*
X133776785Y-88561009D02*
X133824404Y-88656247D01*
X133824404Y-88656247D02*
X133824404Y-88894342D01*
X133824404Y-88894342D02*
X133776785Y-88989580D01*
X133776785Y-88989580D02*
X133729166Y-89037200D01*
X133729166Y-89037200D02*
X133633928Y-89084819D01*
X133633928Y-89084819D02*
X133395833Y-89084819D01*
X133395833Y-89084819D02*
X133300595Y-89037200D01*
X133300595Y-89037200D02*
X133252976Y-88989580D01*
X134604819Y-84594504D02*
X135414342Y-84594504D01*
X135414342Y-84594504D02*
X135509580Y-84546885D01*
X135509580Y-84546885D02*
X135557200Y-84499266D01*
X135557200Y-84499266D02*
X135604819Y-84404028D01*
X135604819Y-84404028D02*
X135604819Y-84213552D01*
X135604819Y-84213552D02*
X135557200Y-84118314D01*
X135557200Y-84118314D02*
X135509580Y-84070695D01*
X135509580Y-84070695D02*
X135414342Y-84023076D01*
X135414342Y-84023076D02*
X134604819Y-84023076D01*
X134700057Y-83594504D02*
X134652438Y-83546885D01*
X134652438Y-83546885D02*
X134604819Y-83451647D01*
X134604819Y-83451647D02*
X134604819Y-83213552D01*
X134604819Y-83213552D02*
X134652438Y-83118314D01*
X134652438Y-83118314D02*
X134700057Y-83070695D01*
X134700057Y-83070695D02*
X134795295Y-83023076D01*
X134795295Y-83023076D02*
X134890533Y-83023076D01*
X134890533Y-83023076D02*
X135033390Y-83070695D01*
X135033390Y-83070695D02*
X135604819Y-83642123D01*
X135604819Y-83642123D02*
X135604819Y-83023076D01*
X131851905Y-87394819D02*
X131851905Y-86394819D01*
X131851905Y-86394819D02*
X132090000Y-86394819D01*
X132090000Y-86394819D02*
X132232857Y-86442438D01*
X132232857Y-86442438D02*
X132328095Y-86537676D01*
X132328095Y-86537676D02*
X132375714Y-86632914D01*
X132375714Y-86632914D02*
X132423333Y-86823390D01*
X132423333Y-86823390D02*
X132423333Y-86966247D01*
X132423333Y-86966247D02*
X132375714Y-87156723D01*
X132375714Y-87156723D02*
X132328095Y-87251961D01*
X132328095Y-87251961D02*
X132232857Y-87347200D01*
X132232857Y-87347200D02*
X132090000Y-87394819D01*
X132090000Y-87394819D02*
X131851905Y-87394819D01*
X132756667Y-86394819D02*
X133375714Y-86394819D01*
X133375714Y-86394819D02*
X133042381Y-86775771D01*
X133042381Y-86775771D02*
X133185238Y-86775771D01*
X133185238Y-86775771D02*
X133280476Y-86823390D01*
X133280476Y-86823390D02*
X133328095Y-86871009D01*
X133328095Y-86871009D02*
X133375714Y-86966247D01*
X133375714Y-86966247D02*
X133375714Y-87204342D01*
X133375714Y-87204342D02*
X133328095Y-87299580D01*
X133328095Y-87299580D02*
X133280476Y-87347200D01*
X133280476Y-87347200D02*
X133185238Y-87394819D01*
X133185238Y-87394819D02*
X132899524Y-87394819D01*
X132899524Y-87394819D02*
X132804286Y-87347200D01*
X132804286Y-87347200D02*
X132756667Y-87299580D01*
X145869580Y-78357857D02*
X145917200Y-78405476D01*
X145917200Y-78405476D02*
X145964819Y-78548333D01*
X145964819Y-78548333D02*
X145964819Y-78643571D01*
X145964819Y-78643571D02*
X145917200Y-78786428D01*
X145917200Y-78786428D02*
X145821961Y-78881666D01*
X145821961Y-78881666D02*
X145726723Y-78929285D01*
X145726723Y-78929285D02*
X145536247Y-78976904D01*
X145536247Y-78976904D02*
X145393390Y-78976904D01*
X145393390Y-78976904D02*
X145202914Y-78929285D01*
X145202914Y-78929285D02*
X145107676Y-78881666D01*
X145107676Y-78881666D02*
X145012438Y-78786428D01*
X145012438Y-78786428D02*
X144964819Y-78643571D01*
X144964819Y-78643571D02*
X144964819Y-78548333D01*
X144964819Y-78548333D02*
X145012438Y-78405476D01*
X145012438Y-78405476D02*
X145060057Y-78357857D01*
X145964819Y-77405476D02*
X145964819Y-77976904D01*
X145964819Y-77691190D02*
X144964819Y-77691190D01*
X144964819Y-77691190D02*
X145107676Y-77786428D01*
X145107676Y-77786428D02*
X145202914Y-77881666D01*
X145202914Y-77881666D02*
X145250533Y-77976904D01*
X144964819Y-76786428D02*
X144964819Y-76691190D01*
X144964819Y-76691190D02*
X145012438Y-76595952D01*
X145012438Y-76595952D02*
X145060057Y-76548333D01*
X145060057Y-76548333D02*
X145155295Y-76500714D01*
X145155295Y-76500714D02*
X145345771Y-76453095D01*
X145345771Y-76453095D02*
X145583866Y-76453095D01*
X145583866Y-76453095D02*
X145774342Y-76500714D01*
X145774342Y-76500714D02*
X145869580Y-76548333D01*
X145869580Y-76548333D02*
X145917200Y-76595952D01*
X145917200Y-76595952D02*
X145964819Y-76691190D01*
X145964819Y-76691190D02*
X145964819Y-76786428D01*
X145964819Y-76786428D02*
X145917200Y-76881666D01*
X145917200Y-76881666D02*
X145869580Y-76929285D01*
X145869580Y-76929285D02*
X145774342Y-76976904D01*
X145774342Y-76976904D02*
X145583866Y-77024523D01*
X145583866Y-77024523D02*
X145345771Y-77024523D01*
X145345771Y-77024523D02*
X145155295Y-76976904D01*
X145155295Y-76976904D02*
X145060057Y-76929285D01*
X145060057Y-76929285D02*
X145012438Y-76881666D01*
X145012438Y-76881666D02*
X144964819Y-76786428D01*
X143879819Y-84811904D02*
X144689342Y-84811904D01*
X144689342Y-84811904D02*
X144784580Y-84764285D01*
X144784580Y-84764285D02*
X144832200Y-84716666D01*
X144832200Y-84716666D02*
X144879819Y-84621428D01*
X144879819Y-84621428D02*
X144879819Y-84430952D01*
X144879819Y-84430952D02*
X144832200Y-84335714D01*
X144832200Y-84335714D02*
X144784580Y-84288095D01*
X144784580Y-84288095D02*
X144689342Y-84240476D01*
X144689342Y-84240476D02*
X143879819Y-84240476D01*
X143879819Y-83859523D02*
X143879819Y-83240476D01*
X143879819Y-83240476D02*
X144260771Y-83573809D01*
X144260771Y-83573809D02*
X144260771Y-83430952D01*
X144260771Y-83430952D02*
X144308390Y-83335714D01*
X144308390Y-83335714D02*
X144356009Y-83288095D01*
X144356009Y-83288095D02*
X144451247Y-83240476D01*
X144451247Y-83240476D02*
X144689342Y-83240476D01*
X144689342Y-83240476D02*
X144784580Y-83288095D01*
X144784580Y-83288095D02*
X144832200Y-83335714D01*
X144832200Y-83335714D02*
X144879819Y-83430952D01*
X144879819Y-83430952D02*
X144879819Y-83716666D01*
X144879819Y-83716666D02*
X144832200Y-83811904D01*
X144832200Y-83811904D02*
X144784580Y-83859523D01*
X145872142Y-107974819D02*
X145538809Y-107498628D01*
X145300714Y-107974819D02*
X145300714Y-106974819D01*
X145300714Y-106974819D02*
X145681666Y-106974819D01*
X145681666Y-106974819D02*
X145776904Y-107022438D01*
X145776904Y-107022438D02*
X145824523Y-107070057D01*
X145824523Y-107070057D02*
X145872142Y-107165295D01*
X145872142Y-107165295D02*
X145872142Y-107308152D01*
X145872142Y-107308152D02*
X145824523Y-107403390D01*
X145824523Y-107403390D02*
X145776904Y-107451009D01*
X145776904Y-107451009D02*
X145681666Y-107498628D01*
X145681666Y-107498628D02*
X145300714Y-107498628D01*
X146824523Y-107974819D02*
X146253095Y-107974819D01*
X146538809Y-107974819D02*
X146538809Y-106974819D01*
X146538809Y-106974819D02*
X146443571Y-107117676D01*
X146443571Y-107117676D02*
X146348333Y-107212914D01*
X146348333Y-107212914D02*
X146253095Y-107260533D01*
X147776904Y-107974819D02*
X147205476Y-107974819D01*
X147491190Y-107974819D02*
X147491190Y-106974819D01*
X147491190Y-106974819D02*
X147395952Y-107117676D01*
X147395952Y-107117676D02*
X147300714Y-107212914D01*
X147300714Y-107212914D02*
X147205476Y-107260533D01*
X149723333Y-91959580D02*
X149675714Y-92007200D01*
X149675714Y-92007200D02*
X149532857Y-92054819D01*
X149532857Y-92054819D02*
X149437619Y-92054819D01*
X149437619Y-92054819D02*
X149294762Y-92007200D01*
X149294762Y-92007200D02*
X149199524Y-91911961D01*
X149199524Y-91911961D02*
X149151905Y-91816723D01*
X149151905Y-91816723D02*
X149104286Y-91626247D01*
X149104286Y-91626247D02*
X149104286Y-91483390D01*
X149104286Y-91483390D02*
X149151905Y-91292914D01*
X149151905Y-91292914D02*
X149199524Y-91197676D01*
X149199524Y-91197676D02*
X149294762Y-91102438D01*
X149294762Y-91102438D02*
X149437619Y-91054819D01*
X149437619Y-91054819D02*
X149532857Y-91054819D01*
X149532857Y-91054819D02*
X149675714Y-91102438D01*
X149675714Y-91102438D02*
X149723333Y-91150057D01*
X150580476Y-91054819D02*
X150390000Y-91054819D01*
X150390000Y-91054819D02*
X150294762Y-91102438D01*
X150294762Y-91102438D02*
X150247143Y-91150057D01*
X150247143Y-91150057D02*
X150151905Y-91292914D01*
X150151905Y-91292914D02*
X150104286Y-91483390D01*
X150104286Y-91483390D02*
X150104286Y-91864342D01*
X150104286Y-91864342D02*
X150151905Y-91959580D01*
X150151905Y-91959580D02*
X150199524Y-92007200D01*
X150199524Y-92007200D02*
X150294762Y-92054819D01*
X150294762Y-92054819D02*
X150485238Y-92054819D01*
X150485238Y-92054819D02*
X150580476Y-92007200D01*
X150580476Y-92007200D02*
X150628095Y-91959580D01*
X150628095Y-91959580D02*
X150675714Y-91864342D01*
X150675714Y-91864342D02*
X150675714Y-91626247D01*
X150675714Y-91626247D02*
X150628095Y-91531009D01*
X150628095Y-91531009D02*
X150580476Y-91483390D01*
X150580476Y-91483390D02*
X150485238Y-91435771D01*
X150485238Y-91435771D02*
X150294762Y-91435771D01*
X150294762Y-91435771D02*
X150199524Y-91483390D01*
X150199524Y-91483390D02*
X150151905Y-91531009D01*
X150151905Y-91531009D02*
X150104286Y-91626247D01*
X133219580Y-98582857D02*
X133267200Y-98630476D01*
X133267200Y-98630476D02*
X133314819Y-98773333D01*
X133314819Y-98773333D02*
X133314819Y-98868571D01*
X133314819Y-98868571D02*
X133267200Y-99011428D01*
X133267200Y-99011428D02*
X133171961Y-99106666D01*
X133171961Y-99106666D02*
X133076723Y-99154285D01*
X133076723Y-99154285D02*
X132886247Y-99201904D01*
X132886247Y-99201904D02*
X132743390Y-99201904D01*
X132743390Y-99201904D02*
X132552914Y-99154285D01*
X132552914Y-99154285D02*
X132457676Y-99106666D01*
X132457676Y-99106666D02*
X132362438Y-99011428D01*
X132362438Y-99011428D02*
X132314819Y-98868571D01*
X132314819Y-98868571D02*
X132314819Y-98773333D01*
X132314819Y-98773333D02*
X132362438Y-98630476D01*
X132362438Y-98630476D02*
X132410057Y-98582857D01*
X133314819Y-97630476D02*
X133314819Y-98201904D01*
X133314819Y-97916190D02*
X132314819Y-97916190D01*
X132314819Y-97916190D02*
X132457676Y-98011428D01*
X132457676Y-98011428D02*
X132552914Y-98106666D01*
X132552914Y-98106666D02*
X132600533Y-98201904D01*
X132410057Y-97249523D02*
X132362438Y-97201904D01*
X132362438Y-97201904D02*
X132314819Y-97106666D01*
X132314819Y-97106666D02*
X132314819Y-96868571D01*
X132314819Y-96868571D02*
X132362438Y-96773333D01*
X132362438Y-96773333D02*
X132410057Y-96725714D01*
X132410057Y-96725714D02*
X132505295Y-96678095D01*
X132505295Y-96678095D02*
X132600533Y-96678095D01*
X132600533Y-96678095D02*
X132743390Y-96725714D01*
X132743390Y-96725714D02*
X133314819Y-97297142D01*
X133314819Y-97297142D02*
X133314819Y-96678095D01*
X145854819Y-77881666D02*
X145378628Y-78214999D01*
X145854819Y-78453094D02*
X144854819Y-78453094D01*
X144854819Y-78453094D02*
X144854819Y-78072142D01*
X144854819Y-78072142D02*
X144902438Y-77976904D01*
X144902438Y-77976904D02*
X144950057Y-77929285D01*
X144950057Y-77929285D02*
X145045295Y-77881666D01*
X145045295Y-77881666D02*
X145188152Y-77881666D01*
X145188152Y-77881666D02*
X145283390Y-77929285D01*
X145283390Y-77929285D02*
X145331009Y-77976904D01*
X145331009Y-77976904D02*
X145378628Y-78072142D01*
X145378628Y-78072142D02*
X145378628Y-78453094D01*
X145854819Y-76929285D02*
X145854819Y-77500713D01*
X145854819Y-77214999D02*
X144854819Y-77214999D01*
X144854819Y-77214999D02*
X144997676Y-77310237D01*
X144997676Y-77310237D02*
X145092914Y-77405475D01*
X145092914Y-77405475D02*
X145140533Y-77500713D01*
X133888333Y-79014819D02*
X133555000Y-78538628D01*
X133316905Y-79014819D02*
X133316905Y-78014819D01*
X133316905Y-78014819D02*
X133697857Y-78014819D01*
X133697857Y-78014819D02*
X133793095Y-78062438D01*
X133793095Y-78062438D02*
X133840714Y-78110057D01*
X133840714Y-78110057D02*
X133888333Y-78205295D01*
X133888333Y-78205295D02*
X133888333Y-78348152D01*
X133888333Y-78348152D02*
X133840714Y-78443390D01*
X133840714Y-78443390D02*
X133793095Y-78491009D01*
X133793095Y-78491009D02*
X133697857Y-78538628D01*
X133697857Y-78538628D02*
X133316905Y-78538628D01*
X134221667Y-78014819D02*
X134840714Y-78014819D01*
X134840714Y-78014819D02*
X134507381Y-78395771D01*
X134507381Y-78395771D02*
X134650238Y-78395771D01*
X134650238Y-78395771D02*
X134745476Y-78443390D01*
X134745476Y-78443390D02*
X134793095Y-78491009D01*
X134793095Y-78491009D02*
X134840714Y-78586247D01*
X134840714Y-78586247D02*
X134840714Y-78824342D01*
X134840714Y-78824342D02*
X134793095Y-78919580D01*
X134793095Y-78919580D02*
X134745476Y-78967200D01*
X134745476Y-78967200D02*
X134650238Y-79014819D01*
X134650238Y-79014819D02*
X134364524Y-79014819D01*
X134364524Y-79014819D02*
X134269286Y-78967200D01*
X134269286Y-78967200D02*
X134221667Y-78919580D01*
X138944819Y-98377857D02*
X138468628Y-98711190D01*
X138944819Y-98949285D02*
X137944819Y-98949285D01*
X137944819Y-98949285D02*
X137944819Y-98568333D01*
X137944819Y-98568333D02*
X137992438Y-98473095D01*
X137992438Y-98473095D02*
X138040057Y-98425476D01*
X138040057Y-98425476D02*
X138135295Y-98377857D01*
X138135295Y-98377857D02*
X138278152Y-98377857D01*
X138278152Y-98377857D02*
X138373390Y-98425476D01*
X138373390Y-98425476D02*
X138421009Y-98473095D01*
X138421009Y-98473095D02*
X138468628Y-98568333D01*
X138468628Y-98568333D02*
X138468628Y-98949285D01*
X138944819Y-97425476D02*
X138944819Y-97996904D01*
X138944819Y-97711190D02*
X137944819Y-97711190D01*
X137944819Y-97711190D02*
X138087676Y-97806428D01*
X138087676Y-97806428D02*
X138182914Y-97901666D01*
X138182914Y-97901666D02*
X138230533Y-97996904D01*
X137944819Y-96520714D02*
X137944819Y-96996904D01*
X137944819Y-96996904D02*
X138421009Y-97044523D01*
X138421009Y-97044523D02*
X138373390Y-96996904D01*
X138373390Y-96996904D02*
X138325771Y-96901666D01*
X138325771Y-96901666D02*
X138325771Y-96663571D01*
X138325771Y-96663571D02*
X138373390Y-96568333D01*
X138373390Y-96568333D02*
X138421009Y-96520714D01*
X138421009Y-96520714D02*
X138516247Y-96473095D01*
X138516247Y-96473095D02*
X138754342Y-96473095D01*
X138754342Y-96473095D02*
X138849580Y-96520714D01*
X138849580Y-96520714D02*
X138897200Y-96568333D01*
X138897200Y-96568333D02*
X138944819Y-96663571D01*
X138944819Y-96663571D02*
X138944819Y-96901666D01*
X138944819Y-96901666D02*
X138897200Y-96996904D01*
X138897200Y-96996904D02*
X138849580Y-97044523D01*
X129204819Y-89311666D02*
X128728628Y-89644999D01*
X129204819Y-89883094D02*
X128204819Y-89883094D01*
X128204819Y-89883094D02*
X128204819Y-89502142D01*
X128204819Y-89502142D02*
X128252438Y-89406904D01*
X128252438Y-89406904D02*
X128300057Y-89359285D01*
X128300057Y-89359285D02*
X128395295Y-89311666D01*
X128395295Y-89311666D02*
X128538152Y-89311666D01*
X128538152Y-89311666D02*
X128633390Y-89359285D01*
X128633390Y-89359285D02*
X128681009Y-89406904D01*
X128681009Y-89406904D02*
X128728628Y-89502142D01*
X128728628Y-89502142D02*
X128728628Y-89883094D01*
X128204819Y-88406904D02*
X128204819Y-88883094D01*
X128204819Y-88883094D02*
X128681009Y-88930713D01*
X128681009Y-88930713D02*
X128633390Y-88883094D01*
X128633390Y-88883094D02*
X128585771Y-88787856D01*
X128585771Y-88787856D02*
X128585771Y-88549761D01*
X128585771Y-88549761D02*
X128633390Y-88454523D01*
X128633390Y-88454523D02*
X128681009Y-88406904D01*
X128681009Y-88406904D02*
X128776247Y-88359285D01*
X128776247Y-88359285D02*
X129014342Y-88359285D01*
X129014342Y-88359285D02*
X129109580Y-88406904D01*
X129109580Y-88406904D02*
X129157200Y-88454523D01*
X129157200Y-88454523D02*
X129204819Y-88549761D01*
X129204819Y-88549761D02*
X129204819Y-88787856D01*
X129204819Y-88787856D02*
X129157200Y-88883094D01*
X129157200Y-88883094D02*
X129109580Y-88930713D01*
X128449580Y-94277857D02*
X128497200Y-94325476D01*
X128497200Y-94325476D02*
X128544819Y-94468333D01*
X128544819Y-94468333D02*
X128544819Y-94563571D01*
X128544819Y-94563571D02*
X128497200Y-94706428D01*
X128497200Y-94706428D02*
X128401961Y-94801666D01*
X128401961Y-94801666D02*
X128306723Y-94849285D01*
X128306723Y-94849285D02*
X128116247Y-94896904D01*
X128116247Y-94896904D02*
X127973390Y-94896904D01*
X127973390Y-94896904D02*
X127782914Y-94849285D01*
X127782914Y-94849285D02*
X127687676Y-94801666D01*
X127687676Y-94801666D02*
X127592438Y-94706428D01*
X127592438Y-94706428D02*
X127544819Y-94563571D01*
X127544819Y-94563571D02*
X127544819Y-94468333D01*
X127544819Y-94468333D02*
X127592438Y-94325476D01*
X127592438Y-94325476D02*
X127640057Y-94277857D01*
X128544819Y-93325476D02*
X128544819Y-93896904D01*
X128544819Y-93611190D02*
X127544819Y-93611190D01*
X127544819Y-93611190D02*
X127687676Y-93706428D01*
X127687676Y-93706428D02*
X127782914Y-93801666D01*
X127782914Y-93801666D02*
X127830533Y-93896904D01*
X128544819Y-92373095D02*
X128544819Y-92944523D01*
X128544819Y-92658809D02*
X127544819Y-92658809D01*
X127544819Y-92658809D02*
X127687676Y-92754047D01*
X127687676Y-92754047D02*
X127782914Y-92849285D01*
X127782914Y-92849285D02*
X127830533Y-92944523D01*
X144474819Y-78352857D02*
X143998628Y-78686190D01*
X144474819Y-78924285D02*
X143474819Y-78924285D01*
X143474819Y-78924285D02*
X143474819Y-78543333D01*
X143474819Y-78543333D02*
X143522438Y-78448095D01*
X143522438Y-78448095D02*
X143570057Y-78400476D01*
X143570057Y-78400476D02*
X143665295Y-78352857D01*
X143665295Y-78352857D02*
X143808152Y-78352857D01*
X143808152Y-78352857D02*
X143903390Y-78400476D01*
X143903390Y-78400476D02*
X143951009Y-78448095D01*
X143951009Y-78448095D02*
X143998628Y-78543333D01*
X143998628Y-78543333D02*
X143998628Y-78924285D01*
X144474819Y-77400476D02*
X144474819Y-77971904D01*
X144474819Y-77686190D02*
X143474819Y-77686190D01*
X143474819Y-77686190D02*
X143617676Y-77781428D01*
X143617676Y-77781428D02*
X143712914Y-77876666D01*
X143712914Y-77876666D02*
X143760533Y-77971904D01*
X143808152Y-76543333D02*
X144474819Y-76543333D01*
X143427200Y-76781428D02*
X144141485Y-77019523D01*
X144141485Y-77019523D02*
X144141485Y-76400476D01*
X139513333Y-91329580D02*
X139465714Y-91377200D01*
X139465714Y-91377200D02*
X139322857Y-91424819D01*
X139322857Y-91424819D02*
X139227619Y-91424819D01*
X139227619Y-91424819D02*
X139084762Y-91377200D01*
X139084762Y-91377200D02*
X138989524Y-91281961D01*
X138989524Y-91281961D02*
X138941905Y-91186723D01*
X138941905Y-91186723D02*
X138894286Y-90996247D01*
X138894286Y-90996247D02*
X138894286Y-90853390D01*
X138894286Y-90853390D02*
X138941905Y-90662914D01*
X138941905Y-90662914D02*
X138989524Y-90567676D01*
X138989524Y-90567676D02*
X139084762Y-90472438D01*
X139084762Y-90472438D02*
X139227619Y-90424819D01*
X139227619Y-90424819D02*
X139322857Y-90424819D01*
X139322857Y-90424819D02*
X139465714Y-90472438D01*
X139465714Y-90472438D02*
X139513333Y-90520057D01*
X140418095Y-90424819D02*
X139941905Y-90424819D01*
X139941905Y-90424819D02*
X139894286Y-90901009D01*
X139894286Y-90901009D02*
X139941905Y-90853390D01*
X139941905Y-90853390D02*
X140037143Y-90805771D01*
X140037143Y-90805771D02*
X140275238Y-90805771D01*
X140275238Y-90805771D02*
X140370476Y-90853390D01*
X140370476Y-90853390D02*
X140418095Y-90901009D01*
X140418095Y-90901009D02*
X140465714Y-90996247D01*
X140465714Y-90996247D02*
X140465714Y-91234342D01*
X140465714Y-91234342D02*
X140418095Y-91329580D01*
X140418095Y-91329580D02*
X140370476Y-91377200D01*
X140370476Y-91377200D02*
X140275238Y-91424819D01*
X140275238Y-91424819D02*
X140037143Y-91424819D01*
X140037143Y-91424819D02*
X139941905Y-91377200D01*
X139941905Y-91377200D02*
X139894286Y-91329580D01*
X144019580Y-96237857D02*
X144067200Y-96285476D01*
X144067200Y-96285476D02*
X144114819Y-96428333D01*
X144114819Y-96428333D02*
X144114819Y-96523571D01*
X144114819Y-96523571D02*
X144067200Y-96666428D01*
X144067200Y-96666428D02*
X143971961Y-96761666D01*
X143971961Y-96761666D02*
X143876723Y-96809285D01*
X143876723Y-96809285D02*
X143686247Y-96856904D01*
X143686247Y-96856904D02*
X143543390Y-96856904D01*
X143543390Y-96856904D02*
X143352914Y-96809285D01*
X143352914Y-96809285D02*
X143257676Y-96761666D01*
X143257676Y-96761666D02*
X143162438Y-96666428D01*
X143162438Y-96666428D02*
X143114819Y-96523571D01*
X143114819Y-96523571D02*
X143114819Y-96428333D01*
X143114819Y-96428333D02*
X143162438Y-96285476D01*
X143162438Y-96285476D02*
X143210057Y-96237857D01*
X144114819Y-95285476D02*
X144114819Y-95856904D01*
X144114819Y-95571190D02*
X143114819Y-95571190D01*
X143114819Y-95571190D02*
X143257676Y-95666428D01*
X143257676Y-95666428D02*
X143352914Y-95761666D01*
X143352914Y-95761666D02*
X143400533Y-95856904D01*
X143543390Y-94714047D02*
X143495771Y-94809285D01*
X143495771Y-94809285D02*
X143448152Y-94856904D01*
X143448152Y-94856904D02*
X143352914Y-94904523D01*
X143352914Y-94904523D02*
X143305295Y-94904523D01*
X143305295Y-94904523D02*
X143210057Y-94856904D01*
X143210057Y-94856904D02*
X143162438Y-94809285D01*
X143162438Y-94809285D02*
X143114819Y-94714047D01*
X143114819Y-94714047D02*
X143114819Y-94523571D01*
X143114819Y-94523571D02*
X143162438Y-94428333D01*
X143162438Y-94428333D02*
X143210057Y-94380714D01*
X143210057Y-94380714D02*
X143305295Y-94333095D01*
X143305295Y-94333095D02*
X143352914Y-94333095D01*
X143352914Y-94333095D02*
X143448152Y-94380714D01*
X143448152Y-94380714D02*
X143495771Y-94428333D01*
X143495771Y-94428333D02*
X143543390Y-94523571D01*
X143543390Y-94523571D02*
X143543390Y-94714047D01*
X143543390Y-94714047D02*
X143591009Y-94809285D01*
X143591009Y-94809285D02*
X143638628Y-94856904D01*
X143638628Y-94856904D02*
X143733866Y-94904523D01*
X143733866Y-94904523D02*
X143924342Y-94904523D01*
X143924342Y-94904523D02*
X144019580Y-94856904D01*
X144019580Y-94856904D02*
X144067200Y-94809285D01*
X144067200Y-94809285D02*
X144114819Y-94714047D01*
X144114819Y-94714047D02*
X144114819Y-94523571D01*
X144114819Y-94523571D02*
X144067200Y-94428333D01*
X144067200Y-94428333D02*
X144019580Y-94380714D01*
X144019580Y-94380714D02*
X143924342Y-94333095D01*
X143924342Y-94333095D02*
X143733866Y-94333095D01*
X143733866Y-94333095D02*
X143638628Y-94380714D01*
X143638628Y-94380714D02*
X143591009Y-94428333D01*
X143591009Y-94428333D02*
X143543390Y-94523571D01*
X131929642Y-84694819D02*
X131596309Y-84218628D01*
X131358214Y-84694819D02*
X131358214Y-83694819D01*
X131358214Y-83694819D02*
X131739166Y-83694819D01*
X131739166Y-83694819D02*
X131834404Y-83742438D01*
X131834404Y-83742438D02*
X131882023Y-83790057D01*
X131882023Y-83790057D02*
X131929642Y-83885295D01*
X131929642Y-83885295D02*
X131929642Y-84028152D01*
X131929642Y-84028152D02*
X131882023Y-84123390D01*
X131882023Y-84123390D02*
X131834404Y-84171009D01*
X131834404Y-84171009D02*
X131739166Y-84218628D01*
X131739166Y-84218628D02*
X131358214Y-84218628D01*
X132882023Y-84694819D02*
X132310595Y-84694819D01*
X132596309Y-84694819D02*
X132596309Y-83694819D01*
X132596309Y-83694819D02*
X132501071Y-83837676D01*
X132501071Y-83837676D02*
X132405833Y-83932914D01*
X132405833Y-83932914D02*
X132310595Y-83980533D01*
X133739166Y-83694819D02*
X133548690Y-83694819D01*
X133548690Y-83694819D02*
X133453452Y-83742438D01*
X133453452Y-83742438D02*
X133405833Y-83790057D01*
X133405833Y-83790057D02*
X133310595Y-83932914D01*
X133310595Y-83932914D02*
X133262976Y-84123390D01*
X133262976Y-84123390D02*
X133262976Y-84504342D01*
X133262976Y-84504342D02*
X133310595Y-84599580D01*
X133310595Y-84599580D02*
X133358214Y-84647200D01*
X133358214Y-84647200D02*
X133453452Y-84694819D01*
X133453452Y-84694819D02*
X133643928Y-84694819D01*
X133643928Y-84694819D02*
X133739166Y-84647200D01*
X133739166Y-84647200D02*
X133786785Y-84599580D01*
X133786785Y-84599580D02*
X133834404Y-84504342D01*
X133834404Y-84504342D02*
X133834404Y-84266247D01*
X133834404Y-84266247D02*
X133786785Y-84171009D01*
X133786785Y-84171009D02*
X133739166Y-84123390D01*
X133739166Y-84123390D02*
X133643928Y-84075771D01*
X133643928Y-84075771D02*
X133453452Y-84075771D01*
X133453452Y-84075771D02*
X133358214Y-84123390D01*
X133358214Y-84123390D02*
X133310595Y-84171009D01*
X133310595Y-84171009D02*
X133262976Y-84266247D01*
X148984819Y-92826666D02*
X148508628Y-93159999D01*
X148984819Y-93398094D02*
X147984819Y-93398094D01*
X147984819Y-93398094D02*
X147984819Y-93017142D01*
X147984819Y-93017142D02*
X148032438Y-92921904D01*
X148032438Y-92921904D02*
X148080057Y-92874285D01*
X148080057Y-92874285D02*
X148175295Y-92826666D01*
X148175295Y-92826666D02*
X148318152Y-92826666D01*
X148318152Y-92826666D02*
X148413390Y-92874285D01*
X148413390Y-92874285D02*
X148461009Y-92921904D01*
X148461009Y-92921904D02*
X148508628Y-93017142D01*
X148508628Y-93017142D02*
X148508628Y-93398094D01*
X148413390Y-92255237D02*
X148365771Y-92350475D01*
X148365771Y-92350475D02*
X148318152Y-92398094D01*
X148318152Y-92398094D02*
X148222914Y-92445713D01*
X148222914Y-92445713D02*
X148175295Y-92445713D01*
X148175295Y-92445713D02*
X148080057Y-92398094D01*
X148080057Y-92398094D02*
X148032438Y-92350475D01*
X148032438Y-92350475D02*
X147984819Y-92255237D01*
X147984819Y-92255237D02*
X147984819Y-92064761D01*
X147984819Y-92064761D02*
X148032438Y-91969523D01*
X148032438Y-91969523D02*
X148080057Y-91921904D01*
X148080057Y-91921904D02*
X148175295Y-91874285D01*
X148175295Y-91874285D02*
X148222914Y-91874285D01*
X148222914Y-91874285D02*
X148318152Y-91921904D01*
X148318152Y-91921904D02*
X148365771Y-91969523D01*
X148365771Y-91969523D02*
X148413390Y-92064761D01*
X148413390Y-92064761D02*
X148413390Y-92255237D01*
X148413390Y-92255237D02*
X148461009Y-92350475D01*
X148461009Y-92350475D02*
X148508628Y-92398094D01*
X148508628Y-92398094D02*
X148603866Y-92445713D01*
X148603866Y-92445713D02*
X148794342Y-92445713D01*
X148794342Y-92445713D02*
X148889580Y-92398094D01*
X148889580Y-92398094D02*
X148937200Y-92350475D01*
X148937200Y-92350475D02*
X148984819Y-92255237D01*
X148984819Y-92255237D02*
X148984819Y-92064761D01*
X148984819Y-92064761D02*
X148937200Y-91969523D01*
X148937200Y-91969523D02*
X148889580Y-91921904D01*
X148889580Y-91921904D02*
X148794342Y-91874285D01*
X148794342Y-91874285D02*
X148603866Y-91874285D01*
X148603866Y-91874285D02*
X148508628Y-91921904D01*
X148508628Y-91921904D02*
X148461009Y-91969523D01*
X148461009Y-91969523D02*
X148413390Y-92064761D01*
X131554819Y-83077857D02*
X131078628Y-83411190D01*
X131554819Y-83649285D02*
X130554819Y-83649285D01*
X130554819Y-83649285D02*
X130554819Y-83268333D01*
X130554819Y-83268333D02*
X130602438Y-83173095D01*
X130602438Y-83173095D02*
X130650057Y-83125476D01*
X130650057Y-83125476D02*
X130745295Y-83077857D01*
X130745295Y-83077857D02*
X130888152Y-83077857D01*
X130888152Y-83077857D02*
X130983390Y-83125476D01*
X130983390Y-83125476D02*
X131031009Y-83173095D01*
X131031009Y-83173095D02*
X131078628Y-83268333D01*
X131078628Y-83268333D02*
X131078628Y-83649285D01*
X131554819Y-82125476D02*
X131554819Y-82696904D01*
X131554819Y-82411190D02*
X130554819Y-82411190D01*
X130554819Y-82411190D02*
X130697676Y-82506428D01*
X130697676Y-82506428D02*
X130792914Y-82601666D01*
X130792914Y-82601666D02*
X130840533Y-82696904D01*
X130983390Y-81554047D02*
X130935771Y-81649285D01*
X130935771Y-81649285D02*
X130888152Y-81696904D01*
X130888152Y-81696904D02*
X130792914Y-81744523D01*
X130792914Y-81744523D02*
X130745295Y-81744523D01*
X130745295Y-81744523D02*
X130650057Y-81696904D01*
X130650057Y-81696904D02*
X130602438Y-81649285D01*
X130602438Y-81649285D02*
X130554819Y-81554047D01*
X130554819Y-81554047D02*
X130554819Y-81363571D01*
X130554819Y-81363571D02*
X130602438Y-81268333D01*
X130602438Y-81268333D02*
X130650057Y-81220714D01*
X130650057Y-81220714D02*
X130745295Y-81173095D01*
X130745295Y-81173095D02*
X130792914Y-81173095D01*
X130792914Y-81173095D02*
X130888152Y-81220714D01*
X130888152Y-81220714D02*
X130935771Y-81268333D01*
X130935771Y-81268333D02*
X130983390Y-81363571D01*
X130983390Y-81363571D02*
X130983390Y-81554047D01*
X130983390Y-81554047D02*
X131031009Y-81649285D01*
X131031009Y-81649285D02*
X131078628Y-81696904D01*
X131078628Y-81696904D02*
X131173866Y-81744523D01*
X131173866Y-81744523D02*
X131364342Y-81744523D01*
X131364342Y-81744523D02*
X131459580Y-81696904D01*
X131459580Y-81696904D02*
X131507200Y-81649285D01*
X131507200Y-81649285D02*
X131554819Y-81554047D01*
X131554819Y-81554047D02*
X131554819Y-81363571D01*
X131554819Y-81363571D02*
X131507200Y-81268333D01*
X131507200Y-81268333D02*
X131459580Y-81220714D01*
X131459580Y-81220714D02*
X131364342Y-81173095D01*
X131364342Y-81173095D02*
X131173866Y-81173095D01*
X131173866Y-81173095D02*
X131078628Y-81220714D01*
X131078628Y-81220714D02*
X131031009Y-81268333D01*
X131031009Y-81268333D02*
X130983390Y-81363571D01*
X148998333Y-77954819D02*
X148665000Y-77478628D01*
X148426905Y-77954819D02*
X148426905Y-76954819D01*
X148426905Y-76954819D02*
X148807857Y-76954819D01*
X148807857Y-76954819D02*
X148903095Y-77002438D01*
X148903095Y-77002438D02*
X148950714Y-77050057D01*
X148950714Y-77050057D02*
X148998333Y-77145295D01*
X148998333Y-77145295D02*
X148998333Y-77288152D01*
X148998333Y-77288152D02*
X148950714Y-77383390D01*
X148950714Y-77383390D02*
X148903095Y-77431009D01*
X148903095Y-77431009D02*
X148807857Y-77478628D01*
X148807857Y-77478628D02*
X148426905Y-77478628D01*
X149855476Y-77288152D02*
X149855476Y-77954819D01*
X149617381Y-76907200D02*
X149379286Y-77621485D01*
X149379286Y-77621485D02*
X149998333Y-77621485D01*
X138174819Y-84287857D02*
X137698628Y-84621190D01*
X138174819Y-84859285D02*
X137174819Y-84859285D01*
X137174819Y-84859285D02*
X137174819Y-84478333D01*
X137174819Y-84478333D02*
X137222438Y-84383095D01*
X137222438Y-84383095D02*
X137270057Y-84335476D01*
X137270057Y-84335476D02*
X137365295Y-84287857D01*
X137365295Y-84287857D02*
X137508152Y-84287857D01*
X137508152Y-84287857D02*
X137603390Y-84335476D01*
X137603390Y-84335476D02*
X137651009Y-84383095D01*
X137651009Y-84383095D02*
X137698628Y-84478333D01*
X137698628Y-84478333D02*
X137698628Y-84859285D01*
X138174819Y-83335476D02*
X138174819Y-83906904D01*
X138174819Y-83621190D02*
X137174819Y-83621190D01*
X137174819Y-83621190D02*
X137317676Y-83716428D01*
X137317676Y-83716428D02*
X137412914Y-83811666D01*
X137412914Y-83811666D02*
X137460533Y-83906904D01*
X137174819Y-82716428D02*
X137174819Y-82621190D01*
X137174819Y-82621190D02*
X137222438Y-82525952D01*
X137222438Y-82525952D02*
X137270057Y-82478333D01*
X137270057Y-82478333D02*
X137365295Y-82430714D01*
X137365295Y-82430714D02*
X137555771Y-82383095D01*
X137555771Y-82383095D02*
X137793866Y-82383095D01*
X137793866Y-82383095D02*
X137984342Y-82430714D01*
X137984342Y-82430714D02*
X138079580Y-82478333D01*
X138079580Y-82478333D02*
X138127200Y-82525952D01*
X138127200Y-82525952D02*
X138174819Y-82621190D01*
X138174819Y-82621190D02*
X138174819Y-82716428D01*
X138174819Y-82716428D02*
X138127200Y-82811666D01*
X138127200Y-82811666D02*
X138079580Y-82859285D01*
X138079580Y-82859285D02*
X137984342Y-82906904D01*
X137984342Y-82906904D02*
X137793866Y-82954523D01*
X137793866Y-82954523D02*
X137555771Y-82954523D01*
X137555771Y-82954523D02*
X137365295Y-82906904D01*
X137365295Y-82906904D02*
X137270057Y-82859285D01*
X137270057Y-82859285D02*
X137222438Y-82811666D01*
X137222438Y-82811666D02*
X137174819Y-82716428D01*
X127869819Y-78774404D02*
X128679342Y-78774404D01*
X128679342Y-78774404D02*
X128774580Y-78726785D01*
X128774580Y-78726785D02*
X128822200Y-78679166D01*
X128822200Y-78679166D02*
X128869819Y-78583928D01*
X128869819Y-78583928D02*
X128869819Y-78393452D01*
X128869819Y-78393452D02*
X128822200Y-78298214D01*
X128822200Y-78298214D02*
X128774580Y-78250595D01*
X128774580Y-78250595D02*
X128679342Y-78202976D01*
X128679342Y-78202976D02*
X127869819Y-78202976D01*
X128203152Y-77298214D02*
X128869819Y-77298214D01*
X127822200Y-77536309D02*
X128536485Y-77774404D01*
X128536485Y-77774404D02*
X128536485Y-77155357D01*
X131289580Y-96761666D02*
X131337200Y-96809285D01*
X131337200Y-96809285D02*
X131384819Y-96952142D01*
X131384819Y-96952142D02*
X131384819Y-97047380D01*
X131384819Y-97047380D02*
X131337200Y-97190237D01*
X131337200Y-97190237D02*
X131241961Y-97285475D01*
X131241961Y-97285475D02*
X131146723Y-97333094D01*
X131146723Y-97333094D02*
X130956247Y-97380713D01*
X130956247Y-97380713D02*
X130813390Y-97380713D01*
X130813390Y-97380713D02*
X130622914Y-97333094D01*
X130622914Y-97333094D02*
X130527676Y-97285475D01*
X130527676Y-97285475D02*
X130432438Y-97190237D01*
X130432438Y-97190237D02*
X130384819Y-97047380D01*
X130384819Y-97047380D02*
X130384819Y-96952142D01*
X130384819Y-96952142D02*
X130432438Y-96809285D01*
X130432438Y-96809285D02*
X130480057Y-96761666D01*
X130480057Y-96380713D02*
X130432438Y-96333094D01*
X130432438Y-96333094D02*
X130384819Y-96237856D01*
X130384819Y-96237856D02*
X130384819Y-95999761D01*
X130384819Y-95999761D02*
X130432438Y-95904523D01*
X130432438Y-95904523D02*
X130480057Y-95856904D01*
X130480057Y-95856904D02*
X130575295Y-95809285D01*
X130575295Y-95809285D02*
X130670533Y-95809285D01*
X130670533Y-95809285D02*
X130813390Y-95856904D01*
X130813390Y-95856904D02*
X131384819Y-96428332D01*
X131384819Y-96428332D02*
X131384819Y-95809285D01*
X141709580Y-104377857D02*
X141757200Y-104425476D01*
X141757200Y-104425476D02*
X141804819Y-104568333D01*
X141804819Y-104568333D02*
X141804819Y-104663571D01*
X141804819Y-104663571D02*
X141757200Y-104806428D01*
X141757200Y-104806428D02*
X141661961Y-104901666D01*
X141661961Y-104901666D02*
X141566723Y-104949285D01*
X141566723Y-104949285D02*
X141376247Y-104996904D01*
X141376247Y-104996904D02*
X141233390Y-104996904D01*
X141233390Y-104996904D02*
X141042914Y-104949285D01*
X141042914Y-104949285D02*
X140947676Y-104901666D01*
X140947676Y-104901666D02*
X140852438Y-104806428D01*
X140852438Y-104806428D02*
X140804819Y-104663571D01*
X140804819Y-104663571D02*
X140804819Y-104568333D01*
X140804819Y-104568333D02*
X140852438Y-104425476D01*
X140852438Y-104425476D02*
X140900057Y-104377857D01*
X141804819Y-103425476D02*
X141804819Y-103996904D01*
X141804819Y-103711190D02*
X140804819Y-103711190D01*
X140804819Y-103711190D02*
X140947676Y-103806428D01*
X140947676Y-103806428D02*
X141042914Y-103901666D01*
X141042914Y-103901666D02*
X141090533Y-103996904D01*
X140804819Y-103092142D02*
X140804819Y-102425476D01*
X140804819Y-102425476D02*
X141804819Y-102854047D01*
X130197142Y-74089580D02*
X130149523Y-74137200D01*
X130149523Y-74137200D02*
X130006666Y-74184819D01*
X130006666Y-74184819D02*
X129911428Y-74184819D01*
X129911428Y-74184819D02*
X129768571Y-74137200D01*
X129768571Y-74137200D02*
X129673333Y-74041961D01*
X129673333Y-74041961D02*
X129625714Y-73946723D01*
X129625714Y-73946723D02*
X129578095Y-73756247D01*
X129578095Y-73756247D02*
X129578095Y-73613390D01*
X129578095Y-73613390D02*
X129625714Y-73422914D01*
X129625714Y-73422914D02*
X129673333Y-73327676D01*
X129673333Y-73327676D02*
X129768571Y-73232438D01*
X129768571Y-73232438D02*
X129911428Y-73184819D01*
X129911428Y-73184819D02*
X130006666Y-73184819D01*
X130006666Y-73184819D02*
X130149523Y-73232438D01*
X130149523Y-73232438D02*
X130197142Y-73280057D01*
X131149523Y-74184819D02*
X130578095Y-74184819D01*
X130863809Y-74184819D02*
X130863809Y-73184819D01*
X130863809Y-73184819D02*
X130768571Y-73327676D01*
X130768571Y-73327676D02*
X130673333Y-73422914D01*
X130673333Y-73422914D02*
X130578095Y-73470533D01*
X132006666Y-73184819D02*
X131816190Y-73184819D01*
X131816190Y-73184819D02*
X131720952Y-73232438D01*
X131720952Y-73232438D02*
X131673333Y-73280057D01*
X131673333Y-73280057D02*
X131578095Y-73422914D01*
X131578095Y-73422914D02*
X131530476Y-73613390D01*
X131530476Y-73613390D02*
X131530476Y-73994342D01*
X131530476Y-73994342D02*
X131578095Y-74089580D01*
X131578095Y-74089580D02*
X131625714Y-74137200D01*
X131625714Y-74137200D02*
X131720952Y-74184819D01*
X131720952Y-74184819D02*
X131911428Y-74184819D01*
X131911428Y-74184819D02*
X132006666Y-74137200D01*
X132006666Y-74137200D02*
X132054285Y-74089580D01*
X132054285Y-74089580D02*
X132101904Y-73994342D01*
X132101904Y-73994342D02*
X132101904Y-73756247D01*
X132101904Y-73756247D02*
X132054285Y-73661009D01*
X132054285Y-73661009D02*
X132006666Y-73613390D01*
X132006666Y-73613390D02*
X131911428Y-73565771D01*
X131911428Y-73565771D02*
X131720952Y-73565771D01*
X131720952Y-73565771D02*
X131625714Y-73613390D01*
X131625714Y-73613390D02*
X131578095Y-73661009D01*
X131578095Y-73661009D02*
X131530476Y-73756247D01*
X141804819Y-101397857D02*
X141328628Y-101731190D01*
X141804819Y-101969285D02*
X140804819Y-101969285D01*
X140804819Y-101969285D02*
X140804819Y-101588333D01*
X140804819Y-101588333D02*
X140852438Y-101493095D01*
X140852438Y-101493095D02*
X140900057Y-101445476D01*
X140900057Y-101445476D02*
X140995295Y-101397857D01*
X140995295Y-101397857D02*
X141138152Y-101397857D01*
X141138152Y-101397857D02*
X141233390Y-101445476D01*
X141233390Y-101445476D02*
X141281009Y-101493095D01*
X141281009Y-101493095D02*
X141328628Y-101588333D01*
X141328628Y-101588333D02*
X141328628Y-101969285D01*
X141804819Y-100445476D02*
X141804819Y-101016904D01*
X141804819Y-100731190D02*
X140804819Y-100731190D01*
X140804819Y-100731190D02*
X140947676Y-100826428D01*
X140947676Y-100826428D02*
X141042914Y-100921666D01*
X141042914Y-100921666D02*
X141090533Y-101016904D01*
X140804819Y-100112142D02*
X140804819Y-99445476D01*
X140804819Y-99445476D02*
X141804819Y-99874047D01*
X148876905Y-75924819D02*
X148876905Y-74924819D01*
X148876905Y-74924819D02*
X149115000Y-74924819D01*
X149115000Y-74924819D02*
X149257857Y-74972438D01*
X149257857Y-74972438D02*
X149353095Y-75067676D01*
X149353095Y-75067676D02*
X149400714Y-75162914D01*
X149400714Y-75162914D02*
X149448333Y-75353390D01*
X149448333Y-75353390D02*
X149448333Y-75496247D01*
X149448333Y-75496247D02*
X149400714Y-75686723D01*
X149400714Y-75686723D02*
X149353095Y-75781961D01*
X149353095Y-75781961D02*
X149257857Y-75877200D01*
X149257857Y-75877200D02*
X149115000Y-75924819D01*
X149115000Y-75924819D02*
X148876905Y-75924819D01*
X150400714Y-75924819D02*
X149829286Y-75924819D01*
X150115000Y-75924819D02*
X150115000Y-74924819D01*
X150115000Y-74924819D02*
X150019762Y-75067676D01*
X150019762Y-75067676D02*
X149924524Y-75162914D01*
X149924524Y-75162914D02*
X149829286Y-75210533D01*
X140358333Y-107859580D02*
X140310714Y-107907200D01*
X140310714Y-107907200D02*
X140167857Y-107954819D01*
X140167857Y-107954819D02*
X140072619Y-107954819D01*
X140072619Y-107954819D02*
X139929762Y-107907200D01*
X139929762Y-107907200D02*
X139834524Y-107811961D01*
X139834524Y-107811961D02*
X139786905Y-107716723D01*
X139786905Y-107716723D02*
X139739286Y-107526247D01*
X139739286Y-107526247D02*
X139739286Y-107383390D01*
X139739286Y-107383390D02*
X139786905Y-107192914D01*
X139786905Y-107192914D02*
X139834524Y-107097676D01*
X139834524Y-107097676D02*
X139929762Y-107002438D01*
X139929762Y-107002438D02*
X140072619Y-106954819D01*
X140072619Y-106954819D02*
X140167857Y-106954819D01*
X140167857Y-106954819D02*
X140310714Y-107002438D01*
X140310714Y-107002438D02*
X140358333Y-107050057D01*
X140834524Y-107954819D02*
X141025000Y-107954819D01*
X141025000Y-107954819D02*
X141120238Y-107907200D01*
X141120238Y-107907200D02*
X141167857Y-107859580D01*
X141167857Y-107859580D02*
X141263095Y-107716723D01*
X141263095Y-107716723D02*
X141310714Y-107526247D01*
X141310714Y-107526247D02*
X141310714Y-107145295D01*
X141310714Y-107145295D02*
X141263095Y-107050057D01*
X141263095Y-107050057D02*
X141215476Y-107002438D01*
X141215476Y-107002438D02*
X141120238Y-106954819D01*
X141120238Y-106954819D02*
X140929762Y-106954819D01*
X140929762Y-106954819D02*
X140834524Y-107002438D01*
X140834524Y-107002438D02*
X140786905Y-107050057D01*
X140786905Y-107050057D02*
X140739286Y-107145295D01*
X140739286Y-107145295D02*
X140739286Y-107383390D01*
X140739286Y-107383390D02*
X140786905Y-107478628D01*
X140786905Y-107478628D02*
X140834524Y-107526247D01*
X140834524Y-107526247D02*
X140929762Y-107573866D01*
X140929762Y-107573866D02*
X141120238Y-107573866D01*
X141120238Y-107573866D02*
X141215476Y-107526247D01*
X141215476Y-107526247D02*
X141263095Y-107478628D01*
X141263095Y-107478628D02*
X141310714Y-107383390D01*
X151664819Y-95741666D02*
X151188628Y-96074999D01*
X151664819Y-96313094D02*
X150664819Y-96313094D01*
X150664819Y-96313094D02*
X150664819Y-95932142D01*
X150664819Y-95932142D02*
X150712438Y-95836904D01*
X150712438Y-95836904D02*
X150760057Y-95789285D01*
X150760057Y-95789285D02*
X150855295Y-95741666D01*
X150855295Y-95741666D02*
X150998152Y-95741666D01*
X150998152Y-95741666D02*
X151093390Y-95789285D01*
X151093390Y-95789285D02*
X151141009Y-95836904D01*
X151141009Y-95836904D02*
X151188628Y-95932142D01*
X151188628Y-95932142D02*
X151188628Y-96313094D01*
X150664819Y-95408332D02*
X150664819Y-94741666D01*
X150664819Y-94741666D02*
X151664819Y-95170237D01*
X148788333Y-83289580D02*
X148740714Y-83337200D01*
X148740714Y-83337200D02*
X148597857Y-83384819D01*
X148597857Y-83384819D02*
X148502619Y-83384819D01*
X148502619Y-83384819D02*
X148359762Y-83337200D01*
X148359762Y-83337200D02*
X148264524Y-83241961D01*
X148264524Y-83241961D02*
X148216905Y-83146723D01*
X148216905Y-83146723D02*
X148169286Y-82956247D01*
X148169286Y-82956247D02*
X148169286Y-82813390D01*
X148169286Y-82813390D02*
X148216905Y-82622914D01*
X148216905Y-82622914D02*
X148264524Y-82527676D01*
X148264524Y-82527676D02*
X148359762Y-82432438D01*
X148359762Y-82432438D02*
X148502619Y-82384819D01*
X148502619Y-82384819D02*
X148597857Y-82384819D01*
X148597857Y-82384819D02*
X148740714Y-82432438D01*
X148740714Y-82432438D02*
X148788333Y-82480057D01*
X149645476Y-82718152D02*
X149645476Y-83384819D01*
X149407381Y-82337200D02*
X149169286Y-83051485D01*
X149169286Y-83051485D02*
X149788333Y-83051485D01*
X146449580Y-86996666D02*
X146497200Y-87044285D01*
X146497200Y-87044285D02*
X146544819Y-87187142D01*
X146544819Y-87187142D02*
X146544819Y-87282380D01*
X146544819Y-87282380D02*
X146497200Y-87425237D01*
X146497200Y-87425237D02*
X146401961Y-87520475D01*
X146401961Y-87520475D02*
X146306723Y-87568094D01*
X146306723Y-87568094D02*
X146116247Y-87615713D01*
X146116247Y-87615713D02*
X145973390Y-87615713D01*
X145973390Y-87615713D02*
X145782914Y-87568094D01*
X145782914Y-87568094D02*
X145687676Y-87520475D01*
X145687676Y-87520475D02*
X145592438Y-87425237D01*
X145592438Y-87425237D02*
X145544819Y-87282380D01*
X145544819Y-87282380D02*
X145544819Y-87187142D01*
X145544819Y-87187142D02*
X145592438Y-87044285D01*
X145592438Y-87044285D02*
X145640057Y-86996666D01*
X146544819Y-86044285D02*
X146544819Y-86615713D01*
X146544819Y-86329999D02*
X145544819Y-86329999D01*
X145544819Y-86329999D02*
X145687676Y-86425237D01*
X145687676Y-86425237D02*
X145782914Y-86520475D01*
X145782914Y-86520475D02*
X145830533Y-86615713D01*
X142469580Y-86821666D02*
X142517200Y-86869285D01*
X142517200Y-86869285D02*
X142564819Y-87012142D01*
X142564819Y-87012142D02*
X142564819Y-87107380D01*
X142564819Y-87107380D02*
X142517200Y-87250237D01*
X142517200Y-87250237D02*
X142421961Y-87345475D01*
X142421961Y-87345475D02*
X142326723Y-87393094D01*
X142326723Y-87393094D02*
X142136247Y-87440713D01*
X142136247Y-87440713D02*
X141993390Y-87440713D01*
X141993390Y-87440713D02*
X141802914Y-87393094D01*
X141802914Y-87393094D02*
X141707676Y-87345475D01*
X141707676Y-87345475D02*
X141612438Y-87250237D01*
X141612438Y-87250237D02*
X141564819Y-87107380D01*
X141564819Y-87107380D02*
X141564819Y-87012142D01*
X141564819Y-87012142D02*
X141612438Y-86869285D01*
X141612438Y-86869285D02*
X141660057Y-86821666D01*
X141993390Y-86250237D02*
X141945771Y-86345475D01*
X141945771Y-86345475D02*
X141898152Y-86393094D01*
X141898152Y-86393094D02*
X141802914Y-86440713D01*
X141802914Y-86440713D02*
X141755295Y-86440713D01*
X141755295Y-86440713D02*
X141660057Y-86393094D01*
X141660057Y-86393094D02*
X141612438Y-86345475D01*
X141612438Y-86345475D02*
X141564819Y-86250237D01*
X141564819Y-86250237D02*
X141564819Y-86059761D01*
X141564819Y-86059761D02*
X141612438Y-85964523D01*
X141612438Y-85964523D02*
X141660057Y-85916904D01*
X141660057Y-85916904D02*
X141755295Y-85869285D01*
X141755295Y-85869285D02*
X141802914Y-85869285D01*
X141802914Y-85869285D02*
X141898152Y-85916904D01*
X141898152Y-85916904D02*
X141945771Y-85964523D01*
X141945771Y-85964523D02*
X141993390Y-86059761D01*
X141993390Y-86059761D02*
X141993390Y-86250237D01*
X141993390Y-86250237D02*
X142041009Y-86345475D01*
X142041009Y-86345475D02*
X142088628Y-86393094D01*
X142088628Y-86393094D02*
X142183866Y-86440713D01*
X142183866Y-86440713D02*
X142374342Y-86440713D01*
X142374342Y-86440713D02*
X142469580Y-86393094D01*
X142469580Y-86393094D02*
X142517200Y-86345475D01*
X142517200Y-86345475D02*
X142564819Y-86250237D01*
X142564819Y-86250237D02*
X142564819Y-86059761D01*
X142564819Y-86059761D02*
X142517200Y-85964523D01*
X142517200Y-85964523D02*
X142469580Y-85916904D01*
X142469580Y-85916904D02*
X142374342Y-85869285D01*
X142374342Y-85869285D02*
X142183866Y-85869285D01*
X142183866Y-85869285D02*
X142088628Y-85916904D01*
X142088628Y-85916904D02*
X142041009Y-85964523D01*
X142041009Y-85964523D02*
X141993390Y-86059761D01*
X138154819Y-87307857D02*
X137678628Y-87641190D01*
X138154819Y-87879285D02*
X137154819Y-87879285D01*
X137154819Y-87879285D02*
X137154819Y-87498333D01*
X137154819Y-87498333D02*
X137202438Y-87403095D01*
X137202438Y-87403095D02*
X137250057Y-87355476D01*
X137250057Y-87355476D02*
X137345295Y-87307857D01*
X137345295Y-87307857D02*
X137488152Y-87307857D01*
X137488152Y-87307857D02*
X137583390Y-87355476D01*
X137583390Y-87355476D02*
X137631009Y-87403095D01*
X137631009Y-87403095D02*
X137678628Y-87498333D01*
X137678628Y-87498333D02*
X137678628Y-87879285D01*
X138154819Y-86355476D02*
X138154819Y-86926904D01*
X138154819Y-86641190D02*
X137154819Y-86641190D01*
X137154819Y-86641190D02*
X137297676Y-86736428D01*
X137297676Y-86736428D02*
X137392914Y-86831666D01*
X137392914Y-86831666D02*
X137440533Y-86926904D01*
X137250057Y-85974523D02*
X137202438Y-85926904D01*
X137202438Y-85926904D02*
X137154819Y-85831666D01*
X137154819Y-85831666D02*
X137154819Y-85593571D01*
X137154819Y-85593571D02*
X137202438Y-85498333D01*
X137202438Y-85498333D02*
X137250057Y-85450714D01*
X137250057Y-85450714D02*
X137345295Y-85403095D01*
X137345295Y-85403095D02*
X137440533Y-85403095D01*
X137440533Y-85403095D02*
X137583390Y-85450714D01*
X137583390Y-85450714D02*
X138154819Y-86022142D01*
X138154819Y-86022142D02*
X138154819Y-85403095D01*
X142872080Y-80866666D02*
X142919700Y-80914285D01*
X142919700Y-80914285D02*
X142967319Y-81057142D01*
X142967319Y-81057142D02*
X142967319Y-81152380D01*
X142967319Y-81152380D02*
X142919700Y-81295237D01*
X142919700Y-81295237D02*
X142824461Y-81390475D01*
X142824461Y-81390475D02*
X142729223Y-81438094D01*
X142729223Y-81438094D02*
X142538747Y-81485713D01*
X142538747Y-81485713D02*
X142395890Y-81485713D01*
X142395890Y-81485713D02*
X142205414Y-81438094D01*
X142205414Y-81438094D02*
X142110176Y-81390475D01*
X142110176Y-81390475D02*
X142014938Y-81295237D01*
X142014938Y-81295237D02*
X141967319Y-81152380D01*
X141967319Y-81152380D02*
X141967319Y-81057142D01*
X141967319Y-81057142D02*
X142014938Y-80914285D01*
X142014938Y-80914285D02*
X142062557Y-80866666D01*
X141967319Y-80533332D02*
X141967319Y-79914285D01*
X141967319Y-79914285D02*
X142348271Y-80247618D01*
X142348271Y-80247618D02*
X142348271Y-80104761D01*
X142348271Y-80104761D02*
X142395890Y-80009523D01*
X142395890Y-80009523D02*
X142443509Y-79961904D01*
X142443509Y-79961904D02*
X142538747Y-79914285D01*
X142538747Y-79914285D02*
X142776842Y-79914285D01*
X142776842Y-79914285D02*
X142872080Y-79961904D01*
X142872080Y-79961904D02*
X142919700Y-80009523D01*
X142919700Y-80009523D02*
X142967319Y-80104761D01*
X142967319Y-80104761D02*
X142967319Y-80390475D01*
X142967319Y-80390475D02*
X142919700Y-80485713D01*
X142919700Y-80485713D02*
X142872080Y-80533332D01*
X138194819Y-80841666D02*
X137718628Y-81174999D01*
X138194819Y-81413094D02*
X137194819Y-81413094D01*
X137194819Y-81413094D02*
X137194819Y-81032142D01*
X137194819Y-81032142D02*
X137242438Y-80936904D01*
X137242438Y-80936904D02*
X137290057Y-80889285D01*
X137290057Y-80889285D02*
X137385295Y-80841666D01*
X137385295Y-80841666D02*
X137528152Y-80841666D01*
X137528152Y-80841666D02*
X137623390Y-80889285D01*
X137623390Y-80889285D02*
X137671009Y-80936904D01*
X137671009Y-80936904D02*
X137718628Y-81032142D01*
X137718628Y-81032142D02*
X137718628Y-81413094D01*
X137290057Y-80460713D02*
X137242438Y-80413094D01*
X137242438Y-80413094D02*
X137194819Y-80317856D01*
X137194819Y-80317856D02*
X137194819Y-80079761D01*
X137194819Y-80079761D02*
X137242438Y-79984523D01*
X137242438Y-79984523D02*
X137290057Y-79936904D01*
X137290057Y-79936904D02*
X137385295Y-79889285D01*
X137385295Y-79889285D02*
X137480533Y-79889285D01*
X137480533Y-79889285D02*
X137623390Y-79936904D01*
X137623390Y-79936904D02*
X138194819Y-80508332D01*
X138194819Y-80508332D02*
X138194819Y-79889285D01*
X130826531Y-91291127D02*
X131398951Y-91863547D01*
X131398951Y-91863547D02*
X131499966Y-91897219D01*
X131499966Y-91897219D02*
X131567310Y-91897219D01*
X131567310Y-91897219D02*
X131668325Y-91863547D01*
X131668325Y-91863547D02*
X131803012Y-91728860D01*
X131803012Y-91728860D02*
X131836684Y-91627845D01*
X131836684Y-91627845D02*
X131836684Y-91560501D01*
X131836684Y-91560501D02*
X131803012Y-91459486D01*
X131803012Y-91459486D02*
X131230592Y-90887066D01*
X132644806Y-90887066D02*
X132240745Y-91291127D01*
X132442775Y-91089097D02*
X131735669Y-90381990D01*
X131735669Y-90381990D02*
X131769340Y-90550349D01*
X131769340Y-90550349D02*
X131769340Y-90685036D01*
X131769340Y-90685036D02*
X131735669Y-90786051D01*
X148517142Y-87734580D02*
X148469523Y-87782200D01*
X148469523Y-87782200D02*
X148326666Y-87829819D01*
X148326666Y-87829819D02*
X148231428Y-87829819D01*
X148231428Y-87829819D02*
X148088571Y-87782200D01*
X148088571Y-87782200D02*
X147993333Y-87686961D01*
X147993333Y-87686961D02*
X147945714Y-87591723D01*
X147945714Y-87591723D02*
X147898095Y-87401247D01*
X147898095Y-87401247D02*
X147898095Y-87258390D01*
X147898095Y-87258390D02*
X147945714Y-87067914D01*
X147945714Y-87067914D02*
X147993333Y-86972676D01*
X147993333Y-86972676D02*
X148088571Y-86877438D01*
X148088571Y-86877438D02*
X148231428Y-86829819D01*
X148231428Y-86829819D02*
X148326666Y-86829819D01*
X148326666Y-86829819D02*
X148469523Y-86877438D01*
X148469523Y-86877438D02*
X148517142Y-86925057D01*
X149469523Y-87829819D02*
X148898095Y-87829819D01*
X149183809Y-87829819D02*
X149183809Y-86829819D01*
X149183809Y-86829819D02*
X149088571Y-86972676D01*
X149088571Y-86972676D02*
X148993333Y-87067914D01*
X148993333Y-87067914D02*
X148898095Y-87115533D01*
X150326666Y-87163152D02*
X150326666Y-87829819D01*
X150088571Y-86782200D02*
X149850476Y-87496485D01*
X149850476Y-87496485D02*
X150469523Y-87496485D01*
X144264819Y-92771666D02*
X143788628Y-93104999D01*
X144264819Y-93343094D02*
X143264819Y-93343094D01*
X143264819Y-93343094D02*
X143264819Y-92962142D01*
X143264819Y-92962142D02*
X143312438Y-92866904D01*
X143312438Y-92866904D02*
X143360057Y-92819285D01*
X143360057Y-92819285D02*
X143455295Y-92771666D01*
X143455295Y-92771666D02*
X143598152Y-92771666D01*
X143598152Y-92771666D02*
X143693390Y-92819285D01*
X143693390Y-92819285D02*
X143741009Y-92866904D01*
X143741009Y-92866904D02*
X143788628Y-92962142D01*
X143788628Y-92962142D02*
X143788628Y-93343094D01*
X144264819Y-92295475D02*
X144264819Y-92104999D01*
X144264819Y-92104999D02*
X144217200Y-92009761D01*
X144217200Y-92009761D02*
X144169580Y-91962142D01*
X144169580Y-91962142D02*
X144026723Y-91866904D01*
X144026723Y-91866904D02*
X143836247Y-91819285D01*
X143836247Y-91819285D02*
X143455295Y-91819285D01*
X143455295Y-91819285D02*
X143360057Y-91866904D01*
X143360057Y-91866904D02*
X143312438Y-91914523D01*
X143312438Y-91914523D02*
X143264819Y-92009761D01*
X143264819Y-92009761D02*
X143264819Y-92200237D01*
X143264819Y-92200237D02*
X143312438Y-92295475D01*
X143312438Y-92295475D02*
X143360057Y-92343094D01*
X143360057Y-92343094D02*
X143455295Y-92390713D01*
X143455295Y-92390713D02*
X143693390Y-92390713D01*
X143693390Y-92390713D02*
X143788628Y-92343094D01*
X143788628Y-92343094D02*
X143836247Y-92295475D01*
X143836247Y-92295475D02*
X143883866Y-92200237D01*
X143883866Y-92200237D02*
X143883866Y-92009761D01*
X143883866Y-92009761D02*
X143836247Y-91914523D01*
X143836247Y-91914523D02*
X143788628Y-91866904D01*
X143788628Y-91866904D02*
X143693390Y-91819285D01*
X139216666Y-92014819D02*
X139216666Y-92729104D01*
X139216666Y-92729104D02*
X139169047Y-92871961D01*
X139169047Y-92871961D02*
X139073809Y-92967200D01*
X139073809Y-92967200D02*
X138930952Y-93014819D01*
X138930952Y-93014819D02*
X138835714Y-93014819D01*
X139597619Y-92014819D02*
X140216666Y-92014819D01*
X140216666Y-92014819D02*
X139883333Y-92395771D01*
X139883333Y-92395771D02*
X140026190Y-92395771D01*
X140026190Y-92395771D02*
X140121428Y-92443390D01*
X140121428Y-92443390D02*
X140169047Y-92491009D01*
X140169047Y-92491009D02*
X140216666Y-92586247D01*
X140216666Y-92586247D02*
X140216666Y-92824342D01*
X140216666Y-92824342D02*
X140169047Y-92919580D01*
X140169047Y-92919580D02*
X140121428Y-92967200D01*
X140121428Y-92967200D02*
X140026190Y-93014819D01*
X140026190Y-93014819D02*
X139740476Y-93014819D01*
X139740476Y-93014819D02*
X139645238Y-92967200D01*
X139645238Y-92967200D02*
X139597619Y-92919580D01*
X142689580Y-92771666D02*
X142737200Y-92819285D01*
X142737200Y-92819285D02*
X142784819Y-92962142D01*
X142784819Y-92962142D02*
X142784819Y-93057380D01*
X142784819Y-93057380D02*
X142737200Y-93200237D01*
X142737200Y-93200237D02*
X142641961Y-93295475D01*
X142641961Y-93295475D02*
X142546723Y-93343094D01*
X142546723Y-93343094D02*
X142356247Y-93390713D01*
X142356247Y-93390713D02*
X142213390Y-93390713D01*
X142213390Y-93390713D02*
X142022914Y-93343094D01*
X142022914Y-93343094D02*
X141927676Y-93295475D01*
X141927676Y-93295475D02*
X141832438Y-93200237D01*
X141832438Y-93200237D02*
X141784819Y-93057380D01*
X141784819Y-93057380D02*
X141784819Y-92962142D01*
X141784819Y-92962142D02*
X141832438Y-92819285D01*
X141832438Y-92819285D02*
X141880057Y-92771666D01*
X141784819Y-92438332D02*
X141784819Y-91771666D01*
X141784819Y-91771666D02*
X142784819Y-92200237D01*
D11*
G04 #@! TO.C,J5*
X150230000Y-104330000D02*
X150230000Y-96600000D01*
X152990000Y-96600000D02*
X150230000Y-96600000D01*
X152990000Y-104330000D02*
X150230000Y-104330000D01*
X152990000Y-104330000D02*
X152990000Y-96600000D01*
X152990000Y-105600000D02*
X152990000Y-106980000D01*
X152990000Y-106980000D02*
X151610000Y-106980000D01*
G04 #@! TO.C,U6*
X130800000Y-103687500D02*
X130800000Y-101487500D01*
X130800000Y-103687500D02*
X130800000Y-105887500D01*
X136020000Y-103687500D02*
X136020000Y-101487500D01*
X136020000Y-103687500D02*
X136020000Y-105887500D01*
X136150000Y-101027500D02*
X135820000Y-100787500D01*
X136150000Y-100547500D01*
X136150000Y-101027500D01*
G36*
X136150000Y-101027500D02*
G01*
X135820000Y-100787500D01*
X136150000Y-100547500D01*
X136150000Y-101027500D01*
G37*
G04 #@! TO.C,C13*
X137524420Y-101460000D02*
X137805580Y-101460000D01*
X137524420Y-102480000D02*
X137805580Y-102480000D01*
G04 #@! TO.C,R13*
X143752258Y-105547500D02*
X143277742Y-105547500D01*
X143752258Y-106592500D02*
X143277742Y-106592500D01*
G04 #@! TO.C,J1*
X133210000Y-74525000D02*
X133210000Y-76225000D01*
X142550000Y-74525000D02*
X142550000Y-76225000D01*
G04 #@! TO.C,D2*
X145620000Y-82650000D02*
X145620000Y-79990000D01*
X145620000Y-82650000D02*
X147320000Y-82650000D01*
X147320000Y-82650000D02*
X147320000Y-79990000D01*
G04 #@! TO.C,R6*
X146207500Y-92367742D02*
X146207500Y-92842258D01*
X147252500Y-92367742D02*
X147252500Y-92842258D01*
G04 #@! TO.C,U5*
X143485000Y-98895000D02*
X143485000Y-96945000D01*
X143485000Y-98895000D02*
X143485000Y-100845000D01*
X148605000Y-98895000D02*
X148605000Y-96945000D01*
X148605000Y-98895000D02*
X148605000Y-100845000D01*
X143580000Y-101595000D02*
X143250000Y-101835000D01*
X143250000Y-101355000D01*
X143580000Y-101595000D01*
G36*
X143580000Y-101595000D02*
G01*
X143250000Y-101835000D01*
X143250000Y-101355000D01*
X143580000Y-101595000D01*
G37*
G04 #@! TO.C,C15*
X132703080Y-86690000D02*
X132421920Y-86690000D01*
X132703080Y-87710000D02*
X132421920Y-87710000D01*
D12*
G04 #@! TO.C,U2*
G36*
X133566201Y-84023100D02*
G01*
X133312201Y-84023100D01*
X133312201Y-83642100D01*
X133566201Y-83642100D01*
X133566201Y-84023100D01*
G37*
D11*
G04 #@! TO.C,D3*
X130980000Y-87940000D02*
X130980000Y-89640000D01*
X130980000Y-87940000D02*
X133640000Y-87940000D01*
X130980000Y-89640000D02*
X133640000Y-89640000D01*
G04 #@! TO.C,C10*
X146430000Y-77855580D02*
X146430000Y-77574420D01*
X147450000Y-77855580D02*
X147450000Y-77574420D01*
G04 #@! TO.C,U3*
X145497500Y-83650000D02*
X145497500Y-85050000D01*
X147817500Y-83640000D02*
X147817500Y-85050000D01*
X148097500Y-83510000D02*
X147767500Y-83270000D01*
X148097500Y-83030000D01*
X148097500Y-83510000D01*
G36*
X148097500Y-83510000D02*
G01*
X147767500Y-83270000D01*
X148097500Y-83030000D01*
X148097500Y-83510000D01*
G37*
G04 #@! TO.C,R11*
X146752258Y-105567500D02*
X146277742Y-105567500D01*
X146752258Y-106612500D02*
X146277742Y-106612500D01*
G04 #@! TO.C,C6*
X147740000Y-92735580D02*
X147740000Y-92454420D01*
X148760000Y-92735580D02*
X148760000Y-92454420D01*
G04 #@! TO.C,C12*
X130920000Y-97799420D02*
X130920000Y-98080580D01*
X131940000Y-97799420D02*
X131940000Y-98080580D01*
G04 #@! TO.C,R1*
X143447500Y-77477742D02*
X143447500Y-77952258D01*
X144492500Y-77477742D02*
X144492500Y-77952258D01*
G04 #@! TO.C,R3*
X133817742Y-79467500D02*
X134292258Y-79467500D01*
X133817742Y-80512500D02*
X134292258Y-80512500D01*
G04 #@! TO.C,R15*
X139397500Y-97972258D02*
X139397500Y-97497742D01*
X140442500Y-97972258D02*
X140442500Y-97497742D01*
G04 #@! TO.C,R5*
X129657500Y-89382258D02*
X129657500Y-88907742D01*
X130702500Y-89382258D02*
X130702500Y-88907742D01*
G04 #@! TO.C,C11*
X129010000Y-93775580D02*
X129010000Y-93494420D01*
X130030000Y-93775580D02*
X130030000Y-93494420D01*
G04 #@! TO.C,R14*
X144927500Y-77947258D02*
X144927500Y-77472742D01*
X145972500Y-77947258D02*
X145972500Y-77472742D01*
G04 #@! TO.C,C5*
X139539420Y-91890000D02*
X139820580Y-91890000D01*
X139539420Y-92910000D02*
X139820580Y-92910000D01*
G04 #@! TO.C,C18*
X141720000Y-95454420D02*
X141720000Y-95735580D01*
X142740000Y-95454420D02*
X142740000Y-95735580D01*
G04 #@! TO.C,R16*
X132335242Y-85147500D02*
X132809758Y-85147500D01*
X132335242Y-86192500D02*
X132809758Y-86192500D01*
G04 #@! TO.C,R8*
X149237500Y-92842258D02*
X149237500Y-92367742D01*
X150282500Y-92842258D02*
X150282500Y-92367742D01*
G04 #@! TO.C,R18*
X132007500Y-82672258D02*
X132007500Y-82197742D01*
X133052500Y-82672258D02*
X133052500Y-82197742D01*
G04 #@! TO.C,R4*
X148927742Y-78407500D02*
X149402258Y-78407500D01*
X148927742Y-79452500D02*
X149402258Y-79452500D01*
G04 #@! TO.C,R10*
X138627500Y-83882258D02*
X138627500Y-83407742D01*
X139672500Y-83882258D02*
X139672500Y-83407742D01*
G04 #@! TO.C,U4*
X129255000Y-78012500D02*
X129255000Y-77212500D01*
X129255000Y-78012500D02*
X129255000Y-78812500D01*
X132375000Y-78012500D02*
X132375000Y-77212500D01*
X132375000Y-78012500D02*
X132375000Y-78812500D01*
X129305000Y-79312500D02*
X128975000Y-79552500D01*
X128975000Y-79072500D01*
X129305000Y-79312500D01*
G36*
X129305000Y-79312500D02*
G01*
X128975000Y-79552500D01*
X128975000Y-79072500D01*
X129305000Y-79312500D01*
G37*
G04 #@! TO.C,C2*
X128990000Y-96454420D02*
X128990000Y-96735580D01*
X130010000Y-96454420D02*
X130010000Y-96735580D01*
G04 #@! TO.C,C17*
X139410000Y-103594420D02*
X139410000Y-103875580D01*
X140430000Y-103594420D02*
X140430000Y-103875580D01*
G04 #@! TO.C,C16*
X130699420Y-74650000D02*
X130980580Y-74650000D01*
X130699420Y-75670000D02*
X130980580Y-75670000D01*
G04 #@! TO.C,R17*
X139397500Y-100517742D02*
X139397500Y-100992258D01*
X140442500Y-100517742D02*
X140442500Y-100992258D01*
G04 #@! TO.C,D1*
X147755000Y-76250000D02*
X147755000Y-78170000D01*
X147755000Y-78170000D02*
X150615000Y-78170000D01*
X150615000Y-76250000D02*
X147755000Y-76250000D01*
G04 #@! TO.C,C9*
X140665580Y-105560000D02*
X140384420Y-105560000D01*
X140665580Y-106580000D02*
X140384420Y-106580000D01*
G04 #@! TO.C,R7*
X149257500Y-95337742D02*
X149257500Y-95812258D01*
X150302500Y-95337742D02*
X150302500Y-95812258D01*
G04 #@! TO.C,C4*
X149095580Y-80990000D02*
X148814420Y-80990000D01*
X149095580Y-82010000D02*
X148814420Y-82010000D01*
G04 #@! TO.C,C1*
X143180000Y-83818748D02*
X143180000Y-85241252D01*
X145000000Y-83818748D02*
X145000000Y-85241252D01*
G04 #@! TO.C,C8*
X140170000Y-86514420D02*
X140170000Y-86795580D01*
X141190000Y-86514420D02*
X141190000Y-86795580D01*
G04 #@! TO.C,R12*
X138607500Y-86902258D02*
X138607500Y-86427742D01*
X139652500Y-86902258D02*
X139652500Y-86427742D01*
G04 #@! TO.C,C3*
X143432500Y-80840580D02*
X143432500Y-80559420D01*
X144452500Y-80840580D02*
X144452500Y-80559420D01*
G04 #@! TO.C,R2*
X138647500Y-80912258D02*
X138647500Y-80437742D01*
X139692500Y-80912258D02*
X139692500Y-80437742D01*
G04 #@! TO.C,U1*
X131103778Y-93510224D02*
X130980035Y-93633968D01*
X131103778Y-94181976D02*
X130937608Y-94015806D01*
X134123124Y-90490878D02*
X134459000Y-90155003D01*
X134459000Y-90155003D02*
X134794876Y-90490878D01*
X134459000Y-97537197D02*
X134123124Y-97201322D01*
X134794876Y-97201322D02*
X134459000Y-97537197D01*
X137814222Y-94181976D02*
X138150097Y-93846100D01*
X138150097Y-93846100D02*
X137814222Y-93510224D01*
X130767903Y-93846100D02*
X130364852Y-93782460D01*
X130704263Y-93443049D01*
X130767903Y-93846100D01*
G36*
X130767903Y-93846100D02*
G01*
X130364852Y-93782460D01*
X130704263Y-93443049D01*
X130767903Y-93846100D01*
G37*
G04 #@! TO.C,C14*
X148370000Y-83843748D02*
X148370000Y-85266252D01*
X150190000Y-83843748D02*
X150190000Y-85266252D01*
G04 #@! TO.C,R9*
X144717500Y-92842258D02*
X144717500Y-92367742D01*
X145762500Y-92842258D02*
X145762500Y-92367742D01*
G04 #@! TO.C,J3*
X138805000Y-93435000D02*
X139550000Y-93435000D01*
X138805000Y-94170000D02*
X138805000Y-93435000D01*
X138805000Y-94905000D02*
X138805000Y-95780000D01*
X138805000Y-94905000D02*
X138864435Y-94905000D01*
X138805000Y-95780000D02*
X139139970Y-95780000D01*
X139960030Y-95780000D02*
X140295000Y-95780000D01*
X140235565Y-94905000D02*
X140295000Y-94905000D01*
X140295000Y-94905000D02*
X140295000Y-95780000D01*
G04 #@! TO.C,C7*
X143250000Y-92745580D02*
X143250000Y-92464420D01*
X144270000Y-92745580D02*
X144270000Y-92464420D01*
G04 #@! TD*
%LPC*%
D13*
G04 #@! TO.C,J5*
X151610000Y-105600000D03*
D14*
X151610000Y-103060000D03*
X151610000Y-100520000D03*
X151610000Y-97980000D03*
G04 #@! TD*
D15*
G04 #@! TO.C,U6*
X135360000Y-100825000D03*
X134710000Y-100825000D03*
X134060000Y-100825000D03*
X133410000Y-100825000D03*
X132760000Y-100825000D03*
X132110000Y-100825000D03*
X131460000Y-100825000D03*
X131460000Y-106550000D03*
X132110000Y-106550000D03*
X132760000Y-106550000D03*
X133410000Y-106550000D03*
X134060000Y-106550000D03*
X134710000Y-106550000D03*
X135360000Y-106550000D03*
G04 #@! TD*
D16*
G04 #@! TO.C,C13*
X136890000Y-101970000D03*
X138440000Y-101970000D03*
G04 #@! TD*
D17*
G04 #@! TO.C,R13*
X144340000Y-106070000D03*
X142690000Y-106070000D03*
G04 #@! TD*
D18*
G04 #@! TO.C,J1*
X140770000Y-77030000D03*
X134990000Y-77030000D03*
D19*
X141080000Y-78105000D03*
X140280000Y-78105000D03*
D20*
X139130000Y-78105000D03*
X138130000Y-78105000D03*
X137630000Y-78105000D03*
X136630000Y-78105000D03*
D19*
X135480000Y-78105000D03*
X134680000Y-78105000D03*
X134680000Y-78105000D03*
X135480000Y-78105000D03*
D20*
X136130000Y-78105000D03*
X137130000Y-78105000D03*
X138630000Y-78105000D03*
X139630000Y-78105000D03*
D19*
X140280000Y-78105000D03*
X141080000Y-78105000D03*
D21*
X142200000Y-77530000D03*
D22*
X142200000Y-73350000D03*
D21*
X133560000Y-77530000D03*
D22*
X133560000Y-73350000D03*
G04 #@! TD*
D23*
G04 #@! TO.C,D2*
X146470000Y-82090000D03*
X146470000Y-79990000D03*
G04 #@! TD*
D24*
G04 #@! TO.C,R6*
X146730000Y-91780000D03*
X146730000Y-93430000D03*
G04 #@! TD*
D25*
G04 #@! TO.C,U5*
X144140000Y-101370000D03*
X145410000Y-101370000D03*
X146680000Y-101370000D03*
X147950000Y-101370000D03*
X147950000Y-96420000D03*
X146680000Y-96420000D03*
X145410000Y-96420000D03*
X144140000Y-96420000D03*
G04 #@! TD*
D26*
G04 #@! TO.C,C15*
X133337500Y-87200000D03*
X131787500Y-87200000D03*
G04 #@! TD*
D27*
G04 #@! TO.C,U2*
X134399999Y-84560000D03*
D28*
X134900000Y-84560000D03*
X135400000Y-84560000D03*
D27*
X135900001Y-84560000D03*
D29*
X136102444Y-83832600D03*
D27*
X135900001Y-83105200D03*
D28*
X135400000Y-83105200D03*
X134900000Y-83105200D03*
D27*
X134399999Y-83105200D03*
D29*
X134197556Y-83832600D03*
G04 #@! TD*
D30*
G04 #@! TO.C,D3*
X131540000Y-88790000D03*
X133640000Y-88790000D03*
G04 #@! TD*
D31*
G04 #@! TO.C,C10*
X146940000Y-78490000D03*
X146940000Y-76940000D03*
G04 #@! TD*
D32*
G04 #@! TO.C,U3*
X147307500Y-83400000D03*
X146657500Y-83400000D03*
X146007500Y-83400000D03*
X146007500Y-85300000D03*
X147307500Y-85300000D03*
G04 #@! TD*
D17*
G04 #@! TO.C,R11*
X147340000Y-106090000D03*
X145690000Y-106090000D03*
G04 #@! TD*
D31*
G04 #@! TO.C,C6*
X148250000Y-93370000D03*
X148250000Y-91820000D03*
G04 #@! TD*
D33*
G04 #@! TO.C,C12*
X131430000Y-97165000D03*
X131430000Y-98715000D03*
G04 #@! TD*
D24*
G04 #@! TO.C,R1*
X143970000Y-76890000D03*
X143970000Y-78540000D03*
G04 #@! TD*
D34*
G04 #@! TO.C,R3*
X133230000Y-79990000D03*
X134880000Y-79990000D03*
G04 #@! TD*
D35*
G04 #@! TO.C,R15*
X139920000Y-98560000D03*
X139920000Y-96910000D03*
G04 #@! TD*
G04 #@! TO.C,R5*
X130180000Y-89970000D03*
X130180000Y-88320000D03*
G04 #@! TD*
D31*
G04 #@! TO.C,C11*
X129520000Y-94410000D03*
X129520000Y-92860000D03*
G04 #@! TD*
D35*
G04 #@! TO.C,R14*
X145450000Y-78535000D03*
X145450000Y-76885000D03*
G04 #@! TD*
D16*
G04 #@! TO.C,C5*
X138905000Y-92400000D03*
X140455000Y-92400000D03*
G04 #@! TD*
D33*
G04 #@! TO.C,C18*
X142230000Y-94820000D03*
X142230000Y-96370000D03*
G04 #@! TD*
D34*
G04 #@! TO.C,R16*
X131747500Y-85670000D03*
X133397500Y-85670000D03*
G04 #@! TD*
D35*
G04 #@! TO.C,R8*
X149760000Y-93430000D03*
X149760000Y-91780000D03*
G04 #@! TD*
G04 #@! TO.C,R18*
X132530000Y-83260000D03*
X132530000Y-81610000D03*
G04 #@! TD*
D34*
G04 #@! TO.C,R4*
X148340000Y-78930000D03*
X149990000Y-78930000D03*
G04 #@! TD*
D35*
G04 #@! TO.C,R10*
X139150000Y-84470000D03*
X139150000Y-82820000D03*
G04 #@! TD*
D36*
G04 #@! TO.C,U4*
X129865000Y-79150000D03*
X130815000Y-79150000D03*
X131765000Y-79150000D03*
X131765000Y-76875000D03*
X129865000Y-76875000D03*
G04 #@! TD*
D33*
G04 #@! TO.C,C2*
X129500000Y-95820000D03*
X129500000Y-97370000D03*
G04 #@! TD*
G04 #@! TO.C,C17*
X139920000Y-102960000D03*
X139920000Y-104510000D03*
G04 #@! TD*
D16*
G04 #@! TO.C,C16*
X130065000Y-75160000D03*
X131615000Y-75160000D03*
G04 #@! TD*
D24*
G04 #@! TO.C,R17*
X139920000Y-99930000D03*
X139920000Y-101580000D03*
G04 #@! TD*
D37*
G04 #@! TO.C,D1*
X148590000Y-77210000D03*
X150640000Y-77210000D03*
G04 #@! TD*
D26*
G04 #@! TO.C,C9*
X141300000Y-106070000D03*
X139750000Y-106070000D03*
G04 #@! TD*
D24*
G04 #@! TO.C,R7*
X149780000Y-94750000D03*
X149780000Y-96400000D03*
G04 #@! TD*
D26*
G04 #@! TO.C,C4*
X149730000Y-81500000D03*
X148180000Y-81500000D03*
G04 #@! TD*
D38*
G04 #@! TO.C,C1*
X144090000Y-83055000D03*
X144090000Y-86005000D03*
G04 #@! TD*
D33*
G04 #@! TO.C,C8*
X140680000Y-85880000D03*
X140680000Y-87430000D03*
G04 #@! TD*
D35*
G04 #@! TO.C,R12*
X139130000Y-87490000D03*
X139130000Y-85840000D03*
G04 #@! TD*
D31*
G04 #@! TO.C,C3*
X143942500Y-81475000D03*
X143942500Y-79925000D03*
G04 #@! TD*
D35*
G04 #@! TO.C,R2*
X139170000Y-81500000D03*
X139170000Y-79850000D03*
G04 #@! TD*
D39*
G04 #@! TO.C,U1*
X131497990Y-94332236D03*
X131851544Y-94685789D03*
X132205097Y-95039343D03*
X132558651Y-95392896D03*
X132912204Y-95746449D03*
X133265757Y-96100003D03*
X133619311Y-96453556D03*
X133972864Y-96807110D03*
D40*
X134945136Y-96807110D03*
X135298689Y-96453556D03*
X135652243Y-96100003D03*
X136005796Y-95746449D03*
X136359349Y-95392896D03*
X136712903Y-95039343D03*
X137066456Y-94685789D03*
X137420010Y-94332236D03*
D39*
X137420010Y-93359964D03*
X137066456Y-93006411D03*
X136712903Y-92652857D03*
X136359349Y-92299304D03*
X136005796Y-91945751D03*
X135652243Y-91592197D03*
X135298689Y-91238644D03*
X134945136Y-90885090D03*
D40*
X133972864Y-90885090D03*
X133619311Y-91238644D03*
X133265757Y-91592197D03*
X132912204Y-91945751D03*
X132558651Y-92299304D03*
X132205097Y-92652857D03*
X131851544Y-93006411D03*
X131497990Y-93359964D03*
D41*
X134459000Y-93846100D03*
G04 #@! TD*
D38*
G04 #@! TO.C,C14*
X149280000Y-83080000D03*
X149280000Y-86030000D03*
G04 #@! TD*
D35*
G04 #@! TO.C,R9*
X145240000Y-93430000D03*
X145240000Y-91780000D03*
G04 #@! TD*
D42*
G04 #@! TO.C,J3*
X139550000Y-94170000D03*
D43*
X139550000Y-95170000D03*
G04 #@! TD*
D31*
G04 #@! TO.C,C7*
X143760000Y-93380000D03*
X143760000Y-91830000D03*
G04 #@! TD*
D44*
G04 #@! TO.C,SW3*
X137160000Y-106680000D03*
X129540000Y-91440000D03*
D45*
X137160000Y-99060000D03*
X137160000Y-104140000D03*
X129540000Y-99060000D03*
X129540000Y-104140000D03*
G04 #@! TD*
D44*
G04 #@! TO.C,SW2*
X149860000Y-106680000D03*
X142240000Y-91440000D03*
D45*
X149860000Y-99060000D03*
X149860000Y-104140000D03*
X142240000Y-99060000D03*
X142240000Y-104140000D03*
G04 #@! TD*
D46*
G04 #@! TO.C,SW1*
X149360000Y-88770000D03*
D47*
X144360000Y-88770000D03*
X146860000Y-88770000D03*
D48*
X141260000Y-81270000D03*
X152280000Y-81270000D03*
D47*
X144360000Y-74270000D03*
X149360000Y-74270000D03*
G04 #@! TD*
D44*
G04 #@! TO.C,SW5*
X137160000Y-88900000D03*
X129540000Y-73660000D03*
D45*
X137160000Y-81280000D03*
X137160000Y-86360000D03*
X129540000Y-81280000D03*
X129540000Y-86360000D03*
G04 #@! TD*
%LPD*%
M02*
