G04 #@! TF.GenerationSoftware,KiCad,Pcbnew,9.0.2*
G04 #@! TF.CreationDate,2025-12-31T10:57:56+01:00*
G04 #@! TF.ProjectId,synthmate_L432,73796e74-686d-4617-9465-5f4c3433322e,rev?*
G04 #@! TF.SameCoordinates,Original*
G04 #@! TF.FileFunction,OtherDrawing,Comment*
%FSLAX46Y46*%
G04 Gerber Fmt 4.6, Leading zero omitted, Abs format (unit mm)*
G04 Created by KiCad (PCBNEW 9.0.2) date 2025-12-31 10:57:56*
%MOMM*%
%LPD*%
G01*
G04 APERTURE LIST*
%ADD10C,0.100000*%
G04 APERTURE END LIST*
D10*
X139594285Y-71098890D02*
X139594285Y-71598890D01*
X139594285Y-71598890D02*
X139403809Y-71598890D01*
X139403809Y-71598890D02*
X139356190Y-71575080D01*
X139356190Y-71575080D02*
X139332380Y-71551271D01*
X139332380Y-71551271D02*
X139308571Y-71503652D01*
X139308571Y-71503652D02*
X139308571Y-71432223D01*
X139308571Y-71432223D02*
X139332380Y-71384604D01*
X139332380Y-71384604D02*
X139356190Y-71360795D01*
X139356190Y-71360795D02*
X139403809Y-71336985D01*
X139403809Y-71336985D02*
X139594285Y-71336985D01*
X138808571Y-71146509D02*
X138832380Y-71122700D01*
X138832380Y-71122700D02*
X138903809Y-71098890D01*
X138903809Y-71098890D02*
X138951428Y-71098890D01*
X138951428Y-71098890D02*
X139022856Y-71122700D01*
X139022856Y-71122700D02*
X139070475Y-71170319D01*
X139070475Y-71170319D02*
X139094285Y-71217938D01*
X139094285Y-71217938D02*
X139118094Y-71313176D01*
X139118094Y-71313176D02*
X139118094Y-71384604D01*
X139118094Y-71384604D02*
X139094285Y-71479842D01*
X139094285Y-71479842D02*
X139070475Y-71527461D01*
X139070475Y-71527461D02*
X139022856Y-71575080D01*
X139022856Y-71575080D02*
X138951428Y-71598890D01*
X138951428Y-71598890D02*
X138903809Y-71598890D01*
X138903809Y-71598890D02*
X138832380Y-71575080D01*
X138832380Y-71575080D02*
X138808571Y-71551271D01*
X138427618Y-71360795D02*
X138356190Y-71336985D01*
X138356190Y-71336985D02*
X138332380Y-71313176D01*
X138332380Y-71313176D02*
X138308571Y-71265557D01*
X138308571Y-71265557D02*
X138308571Y-71194128D01*
X138308571Y-71194128D02*
X138332380Y-71146509D01*
X138332380Y-71146509D02*
X138356190Y-71122700D01*
X138356190Y-71122700D02*
X138403809Y-71098890D01*
X138403809Y-71098890D02*
X138594285Y-71098890D01*
X138594285Y-71098890D02*
X138594285Y-71598890D01*
X138594285Y-71598890D02*
X138427618Y-71598890D01*
X138427618Y-71598890D02*
X138379999Y-71575080D01*
X138379999Y-71575080D02*
X138356190Y-71551271D01*
X138356190Y-71551271D02*
X138332380Y-71503652D01*
X138332380Y-71503652D02*
X138332380Y-71456033D01*
X138332380Y-71456033D02*
X138356190Y-71408414D01*
X138356190Y-71408414D02*
X138379999Y-71384604D01*
X138379999Y-71384604D02*
X138427618Y-71360795D01*
X138427618Y-71360795D02*
X138594285Y-71360795D01*
X137713333Y-71360795D02*
X137546666Y-71360795D01*
X137475238Y-71098890D02*
X137713333Y-71098890D01*
X137713333Y-71098890D02*
X137713333Y-71598890D01*
X137713333Y-71598890D02*
X137475238Y-71598890D01*
X137046666Y-71098890D02*
X137046666Y-71598890D01*
X137046666Y-71122700D02*
X137094285Y-71098890D01*
X137094285Y-71098890D02*
X137189523Y-71098890D01*
X137189523Y-71098890D02*
X137237142Y-71122700D01*
X137237142Y-71122700D02*
X137260952Y-71146509D01*
X137260952Y-71146509D02*
X137284761Y-71194128D01*
X137284761Y-71194128D02*
X137284761Y-71336985D01*
X137284761Y-71336985D02*
X137260952Y-71384604D01*
X137260952Y-71384604D02*
X137237142Y-71408414D01*
X137237142Y-71408414D02*
X137189523Y-71432223D01*
X137189523Y-71432223D02*
X137094285Y-71432223D01*
X137094285Y-71432223D02*
X137046666Y-71408414D01*
X136594285Y-71432223D02*
X136594285Y-71027461D01*
X136594285Y-71027461D02*
X136618095Y-70979842D01*
X136618095Y-70979842D02*
X136641904Y-70956033D01*
X136641904Y-70956033D02*
X136689523Y-70932223D01*
X136689523Y-70932223D02*
X136760952Y-70932223D01*
X136760952Y-70932223D02*
X136808571Y-70956033D01*
X136594285Y-71122700D02*
X136641904Y-71098890D01*
X136641904Y-71098890D02*
X136737142Y-71098890D01*
X136737142Y-71098890D02*
X136784761Y-71122700D01*
X136784761Y-71122700D02*
X136808571Y-71146509D01*
X136808571Y-71146509D02*
X136832380Y-71194128D01*
X136832380Y-71194128D02*
X136832380Y-71336985D01*
X136832380Y-71336985D02*
X136808571Y-71384604D01*
X136808571Y-71384604D02*
X136784761Y-71408414D01*
X136784761Y-71408414D02*
X136737142Y-71432223D01*
X136737142Y-71432223D02*
X136641904Y-71432223D01*
X136641904Y-71432223D02*
X136594285Y-71408414D01*
X136165714Y-71122700D02*
X136213333Y-71098890D01*
X136213333Y-71098890D02*
X136308571Y-71098890D01*
X136308571Y-71098890D02*
X136356190Y-71122700D01*
X136356190Y-71122700D02*
X136379999Y-71170319D01*
X136379999Y-71170319D02*
X136379999Y-71360795D01*
X136379999Y-71360795D02*
X136356190Y-71408414D01*
X136356190Y-71408414D02*
X136308571Y-71432223D01*
X136308571Y-71432223D02*
X136213333Y-71432223D01*
X136213333Y-71432223D02*
X136165714Y-71408414D01*
X136165714Y-71408414D02*
X136141904Y-71360795D01*
X136141904Y-71360795D02*
X136141904Y-71313176D01*
X136141904Y-71313176D02*
X136379999Y-71265557D01*
G04 #@! TO.C,J1*
X132880000Y-70750000D02*
X142880000Y-70750000D01*
G04 #@! TD*
M02*
