M48
; DRILL file {KiCad 9.0.2} date 2025-12-31T10:57:56+0100
; FORMAT={-:-/ absolute / metric / decimal}
; #@! TF.CreationDate,2025-12-31T10:57:56+01:00
; #@! TF.GenerationSoftware,Kicad,Pcbnew,9.0.2
; #@! TF.FileFunction,Plated,1,4,PTH
FMAT,2
METRIC
; #@! TA.AperFunction,Plated,PTH,ViaDrill
T1C0.300
; #@! TA.AperFunction,Plated,PTH,ComponentDrill
T2C0.500
; #@! TA.AperFunction,Plated,PTH,ComponentDrill
T3C0.600
; #@! TA.AperFunction,Plated,PTH,ComponentDrill
T4C0.900
; #@! TA.AperFunction,Plated,PTH,ComponentDrill
T5C1.000
; #@! TA.AperFunction,Plated,PTH,ComponentDrill
T6C1.500
%
G90
G05
T1
X127.751Y-85.305
X128.601Y-95.632
X129.493Y-96.67
X129.493Y-96.67
X130.18Y-87.75
X130.42Y-94.8
X130.44Y-93.79
X130.737Y-96.442
X130.74Y-90.819
X131.04Y-95.82
X131.088Y-84.385
X131.24Y-101.77
X131.24Y-91.741
X131.415Y-98.015
X131.415Y-98.015
X131.46Y-105.411
X131.76Y-87.98
X131.785Y-80.16
X131.82Y-83.25
X132.039Y-91.059
X132.074Y-96.584
X132.074Y-96.584
X132.08Y-88.79
X132.43Y-75.16
X132.6Y-90.53
X132.738Y-89.033
X132.76Y-101.965
X133.583Y-83.833
X133.652Y-98.619
X133.67Y-93.846
X133.83Y-80.92
X133.955Y-97.582
X133.999Y-88.007
X134.02Y-87.15
X134.17Y-78.91
X134.176Y-99.073
X134.358Y-88.703
X134.55Y-93.89
X134.641Y-97.254
X134.858Y-90.228
X135.25Y-93.846
X135.25Y-105.56
X135.445Y-88.37
X135.791Y-97.344
X135.979Y-100.129
X136.06Y-102.4
X136.69Y-83.833
X137.219Y-97.198
X137.834Y-92.239
X137.834Y-92.239
X137.89Y-80.16
X138.05Y-101.15
X138.17Y-99.06
X138.174Y-93.822
X138.174Y-93.822
X138.312Y-89.222
X138.55Y-83.37
X138.586Y-86.63
X138.66Y-93.39
X139.07Y-106.07
X139.17Y-104.49
X139.66Y-93.24
X139.86Y-81.92
X139.905Y-83.882
X140.67Y-96.92
X140.843Y-99.831
X140.937Y-98.648
X141.36Y-88.07
X141.505Y-78.735
X142.25Y-95.52
X142.25Y-97.22
X142.727Y-93.15
X142.743Y-100.453
X142.769Y-102.596
X143.21Y-78.64
X144.62Y-80.33
X145.12Y-80.864
X145.27Y-86.62
X145.62Y-105.36
X145.97Y-97.7
X146.47Y-80.69
X146.67Y-102.74
X146.67Y-84.16
X146.73Y-94.18
X146.92Y-76.2
X146.944Y-84.749
X147.13Y-87.51
X147.49Y-81.49
X147.972Y-103.64
X148.02Y-86.1
X148.08Y-76.27
X148.27Y-98.44
X148.28Y-91.08
X148.92Y-82.16
X149.73Y-80.8
X149.804Y-97.201
X149.93Y-100.26
X150.37Y-95.63
X150.97Y-74.51
T2
X139.55Y-94.17
X139.55Y-95.17
T4
X129.54Y-81.28
X129.54Y-86.36
X129.54Y-99.06
X129.54Y-104.14
X137.16Y-81.28
X137.16Y-86.36
X137.16Y-99.06
X137.16Y-104.14
X142.24Y-99.06
X142.24Y-104.14
X149.86Y-99.06
X149.86Y-104.14
T5
X144.36Y-74.27
X144.36Y-88.77
X146.86Y-88.77
X149.36Y-74.27
X149.36Y-88.77
X151.61Y-97.98
X151.61Y-100.52
X151.61Y-103.06
X151.61Y-105.6
T3
G00X133.56Y-73.75
M15
G01X133.56Y-72.95
M16
G05
G00X133.56Y-78.08
M15
G01X133.56Y-76.98
M16
G05
G00X142.2Y-73.75
M15
G01X142.2Y-72.95
M16
G05
G00X142.2Y-78.08
M15
G01X142.2Y-76.98
M16
G05
T6
G00X141.26Y-81.92
M15
G01X141.26Y-80.62
M16
G05
G00X152.28Y-81.92
M15
G01X152.28Y-80.62
M16
G05
M30
