%TF.GenerationSoftware,KiCad,Pcbnew,9.0.2*%
%TF.CreationDate,2025-12-31T10:57:56+01:00*%
%TF.ProjectId,synthmate_L432,73796e74-686d-4617-9465-5f4c3433322e,rev?*%
%TF.SameCoordinates,Original*%
%TF.FileFunction,Drillmap*%
%TF.FilePolarity,Positive*%
%FSLAX45Y45*%
G04 Gerber Fmt 4.5, Leading zero omitted, Abs format (unit mm)*
G04 Created by KiCad (PCBNEW 9.0.2) date 2025-12-31 10:57:56*
%MOMM*%
%LPD*%
G01*
G04 APERTURE LIST*
%ADD10C,0.050000*%
%ADD11C,0.200000*%
%ADD12C,0.100000*%
%ADD13C,0.150000*%
G04 APERTURE END LIST*
D10*
X12582000Y-7278000D02*
X12582000Y-10678000D01*
X15382000Y-10678000D02*
X15382000Y-7278000D01*
X12782000Y-10878000D02*
X15182000Y-10878000D01*
X15182000Y-7078000D02*
G75*
G02*
X15382000Y-7278000I0J-200000D01*
G01*
X15382000Y-10678000D02*
G75*
G02*
X15182000Y-10878000I-200000J0D01*
G01*
X12782000Y-10878000D02*
G75*
G02*
X12582000Y-10678000I0J200000D01*
G01*
X12582000Y-7278000D02*
G75*
G02*
X12782000Y-7078000I200000J0D01*
G01*
X12782000Y-7078000D02*
X15182000Y-7078000D01*
D11*
D12*
X12760090Y-8515530D02*
X12790090Y-8545530D01*
X12790090Y-8515530D02*
X12760090Y-8545530D01*
X12845110Y-9548170D02*
X12875110Y-9578170D01*
X12875110Y-9548170D02*
X12845110Y-9578170D01*
X12934300Y-9652000D02*
X12964300Y-9682000D01*
X12964300Y-9652000D02*
X12934300Y-9682000D01*
X12934336Y-9652000D02*
X12964336Y-9682000D01*
X12964336Y-9652000D02*
X12934336Y-9682000D01*
X13003000Y-8760000D02*
X13033000Y-8790000D01*
X13033000Y-8760000D02*
X13003000Y-8790000D01*
X13027000Y-9465000D02*
X13057000Y-9495000D01*
X13057000Y-9465000D02*
X13027000Y-9495000D01*
X13029000Y-9364000D02*
X13059000Y-9394000D01*
X13059000Y-9364000D02*
X13029000Y-9394000D01*
X13058670Y-9629170D02*
X13088670Y-9659170D01*
X13088670Y-9629170D02*
X13058670Y-9659170D01*
X13059020Y-9066850D02*
X13089020Y-9096850D01*
X13089020Y-9066850D02*
X13059020Y-9096850D01*
X13089000Y-9567000D02*
X13119000Y-9597000D01*
X13119000Y-9567000D02*
X13089000Y-9597000D01*
X13093800Y-8423520D02*
X13123800Y-8453520D01*
X13123800Y-8423520D02*
X13093800Y-8453520D01*
X13109000Y-10162000D02*
X13139000Y-10192000D01*
X13139000Y-10162000D02*
X13109000Y-10192000D01*
X13109040Y-9159120D02*
X13139040Y-9189120D01*
X13139040Y-9159120D02*
X13109040Y-9189120D01*
X13126500Y-9786500D02*
X13156500Y-9816500D01*
X13156500Y-9786500D02*
X13126500Y-9816500D01*
X13126543Y-9786500D02*
X13156543Y-9816500D01*
X13156543Y-9786500D02*
X13126543Y-9816500D01*
X13131000Y-10526120D02*
X13161000Y-10556120D01*
X13161000Y-10526120D02*
X13131000Y-10556120D01*
X13161000Y-8783000D02*
X13191000Y-8813000D01*
X13191000Y-8783000D02*
X13161000Y-8813000D01*
X13163500Y-8001000D02*
X13193500Y-8031000D01*
X13193500Y-8001000D02*
X13163500Y-8031000D01*
X13167000Y-8310000D02*
X13197000Y-8340000D01*
X13197000Y-8310000D02*
X13167000Y-8340000D01*
X13188870Y-9090870D02*
X13218870Y-9120870D01*
X13218870Y-9090870D02*
X13188870Y-9120870D01*
X13192400Y-9643430D02*
X13222400Y-9673430D01*
X13222400Y-9643430D02*
X13192400Y-9673430D01*
X13192433Y-9643433D02*
X13222433Y-9673433D01*
X13222433Y-9643433D02*
X13192433Y-9673433D01*
X13193000Y-8864000D02*
X13223000Y-8894000D01*
X13223000Y-8864000D02*
X13193000Y-8894000D01*
X13228000Y-7501000D02*
X13258000Y-7531000D01*
X13258000Y-7501000D02*
X13228000Y-7531000D01*
X13245000Y-9038000D02*
X13275000Y-9068000D01*
X13275000Y-9038000D02*
X13245000Y-9068000D01*
X13258830Y-8888270D02*
X13288830Y-8918270D01*
X13288830Y-8888270D02*
X13258830Y-8918270D01*
X13261000Y-10181450D02*
X13291000Y-10211450D01*
X13291000Y-10181450D02*
X13261000Y-10211450D01*
X13343260Y-8368260D02*
X13373260Y-8398260D01*
X13373260Y-8368260D02*
X13343260Y-8398260D01*
X13350230Y-9846880D02*
X13380230Y-9876880D01*
X13380230Y-9846880D02*
X13350230Y-9876880D01*
X13352000Y-9369610D02*
X13382000Y-9399610D01*
X13382000Y-9369610D02*
X13352000Y-9399610D01*
X13368000Y-8077000D02*
X13398000Y-8107000D01*
X13398000Y-8077000D02*
X13368000Y-8107000D01*
X13380540Y-9743210D02*
X13410540Y-9773210D01*
X13410540Y-9743210D02*
X13380540Y-9773210D01*
X13384930Y-8785700D02*
X13414930Y-8815700D01*
X13414930Y-8785700D02*
X13384930Y-8815700D01*
X13387000Y-8700000D02*
X13417000Y-8730000D01*
X13417000Y-8700000D02*
X13387000Y-8730000D01*
X13402000Y-7876000D02*
X13432000Y-7906000D01*
X13432000Y-7876000D02*
X13402000Y-7906000D01*
X13402570Y-9892270D02*
X13432570Y-9922270D01*
X13432570Y-9892270D02*
X13402570Y-9922270D01*
X13420760Y-8855350D02*
X13450760Y-8885350D01*
X13450760Y-8855350D02*
X13420760Y-8885350D01*
X13440000Y-9374000D02*
X13470000Y-9404000D01*
X13470000Y-9374000D02*
X13440000Y-9404000D01*
X13449140Y-9710410D02*
X13479140Y-9740410D01*
X13479140Y-9710410D02*
X13449140Y-9740410D01*
X13470770Y-9007790D02*
X13500770Y-9037790D01*
X13500770Y-9007790D02*
X13470770Y-9037790D01*
X13510000Y-9369610D02*
X13540000Y-9399610D01*
X13540000Y-9369610D02*
X13510000Y-9399610D01*
X13510000Y-10541000D02*
X13540000Y-10571000D01*
X13540000Y-10541000D02*
X13510000Y-10571000D01*
X13529450Y-8822040D02*
X13559450Y-8852040D01*
X13559450Y-8822040D02*
X13529450Y-8852040D01*
X13564110Y-9719390D02*
X13594110Y-9749390D01*
X13594110Y-9719390D02*
X13564110Y-9749390D01*
X13582920Y-9997850D02*
X13612920Y-10027850D01*
X13612920Y-9997850D02*
X13582920Y-10027850D01*
X13591000Y-10225000D02*
X13621000Y-10255000D01*
X13621000Y-10225000D02*
X13591000Y-10255000D01*
X13654000Y-8368260D02*
X13684000Y-8398260D01*
X13684000Y-8368260D02*
X13654000Y-8398260D01*
X13706950Y-9704820D02*
X13736950Y-9734820D01*
X13736950Y-9704820D02*
X13706950Y-9734820D01*
X13768392Y-9208894D02*
X13798392Y-9238894D01*
X13798392Y-9208894D02*
X13768392Y-9238894D01*
X13768400Y-9208890D02*
X13798400Y-9238890D01*
X13798400Y-9208890D02*
X13768400Y-9238890D01*
X13774000Y-8001000D02*
X13804000Y-8031000D01*
X13804000Y-8001000D02*
X13774000Y-8031000D01*
X13790000Y-10100000D02*
X13820000Y-10130000D01*
X13820000Y-10100000D02*
X13790000Y-10130000D01*
X13802000Y-9891000D02*
X13832000Y-9921000D01*
X13832000Y-9891000D02*
X13802000Y-9921000D01*
X13802400Y-9367180D02*
X13832400Y-9397180D01*
X13832400Y-9367180D02*
X13802400Y-9397180D01*
X13802418Y-9367184D02*
X13832418Y-9397184D01*
X13832418Y-9367184D02*
X13802418Y-9397184D01*
X13816220Y-8907190D02*
X13846220Y-8937190D01*
X13846220Y-8907190D02*
X13816220Y-8937190D01*
X13840000Y-8322000D02*
X13870000Y-8352000D01*
X13870000Y-8322000D02*
X13840000Y-8352000D01*
X13843630Y-8647980D02*
X13873630Y-8677980D01*
X13873630Y-8647980D02*
X13843630Y-8677980D01*
X13851000Y-9324000D02*
X13881000Y-9354000D01*
X13881000Y-9324000D02*
X13851000Y-9354000D01*
X13892000Y-10592000D02*
X13922000Y-10622000D01*
X13922000Y-10592000D02*
X13892000Y-10622000D01*
X13902000Y-10434000D02*
X13932000Y-10464000D01*
X13932000Y-10434000D02*
X13902000Y-10464000D01*
X13951000Y-9309000D02*
X13981000Y-9339000D01*
X13981000Y-9309000D02*
X13951000Y-9339000D01*
X13971000Y-8177000D02*
X14001000Y-8207000D01*
X14001000Y-8177000D02*
X13971000Y-8207000D01*
X13975500Y-8373250D02*
X14005500Y-8403250D01*
X14005500Y-8373250D02*
X13975500Y-8403250D01*
X14052000Y-9677000D02*
X14082000Y-9707000D01*
X14082000Y-9677000D02*
X14052000Y-9707000D01*
X14069260Y-9968150D02*
X14099260Y-9998150D01*
X14099260Y-9968150D02*
X14069260Y-9998150D01*
X14078690Y-9849790D02*
X14108690Y-9879790D01*
X14108690Y-9849790D02*
X14078690Y-9879790D01*
X14121000Y-8792000D02*
X14151000Y-8822000D01*
X14151000Y-8792000D02*
X14121000Y-8822000D01*
X14135500Y-7858500D02*
X14165500Y-7888500D01*
X14165500Y-7858500D02*
X14135500Y-7888500D01*
X14210000Y-9537000D02*
X14240000Y-9567000D01*
X14240000Y-9537000D02*
X14210000Y-9567000D01*
X14210000Y-9707000D02*
X14240000Y-9737000D01*
X14240000Y-9707000D02*
X14210000Y-9737000D01*
X14257710Y-9299990D02*
X14287710Y-9329990D01*
X14287710Y-9299990D02*
X14257710Y-9329990D01*
X14259320Y-10030280D02*
X14289320Y-10060280D01*
X14289320Y-10030280D02*
X14259320Y-10060280D01*
X14261860Y-10244580D02*
X14291860Y-10274580D01*
X14291860Y-10244580D02*
X14261860Y-10274580D01*
X14306000Y-7849000D02*
X14336000Y-7879000D01*
X14336000Y-7849000D02*
X14306000Y-7879000D01*
X14447000Y-8018000D02*
X14477000Y-8048000D01*
X14477000Y-8018000D02*
X14447000Y-8048000D01*
X14497020Y-8071430D02*
X14527020Y-8101430D01*
X14527020Y-8071430D02*
X14497020Y-8101430D01*
X14512000Y-8647000D02*
X14542000Y-8677000D01*
X14542000Y-8647000D02*
X14512000Y-8677000D01*
X14547000Y-10521000D02*
X14577000Y-10551000D01*
X14577000Y-10521000D02*
X14547000Y-10551000D01*
X14582000Y-9755000D02*
X14612000Y-9785000D01*
X14612000Y-9755000D02*
X14582000Y-9785000D01*
X14632000Y-8054000D02*
X14662000Y-8084000D01*
X14662000Y-8054000D02*
X14632000Y-8084000D01*
X14652000Y-10259000D02*
X14682000Y-10289000D01*
X14682000Y-10259000D02*
X14652000Y-10289000D01*
X14652000Y-8401000D02*
X14682000Y-8431000D01*
X14682000Y-8401000D02*
X14652000Y-8431000D01*
X14658000Y-9403000D02*
X14688000Y-9433000D01*
X14688000Y-9403000D02*
X14658000Y-9433000D01*
X14677000Y-7605000D02*
X14707000Y-7635000D01*
X14707000Y-7605000D02*
X14677000Y-7635000D01*
X14679432Y-8459928D02*
X14709432Y-8489928D01*
X14709432Y-8459928D02*
X14679432Y-8489928D01*
X14698000Y-8736000D02*
X14728000Y-8766000D01*
X14728000Y-8736000D02*
X14698000Y-8766000D01*
X14734000Y-8134000D02*
X14764000Y-8164000D01*
X14764000Y-8134000D02*
X14734000Y-8164000D01*
X14782181Y-10349000D02*
X14812181Y-10379000D01*
X14812181Y-10349000D02*
X14782181Y-10379000D01*
X14787000Y-8595000D02*
X14817000Y-8625000D01*
X14817000Y-8595000D02*
X14787000Y-8625000D01*
X14793000Y-7612000D02*
X14823000Y-7642000D01*
X14823000Y-7612000D02*
X14793000Y-7642000D01*
X14812000Y-9829000D02*
X14842000Y-9859000D01*
X14842000Y-9829000D02*
X14812000Y-9859000D01*
X14813000Y-9093000D02*
X14843000Y-9123000D01*
X14843000Y-9093000D02*
X14813000Y-9123000D01*
X14877000Y-8201000D02*
X14907000Y-8231000D01*
X14907000Y-8201000D02*
X14877000Y-8231000D01*
X14958000Y-8065000D02*
X14988000Y-8095000D01*
X14988000Y-8065000D02*
X14958000Y-8095000D01*
X14965442Y-9705054D02*
X14995442Y-9735054D01*
X14995442Y-9705054D02*
X14965442Y-9735054D01*
X14978000Y-10011000D02*
X15008000Y-10041000D01*
X15008000Y-10011000D02*
X14978000Y-10041000D01*
X15022000Y-9548000D02*
X15052000Y-9578000D01*
X15052000Y-9548000D02*
X15022000Y-9578000D01*
X15082000Y-7436000D02*
X15112000Y-7466000D01*
X15112000Y-7436000D02*
X15082000Y-7466000D01*
X13980000Y-9417000D02*
G75*
G02*
X13930000Y-9417000I-25000J0D01*
G01*
X13930000Y-9417000D02*
G75*
G02*
X13980000Y-9417000I25000J0D01*
G01*
X13980000Y-9517000D02*
G75*
G02*
X13930000Y-9517000I-25000J0D01*
G01*
X13930000Y-9517000D02*
G75*
G02*
X13980000Y-9517000I25000J0D01*
G01*
X13356000Y-7305000D02*
X13356000Y-7365000D01*
X13326000Y-7335000D02*
X13386000Y-7335000D01*
X13386000Y-7375000D02*
X13386000Y-7295000D01*
X13326000Y-7295000D02*
G75*
G02*
X13386000Y-7295000I30000J0D01*
G01*
X13326000Y-7295000D02*
X13326000Y-7375000D01*
X13326000Y-7375000D02*
G75*
G03*
X13386000Y-7375000I30000J0D01*
G01*
X13356000Y-7723000D02*
X13356000Y-7783000D01*
X13326000Y-7753000D02*
X13386000Y-7753000D01*
X13386000Y-7808000D02*
X13386000Y-7698000D01*
X13326000Y-7698000D02*
G75*
G02*
X13386000Y-7698000I30000J0D01*
G01*
X13326000Y-7698000D02*
X13326000Y-7808000D01*
X13326000Y-7808000D02*
G75*
G03*
X13386000Y-7808000I30000J0D01*
G01*
X14220000Y-7305000D02*
X14220000Y-7365000D01*
X14190000Y-7335000D02*
X14250000Y-7335000D01*
X14250000Y-7375000D02*
X14250000Y-7295000D01*
X14190000Y-7295000D02*
G75*
G02*
X14250000Y-7295000I30000J0D01*
G01*
X14190000Y-7295000D02*
X14190000Y-7375000D01*
X14190000Y-7375000D02*
G75*
G03*
X14250000Y-7375000I30000J0D01*
G01*
X14220000Y-7723000D02*
X14220000Y-7783000D01*
X14190000Y-7753000D02*
X14250000Y-7753000D01*
X14250000Y-7808000D02*
X14250000Y-7698000D01*
X14190000Y-7698000D02*
G75*
G02*
X14250000Y-7698000I30000J0D01*
G01*
X14190000Y-7698000D02*
X14190000Y-7808000D01*
X14190000Y-7808000D02*
G75*
G03*
X14250000Y-7808000I30000J0D01*
G01*
X12985820Y-8159820D02*
X12985820Y-8096180D01*
X12922180Y-8096180D01*
X12922180Y-8159820D01*
X12985820Y-8159820D01*
X12985820Y-8667820D02*
X12985820Y-8604180D01*
X12922180Y-8604180D01*
X12922180Y-8667820D01*
X12985820Y-8667820D01*
X12985820Y-9937820D02*
X12985820Y-9874180D01*
X12922180Y-9874180D01*
X12922180Y-9937820D01*
X12985820Y-9937820D01*
X12985820Y-10445820D02*
X12985820Y-10382180D01*
X12922180Y-10382180D01*
X12922180Y-10445820D01*
X12985820Y-10445820D01*
X13747820Y-8159820D02*
X13747820Y-8096180D01*
X13684180Y-8096180D01*
X13684180Y-8159820D01*
X13747820Y-8159820D01*
X13747820Y-8667820D02*
X13747820Y-8604180D01*
X13684180Y-8604180D01*
X13684180Y-8667820D01*
X13747820Y-8667820D01*
X13747820Y-9937820D02*
X13747820Y-9874180D01*
X13684180Y-9874180D01*
X13684180Y-9937820D01*
X13747820Y-9937820D01*
X13747820Y-10445820D02*
X13747820Y-10382180D01*
X13684180Y-10382180D01*
X13684180Y-10445820D01*
X13747820Y-10445820D01*
X14255820Y-9937820D02*
X14255820Y-9874180D01*
X14192180Y-9874180D01*
X14192180Y-9937820D01*
X14255820Y-9937820D01*
X14255820Y-10445820D02*
X14255820Y-10382180D01*
X14192180Y-10382180D01*
X14192180Y-10445820D01*
X14255820Y-10445820D01*
X15017820Y-9937820D02*
X15017820Y-9874180D01*
X14954180Y-9874180D01*
X14954180Y-9937820D01*
X15017820Y-9937820D01*
X15017820Y-10445820D02*
X15017820Y-10382180D01*
X14954180Y-10382180D01*
X14954180Y-10445820D01*
X15017820Y-10445820D01*
X14436000Y-7477000D02*
X14486000Y-7427000D01*
X14436000Y-7377000D01*
X14386000Y-7427000D01*
X14436000Y-7477000D01*
X14436000Y-8927000D02*
X14486000Y-8877000D01*
X14436000Y-8827000D01*
X14386000Y-8877000D01*
X14436000Y-8927000D01*
X14686000Y-8927000D02*
X14736000Y-8877000D01*
X14686000Y-8827000D01*
X14636000Y-8877000D01*
X14686000Y-8927000D01*
X14936000Y-7477000D02*
X14986000Y-7427000D01*
X14936000Y-7377000D01*
X14886000Y-7427000D01*
X14936000Y-7477000D01*
X14936000Y-8927000D02*
X14986000Y-8877000D01*
X14936000Y-8827000D01*
X14886000Y-8877000D01*
X14936000Y-8927000D01*
X15161000Y-9848000D02*
X15211000Y-9798000D01*
X15161000Y-9748000D01*
X15111000Y-9798000D01*
X15161000Y-9848000D01*
X15161000Y-10102000D02*
X15211000Y-10052000D01*
X15161000Y-10002000D01*
X15111000Y-10052000D01*
X15161000Y-10102000D01*
X15161000Y-10356000D02*
X15211000Y-10306000D01*
X15161000Y-10256000D01*
X15111000Y-10306000D01*
X15161000Y-10356000D01*
X15161000Y-10610000D02*
X15211000Y-10560000D01*
X15161000Y-10510000D01*
X15111000Y-10560000D01*
X15161000Y-10610000D01*
D13*
X14051000Y-8052000D02*
X14201000Y-8202000D01*
X14201000Y-8052000D02*
X14051000Y-8202000D01*
X14201000Y-8127000D02*
G75*
G02*
X14051000Y-8127000I-75000J0D01*
G01*
X14051000Y-8127000D02*
G75*
G02*
X14201000Y-8127000I75000J0D01*
G01*
D12*
X14201000Y-8192000D02*
X14201000Y-8062000D01*
X14051000Y-8062000D02*
G75*
G02*
X14201000Y-8062000I75000J0D01*
G01*
X14051000Y-8062000D02*
X14051000Y-8192000D01*
X14051000Y-8192000D02*
G75*
G03*
X14201000Y-8192000I75000J0D01*
G01*
D13*
X15153000Y-8052000D02*
X15303000Y-8202000D01*
X15303000Y-8052000D02*
X15153000Y-8202000D01*
X15303000Y-8127000D02*
G75*
G02*
X15153000Y-8127000I-75000J0D01*
G01*
X15153000Y-8127000D02*
G75*
G02*
X15303000Y-8127000I75000J0D01*
G01*
D12*
X15303000Y-8192000D02*
X15303000Y-8062000D01*
X15153000Y-8062000D02*
G75*
G02*
X15303000Y-8062000I75000J0D01*
G01*
X15153000Y-8062000D02*
X15153000Y-8192000D01*
X15153000Y-8192000D02*
G75*
G03*
X15303000Y-8192000I75000J0D01*
G01*
D11*
X12840277Y-11191984D02*
X12840277Y-10991984D01*
X12840277Y-10991984D02*
X12887896Y-10991984D01*
X12887896Y-10991984D02*
X12916467Y-11001508D01*
X12916467Y-11001508D02*
X12935515Y-11020555D01*
X12935515Y-11020555D02*
X12945039Y-11039603D01*
X12945039Y-11039603D02*
X12954562Y-11077698D01*
X12954562Y-11077698D02*
X12954562Y-11106270D01*
X12954562Y-11106270D02*
X12945039Y-11144365D01*
X12945039Y-11144365D02*
X12935515Y-11163412D01*
X12935515Y-11163412D02*
X12916467Y-11182460D01*
X12916467Y-11182460D02*
X12887896Y-11191984D01*
X12887896Y-11191984D02*
X12840277Y-11191984D01*
X13040277Y-11191984D02*
X13040277Y-11058650D01*
X13040277Y-11096746D02*
X13049801Y-11077698D01*
X13049801Y-11077698D02*
X13059324Y-11068174D01*
X13059324Y-11068174D02*
X13078372Y-11058650D01*
X13078372Y-11058650D02*
X13097420Y-11058650D01*
X13164086Y-11191984D02*
X13164086Y-11058650D01*
X13164086Y-10991984D02*
X13154562Y-11001508D01*
X13154562Y-11001508D02*
X13164086Y-11011031D01*
X13164086Y-11011031D02*
X13173610Y-11001508D01*
X13173610Y-11001508D02*
X13164086Y-10991984D01*
X13164086Y-10991984D02*
X13164086Y-11011031D01*
X13287896Y-11191984D02*
X13268848Y-11182460D01*
X13268848Y-11182460D02*
X13259324Y-11163412D01*
X13259324Y-11163412D02*
X13259324Y-10991984D01*
X13392658Y-11191984D02*
X13373610Y-11182460D01*
X13373610Y-11182460D02*
X13364086Y-11163412D01*
X13364086Y-11163412D02*
X13364086Y-10991984D01*
X13621229Y-11191984D02*
X13621229Y-10991984D01*
X13621229Y-10991984D02*
X13687896Y-11134841D01*
X13687896Y-11134841D02*
X13754562Y-10991984D01*
X13754562Y-10991984D02*
X13754562Y-11191984D01*
X13935515Y-11191984D02*
X13935515Y-11087222D01*
X13935515Y-11087222D02*
X13925991Y-11068174D01*
X13925991Y-11068174D02*
X13906943Y-11058650D01*
X13906943Y-11058650D02*
X13868848Y-11058650D01*
X13868848Y-11058650D02*
X13849801Y-11068174D01*
X13935515Y-11182460D02*
X13916467Y-11191984D01*
X13916467Y-11191984D02*
X13868848Y-11191984D01*
X13868848Y-11191984D02*
X13849801Y-11182460D01*
X13849801Y-11182460D02*
X13840277Y-11163412D01*
X13840277Y-11163412D02*
X13840277Y-11144365D01*
X13840277Y-11144365D02*
X13849801Y-11125317D01*
X13849801Y-11125317D02*
X13868848Y-11115793D01*
X13868848Y-11115793D02*
X13916467Y-11115793D01*
X13916467Y-11115793D02*
X13935515Y-11106270D01*
X14030753Y-11058650D02*
X14030753Y-11258650D01*
X14030753Y-11068174D02*
X14049801Y-11058650D01*
X14049801Y-11058650D02*
X14087896Y-11058650D01*
X14087896Y-11058650D02*
X14106943Y-11068174D01*
X14106943Y-11068174D02*
X14116467Y-11077698D01*
X14116467Y-11077698D02*
X14125991Y-11096746D01*
X14125991Y-11096746D02*
X14125991Y-11153889D01*
X14125991Y-11153889D02*
X14116467Y-11172936D01*
X14116467Y-11172936D02*
X14106943Y-11182460D01*
X14106943Y-11182460D02*
X14087896Y-11191984D01*
X14087896Y-11191984D02*
X14049801Y-11191984D01*
X14049801Y-11191984D02*
X14030753Y-11182460D01*
X14211705Y-11172936D02*
X14221229Y-11182460D01*
X14221229Y-11182460D02*
X14211705Y-11191984D01*
X14211705Y-11191984D02*
X14202182Y-11182460D01*
X14202182Y-11182460D02*
X14211705Y-11172936D01*
X14211705Y-11172936D02*
X14211705Y-11191984D01*
X14211705Y-11068174D02*
X14221229Y-11077698D01*
X14221229Y-11077698D02*
X14211705Y-11087222D01*
X14211705Y-11087222D02*
X14202182Y-11077698D01*
X14202182Y-11077698D02*
X14211705Y-11068174D01*
X14211705Y-11068174D02*
X14211705Y-11087222D01*
D12*
X12549500Y-11505500D02*
X12579500Y-11535500D01*
X12579500Y-11505500D02*
X12549500Y-11535500D01*
D11*
X12878372Y-11411984D02*
X12897420Y-11411984D01*
X12897420Y-11411984D02*
X12916467Y-11421508D01*
X12916467Y-11421508D02*
X12925991Y-11431031D01*
X12925991Y-11431031D02*
X12935515Y-11450079D01*
X12935515Y-11450079D02*
X12945039Y-11488174D01*
X12945039Y-11488174D02*
X12945039Y-11535793D01*
X12945039Y-11535793D02*
X12935515Y-11573888D01*
X12935515Y-11573888D02*
X12925991Y-11592936D01*
X12925991Y-11592936D02*
X12916467Y-11602460D01*
X12916467Y-11602460D02*
X12897420Y-11611984D01*
X12897420Y-11611984D02*
X12878372Y-11611984D01*
X12878372Y-11611984D02*
X12859324Y-11602460D01*
X12859324Y-11602460D02*
X12849801Y-11592936D01*
X12849801Y-11592936D02*
X12840277Y-11573888D01*
X12840277Y-11573888D02*
X12830753Y-11535793D01*
X12830753Y-11535793D02*
X12830753Y-11488174D01*
X12830753Y-11488174D02*
X12840277Y-11450079D01*
X12840277Y-11450079D02*
X12849801Y-11431031D01*
X12849801Y-11431031D02*
X12859324Y-11421508D01*
X12859324Y-11421508D02*
X12878372Y-11411984D01*
X13030753Y-11592936D02*
X13040277Y-11602460D01*
X13040277Y-11602460D02*
X13030753Y-11611984D01*
X13030753Y-11611984D02*
X13021229Y-11602460D01*
X13021229Y-11602460D02*
X13030753Y-11592936D01*
X13030753Y-11592936D02*
X13030753Y-11611984D01*
X13106943Y-11411984D02*
X13230753Y-11411984D01*
X13230753Y-11411984D02*
X13164086Y-11488174D01*
X13164086Y-11488174D02*
X13192658Y-11488174D01*
X13192658Y-11488174D02*
X13211705Y-11497698D01*
X13211705Y-11497698D02*
X13221229Y-11507222D01*
X13221229Y-11507222D02*
X13230753Y-11526269D01*
X13230753Y-11526269D02*
X13230753Y-11573888D01*
X13230753Y-11573888D02*
X13221229Y-11592936D01*
X13221229Y-11592936D02*
X13211705Y-11602460D01*
X13211705Y-11602460D02*
X13192658Y-11611984D01*
X13192658Y-11611984D02*
X13135515Y-11611984D01*
X13135515Y-11611984D02*
X13116467Y-11602460D01*
X13116467Y-11602460D02*
X13106943Y-11592936D01*
X13354562Y-11411984D02*
X13373610Y-11411984D01*
X13373610Y-11411984D02*
X13392658Y-11421508D01*
X13392658Y-11421508D02*
X13402182Y-11431031D01*
X13402182Y-11431031D02*
X13411705Y-11450079D01*
X13411705Y-11450079D02*
X13421229Y-11488174D01*
X13421229Y-11488174D02*
X13421229Y-11535793D01*
X13421229Y-11535793D02*
X13411705Y-11573888D01*
X13411705Y-11573888D02*
X13402182Y-11592936D01*
X13402182Y-11592936D02*
X13392658Y-11602460D01*
X13392658Y-11602460D02*
X13373610Y-11611984D01*
X13373610Y-11611984D02*
X13354562Y-11611984D01*
X13354562Y-11611984D02*
X13335515Y-11602460D01*
X13335515Y-11602460D02*
X13325991Y-11592936D01*
X13325991Y-11592936D02*
X13316467Y-11573888D01*
X13316467Y-11573888D02*
X13306943Y-11535793D01*
X13306943Y-11535793D02*
X13306943Y-11488174D01*
X13306943Y-11488174D02*
X13316467Y-11450079D01*
X13316467Y-11450079D02*
X13325991Y-11431031D01*
X13325991Y-11431031D02*
X13335515Y-11421508D01*
X13335515Y-11421508D02*
X13354562Y-11411984D01*
X13545039Y-11411984D02*
X13564086Y-11411984D01*
X13564086Y-11411984D02*
X13583134Y-11421508D01*
X13583134Y-11421508D02*
X13592658Y-11431031D01*
X13592658Y-11431031D02*
X13602182Y-11450079D01*
X13602182Y-11450079D02*
X13611705Y-11488174D01*
X13611705Y-11488174D02*
X13611705Y-11535793D01*
X13611705Y-11535793D02*
X13602182Y-11573888D01*
X13602182Y-11573888D02*
X13592658Y-11592936D01*
X13592658Y-11592936D02*
X13583134Y-11602460D01*
X13583134Y-11602460D02*
X13564086Y-11611984D01*
X13564086Y-11611984D02*
X13545039Y-11611984D01*
X13545039Y-11611984D02*
X13525991Y-11602460D01*
X13525991Y-11602460D02*
X13516467Y-11592936D01*
X13516467Y-11592936D02*
X13506943Y-11573888D01*
X13506943Y-11573888D02*
X13497420Y-11535793D01*
X13497420Y-11535793D02*
X13497420Y-11488174D01*
X13497420Y-11488174D02*
X13506943Y-11450079D01*
X13506943Y-11450079D02*
X13516467Y-11431031D01*
X13516467Y-11431031D02*
X13525991Y-11421508D01*
X13525991Y-11421508D02*
X13545039Y-11411984D01*
X13697420Y-11611984D02*
X13697420Y-11478650D01*
X13697420Y-11497698D02*
X13706943Y-11488174D01*
X13706943Y-11488174D02*
X13725991Y-11478650D01*
X13725991Y-11478650D02*
X13754563Y-11478650D01*
X13754563Y-11478650D02*
X13773610Y-11488174D01*
X13773610Y-11488174D02*
X13783134Y-11507222D01*
X13783134Y-11507222D02*
X13783134Y-11611984D01*
X13783134Y-11507222D02*
X13792658Y-11488174D01*
X13792658Y-11488174D02*
X13811705Y-11478650D01*
X13811705Y-11478650D02*
X13840277Y-11478650D01*
X13840277Y-11478650D02*
X13859324Y-11488174D01*
X13859324Y-11488174D02*
X13868848Y-11507222D01*
X13868848Y-11507222D02*
X13868848Y-11611984D01*
X13964086Y-11611984D02*
X13964086Y-11478650D01*
X13964086Y-11497698D02*
X13973610Y-11488174D01*
X13973610Y-11488174D02*
X13992658Y-11478650D01*
X13992658Y-11478650D02*
X14021229Y-11478650D01*
X14021229Y-11478650D02*
X14040277Y-11488174D01*
X14040277Y-11488174D02*
X14049801Y-11507222D01*
X14049801Y-11507222D02*
X14049801Y-11611984D01*
X14049801Y-11507222D02*
X14059324Y-11488174D01*
X14059324Y-11488174D02*
X14078372Y-11478650D01*
X14078372Y-11478650D02*
X14106943Y-11478650D01*
X14106943Y-11478650D02*
X14125991Y-11488174D01*
X14125991Y-11488174D02*
X14135515Y-11507222D01*
X14135515Y-11507222D02*
X14135515Y-11611984D01*
X14525991Y-11402460D02*
X14354563Y-11659603D01*
X14783134Y-11411984D02*
X14802182Y-11411984D01*
X14802182Y-11411984D02*
X14821229Y-11421508D01*
X14821229Y-11421508D02*
X14830753Y-11431031D01*
X14830753Y-11431031D02*
X14840277Y-11450079D01*
X14840277Y-11450079D02*
X14849801Y-11488174D01*
X14849801Y-11488174D02*
X14849801Y-11535793D01*
X14849801Y-11535793D02*
X14840277Y-11573888D01*
X14840277Y-11573888D02*
X14830753Y-11592936D01*
X14830753Y-11592936D02*
X14821229Y-11602460D01*
X14821229Y-11602460D02*
X14802182Y-11611984D01*
X14802182Y-11611984D02*
X14783134Y-11611984D01*
X14783134Y-11611984D02*
X14764086Y-11602460D01*
X14764086Y-11602460D02*
X14754563Y-11592936D01*
X14754563Y-11592936D02*
X14745039Y-11573888D01*
X14745039Y-11573888D02*
X14735515Y-11535793D01*
X14735515Y-11535793D02*
X14735515Y-11488174D01*
X14735515Y-11488174D02*
X14745039Y-11450079D01*
X14745039Y-11450079D02*
X14754563Y-11431031D01*
X14754563Y-11431031D02*
X14764086Y-11421508D01*
X14764086Y-11421508D02*
X14783134Y-11411984D01*
X14935515Y-11592936D02*
X14945039Y-11602460D01*
X14945039Y-11602460D02*
X14935515Y-11611984D01*
X14935515Y-11611984D02*
X14925991Y-11602460D01*
X14925991Y-11602460D02*
X14935515Y-11592936D01*
X14935515Y-11592936D02*
X14935515Y-11611984D01*
X15068848Y-11411984D02*
X15087896Y-11411984D01*
X15087896Y-11411984D02*
X15106944Y-11421508D01*
X15106944Y-11421508D02*
X15116467Y-11431031D01*
X15116467Y-11431031D02*
X15125991Y-11450079D01*
X15125991Y-11450079D02*
X15135515Y-11488174D01*
X15135515Y-11488174D02*
X15135515Y-11535793D01*
X15135515Y-11535793D02*
X15125991Y-11573888D01*
X15125991Y-11573888D02*
X15116467Y-11592936D01*
X15116467Y-11592936D02*
X15106944Y-11602460D01*
X15106944Y-11602460D02*
X15087896Y-11611984D01*
X15087896Y-11611984D02*
X15068848Y-11611984D01*
X15068848Y-11611984D02*
X15049801Y-11602460D01*
X15049801Y-11602460D02*
X15040277Y-11592936D01*
X15040277Y-11592936D02*
X15030753Y-11573888D01*
X15030753Y-11573888D02*
X15021229Y-11535793D01*
X15021229Y-11535793D02*
X15021229Y-11488174D01*
X15021229Y-11488174D02*
X15030753Y-11450079D01*
X15030753Y-11450079D02*
X15040277Y-11431031D01*
X15040277Y-11431031D02*
X15049801Y-11421508D01*
X15049801Y-11421508D02*
X15068848Y-11411984D01*
X15325991Y-11611984D02*
X15211706Y-11611984D01*
X15268848Y-11611984D02*
X15268848Y-11411984D01*
X15268848Y-11411984D02*
X15249801Y-11440555D01*
X15249801Y-11440555D02*
X15230753Y-11459603D01*
X15230753Y-11459603D02*
X15211706Y-11469127D01*
X15516467Y-11611984D02*
X15402182Y-11611984D01*
X15459325Y-11611984D02*
X15459325Y-11411984D01*
X15459325Y-11411984D02*
X15440277Y-11440555D01*
X15440277Y-11440555D02*
X15421229Y-11459603D01*
X15421229Y-11459603D02*
X15402182Y-11469127D01*
X15630753Y-11497698D02*
X15611706Y-11488174D01*
X15611706Y-11488174D02*
X15602182Y-11478650D01*
X15602182Y-11478650D02*
X15592658Y-11459603D01*
X15592658Y-11459603D02*
X15592658Y-11450079D01*
X15592658Y-11450079D02*
X15602182Y-11431031D01*
X15602182Y-11431031D02*
X15611706Y-11421508D01*
X15611706Y-11421508D02*
X15630753Y-11411984D01*
X15630753Y-11411984D02*
X15668848Y-11411984D01*
X15668848Y-11411984D02*
X15687896Y-11421508D01*
X15687896Y-11421508D02*
X15697420Y-11431031D01*
X15697420Y-11431031D02*
X15706944Y-11450079D01*
X15706944Y-11450079D02*
X15706944Y-11459603D01*
X15706944Y-11459603D02*
X15697420Y-11478650D01*
X15697420Y-11478650D02*
X15687896Y-11488174D01*
X15687896Y-11488174D02*
X15668848Y-11497698D01*
X15668848Y-11497698D02*
X15630753Y-11497698D01*
X15630753Y-11497698D02*
X15611706Y-11507222D01*
X15611706Y-11507222D02*
X15602182Y-11516746D01*
X15602182Y-11516746D02*
X15592658Y-11535793D01*
X15592658Y-11535793D02*
X15592658Y-11573888D01*
X15592658Y-11573888D02*
X15602182Y-11592936D01*
X15602182Y-11592936D02*
X15611706Y-11602460D01*
X15611706Y-11602460D02*
X15630753Y-11611984D01*
X15630753Y-11611984D02*
X15668848Y-11611984D01*
X15668848Y-11611984D02*
X15687896Y-11602460D01*
X15687896Y-11602460D02*
X15697420Y-11592936D01*
X15697420Y-11592936D02*
X15706944Y-11573888D01*
X15706944Y-11573888D02*
X15706944Y-11535793D01*
X15706944Y-11535793D02*
X15697420Y-11516746D01*
X15697420Y-11516746D02*
X15687896Y-11507222D01*
X15687896Y-11507222D02*
X15668848Y-11497698D01*
X15783134Y-11411984D02*
X15783134Y-11450079D01*
X15859325Y-11411984D02*
X15859325Y-11450079D01*
X16154563Y-11688174D02*
X16145039Y-11678650D01*
X16145039Y-11678650D02*
X16125991Y-11650079D01*
X16125991Y-11650079D02*
X16116468Y-11631031D01*
X16116468Y-11631031D02*
X16106944Y-11602460D01*
X16106944Y-11602460D02*
X16097420Y-11554841D01*
X16097420Y-11554841D02*
X16097420Y-11516746D01*
X16097420Y-11516746D02*
X16106944Y-11469127D01*
X16106944Y-11469127D02*
X16116468Y-11440555D01*
X16116468Y-11440555D02*
X16125991Y-11421508D01*
X16125991Y-11421508D02*
X16145039Y-11392936D01*
X16145039Y-11392936D02*
X16154563Y-11383412D01*
X16240277Y-11611984D02*
X16278372Y-11611984D01*
X16278372Y-11611984D02*
X16297420Y-11602460D01*
X16297420Y-11602460D02*
X16306944Y-11592936D01*
X16306944Y-11592936D02*
X16325991Y-11564365D01*
X16325991Y-11564365D02*
X16335515Y-11526269D01*
X16335515Y-11526269D02*
X16335515Y-11450079D01*
X16335515Y-11450079D02*
X16325991Y-11431031D01*
X16325991Y-11431031D02*
X16316468Y-11421508D01*
X16316468Y-11421508D02*
X16297420Y-11411984D01*
X16297420Y-11411984D02*
X16259325Y-11411984D01*
X16259325Y-11411984D02*
X16240277Y-11421508D01*
X16240277Y-11421508D02*
X16230753Y-11431031D01*
X16230753Y-11431031D02*
X16221229Y-11450079D01*
X16221229Y-11450079D02*
X16221229Y-11497698D01*
X16221229Y-11497698D02*
X16230753Y-11516746D01*
X16230753Y-11516746D02*
X16240277Y-11526269D01*
X16240277Y-11526269D02*
X16259325Y-11535793D01*
X16259325Y-11535793D02*
X16297420Y-11535793D01*
X16297420Y-11535793D02*
X16316468Y-11526269D01*
X16316468Y-11526269D02*
X16325991Y-11516746D01*
X16325991Y-11516746D02*
X16335515Y-11497698D01*
X16430753Y-11611984D02*
X16468848Y-11611984D01*
X16468848Y-11611984D02*
X16487896Y-11602460D01*
X16487896Y-11602460D02*
X16497420Y-11592936D01*
X16497420Y-11592936D02*
X16516468Y-11564365D01*
X16516468Y-11564365D02*
X16525991Y-11526269D01*
X16525991Y-11526269D02*
X16525991Y-11450079D01*
X16525991Y-11450079D02*
X16516468Y-11431031D01*
X16516468Y-11431031D02*
X16506944Y-11421508D01*
X16506944Y-11421508D02*
X16487896Y-11411984D01*
X16487896Y-11411984D02*
X16449801Y-11411984D01*
X16449801Y-11411984D02*
X16430753Y-11421508D01*
X16430753Y-11421508D02*
X16421229Y-11431031D01*
X16421229Y-11431031D02*
X16411706Y-11450079D01*
X16411706Y-11450079D02*
X16411706Y-11497698D01*
X16411706Y-11497698D02*
X16421229Y-11516746D01*
X16421229Y-11516746D02*
X16430753Y-11526269D01*
X16430753Y-11526269D02*
X16449801Y-11535793D01*
X16449801Y-11535793D02*
X16487896Y-11535793D01*
X16487896Y-11535793D02*
X16506944Y-11526269D01*
X16506944Y-11526269D02*
X16516468Y-11516746D01*
X16516468Y-11516746D02*
X16525991Y-11497698D01*
X16764087Y-11611984D02*
X16764087Y-11411984D01*
X16849801Y-11611984D02*
X16849801Y-11507222D01*
X16849801Y-11507222D02*
X16840277Y-11488174D01*
X16840277Y-11488174D02*
X16821230Y-11478650D01*
X16821230Y-11478650D02*
X16792658Y-11478650D01*
X16792658Y-11478650D02*
X16773610Y-11488174D01*
X16773610Y-11488174D02*
X16764087Y-11497698D01*
X16973611Y-11611984D02*
X16954563Y-11602460D01*
X16954563Y-11602460D02*
X16945039Y-11592936D01*
X16945039Y-11592936D02*
X16935515Y-11573888D01*
X16935515Y-11573888D02*
X16935515Y-11516746D01*
X16935515Y-11516746D02*
X16945039Y-11497698D01*
X16945039Y-11497698D02*
X16954563Y-11488174D01*
X16954563Y-11488174D02*
X16973611Y-11478650D01*
X16973611Y-11478650D02*
X17002182Y-11478650D01*
X17002182Y-11478650D02*
X17021230Y-11488174D01*
X17021230Y-11488174D02*
X17030753Y-11497698D01*
X17030753Y-11497698D02*
X17040277Y-11516746D01*
X17040277Y-11516746D02*
X17040277Y-11573888D01*
X17040277Y-11573888D02*
X17030753Y-11592936D01*
X17030753Y-11592936D02*
X17021230Y-11602460D01*
X17021230Y-11602460D02*
X17002182Y-11611984D01*
X17002182Y-11611984D02*
X16973611Y-11611984D01*
X17154563Y-11611984D02*
X17135515Y-11602460D01*
X17135515Y-11602460D02*
X17125992Y-11583412D01*
X17125992Y-11583412D02*
X17125992Y-11411984D01*
X17306944Y-11602460D02*
X17287896Y-11611984D01*
X17287896Y-11611984D02*
X17249801Y-11611984D01*
X17249801Y-11611984D02*
X17230753Y-11602460D01*
X17230753Y-11602460D02*
X17221230Y-11583412D01*
X17221230Y-11583412D02*
X17221230Y-11507222D01*
X17221230Y-11507222D02*
X17230753Y-11488174D01*
X17230753Y-11488174D02*
X17249801Y-11478650D01*
X17249801Y-11478650D02*
X17287896Y-11478650D01*
X17287896Y-11478650D02*
X17306944Y-11488174D01*
X17306944Y-11488174D02*
X17316468Y-11507222D01*
X17316468Y-11507222D02*
X17316468Y-11526269D01*
X17316468Y-11526269D02*
X17221230Y-11545317D01*
X17392658Y-11602460D02*
X17411706Y-11611984D01*
X17411706Y-11611984D02*
X17449801Y-11611984D01*
X17449801Y-11611984D02*
X17468849Y-11602460D01*
X17468849Y-11602460D02*
X17478373Y-11583412D01*
X17478373Y-11583412D02*
X17478373Y-11573888D01*
X17478373Y-11573888D02*
X17468849Y-11554841D01*
X17468849Y-11554841D02*
X17449801Y-11545317D01*
X17449801Y-11545317D02*
X17421230Y-11545317D01*
X17421230Y-11545317D02*
X17402182Y-11535793D01*
X17402182Y-11535793D02*
X17392658Y-11516746D01*
X17392658Y-11516746D02*
X17392658Y-11507222D01*
X17392658Y-11507222D02*
X17402182Y-11488174D01*
X17402182Y-11488174D02*
X17421230Y-11478650D01*
X17421230Y-11478650D02*
X17449801Y-11478650D01*
X17449801Y-11478650D02*
X17468849Y-11488174D01*
X17545039Y-11688174D02*
X17554563Y-11678650D01*
X17554563Y-11678650D02*
X17573611Y-11650079D01*
X17573611Y-11650079D02*
X17583134Y-11631031D01*
X17583134Y-11631031D02*
X17592658Y-11602460D01*
X17592658Y-11602460D02*
X17602182Y-11554841D01*
X17602182Y-11554841D02*
X17602182Y-11516746D01*
X17602182Y-11516746D02*
X17592658Y-11469127D01*
X17592658Y-11469127D02*
X17583134Y-11440555D01*
X17583134Y-11440555D02*
X17573611Y-11421508D01*
X17573611Y-11421508D02*
X17554563Y-11392936D01*
X17554563Y-11392936D02*
X17545039Y-11383412D01*
D12*
X12579500Y-11784500D02*
G75*
G02*
X12529500Y-11784500I-25000J0D01*
G01*
X12529500Y-11784500D02*
G75*
G02*
X12579500Y-11784500I25000J0D01*
G01*
D11*
X12878372Y-11675984D02*
X12897420Y-11675984D01*
X12897420Y-11675984D02*
X12916467Y-11685508D01*
X12916467Y-11685508D02*
X12925991Y-11695031D01*
X12925991Y-11695031D02*
X12935515Y-11714079D01*
X12935515Y-11714079D02*
X12945039Y-11752174D01*
X12945039Y-11752174D02*
X12945039Y-11799793D01*
X12945039Y-11799793D02*
X12935515Y-11837888D01*
X12935515Y-11837888D02*
X12925991Y-11856936D01*
X12925991Y-11856936D02*
X12916467Y-11866460D01*
X12916467Y-11866460D02*
X12897420Y-11875984D01*
X12897420Y-11875984D02*
X12878372Y-11875984D01*
X12878372Y-11875984D02*
X12859324Y-11866460D01*
X12859324Y-11866460D02*
X12849801Y-11856936D01*
X12849801Y-11856936D02*
X12840277Y-11837888D01*
X12840277Y-11837888D02*
X12830753Y-11799793D01*
X12830753Y-11799793D02*
X12830753Y-11752174D01*
X12830753Y-11752174D02*
X12840277Y-11714079D01*
X12840277Y-11714079D02*
X12849801Y-11695031D01*
X12849801Y-11695031D02*
X12859324Y-11685508D01*
X12859324Y-11685508D02*
X12878372Y-11675984D01*
X13030753Y-11856936D02*
X13040277Y-11866460D01*
X13040277Y-11866460D02*
X13030753Y-11875984D01*
X13030753Y-11875984D02*
X13021229Y-11866460D01*
X13021229Y-11866460D02*
X13030753Y-11856936D01*
X13030753Y-11856936D02*
X13030753Y-11875984D01*
X13221229Y-11675984D02*
X13125991Y-11675984D01*
X13125991Y-11675984D02*
X13116467Y-11771222D01*
X13116467Y-11771222D02*
X13125991Y-11761698D01*
X13125991Y-11761698D02*
X13145039Y-11752174D01*
X13145039Y-11752174D02*
X13192658Y-11752174D01*
X13192658Y-11752174D02*
X13211705Y-11761698D01*
X13211705Y-11761698D02*
X13221229Y-11771222D01*
X13221229Y-11771222D02*
X13230753Y-11790269D01*
X13230753Y-11790269D02*
X13230753Y-11837888D01*
X13230753Y-11837888D02*
X13221229Y-11856936D01*
X13221229Y-11856936D02*
X13211705Y-11866460D01*
X13211705Y-11866460D02*
X13192658Y-11875984D01*
X13192658Y-11875984D02*
X13145039Y-11875984D01*
X13145039Y-11875984D02*
X13125991Y-11866460D01*
X13125991Y-11866460D02*
X13116467Y-11856936D01*
X13354562Y-11675984D02*
X13373610Y-11675984D01*
X13373610Y-11675984D02*
X13392658Y-11685508D01*
X13392658Y-11685508D02*
X13402182Y-11695031D01*
X13402182Y-11695031D02*
X13411705Y-11714079D01*
X13411705Y-11714079D02*
X13421229Y-11752174D01*
X13421229Y-11752174D02*
X13421229Y-11799793D01*
X13421229Y-11799793D02*
X13411705Y-11837888D01*
X13411705Y-11837888D02*
X13402182Y-11856936D01*
X13402182Y-11856936D02*
X13392658Y-11866460D01*
X13392658Y-11866460D02*
X13373610Y-11875984D01*
X13373610Y-11875984D02*
X13354562Y-11875984D01*
X13354562Y-11875984D02*
X13335515Y-11866460D01*
X13335515Y-11866460D02*
X13325991Y-11856936D01*
X13325991Y-11856936D02*
X13316467Y-11837888D01*
X13316467Y-11837888D02*
X13306943Y-11799793D01*
X13306943Y-11799793D02*
X13306943Y-11752174D01*
X13306943Y-11752174D02*
X13316467Y-11714079D01*
X13316467Y-11714079D02*
X13325991Y-11695031D01*
X13325991Y-11695031D02*
X13335515Y-11685508D01*
X13335515Y-11685508D02*
X13354562Y-11675984D01*
X13545039Y-11675984D02*
X13564086Y-11675984D01*
X13564086Y-11675984D02*
X13583134Y-11685508D01*
X13583134Y-11685508D02*
X13592658Y-11695031D01*
X13592658Y-11695031D02*
X13602182Y-11714079D01*
X13602182Y-11714079D02*
X13611705Y-11752174D01*
X13611705Y-11752174D02*
X13611705Y-11799793D01*
X13611705Y-11799793D02*
X13602182Y-11837888D01*
X13602182Y-11837888D02*
X13592658Y-11856936D01*
X13592658Y-11856936D02*
X13583134Y-11866460D01*
X13583134Y-11866460D02*
X13564086Y-11875984D01*
X13564086Y-11875984D02*
X13545039Y-11875984D01*
X13545039Y-11875984D02*
X13525991Y-11866460D01*
X13525991Y-11866460D02*
X13516467Y-11856936D01*
X13516467Y-11856936D02*
X13506943Y-11837888D01*
X13506943Y-11837888D02*
X13497420Y-11799793D01*
X13497420Y-11799793D02*
X13497420Y-11752174D01*
X13497420Y-11752174D02*
X13506943Y-11714079D01*
X13506943Y-11714079D02*
X13516467Y-11695031D01*
X13516467Y-11695031D02*
X13525991Y-11685508D01*
X13525991Y-11685508D02*
X13545039Y-11675984D01*
X13697420Y-11875984D02*
X13697420Y-11742650D01*
X13697420Y-11761698D02*
X13706943Y-11752174D01*
X13706943Y-11752174D02*
X13725991Y-11742650D01*
X13725991Y-11742650D02*
X13754563Y-11742650D01*
X13754563Y-11742650D02*
X13773610Y-11752174D01*
X13773610Y-11752174D02*
X13783134Y-11771222D01*
X13783134Y-11771222D02*
X13783134Y-11875984D01*
X13783134Y-11771222D02*
X13792658Y-11752174D01*
X13792658Y-11752174D02*
X13811705Y-11742650D01*
X13811705Y-11742650D02*
X13840277Y-11742650D01*
X13840277Y-11742650D02*
X13859324Y-11752174D01*
X13859324Y-11752174D02*
X13868848Y-11771222D01*
X13868848Y-11771222D02*
X13868848Y-11875984D01*
X13964086Y-11875984D02*
X13964086Y-11742650D01*
X13964086Y-11761698D02*
X13973610Y-11752174D01*
X13973610Y-11752174D02*
X13992658Y-11742650D01*
X13992658Y-11742650D02*
X14021229Y-11742650D01*
X14021229Y-11742650D02*
X14040277Y-11752174D01*
X14040277Y-11752174D02*
X14049801Y-11771222D01*
X14049801Y-11771222D02*
X14049801Y-11875984D01*
X14049801Y-11771222D02*
X14059324Y-11752174D01*
X14059324Y-11752174D02*
X14078372Y-11742650D01*
X14078372Y-11742650D02*
X14106943Y-11742650D01*
X14106943Y-11742650D02*
X14125991Y-11752174D01*
X14125991Y-11752174D02*
X14135515Y-11771222D01*
X14135515Y-11771222D02*
X14135515Y-11875984D01*
X14525991Y-11666460D02*
X14354563Y-11923603D01*
X14783134Y-11675984D02*
X14802182Y-11675984D01*
X14802182Y-11675984D02*
X14821229Y-11685508D01*
X14821229Y-11685508D02*
X14830753Y-11695031D01*
X14830753Y-11695031D02*
X14840277Y-11714079D01*
X14840277Y-11714079D02*
X14849801Y-11752174D01*
X14849801Y-11752174D02*
X14849801Y-11799793D01*
X14849801Y-11799793D02*
X14840277Y-11837888D01*
X14840277Y-11837888D02*
X14830753Y-11856936D01*
X14830753Y-11856936D02*
X14821229Y-11866460D01*
X14821229Y-11866460D02*
X14802182Y-11875984D01*
X14802182Y-11875984D02*
X14783134Y-11875984D01*
X14783134Y-11875984D02*
X14764086Y-11866460D01*
X14764086Y-11866460D02*
X14754563Y-11856936D01*
X14754563Y-11856936D02*
X14745039Y-11837888D01*
X14745039Y-11837888D02*
X14735515Y-11799793D01*
X14735515Y-11799793D02*
X14735515Y-11752174D01*
X14735515Y-11752174D02*
X14745039Y-11714079D01*
X14745039Y-11714079D02*
X14754563Y-11695031D01*
X14754563Y-11695031D02*
X14764086Y-11685508D01*
X14764086Y-11685508D02*
X14783134Y-11675984D01*
X14935515Y-11856936D02*
X14945039Y-11866460D01*
X14945039Y-11866460D02*
X14935515Y-11875984D01*
X14935515Y-11875984D02*
X14925991Y-11866460D01*
X14925991Y-11866460D02*
X14935515Y-11856936D01*
X14935515Y-11856936D02*
X14935515Y-11875984D01*
X15068848Y-11675984D02*
X15087896Y-11675984D01*
X15087896Y-11675984D02*
X15106944Y-11685508D01*
X15106944Y-11685508D02*
X15116467Y-11695031D01*
X15116467Y-11695031D02*
X15125991Y-11714079D01*
X15125991Y-11714079D02*
X15135515Y-11752174D01*
X15135515Y-11752174D02*
X15135515Y-11799793D01*
X15135515Y-11799793D02*
X15125991Y-11837888D01*
X15125991Y-11837888D02*
X15116467Y-11856936D01*
X15116467Y-11856936D02*
X15106944Y-11866460D01*
X15106944Y-11866460D02*
X15087896Y-11875984D01*
X15087896Y-11875984D02*
X15068848Y-11875984D01*
X15068848Y-11875984D02*
X15049801Y-11866460D01*
X15049801Y-11866460D02*
X15040277Y-11856936D01*
X15040277Y-11856936D02*
X15030753Y-11837888D01*
X15030753Y-11837888D02*
X15021229Y-11799793D01*
X15021229Y-11799793D02*
X15021229Y-11752174D01*
X15021229Y-11752174D02*
X15030753Y-11714079D01*
X15030753Y-11714079D02*
X15040277Y-11695031D01*
X15040277Y-11695031D02*
X15049801Y-11685508D01*
X15049801Y-11685508D02*
X15068848Y-11675984D01*
X15325991Y-11875984D02*
X15211706Y-11875984D01*
X15268848Y-11875984D02*
X15268848Y-11675984D01*
X15268848Y-11675984D02*
X15249801Y-11704555D01*
X15249801Y-11704555D02*
X15230753Y-11723603D01*
X15230753Y-11723603D02*
X15211706Y-11733127D01*
X15421229Y-11875984D02*
X15459325Y-11875984D01*
X15459325Y-11875984D02*
X15478372Y-11866460D01*
X15478372Y-11866460D02*
X15487896Y-11856936D01*
X15487896Y-11856936D02*
X15506944Y-11828365D01*
X15506944Y-11828365D02*
X15516467Y-11790269D01*
X15516467Y-11790269D02*
X15516467Y-11714079D01*
X15516467Y-11714079D02*
X15506944Y-11695031D01*
X15506944Y-11695031D02*
X15497420Y-11685508D01*
X15497420Y-11685508D02*
X15478372Y-11675984D01*
X15478372Y-11675984D02*
X15440277Y-11675984D01*
X15440277Y-11675984D02*
X15421229Y-11685508D01*
X15421229Y-11685508D02*
X15411706Y-11695031D01*
X15411706Y-11695031D02*
X15402182Y-11714079D01*
X15402182Y-11714079D02*
X15402182Y-11761698D01*
X15402182Y-11761698D02*
X15411706Y-11780746D01*
X15411706Y-11780746D02*
X15421229Y-11790269D01*
X15421229Y-11790269D02*
X15440277Y-11799793D01*
X15440277Y-11799793D02*
X15478372Y-11799793D01*
X15478372Y-11799793D02*
X15497420Y-11790269D01*
X15497420Y-11790269D02*
X15506944Y-11780746D01*
X15506944Y-11780746D02*
X15516467Y-11761698D01*
X15583134Y-11675984D02*
X15716467Y-11675984D01*
X15716467Y-11675984D02*
X15630753Y-11875984D01*
X15783134Y-11675984D02*
X15783134Y-11714079D01*
X15859325Y-11675984D02*
X15859325Y-11714079D01*
X16154563Y-11952174D02*
X16145039Y-11942650D01*
X16145039Y-11942650D02*
X16125991Y-11914079D01*
X16125991Y-11914079D02*
X16116468Y-11895031D01*
X16116468Y-11895031D02*
X16106944Y-11866460D01*
X16106944Y-11866460D02*
X16097420Y-11818841D01*
X16097420Y-11818841D02*
X16097420Y-11780746D01*
X16097420Y-11780746D02*
X16106944Y-11733127D01*
X16106944Y-11733127D02*
X16116468Y-11704555D01*
X16116468Y-11704555D02*
X16125991Y-11685508D01*
X16125991Y-11685508D02*
X16145039Y-11656936D01*
X16145039Y-11656936D02*
X16154563Y-11647412D01*
X16221229Y-11695031D02*
X16230753Y-11685508D01*
X16230753Y-11685508D02*
X16249801Y-11675984D01*
X16249801Y-11675984D02*
X16297420Y-11675984D01*
X16297420Y-11675984D02*
X16316468Y-11685508D01*
X16316468Y-11685508D02*
X16325991Y-11695031D01*
X16325991Y-11695031D02*
X16335515Y-11714079D01*
X16335515Y-11714079D02*
X16335515Y-11733127D01*
X16335515Y-11733127D02*
X16325991Y-11761698D01*
X16325991Y-11761698D02*
X16211706Y-11875984D01*
X16211706Y-11875984D02*
X16335515Y-11875984D01*
X16573610Y-11875984D02*
X16573610Y-11675984D01*
X16659325Y-11875984D02*
X16659325Y-11771222D01*
X16659325Y-11771222D02*
X16649801Y-11752174D01*
X16649801Y-11752174D02*
X16630753Y-11742650D01*
X16630753Y-11742650D02*
X16602182Y-11742650D01*
X16602182Y-11742650D02*
X16583134Y-11752174D01*
X16583134Y-11752174D02*
X16573610Y-11761698D01*
X16783134Y-11875984D02*
X16764087Y-11866460D01*
X16764087Y-11866460D02*
X16754563Y-11856936D01*
X16754563Y-11856936D02*
X16745039Y-11837888D01*
X16745039Y-11837888D02*
X16745039Y-11780746D01*
X16745039Y-11780746D02*
X16754563Y-11761698D01*
X16754563Y-11761698D02*
X16764087Y-11752174D01*
X16764087Y-11752174D02*
X16783134Y-11742650D01*
X16783134Y-11742650D02*
X16811706Y-11742650D01*
X16811706Y-11742650D02*
X16830753Y-11752174D01*
X16830753Y-11752174D02*
X16840277Y-11761698D01*
X16840277Y-11761698D02*
X16849801Y-11780746D01*
X16849801Y-11780746D02*
X16849801Y-11837888D01*
X16849801Y-11837888D02*
X16840277Y-11856936D01*
X16840277Y-11856936D02*
X16830753Y-11866460D01*
X16830753Y-11866460D02*
X16811706Y-11875984D01*
X16811706Y-11875984D02*
X16783134Y-11875984D01*
X16964087Y-11875984D02*
X16945039Y-11866460D01*
X16945039Y-11866460D02*
X16935515Y-11847412D01*
X16935515Y-11847412D02*
X16935515Y-11675984D01*
X17116468Y-11866460D02*
X17097420Y-11875984D01*
X17097420Y-11875984D02*
X17059325Y-11875984D01*
X17059325Y-11875984D02*
X17040277Y-11866460D01*
X17040277Y-11866460D02*
X17030753Y-11847412D01*
X17030753Y-11847412D02*
X17030753Y-11771222D01*
X17030753Y-11771222D02*
X17040277Y-11752174D01*
X17040277Y-11752174D02*
X17059325Y-11742650D01*
X17059325Y-11742650D02*
X17097420Y-11742650D01*
X17097420Y-11742650D02*
X17116468Y-11752174D01*
X17116468Y-11752174D02*
X17125992Y-11771222D01*
X17125992Y-11771222D02*
X17125992Y-11790269D01*
X17125992Y-11790269D02*
X17030753Y-11809317D01*
X17202182Y-11866460D02*
X17221230Y-11875984D01*
X17221230Y-11875984D02*
X17259325Y-11875984D01*
X17259325Y-11875984D02*
X17278373Y-11866460D01*
X17278373Y-11866460D02*
X17287896Y-11847412D01*
X17287896Y-11847412D02*
X17287896Y-11837888D01*
X17287896Y-11837888D02*
X17278373Y-11818841D01*
X17278373Y-11818841D02*
X17259325Y-11809317D01*
X17259325Y-11809317D02*
X17230753Y-11809317D01*
X17230753Y-11809317D02*
X17211706Y-11799793D01*
X17211706Y-11799793D02*
X17202182Y-11780746D01*
X17202182Y-11780746D02*
X17202182Y-11771222D01*
X17202182Y-11771222D02*
X17211706Y-11752174D01*
X17211706Y-11752174D02*
X17230753Y-11742650D01*
X17230753Y-11742650D02*
X17259325Y-11742650D01*
X17259325Y-11742650D02*
X17278373Y-11752174D01*
X17354563Y-11952174D02*
X17364087Y-11942650D01*
X17364087Y-11942650D02*
X17383134Y-11914079D01*
X17383134Y-11914079D02*
X17392658Y-11895031D01*
X17392658Y-11895031D02*
X17402182Y-11866460D01*
X17402182Y-11866460D02*
X17411706Y-11818841D01*
X17411706Y-11818841D02*
X17411706Y-11780746D01*
X17411706Y-11780746D02*
X17402182Y-11733127D01*
X17402182Y-11733127D02*
X17392658Y-11704555D01*
X17392658Y-11704555D02*
X17383134Y-11685508D01*
X17383134Y-11685508D02*
X17364087Y-11656936D01*
X17364087Y-11656936D02*
X17354563Y-11647412D01*
D12*
X12549500Y-12018500D02*
X12549500Y-12078500D01*
X12519500Y-12048500D02*
X12579500Y-12048500D01*
D11*
X12878372Y-11939984D02*
X12897420Y-11939984D01*
X12897420Y-11939984D02*
X12916467Y-11949508D01*
X12916467Y-11949508D02*
X12925991Y-11959031D01*
X12925991Y-11959031D02*
X12935515Y-11978079D01*
X12935515Y-11978079D02*
X12945039Y-12016174D01*
X12945039Y-12016174D02*
X12945039Y-12063793D01*
X12945039Y-12063793D02*
X12935515Y-12101888D01*
X12935515Y-12101888D02*
X12925991Y-12120936D01*
X12925991Y-12120936D02*
X12916467Y-12130460D01*
X12916467Y-12130460D02*
X12897420Y-12139984D01*
X12897420Y-12139984D02*
X12878372Y-12139984D01*
X12878372Y-12139984D02*
X12859324Y-12130460D01*
X12859324Y-12130460D02*
X12849801Y-12120936D01*
X12849801Y-12120936D02*
X12840277Y-12101888D01*
X12840277Y-12101888D02*
X12830753Y-12063793D01*
X12830753Y-12063793D02*
X12830753Y-12016174D01*
X12830753Y-12016174D02*
X12840277Y-11978079D01*
X12840277Y-11978079D02*
X12849801Y-11959031D01*
X12849801Y-11959031D02*
X12859324Y-11949508D01*
X12859324Y-11949508D02*
X12878372Y-11939984D01*
X13030753Y-12120936D02*
X13040277Y-12130460D01*
X13040277Y-12130460D02*
X13030753Y-12139984D01*
X13030753Y-12139984D02*
X13021229Y-12130460D01*
X13021229Y-12130460D02*
X13030753Y-12120936D01*
X13030753Y-12120936D02*
X13030753Y-12139984D01*
X13211705Y-11939984D02*
X13173610Y-11939984D01*
X13173610Y-11939984D02*
X13154562Y-11949508D01*
X13154562Y-11949508D02*
X13145039Y-11959031D01*
X13145039Y-11959031D02*
X13125991Y-11987603D01*
X13125991Y-11987603D02*
X13116467Y-12025698D01*
X13116467Y-12025698D02*
X13116467Y-12101888D01*
X13116467Y-12101888D02*
X13125991Y-12120936D01*
X13125991Y-12120936D02*
X13135515Y-12130460D01*
X13135515Y-12130460D02*
X13154562Y-12139984D01*
X13154562Y-12139984D02*
X13192658Y-12139984D01*
X13192658Y-12139984D02*
X13211705Y-12130460D01*
X13211705Y-12130460D02*
X13221229Y-12120936D01*
X13221229Y-12120936D02*
X13230753Y-12101888D01*
X13230753Y-12101888D02*
X13230753Y-12054269D01*
X13230753Y-12054269D02*
X13221229Y-12035222D01*
X13221229Y-12035222D02*
X13211705Y-12025698D01*
X13211705Y-12025698D02*
X13192658Y-12016174D01*
X13192658Y-12016174D02*
X13154562Y-12016174D01*
X13154562Y-12016174D02*
X13135515Y-12025698D01*
X13135515Y-12025698D02*
X13125991Y-12035222D01*
X13125991Y-12035222D02*
X13116467Y-12054269D01*
X13354562Y-11939984D02*
X13373610Y-11939984D01*
X13373610Y-11939984D02*
X13392658Y-11949508D01*
X13392658Y-11949508D02*
X13402182Y-11959031D01*
X13402182Y-11959031D02*
X13411705Y-11978079D01*
X13411705Y-11978079D02*
X13421229Y-12016174D01*
X13421229Y-12016174D02*
X13421229Y-12063793D01*
X13421229Y-12063793D02*
X13411705Y-12101888D01*
X13411705Y-12101888D02*
X13402182Y-12120936D01*
X13402182Y-12120936D02*
X13392658Y-12130460D01*
X13392658Y-12130460D02*
X13373610Y-12139984D01*
X13373610Y-12139984D02*
X13354562Y-12139984D01*
X13354562Y-12139984D02*
X13335515Y-12130460D01*
X13335515Y-12130460D02*
X13325991Y-12120936D01*
X13325991Y-12120936D02*
X13316467Y-12101888D01*
X13316467Y-12101888D02*
X13306943Y-12063793D01*
X13306943Y-12063793D02*
X13306943Y-12016174D01*
X13306943Y-12016174D02*
X13316467Y-11978079D01*
X13316467Y-11978079D02*
X13325991Y-11959031D01*
X13325991Y-11959031D02*
X13335515Y-11949508D01*
X13335515Y-11949508D02*
X13354562Y-11939984D01*
X13545039Y-11939984D02*
X13564086Y-11939984D01*
X13564086Y-11939984D02*
X13583134Y-11949508D01*
X13583134Y-11949508D02*
X13592658Y-11959031D01*
X13592658Y-11959031D02*
X13602182Y-11978079D01*
X13602182Y-11978079D02*
X13611705Y-12016174D01*
X13611705Y-12016174D02*
X13611705Y-12063793D01*
X13611705Y-12063793D02*
X13602182Y-12101888D01*
X13602182Y-12101888D02*
X13592658Y-12120936D01*
X13592658Y-12120936D02*
X13583134Y-12130460D01*
X13583134Y-12130460D02*
X13564086Y-12139984D01*
X13564086Y-12139984D02*
X13545039Y-12139984D01*
X13545039Y-12139984D02*
X13525991Y-12130460D01*
X13525991Y-12130460D02*
X13516467Y-12120936D01*
X13516467Y-12120936D02*
X13506943Y-12101888D01*
X13506943Y-12101888D02*
X13497420Y-12063793D01*
X13497420Y-12063793D02*
X13497420Y-12016174D01*
X13497420Y-12016174D02*
X13506943Y-11978079D01*
X13506943Y-11978079D02*
X13516467Y-11959031D01*
X13516467Y-11959031D02*
X13525991Y-11949508D01*
X13525991Y-11949508D02*
X13545039Y-11939984D01*
X13697420Y-12139984D02*
X13697420Y-12006650D01*
X13697420Y-12025698D02*
X13706943Y-12016174D01*
X13706943Y-12016174D02*
X13725991Y-12006650D01*
X13725991Y-12006650D02*
X13754563Y-12006650D01*
X13754563Y-12006650D02*
X13773610Y-12016174D01*
X13773610Y-12016174D02*
X13783134Y-12035222D01*
X13783134Y-12035222D02*
X13783134Y-12139984D01*
X13783134Y-12035222D02*
X13792658Y-12016174D01*
X13792658Y-12016174D02*
X13811705Y-12006650D01*
X13811705Y-12006650D02*
X13840277Y-12006650D01*
X13840277Y-12006650D02*
X13859324Y-12016174D01*
X13859324Y-12016174D02*
X13868848Y-12035222D01*
X13868848Y-12035222D02*
X13868848Y-12139984D01*
X13964086Y-12139984D02*
X13964086Y-12006650D01*
X13964086Y-12025698D02*
X13973610Y-12016174D01*
X13973610Y-12016174D02*
X13992658Y-12006650D01*
X13992658Y-12006650D02*
X14021229Y-12006650D01*
X14021229Y-12006650D02*
X14040277Y-12016174D01*
X14040277Y-12016174D02*
X14049801Y-12035222D01*
X14049801Y-12035222D02*
X14049801Y-12139984D01*
X14049801Y-12035222D02*
X14059324Y-12016174D01*
X14059324Y-12016174D02*
X14078372Y-12006650D01*
X14078372Y-12006650D02*
X14106943Y-12006650D01*
X14106943Y-12006650D02*
X14125991Y-12016174D01*
X14125991Y-12016174D02*
X14135515Y-12035222D01*
X14135515Y-12035222D02*
X14135515Y-12139984D01*
X14525991Y-11930460D02*
X14354563Y-12187603D01*
X14783134Y-11939984D02*
X14802182Y-11939984D01*
X14802182Y-11939984D02*
X14821229Y-11949508D01*
X14821229Y-11949508D02*
X14830753Y-11959031D01*
X14830753Y-11959031D02*
X14840277Y-11978079D01*
X14840277Y-11978079D02*
X14849801Y-12016174D01*
X14849801Y-12016174D02*
X14849801Y-12063793D01*
X14849801Y-12063793D02*
X14840277Y-12101888D01*
X14840277Y-12101888D02*
X14830753Y-12120936D01*
X14830753Y-12120936D02*
X14821229Y-12130460D01*
X14821229Y-12130460D02*
X14802182Y-12139984D01*
X14802182Y-12139984D02*
X14783134Y-12139984D01*
X14783134Y-12139984D02*
X14764086Y-12130460D01*
X14764086Y-12130460D02*
X14754563Y-12120936D01*
X14754563Y-12120936D02*
X14745039Y-12101888D01*
X14745039Y-12101888D02*
X14735515Y-12063793D01*
X14735515Y-12063793D02*
X14735515Y-12016174D01*
X14735515Y-12016174D02*
X14745039Y-11978079D01*
X14745039Y-11978079D02*
X14754563Y-11959031D01*
X14754563Y-11959031D02*
X14764086Y-11949508D01*
X14764086Y-11949508D02*
X14783134Y-11939984D01*
X14935515Y-12120936D02*
X14945039Y-12130460D01*
X14945039Y-12130460D02*
X14935515Y-12139984D01*
X14935515Y-12139984D02*
X14925991Y-12130460D01*
X14925991Y-12130460D02*
X14935515Y-12120936D01*
X14935515Y-12120936D02*
X14935515Y-12139984D01*
X15068848Y-11939984D02*
X15087896Y-11939984D01*
X15087896Y-11939984D02*
X15106944Y-11949508D01*
X15106944Y-11949508D02*
X15116467Y-11959031D01*
X15116467Y-11959031D02*
X15125991Y-11978079D01*
X15125991Y-11978079D02*
X15135515Y-12016174D01*
X15135515Y-12016174D02*
X15135515Y-12063793D01*
X15135515Y-12063793D02*
X15125991Y-12101888D01*
X15125991Y-12101888D02*
X15116467Y-12120936D01*
X15116467Y-12120936D02*
X15106944Y-12130460D01*
X15106944Y-12130460D02*
X15087896Y-12139984D01*
X15087896Y-12139984D02*
X15068848Y-12139984D01*
X15068848Y-12139984D02*
X15049801Y-12130460D01*
X15049801Y-12130460D02*
X15040277Y-12120936D01*
X15040277Y-12120936D02*
X15030753Y-12101888D01*
X15030753Y-12101888D02*
X15021229Y-12063793D01*
X15021229Y-12063793D02*
X15021229Y-12016174D01*
X15021229Y-12016174D02*
X15030753Y-11978079D01*
X15030753Y-11978079D02*
X15040277Y-11959031D01*
X15040277Y-11959031D02*
X15049801Y-11949508D01*
X15049801Y-11949508D02*
X15068848Y-11939984D01*
X15211706Y-11959031D02*
X15221229Y-11949508D01*
X15221229Y-11949508D02*
X15240277Y-11939984D01*
X15240277Y-11939984D02*
X15287896Y-11939984D01*
X15287896Y-11939984D02*
X15306944Y-11949508D01*
X15306944Y-11949508D02*
X15316467Y-11959031D01*
X15316467Y-11959031D02*
X15325991Y-11978079D01*
X15325991Y-11978079D02*
X15325991Y-11997127D01*
X15325991Y-11997127D02*
X15316467Y-12025698D01*
X15316467Y-12025698D02*
X15202182Y-12139984D01*
X15202182Y-12139984D02*
X15325991Y-12139984D01*
X15392658Y-11939984D02*
X15516467Y-11939984D01*
X15516467Y-11939984D02*
X15449801Y-12016174D01*
X15449801Y-12016174D02*
X15478372Y-12016174D01*
X15478372Y-12016174D02*
X15497420Y-12025698D01*
X15497420Y-12025698D02*
X15506944Y-12035222D01*
X15506944Y-12035222D02*
X15516467Y-12054269D01*
X15516467Y-12054269D02*
X15516467Y-12101888D01*
X15516467Y-12101888D02*
X15506944Y-12120936D01*
X15506944Y-12120936D02*
X15497420Y-12130460D01*
X15497420Y-12130460D02*
X15478372Y-12139984D01*
X15478372Y-12139984D02*
X15421229Y-12139984D01*
X15421229Y-12139984D02*
X15402182Y-12130460D01*
X15402182Y-12130460D02*
X15392658Y-12120936D01*
X15687896Y-11939984D02*
X15649801Y-11939984D01*
X15649801Y-11939984D02*
X15630753Y-11949508D01*
X15630753Y-11949508D02*
X15621229Y-11959031D01*
X15621229Y-11959031D02*
X15602182Y-11987603D01*
X15602182Y-11987603D02*
X15592658Y-12025698D01*
X15592658Y-12025698D02*
X15592658Y-12101888D01*
X15592658Y-12101888D02*
X15602182Y-12120936D01*
X15602182Y-12120936D02*
X15611706Y-12130460D01*
X15611706Y-12130460D02*
X15630753Y-12139984D01*
X15630753Y-12139984D02*
X15668848Y-12139984D01*
X15668848Y-12139984D02*
X15687896Y-12130460D01*
X15687896Y-12130460D02*
X15697420Y-12120936D01*
X15697420Y-12120936D02*
X15706944Y-12101888D01*
X15706944Y-12101888D02*
X15706944Y-12054269D01*
X15706944Y-12054269D02*
X15697420Y-12035222D01*
X15697420Y-12035222D02*
X15687896Y-12025698D01*
X15687896Y-12025698D02*
X15668848Y-12016174D01*
X15668848Y-12016174D02*
X15630753Y-12016174D01*
X15630753Y-12016174D02*
X15611706Y-12025698D01*
X15611706Y-12025698D02*
X15602182Y-12035222D01*
X15602182Y-12035222D02*
X15592658Y-12054269D01*
X15783134Y-11939984D02*
X15783134Y-11978079D01*
X15859325Y-11939984D02*
X15859325Y-11978079D01*
X16154563Y-12216174D02*
X16145039Y-12206650D01*
X16145039Y-12206650D02*
X16125991Y-12178079D01*
X16125991Y-12178079D02*
X16116468Y-12159031D01*
X16116468Y-12159031D02*
X16106944Y-12130460D01*
X16106944Y-12130460D02*
X16097420Y-12082841D01*
X16097420Y-12082841D02*
X16097420Y-12044746D01*
X16097420Y-12044746D02*
X16106944Y-11997127D01*
X16106944Y-11997127D02*
X16116468Y-11968555D01*
X16116468Y-11968555D02*
X16125991Y-11949508D01*
X16125991Y-11949508D02*
X16145039Y-11920936D01*
X16145039Y-11920936D02*
X16154563Y-11911412D01*
X16268848Y-11939984D02*
X16287896Y-11939984D01*
X16287896Y-11939984D02*
X16306944Y-11949508D01*
X16306944Y-11949508D02*
X16316468Y-11959031D01*
X16316468Y-11959031D02*
X16325991Y-11978079D01*
X16325991Y-11978079D02*
X16335515Y-12016174D01*
X16335515Y-12016174D02*
X16335515Y-12063793D01*
X16335515Y-12063793D02*
X16325991Y-12101888D01*
X16325991Y-12101888D02*
X16316468Y-12120936D01*
X16316468Y-12120936D02*
X16306944Y-12130460D01*
X16306944Y-12130460D02*
X16287896Y-12139984D01*
X16287896Y-12139984D02*
X16268848Y-12139984D01*
X16268848Y-12139984D02*
X16249801Y-12130460D01*
X16249801Y-12130460D02*
X16240277Y-12120936D01*
X16240277Y-12120936D02*
X16230753Y-12101888D01*
X16230753Y-12101888D02*
X16221229Y-12063793D01*
X16221229Y-12063793D02*
X16221229Y-12016174D01*
X16221229Y-12016174D02*
X16230753Y-11978079D01*
X16230753Y-11978079D02*
X16240277Y-11959031D01*
X16240277Y-11959031D02*
X16249801Y-11949508D01*
X16249801Y-11949508D02*
X16268848Y-11939984D01*
X16573610Y-12139984D02*
X16573610Y-11939984D01*
X16659325Y-12139984D02*
X16659325Y-12035222D01*
X16659325Y-12035222D02*
X16649801Y-12016174D01*
X16649801Y-12016174D02*
X16630753Y-12006650D01*
X16630753Y-12006650D02*
X16602182Y-12006650D01*
X16602182Y-12006650D02*
X16583134Y-12016174D01*
X16583134Y-12016174D02*
X16573610Y-12025698D01*
X16783134Y-12139984D02*
X16764087Y-12130460D01*
X16764087Y-12130460D02*
X16754563Y-12120936D01*
X16754563Y-12120936D02*
X16745039Y-12101888D01*
X16745039Y-12101888D02*
X16745039Y-12044746D01*
X16745039Y-12044746D02*
X16754563Y-12025698D01*
X16754563Y-12025698D02*
X16764087Y-12016174D01*
X16764087Y-12016174D02*
X16783134Y-12006650D01*
X16783134Y-12006650D02*
X16811706Y-12006650D01*
X16811706Y-12006650D02*
X16830753Y-12016174D01*
X16830753Y-12016174D02*
X16840277Y-12025698D01*
X16840277Y-12025698D02*
X16849801Y-12044746D01*
X16849801Y-12044746D02*
X16849801Y-12101888D01*
X16849801Y-12101888D02*
X16840277Y-12120936D01*
X16840277Y-12120936D02*
X16830753Y-12130460D01*
X16830753Y-12130460D02*
X16811706Y-12139984D01*
X16811706Y-12139984D02*
X16783134Y-12139984D01*
X16964087Y-12139984D02*
X16945039Y-12130460D01*
X16945039Y-12130460D02*
X16935515Y-12111412D01*
X16935515Y-12111412D02*
X16935515Y-11939984D01*
X17116468Y-12130460D02*
X17097420Y-12139984D01*
X17097420Y-12139984D02*
X17059325Y-12139984D01*
X17059325Y-12139984D02*
X17040277Y-12130460D01*
X17040277Y-12130460D02*
X17030753Y-12111412D01*
X17030753Y-12111412D02*
X17030753Y-12035222D01*
X17030753Y-12035222D02*
X17040277Y-12016174D01*
X17040277Y-12016174D02*
X17059325Y-12006650D01*
X17059325Y-12006650D02*
X17097420Y-12006650D01*
X17097420Y-12006650D02*
X17116468Y-12016174D01*
X17116468Y-12016174D02*
X17125992Y-12035222D01*
X17125992Y-12035222D02*
X17125992Y-12054269D01*
X17125992Y-12054269D02*
X17030753Y-12073317D01*
X17202182Y-12130460D02*
X17221230Y-12139984D01*
X17221230Y-12139984D02*
X17259325Y-12139984D01*
X17259325Y-12139984D02*
X17278373Y-12130460D01*
X17278373Y-12130460D02*
X17287896Y-12111412D01*
X17287896Y-12111412D02*
X17287896Y-12101888D01*
X17287896Y-12101888D02*
X17278373Y-12082841D01*
X17278373Y-12082841D02*
X17259325Y-12073317D01*
X17259325Y-12073317D02*
X17230753Y-12073317D01*
X17230753Y-12073317D02*
X17211706Y-12063793D01*
X17211706Y-12063793D02*
X17202182Y-12044746D01*
X17202182Y-12044746D02*
X17202182Y-12035222D01*
X17202182Y-12035222D02*
X17211706Y-12016174D01*
X17211706Y-12016174D02*
X17230753Y-12006650D01*
X17230753Y-12006650D02*
X17259325Y-12006650D01*
X17259325Y-12006650D02*
X17278373Y-12016174D01*
X17525992Y-12063793D02*
X17678373Y-12063793D01*
X17602182Y-12139984D02*
X17602182Y-11987603D01*
X18011706Y-12006650D02*
X18011706Y-12139984D01*
X17964087Y-11930460D02*
X17916468Y-12073317D01*
X17916468Y-12073317D02*
X18040277Y-12073317D01*
X18259325Y-12130460D02*
X18278373Y-12139984D01*
X18278373Y-12139984D02*
X18316468Y-12139984D01*
X18316468Y-12139984D02*
X18335516Y-12130460D01*
X18335516Y-12130460D02*
X18345039Y-12111412D01*
X18345039Y-12111412D02*
X18345039Y-12101888D01*
X18345039Y-12101888D02*
X18335516Y-12082841D01*
X18335516Y-12082841D02*
X18316468Y-12073317D01*
X18316468Y-12073317D02*
X18287896Y-12073317D01*
X18287896Y-12073317D02*
X18268849Y-12063793D01*
X18268849Y-12063793D02*
X18259325Y-12044746D01*
X18259325Y-12044746D02*
X18259325Y-12035222D01*
X18259325Y-12035222D02*
X18268849Y-12016174D01*
X18268849Y-12016174D02*
X18287896Y-12006650D01*
X18287896Y-12006650D02*
X18316468Y-12006650D01*
X18316468Y-12006650D02*
X18335516Y-12016174D01*
X18459325Y-12139984D02*
X18440277Y-12130460D01*
X18440277Y-12130460D02*
X18430754Y-12111412D01*
X18430754Y-12111412D02*
X18430754Y-11939984D01*
X18564087Y-12139984D02*
X18545039Y-12130460D01*
X18545039Y-12130460D02*
X18535516Y-12120936D01*
X18535516Y-12120936D02*
X18525992Y-12101888D01*
X18525992Y-12101888D02*
X18525992Y-12044746D01*
X18525992Y-12044746D02*
X18535516Y-12025698D01*
X18535516Y-12025698D02*
X18545039Y-12016174D01*
X18545039Y-12016174D02*
X18564087Y-12006650D01*
X18564087Y-12006650D02*
X18592658Y-12006650D01*
X18592658Y-12006650D02*
X18611706Y-12016174D01*
X18611706Y-12016174D02*
X18621230Y-12025698D01*
X18621230Y-12025698D02*
X18630754Y-12044746D01*
X18630754Y-12044746D02*
X18630754Y-12101888D01*
X18630754Y-12101888D02*
X18621230Y-12120936D01*
X18621230Y-12120936D02*
X18611706Y-12130460D01*
X18611706Y-12130460D02*
X18592658Y-12139984D01*
X18592658Y-12139984D02*
X18564087Y-12139984D01*
X18687897Y-12006650D02*
X18764087Y-12006650D01*
X18716468Y-11939984D02*
X18716468Y-12111412D01*
X18716468Y-12111412D02*
X18725992Y-12130460D01*
X18725992Y-12130460D02*
X18745039Y-12139984D01*
X18745039Y-12139984D02*
X18764087Y-12139984D01*
X18821230Y-12130460D02*
X18840277Y-12139984D01*
X18840277Y-12139984D02*
X18878373Y-12139984D01*
X18878373Y-12139984D02*
X18897420Y-12130460D01*
X18897420Y-12130460D02*
X18906944Y-12111412D01*
X18906944Y-12111412D02*
X18906944Y-12101888D01*
X18906944Y-12101888D02*
X18897420Y-12082841D01*
X18897420Y-12082841D02*
X18878373Y-12073317D01*
X18878373Y-12073317D02*
X18849801Y-12073317D01*
X18849801Y-12073317D02*
X18830754Y-12063793D01*
X18830754Y-12063793D02*
X18821230Y-12044746D01*
X18821230Y-12044746D02*
X18821230Y-12035222D01*
X18821230Y-12035222D02*
X18830754Y-12016174D01*
X18830754Y-12016174D02*
X18849801Y-12006650D01*
X18849801Y-12006650D02*
X18878373Y-12006650D01*
X18878373Y-12006650D02*
X18897420Y-12016174D01*
X18973611Y-12216174D02*
X18983135Y-12206650D01*
X18983135Y-12206650D02*
X19002182Y-12178079D01*
X19002182Y-12178079D02*
X19011706Y-12159031D01*
X19011706Y-12159031D02*
X19021230Y-12130460D01*
X19021230Y-12130460D02*
X19030754Y-12082841D01*
X19030754Y-12082841D02*
X19030754Y-12044746D01*
X19030754Y-12044746D02*
X19021230Y-11997127D01*
X19021230Y-11997127D02*
X19011706Y-11968555D01*
X19011706Y-11968555D02*
X19002182Y-11949508D01*
X19002182Y-11949508D02*
X18983135Y-11920936D01*
X18983135Y-11920936D02*
X18973611Y-11911412D01*
D12*
X12566320Y-12344320D02*
X12566320Y-12280680D01*
X12502680Y-12280680D01*
X12502680Y-12344320D01*
X12566320Y-12344320D01*
D11*
X12878372Y-12203984D02*
X12897420Y-12203984D01*
X12897420Y-12203984D02*
X12916467Y-12213508D01*
X12916467Y-12213508D02*
X12925991Y-12223031D01*
X12925991Y-12223031D02*
X12935515Y-12242079D01*
X12935515Y-12242079D02*
X12945039Y-12280174D01*
X12945039Y-12280174D02*
X12945039Y-12327793D01*
X12945039Y-12327793D02*
X12935515Y-12365888D01*
X12935515Y-12365888D02*
X12925991Y-12384936D01*
X12925991Y-12384936D02*
X12916467Y-12394460D01*
X12916467Y-12394460D02*
X12897420Y-12403984D01*
X12897420Y-12403984D02*
X12878372Y-12403984D01*
X12878372Y-12403984D02*
X12859324Y-12394460D01*
X12859324Y-12394460D02*
X12849801Y-12384936D01*
X12849801Y-12384936D02*
X12840277Y-12365888D01*
X12840277Y-12365888D02*
X12830753Y-12327793D01*
X12830753Y-12327793D02*
X12830753Y-12280174D01*
X12830753Y-12280174D02*
X12840277Y-12242079D01*
X12840277Y-12242079D02*
X12849801Y-12223031D01*
X12849801Y-12223031D02*
X12859324Y-12213508D01*
X12859324Y-12213508D02*
X12878372Y-12203984D01*
X13030753Y-12384936D02*
X13040277Y-12394460D01*
X13040277Y-12394460D02*
X13030753Y-12403984D01*
X13030753Y-12403984D02*
X13021229Y-12394460D01*
X13021229Y-12394460D02*
X13030753Y-12384936D01*
X13030753Y-12384936D02*
X13030753Y-12403984D01*
X13135515Y-12403984D02*
X13173610Y-12403984D01*
X13173610Y-12403984D02*
X13192658Y-12394460D01*
X13192658Y-12394460D02*
X13202182Y-12384936D01*
X13202182Y-12384936D02*
X13221229Y-12356365D01*
X13221229Y-12356365D02*
X13230753Y-12318269D01*
X13230753Y-12318269D02*
X13230753Y-12242079D01*
X13230753Y-12242079D02*
X13221229Y-12223031D01*
X13221229Y-12223031D02*
X13211705Y-12213508D01*
X13211705Y-12213508D02*
X13192658Y-12203984D01*
X13192658Y-12203984D02*
X13154562Y-12203984D01*
X13154562Y-12203984D02*
X13135515Y-12213508D01*
X13135515Y-12213508D02*
X13125991Y-12223031D01*
X13125991Y-12223031D02*
X13116467Y-12242079D01*
X13116467Y-12242079D02*
X13116467Y-12289698D01*
X13116467Y-12289698D02*
X13125991Y-12308746D01*
X13125991Y-12308746D02*
X13135515Y-12318269D01*
X13135515Y-12318269D02*
X13154562Y-12327793D01*
X13154562Y-12327793D02*
X13192658Y-12327793D01*
X13192658Y-12327793D02*
X13211705Y-12318269D01*
X13211705Y-12318269D02*
X13221229Y-12308746D01*
X13221229Y-12308746D02*
X13230753Y-12289698D01*
X13354562Y-12203984D02*
X13373610Y-12203984D01*
X13373610Y-12203984D02*
X13392658Y-12213508D01*
X13392658Y-12213508D02*
X13402182Y-12223031D01*
X13402182Y-12223031D02*
X13411705Y-12242079D01*
X13411705Y-12242079D02*
X13421229Y-12280174D01*
X13421229Y-12280174D02*
X13421229Y-12327793D01*
X13421229Y-12327793D02*
X13411705Y-12365888D01*
X13411705Y-12365888D02*
X13402182Y-12384936D01*
X13402182Y-12384936D02*
X13392658Y-12394460D01*
X13392658Y-12394460D02*
X13373610Y-12403984D01*
X13373610Y-12403984D02*
X13354562Y-12403984D01*
X13354562Y-12403984D02*
X13335515Y-12394460D01*
X13335515Y-12394460D02*
X13325991Y-12384936D01*
X13325991Y-12384936D02*
X13316467Y-12365888D01*
X13316467Y-12365888D02*
X13306943Y-12327793D01*
X13306943Y-12327793D02*
X13306943Y-12280174D01*
X13306943Y-12280174D02*
X13316467Y-12242079D01*
X13316467Y-12242079D02*
X13325991Y-12223031D01*
X13325991Y-12223031D02*
X13335515Y-12213508D01*
X13335515Y-12213508D02*
X13354562Y-12203984D01*
X13545039Y-12203984D02*
X13564086Y-12203984D01*
X13564086Y-12203984D02*
X13583134Y-12213508D01*
X13583134Y-12213508D02*
X13592658Y-12223031D01*
X13592658Y-12223031D02*
X13602182Y-12242079D01*
X13602182Y-12242079D02*
X13611705Y-12280174D01*
X13611705Y-12280174D02*
X13611705Y-12327793D01*
X13611705Y-12327793D02*
X13602182Y-12365888D01*
X13602182Y-12365888D02*
X13592658Y-12384936D01*
X13592658Y-12384936D02*
X13583134Y-12394460D01*
X13583134Y-12394460D02*
X13564086Y-12403984D01*
X13564086Y-12403984D02*
X13545039Y-12403984D01*
X13545039Y-12403984D02*
X13525991Y-12394460D01*
X13525991Y-12394460D02*
X13516467Y-12384936D01*
X13516467Y-12384936D02*
X13506943Y-12365888D01*
X13506943Y-12365888D02*
X13497420Y-12327793D01*
X13497420Y-12327793D02*
X13497420Y-12280174D01*
X13497420Y-12280174D02*
X13506943Y-12242079D01*
X13506943Y-12242079D02*
X13516467Y-12223031D01*
X13516467Y-12223031D02*
X13525991Y-12213508D01*
X13525991Y-12213508D02*
X13545039Y-12203984D01*
X13697420Y-12403984D02*
X13697420Y-12270650D01*
X13697420Y-12289698D02*
X13706943Y-12280174D01*
X13706943Y-12280174D02*
X13725991Y-12270650D01*
X13725991Y-12270650D02*
X13754563Y-12270650D01*
X13754563Y-12270650D02*
X13773610Y-12280174D01*
X13773610Y-12280174D02*
X13783134Y-12299222D01*
X13783134Y-12299222D02*
X13783134Y-12403984D01*
X13783134Y-12299222D02*
X13792658Y-12280174D01*
X13792658Y-12280174D02*
X13811705Y-12270650D01*
X13811705Y-12270650D02*
X13840277Y-12270650D01*
X13840277Y-12270650D02*
X13859324Y-12280174D01*
X13859324Y-12280174D02*
X13868848Y-12299222D01*
X13868848Y-12299222D02*
X13868848Y-12403984D01*
X13964086Y-12403984D02*
X13964086Y-12270650D01*
X13964086Y-12289698D02*
X13973610Y-12280174D01*
X13973610Y-12280174D02*
X13992658Y-12270650D01*
X13992658Y-12270650D02*
X14021229Y-12270650D01*
X14021229Y-12270650D02*
X14040277Y-12280174D01*
X14040277Y-12280174D02*
X14049801Y-12299222D01*
X14049801Y-12299222D02*
X14049801Y-12403984D01*
X14049801Y-12299222D02*
X14059324Y-12280174D01*
X14059324Y-12280174D02*
X14078372Y-12270650D01*
X14078372Y-12270650D02*
X14106943Y-12270650D01*
X14106943Y-12270650D02*
X14125991Y-12280174D01*
X14125991Y-12280174D02*
X14135515Y-12299222D01*
X14135515Y-12299222D02*
X14135515Y-12403984D01*
X14525991Y-12194460D02*
X14354563Y-12451603D01*
X14783134Y-12203984D02*
X14802182Y-12203984D01*
X14802182Y-12203984D02*
X14821229Y-12213508D01*
X14821229Y-12213508D02*
X14830753Y-12223031D01*
X14830753Y-12223031D02*
X14840277Y-12242079D01*
X14840277Y-12242079D02*
X14849801Y-12280174D01*
X14849801Y-12280174D02*
X14849801Y-12327793D01*
X14849801Y-12327793D02*
X14840277Y-12365888D01*
X14840277Y-12365888D02*
X14830753Y-12384936D01*
X14830753Y-12384936D02*
X14821229Y-12394460D01*
X14821229Y-12394460D02*
X14802182Y-12403984D01*
X14802182Y-12403984D02*
X14783134Y-12403984D01*
X14783134Y-12403984D02*
X14764086Y-12394460D01*
X14764086Y-12394460D02*
X14754563Y-12384936D01*
X14754563Y-12384936D02*
X14745039Y-12365888D01*
X14745039Y-12365888D02*
X14735515Y-12327793D01*
X14735515Y-12327793D02*
X14735515Y-12280174D01*
X14735515Y-12280174D02*
X14745039Y-12242079D01*
X14745039Y-12242079D02*
X14754563Y-12223031D01*
X14754563Y-12223031D02*
X14764086Y-12213508D01*
X14764086Y-12213508D02*
X14783134Y-12203984D01*
X14935515Y-12384936D02*
X14945039Y-12394460D01*
X14945039Y-12394460D02*
X14935515Y-12403984D01*
X14935515Y-12403984D02*
X14925991Y-12394460D01*
X14925991Y-12394460D02*
X14935515Y-12384936D01*
X14935515Y-12384936D02*
X14935515Y-12403984D01*
X15068848Y-12203984D02*
X15087896Y-12203984D01*
X15087896Y-12203984D02*
X15106944Y-12213508D01*
X15106944Y-12213508D02*
X15116467Y-12223031D01*
X15116467Y-12223031D02*
X15125991Y-12242079D01*
X15125991Y-12242079D02*
X15135515Y-12280174D01*
X15135515Y-12280174D02*
X15135515Y-12327793D01*
X15135515Y-12327793D02*
X15125991Y-12365888D01*
X15125991Y-12365888D02*
X15116467Y-12384936D01*
X15116467Y-12384936D02*
X15106944Y-12394460D01*
X15106944Y-12394460D02*
X15087896Y-12403984D01*
X15087896Y-12403984D02*
X15068848Y-12403984D01*
X15068848Y-12403984D02*
X15049801Y-12394460D01*
X15049801Y-12394460D02*
X15040277Y-12384936D01*
X15040277Y-12384936D02*
X15030753Y-12365888D01*
X15030753Y-12365888D02*
X15021229Y-12327793D01*
X15021229Y-12327793D02*
X15021229Y-12280174D01*
X15021229Y-12280174D02*
X15030753Y-12242079D01*
X15030753Y-12242079D02*
X15040277Y-12223031D01*
X15040277Y-12223031D02*
X15049801Y-12213508D01*
X15049801Y-12213508D02*
X15068848Y-12203984D01*
X15202182Y-12203984D02*
X15325991Y-12203984D01*
X15325991Y-12203984D02*
X15259325Y-12280174D01*
X15259325Y-12280174D02*
X15287896Y-12280174D01*
X15287896Y-12280174D02*
X15306944Y-12289698D01*
X15306944Y-12289698D02*
X15316467Y-12299222D01*
X15316467Y-12299222D02*
X15325991Y-12318269D01*
X15325991Y-12318269D02*
X15325991Y-12365888D01*
X15325991Y-12365888D02*
X15316467Y-12384936D01*
X15316467Y-12384936D02*
X15306944Y-12394460D01*
X15306944Y-12394460D02*
X15287896Y-12403984D01*
X15287896Y-12403984D02*
X15230753Y-12403984D01*
X15230753Y-12403984D02*
X15211706Y-12394460D01*
X15211706Y-12394460D02*
X15202182Y-12384936D01*
X15506944Y-12203984D02*
X15411706Y-12203984D01*
X15411706Y-12203984D02*
X15402182Y-12299222D01*
X15402182Y-12299222D02*
X15411706Y-12289698D01*
X15411706Y-12289698D02*
X15430753Y-12280174D01*
X15430753Y-12280174D02*
X15478372Y-12280174D01*
X15478372Y-12280174D02*
X15497420Y-12289698D01*
X15497420Y-12289698D02*
X15506944Y-12299222D01*
X15506944Y-12299222D02*
X15516467Y-12318269D01*
X15516467Y-12318269D02*
X15516467Y-12365888D01*
X15516467Y-12365888D02*
X15506944Y-12384936D01*
X15506944Y-12384936D02*
X15497420Y-12394460D01*
X15497420Y-12394460D02*
X15478372Y-12403984D01*
X15478372Y-12403984D02*
X15430753Y-12403984D01*
X15430753Y-12403984D02*
X15411706Y-12394460D01*
X15411706Y-12394460D02*
X15402182Y-12384936D01*
X15687896Y-12270650D02*
X15687896Y-12403984D01*
X15640277Y-12194460D02*
X15592658Y-12337317D01*
X15592658Y-12337317D02*
X15716467Y-12337317D01*
X15783134Y-12203984D02*
X15783134Y-12242079D01*
X15859325Y-12203984D02*
X15859325Y-12242079D01*
X16154563Y-12480174D02*
X16145039Y-12470650D01*
X16145039Y-12470650D02*
X16125991Y-12442079D01*
X16125991Y-12442079D02*
X16116468Y-12423031D01*
X16116468Y-12423031D02*
X16106944Y-12394460D01*
X16106944Y-12394460D02*
X16097420Y-12346841D01*
X16097420Y-12346841D02*
X16097420Y-12308746D01*
X16097420Y-12308746D02*
X16106944Y-12261127D01*
X16106944Y-12261127D02*
X16116468Y-12232555D01*
X16116468Y-12232555D02*
X16125991Y-12213508D01*
X16125991Y-12213508D02*
X16145039Y-12184936D01*
X16145039Y-12184936D02*
X16154563Y-12175412D01*
X16335515Y-12403984D02*
X16221229Y-12403984D01*
X16278372Y-12403984D02*
X16278372Y-12203984D01*
X16278372Y-12203984D02*
X16259325Y-12232555D01*
X16259325Y-12232555D02*
X16240277Y-12251603D01*
X16240277Y-12251603D02*
X16221229Y-12261127D01*
X16411706Y-12223031D02*
X16421229Y-12213508D01*
X16421229Y-12213508D02*
X16440277Y-12203984D01*
X16440277Y-12203984D02*
X16487896Y-12203984D01*
X16487896Y-12203984D02*
X16506944Y-12213508D01*
X16506944Y-12213508D02*
X16516468Y-12223031D01*
X16516468Y-12223031D02*
X16525991Y-12242079D01*
X16525991Y-12242079D02*
X16525991Y-12261127D01*
X16525991Y-12261127D02*
X16516468Y-12289698D01*
X16516468Y-12289698D02*
X16402182Y-12403984D01*
X16402182Y-12403984D02*
X16525991Y-12403984D01*
X16764087Y-12403984D02*
X16764087Y-12203984D01*
X16849801Y-12403984D02*
X16849801Y-12299222D01*
X16849801Y-12299222D02*
X16840277Y-12280174D01*
X16840277Y-12280174D02*
X16821230Y-12270650D01*
X16821230Y-12270650D02*
X16792658Y-12270650D01*
X16792658Y-12270650D02*
X16773610Y-12280174D01*
X16773610Y-12280174D02*
X16764087Y-12289698D01*
X16973611Y-12403984D02*
X16954563Y-12394460D01*
X16954563Y-12394460D02*
X16945039Y-12384936D01*
X16945039Y-12384936D02*
X16935515Y-12365888D01*
X16935515Y-12365888D02*
X16935515Y-12308746D01*
X16935515Y-12308746D02*
X16945039Y-12289698D01*
X16945039Y-12289698D02*
X16954563Y-12280174D01*
X16954563Y-12280174D02*
X16973611Y-12270650D01*
X16973611Y-12270650D02*
X17002182Y-12270650D01*
X17002182Y-12270650D02*
X17021230Y-12280174D01*
X17021230Y-12280174D02*
X17030753Y-12289698D01*
X17030753Y-12289698D02*
X17040277Y-12308746D01*
X17040277Y-12308746D02*
X17040277Y-12365888D01*
X17040277Y-12365888D02*
X17030753Y-12384936D01*
X17030753Y-12384936D02*
X17021230Y-12394460D01*
X17021230Y-12394460D02*
X17002182Y-12403984D01*
X17002182Y-12403984D02*
X16973611Y-12403984D01*
X17154563Y-12403984D02*
X17135515Y-12394460D01*
X17135515Y-12394460D02*
X17125992Y-12375412D01*
X17125992Y-12375412D02*
X17125992Y-12203984D01*
X17306944Y-12394460D02*
X17287896Y-12403984D01*
X17287896Y-12403984D02*
X17249801Y-12403984D01*
X17249801Y-12403984D02*
X17230753Y-12394460D01*
X17230753Y-12394460D02*
X17221230Y-12375412D01*
X17221230Y-12375412D02*
X17221230Y-12299222D01*
X17221230Y-12299222D02*
X17230753Y-12280174D01*
X17230753Y-12280174D02*
X17249801Y-12270650D01*
X17249801Y-12270650D02*
X17287896Y-12270650D01*
X17287896Y-12270650D02*
X17306944Y-12280174D01*
X17306944Y-12280174D02*
X17316468Y-12299222D01*
X17316468Y-12299222D02*
X17316468Y-12318269D01*
X17316468Y-12318269D02*
X17221230Y-12337317D01*
X17392658Y-12394460D02*
X17411706Y-12403984D01*
X17411706Y-12403984D02*
X17449801Y-12403984D01*
X17449801Y-12403984D02*
X17468849Y-12394460D01*
X17468849Y-12394460D02*
X17478373Y-12375412D01*
X17478373Y-12375412D02*
X17478373Y-12365888D01*
X17478373Y-12365888D02*
X17468849Y-12346841D01*
X17468849Y-12346841D02*
X17449801Y-12337317D01*
X17449801Y-12337317D02*
X17421230Y-12337317D01*
X17421230Y-12337317D02*
X17402182Y-12327793D01*
X17402182Y-12327793D02*
X17392658Y-12308746D01*
X17392658Y-12308746D02*
X17392658Y-12299222D01*
X17392658Y-12299222D02*
X17402182Y-12280174D01*
X17402182Y-12280174D02*
X17421230Y-12270650D01*
X17421230Y-12270650D02*
X17449801Y-12270650D01*
X17449801Y-12270650D02*
X17468849Y-12280174D01*
X17545039Y-12480174D02*
X17554563Y-12470650D01*
X17554563Y-12470650D02*
X17573611Y-12442079D01*
X17573611Y-12442079D02*
X17583134Y-12423031D01*
X17583134Y-12423031D02*
X17592658Y-12394460D01*
X17592658Y-12394460D02*
X17602182Y-12346841D01*
X17602182Y-12346841D02*
X17602182Y-12308746D01*
X17602182Y-12308746D02*
X17592658Y-12261127D01*
X17592658Y-12261127D02*
X17583134Y-12232555D01*
X17583134Y-12232555D02*
X17573611Y-12213508D01*
X17573611Y-12213508D02*
X17554563Y-12184936D01*
X17554563Y-12184936D02*
X17545039Y-12175412D01*
D12*
X12529500Y-12626500D02*
X12579500Y-12576500D01*
X12529500Y-12526500D01*
X12479500Y-12576500D01*
X12529500Y-12626500D01*
D11*
X12945039Y-12667984D02*
X12830753Y-12667984D01*
X12887896Y-12667984D02*
X12887896Y-12467984D01*
X12887896Y-12467984D02*
X12868848Y-12496555D01*
X12868848Y-12496555D02*
X12849801Y-12515603D01*
X12849801Y-12515603D02*
X12830753Y-12525127D01*
X13030753Y-12648936D02*
X13040277Y-12658460D01*
X13040277Y-12658460D02*
X13030753Y-12667984D01*
X13030753Y-12667984D02*
X13021229Y-12658460D01*
X13021229Y-12658460D02*
X13030753Y-12648936D01*
X13030753Y-12648936D02*
X13030753Y-12667984D01*
X13164086Y-12467984D02*
X13183134Y-12467984D01*
X13183134Y-12467984D02*
X13202182Y-12477508D01*
X13202182Y-12477508D02*
X13211705Y-12487031D01*
X13211705Y-12487031D02*
X13221229Y-12506079D01*
X13221229Y-12506079D02*
X13230753Y-12544174D01*
X13230753Y-12544174D02*
X13230753Y-12591793D01*
X13230753Y-12591793D02*
X13221229Y-12629888D01*
X13221229Y-12629888D02*
X13211705Y-12648936D01*
X13211705Y-12648936D02*
X13202182Y-12658460D01*
X13202182Y-12658460D02*
X13183134Y-12667984D01*
X13183134Y-12667984D02*
X13164086Y-12667984D01*
X13164086Y-12667984D02*
X13145039Y-12658460D01*
X13145039Y-12658460D02*
X13135515Y-12648936D01*
X13135515Y-12648936D02*
X13125991Y-12629888D01*
X13125991Y-12629888D02*
X13116467Y-12591793D01*
X13116467Y-12591793D02*
X13116467Y-12544174D01*
X13116467Y-12544174D02*
X13125991Y-12506079D01*
X13125991Y-12506079D02*
X13135515Y-12487031D01*
X13135515Y-12487031D02*
X13145039Y-12477508D01*
X13145039Y-12477508D02*
X13164086Y-12467984D01*
X13354562Y-12467984D02*
X13373610Y-12467984D01*
X13373610Y-12467984D02*
X13392658Y-12477508D01*
X13392658Y-12477508D02*
X13402182Y-12487031D01*
X13402182Y-12487031D02*
X13411705Y-12506079D01*
X13411705Y-12506079D02*
X13421229Y-12544174D01*
X13421229Y-12544174D02*
X13421229Y-12591793D01*
X13421229Y-12591793D02*
X13411705Y-12629888D01*
X13411705Y-12629888D02*
X13402182Y-12648936D01*
X13402182Y-12648936D02*
X13392658Y-12658460D01*
X13392658Y-12658460D02*
X13373610Y-12667984D01*
X13373610Y-12667984D02*
X13354562Y-12667984D01*
X13354562Y-12667984D02*
X13335515Y-12658460D01*
X13335515Y-12658460D02*
X13325991Y-12648936D01*
X13325991Y-12648936D02*
X13316467Y-12629888D01*
X13316467Y-12629888D02*
X13306943Y-12591793D01*
X13306943Y-12591793D02*
X13306943Y-12544174D01*
X13306943Y-12544174D02*
X13316467Y-12506079D01*
X13316467Y-12506079D02*
X13325991Y-12487031D01*
X13325991Y-12487031D02*
X13335515Y-12477508D01*
X13335515Y-12477508D02*
X13354562Y-12467984D01*
X13545039Y-12467984D02*
X13564086Y-12467984D01*
X13564086Y-12467984D02*
X13583134Y-12477508D01*
X13583134Y-12477508D02*
X13592658Y-12487031D01*
X13592658Y-12487031D02*
X13602182Y-12506079D01*
X13602182Y-12506079D02*
X13611705Y-12544174D01*
X13611705Y-12544174D02*
X13611705Y-12591793D01*
X13611705Y-12591793D02*
X13602182Y-12629888D01*
X13602182Y-12629888D02*
X13592658Y-12648936D01*
X13592658Y-12648936D02*
X13583134Y-12658460D01*
X13583134Y-12658460D02*
X13564086Y-12667984D01*
X13564086Y-12667984D02*
X13545039Y-12667984D01*
X13545039Y-12667984D02*
X13525991Y-12658460D01*
X13525991Y-12658460D02*
X13516467Y-12648936D01*
X13516467Y-12648936D02*
X13506943Y-12629888D01*
X13506943Y-12629888D02*
X13497420Y-12591793D01*
X13497420Y-12591793D02*
X13497420Y-12544174D01*
X13497420Y-12544174D02*
X13506943Y-12506079D01*
X13506943Y-12506079D02*
X13516467Y-12487031D01*
X13516467Y-12487031D02*
X13525991Y-12477508D01*
X13525991Y-12477508D02*
X13545039Y-12467984D01*
X13697420Y-12667984D02*
X13697420Y-12534650D01*
X13697420Y-12553698D02*
X13706943Y-12544174D01*
X13706943Y-12544174D02*
X13725991Y-12534650D01*
X13725991Y-12534650D02*
X13754563Y-12534650D01*
X13754563Y-12534650D02*
X13773610Y-12544174D01*
X13773610Y-12544174D02*
X13783134Y-12563222D01*
X13783134Y-12563222D02*
X13783134Y-12667984D01*
X13783134Y-12563222D02*
X13792658Y-12544174D01*
X13792658Y-12544174D02*
X13811705Y-12534650D01*
X13811705Y-12534650D02*
X13840277Y-12534650D01*
X13840277Y-12534650D02*
X13859324Y-12544174D01*
X13859324Y-12544174D02*
X13868848Y-12563222D01*
X13868848Y-12563222D02*
X13868848Y-12667984D01*
X13964086Y-12667984D02*
X13964086Y-12534650D01*
X13964086Y-12553698D02*
X13973610Y-12544174D01*
X13973610Y-12544174D02*
X13992658Y-12534650D01*
X13992658Y-12534650D02*
X14021229Y-12534650D01*
X14021229Y-12534650D02*
X14040277Y-12544174D01*
X14040277Y-12544174D02*
X14049801Y-12563222D01*
X14049801Y-12563222D02*
X14049801Y-12667984D01*
X14049801Y-12563222D02*
X14059324Y-12544174D01*
X14059324Y-12544174D02*
X14078372Y-12534650D01*
X14078372Y-12534650D02*
X14106943Y-12534650D01*
X14106943Y-12534650D02*
X14125991Y-12544174D01*
X14125991Y-12544174D02*
X14135515Y-12563222D01*
X14135515Y-12563222D02*
X14135515Y-12667984D01*
X14525991Y-12458460D02*
X14354563Y-12715603D01*
X14783134Y-12467984D02*
X14802182Y-12467984D01*
X14802182Y-12467984D02*
X14821229Y-12477508D01*
X14821229Y-12477508D02*
X14830753Y-12487031D01*
X14830753Y-12487031D02*
X14840277Y-12506079D01*
X14840277Y-12506079D02*
X14849801Y-12544174D01*
X14849801Y-12544174D02*
X14849801Y-12591793D01*
X14849801Y-12591793D02*
X14840277Y-12629888D01*
X14840277Y-12629888D02*
X14830753Y-12648936D01*
X14830753Y-12648936D02*
X14821229Y-12658460D01*
X14821229Y-12658460D02*
X14802182Y-12667984D01*
X14802182Y-12667984D02*
X14783134Y-12667984D01*
X14783134Y-12667984D02*
X14764086Y-12658460D01*
X14764086Y-12658460D02*
X14754563Y-12648936D01*
X14754563Y-12648936D02*
X14745039Y-12629888D01*
X14745039Y-12629888D02*
X14735515Y-12591793D01*
X14735515Y-12591793D02*
X14735515Y-12544174D01*
X14735515Y-12544174D02*
X14745039Y-12506079D01*
X14745039Y-12506079D02*
X14754563Y-12487031D01*
X14754563Y-12487031D02*
X14764086Y-12477508D01*
X14764086Y-12477508D02*
X14783134Y-12467984D01*
X14935515Y-12648936D02*
X14945039Y-12658460D01*
X14945039Y-12658460D02*
X14935515Y-12667984D01*
X14935515Y-12667984D02*
X14925991Y-12658460D01*
X14925991Y-12658460D02*
X14935515Y-12648936D01*
X14935515Y-12648936D02*
X14935515Y-12667984D01*
X15068848Y-12467984D02*
X15087896Y-12467984D01*
X15087896Y-12467984D02*
X15106944Y-12477508D01*
X15106944Y-12477508D02*
X15116467Y-12487031D01*
X15116467Y-12487031D02*
X15125991Y-12506079D01*
X15125991Y-12506079D02*
X15135515Y-12544174D01*
X15135515Y-12544174D02*
X15135515Y-12591793D01*
X15135515Y-12591793D02*
X15125991Y-12629888D01*
X15125991Y-12629888D02*
X15116467Y-12648936D01*
X15116467Y-12648936D02*
X15106944Y-12658460D01*
X15106944Y-12658460D02*
X15087896Y-12667984D01*
X15087896Y-12667984D02*
X15068848Y-12667984D01*
X15068848Y-12667984D02*
X15049801Y-12658460D01*
X15049801Y-12658460D02*
X15040277Y-12648936D01*
X15040277Y-12648936D02*
X15030753Y-12629888D01*
X15030753Y-12629888D02*
X15021229Y-12591793D01*
X15021229Y-12591793D02*
X15021229Y-12544174D01*
X15021229Y-12544174D02*
X15030753Y-12506079D01*
X15030753Y-12506079D02*
X15040277Y-12487031D01*
X15040277Y-12487031D02*
X15049801Y-12477508D01*
X15049801Y-12477508D02*
X15068848Y-12467984D01*
X15202182Y-12467984D02*
X15325991Y-12467984D01*
X15325991Y-12467984D02*
X15259325Y-12544174D01*
X15259325Y-12544174D02*
X15287896Y-12544174D01*
X15287896Y-12544174D02*
X15306944Y-12553698D01*
X15306944Y-12553698D02*
X15316467Y-12563222D01*
X15316467Y-12563222D02*
X15325991Y-12582269D01*
X15325991Y-12582269D02*
X15325991Y-12629888D01*
X15325991Y-12629888D02*
X15316467Y-12648936D01*
X15316467Y-12648936D02*
X15306944Y-12658460D01*
X15306944Y-12658460D02*
X15287896Y-12667984D01*
X15287896Y-12667984D02*
X15230753Y-12667984D01*
X15230753Y-12667984D02*
X15211706Y-12658460D01*
X15211706Y-12658460D02*
X15202182Y-12648936D01*
X15421229Y-12667984D02*
X15459325Y-12667984D01*
X15459325Y-12667984D02*
X15478372Y-12658460D01*
X15478372Y-12658460D02*
X15487896Y-12648936D01*
X15487896Y-12648936D02*
X15506944Y-12620365D01*
X15506944Y-12620365D02*
X15516467Y-12582269D01*
X15516467Y-12582269D02*
X15516467Y-12506079D01*
X15516467Y-12506079D02*
X15506944Y-12487031D01*
X15506944Y-12487031D02*
X15497420Y-12477508D01*
X15497420Y-12477508D02*
X15478372Y-12467984D01*
X15478372Y-12467984D02*
X15440277Y-12467984D01*
X15440277Y-12467984D02*
X15421229Y-12477508D01*
X15421229Y-12477508D02*
X15411706Y-12487031D01*
X15411706Y-12487031D02*
X15402182Y-12506079D01*
X15402182Y-12506079D02*
X15402182Y-12553698D01*
X15402182Y-12553698D02*
X15411706Y-12572746D01*
X15411706Y-12572746D02*
X15421229Y-12582269D01*
X15421229Y-12582269D02*
X15440277Y-12591793D01*
X15440277Y-12591793D02*
X15478372Y-12591793D01*
X15478372Y-12591793D02*
X15497420Y-12582269D01*
X15497420Y-12582269D02*
X15506944Y-12572746D01*
X15506944Y-12572746D02*
X15516467Y-12553698D01*
X15687896Y-12534650D02*
X15687896Y-12667984D01*
X15640277Y-12458460D02*
X15592658Y-12601317D01*
X15592658Y-12601317D02*
X15716467Y-12601317D01*
X15783134Y-12467984D02*
X15783134Y-12506079D01*
X15859325Y-12467984D02*
X15859325Y-12506079D01*
X16154563Y-12744174D02*
X16145039Y-12734650D01*
X16145039Y-12734650D02*
X16125991Y-12706079D01*
X16125991Y-12706079D02*
X16116468Y-12687031D01*
X16116468Y-12687031D02*
X16106944Y-12658460D01*
X16106944Y-12658460D02*
X16097420Y-12610841D01*
X16097420Y-12610841D02*
X16097420Y-12572746D01*
X16097420Y-12572746D02*
X16106944Y-12525127D01*
X16106944Y-12525127D02*
X16116468Y-12496555D01*
X16116468Y-12496555D02*
X16125991Y-12477508D01*
X16125991Y-12477508D02*
X16145039Y-12448936D01*
X16145039Y-12448936D02*
X16154563Y-12439412D01*
X16240277Y-12667984D02*
X16278372Y-12667984D01*
X16278372Y-12667984D02*
X16297420Y-12658460D01*
X16297420Y-12658460D02*
X16306944Y-12648936D01*
X16306944Y-12648936D02*
X16325991Y-12620365D01*
X16325991Y-12620365D02*
X16335515Y-12582269D01*
X16335515Y-12582269D02*
X16335515Y-12506079D01*
X16335515Y-12506079D02*
X16325991Y-12487031D01*
X16325991Y-12487031D02*
X16316468Y-12477508D01*
X16316468Y-12477508D02*
X16297420Y-12467984D01*
X16297420Y-12467984D02*
X16259325Y-12467984D01*
X16259325Y-12467984D02*
X16240277Y-12477508D01*
X16240277Y-12477508D02*
X16230753Y-12487031D01*
X16230753Y-12487031D02*
X16221229Y-12506079D01*
X16221229Y-12506079D02*
X16221229Y-12553698D01*
X16221229Y-12553698D02*
X16230753Y-12572746D01*
X16230753Y-12572746D02*
X16240277Y-12582269D01*
X16240277Y-12582269D02*
X16259325Y-12591793D01*
X16259325Y-12591793D02*
X16297420Y-12591793D01*
X16297420Y-12591793D02*
X16316468Y-12582269D01*
X16316468Y-12582269D02*
X16325991Y-12572746D01*
X16325991Y-12572746D02*
X16335515Y-12553698D01*
X16573610Y-12667984D02*
X16573610Y-12467984D01*
X16659325Y-12667984D02*
X16659325Y-12563222D01*
X16659325Y-12563222D02*
X16649801Y-12544174D01*
X16649801Y-12544174D02*
X16630753Y-12534650D01*
X16630753Y-12534650D02*
X16602182Y-12534650D01*
X16602182Y-12534650D02*
X16583134Y-12544174D01*
X16583134Y-12544174D02*
X16573610Y-12553698D01*
X16783134Y-12667984D02*
X16764087Y-12658460D01*
X16764087Y-12658460D02*
X16754563Y-12648936D01*
X16754563Y-12648936D02*
X16745039Y-12629888D01*
X16745039Y-12629888D02*
X16745039Y-12572746D01*
X16745039Y-12572746D02*
X16754563Y-12553698D01*
X16754563Y-12553698D02*
X16764087Y-12544174D01*
X16764087Y-12544174D02*
X16783134Y-12534650D01*
X16783134Y-12534650D02*
X16811706Y-12534650D01*
X16811706Y-12534650D02*
X16830753Y-12544174D01*
X16830753Y-12544174D02*
X16840277Y-12553698D01*
X16840277Y-12553698D02*
X16849801Y-12572746D01*
X16849801Y-12572746D02*
X16849801Y-12629888D01*
X16849801Y-12629888D02*
X16840277Y-12648936D01*
X16840277Y-12648936D02*
X16830753Y-12658460D01*
X16830753Y-12658460D02*
X16811706Y-12667984D01*
X16811706Y-12667984D02*
X16783134Y-12667984D01*
X16964087Y-12667984D02*
X16945039Y-12658460D01*
X16945039Y-12658460D02*
X16935515Y-12639412D01*
X16935515Y-12639412D02*
X16935515Y-12467984D01*
X17116468Y-12658460D02*
X17097420Y-12667984D01*
X17097420Y-12667984D02*
X17059325Y-12667984D01*
X17059325Y-12667984D02*
X17040277Y-12658460D01*
X17040277Y-12658460D02*
X17030753Y-12639412D01*
X17030753Y-12639412D02*
X17030753Y-12563222D01*
X17030753Y-12563222D02*
X17040277Y-12544174D01*
X17040277Y-12544174D02*
X17059325Y-12534650D01*
X17059325Y-12534650D02*
X17097420Y-12534650D01*
X17097420Y-12534650D02*
X17116468Y-12544174D01*
X17116468Y-12544174D02*
X17125992Y-12563222D01*
X17125992Y-12563222D02*
X17125992Y-12582269D01*
X17125992Y-12582269D02*
X17030753Y-12601317D01*
X17202182Y-12658460D02*
X17221230Y-12667984D01*
X17221230Y-12667984D02*
X17259325Y-12667984D01*
X17259325Y-12667984D02*
X17278373Y-12658460D01*
X17278373Y-12658460D02*
X17287896Y-12639412D01*
X17287896Y-12639412D02*
X17287896Y-12629888D01*
X17287896Y-12629888D02*
X17278373Y-12610841D01*
X17278373Y-12610841D02*
X17259325Y-12601317D01*
X17259325Y-12601317D02*
X17230753Y-12601317D01*
X17230753Y-12601317D02*
X17211706Y-12591793D01*
X17211706Y-12591793D02*
X17202182Y-12572746D01*
X17202182Y-12572746D02*
X17202182Y-12563222D01*
X17202182Y-12563222D02*
X17211706Y-12544174D01*
X17211706Y-12544174D02*
X17230753Y-12534650D01*
X17230753Y-12534650D02*
X17259325Y-12534650D01*
X17259325Y-12534650D02*
X17278373Y-12544174D01*
X17354563Y-12744174D02*
X17364087Y-12734650D01*
X17364087Y-12734650D02*
X17383134Y-12706079D01*
X17383134Y-12706079D02*
X17392658Y-12687031D01*
X17392658Y-12687031D02*
X17402182Y-12658460D01*
X17402182Y-12658460D02*
X17411706Y-12610841D01*
X17411706Y-12610841D02*
X17411706Y-12572746D01*
X17411706Y-12572746D02*
X17402182Y-12525127D01*
X17402182Y-12525127D02*
X17392658Y-12496555D01*
X17392658Y-12496555D02*
X17383134Y-12477508D01*
X17383134Y-12477508D02*
X17364087Y-12448936D01*
X17364087Y-12448936D02*
X17354563Y-12439412D01*
D13*
X12429500Y-12765500D02*
X12579500Y-12915500D01*
X12579500Y-12765500D02*
X12429500Y-12915500D01*
X12579500Y-12840500D02*
G75*
G02*
X12429500Y-12840500I-75000J0D01*
G01*
X12429500Y-12840500D02*
G75*
G02*
X12579500Y-12840500I75000J0D01*
G01*
D11*
X12945039Y-12931984D02*
X12830753Y-12931984D01*
X12887896Y-12931984D02*
X12887896Y-12731984D01*
X12887896Y-12731984D02*
X12868848Y-12760555D01*
X12868848Y-12760555D02*
X12849801Y-12779603D01*
X12849801Y-12779603D02*
X12830753Y-12789127D01*
X13030753Y-12912936D02*
X13040277Y-12922460D01*
X13040277Y-12922460D02*
X13030753Y-12931984D01*
X13030753Y-12931984D02*
X13021229Y-12922460D01*
X13021229Y-12922460D02*
X13030753Y-12912936D01*
X13030753Y-12912936D02*
X13030753Y-12931984D01*
X13221229Y-12731984D02*
X13125991Y-12731984D01*
X13125991Y-12731984D02*
X13116467Y-12827222D01*
X13116467Y-12827222D02*
X13125991Y-12817698D01*
X13125991Y-12817698D02*
X13145039Y-12808174D01*
X13145039Y-12808174D02*
X13192658Y-12808174D01*
X13192658Y-12808174D02*
X13211705Y-12817698D01*
X13211705Y-12817698D02*
X13221229Y-12827222D01*
X13221229Y-12827222D02*
X13230753Y-12846269D01*
X13230753Y-12846269D02*
X13230753Y-12893888D01*
X13230753Y-12893888D02*
X13221229Y-12912936D01*
X13221229Y-12912936D02*
X13211705Y-12922460D01*
X13211705Y-12922460D02*
X13192658Y-12931984D01*
X13192658Y-12931984D02*
X13145039Y-12931984D01*
X13145039Y-12931984D02*
X13125991Y-12922460D01*
X13125991Y-12922460D02*
X13116467Y-12912936D01*
X13354562Y-12731984D02*
X13373610Y-12731984D01*
X13373610Y-12731984D02*
X13392658Y-12741508D01*
X13392658Y-12741508D02*
X13402182Y-12751031D01*
X13402182Y-12751031D02*
X13411705Y-12770079D01*
X13411705Y-12770079D02*
X13421229Y-12808174D01*
X13421229Y-12808174D02*
X13421229Y-12855793D01*
X13421229Y-12855793D02*
X13411705Y-12893888D01*
X13411705Y-12893888D02*
X13402182Y-12912936D01*
X13402182Y-12912936D02*
X13392658Y-12922460D01*
X13392658Y-12922460D02*
X13373610Y-12931984D01*
X13373610Y-12931984D02*
X13354562Y-12931984D01*
X13354562Y-12931984D02*
X13335515Y-12922460D01*
X13335515Y-12922460D02*
X13325991Y-12912936D01*
X13325991Y-12912936D02*
X13316467Y-12893888D01*
X13316467Y-12893888D02*
X13306943Y-12855793D01*
X13306943Y-12855793D02*
X13306943Y-12808174D01*
X13306943Y-12808174D02*
X13316467Y-12770079D01*
X13316467Y-12770079D02*
X13325991Y-12751031D01*
X13325991Y-12751031D02*
X13335515Y-12741508D01*
X13335515Y-12741508D02*
X13354562Y-12731984D01*
X13545039Y-12731984D02*
X13564086Y-12731984D01*
X13564086Y-12731984D02*
X13583134Y-12741508D01*
X13583134Y-12741508D02*
X13592658Y-12751031D01*
X13592658Y-12751031D02*
X13602182Y-12770079D01*
X13602182Y-12770079D02*
X13611705Y-12808174D01*
X13611705Y-12808174D02*
X13611705Y-12855793D01*
X13611705Y-12855793D02*
X13602182Y-12893888D01*
X13602182Y-12893888D02*
X13592658Y-12912936D01*
X13592658Y-12912936D02*
X13583134Y-12922460D01*
X13583134Y-12922460D02*
X13564086Y-12931984D01*
X13564086Y-12931984D02*
X13545039Y-12931984D01*
X13545039Y-12931984D02*
X13525991Y-12922460D01*
X13525991Y-12922460D02*
X13516467Y-12912936D01*
X13516467Y-12912936D02*
X13506943Y-12893888D01*
X13506943Y-12893888D02*
X13497420Y-12855793D01*
X13497420Y-12855793D02*
X13497420Y-12808174D01*
X13497420Y-12808174D02*
X13506943Y-12770079D01*
X13506943Y-12770079D02*
X13516467Y-12751031D01*
X13516467Y-12751031D02*
X13525991Y-12741508D01*
X13525991Y-12741508D02*
X13545039Y-12731984D01*
X13697420Y-12931984D02*
X13697420Y-12798650D01*
X13697420Y-12817698D02*
X13706943Y-12808174D01*
X13706943Y-12808174D02*
X13725991Y-12798650D01*
X13725991Y-12798650D02*
X13754563Y-12798650D01*
X13754563Y-12798650D02*
X13773610Y-12808174D01*
X13773610Y-12808174D02*
X13783134Y-12827222D01*
X13783134Y-12827222D02*
X13783134Y-12931984D01*
X13783134Y-12827222D02*
X13792658Y-12808174D01*
X13792658Y-12808174D02*
X13811705Y-12798650D01*
X13811705Y-12798650D02*
X13840277Y-12798650D01*
X13840277Y-12798650D02*
X13859324Y-12808174D01*
X13859324Y-12808174D02*
X13868848Y-12827222D01*
X13868848Y-12827222D02*
X13868848Y-12931984D01*
X13964086Y-12931984D02*
X13964086Y-12798650D01*
X13964086Y-12817698D02*
X13973610Y-12808174D01*
X13973610Y-12808174D02*
X13992658Y-12798650D01*
X13992658Y-12798650D02*
X14021229Y-12798650D01*
X14021229Y-12798650D02*
X14040277Y-12808174D01*
X14040277Y-12808174D02*
X14049801Y-12827222D01*
X14049801Y-12827222D02*
X14049801Y-12931984D01*
X14049801Y-12827222D02*
X14059324Y-12808174D01*
X14059324Y-12808174D02*
X14078372Y-12798650D01*
X14078372Y-12798650D02*
X14106943Y-12798650D01*
X14106943Y-12798650D02*
X14125991Y-12808174D01*
X14125991Y-12808174D02*
X14135515Y-12827222D01*
X14135515Y-12827222D02*
X14135515Y-12931984D01*
X14525991Y-12722460D02*
X14354563Y-12979603D01*
X14783134Y-12731984D02*
X14802182Y-12731984D01*
X14802182Y-12731984D02*
X14821229Y-12741508D01*
X14821229Y-12741508D02*
X14830753Y-12751031D01*
X14830753Y-12751031D02*
X14840277Y-12770079D01*
X14840277Y-12770079D02*
X14849801Y-12808174D01*
X14849801Y-12808174D02*
X14849801Y-12855793D01*
X14849801Y-12855793D02*
X14840277Y-12893888D01*
X14840277Y-12893888D02*
X14830753Y-12912936D01*
X14830753Y-12912936D02*
X14821229Y-12922460D01*
X14821229Y-12922460D02*
X14802182Y-12931984D01*
X14802182Y-12931984D02*
X14783134Y-12931984D01*
X14783134Y-12931984D02*
X14764086Y-12922460D01*
X14764086Y-12922460D02*
X14754563Y-12912936D01*
X14754563Y-12912936D02*
X14745039Y-12893888D01*
X14745039Y-12893888D02*
X14735515Y-12855793D01*
X14735515Y-12855793D02*
X14735515Y-12808174D01*
X14735515Y-12808174D02*
X14745039Y-12770079D01*
X14745039Y-12770079D02*
X14754563Y-12751031D01*
X14754563Y-12751031D02*
X14764086Y-12741508D01*
X14764086Y-12741508D02*
X14783134Y-12731984D01*
X14935515Y-12912936D02*
X14945039Y-12922460D01*
X14945039Y-12922460D02*
X14935515Y-12931984D01*
X14935515Y-12931984D02*
X14925991Y-12922460D01*
X14925991Y-12922460D02*
X14935515Y-12912936D01*
X14935515Y-12912936D02*
X14935515Y-12931984D01*
X15068848Y-12731984D02*
X15087896Y-12731984D01*
X15087896Y-12731984D02*
X15106944Y-12741508D01*
X15106944Y-12741508D02*
X15116467Y-12751031D01*
X15116467Y-12751031D02*
X15125991Y-12770079D01*
X15125991Y-12770079D02*
X15135515Y-12808174D01*
X15135515Y-12808174D02*
X15135515Y-12855793D01*
X15135515Y-12855793D02*
X15125991Y-12893888D01*
X15125991Y-12893888D02*
X15116467Y-12912936D01*
X15116467Y-12912936D02*
X15106944Y-12922460D01*
X15106944Y-12922460D02*
X15087896Y-12931984D01*
X15087896Y-12931984D02*
X15068848Y-12931984D01*
X15068848Y-12931984D02*
X15049801Y-12922460D01*
X15049801Y-12922460D02*
X15040277Y-12912936D01*
X15040277Y-12912936D02*
X15030753Y-12893888D01*
X15030753Y-12893888D02*
X15021229Y-12855793D01*
X15021229Y-12855793D02*
X15021229Y-12808174D01*
X15021229Y-12808174D02*
X15030753Y-12770079D01*
X15030753Y-12770079D02*
X15040277Y-12751031D01*
X15040277Y-12751031D02*
X15049801Y-12741508D01*
X15049801Y-12741508D02*
X15068848Y-12731984D01*
X15316467Y-12731984D02*
X15221229Y-12731984D01*
X15221229Y-12731984D02*
X15211706Y-12827222D01*
X15211706Y-12827222D02*
X15221229Y-12817698D01*
X15221229Y-12817698D02*
X15240277Y-12808174D01*
X15240277Y-12808174D02*
X15287896Y-12808174D01*
X15287896Y-12808174D02*
X15306944Y-12817698D01*
X15306944Y-12817698D02*
X15316467Y-12827222D01*
X15316467Y-12827222D02*
X15325991Y-12846269D01*
X15325991Y-12846269D02*
X15325991Y-12893888D01*
X15325991Y-12893888D02*
X15316467Y-12912936D01*
X15316467Y-12912936D02*
X15306944Y-12922460D01*
X15306944Y-12922460D02*
X15287896Y-12931984D01*
X15287896Y-12931984D02*
X15240277Y-12931984D01*
X15240277Y-12931984D02*
X15221229Y-12922460D01*
X15221229Y-12922460D02*
X15211706Y-12912936D01*
X15421229Y-12931984D02*
X15459325Y-12931984D01*
X15459325Y-12931984D02*
X15478372Y-12922460D01*
X15478372Y-12922460D02*
X15487896Y-12912936D01*
X15487896Y-12912936D02*
X15506944Y-12884365D01*
X15506944Y-12884365D02*
X15516467Y-12846269D01*
X15516467Y-12846269D02*
X15516467Y-12770079D01*
X15516467Y-12770079D02*
X15506944Y-12751031D01*
X15506944Y-12751031D02*
X15497420Y-12741508D01*
X15497420Y-12741508D02*
X15478372Y-12731984D01*
X15478372Y-12731984D02*
X15440277Y-12731984D01*
X15440277Y-12731984D02*
X15421229Y-12741508D01*
X15421229Y-12741508D02*
X15411706Y-12751031D01*
X15411706Y-12751031D02*
X15402182Y-12770079D01*
X15402182Y-12770079D02*
X15402182Y-12817698D01*
X15402182Y-12817698D02*
X15411706Y-12836746D01*
X15411706Y-12836746D02*
X15421229Y-12846269D01*
X15421229Y-12846269D02*
X15440277Y-12855793D01*
X15440277Y-12855793D02*
X15478372Y-12855793D01*
X15478372Y-12855793D02*
X15497420Y-12846269D01*
X15497420Y-12846269D02*
X15506944Y-12836746D01*
X15506944Y-12836746D02*
X15516467Y-12817698D01*
X15706944Y-12931984D02*
X15592658Y-12931984D01*
X15649801Y-12931984D02*
X15649801Y-12731984D01*
X15649801Y-12731984D02*
X15630753Y-12760555D01*
X15630753Y-12760555D02*
X15611706Y-12779603D01*
X15611706Y-12779603D02*
X15592658Y-12789127D01*
X15783134Y-12731984D02*
X15783134Y-12770079D01*
X15859325Y-12731984D02*
X15859325Y-12770079D01*
X16154563Y-13008174D02*
X16145039Y-12998650D01*
X16145039Y-12998650D02*
X16125991Y-12970079D01*
X16125991Y-12970079D02*
X16116468Y-12951031D01*
X16116468Y-12951031D02*
X16106944Y-12922460D01*
X16106944Y-12922460D02*
X16097420Y-12874841D01*
X16097420Y-12874841D02*
X16097420Y-12836746D01*
X16097420Y-12836746D02*
X16106944Y-12789127D01*
X16106944Y-12789127D02*
X16116468Y-12760555D01*
X16116468Y-12760555D02*
X16125991Y-12741508D01*
X16125991Y-12741508D02*
X16145039Y-12712936D01*
X16145039Y-12712936D02*
X16154563Y-12703412D01*
X16268848Y-12731984D02*
X16287896Y-12731984D01*
X16287896Y-12731984D02*
X16306944Y-12741508D01*
X16306944Y-12741508D02*
X16316468Y-12751031D01*
X16316468Y-12751031D02*
X16325991Y-12770079D01*
X16325991Y-12770079D02*
X16335515Y-12808174D01*
X16335515Y-12808174D02*
X16335515Y-12855793D01*
X16335515Y-12855793D02*
X16325991Y-12893888D01*
X16325991Y-12893888D02*
X16316468Y-12912936D01*
X16316468Y-12912936D02*
X16306944Y-12922460D01*
X16306944Y-12922460D02*
X16287896Y-12931984D01*
X16287896Y-12931984D02*
X16268848Y-12931984D01*
X16268848Y-12931984D02*
X16249801Y-12922460D01*
X16249801Y-12922460D02*
X16240277Y-12912936D01*
X16240277Y-12912936D02*
X16230753Y-12893888D01*
X16230753Y-12893888D02*
X16221229Y-12855793D01*
X16221229Y-12855793D02*
X16221229Y-12808174D01*
X16221229Y-12808174D02*
X16230753Y-12770079D01*
X16230753Y-12770079D02*
X16240277Y-12751031D01*
X16240277Y-12751031D02*
X16249801Y-12741508D01*
X16249801Y-12741508D02*
X16268848Y-12731984D01*
X16573610Y-12931984D02*
X16573610Y-12731984D01*
X16659325Y-12931984D02*
X16659325Y-12827222D01*
X16659325Y-12827222D02*
X16649801Y-12808174D01*
X16649801Y-12808174D02*
X16630753Y-12798650D01*
X16630753Y-12798650D02*
X16602182Y-12798650D01*
X16602182Y-12798650D02*
X16583134Y-12808174D01*
X16583134Y-12808174D02*
X16573610Y-12817698D01*
X16783134Y-12931984D02*
X16764087Y-12922460D01*
X16764087Y-12922460D02*
X16754563Y-12912936D01*
X16754563Y-12912936D02*
X16745039Y-12893888D01*
X16745039Y-12893888D02*
X16745039Y-12836746D01*
X16745039Y-12836746D02*
X16754563Y-12817698D01*
X16754563Y-12817698D02*
X16764087Y-12808174D01*
X16764087Y-12808174D02*
X16783134Y-12798650D01*
X16783134Y-12798650D02*
X16811706Y-12798650D01*
X16811706Y-12798650D02*
X16830753Y-12808174D01*
X16830753Y-12808174D02*
X16840277Y-12817698D01*
X16840277Y-12817698D02*
X16849801Y-12836746D01*
X16849801Y-12836746D02*
X16849801Y-12893888D01*
X16849801Y-12893888D02*
X16840277Y-12912936D01*
X16840277Y-12912936D02*
X16830753Y-12922460D01*
X16830753Y-12922460D02*
X16811706Y-12931984D01*
X16811706Y-12931984D02*
X16783134Y-12931984D01*
X16964087Y-12931984D02*
X16945039Y-12922460D01*
X16945039Y-12922460D02*
X16935515Y-12903412D01*
X16935515Y-12903412D02*
X16935515Y-12731984D01*
X17116468Y-12922460D02*
X17097420Y-12931984D01*
X17097420Y-12931984D02*
X17059325Y-12931984D01*
X17059325Y-12931984D02*
X17040277Y-12922460D01*
X17040277Y-12922460D02*
X17030753Y-12903412D01*
X17030753Y-12903412D02*
X17030753Y-12827222D01*
X17030753Y-12827222D02*
X17040277Y-12808174D01*
X17040277Y-12808174D02*
X17059325Y-12798650D01*
X17059325Y-12798650D02*
X17097420Y-12798650D01*
X17097420Y-12798650D02*
X17116468Y-12808174D01*
X17116468Y-12808174D02*
X17125992Y-12827222D01*
X17125992Y-12827222D02*
X17125992Y-12846269D01*
X17125992Y-12846269D02*
X17030753Y-12865317D01*
X17202182Y-12922460D02*
X17221230Y-12931984D01*
X17221230Y-12931984D02*
X17259325Y-12931984D01*
X17259325Y-12931984D02*
X17278373Y-12922460D01*
X17278373Y-12922460D02*
X17287896Y-12903412D01*
X17287896Y-12903412D02*
X17287896Y-12893888D01*
X17287896Y-12893888D02*
X17278373Y-12874841D01*
X17278373Y-12874841D02*
X17259325Y-12865317D01*
X17259325Y-12865317D02*
X17230753Y-12865317D01*
X17230753Y-12865317D02*
X17211706Y-12855793D01*
X17211706Y-12855793D02*
X17202182Y-12836746D01*
X17202182Y-12836746D02*
X17202182Y-12827222D01*
X17202182Y-12827222D02*
X17211706Y-12808174D01*
X17211706Y-12808174D02*
X17230753Y-12798650D01*
X17230753Y-12798650D02*
X17259325Y-12798650D01*
X17259325Y-12798650D02*
X17278373Y-12808174D01*
X17525992Y-12855793D02*
X17678373Y-12855793D01*
X17602182Y-12931984D02*
X17602182Y-12779603D01*
X17916468Y-12751031D02*
X17925992Y-12741508D01*
X17925992Y-12741508D02*
X17945039Y-12731984D01*
X17945039Y-12731984D02*
X17992658Y-12731984D01*
X17992658Y-12731984D02*
X18011706Y-12741508D01*
X18011706Y-12741508D02*
X18021230Y-12751031D01*
X18021230Y-12751031D02*
X18030754Y-12770079D01*
X18030754Y-12770079D02*
X18030754Y-12789127D01*
X18030754Y-12789127D02*
X18021230Y-12817698D01*
X18021230Y-12817698D02*
X17906944Y-12931984D01*
X17906944Y-12931984D02*
X18030754Y-12931984D01*
X18259325Y-12922460D02*
X18278373Y-12931984D01*
X18278373Y-12931984D02*
X18316468Y-12931984D01*
X18316468Y-12931984D02*
X18335516Y-12922460D01*
X18335516Y-12922460D02*
X18345039Y-12903412D01*
X18345039Y-12903412D02*
X18345039Y-12893888D01*
X18345039Y-12893888D02*
X18335516Y-12874841D01*
X18335516Y-12874841D02*
X18316468Y-12865317D01*
X18316468Y-12865317D02*
X18287896Y-12865317D01*
X18287896Y-12865317D02*
X18268849Y-12855793D01*
X18268849Y-12855793D02*
X18259325Y-12836746D01*
X18259325Y-12836746D02*
X18259325Y-12827222D01*
X18259325Y-12827222D02*
X18268849Y-12808174D01*
X18268849Y-12808174D02*
X18287896Y-12798650D01*
X18287896Y-12798650D02*
X18316468Y-12798650D01*
X18316468Y-12798650D02*
X18335516Y-12808174D01*
X18459325Y-12931984D02*
X18440277Y-12922460D01*
X18440277Y-12922460D02*
X18430754Y-12903412D01*
X18430754Y-12903412D02*
X18430754Y-12731984D01*
X18564087Y-12931984D02*
X18545039Y-12922460D01*
X18545039Y-12922460D02*
X18535516Y-12912936D01*
X18535516Y-12912936D02*
X18525992Y-12893888D01*
X18525992Y-12893888D02*
X18525992Y-12836746D01*
X18525992Y-12836746D02*
X18535516Y-12817698D01*
X18535516Y-12817698D02*
X18545039Y-12808174D01*
X18545039Y-12808174D02*
X18564087Y-12798650D01*
X18564087Y-12798650D02*
X18592658Y-12798650D01*
X18592658Y-12798650D02*
X18611706Y-12808174D01*
X18611706Y-12808174D02*
X18621230Y-12817698D01*
X18621230Y-12817698D02*
X18630754Y-12836746D01*
X18630754Y-12836746D02*
X18630754Y-12893888D01*
X18630754Y-12893888D02*
X18621230Y-12912936D01*
X18621230Y-12912936D02*
X18611706Y-12922460D01*
X18611706Y-12922460D02*
X18592658Y-12931984D01*
X18592658Y-12931984D02*
X18564087Y-12931984D01*
X18687897Y-12798650D02*
X18764087Y-12798650D01*
X18716468Y-12731984D02*
X18716468Y-12903412D01*
X18716468Y-12903412D02*
X18725992Y-12922460D01*
X18725992Y-12922460D02*
X18745039Y-12931984D01*
X18745039Y-12931984D02*
X18764087Y-12931984D01*
X18821230Y-12922460D02*
X18840277Y-12931984D01*
X18840277Y-12931984D02*
X18878373Y-12931984D01*
X18878373Y-12931984D02*
X18897420Y-12922460D01*
X18897420Y-12922460D02*
X18906944Y-12903412D01*
X18906944Y-12903412D02*
X18906944Y-12893888D01*
X18906944Y-12893888D02*
X18897420Y-12874841D01*
X18897420Y-12874841D02*
X18878373Y-12865317D01*
X18878373Y-12865317D02*
X18849801Y-12865317D01*
X18849801Y-12865317D02*
X18830754Y-12855793D01*
X18830754Y-12855793D02*
X18821230Y-12836746D01*
X18821230Y-12836746D02*
X18821230Y-12827222D01*
X18821230Y-12827222D02*
X18830754Y-12808174D01*
X18830754Y-12808174D02*
X18849801Y-12798650D01*
X18849801Y-12798650D02*
X18878373Y-12798650D01*
X18878373Y-12798650D02*
X18897420Y-12808174D01*
X18973611Y-13008174D02*
X18983135Y-12998650D01*
X18983135Y-12998650D02*
X19002182Y-12970079D01*
X19002182Y-12970079D02*
X19011706Y-12951031D01*
X19011706Y-12951031D02*
X19021230Y-12922460D01*
X19021230Y-12922460D02*
X19030754Y-12874841D01*
X19030754Y-12874841D02*
X19030754Y-12836746D01*
X19030754Y-12836746D02*
X19021230Y-12789127D01*
X19021230Y-12789127D02*
X19011706Y-12760555D01*
X19011706Y-12760555D02*
X19002182Y-12741508D01*
X19002182Y-12741508D02*
X18983135Y-12712936D01*
X18983135Y-12712936D02*
X18973611Y-12703412D01*
M02*
