G04 #@! TF.GenerationSoftware,KiCad,Pcbnew,9.0.2*
G04 #@! TF.CreationDate,2025-12-31T10:57:56+01:00*
G04 #@! TF.ProjectId,synthmate_L432,73796e74-686d-4617-9465-5f4c3433322e,rev?*
G04 #@! TF.SameCoordinates,Original*
G04 #@! TF.FileFunction,AssemblyDrawing,Bot*
%FSLAX46Y46*%
G04 Gerber Fmt 4.6, Leading zero omitted, Abs format (unit mm)*
G04 Created by KiCad (PCBNEW 9.0.2) date 2025-12-31 10:57:56*
%MOMM*%
%LPD*%
G01*
G04 APERTURE LIST*
%ADD10C,0.150000*%
%ADD11C,0.120000*%
%ADD12C,0.100000*%
G04 APERTURE END LIST*
D10*
X136730952Y-100784819D02*
X136730952Y-99784819D01*
X136730952Y-99784819D02*
X136350000Y-99784819D01*
X136350000Y-99784819D02*
X136254762Y-99832438D01*
X136254762Y-99832438D02*
X136207143Y-99880057D01*
X136207143Y-99880057D02*
X136159524Y-99975295D01*
X136159524Y-99975295D02*
X136159524Y-100118152D01*
X136159524Y-100118152D02*
X136207143Y-100213390D01*
X136207143Y-100213390D02*
X136254762Y-100261009D01*
X136254762Y-100261009D02*
X136350000Y-100308628D01*
X136350000Y-100308628D02*
X136730952Y-100308628D01*
X135397619Y-100261009D02*
X135254762Y-100308628D01*
X135254762Y-100308628D02*
X135207143Y-100356247D01*
X135207143Y-100356247D02*
X135159524Y-100451485D01*
X135159524Y-100451485D02*
X135159524Y-100594342D01*
X135159524Y-100594342D02*
X135207143Y-100689580D01*
X135207143Y-100689580D02*
X135254762Y-100737200D01*
X135254762Y-100737200D02*
X135350000Y-100784819D01*
X135350000Y-100784819D02*
X135730952Y-100784819D01*
X135730952Y-100784819D02*
X135730952Y-99784819D01*
X135730952Y-99784819D02*
X135397619Y-99784819D01*
X135397619Y-99784819D02*
X135302381Y-99832438D01*
X135302381Y-99832438D02*
X135254762Y-99880057D01*
X135254762Y-99880057D02*
X135207143Y-99975295D01*
X135207143Y-99975295D02*
X135207143Y-100070533D01*
X135207143Y-100070533D02*
X135254762Y-100165771D01*
X135254762Y-100165771D02*
X135302381Y-100213390D01*
X135302381Y-100213390D02*
X135397619Y-100261009D01*
X135397619Y-100261009D02*
X135730952Y-100261009D01*
X134969048Y-100880057D02*
X134207143Y-100880057D01*
X133826190Y-100213390D02*
X133921428Y-100165771D01*
X133921428Y-100165771D02*
X133969047Y-100118152D01*
X133969047Y-100118152D02*
X134016666Y-100022914D01*
X134016666Y-100022914D02*
X134016666Y-99975295D01*
X134016666Y-99975295D02*
X133969047Y-99880057D01*
X133969047Y-99880057D02*
X133921428Y-99832438D01*
X133921428Y-99832438D02*
X133826190Y-99784819D01*
X133826190Y-99784819D02*
X133635714Y-99784819D01*
X133635714Y-99784819D02*
X133540476Y-99832438D01*
X133540476Y-99832438D02*
X133492857Y-99880057D01*
X133492857Y-99880057D02*
X133445238Y-99975295D01*
X133445238Y-99975295D02*
X133445238Y-100022914D01*
X133445238Y-100022914D02*
X133492857Y-100118152D01*
X133492857Y-100118152D02*
X133540476Y-100165771D01*
X133540476Y-100165771D02*
X133635714Y-100213390D01*
X133635714Y-100213390D02*
X133826190Y-100213390D01*
X133826190Y-100213390D02*
X133921428Y-100261009D01*
X133921428Y-100261009D02*
X133969047Y-100308628D01*
X133969047Y-100308628D02*
X134016666Y-100403866D01*
X134016666Y-100403866D02*
X134016666Y-100594342D01*
X134016666Y-100594342D02*
X133969047Y-100689580D01*
X133969047Y-100689580D02*
X133921428Y-100737200D01*
X133921428Y-100737200D02*
X133826190Y-100784819D01*
X133826190Y-100784819D02*
X133635714Y-100784819D01*
X133635714Y-100784819D02*
X133540476Y-100737200D01*
X133540476Y-100737200D02*
X133492857Y-100689580D01*
X133492857Y-100689580D02*
X133445238Y-100594342D01*
X133445238Y-100594342D02*
X133445238Y-100403866D01*
X133445238Y-100403866D02*
X133492857Y-100308628D01*
X133492857Y-100308628D02*
X133540476Y-100261009D01*
X133540476Y-100261009D02*
X133635714Y-100213390D01*
X132588095Y-99784819D02*
X132778571Y-99784819D01*
X132778571Y-99784819D02*
X132873809Y-99832438D01*
X132873809Y-99832438D02*
X132921428Y-99880057D01*
X132921428Y-99880057D02*
X133016666Y-100022914D01*
X133016666Y-100022914D02*
X133064285Y-100213390D01*
X133064285Y-100213390D02*
X133064285Y-100594342D01*
X133064285Y-100594342D02*
X133016666Y-100689580D01*
X133016666Y-100689580D02*
X132969047Y-100737200D01*
X132969047Y-100737200D02*
X132873809Y-100784819D01*
X132873809Y-100784819D02*
X132683333Y-100784819D01*
X132683333Y-100784819D02*
X132588095Y-100737200D01*
X132588095Y-100737200D02*
X132540476Y-100689580D01*
X132540476Y-100689580D02*
X132492857Y-100594342D01*
X132492857Y-100594342D02*
X132492857Y-100356247D01*
X132492857Y-100356247D02*
X132540476Y-100261009D01*
X132540476Y-100261009D02*
X132588095Y-100213390D01*
X132588095Y-100213390D02*
X132683333Y-100165771D01*
X132683333Y-100165771D02*
X132873809Y-100165771D01*
X132873809Y-100165771D02*
X132969047Y-100213390D01*
X132969047Y-100213390D02*
X133016666Y-100261009D01*
X133016666Y-100261009D02*
X133064285Y-100356247D01*
X132302381Y-100880057D02*
X131540476Y-100880057D01*
X131349999Y-100499104D02*
X130873809Y-100499104D01*
X131445237Y-100784819D02*
X131111904Y-99784819D01*
X131111904Y-99784819D02*
X130778571Y-100784819D01*
X129921428Y-100784819D02*
X130492856Y-100784819D01*
X130207142Y-100784819D02*
X130207142Y-99784819D01*
X130207142Y-99784819D02*
X130302380Y-99927676D01*
X130302380Y-99927676D02*
X130397618Y-100022914D01*
X130397618Y-100022914D02*
X130492856Y-100070533D01*
X149430952Y-100784819D02*
X149430952Y-99784819D01*
X149430952Y-99784819D02*
X149050000Y-99784819D01*
X149050000Y-99784819D02*
X148954762Y-99832438D01*
X148954762Y-99832438D02*
X148907143Y-99880057D01*
X148907143Y-99880057D02*
X148859524Y-99975295D01*
X148859524Y-99975295D02*
X148859524Y-100118152D01*
X148859524Y-100118152D02*
X148907143Y-100213390D01*
X148907143Y-100213390D02*
X148954762Y-100261009D01*
X148954762Y-100261009D02*
X149050000Y-100308628D01*
X149050000Y-100308628D02*
X149430952Y-100308628D01*
X148097619Y-100261009D02*
X147954762Y-100308628D01*
X147954762Y-100308628D02*
X147907143Y-100356247D01*
X147907143Y-100356247D02*
X147859524Y-100451485D01*
X147859524Y-100451485D02*
X147859524Y-100594342D01*
X147859524Y-100594342D02*
X147907143Y-100689580D01*
X147907143Y-100689580D02*
X147954762Y-100737200D01*
X147954762Y-100737200D02*
X148050000Y-100784819D01*
X148050000Y-100784819D02*
X148430952Y-100784819D01*
X148430952Y-100784819D02*
X148430952Y-99784819D01*
X148430952Y-99784819D02*
X148097619Y-99784819D01*
X148097619Y-99784819D02*
X148002381Y-99832438D01*
X148002381Y-99832438D02*
X147954762Y-99880057D01*
X147954762Y-99880057D02*
X147907143Y-99975295D01*
X147907143Y-99975295D02*
X147907143Y-100070533D01*
X147907143Y-100070533D02*
X147954762Y-100165771D01*
X147954762Y-100165771D02*
X148002381Y-100213390D01*
X148002381Y-100213390D02*
X148097619Y-100261009D01*
X148097619Y-100261009D02*
X148430952Y-100261009D01*
X147669048Y-100880057D02*
X146907143Y-100880057D01*
X146526190Y-100213390D02*
X146621428Y-100165771D01*
X146621428Y-100165771D02*
X146669047Y-100118152D01*
X146669047Y-100118152D02*
X146716666Y-100022914D01*
X146716666Y-100022914D02*
X146716666Y-99975295D01*
X146716666Y-99975295D02*
X146669047Y-99880057D01*
X146669047Y-99880057D02*
X146621428Y-99832438D01*
X146621428Y-99832438D02*
X146526190Y-99784819D01*
X146526190Y-99784819D02*
X146335714Y-99784819D01*
X146335714Y-99784819D02*
X146240476Y-99832438D01*
X146240476Y-99832438D02*
X146192857Y-99880057D01*
X146192857Y-99880057D02*
X146145238Y-99975295D01*
X146145238Y-99975295D02*
X146145238Y-100022914D01*
X146145238Y-100022914D02*
X146192857Y-100118152D01*
X146192857Y-100118152D02*
X146240476Y-100165771D01*
X146240476Y-100165771D02*
X146335714Y-100213390D01*
X146335714Y-100213390D02*
X146526190Y-100213390D01*
X146526190Y-100213390D02*
X146621428Y-100261009D01*
X146621428Y-100261009D02*
X146669047Y-100308628D01*
X146669047Y-100308628D02*
X146716666Y-100403866D01*
X146716666Y-100403866D02*
X146716666Y-100594342D01*
X146716666Y-100594342D02*
X146669047Y-100689580D01*
X146669047Y-100689580D02*
X146621428Y-100737200D01*
X146621428Y-100737200D02*
X146526190Y-100784819D01*
X146526190Y-100784819D02*
X146335714Y-100784819D01*
X146335714Y-100784819D02*
X146240476Y-100737200D01*
X146240476Y-100737200D02*
X146192857Y-100689580D01*
X146192857Y-100689580D02*
X146145238Y-100594342D01*
X146145238Y-100594342D02*
X146145238Y-100403866D01*
X146145238Y-100403866D02*
X146192857Y-100308628D01*
X146192857Y-100308628D02*
X146240476Y-100261009D01*
X146240476Y-100261009D02*
X146335714Y-100213390D01*
X145288095Y-99784819D02*
X145478571Y-99784819D01*
X145478571Y-99784819D02*
X145573809Y-99832438D01*
X145573809Y-99832438D02*
X145621428Y-99880057D01*
X145621428Y-99880057D02*
X145716666Y-100022914D01*
X145716666Y-100022914D02*
X145764285Y-100213390D01*
X145764285Y-100213390D02*
X145764285Y-100594342D01*
X145764285Y-100594342D02*
X145716666Y-100689580D01*
X145716666Y-100689580D02*
X145669047Y-100737200D01*
X145669047Y-100737200D02*
X145573809Y-100784819D01*
X145573809Y-100784819D02*
X145383333Y-100784819D01*
X145383333Y-100784819D02*
X145288095Y-100737200D01*
X145288095Y-100737200D02*
X145240476Y-100689580D01*
X145240476Y-100689580D02*
X145192857Y-100594342D01*
X145192857Y-100594342D02*
X145192857Y-100356247D01*
X145192857Y-100356247D02*
X145240476Y-100261009D01*
X145240476Y-100261009D02*
X145288095Y-100213390D01*
X145288095Y-100213390D02*
X145383333Y-100165771D01*
X145383333Y-100165771D02*
X145573809Y-100165771D01*
X145573809Y-100165771D02*
X145669047Y-100213390D01*
X145669047Y-100213390D02*
X145716666Y-100261009D01*
X145716666Y-100261009D02*
X145764285Y-100356247D01*
X145002381Y-100880057D02*
X144240476Y-100880057D01*
X144049999Y-100499104D02*
X143573809Y-100499104D01*
X144145237Y-100784819D02*
X143811904Y-99784819D01*
X143811904Y-99784819D02*
X143478571Y-100784819D01*
X142621428Y-100784819D02*
X143192856Y-100784819D01*
X142907142Y-100784819D02*
X142907142Y-99784819D01*
X142907142Y-99784819D02*
X143002380Y-99927676D01*
X143002380Y-99927676D02*
X143097618Y-100022914D01*
X143097618Y-100022914D02*
X143192856Y-100070533D01*
X139414819Y-73936665D02*
X138938628Y-73603332D01*
X139414819Y-73365237D02*
X138414819Y-73365237D01*
X138414819Y-73365237D02*
X138414819Y-73746189D01*
X138414819Y-73746189D02*
X138462438Y-73841427D01*
X138462438Y-73841427D02*
X138510057Y-73889046D01*
X138510057Y-73889046D02*
X138605295Y-73936665D01*
X138605295Y-73936665D02*
X138748152Y-73936665D01*
X138748152Y-73936665D02*
X138843390Y-73889046D01*
X138843390Y-73889046D02*
X138891009Y-73841427D01*
X138891009Y-73841427D02*
X138938628Y-73746189D01*
X138938628Y-73746189D02*
X138938628Y-73365237D01*
X139414819Y-74508094D02*
X139367200Y-74412856D01*
X139367200Y-74412856D02*
X139319580Y-74365237D01*
X139319580Y-74365237D02*
X139224342Y-74317618D01*
X139224342Y-74317618D02*
X138938628Y-74317618D01*
X138938628Y-74317618D02*
X138843390Y-74365237D01*
X138843390Y-74365237D02*
X138795771Y-74412856D01*
X138795771Y-74412856D02*
X138748152Y-74508094D01*
X138748152Y-74508094D02*
X138748152Y-74650951D01*
X138748152Y-74650951D02*
X138795771Y-74746189D01*
X138795771Y-74746189D02*
X138843390Y-74793808D01*
X138843390Y-74793808D02*
X138938628Y-74841427D01*
X138938628Y-74841427D02*
X139224342Y-74841427D01*
X139224342Y-74841427D02*
X139319580Y-74793808D01*
X139319580Y-74793808D02*
X139367200Y-74746189D01*
X139367200Y-74746189D02*
X139414819Y-74650951D01*
X139414819Y-74650951D02*
X139414819Y-74508094D01*
X138748152Y-75127142D02*
X138748152Y-75508094D01*
X138414819Y-75269999D02*
X139271961Y-75269999D01*
X139271961Y-75269999D02*
X139367200Y-75317618D01*
X139367200Y-75317618D02*
X139414819Y-75412856D01*
X139414819Y-75412856D02*
X139414819Y-75508094D01*
X139414819Y-76269999D02*
X138891009Y-76269999D01*
X138891009Y-76269999D02*
X138795771Y-76222380D01*
X138795771Y-76222380D02*
X138748152Y-76127142D01*
X138748152Y-76127142D02*
X138748152Y-75936666D01*
X138748152Y-75936666D02*
X138795771Y-75841428D01*
X139367200Y-76269999D02*
X139414819Y-76174761D01*
X139414819Y-76174761D02*
X139414819Y-75936666D01*
X139414819Y-75936666D02*
X139367200Y-75841428D01*
X139367200Y-75841428D02*
X139271961Y-75793809D01*
X139271961Y-75793809D02*
X139176723Y-75793809D01*
X139176723Y-75793809D02*
X139081485Y-75841428D01*
X139081485Y-75841428D02*
X139033866Y-75936666D01*
X139033866Y-75936666D02*
X139033866Y-76174761D01*
X139033866Y-76174761D02*
X138986247Y-76269999D01*
X139414819Y-76746190D02*
X138748152Y-76746190D01*
X138938628Y-76746190D02*
X138843390Y-76793809D01*
X138843390Y-76793809D02*
X138795771Y-76841428D01*
X138795771Y-76841428D02*
X138748152Y-76936666D01*
X138748152Y-76936666D02*
X138748152Y-77031904D01*
X138748152Y-77270000D02*
X139414819Y-77508095D01*
X138748152Y-77746190D02*
X139414819Y-77508095D01*
X139414819Y-77508095D02*
X139652914Y-77412857D01*
X139652914Y-77412857D02*
X139700533Y-77365238D01*
X139700533Y-77365238D02*
X139748152Y-77270000D01*
X138891009Y-78127143D02*
X138891009Y-78460476D01*
X139414819Y-78603333D02*
X139414819Y-78127143D01*
X139414819Y-78127143D02*
X138414819Y-78127143D01*
X138414819Y-78127143D02*
X138414819Y-78603333D01*
X138748152Y-79031905D02*
X139414819Y-79031905D01*
X138843390Y-79031905D02*
X138795771Y-79079524D01*
X138795771Y-79079524D02*
X138748152Y-79174762D01*
X138748152Y-79174762D02*
X138748152Y-79317619D01*
X138748152Y-79317619D02*
X138795771Y-79412857D01*
X138795771Y-79412857D02*
X138891009Y-79460476D01*
X138891009Y-79460476D02*
X139414819Y-79460476D01*
X139367200Y-80365238D02*
X139414819Y-80270000D01*
X139414819Y-80270000D02*
X139414819Y-80079524D01*
X139414819Y-80079524D02*
X139367200Y-79984286D01*
X139367200Y-79984286D02*
X139319580Y-79936667D01*
X139319580Y-79936667D02*
X139224342Y-79889048D01*
X139224342Y-79889048D02*
X138938628Y-79889048D01*
X138938628Y-79889048D02*
X138843390Y-79936667D01*
X138843390Y-79936667D02*
X138795771Y-79984286D01*
X138795771Y-79984286D02*
X138748152Y-80079524D01*
X138748152Y-80079524D02*
X138748152Y-80270000D01*
X138748152Y-80270000D02*
X138795771Y-80365238D01*
X139414819Y-80936667D02*
X139367200Y-80841429D01*
X139367200Y-80841429D02*
X139319580Y-80793810D01*
X139319580Y-80793810D02*
X139224342Y-80746191D01*
X139224342Y-80746191D02*
X138938628Y-80746191D01*
X138938628Y-80746191D02*
X138843390Y-80793810D01*
X138843390Y-80793810D02*
X138795771Y-80841429D01*
X138795771Y-80841429D02*
X138748152Y-80936667D01*
X138748152Y-80936667D02*
X138748152Y-81079524D01*
X138748152Y-81079524D02*
X138795771Y-81174762D01*
X138795771Y-81174762D02*
X138843390Y-81222381D01*
X138843390Y-81222381D02*
X138938628Y-81270000D01*
X138938628Y-81270000D02*
X139224342Y-81270000D01*
X139224342Y-81270000D02*
X139319580Y-81222381D01*
X139319580Y-81222381D02*
X139367200Y-81174762D01*
X139367200Y-81174762D02*
X139414819Y-81079524D01*
X139414819Y-81079524D02*
X139414819Y-80936667D01*
X139414819Y-82127143D02*
X138414819Y-82127143D01*
X139367200Y-82127143D02*
X139414819Y-82031905D01*
X139414819Y-82031905D02*
X139414819Y-81841429D01*
X139414819Y-81841429D02*
X139367200Y-81746191D01*
X139367200Y-81746191D02*
X139319580Y-81698572D01*
X139319580Y-81698572D02*
X139224342Y-81650953D01*
X139224342Y-81650953D02*
X138938628Y-81650953D01*
X138938628Y-81650953D02*
X138843390Y-81698572D01*
X138843390Y-81698572D02*
X138795771Y-81746191D01*
X138795771Y-81746191D02*
X138748152Y-81841429D01*
X138748152Y-81841429D02*
X138748152Y-82031905D01*
X138748152Y-82031905D02*
X138795771Y-82127143D01*
X139367200Y-82984286D02*
X139414819Y-82889048D01*
X139414819Y-82889048D02*
X139414819Y-82698572D01*
X139414819Y-82698572D02*
X139367200Y-82603334D01*
X139367200Y-82603334D02*
X139271961Y-82555715D01*
X139271961Y-82555715D02*
X138891009Y-82555715D01*
X138891009Y-82555715D02*
X138795771Y-82603334D01*
X138795771Y-82603334D02*
X138748152Y-82698572D01*
X138748152Y-82698572D02*
X138748152Y-82889048D01*
X138748152Y-82889048D02*
X138795771Y-82984286D01*
X138795771Y-82984286D02*
X138891009Y-83031905D01*
X138891009Y-83031905D02*
X138986247Y-83031905D01*
X138986247Y-83031905D02*
X139081485Y-82555715D01*
X139414819Y-83460477D02*
X138748152Y-83460477D01*
X138938628Y-83460477D02*
X138843390Y-83508096D01*
X138843390Y-83508096D02*
X138795771Y-83555715D01*
X138795771Y-83555715D02*
X138748152Y-83650953D01*
X138748152Y-83650953D02*
X138748152Y-83746191D01*
X139510057Y-83841430D02*
X139510057Y-84603334D01*
X139367200Y-84793811D02*
X139414819Y-84936668D01*
X139414819Y-84936668D02*
X139414819Y-85174763D01*
X139414819Y-85174763D02*
X139367200Y-85270001D01*
X139367200Y-85270001D02*
X139319580Y-85317620D01*
X139319580Y-85317620D02*
X139224342Y-85365239D01*
X139224342Y-85365239D02*
X139129104Y-85365239D01*
X139129104Y-85365239D02*
X139033866Y-85317620D01*
X139033866Y-85317620D02*
X138986247Y-85270001D01*
X138986247Y-85270001D02*
X138938628Y-85174763D01*
X138938628Y-85174763D02*
X138891009Y-84984287D01*
X138891009Y-84984287D02*
X138843390Y-84889049D01*
X138843390Y-84889049D02*
X138795771Y-84841430D01*
X138795771Y-84841430D02*
X138700533Y-84793811D01*
X138700533Y-84793811D02*
X138605295Y-84793811D01*
X138605295Y-84793811D02*
X138510057Y-84841430D01*
X138510057Y-84841430D02*
X138462438Y-84889049D01*
X138462438Y-84889049D02*
X138414819Y-84984287D01*
X138414819Y-84984287D02*
X138414819Y-85222382D01*
X138414819Y-85222382D02*
X138462438Y-85365239D01*
X138748152Y-85698573D02*
X139414819Y-85889049D01*
X139414819Y-85889049D02*
X138938628Y-86079525D01*
X138938628Y-86079525D02*
X139414819Y-86270001D01*
X139414819Y-86270001D02*
X138748152Y-86460477D01*
X139414819Y-86841430D02*
X138748152Y-86841430D01*
X138414819Y-86841430D02*
X138462438Y-86793811D01*
X138462438Y-86793811D02*
X138510057Y-86841430D01*
X138510057Y-86841430D02*
X138462438Y-86889049D01*
X138462438Y-86889049D02*
X138414819Y-86841430D01*
X138414819Y-86841430D02*
X138510057Y-86841430D01*
X138748152Y-87174763D02*
X138748152Y-87555715D01*
X138414819Y-87317620D02*
X139271961Y-87317620D01*
X139271961Y-87317620D02*
X139367200Y-87365239D01*
X139367200Y-87365239D02*
X139414819Y-87460477D01*
X139414819Y-87460477D02*
X139414819Y-87555715D01*
X139367200Y-88317620D02*
X139414819Y-88222382D01*
X139414819Y-88222382D02*
X139414819Y-88031906D01*
X139414819Y-88031906D02*
X139367200Y-87936668D01*
X139367200Y-87936668D02*
X139319580Y-87889049D01*
X139319580Y-87889049D02*
X139224342Y-87841430D01*
X139224342Y-87841430D02*
X138938628Y-87841430D01*
X138938628Y-87841430D02*
X138843390Y-87889049D01*
X138843390Y-87889049D02*
X138795771Y-87936668D01*
X138795771Y-87936668D02*
X138748152Y-88031906D01*
X138748152Y-88031906D02*
X138748152Y-88222382D01*
X138748152Y-88222382D02*
X138795771Y-88317620D01*
X139414819Y-88746192D02*
X138414819Y-88746192D01*
X139414819Y-89174763D02*
X138891009Y-89174763D01*
X138891009Y-89174763D02*
X138795771Y-89127144D01*
X138795771Y-89127144D02*
X138748152Y-89031906D01*
X138748152Y-89031906D02*
X138748152Y-88889049D01*
X138748152Y-88889049D02*
X138795771Y-88793811D01*
X138795771Y-88793811D02*
X138843390Y-88746192D01*
X143467200Y-76336667D02*
X143514819Y-76479524D01*
X143514819Y-76479524D02*
X143514819Y-76717619D01*
X143514819Y-76717619D02*
X143467200Y-76812857D01*
X143467200Y-76812857D02*
X143419580Y-76860476D01*
X143419580Y-76860476D02*
X143324342Y-76908095D01*
X143324342Y-76908095D02*
X143229104Y-76908095D01*
X143229104Y-76908095D02*
X143133866Y-76860476D01*
X143133866Y-76860476D02*
X143086247Y-76812857D01*
X143086247Y-76812857D02*
X143038628Y-76717619D01*
X143038628Y-76717619D02*
X142991009Y-76527143D01*
X142991009Y-76527143D02*
X142943390Y-76431905D01*
X142943390Y-76431905D02*
X142895771Y-76384286D01*
X142895771Y-76384286D02*
X142800533Y-76336667D01*
X142800533Y-76336667D02*
X142705295Y-76336667D01*
X142705295Y-76336667D02*
X142610057Y-76384286D01*
X142610057Y-76384286D02*
X142562438Y-76431905D01*
X142562438Y-76431905D02*
X142514819Y-76527143D01*
X142514819Y-76527143D02*
X142514819Y-76765238D01*
X142514819Y-76765238D02*
X142562438Y-76908095D01*
X142514819Y-77241429D02*
X143514819Y-77479524D01*
X143514819Y-77479524D02*
X142800533Y-77670000D01*
X142800533Y-77670000D02*
X143514819Y-77860476D01*
X143514819Y-77860476D02*
X142514819Y-78098572D01*
X143514819Y-79003333D02*
X143514819Y-78431905D01*
X143514819Y-78717619D02*
X142514819Y-78717619D01*
X142514819Y-78717619D02*
X142657676Y-78622381D01*
X142657676Y-78622381D02*
X142752914Y-78527143D01*
X142752914Y-78527143D02*
X142800533Y-78431905D01*
X151796191Y-104974580D02*
X151843810Y-105022200D01*
X151843810Y-105022200D02*
X151986667Y-105069819D01*
X151986667Y-105069819D02*
X152081905Y-105069819D01*
X152081905Y-105069819D02*
X152224762Y-105022200D01*
X152224762Y-105022200D02*
X152320000Y-104926961D01*
X152320000Y-104926961D02*
X152367619Y-104831723D01*
X152367619Y-104831723D02*
X152415238Y-104641247D01*
X152415238Y-104641247D02*
X152415238Y-104498390D01*
X152415238Y-104498390D02*
X152367619Y-104307914D01*
X152367619Y-104307914D02*
X152320000Y-104212676D01*
X152320000Y-104212676D02*
X152224762Y-104117438D01*
X152224762Y-104117438D02*
X152081905Y-104069819D01*
X152081905Y-104069819D02*
X151986667Y-104069819D01*
X151986667Y-104069819D02*
X151843810Y-104117438D01*
X151843810Y-104117438D02*
X151796191Y-104165057D01*
X151224762Y-105069819D02*
X151320000Y-105022200D01*
X151320000Y-105022200D02*
X151367619Y-104974580D01*
X151367619Y-104974580D02*
X151415238Y-104879342D01*
X151415238Y-104879342D02*
X151415238Y-104593628D01*
X151415238Y-104593628D02*
X151367619Y-104498390D01*
X151367619Y-104498390D02*
X151320000Y-104450771D01*
X151320000Y-104450771D02*
X151224762Y-104403152D01*
X151224762Y-104403152D02*
X151081905Y-104403152D01*
X151081905Y-104403152D02*
X150986667Y-104450771D01*
X150986667Y-104450771D02*
X150939048Y-104498390D01*
X150939048Y-104498390D02*
X150891429Y-104593628D01*
X150891429Y-104593628D02*
X150891429Y-104879342D01*
X150891429Y-104879342D02*
X150939048Y-104974580D01*
X150939048Y-104974580D02*
X150986667Y-105022200D01*
X150986667Y-105022200D02*
X151081905Y-105069819D01*
X151081905Y-105069819D02*
X151224762Y-105069819D01*
X150462857Y-104403152D02*
X150462857Y-105069819D01*
X150462857Y-104498390D02*
X150415238Y-104450771D01*
X150415238Y-104450771D02*
X150320000Y-104403152D01*
X150320000Y-104403152D02*
X150177143Y-104403152D01*
X150177143Y-104403152D02*
X150081905Y-104450771D01*
X150081905Y-104450771D02*
X150034286Y-104546009D01*
X150034286Y-104546009D02*
X150034286Y-105069819D01*
X149558095Y-104403152D02*
X149558095Y-105069819D01*
X149558095Y-104498390D02*
X149510476Y-104450771D01*
X149510476Y-104450771D02*
X149415238Y-104403152D01*
X149415238Y-104403152D02*
X149272381Y-104403152D01*
X149272381Y-104403152D02*
X149177143Y-104450771D01*
X149177143Y-104450771D02*
X149129524Y-104546009D01*
X149129524Y-104546009D02*
X149129524Y-105069819D01*
X148891429Y-105165057D02*
X148129524Y-105165057D01*
X147939047Y-105022200D02*
X147796190Y-105069819D01*
X147796190Y-105069819D02*
X147558095Y-105069819D01*
X147558095Y-105069819D02*
X147462857Y-105022200D01*
X147462857Y-105022200D02*
X147415238Y-104974580D01*
X147415238Y-104974580D02*
X147367619Y-104879342D01*
X147367619Y-104879342D02*
X147367619Y-104784104D01*
X147367619Y-104784104D02*
X147415238Y-104688866D01*
X147415238Y-104688866D02*
X147462857Y-104641247D01*
X147462857Y-104641247D02*
X147558095Y-104593628D01*
X147558095Y-104593628D02*
X147748571Y-104546009D01*
X147748571Y-104546009D02*
X147843809Y-104498390D01*
X147843809Y-104498390D02*
X147891428Y-104450771D01*
X147891428Y-104450771D02*
X147939047Y-104355533D01*
X147939047Y-104355533D02*
X147939047Y-104260295D01*
X147939047Y-104260295D02*
X147891428Y-104165057D01*
X147891428Y-104165057D02*
X147843809Y-104117438D01*
X147843809Y-104117438D02*
X147748571Y-104069819D01*
X147748571Y-104069819D02*
X147510476Y-104069819D01*
X147510476Y-104069819D02*
X147367619Y-104117438D01*
X147081904Y-104069819D02*
X146510476Y-104069819D01*
X146796190Y-105069819D02*
X146796190Y-104069819D01*
X146415238Y-105165057D02*
X145653333Y-105165057D01*
X145462856Y-105022200D02*
X145319999Y-105069819D01*
X145319999Y-105069819D02*
X145081904Y-105069819D01*
X145081904Y-105069819D02*
X144986666Y-105022200D01*
X144986666Y-105022200D02*
X144939047Y-104974580D01*
X144939047Y-104974580D02*
X144891428Y-104879342D01*
X144891428Y-104879342D02*
X144891428Y-104784104D01*
X144891428Y-104784104D02*
X144939047Y-104688866D01*
X144939047Y-104688866D02*
X144986666Y-104641247D01*
X144986666Y-104641247D02*
X145081904Y-104593628D01*
X145081904Y-104593628D02*
X145272380Y-104546009D01*
X145272380Y-104546009D02*
X145367618Y-104498390D01*
X145367618Y-104498390D02*
X145415237Y-104450771D01*
X145415237Y-104450771D02*
X145462856Y-104355533D01*
X145462856Y-104355533D02*
X145462856Y-104260295D01*
X145462856Y-104260295D02*
X145415237Y-104165057D01*
X145415237Y-104165057D02*
X145367618Y-104117438D01*
X145367618Y-104117438D02*
X145272380Y-104069819D01*
X145272380Y-104069819D02*
X145034285Y-104069819D01*
X145034285Y-104069819D02*
X144891428Y-104117438D01*
X144605713Y-104069819D02*
X144034285Y-104069819D01*
X144319999Y-105069819D02*
X144319999Y-104069819D01*
X143700951Y-105069819D02*
X143700951Y-104069819D01*
X143700951Y-104069819D02*
X143462856Y-104069819D01*
X143462856Y-104069819D02*
X143319999Y-104117438D01*
X143319999Y-104117438D02*
X143224761Y-104212676D01*
X143224761Y-104212676D02*
X143177142Y-104307914D01*
X143177142Y-104307914D02*
X143129523Y-104498390D01*
X143129523Y-104498390D02*
X143129523Y-104641247D01*
X143129523Y-104641247D02*
X143177142Y-104831723D01*
X143177142Y-104831723D02*
X143224761Y-104926961D01*
X143224761Y-104926961D02*
X143319999Y-105022200D01*
X143319999Y-105022200D02*
X143462856Y-105069819D01*
X143462856Y-105069819D02*
X143700951Y-105069819D01*
X142129523Y-104974580D02*
X142177142Y-105022200D01*
X142177142Y-105022200D02*
X142319999Y-105069819D01*
X142319999Y-105069819D02*
X142415237Y-105069819D01*
X142415237Y-105069819D02*
X142558094Y-105022200D01*
X142558094Y-105022200D02*
X142653332Y-104926961D01*
X142653332Y-104926961D02*
X142700951Y-104831723D01*
X142700951Y-104831723D02*
X142748570Y-104641247D01*
X142748570Y-104641247D02*
X142748570Y-104498390D01*
X142748570Y-104498390D02*
X142700951Y-104307914D01*
X142700951Y-104307914D02*
X142653332Y-104212676D01*
X142653332Y-104212676D02*
X142558094Y-104117438D01*
X142558094Y-104117438D02*
X142415237Y-104069819D01*
X142415237Y-104069819D02*
X142319999Y-104069819D01*
X142319999Y-104069819D02*
X142177142Y-104117438D01*
X142177142Y-104117438D02*
X142129523Y-104165057D01*
X141177142Y-105069819D02*
X141748570Y-105069819D01*
X141462856Y-105069819D02*
X141462856Y-104069819D01*
X141462856Y-104069819D02*
X141558094Y-104212676D01*
X141558094Y-104212676D02*
X141653332Y-104307914D01*
X141653332Y-104307914D02*
X141748570Y-104355533D01*
X140319999Y-104403152D02*
X140319999Y-105069819D01*
X140558094Y-104022200D02*
X140796189Y-104736485D01*
X140796189Y-104736485D02*
X140177142Y-104736485D01*
X145774819Y-98726666D02*
X146489104Y-98726666D01*
X146489104Y-98726666D02*
X146631961Y-98679047D01*
X146631961Y-98679047D02*
X146727200Y-98583809D01*
X146727200Y-98583809D02*
X146774819Y-98440952D01*
X146774819Y-98440952D02*
X146774819Y-98345714D01*
X146203390Y-99345714D02*
X146155771Y-99250476D01*
X146155771Y-99250476D02*
X146108152Y-99202857D01*
X146108152Y-99202857D02*
X146012914Y-99155238D01*
X146012914Y-99155238D02*
X145965295Y-99155238D01*
X145965295Y-99155238D02*
X145870057Y-99202857D01*
X145870057Y-99202857D02*
X145822438Y-99250476D01*
X145822438Y-99250476D02*
X145774819Y-99345714D01*
X145774819Y-99345714D02*
X145774819Y-99536190D01*
X145774819Y-99536190D02*
X145822438Y-99631428D01*
X145822438Y-99631428D02*
X145870057Y-99679047D01*
X145870057Y-99679047D02*
X145965295Y-99726666D01*
X145965295Y-99726666D02*
X146012914Y-99726666D01*
X146012914Y-99726666D02*
X146108152Y-99679047D01*
X146108152Y-99679047D02*
X146155771Y-99631428D01*
X146155771Y-99631428D02*
X146203390Y-99536190D01*
X146203390Y-99536190D02*
X146203390Y-99345714D01*
X146203390Y-99345714D02*
X146251009Y-99250476D01*
X146251009Y-99250476D02*
X146298628Y-99202857D01*
X146298628Y-99202857D02*
X146393866Y-99155238D01*
X146393866Y-99155238D02*
X146584342Y-99155238D01*
X146584342Y-99155238D02*
X146679580Y-99202857D01*
X146679580Y-99202857D02*
X146727200Y-99250476D01*
X146727200Y-99250476D02*
X146774819Y-99345714D01*
X146774819Y-99345714D02*
X146774819Y-99536190D01*
X146774819Y-99536190D02*
X146727200Y-99631428D01*
X146727200Y-99631428D02*
X146679580Y-99679047D01*
X146679580Y-99679047D02*
X146584342Y-99726666D01*
X146584342Y-99726666D02*
X146393866Y-99726666D01*
X146393866Y-99726666D02*
X146298628Y-99679047D01*
X146298628Y-99679047D02*
X146251009Y-99631428D01*
X146251009Y-99631428D02*
X146203390Y-99536190D01*
X136730952Y-83004819D02*
X136730952Y-82004819D01*
X136730952Y-82004819D02*
X136350000Y-82004819D01*
X136350000Y-82004819D02*
X136254762Y-82052438D01*
X136254762Y-82052438D02*
X136207143Y-82100057D01*
X136207143Y-82100057D02*
X136159524Y-82195295D01*
X136159524Y-82195295D02*
X136159524Y-82338152D01*
X136159524Y-82338152D02*
X136207143Y-82433390D01*
X136207143Y-82433390D02*
X136254762Y-82481009D01*
X136254762Y-82481009D02*
X136350000Y-82528628D01*
X136350000Y-82528628D02*
X136730952Y-82528628D01*
X135397619Y-82481009D02*
X135254762Y-82528628D01*
X135254762Y-82528628D02*
X135207143Y-82576247D01*
X135207143Y-82576247D02*
X135159524Y-82671485D01*
X135159524Y-82671485D02*
X135159524Y-82814342D01*
X135159524Y-82814342D02*
X135207143Y-82909580D01*
X135207143Y-82909580D02*
X135254762Y-82957200D01*
X135254762Y-82957200D02*
X135350000Y-83004819D01*
X135350000Y-83004819D02*
X135730952Y-83004819D01*
X135730952Y-83004819D02*
X135730952Y-82004819D01*
X135730952Y-82004819D02*
X135397619Y-82004819D01*
X135397619Y-82004819D02*
X135302381Y-82052438D01*
X135302381Y-82052438D02*
X135254762Y-82100057D01*
X135254762Y-82100057D02*
X135207143Y-82195295D01*
X135207143Y-82195295D02*
X135207143Y-82290533D01*
X135207143Y-82290533D02*
X135254762Y-82385771D01*
X135254762Y-82385771D02*
X135302381Y-82433390D01*
X135302381Y-82433390D02*
X135397619Y-82481009D01*
X135397619Y-82481009D02*
X135730952Y-82481009D01*
X134969048Y-83100057D02*
X134207143Y-83100057D01*
X133826190Y-82433390D02*
X133921428Y-82385771D01*
X133921428Y-82385771D02*
X133969047Y-82338152D01*
X133969047Y-82338152D02*
X134016666Y-82242914D01*
X134016666Y-82242914D02*
X134016666Y-82195295D01*
X134016666Y-82195295D02*
X133969047Y-82100057D01*
X133969047Y-82100057D02*
X133921428Y-82052438D01*
X133921428Y-82052438D02*
X133826190Y-82004819D01*
X133826190Y-82004819D02*
X133635714Y-82004819D01*
X133635714Y-82004819D02*
X133540476Y-82052438D01*
X133540476Y-82052438D02*
X133492857Y-82100057D01*
X133492857Y-82100057D02*
X133445238Y-82195295D01*
X133445238Y-82195295D02*
X133445238Y-82242914D01*
X133445238Y-82242914D02*
X133492857Y-82338152D01*
X133492857Y-82338152D02*
X133540476Y-82385771D01*
X133540476Y-82385771D02*
X133635714Y-82433390D01*
X133635714Y-82433390D02*
X133826190Y-82433390D01*
X133826190Y-82433390D02*
X133921428Y-82481009D01*
X133921428Y-82481009D02*
X133969047Y-82528628D01*
X133969047Y-82528628D02*
X134016666Y-82623866D01*
X134016666Y-82623866D02*
X134016666Y-82814342D01*
X134016666Y-82814342D02*
X133969047Y-82909580D01*
X133969047Y-82909580D02*
X133921428Y-82957200D01*
X133921428Y-82957200D02*
X133826190Y-83004819D01*
X133826190Y-83004819D02*
X133635714Y-83004819D01*
X133635714Y-83004819D02*
X133540476Y-82957200D01*
X133540476Y-82957200D02*
X133492857Y-82909580D01*
X133492857Y-82909580D02*
X133445238Y-82814342D01*
X133445238Y-82814342D02*
X133445238Y-82623866D01*
X133445238Y-82623866D02*
X133492857Y-82528628D01*
X133492857Y-82528628D02*
X133540476Y-82481009D01*
X133540476Y-82481009D02*
X133635714Y-82433390D01*
X132588095Y-82004819D02*
X132778571Y-82004819D01*
X132778571Y-82004819D02*
X132873809Y-82052438D01*
X132873809Y-82052438D02*
X132921428Y-82100057D01*
X132921428Y-82100057D02*
X133016666Y-82242914D01*
X133016666Y-82242914D02*
X133064285Y-82433390D01*
X133064285Y-82433390D02*
X133064285Y-82814342D01*
X133064285Y-82814342D02*
X133016666Y-82909580D01*
X133016666Y-82909580D02*
X132969047Y-82957200D01*
X132969047Y-82957200D02*
X132873809Y-83004819D01*
X132873809Y-83004819D02*
X132683333Y-83004819D01*
X132683333Y-83004819D02*
X132588095Y-82957200D01*
X132588095Y-82957200D02*
X132540476Y-82909580D01*
X132540476Y-82909580D02*
X132492857Y-82814342D01*
X132492857Y-82814342D02*
X132492857Y-82576247D01*
X132492857Y-82576247D02*
X132540476Y-82481009D01*
X132540476Y-82481009D02*
X132588095Y-82433390D01*
X132588095Y-82433390D02*
X132683333Y-82385771D01*
X132683333Y-82385771D02*
X132873809Y-82385771D01*
X132873809Y-82385771D02*
X132969047Y-82433390D01*
X132969047Y-82433390D02*
X133016666Y-82481009D01*
X133016666Y-82481009D02*
X133064285Y-82576247D01*
X132302381Y-83100057D02*
X131540476Y-83100057D01*
X131349999Y-82719104D02*
X130873809Y-82719104D01*
X131445237Y-83004819D02*
X131111904Y-82004819D01*
X131111904Y-82004819D02*
X130778571Y-83004819D01*
X129921428Y-83004819D02*
X130492856Y-83004819D01*
X130207142Y-83004819D02*
X130207142Y-82004819D01*
X130207142Y-82004819D02*
X130302380Y-82147676D01*
X130302380Y-82147676D02*
X130397618Y-82242914D01*
X130397618Y-82242914D02*
X130492856Y-82290533D01*
D11*
G04 #@! TO.C,SW1*
X141060000Y-75270000D02*
X141060000Y-87270000D01*
X141060000Y-87270000D02*
X151560000Y-87270000D01*
X146860000Y-84270000D02*
X146860000Y-78270000D01*
X149860000Y-81270000D02*
X143860000Y-81270000D01*
X151560000Y-87270000D02*
X152660000Y-86270000D01*
X152660000Y-75270000D02*
X141060000Y-75270000D01*
X152660000Y-86270000D02*
X152660000Y-75270000D01*
X149860000Y-81270000D02*
G75*
G02*
X143860000Y-81270000I-3000000J0D01*
G01*
X143860000Y-81270000D02*
G75*
G02*
X149860000Y-81270000I3000000J0D01*
G01*
D12*
G04 #@! TO.C,J8*
X143570000Y-95050000D02*
X143570000Y-95450000D01*
X143570000Y-95450000D02*
X144615000Y-95450000D01*
X143570000Y-96320000D02*
X143570000Y-96720000D01*
X143570000Y-96720000D02*
X144615000Y-96720000D01*
X143570000Y-97590000D02*
X143570000Y-97990000D01*
X143570000Y-97990000D02*
X144615000Y-97990000D01*
X143570000Y-98860000D02*
X143570000Y-99260000D01*
X143570000Y-99260000D02*
X144615000Y-99260000D01*
X143570000Y-100130000D02*
X143570000Y-100530000D01*
X143570000Y-100530000D02*
X144615000Y-100530000D01*
X143570000Y-101400000D02*
X143570000Y-101800000D01*
X143570000Y-101800000D02*
X144615000Y-101800000D01*
X143570000Y-102670000D02*
X143570000Y-103070000D01*
X143570000Y-103070000D02*
X144615000Y-103070000D01*
X144615000Y-94615000D02*
X144615000Y-103505000D01*
X144615000Y-95050000D02*
X143570000Y-95050000D01*
X144615000Y-96320000D02*
X143570000Y-96320000D01*
X144615000Y-97590000D02*
X143570000Y-97590000D01*
X144615000Y-98860000D02*
X143570000Y-98860000D01*
X144615000Y-100130000D02*
X143570000Y-100130000D01*
X144615000Y-101400000D02*
X143570000Y-101400000D01*
X144615000Y-102670000D02*
X143570000Y-102670000D01*
X144615000Y-103505000D02*
X148025000Y-103505000D01*
X147590000Y-94615000D02*
X144615000Y-94615000D01*
X148025000Y-95050000D02*
X147590000Y-94615000D01*
X148025000Y-95050000D02*
X149070000Y-95050000D01*
X148025000Y-96320000D02*
X149070000Y-96320000D01*
X148025000Y-97590000D02*
X149070000Y-97590000D01*
X148025000Y-98860000D02*
X149070000Y-98860000D01*
X148025000Y-100130000D02*
X149070000Y-100130000D01*
X148025000Y-101400000D02*
X149070000Y-101400000D01*
X148025000Y-102670000D02*
X149070000Y-102670000D01*
X148025000Y-103505000D02*
X148025000Y-95050000D01*
X149070000Y-95050000D02*
X149070000Y-95450000D01*
X149070000Y-95450000D02*
X148025000Y-95450000D01*
X149070000Y-96320000D02*
X149070000Y-96720000D01*
X149070000Y-96720000D02*
X148025000Y-96720000D01*
X149070000Y-97590000D02*
X149070000Y-97990000D01*
X149070000Y-97990000D02*
X148025000Y-97990000D01*
X149070000Y-98860000D02*
X149070000Y-99260000D01*
X149070000Y-99260000D02*
X148025000Y-99260000D01*
X149070000Y-100130000D02*
X149070000Y-100530000D01*
X149070000Y-100530000D02*
X148025000Y-100530000D01*
X149070000Y-101400000D02*
X149070000Y-101800000D01*
X149070000Y-101800000D02*
X148025000Y-101800000D01*
X149070000Y-102670000D02*
X149070000Y-103070000D01*
X149070000Y-103070000D02*
X148025000Y-103070000D01*
G04 #@! TD*
M02*
