%TF.GenerationSoftware,KiCad,Pcbnew,9.0.2*%
%TF.CreationDate,2025-12-20T10:00:59+01:00*%
%TF.ProjectId,synthmate_L432,73796e74-686d-4617-9465-5f4c3433322e,rev?*%
%TF.SameCoordinates,Original*%
%TF.FileFunction,Copper,L1,Top*%
%TF.FilePolarity,Positive*%
%FSLAX46Y46*%
G04 Gerber Fmt 4.6, Leading zero omitted, Abs format (unit mm)*
G04 Created by KiCad (PCBNEW 9.0.2) date 2025-12-20 10:00:59*
%MOMM*%
%LPD*%
G01*
G04 APERTURE LIST*
G04 Aperture macros list*
%AMRoundRect*
0 Rectangle with rounded corners*
0 $1 Rounding radius*
0 $2 $3 $4 $5 $6 $7 $8 $9 X,Y pos of 4 corners*
0 Add a 4 corners polygon primitive as box body*
4,1,4,$2,$3,$4,$5,$6,$7,$8,$9,$2,$3,0*
0 Add four circle primitives for the rounded corners*
1,1,$1+$1,$2,$3*
1,1,$1+$1,$4,$5*
1,1,$1+$1,$6,$7*
1,1,$1+$1,$8,$9*
0 Add four rect primitives between the rounded corners*
20,1,$1+$1,$2,$3,$4,$5,0*
20,1,$1+$1,$4,$5,$6,$7,0*
20,1,$1+$1,$6,$7,$8,$9,0*
20,1,$1+$1,$8,$9,$2,$3,0*%
%AMRotRect*
0 Rectangle, with rotation*
0 The origin of the aperture is its center*
0 $1 length*
0 $2 width*
0 $3 Rotation angle, in degrees counterclockwise*
0 Add horizontal line*
21,1,$1,$2,0,0,$3*%
G04 Aperture macros list end*
%TA.AperFunction,SMDPad,CuDef*%
%ADD10R,0.280000X0.850000*%
%TD*%
%TA.AperFunction,SMDPad,CuDef*%
%ADD11R,0.850000X0.280000*%
%TD*%
%TA.AperFunction,SMDPad,CuDef*%
%ADD12R,2.050000X2.050000*%
%TD*%
%TA.AperFunction,SMDPad,CuDef*%
%ADD13RoundRect,0.225000X0.250000X-0.225000X0.250000X0.225000X-0.250000X0.225000X-0.250000X-0.225000X0*%
%TD*%
%TA.AperFunction,SMDPad,CuDef*%
%ADD14RoundRect,0.200000X0.275000X-0.200000X0.275000X0.200000X-0.275000X0.200000X-0.275000X-0.200000X0*%
%TD*%
%TA.AperFunction,SMDPad,CuDef*%
%ADD15RoundRect,0.150000X0.150000X0.425000X-0.150000X0.425000X-0.150000X-0.425000X0.150000X-0.425000X0*%
%TD*%
%TA.AperFunction,SMDPad,CuDef*%
%ADD16RoundRect,0.075000X0.075000X0.500000X-0.075000X0.500000X-0.075000X-0.500000X0.075000X-0.500000X0*%
%TD*%
%TA.AperFunction,HeatsinkPad*%
%ADD17O,1.000000X2.100000*%
%TD*%
%TA.AperFunction,HeatsinkPad*%
%ADD18O,1.000000X1.800000*%
%TD*%
%TA.AperFunction,SMDPad,CuDef*%
%ADD19RoundRect,0.218750X0.256250X-0.218750X0.256250X0.218750X-0.256250X0.218750X-0.256250X-0.218750X0*%
%TD*%
%TA.AperFunction,SMDPad,CuDef*%
%ADD20RoundRect,0.200000X-0.200000X-0.275000X0.200000X-0.275000X0.200000X0.275000X-0.200000X0.275000X0*%
%TD*%
%TA.AperFunction,SMDPad,CuDef*%
%ADD21RoundRect,0.150000X0.150000X-0.825000X0.150000X0.825000X-0.150000X0.825000X-0.150000X-0.825000X0*%
%TD*%
%TA.AperFunction,SMDPad,CuDef*%
%ADD22RoundRect,0.225000X0.225000X0.250000X-0.225000X0.250000X-0.225000X-0.250000X0.225000X-0.250000X0*%
%TD*%
%TA.AperFunction,SMDPad,CuDef*%
%ADD23R,0.300000X0.704800*%
%TD*%
%TA.AperFunction,SMDPad,CuDef*%
%ADD24R,0.249936X0.704850*%
%TD*%
%TA.AperFunction,SMDPad,CuDef*%
%ADD25R,0.754888X0.350012*%
%TD*%
%TA.AperFunction,SMDPad,CuDef*%
%ADD26RoundRect,0.218750X-0.218750X-0.256250X0.218750X-0.256250X0.218750X0.256250X-0.218750X0.256250X0*%
%TD*%
%TA.AperFunction,SMDPad,CuDef*%
%ADD27RoundRect,0.225000X-0.225000X-0.250000X0.225000X-0.250000X0.225000X0.250000X-0.225000X0.250000X0*%
%TD*%
%TA.AperFunction,SMDPad,CuDef*%
%ADD28RoundRect,0.100000X-0.225000X-0.100000X0.225000X-0.100000X0.225000X0.100000X-0.225000X0.100000X0*%
%TD*%
%TA.AperFunction,SMDPad,CuDef*%
%ADD29RoundRect,0.225000X-0.250000X0.225000X-0.250000X-0.225000X0.250000X-0.225000X0.250000X0.225000X0*%
%TD*%
%TA.AperFunction,SMDPad,CuDef*%
%ADD30RoundRect,0.200000X0.200000X0.275000X-0.200000X0.275000X-0.200000X-0.275000X0.200000X-0.275000X0*%
%TD*%
%TA.AperFunction,SMDPad,CuDef*%
%ADD31RoundRect,0.200000X-0.275000X0.200000X-0.275000X-0.200000X0.275000X-0.200000X0.275000X0.200000X0*%
%TD*%
%TA.AperFunction,SMDPad,CuDef*%
%ADD32RoundRect,0.150000X0.150000X-0.512500X0.150000X0.512500X-0.150000X0.512500X-0.150000X-0.512500X0*%
%TD*%
%TA.AperFunction,SMDPad,CuDef*%
%ADD33RoundRect,0.250000X-0.450000X0.325000X-0.450000X-0.325000X0.450000X-0.325000X0.450000X0.325000X0*%
%TD*%
%TA.AperFunction,SMDPad,CuDef*%
%ADD34RoundRect,0.250000X-0.650000X0.325000X-0.650000X-0.325000X0.650000X-0.325000X0.650000X0.325000X0*%
%TD*%
%TA.AperFunction,SMDPad,CuDef*%
%ADD35RoundRect,0.062500X-0.220971X-0.309359X0.309359X0.220971X0.220971X0.309359X-0.309359X-0.220971X0*%
%TD*%
%TA.AperFunction,SMDPad,CuDef*%
%ADD36RoundRect,0.062500X0.220971X-0.309359X0.309359X-0.220971X-0.220971X0.309359X-0.309359X0.220971X0*%
%TD*%
%TA.AperFunction,HeatsinkPad*%
%ADD37RotRect,3.450000X3.450000X45.000000*%
%TD*%
%TA.AperFunction,SMDPad,CuDef*%
%ADD38RoundRect,0.250000X0.325000X0.650000X-0.325000X0.650000X-0.325000X-0.650000X0.325000X-0.650000X0*%
%TD*%
%TA.AperFunction,ComponentPad*%
%ADD39C,1.524000*%
%TD*%
%TA.AperFunction,ComponentPad*%
%ADD40R,2.000000X2.000000*%
%TD*%
%TA.AperFunction,ComponentPad*%
%ADD41C,2.000000*%
%TD*%
%TA.AperFunction,ComponentPad*%
%ADD42R,2.000000X3.200000*%
%TD*%
%TA.AperFunction,ViaPad*%
%ADD43C,0.500000*%
%TD*%
%TA.AperFunction,Conductor*%
%ADD44C,0.200000*%
%TD*%
%TA.AperFunction,Conductor*%
%ADD45C,0.300000*%
%TD*%
G04 APERTURE END LIST*
D10*
%TO.P,U6,1*%
%TO.N,Net-(C6-Pad1)*%
X147565000Y-83805000D03*
D11*
%TO.P,U6,2*%
%TO.N,enc_A*%
X146590000Y-84530000D03*
%TO.P,U6,3*%
%TO.N,Net-(C7-Pad1)*%
X146590000Y-85030000D03*
%TO.P,U6,4*%
%TO.N,enc_B*%
X146590000Y-85530000D03*
%TO.P,U6,5*%
%TO.N,Net-(C10-Pad1)*%
X146590000Y-86030000D03*
%TO.P,U6,6*%
%TO.N,BOOT0*%
X146590000Y-86530000D03*
D10*
%TO.P,U6,7,GND*%
%TO.N,GND*%
X147565000Y-87255000D03*
%TO.P,U6,8*%
%TO.N,pushbutton_C*%
X149065000Y-87255000D03*
D11*
%TO.P,U6,9*%
%TO.N,Net-(C8-Pad1)*%
X150040000Y-86530000D03*
%TO.P,U6,10*%
%TO.N,pushbutton_B*%
X150040000Y-86030000D03*
%TO.P,U6,11*%
%TO.N,Net-(C9-Pad1)*%
X150040000Y-85530000D03*
%TO.P,U6,12*%
%TO.N,pushbutton_A*%
X150040000Y-85030000D03*
%TO.P,U6,13*%
%TO.N,Net-(C17-Pad1)*%
X150040000Y-84530000D03*
D10*
%TO.P,U6,14,3.3V*%
%TO.N,3V3*%
X149065000Y-83805000D03*
D12*
%TO.P,U6,15*%
%TO.N,N/C*%
X148315000Y-85530000D03*
%TD*%
D13*
%TO.P,C13,1*%
%TO.N,3V3*%
X150920000Y-82250000D03*
%TO.P,C13,2*%
%TO.N,GND*%
X150920000Y-80700000D03*
%TD*%
D14*
%TO.P,R13,1*%
%TO.N,Net-(SW2-C)*%
X146730000Y-106930000D03*
%TO.P,R13,2*%
%TO.N,Net-(C9-Pad1)*%
X146730000Y-105280000D03*
%TD*%
D15*
%TO.P,J1,A1,GND*%
%TO.N,GND*%
X141080000Y-78105000D03*
%TO.P,J1,A4,VBUS*%
%TO.N,5V*%
X140280000Y-78105000D03*
D16*
%TO.P,J1,A5,CC1*%
%TO.N,Net-(J1-CC1)*%
X139130000Y-78105000D03*
%TO.P,J1,A6,D+*%
%TO.N,/usb_P*%
X138130000Y-78105000D03*
%TO.P,J1,A7,D-*%
%TO.N,/usb_N*%
X137630000Y-78105000D03*
%TO.P,J1,A8,SBU1*%
%TO.N,unconnected-(J1-SBU1-PadA8)*%
X136630000Y-78105000D03*
D15*
%TO.P,J1,A9,VBUS*%
%TO.N,5V*%
X135480000Y-78105000D03*
%TO.P,J1,A12,GND*%
%TO.N,GND*%
X134680000Y-78105000D03*
%TO.P,J1,B1,GND*%
X134680000Y-78105000D03*
%TO.P,J1,B4,VBUS*%
%TO.N,5V*%
X135480000Y-78105000D03*
D16*
%TO.P,J1,B5,CC2*%
%TO.N,Net-(J1-CC2)*%
X136130000Y-78105000D03*
%TO.P,J1,B6,D+*%
%TO.N,/usb_P*%
X137130000Y-78105000D03*
%TO.P,J1,B7,D-*%
%TO.N,/usb_N*%
X138630000Y-78105000D03*
%TO.P,J1,B8,SBU2*%
%TO.N,unconnected-(J1-SBU2-PadB8)*%
X139630000Y-78105000D03*
D15*
%TO.P,J1,B9,VBUS*%
%TO.N,5V*%
X140280000Y-78105000D03*
%TO.P,J1,B12,GND*%
%TO.N,GND*%
X141080000Y-78105000D03*
D17*
%TO.P,J1,S1,SHIELD*%
X142200000Y-77530000D03*
D18*
X142200000Y-73350000D03*
D17*
X133560000Y-77530000D03*
D18*
X133560000Y-73350000D03*
%TD*%
D19*
%TO.P,D2,1,K*%
%TO.N,5V*%
X144020000Y-78440000D03*
%TO.P,D2,2,A*%
%TO.N,GND*%
X144020000Y-76865000D03*
%TD*%
D20*
%TO.P,R6,1*%
%TO.N,Net-(R6-Pad1)*%
X146885000Y-91430000D03*
%TO.P,R6,2*%
%TO.N,3V3*%
X148535000Y-91430000D03*
%TD*%
D21*
%TO.P,U5,1,~{S}*%
%TO.N,CS*%
X144140000Y-101370000D03*
%TO.P,U5,2,Q*%
%TO.N,MISO*%
X145410000Y-101370000D03*
%TO.P,U5,3,~{W}*%
%TO.N,GND*%
X146680000Y-101370000D03*
%TO.P,U5,4,VSS*%
X147950000Y-101370000D03*
%TO.P,U5,5,D*%
%TO.N,MOSI*%
X147950000Y-96420000D03*
%TO.P,U5,6,C*%
%TO.N,SCK*%
X146680000Y-96420000D03*
%TO.P,U5,7,~{HOLD}*%
%TO.N,3V3*%
X145410000Y-96420000D03*
%TO.P,U5,8,VCC*%
X144140000Y-96420000D03*
%TD*%
D22*
%TO.P,C15,1*%
%TO.N,3V3*%
X132685000Y-86420000D03*
%TO.P,C15,2*%
%TO.N,GND*%
X131135000Y-86420000D03*
%TD*%
D23*
%TO.P,U2,1,1D+*%
%TO.N,USART1_TX*%
X134409999Y-83654800D03*
D24*
%TO.P,U2,2,1D-*%
%TO.N,USART1_RX*%
X134910000Y-83654800D03*
%TO.P,U2,3,2D+*%
%TO.N,/usb_mcu_P*%
X135410000Y-83654800D03*
D23*
%TO.P,U2,4,2D-*%
%TO.N,/usb_mcu_N*%
X135910001Y-83654800D03*
D25*
%TO.P,U2,5,GND*%
%TO.N,GND*%
X136112444Y-82927400D03*
D23*
%TO.P,U2,6,\u002AOE*%
X135910001Y-82200000D03*
D24*
%TO.P,U2,7,D-*%
%TO.N,/usb_N*%
X135410000Y-82200000D03*
%TO.P,U2,8,D+*%
%TO.N,/usb_P*%
X134910000Y-82200000D03*
D23*
%TO.P,U2,9,S*%
%TO.N,usb_switch*%
X134409999Y-82200000D03*
D25*
%TO.P,U2,10,VCC*%
%TO.N,3V3*%
X134207556Y-82927400D03*
%TD*%
D26*
%TO.P,D3,1,K*%
%TO.N,3V3*%
X131150000Y-88010000D03*
%TO.P,D3,2,A*%
%TO.N,USART1_RX*%
X132725000Y-88010000D03*
%TD*%
D27*
%TO.P,C10,1*%
%TO.N,Net-(C10-Pad1)*%
X146380000Y-74910000D03*
%TO.P,C10,2*%
%TO.N,GND*%
X147930000Y-74910000D03*
%TD*%
D28*
%TO.P,U3,1,VIN*%
%TO.N,5V*%
X146950000Y-76620000D03*
%TO.P,U3,2,GND*%
%TO.N,GND*%
X146950000Y-77270000D03*
%TO.P,U3,3,EN*%
%TO.N,5V*%
X146950000Y-77920000D03*
%TO.P,U3,4,NC*%
%TO.N,unconnected-(U3-NC-Pad4)*%
X148850000Y-77920000D03*
%TO.P,U3,5,VOUT*%
%TO.N,3V3*%
X148850000Y-76620000D03*
%TD*%
D14*
%TO.P,R11,1*%
%TO.N,Net-(SW2-C)*%
X148250000Y-106910000D03*
%TO.P,R11,2*%
%TO.N,3V3*%
X148250000Y-105260000D03*
%TD*%
D29*
%TO.P,C6,1*%
%TO.N,Net-(C6-Pad1)*%
X149950000Y-91400000D03*
%TO.P,C6,2*%
%TO.N,GND*%
X149950000Y-92950000D03*
%TD*%
%TO.P,C12,1*%
%TO.N,3V3*%
X131210000Y-98140000D03*
%TO.P,C12,2*%
%TO.N,GND*%
X131210000Y-99690000D03*
%TD*%
D30*
%TO.P,R1,1*%
%TO.N,Net-(R1-Pad1)*%
X151915000Y-79190000D03*
%TO.P,R1,2*%
%TO.N,3V3*%
X150265000Y-79190000D03*
%TD*%
D20*
%TO.P,R3,1*%
%TO.N,GND*%
X133230000Y-79990000D03*
%TO.P,R3,2*%
%TO.N,Net-(J1-CC2)*%
X134880000Y-79990000D03*
%TD*%
D30*
%TO.P,R15,1*%
%TO.N,Net-(SW3-C)*%
X135495000Y-103190000D03*
%TO.P,R15,2*%
%TO.N,3V3*%
X133845000Y-103190000D03*
%TD*%
%TO.P,R5,1*%
%TO.N,NRST*%
X129760000Y-97450000D03*
%TO.P,R5,2*%
%TO.N,3V3*%
X128110000Y-97450000D03*
%TD*%
D22*
%TO.P,C11,1*%
%TO.N,3V3*%
X129810000Y-93820000D03*
%TO.P,C11,2*%
%TO.N,GND*%
X128260000Y-93820000D03*
%TD*%
D31*
%TO.P,R14,1*%
%TO.N,Net-(C10-Pad1)*%
X151750000Y-76080000D03*
%TO.P,R14,2*%
%TO.N,Net-(R1-Pad1)*%
X151750000Y-77730000D03*
%TD*%
D27*
%TO.P,C5,1*%
%TO.N,3V3*%
X139095000Y-93820000D03*
%TO.P,C5,2*%
%TO.N,GND*%
X140645000Y-93820000D03*
%TD*%
D29*
%TO.P,C18,1*%
%TO.N,3V3*%
X142520000Y-95910000D03*
%TO.P,C18,2*%
%TO.N,GND*%
X142520000Y-97460000D03*
%TD*%
D20*
%TO.P,R16,1*%
%TO.N,Net-(U4-Y)*%
X131095000Y-84890000D03*
%TO.P,R16,2*%
%TO.N,USART1_TX*%
X132745000Y-84890000D03*
%TD*%
D14*
%TO.P,R8,1*%
%TO.N,Net-(C6-Pad1)*%
X151480000Y-92990000D03*
%TO.P,R8,2*%
%TO.N,Net-(R7-Pad1)*%
X151480000Y-91340000D03*
%TD*%
%TO.P,R18,1*%
%TO.N,3V3*%
X132530000Y-83260000D03*
%TO.P,R18,2*%
%TO.N,usb_switch*%
X132530000Y-81610000D03*
%TD*%
%TO.P,R4,1*%
%TO.N,LED*%
X127890000Y-88140000D03*
%TO.P,R4,2*%
%TO.N,Net-(D1-A)*%
X127890000Y-86490000D03*
%TD*%
D20*
%TO.P,R10,1*%
%TO.N,Net-(SW5-C)*%
X138140000Y-82960000D03*
%TO.P,R10,2*%
%TO.N,3V3*%
X139790000Y-82960000D03*
%TD*%
D32*
%TO.P,U4,1,NC*%
%TO.N,unconnected-(U4-NC-Pad1)*%
X129880000Y-79520000D03*
%TO.P,U4,2,A*%
%TO.N,Net-(U1-PA9)*%
X130830000Y-79520000D03*
%TO.P,U4,3,GND*%
%TO.N,GND*%
X131780000Y-79520000D03*
%TO.P,U4,4,Y*%
%TO.N,Net-(U4-Y)*%
X131780000Y-77245000D03*
%TO.P,U4,5,VCC*%
%TO.N,5V*%
X129880000Y-77245000D03*
%TD*%
D22*
%TO.P,C2,1*%
%TO.N,NRST*%
X129670000Y-95910000D03*
%TO.P,C2,2*%
%TO.N,GND*%
X128120000Y-95910000D03*
%TD*%
D27*
%TO.P,C17,1*%
%TO.N,Net-(C17-Pad1)*%
X133865000Y-106280000D03*
%TO.P,C17,2*%
%TO.N,GND*%
X135415000Y-106280000D03*
%TD*%
%TO.P,C16,1*%
%TO.N,5V*%
X130080000Y-75530000D03*
%TO.P,C16,2*%
%TO.N,GND*%
X131630000Y-75530000D03*
%TD*%
D30*
%TO.P,R17,1*%
%TO.N,Net-(SW3-C)*%
X135475000Y-104740000D03*
%TO.P,R17,2*%
%TO.N,Net-(C17-Pad1)*%
X133825000Y-104740000D03*
%TD*%
D33*
%TO.P,D1,1,K*%
%TO.N,GND*%
X127880000Y-82860000D03*
%TO.P,D1,2,A*%
%TO.N,Net-(D1-A)*%
X127880000Y-84910000D03*
%TD*%
D29*
%TO.P,C9,1*%
%TO.N,Net-(C9-Pad1)*%
X145160000Y-105340000D03*
%TO.P,C9,2*%
%TO.N,GND*%
X145160000Y-106890000D03*
%TD*%
D14*
%TO.P,R7,1*%
%TO.N,Net-(R7-Pad1)*%
X151480000Y-89930000D03*
%TO.P,R7,2*%
%TO.N,3V3*%
X151480000Y-88280000D03*
%TD*%
D13*
%TO.P,C4,1*%
%TO.N,3V3*%
X150280000Y-77750000D03*
%TO.P,C4,2*%
%TO.N,GND*%
X150280000Y-76200000D03*
%TD*%
D34*
%TO.P,C1,1*%
%TO.N,5V*%
X143800000Y-80050000D03*
%TO.P,C1,2*%
%TO.N,GND*%
X143800000Y-83000000D03*
%TD*%
D27*
%TO.P,C8,1*%
%TO.N,Net-(C8-Pad1)*%
X141190000Y-84550000D03*
%TO.P,C8,2*%
%TO.N,GND*%
X142740000Y-84550000D03*
%TD*%
D20*
%TO.P,R12,1*%
%TO.N,Net-(SW5-C)*%
X138130000Y-84510000D03*
%TO.P,R12,2*%
%TO.N,Net-(C8-Pad1)*%
X139780000Y-84510000D03*
%TD*%
D13*
%TO.P,C3,1*%
%TO.N,5V*%
X145530000Y-77950000D03*
%TO.P,C3,2*%
%TO.N,GND*%
X145530000Y-76400000D03*
%TD*%
D14*
%TO.P,R2,1*%
%TO.N,GND*%
X139680000Y-81520000D03*
%TO.P,R2,2*%
%TO.N,Net-(J1-CC1)*%
X139680000Y-79870000D03*
%TD*%
D35*
%TO.P,U1,1,VDD*%
%TO.N,3V3*%
X131497990Y-94332236D03*
%TO.P,U1,2,PC14*%
%TO.N,GND*%
X131851544Y-94685789D03*
%TO.P,U1,3,PC15*%
X132205097Y-95039343D03*
%TO.P,U1,4,NRST*%
%TO.N,NRST*%
X132558651Y-95392896D03*
%TO.P,U1,5,VDDA*%
%TO.N,3V3*%
X132912204Y-95746449D03*
%TO.P,U1,6,PA0*%
%TO.N,enc_B*%
X133265757Y-96100003D03*
%TO.P,U1,7,PA1*%
%TO.N,enc_A*%
X133619311Y-96453556D03*
%TO.P,U1,8,PA2*%
%TO.N,BOOT0*%
X133972864Y-96807110D03*
D36*
%TO.P,U1,9,PA3*%
%TO.N,usb_switch*%
X134945136Y-96807110D03*
%TO.P,U1,10,PA4*%
%TO.N,CS*%
X135298689Y-96453556D03*
%TO.P,U1,11,PA5*%
%TO.N,SCK*%
X135652243Y-96100003D03*
%TO.P,U1,12,PA6*%
%TO.N,MISO*%
X136005796Y-95746449D03*
%TO.P,U1,13,PA7*%
%TO.N,MOSI*%
X136359349Y-95392896D03*
%TO.P,U1,14,PB0*%
%TO.N,GND*%
X136712903Y-95039343D03*
%TO.P,U1,15,PB1*%
X137066456Y-94685789D03*
%TO.P,U1,16,VSS*%
X137420010Y-94332236D03*
D35*
%TO.P,U1,17,VDD*%
%TO.N,3V3*%
X137420010Y-93359964D03*
%TO.P,U1,18,PA8*%
%TO.N,GND*%
X137066456Y-93006411D03*
%TO.P,U1,19,PA9*%
%TO.N,Net-(U1-PA9)*%
X136712903Y-92652857D03*
%TO.P,U1,20,PA10*%
%TO.N,USART1_RX*%
X136359349Y-92299304D03*
%TO.P,U1,21,PA11*%
%TO.N,/usb_mcu_N*%
X136005796Y-91945751D03*
%TO.P,U1,22,PA12*%
%TO.N,/usb_mcu_P*%
X135652243Y-91592197D03*
%TO.P,U1,23,PA13*%
%TO.N,SWDIO*%
X135298689Y-91238644D03*
%TO.P,U1,24,PA14*%
%TO.N,SWCLK*%
X134945136Y-90885090D03*
D36*
%TO.P,U1,25,PA15*%
%TO.N,LED*%
X133972864Y-90885090D03*
%TO.P,U1,26,PB3*%
%TO.N,GND*%
X133619311Y-91238644D03*
%TO.P,U1,27,PB4*%
X133265757Y-91592197D03*
%TO.P,U1,28,PB5*%
%TO.N,pushbutton_A*%
X132912204Y-91945751D03*
%TO.P,U1,29,PB6*%
%TO.N,pushbutton_B*%
X132558651Y-92299304D03*
%TO.P,U1,30,PB7*%
%TO.N,pushbutton_C*%
X132205097Y-92652857D03*
%TO.P,U1,31,PH3*%
%TO.N,BOOT0*%
X131851544Y-93006411D03*
%TO.P,U1,32,VSS*%
%TO.N,GND*%
X131497990Y-93359964D03*
D37*
%TO.P,U1,33,VSS*%
X134459000Y-93846100D03*
%TD*%
D38*
%TO.P,C14,1*%
%TO.N,3V3*%
X148780000Y-79840000D03*
%TO.P,C14,2*%
%TO.N,GND*%
X145830000Y-79840000D03*
%TD*%
D20*
%TO.P,R9,1*%
%TO.N,Net-(C7-Pad1)*%
X143690000Y-91390000D03*
%TO.P,R9,2*%
%TO.N,Net-(R6-Pad1)*%
X145340000Y-91390000D03*
%TD*%
D22*
%TO.P,C7,1*%
%TO.N,Net-(C7-Pad1)*%
X143020000Y-89820000D03*
%TO.P,C7,2*%
%TO.N,GND*%
X141470000Y-89820000D03*
%TD*%
D39*
%TO.P,SW3,1,B*%
%TO.N,GND*%
X137160000Y-99060000D03*
%TO.P,SW3,2,C*%
%TO.N,Net-(SW3-C)*%
X137160000Y-104140000D03*
%TO.P,SW3,3,A*%
%TO.N,unconnected-(SW3-A-Pad3)*%
X129540000Y-99060000D03*
%TO.P,SW3,4*%
%TO.N,N/C*%
X129540000Y-104140000D03*
%TD*%
%TO.P,SW2,1,B*%
%TO.N,GND*%
X149860000Y-99060000D03*
%TO.P,SW2,2,C*%
%TO.N,Net-(SW2-C)*%
X149860000Y-104140000D03*
%TO.P,SW2,3,A*%
%TO.N,unconnected-(SW2-A-Pad3)*%
X142240000Y-99060000D03*
%TO.P,SW2,4*%
%TO.N,N/C*%
X142240000Y-104140000D03*
%TD*%
D40*
%TO.P,SW1,A,A*%
%TO.N,Net-(R7-Pad1)*%
X149630000Y-89000000D03*
D41*
%TO.P,SW1,B,B*%
%TO.N,Net-(R6-Pad1)*%
X144630000Y-89000000D03*
%TO.P,SW1,C,C*%
%TO.N,GND*%
X147130000Y-89000000D03*
D42*
%TO.P,SW1,MP*%
%TO.N,N/C*%
X141530000Y-81500000D03*
X152730000Y-81500000D03*
D41*
%TO.P,SW1,S1,S1*%
%TO.N,Net-(R1-Pad1)*%
X144630000Y-74500000D03*
%TO.P,SW1,S2,S2*%
%TO.N,GND*%
X149630000Y-74500000D03*
%TD*%
D39*
%TO.P,SW5,1,B*%
%TO.N,GND*%
X137160000Y-81280000D03*
%TO.P,SW5,2,C*%
%TO.N,Net-(SW5-C)*%
X137160000Y-86360000D03*
%TO.P,SW5,3,A*%
%TO.N,unconnected-(SW5-A-Pad3)*%
X129540000Y-81280000D03*
%TO.P,SW5,4*%
%TO.N,N/C*%
X129540000Y-86360000D03*
%TD*%
D43*
%TO.N,3V3*%
X150950000Y-82690000D03*
X151450000Y-88790000D03*
X133800000Y-82910000D03*
X128600000Y-97430000D03*
X131200000Y-98520000D03*
X139770000Y-82430000D03*
X134360000Y-103190000D03*
X150660000Y-79200000D03*
X148525000Y-90940000D03*
X149050000Y-83460000D03*
X132210000Y-86350000D03*
X138260000Y-93359964D03*
X148370000Y-76620000D03*
X148250000Y-105800000D03*
X150730000Y-77750000D03*
X132030000Y-83310000D03*
X149850000Y-96540000D03*
X130780000Y-95020000D03*
X131650000Y-88030000D03*
X141810000Y-95890000D03*
X148800000Y-78970000D03*
%TO.N,GND*%
X133200000Y-79260000D03*
X144040000Y-76390000D03*
X150910000Y-79950000D03*
X137170000Y-100250000D03*
X134950000Y-106300000D03*
X141020000Y-89810000D03*
X148270000Y-98440000D03*
X149930000Y-100260000D03*
X134170000Y-78910000D03*
X141670000Y-78900000D03*
X134550000Y-93890000D03*
X149540000Y-76190000D03*
X149940000Y-92450000D03*
X137840000Y-95100000D03*
X133110000Y-90730000D03*
X132150000Y-75560000D03*
X131800000Y-80530000D03*
X137620000Y-92450000D03*
X147950000Y-75680000D03*
X128770000Y-93850000D03*
X141190000Y-93330000D03*
X131250000Y-100170000D03*
X143800000Y-83000000D03*
X145210000Y-107520000D03*
X147565000Y-88030000D03*
X142520000Y-96860000D03*
X136070000Y-81260000D03*
X150970000Y-74510000D03*
X128130000Y-95320000D03*
X130740000Y-86930000D03*
X145540000Y-75810000D03*
X127870000Y-82180000D03*
X136830000Y-82930000D03*
X131510000Y-95450000D03*
X146610000Y-79820000D03*
X130850000Y-92770000D03*
X138850000Y-81510000D03*
%TO.N,NRST*%
X131900100Y-96023700D03*
X130455000Y-96884300D03*
%TO.N,enc_A*%
X139794800Y-94579300D03*
X134371700Y-97104300D03*
%TO.N,BOOT0*%
X133814300Y-97535400D03*
X131351000Y-92387300D03*
X146590000Y-87592300D03*
%TO.N,Net-(C17-Pad1)*%
X151641400Y-92165000D03*
X136033900Y-102450900D03*
%TO.N,SWCLK*%
X134945100Y-89653400D03*
%TO.N,enc_B*%
X135405500Y-98132800D03*
X143652800Y-87978500D03*
%TO.N,USART1_RX*%
X136925200Y-91725400D03*
X134081000Y-89434500D03*
%TO.N,pushbutton_B*%
X131801000Y-89672600D03*
X150322100Y-87506400D03*
%TO.N,pushbutton_A*%
X150848700Y-85053700D03*
X131216800Y-90858400D03*
%TO.N,SWDIO*%
X135537800Y-90136400D03*
%TO.N,Net-(C8-Pad1)*%
X150665100Y-86973400D03*
X140515900Y-85525000D03*
%TO.N,Net-(C9-Pad1)*%
X150956000Y-85679300D03*
X147512200Y-93479100D03*
%TO.N,Net-(R1-Pad1)*%
X151233100Y-76905000D03*
%TO.N,usb_switch*%
X134827100Y-98447700D03*
X131726300Y-85713600D03*
%TO.N,Net-(U1-PA9)*%
X136338300Y-84543900D03*
X130830000Y-80801800D03*
%TO.N,pushbutton_C*%
X131674800Y-90467400D03*
X148573300Y-87255000D03*
%TD*%
D44*
%TO.N,3V3*%
X132061100Y-96597500D02*
X132912200Y-95746400D01*
X148800000Y-79395000D02*
X148780000Y-79415000D01*
X131200000Y-98335000D02*
X131210000Y-98325000D01*
D45*
X142520000Y-95910000D02*
X143630000Y-95910000D01*
D44*
X132615000Y-86350000D02*
X132685000Y-86420000D01*
X151480000Y-88520000D02*
X151480000Y-88280000D01*
D45*
X134360000Y-103190000D02*
X133845000Y-103190000D01*
D44*
X131467764Y-94332236D02*
X130780000Y-95020000D01*
X148250000Y-105800000D02*
X148250000Y-105260000D01*
D45*
X132880000Y-82910000D02*
X132530000Y-83260000D01*
X150730000Y-77750000D02*
X150280000Y-77750000D01*
D44*
X148780000Y-79415000D02*
X148780000Y-79840000D01*
X150950000Y-82485000D02*
X150920000Y-82455000D01*
X129810000Y-93820000D02*
X129810000Y-94050000D01*
D45*
X141830000Y-95910000D02*
X141810000Y-95890000D01*
D44*
X150275000Y-79200000D02*
X150265000Y-79190000D01*
X128130000Y-97430000D02*
X128110000Y-97450000D01*
D45*
X139770000Y-82430000D02*
X139770000Y-82940000D01*
D44*
X131170000Y-88030000D02*
X131150000Y-88010000D01*
X134190200Y-82910000D02*
X134207600Y-82927400D01*
D45*
X144140000Y-96420000D02*
X145410000Y-96420000D01*
X131200000Y-98520000D02*
X131200000Y-98150000D01*
D44*
X139790000Y-82705000D02*
X139790000Y-82960000D01*
D45*
X132210000Y-86350000D02*
X132615000Y-86350000D01*
X132030000Y-83310000D02*
X132480000Y-83310000D01*
D44*
X151450000Y-88550000D02*
X151480000Y-88520000D01*
X133800000Y-82910000D02*
X134190200Y-82910000D01*
D45*
X151450000Y-88790000D02*
X151450000Y-88310000D01*
X148800000Y-78970000D02*
X148800000Y-79820000D01*
D44*
X131210000Y-98325000D02*
X131210000Y-98140000D01*
D45*
X149050000Y-83790000D02*
X149065000Y-83805000D01*
X138260000Y-93359964D02*
X137420010Y-93359964D01*
X133800000Y-82910000D02*
X132880000Y-82910000D01*
X143630000Y-95910000D02*
X144140000Y-96420000D01*
X150950000Y-82690000D02*
X150950000Y-82280000D01*
X148525000Y-90940000D02*
X148525000Y-91420000D01*
X138634964Y-93359964D02*
X139095000Y-93820000D01*
X148370000Y-76620000D02*
X148850000Y-76620000D01*
D44*
X150920000Y-82455000D02*
X150920000Y-82250000D01*
X129810000Y-94050000D02*
X130780000Y-95020000D01*
D45*
X150660000Y-79200000D02*
X150275000Y-79200000D01*
X128600000Y-97430000D02*
X128130000Y-97430000D01*
X142520000Y-95910000D02*
X141830000Y-95910000D01*
D44*
X131497990Y-94332236D02*
X131467764Y-94332236D01*
D45*
X148525000Y-91420000D02*
X148535000Y-91430000D01*
D44*
X132061000Y-96597500D02*
X132061100Y-96597500D01*
D45*
X149050000Y-83460000D02*
X149050000Y-83790000D01*
X131650000Y-88030000D02*
X131170000Y-88030000D01*
X132912204Y-95746449D02*
X131210000Y-97448653D01*
X131210000Y-97448653D02*
X131210000Y-98140000D01*
X138260000Y-93359964D02*
X138634964Y-93359964D01*
D44*
X139770000Y-82685000D02*
X139790000Y-82705000D01*
%TO.N,GND*%
X127880000Y-82525000D02*
X127880000Y-82860000D01*
X145530000Y-76110000D02*
X145530000Y-76400000D01*
X128130000Y-95610000D02*
X128120000Y-95620000D01*
D45*
X142740000Y-84550000D02*
X142740000Y-84060000D01*
D44*
X133365000Y-90984300D02*
X133619300Y-91238600D01*
X144040000Y-76617500D02*
X144020000Y-76637500D01*
D45*
X137840000Y-95100000D02*
X137840000Y-94752226D01*
D44*
X133265800Y-91592100D02*
X133265800Y-91592200D01*
X133110000Y-91436440D02*
X133265757Y-91592197D01*
X130740000Y-86930000D02*
X131135000Y-86535000D01*
X131800000Y-80035000D02*
X131780000Y-80015000D01*
D45*
X131510000Y-95027333D02*
X131851544Y-94685789D01*
X142520000Y-97460000D02*
X142520000Y-96860000D01*
X131510000Y-95450000D02*
X131794440Y-95450000D01*
X135910001Y-82200000D02*
X135910001Y-82724957D01*
D44*
X149940000Y-92695000D02*
X149950000Y-92705000D01*
X141080000Y-78310000D02*
X141080000Y-78105000D01*
X147950000Y-98760000D02*
X147950000Y-101370000D01*
D45*
X145160000Y-106890000D02*
X145160000Y-107470000D01*
X137160000Y-81280000D02*
X136090000Y-81280000D01*
X141080000Y-78310000D02*
X141670000Y-78900000D01*
X136712903Y-95039343D02*
X137420010Y-94332236D01*
D44*
X144020000Y-76637500D02*
X144020000Y-76865000D01*
D45*
X131250000Y-100170000D02*
X131250000Y-99730000D01*
X137620000Y-92452867D02*
X137066456Y-93006411D01*
X150960000Y-74500000D02*
X150970000Y-74510000D01*
D44*
X133364500Y-90984300D02*
X133365000Y-90984300D01*
X136115000Y-82930000D02*
X136112400Y-82927400D01*
D45*
X136090000Y-81280000D02*
X136070000Y-81260000D01*
X138850000Y-81510000D02*
X139670000Y-81510000D01*
D44*
X141460000Y-89810000D02*
X141470000Y-89820000D01*
D45*
X135910001Y-82724957D02*
X136112444Y-82927400D01*
D44*
X139670000Y-81510000D02*
X139680000Y-81520000D01*
D45*
X134680000Y-78400000D02*
X134170000Y-78910000D01*
D44*
X136889700Y-94862500D02*
X136712900Y-95039300D01*
X133200000Y-79610000D02*
X133230000Y-79640000D01*
X128120000Y-95620000D02*
X128120000Y-95910000D01*
X133110000Y-90730000D02*
X133110000Y-91436440D01*
X135395000Y-106300000D02*
X135415000Y-106280000D01*
X128290000Y-93850000D02*
X128260000Y-93820000D01*
D45*
X130850000Y-92770000D02*
X130908026Y-92770000D01*
D44*
X150270000Y-76190000D02*
X150280000Y-76200000D01*
X141020000Y-89810000D02*
X141460000Y-89810000D01*
X133230000Y-79640000D02*
X133230000Y-79990000D01*
D45*
X137840000Y-94752226D02*
X137420010Y-94332236D01*
D44*
X131660000Y-75560000D02*
X131630000Y-75530000D01*
X150910000Y-80320000D02*
X150920000Y-80330000D01*
D45*
X127870000Y-82180000D02*
X127870000Y-82850000D01*
X128130000Y-95320000D02*
X128130000Y-95900000D01*
D44*
X133618644Y-91238644D02*
X133110000Y-90730000D01*
X127870000Y-82515000D02*
X127880000Y-82525000D01*
X131250000Y-99950000D02*
X131210000Y-99910000D01*
X136889800Y-94862500D02*
X136889700Y-94862500D01*
D45*
X131794440Y-95450000D02*
X132205097Y-95039343D01*
X142740000Y-84060000D02*
X143800000Y-83000000D01*
D44*
X140945000Y-93575000D02*
X140890000Y-93575000D01*
X145850000Y-79820000D02*
X145830000Y-79840000D01*
D45*
X150910000Y-79950000D02*
X150910000Y-80690000D01*
X149860000Y-100190000D02*
X149930000Y-100260000D01*
D44*
X147130000Y-88465000D02*
X147565000Y-88030000D01*
X133619311Y-91238644D02*
X133618644Y-91238644D01*
X147130000Y-89000000D02*
X147130000Y-88465000D01*
X131780000Y-80015000D02*
X131780000Y-79520000D01*
X133188000Y-91514300D02*
X133265800Y-91592100D01*
X147930000Y-75285000D02*
X147930000Y-74910000D01*
D45*
X137620000Y-92450000D02*
X137620000Y-92452867D01*
X131800000Y-80530000D02*
X131800000Y-79540000D01*
X145540000Y-75810000D02*
X145540000Y-76390000D01*
D44*
X131135000Y-86535000D02*
X131135000Y-86420000D01*
X131210000Y-99910000D02*
X131210000Y-99690000D01*
D45*
X141190000Y-93330000D02*
X140700000Y-93820000D01*
X133200000Y-79260000D02*
X133200000Y-79960000D01*
D44*
X145540000Y-76100000D02*
X145530000Y-76110000D01*
D45*
X145160000Y-107470000D02*
X145210000Y-107520000D01*
D44*
X136112400Y-82927400D02*
X136112000Y-82927400D01*
X134680000Y-78400000D02*
X134680000Y-78105000D01*
D45*
X146950000Y-77270000D02*
X146400000Y-77270000D01*
X149940000Y-92450000D02*
X149940000Y-92940000D01*
X146610000Y-79820000D02*
X145850000Y-79820000D01*
X149540000Y-76190000D02*
X150270000Y-76190000D01*
X132150000Y-75560000D02*
X131660000Y-75560000D01*
X137160000Y-100240000D02*
X137170000Y-100250000D01*
D44*
X150920000Y-80330000D02*
X150920000Y-80700000D01*
X147565000Y-88030000D02*
X147565000Y-87255000D01*
D45*
X149630000Y-74500000D02*
X150960000Y-74500000D01*
X144040000Y-76390000D02*
X144040000Y-76845000D01*
X137160000Y-99060000D02*
X137160000Y-100240000D01*
X147950000Y-75680000D02*
X147950000Y-74930000D01*
X128770000Y-93850000D02*
X128290000Y-93850000D01*
D44*
X149950000Y-92705000D02*
X149950000Y-92950000D01*
X147950000Y-75305000D02*
X147930000Y-75285000D01*
X146680000Y-101370000D02*
X147950000Y-101370000D01*
X134502900Y-93890000D02*
X134459000Y-93846100D01*
D45*
X149860000Y-99060000D02*
X149860000Y-100190000D01*
D44*
X140890000Y-93575000D02*
X140645000Y-93820000D01*
D45*
X131510000Y-95450000D02*
X131510000Y-95027333D01*
X130908026Y-92770000D02*
X131497990Y-93359964D01*
X146400000Y-77270000D02*
X145530000Y-76400000D01*
D44*
X134550000Y-93890000D02*
X134502900Y-93890000D01*
X148270000Y-98440000D02*
X147950000Y-98760000D01*
D45*
X134950000Y-106300000D02*
X135395000Y-106300000D01*
X136830000Y-82930000D02*
X136115044Y-82930000D01*
D44*
%TO.N,NRST*%
X129670000Y-97360000D02*
X129760000Y-97450000D01*
X131927900Y-96023700D02*
X132558700Y-95392900D01*
X129670000Y-95910000D02*
X129670000Y-97360000D01*
X131900100Y-96023700D02*
X131927900Y-96023700D01*
X130325700Y-96884300D02*
X129760000Y-97450000D01*
X130455000Y-96884300D02*
X130325700Y-96884300D01*
%TO.N,Net-(D1-A)*%
X127890000Y-84920000D02*
X127890000Y-86490000D01*
X127880000Y-84910000D02*
X127890000Y-84920000D01*
%TO.N,LED*%
X131907300Y-88713400D02*
X128463400Y-88713400D01*
X133972900Y-90779000D02*
X131907300Y-88713400D01*
X133972900Y-90885100D02*
X133972900Y-90779000D01*
X128463400Y-88713400D02*
X127890000Y-88140000D01*
%TO.N,enc_A*%
X134371700Y-97652600D02*
X134371700Y-97104300D01*
X146590000Y-84530000D02*
X145629600Y-84530000D01*
X145629600Y-84530000D02*
X139794800Y-90364800D01*
X134002200Y-98022100D02*
X134371700Y-97652600D01*
X133364100Y-96708800D02*
X133364100Y-97809400D01*
X133576800Y-98022100D02*
X134002200Y-98022100D01*
X139794800Y-90364800D02*
X139794800Y-94579300D01*
X133364100Y-97809400D02*
X133576800Y-98022100D01*
X133619300Y-96453600D02*
X133364100Y-96708800D01*
%TO.N,BOOT0*%
X131851500Y-92887800D02*
X131351000Y-92387300D01*
X131851500Y-93006400D02*
X131851500Y-92887800D01*
X133814300Y-97535400D02*
X133814300Y-96965700D01*
X133814300Y-96965700D02*
X133972900Y-96807100D01*
X146590000Y-86530000D02*
X146590000Y-87592300D01*
%TO.N,Net-(C17-Pad1)*%
X133865000Y-105530000D02*
X133865000Y-106280000D01*
X135165100Y-102450900D02*
X136033900Y-102450900D01*
X133865000Y-105530000D02*
X133865000Y-104122400D01*
X133865000Y-104780000D02*
X133865000Y-105530000D01*
X152195700Y-91716400D02*
X152195700Y-85764100D01*
X134141900Y-104064000D02*
X134810200Y-103395700D01*
X151641400Y-92165000D02*
X151747100Y-92165000D01*
X133923400Y-104064000D02*
X134141900Y-104064000D01*
X133865000Y-104122400D02*
X133923400Y-104064000D01*
X151747100Y-92165000D02*
X152195700Y-91716400D01*
X152195700Y-85764100D02*
X150961600Y-84530000D01*
X150040000Y-84530000D02*
X150665100Y-84530000D01*
X134810200Y-103395700D02*
X134810200Y-102805800D01*
X133825000Y-104740000D02*
X133865000Y-104780000D01*
X134810200Y-102805800D02*
X135165100Y-102450900D01*
X150961600Y-84530000D02*
X150665100Y-84530000D01*
%TO.N,SWCLK*%
X134945100Y-90885100D02*
X134945100Y-89653400D01*
%TO.N,Net-(SW5-C)*%
X138130000Y-85390000D02*
X138130000Y-84510000D01*
X138130000Y-84510000D02*
X138140000Y-84500000D01*
X137160000Y-86360000D02*
X138130000Y-85390000D01*
X138140000Y-84500000D02*
X138140000Y-82960000D01*
%TO.N,enc_B*%
X133009100Y-97945500D02*
X133975900Y-98912300D01*
X135405500Y-98555700D02*
X135405500Y-98132800D01*
X143652800Y-87842100D02*
X145964900Y-85530000D01*
X146590000Y-85530000D02*
X145964900Y-85530000D01*
X133265800Y-96100000D02*
X133009100Y-96356700D01*
X135048900Y-98912300D02*
X135405500Y-98555700D01*
X143652800Y-87978500D02*
X143652800Y-87842100D01*
X133009100Y-96356700D02*
X133009100Y-97945500D01*
X133975900Y-98912300D02*
X135048900Y-98912300D01*
%TO.N,USART1_RX*%
X134081000Y-89434500D02*
X132725000Y-88078500D01*
X132725000Y-88078500D02*
X132725000Y-88010000D01*
X134910000Y-83654800D02*
X134910000Y-85825000D01*
X134910000Y-85825000D02*
X132725000Y-88010000D01*
X136925200Y-91733400D02*
X136925200Y-91725400D01*
X136359300Y-92299300D02*
X136925200Y-91733400D01*
%TO.N,USART1_TX*%
X133427700Y-84207300D02*
X132745000Y-84890000D01*
X134410000Y-84207300D02*
X133427700Y-84207300D01*
X134410000Y-83654800D02*
X134410000Y-84207300D01*
%TO.N,pushbutton_B*%
X150665100Y-86030000D02*
X151167700Y-86532600D01*
X132126200Y-91866800D02*
X132558700Y-92299300D01*
X151167700Y-86532600D02*
X151167700Y-87118900D01*
X150040000Y-86030000D02*
X150665100Y-86030000D01*
X131801000Y-89672600D02*
X132126200Y-89997800D01*
X132126200Y-89997800D02*
X132126200Y-91866800D01*
X151167700Y-87118900D02*
X150780200Y-87506400D01*
X150780200Y-87506400D02*
X150322100Y-87506400D01*
%TO.N,pushbutton_A*%
X150848700Y-85053700D02*
X150688800Y-85053700D01*
X132643000Y-89873400D02*
X131971700Y-89202100D01*
X132912200Y-91945800D02*
X132643000Y-91676600D01*
X150040000Y-85030000D02*
X150665100Y-85030000D01*
X131570900Y-89202100D02*
X131216800Y-89556200D01*
X131216800Y-89556200D02*
X131216800Y-90858400D01*
X131971700Y-89202100D02*
X131570900Y-89202100D01*
X150688800Y-85053700D02*
X150665100Y-85030000D01*
X132643000Y-91676600D02*
X132643000Y-89873400D01*
%TO.N,SWDIO*%
X135537800Y-90999500D02*
X135537800Y-90136400D01*
X135298700Y-91238600D02*
X135537800Y-90999500D01*
%TO.N,Net-(SW2-C)*%
X148250000Y-106910000D02*
X146750000Y-106910000D01*
X146750000Y-106910000D02*
X146730000Y-106930000D01*
X149860000Y-105300000D02*
X148250000Y-106910000D01*
X149860000Y-104140000D02*
X149860000Y-105300000D01*
D45*
%TO.N,5V*%
X136262088Y-76934800D02*
X139644800Y-76934800D01*
X147124160Y-76620000D02*
X147526000Y-77021840D01*
D44*
X140280000Y-78453000D02*
X141489900Y-79662900D01*
D45*
X145560000Y-77920000D02*
X145530000Y-77950000D01*
X140280000Y-77570000D02*
X140280000Y-78105000D01*
X130080000Y-77045000D02*
X129880000Y-77245000D01*
X146950000Y-76620000D02*
X147124160Y-76620000D01*
X135480000Y-78105000D02*
X135480000Y-77716888D01*
X130806000Y-74804000D02*
X133790719Y-74804000D01*
X130080000Y-75530000D02*
X130806000Y-74804000D01*
X147526000Y-77668999D02*
X147274999Y-77920000D01*
X135480000Y-77716888D02*
X136262088Y-76934800D01*
X147274999Y-77920000D02*
X146950000Y-77920000D01*
X143800000Y-80050000D02*
X143800000Y-78660000D01*
X135729000Y-77856000D02*
X135480000Y-78105000D01*
X147526000Y-77021840D02*
X147526000Y-77668999D01*
X135729000Y-76742281D02*
X135729000Y-77856000D01*
X146950000Y-77920000D02*
X145560000Y-77920000D01*
X139644800Y-76934800D02*
X140280000Y-77570000D01*
X144510000Y-77950000D02*
X144020000Y-78440000D01*
X130080000Y-75530000D02*
X130080000Y-77045000D01*
X133790719Y-74804000D02*
X135729000Y-76742281D01*
X143800000Y-78660000D02*
X144020000Y-78440000D01*
D44*
X143412900Y-79662900D02*
X143800000Y-80050000D01*
D45*
X145530000Y-77950000D02*
X144510000Y-77950000D01*
D44*
X140280000Y-78105000D02*
X140280000Y-78453000D01*
X141489900Y-79662900D02*
X143412900Y-79662900D01*
%TO.N,/usb_N*%
X137630000Y-78530000D02*
X137630000Y-78105000D01*
X137455000Y-79123200D02*
X138097600Y-79123200D01*
X135385000Y-81193200D02*
X137455000Y-79123200D01*
X138630000Y-78590800D02*
X138630000Y-78105000D01*
X137605000Y-78555000D02*
X137630000Y-78530000D01*
X137605000Y-78973200D02*
X137605000Y-78555000D01*
X135410000Y-82200000D02*
X135410000Y-81671400D01*
X138097600Y-79123200D02*
X138630000Y-78590800D01*
X137455000Y-79123200D02*
X137605000Y-78973200D01*
X135410000Y-81671400D02*
X135385000Y-81646400D01*
X135385000Y-81646400D02*
X135385000Y-81193200D01*
%TO.N,/usb_P*%
X137130000Y-78105000D02*
X137130000Y-77596400D01*
X138130000Y-77538000D02*
X138130000Y-78105000D01*
X137440600Y-77285800D02*
X137877800Y-77285800D01*
X134935000Y-81646400D02*
X134935000Y-81006800D01*
X137877800Y-77285800D02*
X138130000Y-77538000D01*
X137130000Y-77596400D02*
X137440600Y-77285800D01*
X134935000Y-81006800D02*
X137155000Y-78786800D01*
X137155000Y-78555000D02*
X137130000Y-78530000D01*
X137130000Y-78530000D02*
X137130000Y-78105000D01*
X137155000Y-78786800D02*
X137155000Y-78555000D01*
X134910000Y-81671400D02*
X134935000Y-81646400D01*
X134910000Y-82200000D02*
X134910000Y-81671400D01*
%TO.N,Net-(J1-CC1)*%
X139680000Y-79870000D02*
X139130000Y-79320000D01*
X139130000Y-79320000D02*
X139130000Y-78105000D01*
%TO.N,Net-(J1-CC2)*%
X136130000Y-78105000D02*
X136130000Y-78740000D01*
X136130000Y-78740000D02*
X134880000Y-79990000D01*
%TO.N,Net-(C6-Pad1)*%
X147565000Y-83805000D02*
X147565000Y-83179900D01*
X147778600Y-82966300D02*
X147565000Y-83179900D01*
X151480000Y-92990000D02*
X149950000Y-91460000D01*
X152495800Y-85639800D02*
X149822300Y-82966300D01*
X149950000Y-91460000D02*
X149950000Y-91400000D01*
X149822300Y-82966300D02*
X147778600Y-82966300D01*
X152495800Y-91974200D02*
X152495800Y-85639800D01*
X151480000Y-92990000D02*
X152495800Y-91974200D01*
%TO.N,Net-(C7-Pad1)*%
X146590000Y-85030000D02*
X145964900Y-85030000D01*
X143690000Y-91390000D02*
X143690000Y-90490000D01*
X143690000Y-90490000D02*
X143020000Y-89820000D01*
X145964900Y-85030000D02*
X143020000Y-87974900D01*
X143020000Y-87974900D02*
X143020000Y-89820000D01*
%TO.N,Net-(C8-Pad1)*%
X150040000Y-86530000D02*
X150665100Y-86530000D01*
X150665100Y-86530000D02*
X150665100Y-86973400D01*
X140515900Y-84550000D02*
X141190000Y-84550000D01*
X139780000Y-84510000D02*
X139820000Y-84550000D01*
X139820000Y-84550000D02*
X140515900Y-84550000D01*
X140515900Y-84550000D02*
X140515900Y-85525000D01*
%TO.N,Net-(C9-Pad1)*%
X146670000Y-105340000D02*
X146730000Y-105280000D01*
X148733200Y-103276800D02*
X148733200Y-94700100D01*
X150956000Y-85679300D02*
X150814400Y-85679300D01*
X150040000Y-85530000D02*
X150665100Y-85530000D01*
X146730000Y-105280000D02*
X148733200Y-103276800D01*
X148733200Y-94700100D02*
X147512200Y-93479100D01*
X145160000Y-105340000D02*
X146670000Y-105340000D01*
X150814400Y-85679300D02*
X150665100Y-85530000D01*
%TO.N,Net-(C10-Pad1)*%
X145914500Y-86080400D02*
X145914500Y-89539700D01*
X151750000Y-76080000D02*
X151750000Y-74637500D01*
X146590000Y-86030000D02*
X145964900Y-86030000D01*
X148967500Y-77270000D02*
X148356700Y-77270000D01*
X148356700Y-77270000D02*
X146461700Y-75375000D01*
X147154800Y-90594800D02*
X147710000Y-91150000D01*
X146969600Y-90594800D02*
X147154800Y-90594800D01*
X149556200Y-77858700D02*
X148967500Y-77270000D01*
X147710000Y-91150000D02*
X147710000Y-91787500D01*
X149547400Y-93624900D02*
X151950300Y-93624900D01*
X145964900Y-86030000D02*
X145914500Y-86080400D01*
X149556200Y-82275900D02*
X149556200Y-77858700D01*
X145914500Y-89539700D02*
X146969600Y-90594800D01*
X151950300Y-93624900D02*
X152802200Y-92773000D01*
X146461700Y-74910000D02*
X146380000Y-74910000D01*
X152802200Y-85521900D02*
X149556200Y-82275900D01*
X152802200Y-92773000D02*
X152802200Y-85521900D01*
X146461700Y-75375000D02*
X146461700Y-74910000D01*
X151750000Y-74637500D02*
X150373000Y-73260500D01*
X148111200Y-73260500D02*
X146461700Y-74910000D01*
X150373000Y-73260500D02*
X148111200Y-73260500D01*
X147710000Y-91787500D02*
X149547400Y-93624900D01*
%TO.N,Net-(R1-Pad1)*%
X151915000Y-77895000D02*
X151915000Y-79190000D01*
X151233100Y-76905000D02*
X151233100Y-77213100D01*
X151233100Y-77213100D02*
X151750000Y-77730000D01*
X151750000Y-77730000D02*
X151915000Y-77895000D01*
%TO.N,Net-(R6-Pad1)*%
X145340000Y-89710000D02*
X145340000Y-91390000D01*
X146845000Y-91390000D02*
X146885000Y-91430000D01*
X144630000Y-89000000D02*
X145340000Y-89710000D01*
X145340000Y-91390000D02*
X146845000Y-91390000D01*
%TO.N,Net-(R7-Pad1)*%
X150830100Y-89280100D02*
X151480000Y-89930000D01*
X151480000Y-91340000D02*
X151480000Y-89930000D01*
X150830100Y-89000000D02*
X150830100Y-89280100D01*
X149630000Y-89000000D02*
X150830100Y-89000000D01*
%TO.N,Net-(SW3-C)*%
X136075000Y-103770000D02*
X135495000Y-103190000D01*
X136075000Y-104140000D02*
X136075000Y-103770000D01*
X137160000Y-104140000D02*
X136075000Y-104140000D01*
X136075000Y-104140000D02*
X135475000Y-104740000D01*
%TO.N,Net-(U4-Y)*%
X131095000Y-84890000D02*
X131095000Y-81937200D01*
X132331500Y-77796500D02*
X131780000Y-77245000D01*
X132331500Y-80700700D02*
X132331500Y-77796500D01*
X131095000Y-81937200D02*
X132331500Y-80700700D01*
%TO.N,usb_switch*%
X131726300Y-83667100D02*
X131726300Y-85713600D01*
X134410000Y-82200000D02*
X134410000Y-81647500D01*
X131547500Y-83488300D02*
X131726300Y-83667100D01*
X132567500Y-81647500D02*
X134410000Y-81647500D01*
X132530000Y-81610000D02*
X132567500Y-81647500D01*
X134945100Y-98329700D02*
X134827100Y-98447700D01*
X132530000Y-81610000D02*
X131547500Y-82592500D01*
X134945100Y-96807100D02*
X134945100Y-98329700D01*
X131547500Y-82592500D02*
X131547500Y-83488300D01*
%TO.N,/usb_mcu_N*%
X136515000Y-89458496D02*
X136515000Y-91401192D01*
X135910001Y-84183438D02*
X135885000Y-84208439D01*
X135910001Y-83654800D02*
X135910001Y-84183438D01*
X135885000Y-84208439D02*
X135885000Y-88828496D01*
X136005800Y-91928300D02*
X136005800Y-91945800D01*
X136005796Y-91910396D02*
X136005796Y-91945751D01*
X136515000Y-91401192D02*
X136005796Y-91910396D01*
X135885000Y-88828496D02*
X136515000Y-89458496D01*
X136006000Y-91928100D02*
X136005800Y-91928300D01*
%TO.N,/usb_mcu_P*%
X136065000Y-91214794D02*
X135687597Y-91592197D01*
X135687597Y-91592197D02*
X135652243Y-91592197D01*
X135410000Y-83654800D02*
X135410000Y-84183438D01*
X136065000Y-89644864D02*
X136065000Y-91214794D01*
X135435001Y-89014865D02*
X136065000Y-89644864D01*
X135435001Y-84208439D02*
X135435001Y-89014865D01*
X135410000Y-84183438D02*
X135435001Y-84208439D01*
%TO.N,Net-(U1-PA9)*%
X137299900Y-87638500D02*
X137032900Y-87638500D01*
X138141600Y-91224200D02*
X138141600Y-88480200D01*
X130830000Y-80801800D02*
X130830000Y-79520000D01*
X138141600Y-88480200D02*
X137299900Y-87638500D01*
X136185200Y-86790800D02*
X136185200Y-84697000D01*
X137032900Y-87638500D02*
X136185200Y-86790800D01*
X136712900Y-92652900D02*
X138141600Y-91224200D01*
X136185200Y-84697000D02*
X136338300Y-84543900D01*
%TO.N,MISO*%
X136260200Y-96000800D02*
X141005100Y-96000800D01*
X147191100Y-95403300D02*
X147191100Y-97410900D01*
X136005800Y-95746400D02*
X136260200Y-96000800D01*
X145410000Y-99192000D02*
X145410000Y-101370000D01*
X141005100Y-96000800D02*
X141761900Y-95244000D01*
X147191100Y-97410900D02*
X145410000Y-99192000D01*
X147031800Y-95244000D02*
X147191100Y-95403300D01*
X141761900Y-95244000D02*
X147031800Y-95244000D01*
%TO.N,SCK*%
X135652200Y-96100000D02*
X139618700Y-100066500D01*
X143246700Y-100066500D02*
X146680000Y-96633200D01*
X139618700Y-100066500D02*
X143246700Y-100066500D01*
X146680000Y-96633200D02*
X146680000Y-96420000D01*
%TO.N,pushbutton_C*%
X149065000Y-87255000D02*
X148573300Y-87255000D01*
X131674800Y-92050400D02*
X131674800Y-90467400D01*
X132205100Y-92580700D02*
X131674800Y-92050400D01*
X132205100Y-92652900D02*
X132205100Y-92580700D01*
%TO.N,CS*%
X135875900Y-99618300D02*
X135875900Y-97030800D01*
X137627600Y-101370000D02*
X135875900Y-99618300D01*
X135875900Y-97030800D02*
X135298700Y-96453600D01*
X144140000Y-101370000D02*
X137627600Y-101370000D01*
%TO.N,MOSI*%
X147156100Y-94943900D02*
X141562700Y-94943900D01*
X147950000Y-96420000D02*
X147950000Y-95737800D01*
X136637100Y-95670700D02*
X136359300Y-95392900D01*
X147950000Y-95737800D02*
X147156100Y-94943900D01*
X141562700Y-94943900D02*
X140835900Y-95670700D01*
X140835900Y-95670700D02*
X136637100Y-95670700D01*
%TD*%
M02*
