M48
; DRILL file {KiCad 9.0.2} date 2025-07-12T05:54:15+0200
; FORMAT={-:-/ absolute / metric / decimal}
; #@! TF.CreationDate,2025-07-12T05:54:15+02:00
; #@! TF.GenerationSoftware,Kicad,Pcbnew,9.0.2
; #@! TF.FileFunction,Plated,1,4,PTH
FMAT,2
METRIC
; #@! TA.AperFunction,Plated,PTH,ViaDrill
T1C0.300
; #@! TA.AperFunction,Plated,PTH,ComponentDrill
T2C0.600
; #@! TA.AperFunction,Plated,PTH,ComponentDrill
T3C1.000
; #@! TA.AperFunction,Plated,PTH,ComponentDrill
T4C1.500
%
G90
G05
T1
X92.81Y-47.85
X93.06Y-44.16
X93.08Y-45.67
X93.14Y-47.29
X94.05Y-54.94
X95.63Y-54.04
X95.98Y-53.36
X96.749Y-48.859
X97.3Y-47.0
X97.3Y-48.25
X97.46Y-54.94
X97.5Y-45.4
X99.04Y-53.24
X99.26Y-43.77
X99.29Y-50.16
X99.35Y-40.12
X99.4Y-47.5
X99.45Y-45.75
X99.45Y-54.95
X99.47Y-51.98
X100.05Y-46.55
X101.9Y-47.05
X102.01Y-54.94
X102.09Y-51.99
X103.9Y-46.95
X104.41Y-53.7
X106.0Y-47.0
X106.45Y-40.13
X106.83Y-49.08
X108.16Y-45.55
X108.62Y-43.62
X109.12Y-46.3
X109.71Y-43.75
X110.75Y-44.99
X111.41Y-43.99
X111.43Y-51.186
X111.65Y-43.386
X111.938Y-50.78
X112.43Y-43.25
X112.438Y-50.33
X112.91Y-51.47
X113.16Y-43.07
X113.39Y-44.01
X113.438Y-51.08
X113.935Y-43.656
X113.94Y-47.38
X114.066Y-50.913
X114.491Y-43.993
X114.85Y-50.85
X115.178Y-50.289
X116.3Y-45.95
X116.37Y-49.0
X116.39Y-45.0
X116.5Y-47.0
X118.02Y-40.08
X118.19Y-47.3
X119.53Y-48.84
X120.4Y-45.1
X120.61Y-48.82
X122.2Y-48.85
X122.34Y-40.93
X123.04Y-46.28
X123.35Y-42.05
X124.05Y-50.8
X124.16Y-45.29
X125.2Y-50.1
X125.8Y-50.6
X126.05Y-43.1
X127.27Y-40.14
X127.35Y-48.8
X127.4Y-45.55
X127.43Y-47.32
X127.94Y-53.11
X128.54Y-41.62
X129.78Y-51.57
X131.27Y-41.92
X134.97Y-42.51
X136.53Y-46.57
X137.76Y-46.6
X139.07Y-46.62
T3
X95.32Y-57.81
X97.86Y-57.81
X100.4Y-57.81
X100.68Y-43.75
X100.68Y-50.25
X102.94Y-57.81
X105.18Y-43.75
X105.18Y-50.25
X105.48Y-57.81
X108.02Y-57.81
X110.56Y-57.81
X113.1Y-57.81
X115.64Y-57.81
X117.68Y-43.75
X117.68Y-50.25
X118.18Y-57.81
X120.72Y-57.81
X122.18Y-43.75
X122.18Y-50.25
X123.26Y-57.81
X125.8Y-57.81
X128.34Y-57.81
X129.68Y-44.5
X129.68Y-47.0
X129.68Y-49.5
X130.88Y-57.81
X144.18Y-44.5
X144.18Y-49.5
X150.59Y-43.26
X150.59Y-45.8
X150.59Y-48.34
X150.59Y-50.88
T2
G00X93.275Y-42.68
M15
G01X94.075Y-42.68
M16
G05
G00X93.275Y-51.32
M15
G01X94.075Y-51.32
M16
G05
G00X97.305Y-42.68
M15
G01X98.405Y-42.68
M16
G05
G00X97.305Y-51.32
M15
G01X98.405Y-51.32
M16
G05
G00X157.55Y-42.89
M15
G01X158.65Y-42.89
M16
G05
G00X157.55Y-51.53
M15
G01X158.65Y-51.53
M16
G05
G00X161.88Y-42.89
M15
G01X162.68Y-42.89
M16
G05
G00X161.88Y-51.53
M15
G01X162.68Y-51.53
M16
G05
T4
G00X136.53Y-41.4
M15
G01X137.83Y-41.4
M16
G05
G00X136.53Y-52.6
M15
G01X137.83Y-52.6
M16
G05
M30
