%TF.GenerationSoftware,KiCad,Pcbnew,9.0.2*%
%TF.CreationDate,2025-10-12T11:55:11+02:00*%
%TF.ProjectId,synthmate_L432,73796e74-686d-4617-9465-5f4c3433322e,rev?*%
%TF.SameCoordinates,Original*%
%TF.FileFunction,Copper,L2,Inr*%
%TF.FilePolarity,Positive*%
%FSLAX46Y46*%
G04 Gerber Fmt 4.6, Leading zero omitted, Abs format (unit mm)*
G04 Created by KiCad (PCBNEW 9.0.2) date 2025-10-12 11:55:11*
%MOMM*%
%LPD*%
G01*
G04 APERTURE LIST*
%TA.AperFunction,ComponentPad*%
%ADD10C,2.200000*%
%TD*%
%TA.AperFunction,HeatsinkPad*%
%ADD11O,2.100000X1.000000*%
%TD*%
%TA.AperFunction,HeatsinkPad*%
%ADD12O,1.800000X1.000000*%
%TD*%
%TA.AperFunction,ComponentPad*%
%ADD13R,2.000000X2.000000*%
%TD*%
%TA.AperFunction,ComponentPad*%
%ADD14C,2.000000*%
%TD*%
%TA.AperFunction,ComponentPad*%
%ADD15R,3.200000X2.000000*%
%TD*%
%TA.AperFunction,ViaPad*%
%ADD16C,0.500000*%
%TD*%
G04 APERTURE END LIST*
D10*
%TO.N,GND*%
%TO.C,SW2*%
X100800000Y-47000000D03*
%TD*%
D11*
%TO.N,GND*%
%TO.C,J1*%
X97855000Y-42680000D03*
D12*
X93675000Y-42680000D03*
D11*
X97855000Y-51320000D03*
D12*
X93675000Y-51320000D03*
%TD*%
D13*
%TO.N,Net-(R7-Pad1)*%
%TO.C,SW1*%
X129680000Y-49500000D03*
D14*
%TO.N,Net-(R6-Pad1)*%
X129680000Y-44500000D03*
%TO.N,GND*%
X129680000Y-47000000D03*
D15*
%TO.N,N/C*%
X137180000Y-41400000D03*
X137180000Y-52600000D03*
D14*
%TO.N,Net-(R1-Pad1)*%
X144180000Y-44500000D03*
%TO.N,GND*%
X144180000Y-49500000D03*
%TD*%
D10*
%TO.N,GND*%
%TO.C,SW3*%
X122913733Y-46990000D03*
%TD*%
D16*
%TO.N,LPUART_TX*%
X118830000Y-42480000D03*
X115260000Y-44950000D03*
X124580000Y-47460000D03*
X121790000Y-44010000D03*
%TO.N,LPUART_RX*%
X115210000Y-41590000D03*
X122190000Y-40650000D03*
%TO.N,3V3*%
X116065000Y-43190000D03*
%TO.N,usb_switch*%
X110110000Y-39370000D03*
%TO.N,Net-(U1-PA15)*%
X110540000Y-50670000D03*
X110460000Y-53320000D03*
%TO.N,GND*%
X114090000Y-50320000D03*
%TO.N,3V3*%
X116590000Y-49780000D03*
%TO.N,Net-(J1-CC1)*%
X96488238Y-45607896D03*
X97260000Y-46410000D03*
%TO.N,GND*%
X112070000Y-46990000D03*
X110090000Y-43800000D03*
%TO.N,3V3*%
X120390000Y-52490000D03*
X117340000Y-51530000D03*
X100770000Y-50940000D03*
X113860000Y-41245000D03*
X107410000Y-43940000D03*
%TO.N,GND*%
X103680000Y-39080000D03*
%TO.N,3V3*%
X103804106Y-52105894D03*
%TO.N,GND*%
X114380000Y-54940000D03*
X118700000Y-51760000D03*
X125730000Y-47290000D03*
X116280000Y-48340000D03*
X117800000Y-45010000D03*
X121150000Y-39910000D03*
%TO.N,Net-(U1-PA9)*%
X101625000Y-43695000D03*
X105920000Y-45260000D03*
%TO.N,SWDIO*%
X108590000Y-48310000D03*
X109540000Y-41620000D03*
%TO.N,SWCLK*%
X109560000Y-51830000D03*
X109560000Y-49310000D03*
%TO.N,Net-(C10-Pad1)*%
X131850000Y-43490000D03*
X113890000Y-53600000D03*
%TO.N,Net-(C9-Pad1)*%
X118740000Y-40850000D03*
X121040000Y-48510000D03*
%TO.N,Net-(C8-Pad1)*%
X107350000Y-40760000D03*
X107810000Y-48470000D03*
%TO.N,pushbutton_B*%
X112130000Y-43460000D03*
X119770000Y-53810000D03*
%TO.N,pushbutton_A*%
X117190000Y-54680000D03*
X113210161Y-43124132D03*
%TO.N,BOOT0*%
X113420000Y-50290000D03*
X113530000Y-43690000D03*
%TO.N,NRST*%
X122020000Y-52750000D03*
X116310000Y-47550000D03*
%TO.N,enc_B*%
X115300000Y-46308514D03*
X115280000Y-50320000D03*
%TO.N,enc_A*%
X115330000Y-51820000D03*
X115180000Y-45660000D03*
%TO.N,USART1_RX*%
X106860000Y-45230000D03*
%TO.N,Net-(J1-CC2)*%
X99180000Y-48730000D03*
%TO.N,usb_switch*%
X111330000Y-43640000D03*
X104240000Y-52800000D03*
%TO.N,LED*%
X106560000Y-50450000D03*
X107400000Y-45650000D03*
%TO.N,USART1_TX*%
X104280000Y-47250000D03*
X104110000Y-50140000D03*
%TO.N,USART1_RX*%
X107440000Y-46770000D03*
X104830000Y-49290000D03*
%TO.N,3V3*%
X99470000Y-51980000D03*
X100760000Y-52910000D03*
X128540000Y-41620000D03*
X97815000Y-39470000D03*
X95960000Y-53850000D03*
X131270000Y-41920000D03*
X127660000Y-53000000D03*
X99040000Y-53240000D03*
X139070000Y-46620000D03*
%TO.N,GND*%
X99450000Y-54950000D03*
X95610000Y-54530000D03*
X102010000Y-54940000D03*
X127270000Y-40140000D03*
X137860000Y-43420000D03*
X93080000Y-45670000D03*
X92200000Y-54970000D03*
X99290000Y-50160000D03*
X92810000Y-47850000D03*
X93140000Y-47290000D03*
X97460000Y-54940000D03*
X136570000Y-43450000D03*
X99260000Y-43770000D03*
X104610000Y-53430000D03*
X93060000Y-44160000D03*
X134970000Y-42510000D03*
%TO.N,Net-(J1-CC2)*%
X96690000Y-44990000D03*
%TD*%
%TA.AperFunction,Conductor*%
%TO.N,GND*%
G36*
X136061995Y-37560563D02*
G01*
X136664666Y-37579890D01*
X136672577Y-37580398D01*
X137270823Y-37638110D01*
X137278669Y-37639121D01*
X137872016Y-37735049D01*
X137879768Y-37736559D01*
X138465715Y-37870297D01*
X138473396Y-37872311D01*
X139049567Y-38043316D01*
X139057110Y-38045821D01*
X139621133Y-38253386D01*
X139628470Y-38256357D01*
X140117376Y-38472781D01*
X140178042Y-38499636D01*
X140185204Y-38503085D01*
X140718044Y-38781068D01*
X140724957Y-38784960D01*
X141238921Y-39096528D01*
X141245579Y-39100863D01*
X141460944Y-39251092D01*
X141738481Y-39444690D01*
X141744852Y-39449444D01*
X142214745Y-39824171D01*
X142220797Y-39829324D01*
X142665685Y-40233360D01*
X142671395Y-40238889D01*
X143089509Y-40670626D01*
X143094853Y-40676511D01*
X143474088Y-41121983D01*
X143484426Y-41134126D01*
X143489382Y-41140340D01*
X143848855Y-41622001D01*
X143853389Y-41628501D01*
X144181255Y-42132190D01*
X144185376Y-42138987D01*
X144480301Y-42662658D01*
X144483977Y-42669705D01*
X144568535Y-42845291D01*
X144579887Y-42914233D01*
X144552165Y-42978367D01*
X144494170Y-43017333D01*
X144437417Y-43021566D01*
X144298097Y-42999500D01*
X144298092Y-42999500D01*
X144061908Y-42999500D01*
X144061903Y-42999500D01*
X143828631Y-43036446D01*
X143604003Y-43109433D01*
X143393566Y-43216657D01*
X143300174Y-43284511D01*
X143202490Y-43355483D01*
X143202488Y-43355485D01*
X143202487Y-43355485D01*
X143035485Y-43522487D01*
X143035485Y-43522488D01*
X143035483Y-43522490D01*
X142990426Y-43584505D01*
X142896657Y-43713566D01*
X142789433Y-43924003D01*
X142716446Y-44148631D01*
X142679500Y-44381902D01*
X142679500Y-44618097D01*
X142716446Y-44851368D01*
X142789433Y-45075996D01*
X142879313Y-45252394D01*
X142896657Y-45286433D01*
X143035483Y-45477510D01*
X143202490Y-45644517D01*
X143393567Y-45783343D01*
X143478862Y-45826803D01*
X143604003Y-45890566D01*
X143604005Y-45890566D01*
X143604008Y-45890568D01*
X143724412Y-45929689D01*
X143828631Y-45963553D01*
X144061903Y-46000500D01*
X144061908Y-46000500D01*
X144298097Y-46000500D01*
X144531368Y-45963553D01*
X144531888Y-45963384D01*
X144755992Y-45890568D01*
X144966433Y-45783343D01*
X145157510Y-45644517D01*
X145238825Y-45563201D01*
X145300144Y-45529719D01*
X145369836Y-45534703D01*
X145425770Y-45576574D01*
X145449485Y-45635028D01*
X145515096Y-46143889D01*
X145515859Y-46151801D01*
X145554364Y-46751554D01*
X145554619Y-46759499D01*
X145554619Y-47360500D01*
X145554364Y-47368445D01*
X145515859Y-47968198D01*
X145515096Y-47976110D01*
X145440223Y-48556805D01*
X145412127Y-48620777D01*
X145404922Y-48628629D01*
X144662962Y-49370590D01*
X144645925Y-49307007D01*
X144580099Y-49192993D01*
X144487007Y-49099901D01*
X144372993Y-49034075D01*
X144309409Y-49017037D01*
X145049105Y-48277340D01*
X145049104Y-48277338D01*
X144966174Y-48217087D01*
X144755802Y-48109897D01*
X144531247Y-48036934D01*
X144531248Y-48036934D01*
X144298052Y-48000000D01*
X144061948Y-48000000D01*
X143828752Y-48036934D01*
X143604197Y-48109897D01*
X143393830Y-48217084D01*
X143310894Y-48277340D01*
X144050591Y-49017037D01*
X143987007Y-49034075D01*
X143872993Y-49099901D01*
X143779901Y-49192993D01*
X143714075Y-49307007D01*
X143697037Y-49370590D01*
X142957340Y-48630894D01*
X142897084Y-48713830D01*
X142789897Y-48924197D01*
X142716934Y-49148752D01*
X142680000Y-49381947D01*
X142680000Y-49618052D01*
X142716934Y-49851247D01*
X142789897Y-50075802D01*
X142897087Y-50286174D01*
X142957338Y-50369104D01*
X142957340Y-50369105D01*
X143697037Y-49629408D01*
X143714075Y-49692993D01*
X143779901Y-49807007D01*
X143872993Y-49900099D01*
X143987007Y-49965925D01*
X144050590Y-49982962D01*
X143310893Y-50722658D01*
X143393828Y-50782914D01*
X143604197Y-50890102D01*
X143828752Y-50963065D01*
X143828751Y-50963065D01*
X144061948Y-51000000D01*
X144298052Y-51000000D01*
X144500242Y-50967976D01*
X144569535Y-50976931D01*
X144622987Y-51021927D01*
X144643627Y-51088678D01*
X144631360Y-51144251D01*
X144483977Y-51450294D01*
X144480301Y-51457341D01*
X144185376Y-51981012D01*
X144181255Y-51987809D01*
X143853396Y-52491488D01*
X143848848Y-52498008D01*
X143489382Y-52979659D01*
X143484426Y-52985873D01*
X143094853Y-53443488D01*
X143089509Y-53449373D01*
X142671395Y-53881110D01*
X142665685Y-53886639D01*
X142220797Y-54290675D01*
X142214745Y-54295828D01*
X141744852Y-54670555D01*
X141738481Y-54675309D01*
X141245582Y-55019134D01*
X141238921Y-55023471D01*
X140724963Y-55335035D01*
X140718037Y-55338935D01*
X140185204Y-55616914D01*
X140178042Y-55620363D01*
X139628485Y-55863636D01*
X139621117Y-55866619D01*
X139057110Y-56074178D01*
X139049567Y-56076683D01*
X138473396Y-56247688D01*
X138465707Y-56249704D01*
X137879797Y-56383434D01*
X137871994Y-56384954D01*
X137278688Y-56480875D01*
X137270805Y-56481891D01*
X136672588Y-56539600D01*
X136664656Y-56540109D01*
X136100301Y-56558207D01*
X136061994Y-56559436D01*
X136058022Y-56559500D01*
X91684500Y-56559500D01*
X91617461Y-56539815D01*
X91571706Y-56487011D01*
X91560500Y-56435500D01*
X91560500Y-54753920D01*
X116439499Y-54753920D01*
X116468340Y-54898907D01*
X116468343Y-54898917D01*
X116524912Y-55035488D01*
X116524919Y-55035501D01*
X116607048Y-55158415D01*
X116607051Y-55158419D01*
X116711580Y-55262948D01*
X116711584Y-55262951D01*
X116834498Y-55345080D01*
X116834511Y-55345087D01*
X116971082Y-55401656D01*
X116971087Y-55401658D01*
X116971091Y-55401658D01*
X116971092Y-55401659D01*
X117116079Y-55430500D01*
X117116082Y-55430500D01*
X117263920Y-55430500D01*
X117361462Y-55411096D01*
X117408913Y-55401658D01*
X117545495Y-55345084D01*
X117668416Y-55262951D01*
X117772951Y-55158416D01*
X117855084Y-55035495D01*
X117860065Y-55023471D01*
X117911656Y-54898917D01*
X117911658Y-54898913D01*
X117940500Y-54753918D01*
X117940500Y-54606082D01*
X117940500Y-54606079D01*
X117911659Y-54461092D01*
X117911658Y-54461091D01*
X117911658Y-54461087D01*
X117900004Y-54432951D01*
X117855087Y-54324511D01*
X117855080Y-54324498D01*
X117772951Y-54201584D01*
X117772948Y-54201580D01*
X117668419Y-54097051D01*
X117668415Y-54097048D01*
X117545501Y-54014919D01*
X117545488Y-54014912D01*
X117408917Y-53958343D01*
X117408907Y-53958340D01*
X117263920Y-53929500D01*
X117263918Y-53929500D01*
X117116082Y-53929500D01*
X117116080Y-53929500D01*
X116971092Y-53958340D01*
X116971082Y-53958343D01*
X116834511Y-54014912D01*
X116834498Y-54014919D01*
X116711584Y-54097048D01*
X116711580Y-54097051D01*
X116607051Y-54201580D01*
X116607048Y-54201584D01*
X116524919Y-54324498D01*
X116524912Y-54324511D01*
X116468343Y-54461082D01*
X116468340Y-54461092D01*
X116439500Y-54606079D01*
X116439500Y-54606082D01*
X116439500Y-54753918D01*
X116439500Y-54753920D01*
X116439499Y-54753920D01*
X91560500Y-54753920D01*
X91560500Y-51070000D01*
X92305138Y-51070000D01*
X93108012Y-51070000D01*
X93090795Y-51079940D01*
X93034940Y-51135795D01*
X92995444Y-51204204D01*
X92975000Y-51280504D01*
X92975000Y-51359496D01*
X92995444Y-51435796D01*
X93034940Y-51504205D01*
X93090795Y-51560060D01*
X93108012Y-51570000D01*
X92305138Y-51570000D01*
X92313430Y-51611690D01*
X92313430Y-51611692D01*
X92388807Y-51793671D01*
X92388814Y-51793684D01*
X92498248Y-51957462D01*
X92498251Y-51957466D01*
X92637533Y-52096748D01*
X92637537Y-52096751D01*
X92801315Y-52206185D01*
X92801328Y-52206192D01*
X92983306Y-52281569D01*
X92983318Y-52281572D01*
X93176504Y-52319999D01*
X93176508Y-52320000D01*
X93425000Y-52320000D01*
X93425000Y-51620000D01*
X93925000Y-51620000D01*
X93925000Y-52320000D01*
X94173492Y-52320000D01*
X94173495Y-52319999D01*
X94366681Y-52281572D01*
X94366693Y-52281569D01*
X94548671Y-52206192D01*
X94548683Y-52206185D01*
X94640008Y-52145164D01*
X94706685Y-52124286D01*
X94774065Y-52142770D01*
X94820756Y-52194749D01*
X94830516Y-52224075D01*
X94854103Y-52342658D01*
X94854106Y-52342667D01*
X94921983Y-52506540D01*
X94921990Y-52506553D01*
X95020535Y-52654034D01*
X95020538Y-52654038D01*
X95145961Y-52779461D01*
X95145965Y-52779464D01*
X95293446Y-52878009D01*
X95293459Y-52878016D01*
X95409496Y-52926079D01*
X95457334Y-52945894D01*
X95457336Y-52945894D01*
X95457341Y-52945896D01*
X95552791Y-52964882D01*
X95614702Y-52997267D01*
X95649276Y-53057982D01*
X95645537Y-53127752D01*
X95604670Y-53184424D01*
X95597491Y-53189601D01*
X95481584Y-53267048D01*
X95481580Y-53267051D01*
X95377051Y-53371580D01*
X95377048Y-53371584D01*
X95294919Y-53494498D01*
X95294912Y-53494511D01*
X95238343Y-53631082D01*
X95238340Y-53631092D01*
X95209500Y-53776079D01*
X95209500Y-53776082D01*
X95209500Y-53923918D01*
X95209500Y-53923920D01*
X95209499Y-53923920D01*
X95238340Y-54068907D01*
X95238343Y-54068917D01*
X95294912Y-54205488D01*
X95294919Y-54205501D01*
X95377048Y-54328415D01*
X95377051Y-54328419D01*
X95481580Y-54432948D01*
X95481584Y-54432951D01*
X95604498Y-54515080D01*
X95604511Y-54515087D01*
X95714149Y-54560500D01*
X95741087Y-54571658D01*
X95741091Y-54571658D01*
X95741092Y-54571659D01*
X95886079Y-54600500D01*
X95886082Y-54600500D01*
X96033920Y-54600500D01*
X96131462Y-54581096D01*
X96178913Y-54571658D01*
X96315495Y-54515084D01*
X96315501Y-54515080D01*
X96342728Y-54496888D01*
X96396315Y-54461082D01*
X96438416Y-54432951D01*
X96542951Y-54328416D01*
X96625084Y-54205495D01*
X96681658Y-54068913D01*
X96697256Y-53990500D01*
X96710500Y-53923920D01*
X96710500Y-53776079D01*
X96681659Y-53631092D01*
X96681658Y-53631091D01*
X96681658Y-53631087D01*
X96666918Y-53595501D01*
X96625087Y-53494511D01*
X96625080Y-53494498D01*
X96542951Y-53371584D01*
X96542948Y-53371580D01*
X96438419Y-53267051D01*
X96438415Y-53267048D01*
X96315501Y-53184919D01*
X96315488Y-53184912D01*
X96178917Y-53128343D01*
X96178907Y-53128340D01*
X96149682Y-53122527D01*
X96087771Y-53090142D01*
X96053197Y-53029426D01*
X96056938Y-52959656D01*
X96097804Y-52902984D01*
X96126424Y-52886348D01*
X96130859Y-52884511D01*
X96146547Y-52878013D01*
X96294035Y-52779464D01*
X96419464Y-52654035D01*
X96518013Y-52506547D01*
X96585894Y-52342666D01*
X96602444Y-52259460D01*
X96634828Y-52197552D01*
X96695544Y-52162978D01*
X96765313Y-52166717D01*
X96792951Y-52180551D01*
X96831317Y-52206186D01*
X96831328Y-52206192D01*
X97013306Y-52281569D01*
X97013318Y-52281572D01*
X97206504Y-52319999D01*
X97206508Y-52320000D01*
X97605000Y-52320000D01*
X97605000Y-51620000D01*
X98105000Y-51620000D01*
X98105000Y-52320000D01*
X98503492Y-52320000D01*
X98503494Y-52319999D01*
X98679152Y-52285059D01*
X98699063Y-52286840D01*
X98718795Y-52283643D01*
X98733148Y-52289890D01*
X98748743Y-52291286D01*
X98764531Y-52303550D01*
X98782859Y-52311528D01*
X98801467Y-52332243D01*
X98803921Y-52334149D01*
X98806445Y-52337784D01*
X98820167Y-52358320D01*
X98841045Y-52424998D01*
X98822561Y-52492378D01*
X98770583Y-52539068D01*
X98764518Y-52541773D01*
X98684508Y-52574914D01*
X98684498Y-52574919D01*
X98561584Y-52657048D01*
X98561580Y-52657051D01*
X98457051Y-52761580D01*
X98457048Y-52761584D01*
X98374919Y-52884498D01*
X98374912Y-52884511D01*
X98318343Y-53021082D01*
X98318340Y-53021092D01*
X98289500Y-53166079D01*
X98289500Y-53166082D01*
X98289500Y-53313918D01*
X98289500Y-53313920D01*
X98289499Y-53313920D01*
X98318340Y-53458907D01*
X98318343Y-53458917D01*
X98374912Y-53595488D01*
X98374919Y-53595501D01*
X98457048Y-53718415D01*
X98457051Y-53718419D01*
X98561580Y-53822948D01*
X98561584Y-53822951D01*
X98684498Y-53905080D01*
X98684511Y-53905087D01*
X98813081Y-53958342D01*
X98821087Y-53961658D01*
X98821091Y-53961658D01*
X98821092Y-53961659D01*
X98966079Y-53990500D01*
X98966082Y-53990500D01*
X99113920Y-53990500D01*
X99211462Y-53971096D01*
X99258913Y-53961658D01*
X99395495Y-53905084D01*
X99518416Y-53822951D01*
X99622951Y-53718416D01*
X99705084Y-53595495D01*
X99713539Y-53575084D01*
X99717902Y-53564547D01*
X99761658Y-53458913D01*
X99774587Y-53393918D01*
X99790500Y-53313920D01*
X99790500Y-53166079D01*
X99761659Y-53021092D01*
X99761658Y-53021091D01*
X99761658Y-53021087D01*
X99753244Y-53000773D01*
X99705087Y-52884511D01*
X99705080Y-52884498D01*
X99689832Y-52861678D01*
X99684149Y-52843531D01*
X99673897Y-52827517D01*
X99673925Y-52810878D01*
X99668954Y-52795001D01*
X99673984Y-52776663D01*
X99674017Y-52757647D01*
X99683036Y-52743665D01*
X99687438Y-52727621D01*
X99701584Y-52714913D01*
X99711893Y-52698934D01*
X99735745Y-52684227D01*
X99739417Y-52680930D01*
X99741617Y-52679904D01*
X99743515Y-52679041D01*
X99825495Y-52645084D01*
X99840998Y-52634724D01*
X99850182Y-52630550D01*
X99875181Y-52626999D01*
X99899279Y-52619453D01*
X99909186Y-52622170D01*
X99919358Y-52620726D01*
X99942308Y-52631255D01*
X99966660Y-52637934D01*
X99973525Y-52645576D01*
X99982863Y-52649860D01*
X99996479Y-52671127D01*
X100013353Y-52689911D01*
X100014996Y-52700050D01*
X100020536Y-52708703D01*
X100020492Y-52733955D01*
X100024533Y-52758880D01*
X100023117Y-52767623D01*
X100011920Y-52823918D01*
X100009500Y-52836082D01*
X100009500Y-52983918D01*
X100009500Y-52983920D01*
X100009499Y-52983920D01*
X100038340Y-53128907D01*
X100038343Y-53128917D01*
X100094912Y-53265488D01*
X100094919Y-53265501D01*
X100177048Y-53388415D01*
X100177051Y-53388419D01*
X100281580Y-53492948D01*
X100281584Y-53492951D01*
X100404498Y-53575080D01*
X100404511Y-53575087D01*
X100541082Y-53631656D01*
X100541087Y-53631658D01*
X100541091Y-53631658D01*
X100541092Y-53631659D01*
X100686079Y-53660500D01*
X100686082Y-53660500D01*
X100833920Y-53660500D01*
X100931462Y-53641096D01*
X100978913Y-53631658D01*
X101115495Y-53575084D01*
X101238416Y-53492951D01*
X101342951Y-53388416D01*
X101425084Y-53265495D01*
X101481658Y-53128913D01*
X101494265Y-53065535D01*
X101510500Y-52983920D01*
X101510500Y-52836079D01*
X101481659Y-52691092D01*
X101481658Y-52691091D01*
X101481658Y-52691087D01*
X101475443Y-52676082D01*
X101425087Y-52554511D01*
X101425080Y-52554498D01*
X101342951Y-52431584D01*
X101342948Y-52431580D01*
X101238419Y-52327051D01*
X101238415Y-52327048D01*
X101115501Y-52244919D01*
X101115488Y-52244912D01*
X100978917Y-52188343D01*
X100978907Y-52188340D01*
X100936044Y-52179814D01*
X103053605Y-52179814D01*
X103082446Y-52324801D01*
X103082449Y-52324811D01*
X103139018Y-52461382D01*
X103139025Y-52461395D01*
X103221154Y-52584309D01*
X103221157Y-52584313D01*
X103325687Y-52688843D01*
X103325690Y-52688845D01*
X103434391Y-52761476D01*
X103479196Y-52815087D01*
X103489500Y-52864578D01*
X103489500Y-52873918D01*
X103489500Y-52873920D01*
X103489499Y-52873920D01*
X103518340Y-53018907D01*
X103518343Y-53018917D01*
X103574912Y-53155488D01*
X103574919Y-53155501D01*
X103657048Y-53278415D01*
X103657051Y-53278419D01*
X103761580Y-53382948D01*
X103761584Y-53382951D01*
X103884498Y-53465080D01*
X103884511Y-53465087D01*
X104021082Y-53521656D01*
X104021087Y-53521658D01*
X104021091Y-53521658D01*
X104021092Y-53521659D01*
X104166079Y-53550500D01*
X104166082Y-53550500D01*
X104313920Y-53550500D01*
X104411462Y-53531096D01*
X104458913Y-53521658D01*
X104595495Y-53465084D01*
X104702000Y-53393920D01*
X109709499Y-53393920D01*
X109738340Y-53538907D01*
X109738343Y-53538917D01*
X109794912Y-53675488D01*
X109794919Y-53675501D01*
X109877048Y-53798415D01*
X109877051Y-53798419D01*
X109981580Y-53902948D01*
X109981584Y-53902951D01*
X110104498Y-53985080D01*
X110104511Y-53985087D01*
X110210327Y-54028917D01*
X110241087Y-54041658D01*
X110241091Y-54041658D01*
X110241092Y-54041659D01*
X110386079Y-54070500D01*
X110386082Y-54070500D01*
X110533920Y-54070500D01*
X110631462Y-54051096D01*
X110678913Y-54041658D01*
X110815495Y-53985084D01*
X110938416Y-53902951D01*
X111042951Y-53798416D01*
X111125084Y-53675495D01*
X111125736Y-53673920D01*
X113139499Y-53673920D01*
X113168340Y-53818907D01*
X113168343Y-53818917D01*
X113224912Y-53955488D01*
X113224919Y-53955501D01*
X113307048Y-54078415D01*
X113307051Y-54078419D01*
X113411580Y-54182948D01*
X113411584Y-54182951D01*
X113534498Y-54265080D01*
X113534511Y-54265087D01*
X113671082Y-54321656D01*
X113671087Y-54321658D01*
X113671091Y-54321658D01*
X113671092Y-54321659D01*
X113816079Y-54350500D01*
X113816082Y-54350500D01*
X113963920Y-54350500D01*
X114094570Y-54324511D01*
X114108913Y-54321658D01*
X114245495Y-54265084D01*
X114368416Y-54182951D01*
X114472951Y-54078416D01*
X114555084Y-53955495D01*
X114584731Y-53883920D01*
X119019499Y-53883920D01*
X119048340Y-54028907D01*
X119048343Y-54028917D01*
X119104912Y-54165488D01*
X119104919Y-54165501D01*
X119187048Y-54288415D01*
X119187051Y-54288419D01*
X119291580Y-54392948D01*
X119291584Y-54392951D01*
X119414498Y-54475080D01*
X119414511Y-54475087D01*
X119551082Y-54531656D01*
X119551087Y-54531658D01*
X119551091Y-54531658D01*
X119551092Y-54531659D01*
X119696079Y-54560500D01*
X119696082Y-54560500D01*
X119843920Y-54560500D01*
X119941462Y-54541096D01*
X119988913Y-54531658D01*
X120125495Y-54475084D01*
X120248416Y-54392951D01*
X120352951Y-54288416D01*
X120435084Y-54165495D01*
X120491658Y-54028913D01*
X120506262Y-53955495D01*
X120520500Y-53883920D01*
X120520500Y-53736079D01*
X120491659Y-53591092D01*
X120491658Y-53591091D01*
X120491658Y-53591087D01*
X120485028Y-53575080D01*
X120435087Y-53454511D01*
X120435085Y-53454507D01*
X120435084Y-53454505D01*
X120415351Y-53424972D01*
X120394473Y-53358295D01*
X120412957Y-53290915D01*
X120464936Y-53244224D01*
X120494262Y-53234464D01*
X120608913Y-53211658D01*
X120718951Y-53166079D01*
X120745488Y-53155087D01*
X120745488Y-53155086D01*
X120745495Y-53155084D01*
X120868416Y-53072951D01*
X120972951Y-52968416D01*
X121027787Y-52886348D01*
X121057303Y-52842175D01*
X121110915Y-52797369D01*
X121180240Y-52788662D01*
X121243267Y-52818816D01*
X121279987Y-52878259D01*
X121282022Y-52886873D01*
X121298340Y-52968907D01*
X121298343Y-52968917D01*
X121354912Y-53105488D01*
X121354919Y-53105501D01*
X121437048Y-53228415D01*
X121437051Y-53228419D01*
X121541580Y-53332948D01*
X121541584Y-53332951D01*
X121664498Y-53415080D01*
X121664511Y-53415087D01*
X121770327Y-53458917D01*
X121801087Y-53471658D01*
X121801091Y-53471658D01*
X121801092Y-53471659D01*
X121946079Y-53500500D01*
X121946082Y-53500500D01*
X122093920Y-53500500D01*
X122204944Y-53478415D01*
X122238913Y-53471658D01*
X122375495Y-53415084D01*
X122401590Y-53397648D01*
X123449500Y-53397648D01*
X123449500Y-53602351D01*
X123481522Y-53804534D01*
X123544781Y-53999223D01*
X123585132Y-54078415D01*
X123629498Y-54165488D01*
X123637715Y-54181613D01*
X123758028Y-54347213D01*
X123902786Y-54491971D01*
X124052166Y-54600500D01*
X124068390Y-54612287D01*
X124182747Y-54670555D01*
X124250776Y-54705218D01*
X124250778Y-54705218D01*
X124250781Y-54705220D01*
X124355137Y-54739127D01*
X124445465Y-54768477D01*
X124546557Y-54784488D01*
X124647648Y-54800500D01*
X124647649Y-54800500D01*
X124852351Y-54800500D01*
X124852352Y-54800500D01*
X125054534Y-54768477D01*
X125249219Y-54705220D01*
X125431610Y-54612287D01*
X125542590Y-54531656D01*
X125597213Y-54491971D01*
X125597215Y-54491968D01*
X125597219Y-54491966D01*
X125741966Y-54347219D01*
X125741968Y-54347215D01*
X125741971Y-54347213D01*
X125844929Y-54205501D01*
X125862287Y-54181610D01*
X125955220Y-53999219D01*
X126018477Y-53804534D01*
X126050500Y-53602352D01*
X126050500Y-53397648D01*
X126026494Y-53246082D01*
X126018477Y-53195465D01*
X125978985Y-53073920D01*
X126909499Y-53073920D01*
X126938340Y-53218907D01*
X126938343Y-53218917D01*
X126994912Y-53355488D01*
X126994919Y-53355501D01*
X127077048Y-53478415D01*
X127077051Y-53478419D01*
X127181580Y-53582948D01*
X127181584Y-53582951D01*
X127304498Y-53665080D01*
X127304511Y-53665087D01*
X127433260Y-53718416D01*
X127441087Y-53721658D01*
X127441091Y-53721658D01*
X127441092Y-53721659D01*
X127586079Y-53750500D01*
X127586082Y-53750500D01*
X127733920Y-53750500D01*
X127831462Y-53731096D01*
X127878913Y-53721658D01*
X127990361Y-53675495D01*
X128015488Y-53665087D01*
X128015488Y-53665086D01*
X128015495Y-53665084D01*
X128138416Y-53582951D01*
X128242951Y-53478416D01*
X128325084Y-53355495D01*
X128381658Y-53218913D01*
X128394355Y-53155084D01*
X128410500Y-53073920D01*
X128410500Y-52926079D01*
X128381659Y-52781092D01*
X128381658Y-52781091D01*
X128381658Y-52781087D01*
X128380986Y-52779464D01*
X128325087Y-52644511D01*
X128325080Y-52644498D01*
X128242951Y-52521584D01*
X128242948Y-52521580D01*
X128138419Y-52417051D01*
X128138415Y-52417048D01*
X128015501Y-52334919D01*
X128015488Y-52334912D01*
X127878917Y-52278343D01*
X127878907Y-52278340D01*
X127733920Y-52249500D01*
X127733918Y-52249500D01*
X127586082Y-52249500D01*
X127586080Y-52249500D01*
X127441092Y-52278340D01*
X127441082Y-52278343D01*
X127304511Y-52334912D01*
X127304498Y-52334919D01*
X127181584Y-52417048D01*
X127181580Y-52417051D01*
X127077051Y-52521580D01*
X127077048Y-52521584D01*
X126994919Y-52644498D01*
X126994912Y-52644511D01*
X126938343Y-52781082D01*
X126938340Y-52781092D01*
X126909500Y-52926079D01*
X126909500Y-52926082D01*
X126909500Y-53073918D01*
X126909500Y-53073920D01*
X126909499Y-53073920D01*
X125978985Y-53073920D01*
X125973806Y-53057982D01*
X125955220Y-53000781D01*
X125955218Y-53000778D01*
X125955217Y-53000773D01*
X125942740Y-52976286D01*
X125942739Y-52976285D01*
X125905390Y-52902984D01*
X125862287Y-52818390D01*
X125854556Y-52807749D01*
X125741971Y-52652786D01*
X125597213Y-52508028D01*
X125431613Y-52387715D01*
X125431612Y-52387714D01*
X125431610Y-52387713D01*
X125373923Y-52358320D01*
X125249223Y-52294781D01*
X125054534Y-52231522D01*
X124879995Y-52203878D01*
X124852352Y-52199500D01*
X124647648Y-52199500D01*
X124623329Y-52203351D01*
X124445465Y-52231522D01*
X124250776Y-52294781D01*
X124068386Y-52387715D01*
X123902786Y-52508028D01*
X123758028Y-52652786D01*
X123637715Y-52818386D01*
X123544781Y-53000776D01*
X123481522Y-53195465D01*
X123449500Y-53397648D01*
X122401590Y-53397648D01*
X122498416Y-53332951D01*
X122499787Y-53331580D01*
X122526273Y-53305095D01*
X122602948Y-53228419D01*
X122602951Y-53228416D01*
X122685084Y-53105495D01*
X122741658Y-52968913D01*
X122759739Y-52878016D01*
X122770500Y-52823920D01*
X122770500Y-52676079D01*
X122741659Y-52531092D01*
X122741658Y-52531091D01*
X122741658Y-52531087D01*
X122727348Y-52496540D01*
X122685087Y-52394511D01*
X122685080Y-52394498D01*
X122602951Y-52271584D01*
X122602948Y-52271580D01*
X122498419Y-52167051D01*
X122498415Y-52167048D01*
X122375501Y-52084919D01*
X122375488Y-52084912D01*
X122238917Y-52028343D01*
X122238907Y-52028340D01*
X122093920Y-51999500D01*
X122093918Y-51999500D01*
X121946082Y-51999500D01*
X121946080Y-51999500D01*
X121801092Y-52028340D01*
X121801082Y-52028343D01*
X121664511Y-52084912D01*
X121664498Y-52084919D01*
X121541584Y-52167048D01*
X121541580Y-52167051D01*
X121437051Y-52271580D01*
X121437048Y-52271584D01*
X121352696Y-52397825D01*
X121299083Y-52442630D01*
X121229758Y-52451337D01*
X121166731Y-52421182D01*
X121130012Y-52361739D01*
X121127977Y-52353125D01*
X121115398Y-52289890D01*
X121111658Y-52271087D01*
X121103610Y-52251658D01*
X121055087Y-52134511D01*
X121055080Y-52134498D01*
X120972951Y-52011584D01*
X120972948Y-52011580D01*
X120868419Y-51907051D01*
X120868415Y-51907048D01*
X120745501Y-51824919D01*
X120745488Y-51824912D01*
X120608917Y-51768343D01*
X120608907Y-51768340D01*
X120463920Y-51739500D01*
X120463918Y-51739500D01*
X120316082Y-51739500D01*
X120316080Y-51739500D01*
X120171092Y-51768340D01*
X120171082Y-51768343D01*
X120034511Y-51824912D01*
X120034498Y-51824919D01*
X119911584Y-51907048D01*
X119911580Y-51907051D01*
X119807051Y-52011580D01*
X119807048Y-52011584D01*
X119724919Y-52134498D01*
X119724912Y-52134511D01*
X119668343Y-52271082D01*
X119668340Y-52271092D01*
X119639500Y-52416079D01*
X119639500Y-52416082D01*
X119639500Y-52563918D01*
X119639500Y-52563920D01*
X119639499Y-52563920D01*
X119668340Y-52708907D01*
X119668343Y-52708917D01*
X119724912Y-52845488D01*
X119724919Y-52845501D01*
X119744648Y-52875027D01*
X119765526Y-52941705D01*
X119747041Y-53009085D01*
X119695063Y-53055775D01*
X119665738Y-53065535D01*
X119551092Y-53088340D01*
X119551082Y-53088343D01*
X119414511Y-53144912D01*
X119414498Y-53144919D01*
X119291584Y-53227048D01*
X119291580Y-53227051D01*
X119187051Y-53331580D01*
X119187048Y-53331584D01*
X119104919Y-53454498D01*
X119104912Y-53454511D01*
X119048343Y-53591082D01*
X119048340Y-53591092D01*
X119019500Y-53736079D01*
X119019500Y-53736082D01*
X119019500Y-53883918D01*
X119019500Y-53883920D01*
X119019499Y-53883920D01*
X114584731Y-53883920D01*
X114611658Y-53818913D01*
X114628135Y-53736079D01*
X114634159Y-53705798D01*
X114640500Y-53673920D01*
X114640500Y-53526079D01*
X114611659Y-53381092D01*
X114611658Y-53381091D01*
X114611658Y-53381087D01*
X114601060Y-53355501D01*
X114555087Y-53244511D01*
X114555080Y-53244498D01*
X114472951Y-53121584D01*
X114472948Y-53121580D01*
X114368419Y-53017051D01*
X114368415Y-53017048D01*
X114245501Y-52934919D01*
X114245488Y-52934912D01*
X114108917Y-52878343D01*
X114108907Y-52878340D01*
X113963920Y-52849500D01*
X113963918Y-52849500D01*
X113816082Y-52849500D01*
X113816080Y-52849500D01*
X113671092Y-52878340D01*
X113671082Y-52878343D01*
X113534511Y-52934912D01*
X113534498Y-52934919D01*
X113411584Y-53017048D01*
X113411580Y-53017051D01*
X113307051Y-53121580D01*
X113307048Y-53121584D01*
X113224919Y-53244498D01*
X113224912Y-53244511D01*
X113168343Y-53381082D01*
X113168340Y-53381092D01*
X113139500Y-53526079D01*
X113139500Y-53526082D01*
X113139500Y-53673918D01*
X113139500Y-53673920D01*
X113139499Y-53673920D01*
X111125736Y-53673920D01*
X111181658Y-53538913D01*
X111185090Y-53521659D01*
X111190235Y-53495797D01*
X111190235Y-53495796D01*
X111210500Y-53393920D01*
X111210500Y-53246079D01*
X111181659Y-53101092D01*
X111181658Y-53101091D01*
X111181658Y-53101087D01*
X111181001Y-53099500D01*
X111125087Y-52964511D01*
X111125080Y-52964498D01*
X111042951Y-52841584D01*
X111042948Y-52841580D01*
X110938419Y-52737051D01*
X110938415Y-52737048D01*
X110815501Y-52654919D01*
X110815488Y-52654912D01*
X110678917Y-52598343D01*
X110678907Y-52598340D01*
X110533920Y-52569500D01*
X110533918Y-52569500D01*
X110386082Y-52569500D01*
X110386080Y-52569500D01*
X110241092Y-52598340D01*
X110241082Y-52598343D01*
X110149326Y-52636349D01*
X110149317Y-52636354D01*
X110104505Y-52654916D01*
X109992653Y-52729652D01*
X109992621Y-52729672D01*
X109981588Y-52737045D01*
X109981580Y-52737051D01*
X109877051Y-52841580D01*
X109877048Y-52841584D01*
X109794919Y-52964498D01*
X109794912Y-52964511D01*
X109738343Y-53101082D01*
X109738340Y-53101092D01*
X109709500Y-53246079D01*
X109709500Y-53246082D01*
X109709500Y-53393918D01*
X109709500Y-53393920D01*
X109709499Y-53393920D01*
X104702000Y-53393920D01*
X104718416Y-53382951D01*
X104822951Y-53278416D01*
X104905084Y-53155495D01*
X104961658Y-53018913D01*
X104972406Y-52964882D01*
X104990500Y-52873920D01*
X104990500Y-52726079D01*
X104961659Y-52581092D01*
X104961658Y-52581091D01*
X104961658Y-52581087D01*
X104954547Y-52563920D01*
X104905087Y-52444511D01*
X104905080Y-52444498D01*
X104822951Y-52321584D01*
X104822948Y-52321580D01*
X104718419Y-52217051D01*
X104718415Y-52217048D01*
X104609715Y-52144416D01*
X104564910Y-52090803D01*
X104554606Y-52041314D01*
X104554606Y-52031973D01*
X104525765Y-51886986D01*
X104525764Y-51886985D01*
X104525764Y-51886981D01*
X104525151Y-51885501D01*
X104469193Y-51750405D01*
X104469186Y-51750392D01*
X104387057Y-51627478D01*
X104387054Y-51627474D01*
X104282525Y-51522945D01*
X104282521Y-51522942D01*
X104159607Y-51440813D01*
X104159594Y-51440806D01*
X104023023Y-51384237D01*
X104023013Y-51384234D01*
X103878026Y-51355394D01*
X103878024Y-51355394D01*
X103730188Y-51355394D01*
X103730186Y-51355394D01*
X103585198Y-51384234D01*
X103585188Y-51384237D01*
X103448617Y-51440806D01*
X103448604Y-51440813D01*
X103325690Y-51522942D01*
X103325686Y-51522945D01*
X103221157Y-51627474D01*
X103221154Y-51627478D01*
X103139025Y-51750392D01*
X103139018Y-51750405D01*
X103082449Y-51886976D01*
X103082446Y-51886986D01*
X103053606Y-52031973D01*
X103053606Y-52031976D01*
X103053606Y-52179812D01*
X103053606Y-52179814D01*
X103053605Y-52179814D01*
X100936044Y-52179814D01*
X100833920Y-52159500D01*
X100833918Y-52159500D01*
X100686082Y-52159500D01*
X100686080Y-52159500D01*
X100541092Y-52188340D01*
X100541082Y-52188343D01*
X100404511Y-52244912D01*
X100404493Y-52244922D01*
X100397386Y-52249671D01*
X100379977Y-52255120D01*
X100364740Y-52265152D01*
X100347325Y-52265343D01*
X100330708Y-52270546D01*
X100313116Y-52265719D01*
X100294875Y-52265920D01*
X100280122Y-52256666D01*
X100263329Y-52252059D01*
X100251139Y-52238487D01*
X100235685Y-52228794D01*
X100228276Y-52213032D01*
X100216641Y-52200078D01*
X100213723Y-52182072D01*
X100205963Y-52165561D01*
X100206554Y-52137816D01*
X100205467Y-52131107D01*
X100205576Y-52130269D01*
X100206102Y-52126296D01*
X100220500Y-52053918D01*
X100220500Y-51906082D01*
X100220500Y-51906079D01*
X100191659Y-51761092D01*
X100191658Y-51761091D01*
X100191658Y-51761087D01*
X100189584Y-51756079D01*
X100173462Y-51717157D01*
X100165993Y-51647688D01*
X100197268Y-51585209D01*
X100257357Y-51549557D01*
X100327183Y-51552051D01*
X100356913Y-51566602D01*
X100414505Y-51605084D01*
X100414507Y-51605085D01*
X100414511Y-51605087D01*
X100517360Y-51647688D01*
X100551087Y-51661658D01*
X100551091Y-51661658D01*
X100551092Y-51661659D01*
X100696079Y-51690500D01*
X100696082Y-51690500D01*
X100843920Y-51690500D01*
X100941462Y-51671096D01*
X100988913Y-51661658D01*
X101109547Y-51611690D01*
X101125488Y-51605087D01*
X101125488Y-51605086D01*
X101125495Y-51605084D01*
X101248416Y-51522951D01*
X101352951Y-51418416D01*
X101435084Y-51295495D01*
X101438887Y-51286315D01*
X101452706Y-51252951D01*
X101491658Y-51158913D01*
X101513008Y-51051584D01*
X101520500Y-51013920D01*
X101520500Y-50866079D01*
X101491659Y-50721092D01*
X101491658Y-50721091D01*
X101491658Y-50721087D01*
X101475690Y-50682537D01*
X101435087Y-50584511D01*
X101435080Y-50584498D01*
X101352951Y-50461584D01*
X101352948Y-50461580D01*
X101248419Y-50357051D01*
X101248415Y-50357048D01*
X101125501Y-50274919D01*
X101125488Y-50274912D01*
X100988917Y-50218343D01*
X100988907Y-50218340D01*
X100966686Y-50213920D01*
X103359499Y-50213920D01*
X103388340Y-50358907D01*
X103388343Y-50358917D01*
X103444912Y-50495488D01*
X103444919Y-50495501D01*
X103527048Y-50618415D01*
X103527051Y-50618419D01*
X103631580Y-50722948D01*
X103631584Y-50722951D01*
X103754498Y-50805080D01*
X103754511Y-50805087D01*
X103881162Y-50857547D01*
X103891087Y-50861658D01*
X103891091Y-50861658D01*
X103891092Y-50861659D01*
X104036079Y-50890500D01*
X104036082Y-50890500D01*
X104183920Y-50890500D01*
X104281462Y-50871096D01*
X104328913Y-50861658D01*
X104457627Y-50808343D01*
X104465488Y-50805087D01*
X104465488Y-50805086D01*
X104465495Y-50805084D01*
X104588416Y-50722951D01*
X104692951Y-50618416D01*
X104756091Y-50523920D01*
X105809499Y-50523920D01*
X105838340Y-50668907D01*
X105838343Y-50668917D01*
X105894912Y-50805488D01*
X105894919Y-50805501D01*
X105977048Y-50928415D01*
X105977051Y-50928419D01*
X106081580Y-51032948D01*
X106081584Y-51032951D01*
X106204498Y-51115080D01*
X106204511Y-51115087D01*
X106335877Y-51169500D01*
X106341087Y-51171658D01*
X106341091Y-51171658D01*
X106341092Y-51171659D01*
X106486079Y-51200500D01*
X106486082Y-51200500D01*
X106633920Y-51200500D01*
X106731462Y-51181096D01*
X106778913Y-51171658D01*
X106915495Y-51115084D01*
X107038416Y-51032951D01*
X107142951Y-50928416D01*
X107225084Y-50805495D01*
X107281658Y-50668913D01*
X107291703Y-50618415D01*
X107310500Y-50523920D01*
X107310500Y-50376079D01*
X107281659Y-50231092D01*
X107281658Y-50231091D01*
X107281658Y-50231087D01*
X107275443Y-50216082D01*
X107225087Y-50094511D01*
X107225080Y-50094498D01*
X107142951Y-49971584D01*
X107142948Y-49971580D01*
X107038419Y-49867051D01*
X107038415Y-49867048D01*
X106915501Y-49784919D01*
X106915488Y-49784912D01*
X106778917Y-49728343D01*
X106778907Y-49728340D01*
X106633920Y-49699500D01*
X106633918Y-49699500D01*
X106486082Y-49699500D01*
X106486080Y-49699500D01*
X106341092Y-49728340D01*
X106341082Y-49728343D01*
X106204511Y-49784912D01*
X106204498Y-49784919D01*
X106081584Y-49867048D01*
X106081580Y-49867051D01*
X105977051Y-49971580D01*
X105977048Y-49971584D01*
X105894919Y-50094498D01*
X105894912Y-50094511D01*
X105838343Y-50231082D01*
X105838340Y-50231092D01*
X105809500Y-50376079D01*
X105809500Y-50376082D01*
X105809500Y-50523918D01*
X105809500Y-50523920D01*
X105809499Y-50523920D01*
X104756091Y-50523920D01*
X104775084Y-50495495D01*
X104831658Y-50358913D01*
X104860500Y-50213918D01*
X104860500Y-50142832D01*
X104861544Y-50134840D01*
X104872523Y-50109953D01*
X104880185Y-50083861D01*
X104886416Y-50078461D01*
X104889746Y-50070915D01*
X104912436Y-50055914D01*
X104932989Y-50038106D01*
X104945475Y-50034073D01*
X104948031Y-50032384D01*
X104950818Y-50032347D01*
X104960309Y-50029283D01*
X104977274Y-50025908D01*
X105048913Y-50011658D01*
X105162768Y-49964498D01*
X105185488Y-49955087D01*
X105185488Y-49955086D01*
X105185495Y-49955084D01*
X105308416Y-49872951D01*
X105412951Y-49768416D01*
X105495084Y-49645495D01*
X105551658Y-49508913D01*
X105569674Y-49418342D01*
X105580500Y-49363920D01*
X105580500Y-49216079D01*
X105551659Y-49071092D01*
X105551658Y-49071091D01*
X105551658Y-49071087D01*
X105534432Y-49029500D01*
X105495087Y-48934511D01*
X105495080Y-48934498D01*
X105412951Y-48811584D01*
X105412948Y-48811580D01*
X105308419Y-48707051D01*
X105308415Y-48707048D01*
X105185501Y-48624919D01*
X105185488Y-48624912D01*
X105048917Y-48568343D01*
X105048907Y-48568340D01*
X104926141Y-48543920D01*
X107059499Y-48543920D01*
X107088340Y-48688907D01*
X107088343Y-48688917D01*
X107144912Y-48825488D01*
X107144919Y-48825501D01*
X107227048Y-48948415D01*
X107227051Y-48948419D01*
X107331580Y-49052948D01*
X107331584Y-49052951D01*
X107454498Y-49135080D01*
X107454511Y-49135087D01*
X107591082Y-49191656D01*
X107591087Y-49191658D01*
X107591091Y-49191658D01*
X107591092Y-49191659D01*
X107736079Y-49220500D01*
X107736082Y-49220500D01*
X107883920Y-49220500D01*
X108001816Y-49197048D01*
X108028913Y-49191658D01*
X108165495Y-49135084D01*
X108288416Y-49052951D01*
X108288421Y-49052945D01*
X108289229Y-49052406D01*
X108355907Y-49031528D01*
X108382313Y-49033891D01*
X108516079Y-49060500D01*
X108516082Y-49060500D01*
X108663919Y-49060500D01*
X108669846Y-49059321D01*
X108739438Y-49065548D01*
X108794616Y-49108410D01*
X108817861Y-49174300D01*
X108815657Y-49205128D01*
X108810380Y-49231656D01*
X108809500Y-49236082D01*
X108809500Y-49383918D01*
X108809500Y-49383920D01*
X108809499Y-49383920D01*
X108838340Y-49528907D01*
X108838343Y-49528917D01*
X108894912Y-49665488D01*
X108894919Y-49665501D01*
X108977048Y-49788415D01*
X108977051Y-49788419D01*
X109081580Y-49892948D01*
X109081584Y-49892951D01*
X109204498Y-49975080D01*
X109204511Y-49975087D01*
X109306653Y-50017395D01*
X109341087Y-50031658D01*
X109341091Y-50031658D01*
X109341092Y-50031659D01*
X109486079Y-50060500D01*
X109486082Y-50060500D01*
X109633920Y-50060500D01*
X109734462Y-50040500D01*
X109778913Y-50031658D01*
X109795313Y-50024864D01*
X109864779Y-50017395D01*
X109927259Y-50048668D01*
X109962913Y-50108756D01*
X109960421Y-50178581D01*
X109945868Y-50208315D01*
X109874922Y-50314493D01*
X109874912Y-50314511D01*
X109818343Y-50451082D01*
X109818340Y-50451092D01*
X109789500Y-50596079D01*
X109789500Y-50596082D01*
X109789500Y-50743918D01*
X109789500Y-50743920D01*
X109789499Y-50743920D01*
X109818340Y-50888907D01*
X109818342Y-50888913D01*
X109832156Y-50922264D01*
X109839623Y-50991734D01*
X109808347Y-51054212D01*
X109748258Y-51089864D01*
X109693402Y-51091332D01*
X109633920Y-51079500D01*
X109633918Y-51079500D01*
X109486082Y-51079500D01*
X109486080Y-51079500D01*
X109341092Y-51108340D01*
X109341082Y-51108343D01*
X109204511Y-51164912D01*
X109204498Y-51164919D01*
X109081584Y-51247048D01*
X109081580Y-51247051D01*
X108977051Y-51351580D01*
X108977048Y-51351584D01*
X108894919Y-51474498D01*
X108894912Y-51474511D01*
X108838343Y-51611082D01*
X108838340Y-51611092D01*
X108809500Y-51756079D01*
X108809500Y-51756082D01*
X108809500Y-51903918D01*
X108809500Y-51903920D01*
X108809499Y-51903920D01*
X108838340Y-52048907D01*
X108838343Y-52048917D01*
X108894912Y-52185488D01*
X108894919Y-52185501D01*
X108977048Y-52308415D01*
X108977051Y-52308419D01*
X109081580Y-52412948D01*
X109081584Y-52412951D01*
X109204498Y-52495080D01*
X109204511Y-52495087D01*
X109316947Y-52541659D01*
X109341087Y-52551658D01*
X109341091Y-52551658D01*
X109341092Y-52551659D01*
X109486079Y-52580500D01*
X109486082Y-52580500D01*
X109633920Y-52580500D01*
X109764570Y-52554511D01*
X109778913Y-52551658D01*
X109915495Y-52495084D01*
X110038416Y-52412951D01*
X110142951Y-52308416D01*
X110225084Y-52185495D01*
X110281658Y-52048913D01*
X110291487Y-51999500D01*
X110295107Y-51981304D01*
X111853233Y-51981304D01*
X111853233Y-52158695D01*
X111887836Y-52332658D01*
X111887839Y-52332667D01*
X111955716Y-52496540D01*
X111955723Y-52496553D01*
X112054268Y-52644034D01*
X112054271Y-52644038D01*
X112179694Y-52769461D01*
X112179698Y-52769464D01*
X112327179Y-52868009D01*
X112327192Y-52868016D01*
X112411614Y-52902984D01*
X112491067Y-52935894D01*
X112491069Y-52935894D01*
X112491074Y-52935896D01*
X112665037Y-52970499D01*
X112665040Y-52970500D01*
X112665042Y-52970500D01*
X112842426Y-52970500D01*
X112842427Y-52970499D01*
X112900415Y-52958964D01*
X113016391Y-52935896D01*
X113016394Y-52935894D01*
X113016399Y-52935894D01*
X113180280Y-52868013D01*
X113327768Y-52769464D01*
X113453197Y-52644035D01*
X113551746Y-52496547D01*
X113553842Y-52491488D01*
X113585075Y-52416082D01*
X113619627Y-52332666D01*
X113619712Y-52332243D01*
X113646001Y-52200078D01*
X113654233Y-52158691D01*
X113654233Y-51981309D01*
X113654233Y-51981306D01*
X113654232Y-51981304D01*
X113619629Y-51807341D01*
X113619626Y-51807331D01*
X113551749Y-51643459D01*
X113551742Y-51643446D01*
X113453197Y-51495965D01*
X113453194Y-51495961D01*
X113327771Y-51370538D01*
X113327767Y-51370535D01*
X113180286Y-51271990D01*
X113180273Y-51271983D01*
X113016400Y-51204106D01*
X113016391Y-51204103D01*
X112842427Y-51169500D01*
X112842424Y-51169500D01*
X112665042Y-51169500D01*
X112665039Y-51169500D01*
X112491074Y-51204103D01*
X112491065Y-51204106D01*
X112327192Y-51271983D01*
X112327179Y-51271990D01*
X112179698Y-51370535D01*
X112179694Y-51370538D01*
X112054271Y-51495961D01*
X112054268Y-51495965D01*
X111955723Y-51643446D01*
X111955716Y-51643459D01*
X111887840Y-51807331D01*
X111887836Y-51807341D01*
X111853233Y-51981304D01*
X110295107Y-51981304D01*
X110301130Y-51951025D01*
X110310500Y-51903920D01*
X110310500Y-51756079D01*
X110281659Y-51611092D01*
X110281658Y-51611091D01*
X110281658Y-51611087D01*
X110279173Y-51605087D01*
X110267844Y-51577736D01*
X110260375Y-51508267D01*
X110291650Y-51445788D01*
X110351740Y-51410136D01*
X110406595Y-51408667D01*
X110451436Y-51417586D01*
X110466081Y-51420500D01*
X110466082Y-51420500D01*
X110613920Y-51420500D01*
X110731811Y-51397049D01*
X110758913Y-51391658D01*
X110895495Y-51335084D01*
X111018416Y-51252951D01*
X111122951Y-51148416D01*
X111205084Y-51025495D01*
X111210816Y-51011658D01*
X111236275Y-50950192D01*
X111261658Y-50888913D01*
X111278253Y-50805488D01*
X111290500Y-50743920D01*
X111290500Y-50596079D01*
X111261659Y-50451092D01*
X111261658Y-50451091D01*
X111261658Y-50451087D01*
X111259173Y-50445087D01*
X111225553Y-50363920D01*
X112669499Y-50363920D01*
X112698340Y-50508907D01*
X112698343Y-50508917D01*
X112754912Y-50645488D01*
X112754919Y-50645501D01*
X112837048Y-50768415D01*
X112837051Y-50768419D01*
X112941580Y-50872948D01*
X112941584Y-50872951D01*
X113064498Y-50955080D01*
X113064511Y-50955087D01*
X113174149Y-51000500D01*
X113201087Y-51011658D01*
X113201091Y-51011658D01*
X113201092Y-51011659D01*
X113346079Y-51040500D01*
X113346082Y-51040500D01*
X113493920Y-51040500D01*
X113627551Y-51013918D01*
X113638913Y-51011658D01*
X113775495Y-50955084D01*
X113898416Y-50872951D01*
X114002951Y-50768416D01*
X114085084Y-50645495D01*
X114141658Y-50508913D01*
X114154355Y-50445083D01*
X114164532Y-50393920D01*
X114529499Y-50393920D01*
X114558340Y-50538907D01*
X114558343Y-50538917D01*
X114614912Y-50675488D01*
X114614919Y-50675501D01*
X114697048Y-50798415D01*
X114697051Y-50798419D01*
X114801580Y-50902948D01*
X114801584Y-50902951D01*
X114922286Y-50983602D01*
X114967091Y-51037214D01*
X114975798Y-51106539D01*
X114945644Y-51169567D01*
X114922287Y-51189806D01*
X114851580Y-51237051D01*
X114747051Y-51341580D01*
X114747048Y-51341584D01*
X114664919Y-51464498D01*
X114664912Y-51464511D01*
X114608343Y-51601082D01*
X114608340Y-51601092D01*
X114579500Y-51746079D01*
X114579500Y-51746082D01*
X114579500Y-51893918D01*
X114579500Y-51893920D01*
X114579499Y-51893920D01*
X114608340Y-52038907D01*
X114608343Y-52038917D01*
X114664912Y-52175488D01*
X114664919Y-52175501D01*
X114747048Y-52298415D01*
X114747051Y-52298419D01*
X114851580Y-52402948D01*
X114851584Y-52402951D01*
X114974498Y-52485080D01*
X114974511Y-52485087D01*
X115085554Y-52531082D01*
X115111087Y-52541658D01*
X115111091Y-52541658D01*
X115111092Y-52541659D01*
X115256079Y-52570500D01*
X115256082Y-52570500D01*
X115403920Y-52570500D01*
X115501462Y-52551096D01*
X115548913Y-52541658D01*
X115661353Y-52495084D01*
X115685488Y-52485087D01*
X115685488Y-52485086D01*
X115685495Y-52485084D01*
X115808416Y-52402951D01*
X115912951Y-52298416D01*
X115995084Y-52175495D01*
X115998583Y-52167049D01*
X116018908Y-52117979D01*
X116051658Y-52038913D01*
X116067860Y-51957462D01*
X116080500Y-51893920D01*
X116080500Y-51746079D01*
X116052222Y-51603920D01*
X116589499Y-51603920D01*
X116618340Y-51748907D01*
X116618343Y-51748917D01*
X116674912Y-51885488D01*
X116674919Y-51885501D01*
X116757048Y-52008415D01*
X116757051Y-52008419D01*
X116861580Y-52112948D01*
X116861584Y-52112951D01*
X116984498Y-52195080D01*
X116984511Y-52195087D01*
X117104825Y-52244922D01*
X117121087Y-52251658D01*
X117121091Y-52251658D01*
X117121092Y-52251659D01*
X117266079Y-52280500D01*
X117266082Y-52280500D01*
X117413920Y-52280500D01*
X117511462Y-52261096D01*
X117558913Y-52251658D01*
X117668695Y-52206185D01*
X117695488Y-52195087D01*
X117695488Y-52195086D01*
X117695495Y-52195084D01*
X117818416Y-52112951D01*
X117922951Y-52008416D01*
X118005084Y-51885495D01*
X118061658Y-51748913D01*
X118080647Y-51653453D01*
X118090500Y-51603920D01*
X118090500Y-51552135D01*
X135079500Y-51552135D01*
X135079500Y-53647870D01*
X135079501Y-53647876D01*
X135085908Y-53707483D01*
X135136202Y-53842328D01*
X135136206Y-53842335D01*
X135222452Y-53957544D01*
X135222455Y-53957547D01*
X135337664Y-54043793D01*
X135337671Y-54043797D01*
X135472517Y-54094091D01*
X135472516Y-54094091D01*
X135479444Y-54094835D01*
X135532127Y-54100500D01*
X138827872Y-54100499D01*
X138887483Y-54094091D01*
X139022331Y-54043796D01*
X139137546Y-53957546D01*
X139223796Y-53842331D01*
X139274091Y-53707483D01*
X139280500Y-53647873D01*
X139280499Y-51552128D01*
X139274091Y-51492517D01*
X139267375Y-51474511D01*
X139223797Y-51357671D01*
X139223793Y-51357664D01*
X139137547Y-51242455D01*
X139137544Y-51242452D01*
X139022335Y-51156206D01*
X139022328Y-51156202D01*
X138887482Y-51105908D01*
X138887483Y-51105908D01*
X138827883Y-51099501D01*
X138827881Y-51099500D01*
X138827873Y-51099500D01*
X138827864Y-51099500D01*
X135532129Y-51099500D01*
X135532123Y-51099501D01*
X135472516Y-51105908D01*
X135337671Y-51156202D01*
X135337664Y-51156206D01*
X135222455Y-51242452D01*
X135222452Y-51242455D01*
X135136206Y-51357664D01*
X135136202Y-51357671D01*
X135085908Y-51492517D01*
X135079776Y-51549557D01*
X135079501Y-51552123D01*
X135079500Y-51552135D01*
X118090500Y-51552135D01*
X118090500Y-51456079D01*
X118061659Y-51311092D01*
X118061658Y-51311091D01*
X118061658Y-51311087D01*
X118049606Y-51281990D01*
X118005087Y-51174511D01*
X118005080Y-51174498D01*
X117922951Y-51051584D01*
X117922948Y-51051580D01*
X117818419Y-50947051D01*
X117818415Y-50947048D01*
X117695501Y-50864919D01*
X117695488Y-50864912D01*
X117558917Y-50808343D01*
X117558907Y-50808340D01*
X117413920Y-50779500D01*
X117413918Y-50779500D01*
X117266082Y-50779500D01*
X117266080Y-50779500D01*
X117121092Y-50808340D01*
X117121082Y-50808343D01*
X116984511Y-50864912D01*
X116984498Y-50864919D01*
X116861584Y-50947048D01*
X116861580Y-50947051D01*
X116757051Y-51051580D01*
X116757048Y-51051584D01*
X116674919Y-51174498D01*
X116674912Y-51174511D01*
X116618343Y-51311082D01*
X116618340Y-51311092D01*
X116589500Y-51456079D01*
X116589500Y-51456082D01*
X116589500Y-51603918D01*
X116589500Y-51603920D01*
X116589499Y-51603920D01*
X116052222Y-51603920D01*
X116051659Y-51601092D01*
X116051658Y-51601091D01*
X116051658Y-51601087D01*
X115995084Y-51464505D01*
X115995080Y-51464498D01*
X115912951Y-51341584D01*
X115912948Y-51341580D01*
X115808419Y-51237051D01*
X115808415Y-51237048D01*
X115687713Y-51156397D01*
X115642908Y-51102785D01*
X115634201Y-51033460D01*
X115664356Y-50970432D01*
X115687711Y-50950194D01*
X115758416Y-50902951D01*
X115862951Y-50798416D01*
X115945084Y-50675495D01*
X116001658Y-50538913D01*
X116009244Y-50500772D01*
X116041627Y-50438864D01*
X116102342Y-50404289D01*
X116172112Y-50408028D01*
X116199749Y-50421861D01*
X116234505Y-50445084D01*
X116234507Y-50445085D01*
X116234511Y-50445087D01*
X116371082Y-50501656D01*
X116371087Y-50501658D01*
X116371091Y-50501658D01*
X116371092Y-50501659D01*
X116516079Y-50530500D01*
X116516082Y-50530500D01*
X116663920Y-50530500D01*
X116772420Y-50508917D01*
X116808913Y-50501658D01*
X116914547Y-50457902D01*
X116945488Y-50445087D01*
X116945488Y-50445086D01*
X116945495Y-50445084D01*
X117068416Y-50362951D01*
X117172951Y-50258416D01*
X117255084Y-50135495D01*
X117311658Y-49998913D01*
X117332736Y-49892951D01*
X117340500Y-49853920D01*
X117340500Y-49706079D01*
X117311659Y-49561092D01*
X117311658Y-49561091D01*
X117311658Y-49561087D01*
X117309985Y-49557048D01*
X117255087Y-49424511D01*
X117255080Y-49424498D01*
X117172951Y-49301584D01*
X117172948Y-49301580D01*
X117068419Y-49197051D01*
X117068415Y-49197048D01*
X116945501Y-49114919D01*
X116945488Y-49114912D01*
X116808917Y-49058343D01*
X116808907Y-49058340D01*
X116663920Y-49029500D01*
X116663918Y-49029500D01*
X116516082Y-49029500D01*
X116516080Y-49029500D01*
X116371092Y-49058340D01*
X116371082Y-49058343D01*
X116234511Y-49114912D01*
X116234498Y-49114919D01*
X116111584Y-49197048D01*
X116111580Y-49197051D01*
X116007051Y-49301580D01*
X116007048Y-49301584D01*
X115924919Y-49424498D01*
X115924912Y-49424511D01*
X115868343Y-49561082D01*
X115868340Y-49561092D01*
X115860755Y-49599226D01*
X115828370Y-49661137D01*
X115767654Y-49695711D01*
X115697884Y-49691970D01*
X115670247Y-49678136D01*
X115635501Y-49654919D01*
X115635488Y-49654912D01*
X115498917Y-49598343D01*
X115498907Y-49598340D01*
X115353920Y-49569500D01*
X115353918Y-49569500D01*
X115206082Y-49569500D01*
X115206080Y-49569500D01*
X115061092Y-49598340D01*
X115061082Y-49598343D01*
X114924511Y-49654912D01*
X114924498Y-49654919D01*
X114801584Y-49737048D01*
X114801580Y-49737051D01*
X114697051Y-49841580D01*
X114697048Y-49841584D01*
X114614919Y-49964498D01*
X114614912Y-49964511D01*
X114558343Y-50101082D01*
X114558340Y-50101092D01*
X114529500Y-50246079D01*
X114529500Y-50246082D01*
X114529500Y-50393918D01*
X114529500Y-50393920D01*
X114529499Y-50393920D01*
X114164532Y-50393920D01*
X114170500Y-50363920D01*
X114170500Y-50216079D01*
X114141659Y-50071092D01*
X114141658Y-50071091D01*
X114141658Y-50071087D01*
X114132372Y-50048668D01*
X114085087Y-49934511D01*
X114085080Y-49934498D01*
X114002951Y-49811584D01*
X114002948Y-49811580D01*
X113898419Y-49707051D01*
X113898415Y-49707048D01*
X113775501Y-49624919D01*
X113775488Y-49624912D01*
X113638917Y-49568343D01*
X113638907Y-49568340D01*
X113493920Y-49539500D01*
X113493918Y-49539500D01*
X113346082Y-49539500D01*
X113346080Y-49539500D01*
X113201092Y-49568340D01*
X113201082Y-49568343D01*
X113064511Y-49624912D01*
X113064498Y-49624919D01*
X112941584Y-49707048D01*
X112941580Y-49707051D01*
X112837051Y-49811580D01*
X112837048Y-49811584D01*
X112754919Y-49934498D01*
X112754912Y-49934511D01*
X112698343Y-50071082D01*
X112698340Y-50071092D01*
X112669500Y-50216079D01*
X112669500Y-50216082D01*
X112669500Y-50363918D01*
X112669500Y-50363920D01*
X112669499Y-50363920D01*
X111225553Y-50363920D01*
X111205087Y-50314511D01*
X111205083Y-50314504D01*
X111205076Y-50314493D01*
X111162253Y-50250403D01*
X111122954Y-50191588D01*
X111122948Y-50191580D01*
X111018419Y-50087051D01*
X111018415Y-50087048D01*
X110895501Y-50004919D01*
X110895488Y-50004912D01*
X110758917Y-49948343D01*
X110758907Y-49948340D01*
X110613920Y-49919500D01*
X110613918Y-49919500D01*
X110466082Y-49919500D01*
X110466080Y-49919500D01*
X110321092Y-49948340D01*
X110321082Y-49948343D01*
X110304683Y-49955136D01*
X110235213Y-49962603D01*
X110172735Y-49931327D01*
X110137084Y-49871237D01*
X110139580Y-49801412D01*
X110154129Y-49771686D01*
X110225084Y-49665495D01*
X110281658Y-49528913D01*
X110301436Y-49429485D01*
X110310500Y-49383920D01*
X110310500Y-49236079D01*
X110281659Y-49091092D01*
X110281658Y-49091091D01*
X110281658Y-49091087D01*
X110273372Y-49071082D01*
X110225087Y-48954511D01*
X110225080Y-48954498D01*
X110142951Y-48831584D01*
X110142948Y-48831580D01*
X110038419Y-48727051D01*
X110038415Y-48727048D01*
X109915501Y-48644919D01*
X109915488Y-48644912D01*
X109778917Y-48588343D01*
X109778907Y-48588340D01*
X109756686Y-48583920D01*
X120289499Y-48583920D01*
X120318340Y-48728907D01*
X120318343Y-48728917D01*
X120374912Y-48865488D01*
X120374919Y-48865501D01*
X120457048Y-48988415D01*
X120457051Y-48988419D01*
X120561580Y-49092948D01*
X120561584Y-49092951D01*
X120684498Y-49175080D01*
X120684511Y-49175087D01*
X120783483Y-49216082D01*
X120821087Y-49231658D01*
X120821091Y-49231658D01*
X120821092Y-49231659D01*
X120966079Y-49260500D01*
X120966082Y-49260500D01*
X121113920Y-49260500D01*
X121211462Y-49241096D01*
X121258913Y-49231658D01*
X121395495Y-49175084D01*
X121518416Y-49092951D01*
X121622951Y-48988416D01*
X121705084Y-48865495D01*
X121761658Y-48728913D01*
X121778366Y-48644919D01*
X121790500Y-48583920D01*
X121790500Y-48436082D01*
X121790193Y-48434537D01*
X121786169Y-48414310D01*
X121792395Y-48344721D01*
X121835257Y-48289542D01*
X121901146Y-48266296D01*
X121969143Y-48282362D01*
X121980672Y-48289800D01*
X122075149Y-48358442D01*
X122299548Y-48472780D01*
X122539063Y-48550602D01*
X122787805Y-48590000D01*
X123039661Y-48590000D01*
X123288402Y-48550602D01*
X123527917Y-48472780D01*
X123752308Y-48358446D01*
X123752316Y-48358441D01*
X123766015Y-48348489D01*
X123766016Y-48348488D01*
X123854430Y-48284250D01*
X123854431Y-48284250D01*
X123161221Y-47591041D01*
X123221623Y-47566022D01*
X123328084Y-47494888D01*
X123418621Y-47404351D01*
X123489755Y-47297890D01*
X123514774Y-47237488D01*
X123807444Y-47530158D01*
X123840929Y-47591481D01*
X123841380Y-47593646D01*
X123858340Y-47678909D01*
X123858342Y-47678915D01*
X123914912Y-47815488D01*
X123914919Y-47815501D01*
X123997048Y-47938415D01*
X123997051Y-47938419D01*
X124101580Y-48042948D01*
X124101584Y-48042951D01*
X124224498Y-48125080D01*
X124224511Y-48125087D01*
X124295548Y-48154511D01*
X124361087Y-48181658D01*
X124361091Y-48181658D01*
X124361092Y-48181659D01*
X124506079Y-48210500D01*
X124506082Y-48210500D01*
X124653920Y-48210500D01*
X124751462Y-48191096D01*
X124798913Y-48181658D01*
X124935495Y-48125084D01*
X125058416Y-48042951D01*
X125162951Y-47938416D01*
X125245084Y-47815495D01*
X125301658Y-47678913D01*
X125316262Y-47605495D01*
X125330500Y-47533920D01*
X125330500Y-47386079D01*
X125301659Y-47241092D01*
X125301658Y-47241091D01*
X125301658Y-47241087D01*
X125285862Y-47202951D01*
X125245087Y-47104511D01*
X125245080Y-47104498D01*
X125162951Y-46981584D01*
X125162948Y-46981580D01*
X125058419Y-46877051D01*
X125058415Y-46877048D01*
X124935501Y-46794919D01*
X124935488Y-46794912D01*
X124798917Y-46738343D01*
X124798907Y-46738340D01*
X124653920Y-46709500D01*
X124653918Y-46709500D01*
X124594697Y-46709500D01*
X124527658Y-46689815D01*
X124481903Y-46637011D01*
X124476009Y-46619911D01*
X124475842Y-46619966D01*
X124396513Y-46375815D01*
X124282175Y-46151416D01*
X124207983Y-46049301D01*
X124207983Y-46049300D01*
X123514774Y-46742510D01*
X123489755Y-46682110D01*
X123418621Y-46575649D01*
X123328084Y-46485112D01*
X123221623Y-46413978D01*
X123161220Y-46388957D01*
X123854431Y-45695748D01*
X123752316Y-45621557D01*
X123527917Y-45507219D01*
X123288402Y-45429397D01*
X123039661Y-45390000D01*
X122787805Y-45390000D01*
X122539063Y-45429397D01*
X122299548Y-45507219D01*
X122075146Y-45621559D01*
X121973034Y-45695747D01*
X121973033Y-45695748D01*
X122666244Y-46388958D01*
X122605843Y-46413978D01*
X122499382Y-46485112D01*
X122408845Y-46575649D01*
X122337711Y-46682110D01*
X122312691Y-46742511D01*
X121619481Y-46049300D01*
X121619480Y-46049301D01*
X121545292Y-46151413D01*
X121430952Y-46375815D01*
X121353130Y-46615330D01*
X121313733Y-46864071D01*
X121313733Y-47115928D01*
X121353130Y-47364669D01*
X121430952Y-47604184D01*
X121443316Y-47628450D01*
X121456211Y-47697119D01*
X121429934Y-47761859D01*
X121372827Y-47802115D01*
X121303021Y-47805107D01*
X121285380Y-47799305D01*
X121258913Y-47788342D01*
X121258907Y-47788340D01*
X121113920Y-47759500D01*
X121113918Y-47759500D01*
X120966082Y-47759500D01*
X120966080Y-47759500D01*
X120821092Y-47788340D01*
X120821082Y-47788343D01*
X120684511Y-47844912D01*
X120684498Y-47844919D01*
X120561584Y-47927048D01*
X120561580Y-47927051D01*
X120457051Y-48031580D01*
X120457048Y-48031584D01*
X120374919Y-48154498D01*
X120374912Y-48154511D01*
X120318343Y-48291082D01*
X120318340Y-48291092D01*
X120289500Y-48436079D01*
X120289500Y-48436082D01*
X120289500Y-48583918D01*
X120289500Y-48583920D01*
X120289499Y-48583920D01*
X109756686Y-48583920D01*
X109633920Y-48559500D01*
X109633918Y-48559500D01*
X109486082Y-48559500D01*
X109486077Y-48559500D01*
X109480151Y-48560679D01*
X109410559Y-48554452D01*
X109355382Y-48511588D01*
X109332138Y-48445698D01*
X109334344Y-48414865D01*
X109336149Y-48405793D01*
X109340500Y-48383920D01*
X109340500Y-48236079D01*
X109311659Y-48091092D01*
X109311658Y-48091091D01*
X109311658Y-48091087D01*
X109311656Y-48091082D01*
X109255087Y-47954511D01*
X109255080Y-47954498D01*
X109172951Y-47831584D01*
X109172948Y-47831580D01*
X109068419Y-47727051D01*
X109068415Y-47727048D01*
X108945501Y-47644919D01*
X108945488Y-47644912D01*
X108808917Y-47588343D01*
X108808907Y-47588340D01*
X108663920Y-47559500D01*
X108663918Y-47559500D01*
X108516082Y-47559500D01*
X108516080Y-47559500D01*
X108371092Y-47588340D01*
X108371082Y-47588343D01*
X108234511Y-47644912D01*
X108234498Y-47644919D01*
X108110769Y-47727593D01*
X108044091Y-47748471D01*
X108017686Y-47746108D01*
X107883920Y-47719500D01*
X107883918Y-47719500D01*
X107736082Y-47719500D01*
X107591087Y-47748342D01*
X107555559Y-47763058D01*
X107555555Y-47763059D01*
X107454507Y-47804914D01*
X107454498Y-47804919D01*
X107331584Y-47887048D01*
X107331580Y-47887051D01*
X107227051Y-47991580D01*
X107227048Y-47991584D01*
X107144919Y-48114498D01*
X107144912Y-48114511D01*
X107088343Y-48251082D01*
X107088340Y-48251092D01*
X107059500Y-48396079D01*
X107059500Y-48396082D01*
X107059500Y-48543918D01*
X107059500Y-48543920D01*
X107059499Y-48543920D01*
X104926141Y-48543920D01*
X104903920Y-48539500D01*
X104903918Y-48539500D01*
X104756082Y-48539500D01*
X104756080Y-48539500D01*
X104611092Y-48568340D01*
X104611082Y-48568343D01*
X104474511Y-48624912D01*
X104474498Y-48624919D01*
X104351584Y-48707048D01*
X104351580Y-48707051D01*
X104247051Y-48811580D01*
X104247048Y-48811584D01*
X104164919Y-48934498D01*
X104164912Y-48934511D01*
X104108343Y-49071082D01*
X104108340Y-49071092D01*
X104079500Y-49216079D01*
X104079500Y-49279099D01*
X104059815Y-49346138D01*
X104007011Y-49391893D01*
X103979693Y-49400716D01*
X103891091Y-49418341D01*
X103891082Y-49418343D01*
X103754511Y-49474912D01*
X103754498Y-49474919D01*
X103631584Y-49557048D01*
X103631580Y-49557051D01*
X103527051Y-49661580D01*
X103527048Y-49661584D01*
X103444919Y-49784498D01*
X103444912Y-49784511D01*
X103388343Y-49921082D01*
X103388340Y-49921092D01*
X103359500Y-50066079D01*
X103359500Y-50066082D01*
X103359500Y-50213918D01*
X103359500Y-50213920D01*
X103359499Y-50213920D01*
X100966686Y-50213920D01*
X100843920Y-50189500D01*
X100843918Y-50189500D01*
X100696082Y-50189500D01*
X100696080Y-50189500D01*
X100551092Y-50218340D01*
X100551082Y-50218343D01*
X100414511Y-50274912D01*
X100414498Y-50274919D01*
X100291584Y-50357048D01*
X100291580Y-50357051D01*
X100187051Y-50461580D01*
X100187048Y-50461584D01*
X100104919Y-50584498D01*
X100104912Y-50584511D01*
X100048343Y-50721082D01*
X100048340Y-50721092D01*
X100019500Y-50866079D01*
X100019500Y-50866082D01*
X100019500Y-51013918D01*
X100019500Y-51013920D01*
X100019499Y-51013920D01*
X100048340Y-51158907D01*
X100048341Y-51158911D01*
X100048342Y-51158913D01*
X100054803Y-51174511D01*
X100066538Y-51202843D01*
X100074005Y-51272312D01*
X100042730Y-51334791D01*
X99982640Y-51370443D01*
X99912815Y-51367948D01*
X99883085Y-51353396D01*
X99825501Y-51314919D01*
X99825488Y-51314912D01*
X99688917Y-51258343D01*
X99688907Y-51258340D01*
X99543920Y-51229500D01*
X99543918Y-51229500D01*
X99508354Y-51229500D01*
X99441315Y-51209815D01*
X99395560Y-51157011D01*
X99386737Y-51129691D01*
X99366572Y-51028318D01*
X99366569Y-51028306D01*
X99291192Y-50846328D01*
X99291185Y-50846315D01*
X99181751Y-50682537D01*
X99181748Y-50682533D01*
X99042466Y-50543251D01*
X99042462Y-50543248D01*
X98878684Y-50433814D01*
X98878671Y-50433807D01*
X98696693Y-50358430D01*
X98696681Y-50358427D01*
X98503495Y-50320000D01*
X98105000Y-50320000D01*
X98105000Y-51020000D01*
X97605000Y-51020000D01*
X97605000Y-50481784D01*
X97624685Y-50414745D01*
X97667000Y-50374397D01*
X97708365Y-50350515D01*
X97815515Y-50243365D01*
X97829962Y-50218343D01*
X97836721Y-50206637D01*
X97891279Y-50112138D01*
X97891281Y-50112135D01*
X97930500Y-49965766D01*
X97930500Y-49814234D01*
X97891281Y-49667865D01*
X97815515Y-49536635D01*
X97708365Y-49429485D01*
X97639109Y-49389500D01*
X97577136Y-49353719D01*
X97503950Y-49334109D01*
X97430766Y-49314500D01*
X97279234Y-49314500D01*
X97132863Y-49353719D01*
X97001635Y-49429485D01*
X97001632Y-49429487D01*
X96894487Y-49536632D01*
X96894485Y-49536635D01*
X96818719Y-49667863D01*
X96779500Y-49814234D01*
X96779500Y-49965765D01*
X96818719Y-50112136D01*
X96832202Y-50135488D01*
X96894485Y-50243365D01*
X96894486Y-50243366D01*
X96898549Y-50250403D01*
X96896346Y-50251674D01*
X96916959Y-50304983D01*
X96902923Y-50373428D01*
X96854112Y-50423420D01*
X96840845Y-50429866D01*
X96831324Y-50433809D01*
X96831315Y-50433814D01*
X96667537Y-50543248D01*
X96667533Y-50543251D01*
X96528251Y-50682533D01*
X96528248Y-50682537D01*
X96418814Y-50846315D01*
X96418807Y-50846328D01*
X96343430Y-51028306D01*
X96343427Y-51028316D01*
X96311300Y-51189830D01*
X96278915Y-51251741D01*
X96218199Y-51286315D01*
X96148430Y-51282575D01*
X96142231Y-51280199D01*
X95982667Y-51214106D01*
X95982658Y-51214103D01*
X95808694Y-51179500D01*
X95808691Y-51179500D01*
X95631309Y-51179500D01*
X95631306Y-51179500D01*
X95457341Y-51214103D01*
X95457332Y-51214106D01*
X95293459Y-51281983D01*
X95293446Y-51281990D01*
X95145965Y-51380535D01*
X95145961Y-51380538D01*
X95020536Y-51505963D01*
X95014574Y-51514888D01*
X94960963Y-51559695D01*
X94911470Y-51570000D01*
X94241988Y-51570000D01*
X94259205Y-51560060D01*
X94315060Y-51504205D01*
X94354556Y-51435796D01*
X94375000Y-51359496D01*
X94375000Y-51280504D01*
X94354556Y-51204204D01*
X94315060Y-51135795D01*
X94259205Y-51079940D01*
X94241988Y-51070000D01*
X95044862Y-51070000D01*
X95036569Y-51028309D01*
X95036569Y-51028307D01*
X94961192Y-50846328D01*
X94961185Y-50846315D01*
X94851751Y-50682537D01*
X94851748Y-50682533D01*
X94712466Y-50543251D01*
X94712462Y-50543248D01*
X94548684Y-50433814D01*
X94548671Y-50433807D01*
X94366693Y-50358430D01*
X94366681Y-50358427D01*
X94173495Y-50320000D01*
X93925000Y-50320000D01*
X93925000Y-51020000D01*
X93425000Y-51020000D01*
X93425000Y-50320000D01*
X93176504Y-50320000D01*
X92983318Y-50358427D01*
X92983306Y-50358430D01*
X92801328Y-50433807D01*
X92801315Y-50433814D01*
X92637537Y-50543248D01*
X92637533Y-50543251D01*
X92498251Y-50682533D01*
X92498248Y-50682537D01*
X92388814Y-50846315D01*
X92388807Y-50846328D01*
X92313430Y-51028307D01*
X92313430Y-51028309D01*
X92305138Y-51070000D01*
X91560500Y-51070000D01*
X91560500Y-48803920D01*
X98429499Y-48803920D01*
X98458340Y-48948907D01*
X98458343Y-48948917D01*
X98514912Y-49085488D01*
X98514919Y-49085501D01*
X98597048Y-49208415D01*
X98597051Y-49208419D01*
X98701580Y-49312948D01*
X98701584Y-49312951D01*
X98824498Y-49395080D01*
X98824511Y-49395087D01*
X98961082Y-49451656D01*
X98961087Y-49451658D01*
X98961091Y-49451658D01*
X98961092Y-49451659D01*
X99106079Y-49480500D01*
X99106082Y-49480500D01*
X99253920Y-49480500D01*
X99351462Y-49461096D01*
X99398913Y-49451658D01*
X99535495Y-49395084D01*
X99658416Y-49312951D01*
X99762951Y-49208416D01*
X99845084Y-49085495D01*
X99901658Y-48948913D01*
X99926208Y-48825495D01*
X99930500Y-48803920D01*
X99930500Y-48656080D01*
X99917355Y-48590000D01*
X99913220Y-48569212D01*
X99919447Y-48499622D01*
X99962309Y-48444444D01*
X100028198Y-48421199D01*
X100091133Y-48434537D01*
X100185813Y-48482779D01*
X100185812Y-48482779D01*
X100425330Y-48560602D01*
X100674072Y-48600000D01*
X100925928Y-48600000D01*
X101174669Y-48560602D01*
X101414184Y-48482780D01*
X101638575Y-48368446D01*
X101638581Y-48368442D01*
X101740697Y-48294250D01*
X101740698Y-48294250D01*
X101047488Y-47601041D01*
X101107890Y-47576022D01*
X101214351Y-47504888D01*
X101304888Y-47414351D01*
X101376022Y-47307890D01*
X101401041Y-47247489D01*
X102094250Y-47940698D01*
X102094250Y-47940697D01*
X102168442Y-47838581D01*
X102168446Y-47838575D01*
X102282780Y-47614184D01*
X102360602Y-47374669D01*
X102368640Y-47323920D01*
X103529499Y-47323920D01*
X103558340Y-47468907D01*
X103558343Y-47468917D01*
X103614912Y-47605488D01*
X103614919Y-47605501D01*
X103697048Y-47728415D01*
X103697051Y-47728419D01*
X103801580Y-47832948D01*
X103801584Y-47832951D01*
X103924498Y-47915080D01*
X103924511Y-47915087D01*
X104019690Y-47954511D01*
X104061087Y-47971658D01*
X104061091Y-47971658D01*
X104061092Y-47971659D01*
X104206079Y-48000500D01*
X104206082Y-48000500D01*
X104353920Y-48000500D01*
X104454005Y-47980591D01*
X104498913Y-47971658D01*
X104635495Y-47915084D01*
X104758416Y-47832951D01*
X104792063Y-47799304D01*
X104834476Y-47756892D01*
X104895799Y-47723407D01*
X104965491Y-47728391D01*
X105009838Y-47756892D01*
X105130500Y-47877554D01*
X105130505Y-47877558D01*
X105217411Y-47940698D01*
X105277006Y-47983996D01*
X105370394Y-48031580D01*
X105438360Y-48066211D01*
X105438363Y-48066212D01*
X105514907Y-48091082D01*
X105610591Y-48122171D01*
X105678635Y-48132948D01*
X105789449Y-48150500D01*
X105789454Y-48150500D01*
X105970551Y-48150500D01*
X106057259Y-48136765D01*
X106149409Y-48122171D01*
X106321639Y-48066211D01*
X106482994Y-47983996D01*
X106629501Y-47877553D01*
X106757553Y-47749501D01*
X106863996Y-47602994D01*
X106921031Y-47491056D01*
X106969006Y-47440261D01*
X107036827Y-47423466D01*
X107078968Y-47432791D01*
X107219636Y-47491057D01*
X107221087Y-47491658D01*
X107221091Y-47491658D01*
X107221092Y-47491659D01*
X107366079Y-47520500D01*
X107366082Y-47520500D01*
X107503771Y-47520500D01*
X107513918Y-47520500D01*
X107658913Y-47491658D01*
X107795495Y-47435084D01*
X107918416Y-47352951D01*
X108022951Y-47248416D01*
X108105084Y-47125495D01*
X108106292Y-47122580D01*
X108125965Y-47075084D01*
X108161658Y-46988913D01*
X108180436Y-46894511D01*
X108190500Y-46843920D01*
X108190500Y-46696079D01*
X108161659Y-46551092D01*
X108161658Y-46551091D01*
X108161658Y-46551087D01*
X108160529Y-46548361D01*
X108105087Y-46414511D01*
X108105080Y-46414498D01*
X108022951Y-46291584D01*
X108022948Y-46291580D01*
X108005575Y-46274207D01*
X107972090Y-46212884D01*
X107977074Y-46143192D01*
X107990151Y-46117638D01*
X108065084Y-46005495D01*
X108121658Y-45868913D01*
X108132881Y-45812492D01*
X108148511Y-45733920D01*
X114429499Y-45733920D01*
X114458340Y-45878907D01*
X114458342Y-45878913D01*
X114514914Y-46015491D01*
X114514921Y-46015503D01*
X114546615Y-46062938D01*
X114567492Y-46129615D01*
X114565130Y-46156017D01*
X114549500Y-46234596D01*
X114549500Y-46382432D01*
X114549500Y-46382434D01*
X114549499Y-46382434D01*
X114578340Y-46527421D01*
X114578343Y-46527431D01*
X114634912Y-46664002D01*
X114634919Y-46664015D01*
X114717048Y-46786929D01*
X114717051Y-46786933D01*
X114821580Y-46891462D01*
X114821584Y-46891465D01*
X114944498Y-46973594D01*
X114944511Y-46973601D01*
X115071785Y-47026319D01*
X115081087Y-47030172D01*
X115081091Y-47030172D01*
X115081092Y-47030173D01*
X115226079Y-47059014D01*
X115226082Y-47059014D01*
X115373919Y-47059014D01*
X115404592Y-47052912D01*
X115502880Y-47033361D01*
X115572470Y-47039588D01*
X115627648Y-47082450D01*
X115650893Y-47148340D01*
X115641632Y-47202430D01*
X115588343Y-47331082D01*
X115588340Y-47331092D01*
X115559500Y-47476079D01*
X115559500Y-47476082D01*
X115559500Y-47623918D01*
X115559500Y-47623920D01*
X115559499Y-47623920D01*
X115588340Y-47768907D01*
X115588343Y-47768917D01*
X115644912Y-47905488D01*
X115644919Y-47905501D01*
X115727048Y-48028415D01*
X115727051Y-48028419D01*
X115831580Y-48132948D01*
X115831584Y-48132951D01*
X115954498Y-48215080D01*
X115954511Y-48215087D01*
X116057302Y-48257664D01*
X116091087Y-48271658D01*
X116091091Y-48271658D01*
X116091092Y-48271659D01*
X116236079Y-48300500D01*
X116236082Y-48300500D01*
X116383920Y-48300500D01*
X116500358Y-48277338D01*
X116528913Y-48271658D01*
X116634547Y-48227902D01*
X116665488Y-48215087D01*
X116665488Y-48215086D01*
X116665495Y-48215084D01*
X116788416Y-48132951D01*
X116892951Y-48028416D01*
X116956171Y-47933800D01*
X117009781Y-47888996D01*
X117079106Y-47880287D01*
X117132157Y-47902373D01*
X117184908Y-47940698D01*
X117230739Y-47973996D01*
X117302808Y-48010717D01*
X117392093Y-48056211D01*
X117392096Y-48056212D01*
X117422871Y-48066211D01*
X117564324Y-48112171D01*
X117645829Y-48125080D01*
X117743182Y-48140500D01*
X117743187Y-48140500D01*
X117924284Y-48140500D01*
X118021637Y-48125080D01*
X118103142Y-48112171D01*
X118275372Y-48056211D01*
X118436727Y-47973996D01*
X118583234Y-47867553D01*
X118711286Y-47739501D01*
X118817729Y-47592994D01*
X118899944Y-47431639D01*
X118955904Y-47259409D01*
X118976138Y-47131656D01*
X118984233Y-47080551D01*
X118984233Y-46899448D01*
X118960808Y-46751554D01*
X118955904Y-46720591D01*
X118924952Y-46625330D01*
X118899945Y-46548363D01*
X118899944Y-46548360D01*
X118850119Y-46450575D01*
X118817729Y-46387006D01*
X118775988Y-46329554D01*
X118711291Y-46240505D01*
X118711287Y-46240500D01*
X118583232Y-46112445D01*
X118583227Y-46112441D01*
X118436730Y-46006006D01*
X118436729Y-46006005D01*
X118436727Y-46006004D01*
X118353095Y-45963391D01*
X118275372Y-45923788D01*
X118275369Y-45923787D01*
X118103143Y-45867829D01*
X118088318Y-45865481D01*
X118088317Y-45865480D01*
X117924284Y-45839500D01*
X117924279Y-45839500D01*
X117743187Y-45839500D01*
X117743182Y-45839500D01*
X117564322Y-45867829D01*
X117392096Y-45923787D01*
X117392093Y-45923788D01*
X117230735Y-46006006D01*
X117084238Y-46112441D01*
X117084233Y-46112445D01*
X116956178Y-46240500D01*
X116956174Y-46240505D01*
X116849739Y-46387002D01*
X116767521Y-46548360D01*
X116767520Y-46548363D01*
X116711562Y-46720587D01*
X116708907Y-46737352D01*
X116678975Y-46800486D01*
X116619663Y-46837416D01*
X116549800Y-46836416D01*
X116538984Y-46832513D01*
X116528917Y-46828343D01*
X116528907Y-46828340D01*
X116383920Y-46799500D01*
X116383918Y-46799500D01*
X116236082Y-46799500D01*
X116236080Y-46799500D01*
X116107120Y-46825152D01*
X116037528Y-46818925D01*
X115982351Y-46776062D01*
X115959106Y-46710172D01*
X115968367Y-46656082D01*
X116021658Y-46527427D01*
X116044225Y-46413978D01*
X116050500Y-46382434D01*
X116050500Y-46234593D01*
X116021659Y-46089606D01*
X116021658Y-46089605D01*
X116021658Y-46089601D01*
X115965084Y-45953019D01*
X115933383Y-45905575D01*
X115912506Y-45838900D01*
X115914868Y-45812502D01*
X115930500Y-45733918D01*
X115930500Y-45586082D01*
X115930500Y-45586079D01*
X115901659Y-45441092D01*
X115901658Y-45441087D01*
X115901317Y-45440264D01*
X115901266Y-45439797D01*
X115899891Y-45435263D01*
X115900751Y-45435002D01*
X115893845Y-45370794D01*
X115912774Y-45323917D01*
X115925084Y-45305495D01*
X115981658Y-45168913D01*
X116002543Y-45063920D01*
X116010500Y-45023920D01*
X116010500Y-44876079D01*
X115981659Y-44731092D01*
X115981658Y-44731091D01*
X115981658Y-44731087D01*
X115979181Y-44725106D01*
X115925087Y-44594511D01*
X115925080Y-44594498D01*
X115842951Y-44471584D01*
X115842948Y-44471580D01*
X115738419Y-44367051D01*
X115738415Y-44367048D01*
X115615501Y-44284919D01*
X115615488Y-44284912D01*
X115478917Y-44228343D01*
X115478907Y-44228340D01*
X115333920Y-44199500D01*
X115333918Y-44199500D01*
X115186082Y-44199500D01*
X115186080Y-44199500D01*
X115041092Y-44228340D01*
X115041082Y-44228343D01*
X114904511Y-44284912D01*
X114904498Y-44284919D01*
X114781584Y-44367048D01*
X114781580Y-44367051D01*
X114677051Y-44471580D01*
X114677048Y-44471584D01*
X114594919Y-44594498D01*
X114594912Y-44594511D01*
X114538343Y-44731082D01*
X114538340Y-44731092D01*
X114509500Y-44876079D01*
X114509500Y-44876082D01*
X114509500Y-45023918D01*
X114509500Y-45023920D01*
X114509499Y-45023920D01*
X114538340Y-45168907D01*
X114538341Y-45168909D01*
X114538342Y-45168913D01*
X114538684Y-45169739D01*
X114538734Y-45170205D01*
X114540110Y-45174740D01*
X114539249Y-45175000D01*
X114546153Y-45239206D01*
X114527227Y-45286079D01*
X114514914Y-45304506D01*
X114458343Y-45441082D01*
X114458340Y-45441092D01*
X114429500Y-45586079D01*
X114429500Y-45586082D01*
X114429500Y-45733918D01*
X114429500Y-45733920D01*
X114429499Y-45733920D01*
X108148511Y-45733920D01*
X108150500Y-45723920D01*
X108150500Y-45576079D01*
X108121659Y-45431092D01*
X108121658Y-45431091D01*
X108121658Y-45431087D01*
X108120958Y-45429397D01*
X108065087Y-45294511D01*
X108065080Y-45294498D01*
X107982951Y-45171584D01*
X107982948Y-45171580D01*
X107878419Y-45067051D01*
X107878415Y-45067048D01*
X107755501Y-44984919D01*
X107755488Y-44984912D01*
X107618917Y-44928343D01*
X107618910Y-44928341D01*
X107602561Y-44925089D01*
X107575370Y-44910865D01*
X107547240Y-44898621D01*
X107543052Y-44893959D01*
X107540651Y-44892703D01*
X107523654Y-44872365D01*
X107514833Y-44859164D01*
X107493954Y-44792487D01*
X107512437Y-44725106D01*
X107564415Y-44678415D01*
X107593738Y-44668654D01*
X107628913Y-44661658D01*
X107746901Y-44612786D01*
X107765488Y-44605087D01*
X107765488Y-44605086D01*
X107765495Y-44605084D01*
X107888416Y-44522951D01*
X107992951Y-44418416D01*
X108075084Y-44295495D01*
X108131658Y-44158913D01*
X108144291Y-44095405D01*
X108160500Y-44013920D01*
X108160500Y-43866079D01*
X108131659Y-43721092D01*
X108131658Y-43721091D01*
X108131658Y-43721087D01*
X108128689Y-43713920D01*
X110579499Y-43713920D01*
X110608340Y-43858907D01*
X110608343Y-43858917D01*
X110664912Y-43995488D01*
X110664919Y-43995501D01*
X110747048Y-44118415D01*
X110747051Y-44118419D01*
X110851580Y-44222948D01*
X110851584Y-44222951D01*
X110974498Y-44305080D01*
X110974511Y-44305087D01*
X111039814Y-44332136D01*
X111111087Y-44361658D01*
X111111091Y-44361658D01*
X111111092Y-44361659D01*
X111256079Y-44390500D01*
X111256082Y-44390500D01*
X111403920Y-44390500D01*
X111529593Y-44365501D01*
X111548913Y-44361658D01*
X111654547Y-44317902D01*
X111685488Y-44305087D01*
X111685488Y-44305086D01*
X111685495Y-44305084D01*
X111726103Y-44277951D01*
X111808413Y-44222953D01*
X111808416Y-44222951D01*
X111813022Y-44218344D01*
X111874341Y-44184857D01*
X111924896Y-44184405D01*
X111974958Y-44194363D01*
X112056080Y-44210500D01*
X112056082Y-44210500D01*
X112203920Y-44210500D01*
X112328271Y-44185764D01*
X112348913Y-44181658D01*
X112485495Y-44125084D01*
X112608416Y-44042951D01*
X112657818Y-43993549D01*
X112719141Y-43960063D01*
X112788832Y-43965047D01*
X112844766Y-44006918D01*
X112860060Y-44033773D01*
X112864914Y-44045492D01*
X112864919Y-44045501D01*
X112947048Y-44168415D01*
X112947051Y-44168419D01*
X113051580Y-44272948D01*
X113051584Y-44272951D01*
X113174498Y-44355080D01*
X113174511Y-44355087D01*
X113311082Y-44411656D01*
X113311087Y-44411658D01*
X113311091Y-44411658D01*
X113311092Y-44411659D01*
X113456079Y-44440500D01*
X113456082Y-44440500D01*
X113603920Y-44440500D01*
X113714944Y-44418415D01*
X113748913Y-44411658D01*
X113860375Y-44365489D01*
X113885488Y-44355087D01*
X113885488Y-44355086D01*
X113885495Y-44355084D01*
X114008416Y-44272951D01*
X114112951Y-44168416D01*
X114169409Y-44083920D01*
X121039499Y-44083920D01*
X121068340Y-44228907D01*
X121068343Y-44228917D01*
X121124912Y-44365488D01*
X121124919Y-44365501D01*
X121207048Y-44488415D01*
X121207051Y-44488419D01*
X121311580Y-44592948D01*
X121311584Y-44592951D01*
X121434498Y-44675080D01*
X121434511Y-44675087D01*
X121571082Y-44731656D01*
X121571087Y-44731658D01*
X121571091Y-44731658D01*
X121571092Y-44731659D01*
X121716079Y-44760500D01*
X121716082Y-44760500D01*
X121863920Y-44760500D01*
X121971968Y-44739007D01*
X122008913Y-44731658D01*
X122114547Y-44687902D01*
X122145488Y-44675087D01*
X122145488Y-44675086D01*
X122145495Y-44675084D01*
X122268416Y-44592951D01*
X122372951Y-44488416D01*
X122444121Y-44381902D01*
X128179500Y-44381902D01*
X128179500Y-44618097D01*
X128216446Y-44851368D01*
X128289433Y-45075996D01*
X128379313Y-45252394D01*
X128396657Y-45286433D01*
X128535483Y-45477510D01*
X128702490Y-45644517D01*
X128758739Y-45685384D01*
X128801403Y-45740713D01*
X128806095Y-45772542D01*
X129550591Y-46517037D01*
X129487007Y-46534075D01*
X129372993Y-46599901D01*
X129279901Y-46692993D01*
X129214075Y-46807007D01*
X129197037Y-46870591D01*
X128457340Y-46130894D01*
X128397084Y-46213830D01*
X128289897Y-46424197D01*
X128216934Y-46648752D01*
X128180000Y-46881947D01*
X128180000Y-47118052D01*
X128216934Y-47351247D01*
X128289897Y-47575802D01*
X128397087Y-47786174D01*
X128466605Y-47881858D01*
X128490085Y-47947664D01*
X128474260Y-48015718D01*
X128440599Y-48054009D01*
X128322452Y-48142455D01*
X128236206Y-48257664D01*
X128236202Y-48257671D01*
X128185908Y-48392517D01*
X128183506Y-48414865D01*
X128179501Y-48452123D01*
X128179500Y-48452135D01*
X128179500Y-50547870D01*
X128179501Y-50547876D01*
X128185908Y-50607483D01*
X128236202Y-50742328D01*
X128236206Y-50742335D01*
X128322452Y-50857544D01*
X128322455Y-50857547D01*
X128437664Y-50943793D01*
X128437671Y-50943797D01*
X128572517Y-50994091D01*
X128572516Y-50994091D01*
X128579444Y-50994835D01*
X128632127Y-51000500D01*
X130727872Y-51000499D01*
X130787483Y-50994091D01*
X130922331Y-50943796D01*
X131037546Y-50857546D01*
X131123796Y-50742331D01*
X131174091Y-50607483D01*
X131180500Y-50547873D01*
X131180499Y-48452128D01*
X131174091Y-48392517D01*
X131170884Y-48383918D01*
X131164922Y-48367931D01*
X131123797Y-48257671D01*
X131123793Y-48257664D01*
X131037547Y-48142455D01*
X131034935Y-48140500D01*
X130994056Y-48109897D01*
X130919400Y-48054009D01*
X130877530Y-47998075D01*
X130872546Y-47928383D01*
X130893394Y-47881857D01*
X130962914Y-47786171D01*
X131070102Y-47575802D01*
X131143065Y-47351247D01*
X131180000Y-47118052D01*
X131180000Y-46881947D01*
X131150219Y-46693920D01*
X138319499Y-46693920D01*
X138348340Y-46838907D01*
X138348343Y-46838917D01*
X138404912Y-46975488D01*
X138404919Y-46975501D01*
X138487048Y-47098415D01*
X138487051Y-47098419D01*
X138591580Y-47202948D01*
X138591584Y-47202951D01*
X138714498Y-47285080D01*
X138714511Y-47285087D01*
X138825554Y-47331082D01*
X138851087Y-47341658D01*
X138851091Y-47341658D01*
X138851092Y-47341659D01*
X138996079Y-47370500D01*
X138996082Y-47370500D01*
X139143920Y-47370500D01*
X139241462Y-47351096D01*
X139288913Y-47341658D01*
X139425495Y-47285084D01*
X139548416Y-47202951D01*
X139652951Y-47098416D01*
X139735084Y-46975495D01*
X139735872Y-46973594D01*
X139766581Y-46899454D01*
X139791658Y-46838913D01*
X139806262Y-46765495D01*
X139820500Y-46693920D01*
X139820500Y-46546079D01*
X139791659Y-46401092D01*
X139791658Y-46401091D01*
X139791658Y-46401087D01*
X139787008Y-46389860D01*
X139735087Y-46264511D01*
X139735080Y-46264498D01*
X139652951Y-46141584D01*
X139652948Y-46141580D01*
X139548419Y-46037051D01*
X139548415Y-46037048D01*
X139425501Y-45954919D01*
X139425488Y-45954912D01*
X139288917Y-45898343D01*
X139288907Y-45898340D01*
X139143920Y-45869500D01*
X139143918Y-45869500D01*
X138996082Y-45869500D01*
X138996080Y-45869500D01*
X138851092Y-45898340D01*
X138851082Y-45898343D01*
X138714511Y-45954912D01*
X138714498Y-45954919D01*
X138591584Y-46037048D01*
X138591580Y-46037051D01*
X138487051Y-46141580D01*
X138487048Y-46141584D01*
X138404919Y-46264498D01*
X138404912Y-46264511D01*
X138348343Y-46401082D01*
X138348340Y-46401092D01*
X138319500Y-46546079D01*
X138319500Y-46546082D01*
X138319500Y-46693918D01*
X138319500Y-46693920D01*
X138319499Y-46693920D01*
X131150219Y-46693920D01*
X131143065Y-46648751D01*
X131120177Y-46578308D01*
X131070101Y-46424195D01*
X130962914Y-46213828D01*
X130902658Y-46130894D01*
X130902658Y-46130893D01*
X130162962Y-46870589D01*
X130145925Y-46807007D01*
X130080099Y-46692993D01*
X129987007Y-46599901D01*
X129872993Y-46534075D01*
X129809409Y-46517037D01*
X130555716Y-45770729D01*
X130564891Y-45727054D01*
X130601257Y-45685386D01*
X130657510Y-45644517D01*
X130824517Y-45477510D01*
X130963343Y-45286433D01*
X131070568Y-45075992D01*
X131143553Y-44851368D01*
X131154606Y-44781580D01*
X131180500Y-44618097D01*
X131180500Y-44381903D01*
X131162513Y-44268340D01*
X131146097Y-44164696D01*
X131155051Y-44095405D01*
X131200047Y-44041953D01*
X131266799Y-44021313D01*
X131334113Y-44040038D01*
X131356251Y-44057619D01*
X131371580Y-44072948D01*
X131371584Y-44072951D01*
X131494498Y-44155080D01*
X131494511Y-44155087D01*
X131601735Y-44199500D01*
X131631087Y-44211658D01*
X131631091Y-44211658D01*
X131631092Y-44211659D01*
X131776079Y-44240500D01*
X131776082Y-44240500D01*
X131923920Y-44240500D01*
X132035291Y-44218346D01*
X132068913Y-44211658D01*
X132196251Y-44158913D01*
X132205488Y-44155087D01*
X132205488Y-44155086D01*
X132205495Y-44155084D01*
X132328416Y-44072951D01*
X132432951Y-43968416D01*
X132515084Y-43845495D01*
X132571658Y-43708913D01*
X132581096Y-43661462D01*
X132600500Y-43563920D01*
X132600500Y-43416079D01*
X132571659Y-43271092D01*
X132571658Y-43271091D01*
X132571658Y-43271087D01*
X132566859Y-43259500D01*
X132515087Y-43134511D01*
X132515080Y-43134498D01*
X132432951Y-43011584D01*
X132432948Y-43011580D01*
X132328419Y-42907051D01*
X132328415Y-42907048D01*
X132205501Y-42824919D01*
X132205488Y-42824912D01*
X132068917Y-42768343D01*
X132068907Y-42768340D01*
X131923920Y-42739500D01*
X131923918Y-42739500D01*
X131803169Y-42739500D01*
X131736130Y-42719815D01*
X131690375Y-42667011D01*
X131680431Y-42597853D01*
X131709456Y-42534297D01*
X131734278Y-42512398D01*
X131748416Y-42502951D01*
X131852948Y-42398419D01*
X131852951Y-42398416D01*
X131935084Y-42275495D01*
X131943539Y-42255084D01*
X131965134Y-42202948D01*
X131991658Y-42138913D01*
X132001096Y-42091462D01*
X132020500Y-41993920D01*
X132020500Y-41846079D01*
X131991659Y-41701092D01*
X131991658Y-41701091D01*
X131991658Y-41701087D01*
X131987348Y-41690681D01*
X131935087Y-41564511D01*
X131935080Y-41564498D01*
X131852951Y-41441584D01*
X131852948Y-41441580D01*
X131748419Y-41337051D01*
X131748415Y-41337048D01*
X131625501Y-41254919D01*
X131625488Y-41254912D01*
X131488917Y-41198343D01*
X131488907Y-41198340D01*
X131343920Y-41169500D01*
X131343918Y-41169500D01*
X131196082Y-41169500D01*
X131196080Y-41169500D01*
X131051092Y-41198340D01*
X131051082Y-41198343D01*
X130914511Y-41254912D01*
X130914498Y-41254919D01*
X130791584Y-41337048D01*
X130791580Y-41337051D01*
X130687051Y-41441580D01*
X130687048Y-41441584D01*
X130604919Y-41564498D01*
X130604912Y-41564511D01*
X130548343Y-41701082D01*
X130548340Y-41701092D01*
X130519500Y-41846079D01*
X130519500Y-41846082D01*
X130519500Y-41993918D01*
X130519500Y-41993920D01*
X130519499Y-41993920D01*
X130548340Y-42138907D01*
X130548343Y-42138917D01*
X130604912Y-42275488D01*
X130604919Y-42275501D01*
X130687048Y-42398415D01*
X130687051Y-42398419D01*
X130791580Y-42502948D01*
X130791584Y-42502951D01*
X130914498Y-42585080D01*
X130914511Y-42585087D01*
X131048301Y-42640504D01*
X131051087Y-42641658D01*
X131051091Y-42641658D01*
X131051092Y-42641659D01*
X131196079Y-42670500D01*
X131316831Y-42670500D01*
X131383870Y-42690185D01*
X131429625Y-42742989D01*
X131439569Y-42812147D01*
X131410544Y-42875703D01*
X131385722Y-42897602D01*
X131371583Y-42907048D01*
X131267051Y-43011580D01*
X131267048Y-43011584D01*
X131184919Y-43134498D01*
X131184912Y-43134511D01*
X131128343Y-43271082D01*
X131128340Y-43271092D01*
X131099500Y-43416079D01*
X131099500Y-43519338D01*
X131079815Y-43586377D01*
X131027011Y-43632132D01*
X130957853Y-43642076D01*
X130894297Y-43613051D01*
X130875183Y-43592224D01*
X130824521Y-43522496D01*
X130824517Y-43522490D01*
X130657510Y-43355483D01*
X130466433Y-43216657D01*
X130430494Y-43198345D01*
X130255996Y-43109433D01*
X130031368Y-43036446D01*
X129798097Y-42999500D01*
X129798092Y-42999500D01*
X129561908Y-42999500D01*
X129561903Y-42999500D01*
X129328631Y-43036446D01*
X129104003Y-43109433D01*
X128893566Y-43216657D01*
X128800174Y-43284511D01*
X128702490Y-43355483D01*
X128702488Y-43355485D01*
X128702487Y-43355485D01*
X128535485Y-43522487D01*
X128535485Y-43522488D01*
X128535483Y-43522490D01*
X128490426Y-43584505D01*
X128396657Y-43713566D01*
X128289433Y-43924003D01*
X128216446Y-44148631D01*
X128179500Y-44381902D01*
X122444121Y-44381902D01*
X122455084Y-44365495D01*
X122455085Y-44365492D01*
X122455087Y-44365489D01*
X122469959Y-44329584D01*
X122469959Y-44329583D01*
X122477724Y-44310836D01*
X122511658Y-44228913D01*
X122524634Y-44163680D01*
X122540500Y-44083920D01*
X122540500Y-43936079D01*
X122511659Y-43791092D01*
X122511658Y-43791091D01*
X122511658Y-43791087D01*
X122496050Y-43753405D01*
X122455087Y-43654511D01*
X122455080Y-43654498D01*
X122372951Y-43531584D01*
X122372948Y-43531580D01*
X122268419Y-43427051D01*
X122268415Y-43427048D01*
X122145501Y-43344919D01*
X122145488Y-43344912D01*
X122008917Y-43288343D01*
X122008907Y-43288340D01*
X121863920Y-43259500D01*
X121863918Y-43259500D01*
X121716082Y-43259500D01*
X121716080Y-43259500D01*
X121571092Y-43288340D01*
X121571082Y-43288343D01*
X121434511Y-43344912D01*
X121434498Y-43344919D01*
X121311584Y-43427048D01*
X121311580Y-43427051D01*
X121207051Y-43531580D01*
X121207048Y-43531584D01*
X121124919Y-43654498D01*
X121124912Y-43654511D01*
X121068343Y-43791082D01*
X121068340Y-43791092D01*
X121039500Y-43936079D01*
X121039500Y-43936082D01*
X121039500Y-44083918D01*
X121039500Y-44083920D01*
X121039499Y-44083920D01*
X114169409Y-44083920D01*
X114195084Y-44045495D01*
X114199749Y-44034234D01*
X114215795Y-43995495D01*
X114251658Y-43908913D01*
X114275097Y-43791082D01*
X114280500Y-43763920D01*
X114280500Y-43616079D01*
X114251659Y-43471092D01*
X114251658Y-43471091D01*
X114251658Y-43471087D01*
X114233417Y-43427049D01*
X114195087Y-43334511D01*
X114195080Y-43334498D01*
X114147921Y-43263920D01*
X115314499Y-43263920D01*
X115343340Y-43408907D01*
X115343343Y-43408917D01*
X115399912Y-43545488D01*
X115399919Y-43545501D01*
X115482048Y-43668415D01*
X115482051Y-43668419D01*
X115586580Y-43772948D01*
X115586584Y-43772951D01*
X115709498Y-43855080D01*
X115709511Y-43855087D01*
X115846082Y-43911656D01*
X115846087Y-43911658D01*
X115846091Y-43911658D01*
X115846092Y-43911659D01*
X115991079Y-43940500D01*
X115991082Y-43940500D01*
X116138920Y-43940500D01*
X116236462Y-43921096D01*
X116283913Y-43911658D01*
X116411251Y-43858913D01*
X116420488Y-43855087D01*
X116420488Y-43855086D01*
X116420495Y-43855084D01*
X116434846Y-43845495D01*
X116462694Y-43826888D01*
X116516281Y-43791082D01*
X116543416Y-43772951D01*
X116647951Y-43668416D01*
X116730084Y-43545495D01*
X116739611Y-43522496D01*
X116744004Y-43511888D01*
X116786658Y-43408913D01*
X116800463Y-43339511D01*
X116815500Y-43263920D01*
X116815500Y-43116079D01*
X116786659Y-42971092D01*
X116786658Y-42971091D01*
X116786658Y-42971087D01*
X116764811Y-42918343D01*
X116730087Y-42834511D01*
X116730080Y-42834498D01*
X116647951Y-42711584D01*
X116647948Y-42711580D01*
X116543419Y-42607051D01*
X116543415Y-42607048D01*
X116420501Y-42524919D01*
X116420488Y-42524912D01*
X116283917Y-42468343D01*
X116283907Y-42468340D01*
X116138920Y-42439500D01*
X116138918Y-42439500D01*
X115991082Y-42439500D01*
X115991080Y-42439500D01*
X115846092Y-42468340D01*
X115846082Y-42468343D01*
X115709511Y-42524912D01*
X115709498Y-42524919D01*
X115586584Y-42607048D01*
X115586580Y-42607051D01*
X115482051Y-42711580D01*
X115482048Y-42711584D01*
X115399919Y-42834498D01*
X115399912Y-42834511D01*
X115343343Y-42971082D01*
X115343340Y-42971092D01*
X115314500Y-43116079D01*
X115314500Y-43116082D01*
X115314500Y-43263918D01*
X115314500Y-43263920D01*
X115314499Y-43263920D01*
X114147921Y-43263920D01*
X114112951Y-43211584D01*
X114112948Y-43211580D01*
X114099713Y-43198345D01*
X114099678Y-43198311D01*
X114008416Y-43107049D01*
X113999696Y-43101222D01*
X113991591Y-43093352D01*
X113979729Y-43072367D01*
X113964275Y-43053871D01*
X113958068Y-43034046D01*
X113957210Y-43032527D01*
X113957268Y-43031491D01*
X113956359Y-43028585D01*
X113931820Y-42905224D01*
X113931819Y-42905223D01*
X113931819Y-42905219D01*
X113920151Y-42877049D01*
X113875248Y-42768643D01*
X113875241Y-42768630D01*
X113793112Y-42645716D01*
X113793109Y-42645712D01*
X113688580Y-42541183D01*
X113688576Y-42541180D01*
X113565662Y-42459051D01*
X113565649Y-42459044D01*
X113429078Y-42402475D01*
X113429068Y-42402472D01*
X113284081Y-42373632D01*
X113284079Y-42373632D01*
X113136243Y-42373632D01*
X113136241Y-42373632D01*
X112991253Y-42402472D01*
X112991243Y-42402475D01*
X112854672Y-42459044D01*
X112854659Y-42459051D01*
X112731745Y-42541180D01*
X112731741Y-42541183D01*
X112627212Y-42645712D01*
X112627209Y-42645716D01*
X112574945Y-42723935D01*
X112521333Y-42768740D01*
X112452008Y-42777447D01*
X112424391Y-42769605D01*
X112348917Y-42738343D01*
X112348907Y-42738340D01*
X112203920Y-42709500D01*
X112203918Y-42709500D01*
X112056082Y-42709500D01*
X112056080Y-42709500D01*
X111911092Y-42738340D01*
X111911082Y-42738343D01*
X111774511Y-42794912D01*
X111774498Y-42794919D01*
X111651587Y-42877046D01*
X111651580Y-42877052D01*
X111646969Y-42881663D01*
X111585644Y-42915145D01*
X111535101Y-42915594D01*
X111403920Y-42889500D01*
X111403918Y-42889500D01*
X111256082Y-42889500D01*
X111256080Y-42889500D01*
X111111092Y-42918340D01*
X111111082Y-42918343D01*
X110974511Y-42974912D01*
X110974498Y-42974919D01*
X110851584Y-43057048D01*
X110851580Y-43057051D01*
X110747051Y-43161580D01*
X110747048Y-43161584D01*
X110664919Y-43284498D01*
X110664912Y-43284511D01*
X110608343Y-43421082D01*
X110608340Y-43421092D01*
X110579500Y-43566079D01*
X110579500Y-43566082D01*
X110579500Y-43713918D01*
X110579500Y-43713920D01*
X110579499Y-43713920D01*
X108128689Y-43713920D01*
X108075084Y-43584505D01*
X108075080Y-43584498D01*
X107992951Y-43461584D01*
X107992948Y-43461580D01*
X107888419Y-43357051D01*
X107888415Y-43357048D01*
X107765501Y-43274919D01*
X107765488Y-43274912D01*
X107628917Y-43218343D01*
X107628907Y-43218340D01*
X107483920Y-43189500D01*
X107483918Y-43189500D01*
X107336082Y-43189500D01*
X107336080Y-43189500D01*
X107191092Y-43218340D01*
X107191082Y-43218343D01*
X107054511Y-43274912D01*
X107054498Y-43274919D01*
X106931584Y-43357048D01*
X106931580Y-43357051D01*
X106827051Y-43461580D01*
X106827048Y-43461584D01*
X106744919Y-43584498D01*
X106744912Y-43584511D01*
X106688343Y-43721082D01*
X106688340Y-43721092D01*
X106659500Y-43866079D01*
X106659500Y-43866082D01*
X106659500Y-44013918D01*
X106659500Y-44013920D01*
X106659499Y-44013920D01*
X106688340Y-44158907D01*
X106688343Y-44158917D01*
X106744912Y-44295488D01*
X106744920Y-44295502D01*
X106755166Y-44310836D01*
X106776045Y-44377513D01*
X106757561Y-44444893D01*
X106705583Y-44491584D01*
X106676259Y-44501345D01*
X106641089Y-44508341D01*
X106641082Y-44508343D01*
X106504511Y-44564912D01*
X106504500Y-44564918D01*
X106436440Y-44610394D01*
X106369762Y-44631271D01*
X106302382Y-44612786D01*
X106298661Y-44610394D01*
X106275495Y-44594915D01*
X106275493Y-44594914D01*
X106138917Y-44538343D01*
X106138907Y-44538340D01*
X105993920Y-44509500D01*
X105993918Y-44509500D01*
X105846082Y-44509500D01*
X105846080Y-44509500D01*
X105701092Y-44538340D01*
X105701082Y-44538343D01*
X105564511Y-44594912D01*
X105564498Y-44594919D01*
X105441584Y-44677048D01*
X105441580Y-44677051D01*
X105337051Y-44781580D01*
X105337048Y-44781584D01*
X105254919Y-44904498D01*
X105254912Y-44904511D01*
X105198343Y-45041082D01*
X105198340Y-45041092D01*
X105169500Y-45186079D01*
X105169500Y-45186082D01*
X105169500Y-45333918D01*
X105169500Y-45333920D01*
X105169499Y-45333920D01*
X105198340Y-45478907D01*
X105198343Y-45478917D01*
X105254912Y-45615488D01*
X105254919Y-45615501D01*
X105337048Y-45738415D01*
X105337051Y-45738419D01*
X105379989Y-45781357D01*
X105413474Y-45842680D01*
X105408490Y-45912372D01*
X105366618Y-45968305D01*
X105348604Y-45979522D01*
X105277004Y-46016004D01*
X105130505Y-46122441D01*
X105130500Y-46122445D01*
X105002445Y-46250500D01*
X105002441Y-46250505D01*
X104896004Y-46397004D01*
X104821761Y-46542713D01*
X104773787Y-46593508D01*
X104705966Y-46610303D01*
X104642391Y-46589522D01*
X104635506Y-46584922D01*
X104635488Y-46584912D01*
X104498917Y-46528343D01*
X104498907Y-46528340D01*
X104353920Y-46499500D01*
X104353918Y-46499500D01*
X104206082Y-46499500D01*
X104206080Y-46499500D01*
X104061092Y-46528340D01*
X104061082Y-46528343D01*
X103924511Y-46584912D01*
X103924498Y-46584919D01*
X103801584Y-46667048D01*
X103801580Y-46667051D01*
X103697051Y-46771580D01*
X103697048Y-46771584D01*
X103614919Y-46894498D01*
X103614912Y-46894511D01*
X103558343Y-47031082D01*
X103558340Y-47031092D01*
X103529500Y-47176079D01*
X103529500Y-47176082D01*
X103529500Y-47323918D01*
X103529500Y-47323920D01*
X103529499Y-47323920D01*
X102368640Y-47323920D01*
X102396076Y-47150704D01*
X102396093Y-47150593D01*
X102400000Y-47125923D01*
X102400000Y-46874071D01*
X102360602Y-46625330D01*
X102282780Y-46385815D01*
X102168442Y-46161416D01*
X102094250Y-46059301D01*
X102094250Y-46059300D01*
X101401041Y-46752510D01*
X101376022Y-46692110D01*
X101304888Y-46585649D01*
X101214351Y-46495112D01*
X101107890Y-46423978D01*
X101047487Y-46398957D01*
X101740698Y-45705748D01*
X101638583Y-45631557D01*
X101414184Y-45517219D01*
X101174669Y-45439397D01*
X100925928Y-45400000D01*
X100674072Y-45400000D01*
X100425330Y-45439397D01*
X100185815Y-45517219D01*
X99961413Y-45631559D01*
X99859301Y-45705747D01*
X99859300Y-45705748D01*
X100552511Y-46398958D01*
X100492110Y-46423978D01*
X100385649Y-46495112D01*
X100295112Y-46585649D01*
X100223978Y-46692110D01*
X100198958Y-46752511D01*
X99505748Y-46059300D01*
X99505747Y-46059301D01*
X99431559Y-46161413D01*
X99317219Y-46385815D01*
X99239397Y-46625330D01*
X99200000Y-46874071D01*
X99200000Y-47125928D01*
X99239397Y-47374669D01*
X99317219Y-47614184D01*
X99415426Y-47806924D01*
X99428322Y-47875593D01*
X99402046Y-47940334D01*
X99344940Y-47980591D01*
X99280752Y-47984837D01*
X99253919Y-47979500D01*
X99253918Y-47979500D01*
X99106082Y-47979500D01*
X99106080Y-47979500D01*
X98961092Y-48008340D01*
X98961082Y-48008343D01*
X98824511Y-48064912D01*
X98824498Y-48064919D01*
X98701584Y-48147048D01*
X98701580Y-48147051D01*
X98597051Y-48251580D01*
X98597048Y-48251584D01*
X98514919Y-48374498D01*
X98514912Y-48374511D01*
X98458343Y-48511082D01*
X98458340Y-48511092D01*
X98429500Y-48656079D01*
X98429500Y-48656080D01*
X98429500Y-48656082D01*
X98429500Y-48803918D01*
X98429500Y-48803920D01*
X98429499Y-48803920D01*
X91560500Y-48803920D01*
X91560500Y-45681816D01*
X95737737Y-45681816D01*
X95766578Y-45826803D01*
X95766581Y-45826813D01*
X95823150Y-45963384D01*
X95823157Y-45963397D01*
X95905286Y-46086311D01*
X95905289Y-46086315D01*
X96009818Y-46190844D01*
X96009822Y-46190847D01*
X96132736Y-46272976D01*
X96132749Y-46272983D01*
X96269320Y-46329552D01*
X96269325Y-46329554D01*
X96409691Y-46357475D01*
X96471602Y-46389860D01*
X96506176Y-46450575D01*
X96509500Y-46479092D01*
X96509500Y-46483918D01*
X96509500Y-46483920D01*
X96509499Y-46483920D01*
X96538340Y-46628907D01*
X96538343Y-46628917D01*
X96594912Y-46765488D01*
X96594919Y-46765501D01*
X96677048Y-46888415D01*
X96677051Y-46888419D01*
X96781580Y-46992948D01*
X96781584Y-46992951D01*
X96904498Y-47075080D01*
X96904511Y-47075087D01*
X97041082Y-47131656D01*
X97041087Y-47131658D01*
X97041091Y-47131658D01*
X97041092Y-47131659D01*
X97186079Y-47160500D01*
X97186082Y-47160500D01*
X97333920Y-47160500D01*
X97431462Y-47141096D01*
X97478913Y-47131658D01*
X97597712Y-47082450D01*
X97615488Y-47075087D01*
X97615488Y-47075086D01*
X97615495Y-47075084D01*
X97738416Y-46992951D01*
X97842951Y-46888416D01*
X97925084Y-46765495D01*
X97981658Y-46628913D01*
X97997681Y-46548361D01*
X98010500Y-46483920D01*
X98010500Y-46336079D01*
X97981659Y-46191092D01*
X97981658Y-46191091D01*
X97981658Y-46191087D01*
X97962108Y-46143889D01*
X97925087Y-46054511D01*
X97925080Y-46054498D01*
X97842951Y-45931584D01*
X97842948Y-45931580D01*
X97738419Y-45827051D01*
X97738415Y-45827048D01*
X97615501Y-45744919D01*
X97615488Y-45744912D01*
X97478917Y-45688343D01*
X97478907Y-45688340D01*
X97349416Y-45662582D01*
X97287505Y-45630197D01*
X97252931Y-45569481D01*
X97256672Y-45499711D01*
X97270506Y-45472074D01*
X97272948Y-45468418D01*
X97272951Y-45468416D01*
X97355084Y-45345495D01*
X97411658Y-45208913D01*
X97427459Y-45129478D01*
X97440500Y-45063920D01*
X97440500Y-44916079D01*
X97419120Y-44808599D01*
X97425347Y-44739007D01*
X97468210Y-44683830D01*
X97508641Y-44664633D01*
X97577135Y-44646281D01*
X97708365Y-44570515D01*
X97815515Y-44463365D01*
X97891281Y-44332135D01*
X97930500Y-44185766D01*
X97930500Y-44034234D01*
X97891281Y-43887865D01*
X97822608Y-43768920D01*
X100874499Y-43768920D01*
X100903340Y-43913907D01*
X100903343Y-43913917D01*
X100959912Y-44050488D01*
X100959919Y-44050501D01*
X101042048Y-44173415D01*
X101042051Y-44173419D01*
X101146580Y-44277948D01*
X101146584Y-44277951D01*
X101269498Y-44360080D01*
X101269511Y-44360087D01*
X101394011Y-44411656D01*
X101406087Y-44416658D01*
X101406091Y-44416658D01*
X101406092Y-44416659D01*
X101551079Y-44445500D01*
X101551082Y-44445500D01*
X101698920Y-44445500D01*
X101796462Y-44426096D01*
X101843913Y-44416658D01*
X101980495Y-44360084D01*
X102103416Y-44277951D01*
X102207951Y-44173416D01*
X102290084Y-44050495D01*
X102297011Y-44033773D01*
X102324082Y-43968416D01*
X102346658Y-43913913D01*
X102365014Y-43821635D01*
X102375500Y-43768920D01*
X102375500Y-43621079D01*
X102346659Y-43476092D01*
X102346658Y-43476091D01*
X102346658Y-43476087D01*
X102326346Y-43427049D01*
X102290087Y-43339511D01*
X102290080Y-43339498D01*
X102207951Y-43216584D01*
X102207948Y-43216580D01*
X102103419Y-43112051D01*
X102103415Y-43112048D01*
X101980501Y-43029919D01*
X101980488Y-43029912D01*
X101843917Y-42973343D01*
X101843907Y-42973340D01*
X101698920Y-42944500D01*
X101698918Y-42944500D01*
X101551082Y-42944500D01*
X101551080Y-42944500D01*
X101406092Y-42973340D01*
X101406082Y-42973343D01*
X101269511Y-43029912D01*
X101269498Y-43029919D01*
X101146584Y-43112048D01*
X101146580Y-43112051D01*
X101042051Y-43216580D01*
X101042048Y-43216584D01*
X100959919Y-43339498D01*
X100959912Y-43339511D01*
X100903343Y-43476082D01*
X100903340Y-43476092D01*
X100874500Y-43621079D01*
X100874500Y-43621082D01*
X100874500Y-43768918D01*
X100874500Y-43768920D01*
X100874499Y-43768920D01*
X97822608Y-43768920D01*
X97815515Y-43756635D01*
X97708365Y-43649485D01*
X97680062Y-43633144D01*
X97666998Y-43625601D01*
X97618784Y-43575033D01*
X97605000Y-43518215D01*
X97605000Y-42980000D01*
X98105000Y-42980000D01*
X98105000Y-43680000D01*
X98503492Y-43680000D01*
X98503495Y-43679999D01*
X98696681Y-43641572D01*
X98696693Y-43641569D01*
X98878671Y-43566192D01*
X98878684Y-43566185D01*
X98959946Y-43511888D01*
X99042462Y-43456751D01*
X99042466Y-43456748D01*
X99181748Y-43317466D01*
X99181751Y-43317462D01*
X99291185Y-43153684D01*
X99291192Y-43153671D01*
X99366569Y-42971692D01*
X99366569Y-42971690D01*
X99374862Y-42930000D01*
X98571988Y-42930000D01*
X98589205Y-42920060D01*
X98645060Y-42864205D01*
X98684556Y-42795796D01*
X98705000Y-42719496D01*
X98705000Y-42640504D01*
X98684556Y-42564204D01*
X98645060Y-42495795D01*
X98589205Y-42439940D01*
X98571988Y-42430000D01*
X99374862Y-42430000D01*
X99366569Y-42388309D01*
X99366569Y-42388307D01*
X99291192Y-42206328D01*
X99291185Y-42206315D01*
X99181751Y-42042537D01*
X99181748Y-42042533D01*
X99042466Y-41903251D01*
X99042462Y-41903248D01*
X98934791Y-41831304D01*
X104979500Y-41831304D01*
X104979500Y-42008695D01*
X105014103Y-42182658D01*
X105014106Y-42182667D01*
X105081983Y-42346540D01*
X105081990Y-42346553D01*
X105180535Y-42494034D01*
X105180538Y-42494038D01*
X105305961Y-42619461D01*
X105305965Y-42619464D01*
X105453446Y-42718009D01*
X105453459Y-42718016D01*
X105574954Y-42768340D01*
X105617334Y-42785894D01*
X105617336Y-42785894D01*
X105617341Y-42785896D01*
X105791304Y-42820499D01*
X105791307Y-42820500D01*
X105791309Y-42820500D01*
X105968693Y-42820500D01*
X105968694Y-42820499D01*
X106026682Y-42808964D01*
X106142658Y-42785896D01*
X106142661Y-42785894D01*
X106142666Y-42785894D01*
X106306547Y-42718013D01*
X106454035Y-42619464D01*
X106579464Y-42494035D01*
X106678013Y-42346547D01*
X106745894Y-42182666D01*
X106747827Y-42172951D01*
X106768964Y-42066682D01*
X106780500Y-42008691D01*
X106780500Y-41831309D01*
X106780500Y-41831306D01*
X106780499Y-41831304D01*
X106753172Y-41693920D01*
X108789499Y-41693920D01*
X108818340Y-41838907D01*
X108818343Y-41838917D01*
X108874912Y-41975488D01*
X108874919Y-41975501D01*
X108957048Y-42098415D01*
X108957051Y-42098419D01*
X109061580Y-42202948D01*
X109061584Y-42202951D01*
X109184498Y-42285080D01*
X109184511Y-42285087D01*
X109308731Y-42336540D01*
X109321087Y-42341658D01*
X109321091Y-42341658D01*
X109321092Y-42341659D01*
X109466079Y-42370500D01*
X109466082Y-42370500D01*
X109613920Y-42370500D01*
X109711462Y-42351096D01*
X109758913Y-42341658D01*
X109895495Y-42285084D01*
X110018416Y-42202951D01*
X110122951Y-42098416D01*
X110205084Y-41975495D01*
X110261658Y-41838913D01*
X110284632Y-41723419D01*
X110290500Y-41693920D01*
X110290500Y-41546079D01*
X110261659Y-41401092D01*
X110261658Y-41401091D01*
X110261658Y-41401087D01*
X110243760Y-41357877D01*
X110227624Y-41318920D01*
X113109499Y-41318920D01*
X113138340Y-41463907D01*
X113138343Y-41463917D01*
X113194912Y-41600488D01*
X113194919Y-41600501D01*
X113277048Y-41723415D01*
X113277051Y-41723419D01*
X113381580Y-41827948D01*
X113381584Y-41827951D01*
X113504498Y-41910080D01*
X113504511Y-41910087D01*
X113590009Y-41945501D01*
X113641087Y-41966658D01*
X113641091Y-41966658D01*
X113641092Y-41966659D01*
X113786079Y-41995500D01*
X113786082Y-41995500D01*
X113933920Y-41995500D01*
X114034523Y-41975488D01*
X114078913Y-41966658D01*
X114215495Y-41910084D01*
X114336389Y-41829305D01*
X114403064Y-41808428D01*
X114470444Y-41826912D01*
X114517135Y-41878891D01*
X114519839Y-41884955D01*
X114544914Y-41945491D01*
X114544919Y-41945501D01*
X114627048Y-42068415D01*
X114627051Y-42068419D01*
X114731580Y-42172948D01*
X114731584Y-42172951D01*
X114854498Y-42255080D01*
X114854511Y-42255087D01*
X114991082Y-42311656D01*
X114991087Y-42311658D01*
X114991091Y-42311658D01*
X114991092Y-42311659D01*
X115136079Y-42340500D01*
X115136082Y-42340500D01*
X115283920Y-42340500D01*
X115381462Y-42321096D01*
X115428913Y-42311658D01*
X115534547Y-42267902D01*
X115565488Y-42255087D01*
X115565488Y-42255086D01*
X115565495Y-42255084D01*
X115688416Y-42172951D01*
X115792951Y-42068416D01*
X115875084Y-41945495D01*
X115931658Y-41808913D01*
X115949925Y-41717080D01*
X115960500Y-41663920D01*
X115960500Y-41516079D01*
X115931659Y-41371092D01*
X115931658Y-41371091D01*
X115931658Y-41371087D01*
X115921252Y-41345965D01*
X115875087Y-41234511D01*
X115875080Y-41234498D01*
X115792951Y-41111584D01*
X115792948Y-41111580D01*
X115688419Y-41007051D01*
X115688415Y-41007048D01*
X115565501Y-40924919D01*
X115565488Y-40924912D01*
X115563093Y-40923920D01*
X117989499Y-40923920D01*
X118018340Y-41068907D01*
X118018343Y-41068917D01*
X118074912Y-41205488D01*
X118074919Y-41205501D01*
X118157048Y-41328415D01*
X118157051Y-41328419D01*
X118261580Y-41432948D01*
X118261584Y-41432951D01*
X118384498Y-41515080D01*
X118384511Y-41515087D01*
X118514858Y-41569078D01*
X118569262Y-41612919D01*
X118591327Y-41679213D01*
X118574048Y-41746912D01*
X118522911Y-41794523D01*
X118514860Y-41798200D01*
X118474505Y-41814916D01*
X118474498Y-41814919D01*
X118351584Y-41897048D01*
X118351580Y-41897051D01*
X118247051Y-42001580D01*
X118247048Y-42001584D01*
X118164919Y-42124498D01*
X118164912Y-42124511D01*
X118108343Y-42261082D01*
X118108340Y-42261092D01*
X118079500Y-42406079D01*
X118079500Y-42406082D01*
X118079500Y-42553918D01*
X118079500Y-42553920D01*
X118079499Y-42553920D01*
X118108340Y-42698907D01*
X118108343Y-42698917D01*
X118164912Y-42835488D01*
X118164919Y-42835501D01*
X118247048Y-42958415D01*
X118247051Y-42958419D01*
X118351580Y-43062948D01*
X118351584Y-43062951D01*
X118474498Y-43145080D01*
X118474511Y-43145087D01*
X118611082Y-43201656D01*
X118611087Y-43201658D01*
X118611091Y-43201658D01*
X118611092Y-43201659D01*
X118756079Y-43230500D01*
X118756082Y-43230500D01*
X118903920Y-43230500D01*
X119001462Y-43211096D01*
X119048913Y-43201658D01*
X119185495Y-43145084D01*
X119308416Y-43062951D01*
X119412951Y-42958416D01*
X119495084Y-42835495D01*
X119551658Y-42698913D01*
X119567462Y-42619464D01*
X119580500Y-42553920D01*
X119580500Y-42406079D01*
X119551659Y-42261092D01*
X119551658Y-42261091D01*
X119551658Y-42261087D01*
X119549173Y-42255087D01*
X119495087Y-42124511D01*
X119495080Y-42124498D01*
X119412951Y-42001584D01*
X119412948Y-42001580D01*
X119308419Y-41897051D01*
X119308415Y-41897048D01*
X119185501Y-41814919D01*
X119185492Y-41814914D01*
X119055140Y-41760921D01*
X119000737Y-41717080D01*
X118978672Y-41650786D01*
X118995951Y-41583087D01*
X119047088Y-41535476D01*
X119055124Y-41531805D01*
X119095495Y-41515084D01*
X119218416Y-41432951D01*
X119322951Y-41328416D01*
X119405084Y-41205495D01*
X119408047Y-41198343D01*
X119437011Y-41128416D01*
X119461658Y-41068913D01*
X119471487Y-41019500D01*
X119490500Y-40923920D01*
X119490500Y-40776079D01*
X119480124Y-40723920D01*
X121439499Y-40723920D01*
X121468340Y-40868907D01*
X121468343Y-40868917D01*
X121524912Y-41005488D01*
X121524919Y-41005500D01*
X121607048Y-41128415D01*
X121607051Y-41128419D01*
X121711580Y-41232948D01*
X121711584Y-41232951D01*
X121834498Y-41315080D01*
X121834511Y-41315087D01*
X121971082Y-41371656D01*
X121971087Y-41371658D01*
X121999301Y-41377270D01*
X122061211Y-41409653D01*
X122095786Y-41470368D01*
X122092047Y-41540138D01*
X122089672Y-41546338D01*
X122047838Y-41647337D01*
X122047836Y-41647341D01*
X122013233Y-41821304D01*
X122013233Y-41998695D01*
X122047836Y-42172658D01*
X122047839Y-42172667D01*
X122115716Y-42336540D01*
X122115723Y-42336553D01*
X122214268Y-42484034D01*
X122214271Y-42484038D01*
X122339694Y-42609461D01*
X122339698Y-42609464D01*
X122487179Y-42708009D01*
X122487192Y-42708016D01*
X122606773Y-42757547D01*
X122651067Y-42775894D01*
X122651069Y-42775894D01*
X122651074Y-42775896D01*
X122825037Y-42810499D01*
X122825040Y-42810500D01*
X122825042Y-42810500D01*
X123002426Y-42810500D01*
X123002427Y-42810499D01*
X123076346Y-42795796D01*
X123176391Y-42775896D01*
X123176394Y-42775894D01*
X123176399Y-42775894D01*
X123331659Y-42711584D01*
X123340273Y-42708016D01*
X123340273Y-42708015D01*
X123340280Y-42708013D01*
X123487768Y-42609464D01*
X123613197Y-42484035D01*
X123711746Y-42336547D01*
X123779627Y-42172666D01*
X123786327Y-42138987D01*
X123812244Y-42008691D01*
X123814233Y-41998691D01*
X123814233Y-41821309D01*
X123814233Y-41821306D01*
X123814232Y-41821304D01*
X123788894Y-41693920D01*
X127789499Y-41693920D01*
X127818340Y-41838907D01*
X127818343Y-41838917D01*
X127874912Y-41975488D01*
X127874919Y-41975501D01*
X127957048Y-42098415D01*
X127957051Y-42098419D01*
X128061580Y-42202948D01*
X128061584Y-42202951D01*
X128184498Y-42285080D01*
X128184511Y-42285087D01*
X128308731Y-42336540D01*
X128321087Y-42341658D01*
X128321091Y-42341658D01*
X128321092Y-42341659D01*
X128466079Y-42370500D01*
X128466082Y-42370500D01*
X128613920Y-42370500D01*
X128711462Y-42351096D01*
X128758913Y-42341658D01*
X128895495Y-42285084D01*
X129018416Y-42202951D01*
X129122951Y-42098416D01*
X129205084Y-41975495D01*
X129261658Y-41838913D01*
X129284632Y-41723419D01*
X129290500Y-41693920D01*
X129290500Y-41546079D01*
X129261659Y-41401092D01*
X129261658Y-41401091D01*
X129261658Y-41401087D01*
X129243760Y-41357877D01*
X129205087Y-41264511D01*
X129205080Y-41264498D01*
X129122951Y-41141584D01*
X129122948Y-41141580D01*
X129018419Y-41037051D01*
X129018415Y-41037048D01*
X128895501Y-40954919D01*
X128895488Y-40954912D01*
X128758917Y-40898343D01*
X128758907Y-40898340D01*
X128613920Y-40869500D01*
X128613918Y-40869500D01*
X128466082Y-40869500D01*
X128466080Y-40869500D01*
X128321092Y-40898340D01*
X128321082Y-40898343D01*
X128184511Y-40954912D01*
X128184498Y-40954919D01*
X128061584Y-41037048D01*
X128061580Y-41037051D01*
X127957051Y-41141580D01*
X127957048Y-41141584D01*
X127874919Y-41264498D01*
X127874912Y-41264511D01*
X127818343Y-41401082D01*
X127818340Y-41401092D01*
X127789500Y-41546079D01*
X127789500Y-41546082D01*
X127789500Y-41693918D01*
X127789500Y-41693920D01*
X127789499Y-41693920D01*
X123788894Y-41693920D01*
X123779629Y-41647341D01*
X123779626Y-41647332D01*
X123770450Y-41625178D01*
X123711746Y-41483453D01*
X123711744Y-41483450D01*
X123711742Y-41483446D01*
X123613197Y-41335965D01*
X123613194Y-41335961D01*
X123487771Y-41210538D01*
X123487767Y-41210535D01*
X123340286Y-41111990D01*
X123340273Y-41111983D01*
X123176400Y-41044106D01*
X123176392Y-41044104D01*
X123009829Y-41010972D01*
X122947918Y-40978587D01*
X122913344Y-40917871D01*
X122912404Y-40865163D01*
X122940500Y-40723920D01*
X122940500Y-40576079D01*
X122911659Y-40431092D01*
X122911658Y-40431091D01*
X122911658Y-40431087D01*
X122900650Y-40404511D01*
X122897232Y-40396258D01*
X122878956Y-40352135D01*
X135079500Y-40352135D01*
X135079500Y-42447870D01*
X135079501Y-42447876D01*
X135085908Y-42507483D01*
X135136202Y-42642328D01*
X135136206Y-42642335D01*
X135222452Y-42757544D01*
X135222455Y-42757547D01*
X135337664Y-42843793D01*
X135337671Y-42843797D01*
X135472517Y-42894091D01*
X135472516Y-42894091D01*
X135479444Y-42894835D01*
X135532127Y-42900500D01*
X138827872Y-42900499D01*
X138887483Y-42894091D01*
X139022331Y-42843796D01*
X139137546Y-42757546D01*
X139223796Y-42642331D01*
X139274091Y-42507483D01*
X139280500Y-42447873D01*
X139280499Y-40352128D01*
X139274091Y-40292517D01*
X139270013Y-40281584D01*
X139223797Y-40157671D01*
X139223793Y-40157664D01*
X139137547Y-40042455D01*
X139137544Y-40042452D01*
X139022335Y-39956206D01*
X139022328Y-39956202D01*
X138887482Y-39905908D01*
X138887483Y-39905908D01*
X138827883Y-39899501D01*
X138827881Y-39899500D01*
X138827873Y-39899500D01*
X138827864Y-39899500D01*
X135532129Y-39899500D01*
X135532123Y-39899501D01*
X135472516Y-39905908D01*
X135337671Y-39956202D01*
X135337664Y-39956206D01*
X135222455Y-40042452D01*
X135222452Y-40042455D01*
X135136206Y-40157664D01*
X135136202Y-40157671D01*
X135085908Y-40292517D01*
X135083817Y-40311971D01*
X135079501Y-40352123D01*
X135079500Y-40352135D01*
X122878956Y-40352135D01*
X122855085Y-40294507D01*
X122855080Y-40294498D01*
X122772951Y-40171584D01*
X122772948Y-40171580D01*
X122668419Y-40067051D01*
X122668415Y-40067048D01*
X122545501Y-39984919D01*
X122545488Y-39984912D01*
X122408917Y-39928343D01*
X122408907Y-39928340D01*
X122263920Y-39899500D01*
X122263918Y-39899500D01*
X122116082Y-39899500D01*
X122116080Y-39899500D01*
X121971092Y-39928340D01*
X121971082Y-39928343D01*
X121834511Y-39984912D01*
X121834498Y-39984919D01*
X121711584Y-40067048D01*
X121711580Y-40067051D01*
X121607051Y-40171580D01*
X121607048Y-40171584D01*
X121524919Y-40294498D01*
X121524912Y-40294511D01*
X121468343Y-40431082D01*
X121468340Y-40431092D01*
X121439500Y-40576079D01*
X121439500Y-40576082D01*
X121439500Y-40723918D01*
X121439500Y-40723920D01*
X121439499Y-40723920D01*
X119480124Y-40723920D01*
X119461659Y-40631092D01*
X119461656Y-40631081D01*
X119456007Y-40617444D01*
X119456006Y-40617442D01*
X119405087Y-40494511D01*
X119405080Y-40494498D01*
X119322951Y-40371584D01*
X119322948Y-40371580D01*
X119218419Y-40267051D01*
X119218415Y-40267048D01*
X119095501Y-40184919D01*
X119095488Y-40184912D01*
X118958917Y-40128343D01*
X118958907Y-40128340D01*
X118813920Y-40099500D01*
X118813918Y-40099500D01*
X118666082Y-40099500D01*
X118666080Y-40099500D01*
X118521092Y-40128340D01*
X118521082Y-40128343D01*
X118384511Y-40184912D01*
X118384498Y-40184919D01*
X118261584Y-40267048D01*
X118261580Y-40267051D01*
X118157051Y-40371580D01*
X118157048Y-40371584D01*
X118074919Y-40494498D01*
X118074912Y-40494511D01*
X118018343Y-40631082D01*
X118018340Y-40631092D01*
X117989500Y-40776079D01*
X117989500Y-40776082D01*
X117989500Y-40923918D01*
X117989500Y-40923920D01*
X117989499Y-40923920D01*
X115563093Y-40923920D01*
X115468046Y-40884551D01*
X115428917Y-40868343D01*
X115428907Y-40868340D01*
X115283920Y-40839500D01*
X115283918Y-40839500D01*
X115136082Y-40839500D01*
X115136080Y-40839500D01*
X114991092Y-40868340D01*
X114991082Y-40868343D01*
X114854511Y-40924912D01*
X114854493Y-40924922D01*
X114733611Y-41005693D01*
X114666934Y-41026571D01*
X114599554Y-41008086D01*
X114552864Y-40956107D01*
X114550160Y-40950043D01*
X114525087Y-40889511D01*
X114525080Y-40889498D01*
X114442951Y-40766584D01*
X114442948Y-40766580D01*
X114338419Y-40662051D01*
X114338415Y-40662048D01*
X114215501Y-40579919D01*
X114215488Y-40579912D01*
X114078917Y-40523343D01*
X114078907Y-40523340D01*
X113933920Y-40494500D01*
X113933918Y-40494500D01*
X113786082Y-40494500D01*
X113786080Y-40494500D01*
X113641092Y-40523340D01*
X113641082Y-40523343D01*
X113504511Y-40579912D01*
X113504498Y-40579919D01*
X113381584Y-40662048D01*
X113381580Y-40662051D01*
X113277051Y-40766580D01*
X113277048Y-40766584D01*
X113194919Y-40889498D01*
X113194912Y-40889511D01*
X113138343Y-41026082D01*
X113138340Y-41026092D01*
X113109500Y-41171079D01*
X113109500Y-41171082D01*
X113109500Y-41318918D01*
X113109500Y-41318920D01*
X113109499Y-41318920D01*
X110227624Y-41318920D01*
X110205087Y-41264511D01*
X110205085Y-41264507D01*
X110205084Y-41264505D01*
X110184622Y-41233881D01*
X110122951Y-41141583D01*
X110018419Y-41037051D01*
X110018415Y-41037048D01*
X109895501Y-40954919D01*
X109895488Y-40954912D01*
X109758917Y-40898343D01*
X109758907Y-40898340D01*
X109613920Y-40869500D01*
X109613918Y-40869500D01*
X109466082Y-40869500D01*
X109466080Y-40869500D01*
X109321092Y-40898340D01*
X109321082Y-40898343D01*
X109184511Y-40954912D01*
X109184498Y-40954919D01*
X109061584Y-41037048D01*
X109061580Y-41037051D01*
X108957051Y-41141580D01*
X108957048Y-41141584D01*
X108874919Y-41264498D01*
X108874912Y-41264511D01*
X108818343Y-41401082D01*
X108818340Y-41401092D01*
X108789500Y-41546079D01*
X108789500Y-41546082D01*
X108789500Y-41693918D01*
X108789500Y-41693920D01*
X108789499Y-41693920D01*
X106753172Y-41693920D01*
X106745896Y-41657341D01*
X106745893Y-41657332D01*
X106678013Y-41493452D01*
X106676982Y-41491523D01*
X106676747Y-41490396D01*
X106675682Y-41487824D01*
X106676169Y-41487621D01*
X106662740Y-41423120D01*
X106687740Y-41357877D01*
X106744045Y-41316506D01*
X106813778Y-41312144D01*
X106865541Y-41340709D01*
X106866874Y-41339086D01*
X106871584Y-41342951D01*
X106994498Y-41425080D01*
X106994511Y-41425087D01*
X107088256Y-41463917D01*
X107131087Y-41481658D01*
X107131091Y-41481658D01*
X107131092Y-41481659D01*
X107276079Y-41510500D01*
X107276082Y-41510500D01*
X107423920Y-41510500D01*
X107537915Y-41487824D01*
X107568913Y-41481658D01*
X107666869Y-41441083D01*
X107704660Y-41425430D01*
X107704661Y-41425430D01*
X107705099Y-41425247D01*
X107705495Y-41425084D01*
X107828416Y-41342951D01*
X107932951Y-41238416D01*
X108015084Y-41115495D01*
X108071658Y-40978913D01*
X108093540Y-40868907D01*
X108100500Y-40833920D01*
X108100500Y-40686079D01*
X108071659Y-40541092D01*
X108071658Y-40541091D01*
X108071658Y-40541087D01*
X108026592Y-40432287D01*
X108015087Y-40404511D01*
X108015080Y-40404498D01*
X107932951Y-40281584D01*
X107932948Y-40281580D01*
X107828419Y-40177051D01*
X107828415Y-40177048D01*
X107705501Y-40094919D01*
X107705488Y-40094912D01*
X107568917Y-40038343D01*
X107568907Y-40038340D01*
X107423920Y-40009500D01*
X107423918Y-40009500D01*
X107276082Y-40009500D01*
X107276080Y-40009500D01*
X107131092Y-40038340D01*
X107131082Y-40038343D01*
X106994511Y-40094912D01*
X106994498Y-40094919D01*
X106871584Y-40177048D01*
X106871580Y-40177051D01*
X106767051Y-40281580D01*
X106767048Y-40281584D01*
X106684919Y-40404498D01*
X106684912Y-40404511D01*
X106628343Y-40541082D01*
X106628340Y-40541092D01*
X106599500Y-40686079D01*
X106599500Y-40686082D01*
X106599500Y-40833918D01*
X106599500Y-40833920D01*
X106599499Y-40833920D01*
X106628340Y-40978907D01*
X106628343Y-40978917D01*
X106683886Y-41113011D01*
X106691355Y-41182480D01*
X106660079Y-41244959D01*
X106599990Y-41280611D01*
X106530165Y-41278117D01*
X106481644Y-41248144D01*
X106454038Y-41220538D01*
X106454034Y-41220535D01*
X106306553Y-41121990D01*
X106306540Y-41121983D01*
X106142667Y-41054106D01*
X106142658Y-41054103D01*
X105968694Y-41019500D01*
X105968691Y-41019500D01*
X105791309Y-41019500D01*
X105791306Y-41019500D01*
X105617341Y-41054103D01*
X105617332Y-41054106D01*
X105453459Y-41121983D01*
X105453446Y-41121990D01*
X105305965Y-41220535D01*
X105305961Y-41220538D01*
X105180538Y-41345961D01*
X105180535Y-41345965D01*
X105081990Y-41493446D01*
X105081983Y-41493459D01*
X105014106Y-41657332D01*
X105014103Y-41657341D01*
X104979500Y-41831304D01*
X98934791Y-41831304D01*
X98878684Y-41793814D01*
X98878671Y-41793807D01*
X98696693Y-41718430D01*
X98696681Y-41718427D01*
X98503495Y-41680000D01*
X98105000Y-41680000D01*
X98105000Y-42380000D01*
X97605000Y-42380000D01*
X97605000Y-41680000D01*
X97206504Y-41680000D01*
X97013318Y-41718427D01*
X97013306Y-41718430D01*
X96831328Y-41793807D01*
X96831315Y-41793814D01*
X96667537Y-41903248D01*
X96667533Y-41903251D01*
X96528251Y-42042533D01*
X96528248Y-42042537D01*
X96418814Y-42206315D01*
X96418807Y-42206328D01*
X96343430Y-42388307D01*
X96343430Y-42388309D01*
X96335138Y-42430000D01*
X97138012Y-42430000D01*
X97120795Y-42439940D01*
X97064940Y-42495795D01*
X97025444Y-42564204D01*
X97005000Y-42640504D01*
X97005000Y-42719496D01*
X97025444Y-42795796D01*
X97064940Y-42864205D01*
X97120795Y-42920060D01*
X97138012Y-42930000D01*
X96335138Y-42930000D01*
X96343430Y-42971690D01*
X96343430Y-42971692D01*
X96418807Y-43153671D01*
X96418814Y-43153684D01*
X96528248Y-43317462D01*
X96528251Y-43317466D01*
X96667533Y-43456748D01*
X96667537Y-43456751D01*
X96831315Y-43566185D01*
X96831328Y-43566192D01*
X96840838Y-43570131D01*
X96895243Y-43613970D01*
X96917310Y-43680264D01*
X96900033Y-43747963D01*
X96896350Y-43753405D01*
X96818719Y-43887863D01*
X96779500Y-44034234D01*
X96779500Y-44115500D01*
X96759815Y-44182539D01*
X96707011Y-44228294D01*
X96655500Y-44239500D01*
X96616080Y-44239500D01*
X96471092Y-44268340D01*
X96471082Y-44268343D01*
X96334511Y-44324912D01*
X96334498Y-44324919D01*
X96211584Y-44407048D01*
X96211580Y-44407051D01*
X96107051Y-44511580D01*
X96107048Y-44511584D01*
X96024919Y-44634498D01*
X96024912Y-44634511D01*
X95968343Y-44771082D01*
X95968340Y-44771092D01*
X95939500Y-44916079D01*
X95939500Y-45043904D01*
X95919815Y-45110943D01*
X95908867Y-45124528D01*
X95909156Y-45124765D01*
X95905288Y-45129478D01*
X95823157Y-45252394D01*
X95823150Y-45252407D01*
X95766581Y-45388978D01*
X95766578Y-45388988D01*
X95737738Y-45533975D01*
X95737738Y-45533978D01*
X95737738Y-45681814D01*
X95737738Y-45681816D01*
X95737737Y-45681816D01*
X91560500Y-45681816D01*
X91560500Y-42430000D01*
X92305138Y-42430000D01*
X93108012Y-42430000D01*
X93090795Y-42439940D01*
X93034940Y-42495795D01*
X92995444Y-42564204D01*
X92975000Y-42640504D01*
X92975000Y-42719496D01*
X92995444Y-42795796D01*
X93034940Y-42864205D01*
X93090795Y-42920060D01*
X93108012Y-42930000D01*
X92305138Y-42930000D01*
X92313430Y-42971690D01*
X92313430Y-42971692D01*
X92388807Y-43153671D01*
X92388814Y-43153684D01*
X92498248Y-43317462D01*
X92498251Y-43317466D01*
X92637533Y-43456748D01*
X92637537Y-43456751D01*
X92801315Y-43566185D01*
X92801328Y-43566192D01*
X92983306Y-43641569D01*
X92983318Y-43641572D01*
X93176504Y-43679999D01*
X93176508Y-43680000D01*
X93425000Y-43680000D01*
X93425000Y-42980000D01*
X93925000Y-42980000D01*
X93925000Y-43680000D01*
X94173492Y-43680000D01*
X94173495Y-43679999D01*
X94366681Y-43641572D01*
X94366693Y-43641569D01*
X94548671Y-43566192D01*
X94548684Y-43566185D01*
X94712462Y-43456751D01*
X94712466Y-43456748D01*
X94851748Y-43317466D01*
X94851751Y-43317462D01*
X94961185Y-43153684D01*
X94961192Y-43153671D01*
X95036569Y-42971692D01*
X95036569Y-42971690D01*
X95044862Y-42930000D01*
X94241988Y-42930000D01*
X94259205Y-42920060D01*
X94315060Y-42864205D01*
X94354556Y-42795796D01*
X94375000Y-42719496D01*
X94375000Y-42640504D01*
X94354556Y-42564204D01*
X94315060Y-42495795D01*
X94259205Y-42439940D01*
X94241988Y-42430000D01*
X95044862Y-42430000D01*
X95036569Y-42388309D01*
X95036569Y-42388307D01*
X94961192Y-42206328D01*
X94961185Y-42206315D01*
X94851751Y-42042537D01*
X94851748Y-42042533D01*
X94712466Y-41903251D01*
X94712462Y-41903248D01*
X94548684Y-41793814D01*
X94548671Y-41793807D01*
X94366693Y-41718430D01*
X94366681Y-41718427D01*
X94173495Y-41680000D01*
X93925000Y-41680000D01*
X93925000Y-42380000D01*
X93425000Y-42380000D01*
X93425000Y-41680000D01*
X93176504Y-41680000D01*
X92983318Y-41718427D01*
X92983306Y-41718430D01*
X92801328Y-41793807D01*
X92801315Y-41793814D01*
X92637537Y-41903248D01*
X92637533Y-41903251D01*
X92498251Y-42042533D01*
X92498248Y-42042537D01*
X92388814Y-42206315D01*
X92388807Y-42206328D01*
X92313430Y-42388307D01*
X92313430Y-42388309D01*
X92305138Y-42430000D01*
X91560500Y-42430000D01*
X91560500Y-39217648D01*
X92779500Y-39217648D01*
X92779500Y-39422351D01*
X92811522Y-39624534D01*
X92874781Y-39819223D01*
X92938691Y-39944653D01*
X92959208Y-39984919D01*
X92967715Y-40001613D01*
X93088028Y-40167213D01*
X93232786Y-40311971D01*
X93360141Y-40404498D01*
X93398390Y-40432287D01*
X93514607Y-40491503D01*
X93580776Y-40525218D01*
X93580778Y-40525218D01*
X93580781Y-40525220D01*
X93685137Y-40559127D01*
X93775465Y-40588477D01*
X93876557Y-40604488D01*
X93977648Y-40620500D01*
X93977649Y-40620500D01*
X94182351Y-40620500D01*
X94182352Y-40620500D01*
X94384534Y-40588477D01*
X94579219Y-40525220D01*
X94761610Y-40432287D01*
X94871939Y-40352129D01*
X94927213Y-40311971D01*
X94927215Y-40311968D01*
X94927219Y-40311966D01*
X95071966Y-40167219D01*
X95071968Y-40167215D01*
X95071971Y-40167213D01*
X95126865Y-40091656D01*
X95192287Y-40001610D01*
X95285220Y-39819219D01*
X95348477Y-39624534D01*
X95361245Y-39543920D01*
X97064499Y-39543920D01*
X97093340Y-39688907D01*
X97093343Y-39688917D01*
X97149912Y-39825488D01*
X97149919Y-39825501D01*
X97232048Y-39948415D01*
X97232051Y-39948419D01*
X97336580Y-40052948D01*
X97336584Y-40052951D01*
X97459498Y-40135080D01*
X97459511Y-40135087D01*
X97596082Y-40191656D01*
X97596087Y-40191658D01*
X97596091Y-40191658D01*
X97596092Y-40191659D01*
X97741079Y-40220500D01*
X97741082Y-40220500D01*
X97888920Y-40220500D01*
X97986462Y-40201096D01*
X98033913Y-40191658D01*
X98170495Y-40135084D01*
X98293416Y-40052951D01*
X98397951Y-39948416D01*
X98480084Y-39825495D01*
X98480633Y-39824171D01*
X98536656Y-39688917D01*
X98536658Y-39688913D01*
X98565500Y-39543918D01*
X98565500Y-39443920D01*
X109359499Y-39443920D01*
X109388340Y-39588907D01*
X109388343Y-39588917D01*
X109444912Y-39725488D01*
X109444919Y-39725501D01*
X109527048Y-39848415D01*
X109527051Y-39848419D01*
X109631580Y-39952948D01*
X109631584Y-39952951D01*
X109754498Y-40035080D01*
X109754511Y-40035087D01*
X109831675Y-40067049D01*
X109891087Y-40091658D01*
X109891091Y-40091658D01*
X109891092Y-40091659D01*
X110036079Y-40120500D01*
X110036082Y-40120500D01*
X110183920Y-40120500D01*
X110281462Y-40101096D01*
X110328913Y-40091658D01*
X110457627Y-40038343D01*
X110465488Y-40035087D01*
X110465488Y-40035086D01*
X110465495Y-40035084D01*
X110588416Y-39952951D01*
X110692951Y-39848416D01*
X110775084Y-39725495D01*
X110831658Y-39588913D01*
X110859893Y-39446971D01*
X110860500Y-39443920D01*
X110860500Y-39296079D01*
X110831659Y-39151092D01*
X110831658Y-39151091D01*
X110831658Y-39151087D01*
X110816505Y-39114505D01*
X110775087Y-39014511D01*
X110775080Y-39014498D01*
X110692951Y-38891584D01*
X110692948Y-38891580D01*
X110588419Y-38787051D01*
X110588415Y-38787048D01*
X110465501Y-38704919D01*
X110465488Y-38704912D01*
X110328917Y-38648343D01*
X110328907Y-38648340D01*
X110183920Y-38619500D01*
X110183918Y-38619500D01*
X110036082Y-38619500D01*
X110036080Y-38619500D01*
X109891092Y-38648340D01*
X109891082Y-38648343D01*
X109754511Y-38704912D01*
X109754498Y-38704919D01*
X109631584Y-38787048D01*
X109631580Y-38787051D01*
X109527051Y-38891580D01*
X109527048Y-38891584D01*
X109444919Y-39014498D01*
X109444912Y-39014511D01*
X109388343Y-39151082D01*
X109388340Y-39151092D01*
X109359500Y-39296079D01*
X109359500Y-39296082D01*
X109359500Y-39443918D01*
X109359500Y-39443920D01*
X109359499Y-39443920D01*
X98565500Y-39443920D01*
X98565500Y-39396082D01*
X98565500Y-39396079D01*
X98549209Y-39314182D01*
X98536659Y-39251092D01*
X98536658Y-39251091D01*
X98536658Y-39251087D01*
X98495235Y-39151082D01*
X98480087Y-39114511D01*
X98480080Y-39114498D01*
X98397951Y-38991584D01*
X98397948Y-38991580D01*
X98293419Y-38887051D01*
X98293415Y-38887048D01*
X98170501Y-38804919D01*
X98170488Y-38804912D01*
X98033917Y-38748343D01*
X98033907Y-38748340D01*
X97888920Y-38719500D01*
X97888918Y-38719500D01*
X97741082Y-38719500D01*
X97741080Y-38719500D01*
X97596092Y-38748340D01*
X97596082Y-38748343D01*
X97459511Y-38804912D01*
X97459498Y-38804919D01*
X97336584Y-38887048D01*
X97336580Y-38887051D01*
X97232051Y-38991580D01*
X97232048Y-38991584D01*
X97149919Y-39114498D01*
X97149912Y-39114511D01*
X97093343Y-39251082D01*
X97093340Y-39251092D01*
X97064500Y-39396079D01*
X97064500Y-39396082D01*
X97064500Y-39543918D01*
X97064500Y-39543920D01*
X97064499Y-39543920D01*
X95361245Y-39543920D01*
X95380500Y-39422352D01*
X95380500Y-39217648D01*
X95369957Y-39151082D01*
X95348477Y-39015465D01*
X95285218Y-38820776D01*
X95248309Y-38748340D01*
X95192287Y-38638390D01*
X95178563Y-38619500D01*
X95071971Y-38472786D01*
X94927213Y-38328028D01*
X94761613Y-38207715D01*
X94761612Y-38207714D01*
X94761610Y-38207713D01*
X94704653Y-38178691D01*
X94579223Y-38114781D01*
X94384534Y-38051522D01*
X94209995Y-38023878D01*
X94182352Y-38019500D01*
X93977648Y-38019500D01*
X93953329Y-38023351D01*
X93775465Y-38051522D01*
X93580776Y-38114781D01*
X93398386Y-38207715D01*
X93232786Y-38328028D01*
X93088028Y-38472786D01*
X92967715Y-38638386D01*
X92874781Y-38820776D01*
X92811522Y-39015465D01*
X92779500Y-39217648D01*
X91560500Y-39217648D01*
X91560500Y-37684500D01*
X91580185Y-37617461D01*
X91632989Y-37571706D01*
X91684500Y-37560500D01*
X135994108Y-37560500D01*
X136058022Y-37560500D01*
X136061995Y-37560563D01*
G37*
%TD.AperFunction*%
%TD*%
M02*
