%TF.GenerationSoftware,KiCad,Pcbnew,9.0.2*%
%TF.CreationDate,2025-12-20T10:00:59+01:00*%
%TF.ProjectId,synthmate_L432,73796e74-686d-4617-9465-5f4c3433322e,rev?*%
%TF.SameCoordinates,Original*%
%TF.FileFunction,Legend,Top*%
%TF.FilePolarity,Positive*%
%FSLAX46Y46*%
G04 Gerber Fmt 4.6, Leading zero omitted, Abs format (unit mm)*
G04 Created by KiCad (PCBNEW 9.0.2) date 2025-12-20 10:00:59*
%MOMM*%
%LPD*%
G01*
G04 APERTURE LIST*
%ADD10C,0.150000*%
%ADD11C,0.120000*%
%ADD12C,0.000000*%
G04 APERTURE END LIST*
D10*
X144258095Y-85644819D02*
X144258095Y-86454342D01*
X144258095Y-86454342D02*
X144305714Y-86549580D01*
X144305714Y-86549580D02*
X144353333Y-86597200D01*
X144353333Y-86597200D02*
X144448571Y-86644819D01*
X144448571Y-86644819D02*
X144639047Y-86644819D01*
X144639047Y-86644819D02*
X144734285Y-86597200D01*
X144734285Y-86597200D02*
X144781904Y-86549580D01*
X144781904Y-86549580D02*
X144829523Y-86454342D01*
X144829523Y-86454342D02*
X144829523Y-85644819D01*
X145734285Y-85644819D02*
X145543809Y-85644819D01*
X145543809Y-85644819D02*
X145448571Y-85692438D01*
X145448571Y-85692438D02*
X145400952Y-85740057D01*
X145400952Y-85740057D02*
X145305714Y-85882914D01*
X145305714Y-85882914D02*
X145258095Y-86073390D01*
X145258095Y-86073390D02*
X145258095Y-86454342D01*
X145258095Y-86454342D02*
X145305714Y-86549580D01*
X145305714Y-86549580D02*
X145353333Y-86597200D01*
X145353333Y-86597200D02*
X145448571Y-86644819D01*
X145448571Y-86644819D02*
X145639047Y-86644819D01*
X145639047Y-86644819D02*
X145734285Y-86597200D01*
X145734285Y-86597200D02*
X145781904Y-86549580D01*
X145781904Y-86549580D02*
X145829523Y-86454342D01*
X145829523Y-86454342D02*
X145829523Y-86216247D01*
X145829523Y-86216247D02*
X145781904Y-86121009D01*
X145781904Y-86121009D02*
X145734285Y-86073390D01*
X145734285Y-86073390D02*
X145639047Y-86025771D01*
X145639047Y-86025771D02*
X145448571Y-86025771D01*
X145448571Y-86025771D02*
X145353333Y-86073390D01*
X145353333Y-86073390D02*
X145305714Y-86121009D01*
X145305714Y-86121009D02*
X145258095Y-86216247D01*
X149849580Y-82117857D02*
X149897200Y-82165476D01*
X149897200Y-82165476D02*
X149944819Y-82308333D01*
X149944819Y-82308333D02*
X149944819Y-82403571D01*
X149944819Y-82403571D02*
X149897200Y-82546428D01*
X149897200Y-82546428D02*
X149801961Y-82641666D01*
X149801961Y-82641666D02*
X149706723Y-82689285D01*
X149706723Y-82689285D02*
X149516247Y-82736904D01*
X149516247Y-82736904D02*
X149373390Y-82736904D01*
X149373390Y-82736904D02*
X149182914Y-82689285D01*
X149182914Y-82689285D02*
X149087676Y-82641666D01*
X149087676Y-82641666D02*
X148992438Y-82546428D01*
X148992438Y-82546428D02*
X148944819Y-82403571D01*
X148944819Y-82403571D02*
X148944819Y-82308333D01*
X148944819Y-82308333D02*
X148992438Y-82165476D01*
X148992438Y-82165476D02*
X149040057Y-82117857D01*
X149944819Y-81165476D02*
X149944819Y-81736904D01*
X149944819Y-81451190D02*
X148944819Y-81451190D01*
X148944819Y-81451190D02*
X149087676Y-81546428D01*
X149087676Y-81546428D02*
X149182914Y-81641666D01*
X149182914Y-81641666D02*
X149230533Y-81736904D01*
X148944819Y-80832142D02*
X148944819Y-80213095D01*
X148944819Y-80213095D02*
X149325771Y-80546428D01*
X149325771Y-80546428D02*
X149325771Y-80403571D01*
X149325771Y-80403571D02*
X149373390Y-80308333D01*
X149373390Y-80308333D02*
X149421009Y-80260714D01*
X149421009Y-80260714D02*
X149516247Y-80213095D01*
X149516247Y-80213095D02*
X149754342Y-80213095D01*
X149754342Y-80213095D02*
X149849580Y-80260714D01*
X149849580Y-80260714D02*
X149897200Y-80308333D01*
X149897200Y-80308333D02*
X149944819Y-80403571D01*
X149944819Y-80403571D02*
X149944819Y-80689285D01*
X149944819Y-80689285D02*
X149897200Y-80784523D01*
X149897200Y-80784523D02*
X149849580Y-80832142D01*
X145754819Y-106747857D02*
X145278628Y-107081190D01*
X145754819Y-107319285D02*
X144754819Y-107319285D01*
X144754819Y-107319285D02*
X144754819Y-106938333D01*
X144754819Y-106938333D02*
X144802438Y-106843095D01*
X144802438Y-106843095D02*
X144850057Y-106795476D01*
X144850057Y-106795476D02*
X144945295Y-106747857D01*
X144945295Y-106747857D02*
X145088152Y-106747857D01*
X145088152Y-106747857D02*
X145183390Y-106795476D01*
X145183390Y-106795476D02*
X145231009Y-106843095D01*
X145231009Y-106843095D02*
X145278628Y-106938333D01*
X145278628Y-106938333D02*
X145278628Y-107319285D01*
X145754819Y-105795476D02*
X145754819Y-106366904D01*
X145754819Y-106081190D02*
X144754819Y-106081190D01*
X144754819Y-106081190D02*
X144897676Y-106176428D01*
X144897676Y-106176428D02*
X144992914Y-106271666D01*
X144992914Y-106271666D02*
X145040533Y-106366904D01*
X144754819Y-105462142D02*
X144754819Y-104843095D01*
X144754819Y-104843095D02*
X145135771Y-105176428D01*
X145135771Y-105176428D02*
X145135771Y-105033571D01*
X145135771Y-105033571D02*
X145183390Y-104938333D01*
X145183390Y-104938333D02*
X145231009Y-104890714D01*
X145231009Y-104890714D02*
X145326247Y-104843095D01*
X145326247Y-104843095D02*
X145564342Y-104843095D01*
X145564342Y-104843095D02*
X145659580Y-104890714D01*
X145659580Y-104890714D02*
X145707200Y-104938333D01*
X145707200Y-104938333D02*
X145754819Y-105033571D01*
X145754819Y-105033571D02*
X145754819Y-105319285D01*
X145754819Y-105319285D02*
X145707200Y-105414523D01*
X145707200Y-105414523D02*
X145659580Y-105462142D01*
X134193333Y-58052680D02*
X134193333Y-57338395D01*
X134193333Y-57338395D02*
X134240952Y-57195538D01*
X134240952Y-57195538D02*
X134336190Y-57100300D01*
X134336190Y-57100300D02*
X134479047Y-57052680D01*
X134479047Y-57052680D02*
X134574285Y-57052680D01*
X133193333Y-57052680D02*
X133764761Y-57052680D01*
X133479047Y-57052680D02*
X133479047Y-58052680D01*
X133479047Y-58052680D02*
X133574285Y-57909823D01*
X133574285Y-57909823D02*
X133669523Y-57814585D01*
X133669523Y-57814585D02*
X133764761Y-57766966D01*
X144524819Y-75590594D02*
X143524819Y-75590594D01*
X143524819Y-75590594D02*
X143524819Y-75352499D01*
X143524819Y-75352499D02*
X143572438Y-75209642D01*
X143572438Y-75209642D02*
X143667676Y-75114404D01*
X143667676Y-75114404D02*
X143762914Y-75066785D01*
X143762914Y-75066785D02*
X143953390Y-75019166D01*
X143953390Y-75019166D02*
X144096247Y-75019166D01*
X144096247Y-75019166D02*
X144286723Y-75066785D01*
X144286723Y-75066785D02*
X144381961Y-75114404D01*
X144381961Y-75114404D02*
X144477200Y-75209642D01*
X144477200Y-75209642D02*
X144524819Y-75352499D01*
X144524819Y-75352499D02*
X144524819Y-75590594D01*
X143620057Y-74638213D02*
X143572438Y-74590594D01*
X143572438Y-74590594D02*
X143524819Y-74495356D01*
X143524819Y-74495356D02*
X143524819Y-74257261D01*
X143524819Y-74257261D02*
X143572438Y-74162023D01*
X143572438Y-74162023D02*
X143620057Y-74114404D01*
X143620057Y-74114404D02*
X143715295Y-74066785D01*
X143715295Y-74066785D02*
X143810533Y-74066785D01*
X143810533Y-74066785D02*
X143953390Y-74114404D01*
X143953390Y-74114404D02*
X144524819Y-74685832D01*
X144524819Y-74685832D02*
X144524819Y-74066785D01*
X147543333Y-90454819D02*
X147210000Y-89978628D01*
X146971905Y-90454819D02*
X146971905Y-89454819D01*
X146971905Y-89454819D02*
X147352857Y-89454819D01*
X147352857Y-89454819D02*
X147448095Y-89502438D01*
X147448095Y-89502438D02*
X147495714Y-89550057D01*
X147495714Y-89550057D02*
X147543333Y-89645295D01*
X147543333Y-89645295D02*
X147543333Y-89788152D01*
X147543333Y-89788152D02*
X147495714Y-89883390D01*
X147495714Y-89883390D02*
X147448095Y-89931009D01*
X147448095Y-89931009D02*
X147352857Y-89978628D01*
X147352857Y-89978628D02*
X146971905Y-89978628D01*
X148400476Y-89454819D02*
X148210000Y-89454819D01*
X148210000Y-89454819D02*
X148114762Y-89502438D01*
X148114762Y-89502438D02*
X148067143Y-89550057D01*
X148067143Y-89550057D02*
X147971905Y-89692914D01*
X147971905Y-89692914D02*
X147924286Y-89883390D01*
X147924286Y-89883390D02*
X147924286Y-90264342D01*
X147924286Y-90264342D02*
X147971905Y-90359580D01*
X147971905Y-90359580D02*
X148019524Y-90407200D01*
X148019524Y-90407200D02*
X148114762Y-90454819D01*
X148114762Y-90454819D02*
X148305238Y-90454819D01*
X148305238Y-90454819D02*
X148400476Y-90407200D01*
X148400476Y-90407200D02*
X148448095Y-90359580D01*
X148448095Y-90359580D02*
X148495714Y-90264342D01*
X148495714Y-90264342D02*
X148495714Y-90026247D01*
X148495714Y-90026247D02*
X148448095Y-89931009D01*
X148448095Y-89931009D02*
X148400476Y-89883390D01*
X148400476Y-89883390D02*
X148305238Y-89835771D01*
X148305238Y-89835771D02*
X148114762Y-89835771D01*
X148114762Y-89835771D02*
X148019524Y-89883390D01*
X148019524Y-89883390D02*
X147971905Y-89931009D01*
X147971905Y-89931009D02*
X147924286Y-90026247D01*
X142099819Y-99656904D02*
X142909342Y-99656904D01*
X142909342Y-99656904D02*
X143004580Y-99609285D01*
X143004580Y-99609285D02*
X143052200Y-99561666D01*
X143052200Y-99561666D02*
X143099819Y-99466428D01*
X143099819Y-99466428D02*
X143099819Y-99275952D01*
X143099819Y-99275952D02*
X143052200Y-99180714D01*
X143052200Y-99180714D02*
X143004580Y-99133095D01*
X143004580Y-99133095D02*
X142909342Y-99085476D01*
X142909342Y-99085476D02*
X142099819Y-99085476D01*
X142099819Y-98133095D02*
X142099819Y-98609285D01*
X142099819Y-98609285D02*
X142576009Y-98656904D01*
X142576009Y-98656904D02*
X142528390Y-98609285D01*
X142528390Y-98609285D02*
X142480771Y-98514047D01*
X142480771Y-98514047D02*
X142480771Y-98275952D01*
X142480771Y-98275952D02*
X142528390Y-98180714D01*
X142528390Y-98180714D02*
X142576009Y-98133095D01*
X142576009Y-98133095D02*
X142671247Y-98085476D01*
X142671247Y-98085476D02*
X142909342Y-98085476D01*
X142909342Y-98085476D02*
X143004580Y-98133095D01*
X143004580Y-98133095D02*
X143052200Y-98180714D01*
X143052200Y-98180714D02*
X143099819Y-98275952D01*
X143099819Y-98275952D02*
X143099819Y-98514047D01*
X143099819Y-98514047D02*
X143052200Y-98609285D01*
X143052200Y-98609285D02*
X143004580Y-98656904D01*
X131267142Y-88209580D02*
X131219523Y-88257200D01*
X131219523Y-88257200D02*
X131076666Y-88304819D01*
X131076666Y-88304819D02*
X130981428Y-88304819D01*
X130981428Y-88304819D02*
X130838571Y-88257200D01*
X130838571Y-88257200D02*
X130743333Y-88161961D01*
X130743333Y-88161961D02*
X130695714Y-88066723D01*
X130695714Y-88066723D02*
X130648095Y-87876247D01*
X130648095Y-87876247D02*
X130648095Y-87733390D01*
X130648095Y-87733390D02*
X130695714Y-87542914D01*
X130695714Y-87542914D02*
X130743333Y-87447676D01*
X130743333Y-87447676D02*
X130838571Y-87352438D01*
X130838571Y-87352438D02*
X130981428Y-87304819D01*
X130981428Y-87304819D02*
X131076666Y-87304819D01*
X131076666Y-87304819D02*
X131219523Y-87352438D01*
X131219523Y-87352438D02*
X131267142Y-87400057D01*
X132219523Y-88304819D02*
X131648095Y-88304819D01*
X131933809Y-88304819D02*
X131933809Y-87304819D01*
X131933809Y-87304819D02*
X131838571Y-87447676D01*
X131838571Y-87447676D02*
X131743333Y-87542914D01*
X131743333Y-87542914D02*
X131648095Y-87590533D01*
X133124285Y-87304819D02*
X132648095Y-87304819D01*
X132648095Y-87304819D02*
X132600476Y-87781009D01*
X132600476Y-87781009D02*
X132648095Y-87733390D01*
X132648095Y-87733390D02*
X132743333Y-87685771D01*
X132743333Y-87685771D02*
X132981428Y-87685771D01*
X132981428Y-87685771D02*
X133076666Y-87733390D01*
X133076666Y-87733390D02*
X133124285Y-87781009D01*
X133124285Y-87781009D02*
X133171904Y-87876247D01*
X133171904Y-87876247D02*
X133171904Y-88114342D01*
X133171904Y-88114342D02*
X133124285Y-88209580D01*
X133124285Y-88209580D02*
X133076666Y-88257200D01*
X133076666Y-88257200D02*
X132981428Y-88304819D01*
X132981428Y-88304819D02*
X132743333Y-88304819D01*
X132743333Y-88304819D02*
X132648095Y-88257200D01*
X132648095Y-88257200D02*
X132600476Y-88209580D01*
X134614819Y-83689304D02*
X135424342Y-83689304D01*
X135424342Y-83689304D02*
X135519580Y-83641685D01*
X135519580Y-83641685D02*
X135567200Y-83594066D01*
X135567200Y-83594066D02*
X135614819Y-83498828D01*
X135614819Y-83498828D02*
X135614819Y-83308352D01*
X135614819Y-83308352D02*
X135567200Y-83213114D01*
X135567200Y-83213114D02*
X135519580Y-83165495D01*
X135519580Y-83165495D02*
X135424342Y-83117876D01*
X135424342Y-83117876D02*
X134614819Y-83117876D01*
X134710057Y-82689304D02*
X134662438Y-82641685D01*
X134662438Y-82641685D02*
X134614819Y-82546447D01*
X134614819Y-82546447D02*
X134614819Y-82308352D01*
X134614819Y-82308352D02*
X134662438Y-82213114D01*
X134662438Y-82213114D02*
X134710057Y-82165495D01*
X134710057Y-82165495D02*
X134805295Y-82117876D01*
X134805295Y-82117876D02*
X134900533Y-82117876D01*
X134900533Y-82117876D02*
X135043390Y-82165495D01*
X135043390Y-82165495D02*
X135614819Y-82736923D01*
X135614819Y-82736923D02*
X135614819Y-82117876D01*
X131199405Y-87034819D02*
X131199405Y-86034819D01*
X131199405Y-86034819D02*
X131437500Y-86034819D01*
X131437500Y-86034819D02*
X131580357Y-86082438D01*
X131580357Y-86082438D02*
X131675595Y-86177676D01*
X131675595Y-86177676D02*
X131723214Y-86272914D01*
X131723214Y-86272914D02*
X131770833Y-86463390D01*
X131770833Y-86463390D02*
X131770833Y-86606247D01*
X131770833Y-86606247D02*
X131723214Y-86796723D01*
X131723214Y-86796723D02*
X131675595Y-86891961D01*
X131675595Y-86891961D02*
X131580357Y-86987200D01*
X131580357Y-86987200D02*
X131437500Y-87034819D01*
X131437500Y-87034819D02*
X131199405Y-87034819D01*
X132104167Y-86034819D02*
X132723214Y-86034819D01*
X132723214Y-86034819D02*
X132389881Y-86415771D01*
X132389881Y-86415771D02*
X132532738Y-86415771D01*
X132532738Y-86415771D02*
X132627976Y-86463390D01*
X132627976Y-86463390D02*
X132675595Y-86511009D01*
X132675595Y-86511009D02*
X132723214Y-86606247D01*
X132723214Y-86606247D02*
X132723214Y-86844342D01*
X132723214Y-86844342D02*
X132675595Y-86939580D01*
X132675595Y-86939580D02*
X132627976Y-86987200D01*
X132627976Y-86987200D02*
X132532738Y-87034819D01*
X132532738Y-87034819D02*
X132247024Y-87034819D01*
X132247024Y-87034819D02*
X132151786Y-86987200D01*
X132151786Y-86987200D02*
X132104167Y-86939580D01*
X146512142Y-73839580D02*
X146464523Y-73887200D01*
X146464523Y-73887200D02*
X146321666Y-73934819D01*
X146321666Y-73934819D02*
X146226428Y-73934819D01*
X146226428Y-73934819D02*
X146083571Y-73887200D01*
X146083571Y-73887200D02*
X145988333Y-73791961D01*
X145988333Y-73791961D02*
X145940714Y-73696723D01*
X145940714Y-73696723D02*
X145893095Y-73506247D01*
X145893095Y-73506247D02*
X145893095Y-73363390D01*
X145893095Y-73363390D02*
X145940714Y-73172914D01*
X145940714Y-73172914D02*
X145988333Y-73077676D01*
X145988333Y-73077676D02*
X146083571Y-72982438D01*
X146083571Y-72982438D02*
X146226428Y-72934819D01*
X146226428Y-72934819D02*
X146321666Y-72934819D01*
X146321666Y-72934819D02*
X146464523Y-72982438D01*
X146464523Y-72982438D02*
X146512142Y-73030057D01*
X147464523Y-73934819D02*
X146893095Y-73934819D01*
X147178809Y-73934819D02*
X147178809Y-72934819D01*
X147178809Y-72934819D02*
X147083571Y-73077676D01*
X147083571Y-73077676D02*
X146988333Y-73172914D01*
X146988333Y-73172914D02*
X146893095Y-73220533D01*
X148083571Y-72934819D02*
X148178809Y-72934819D01*
X148178809Y-72934819D02*
X148274047Y-72982438D01*
X148274047Y-72982438D02*
X148321666Y-73030057D01*
X148321666Y-73030057D02*
X148369285Y-73125295D01*
X148369285Y-73125295D02*
X148416904Y-73315771D01*
X148416904Y-73315771D02*
X148416904Y-73553866D01*
X148416904Y-73553866D02*
X148369285Y-73744342D01*
X148369285Y-73744342D02*
X148321666Y-73839580D01*
X148321666Y-73839580D02*
X148274047Y-73887200D01*
X148274047Y-73887200D02*
X148178809Y-73934819D01*
X148178809Y-73934819D02*
X148083571Y-73934819D01*
X148083571Y-73934819D02*
X147988333Y-73887200D01*
X147988333Y-73887200D02*
X147940714Y-73839580D01*
X147940714Y-73839580D02*
X147893095Y-73744342D01*
X147893095Y-73744342D02*
X147845476Y-73553866D01*
X147845476Y-73553866D02*
X147845476Y-73315771D01*
X147845476Y-73315771D02*
X147893095Y-73125295D01*
X147893095Y-73125295D02*
X147940714Y-73030057D01*
X147940714Y-73030057D02*
X147988333Y-72982438D01*
X147988333Y-72982438D02*
X148083571Y-72934819D01*
X146838095Y-78957319D02*
X146838095Y-79766842D01*
X146838095Y-79766842D02*
X146885714Y-79862080D01*
X146885714Y-79862080D02*
X146933333Y-79909700D01*
X146933333Y-79909700D02*
X147028571Y-79957319D01*
X147028571Y-79957319D02*
X147219047Y-79957319D01*
X147219047Y-79957319D02*
X147314285Y-79909700D01*
X147314285Y-79909700D02*
X147361904Y-79862080D01*
X147361904Y-79862080D02*
X147409523Y-79766842D01*
X147409523Y-79766842D02*
X147409523Y-78957319D01*
X147790476Y-78957319D02*
X148409523Y-78957319D01*
X148409523Y-78957319D02*
X148076190Y-79338271D01*
X148076190Y-79338271D02*
X148219047Y-79338271D01*
X148219047Y-79338271D02*
X148314285Y-79385890D01*
X148314285Y-79385890D02*
X148361904Y-79433509D01*
X148361904Y-79433509D02*
X148409523Y-79528747D01*
X148409523Y-79528747D02*
X148409523Y-79766842D01*
X148409523Y-79766842D02*
X148361904Y-79862080D01*
X148361904Y-79862080D02*
X148314285Y-79909700D01*
X148314285Y-79909700D02*
X148219047Y-79957319D01*
X148219047Y-79957319D02*
X147933333Y-79957319D01*
X147933333Y-79957319D02*
X147838095Y-79909700D01*
X147838095Y-79909700D02*
X147790476Y-79862080D01*
X147274819Y-106727857D02*
X146798628Y-107061190D01*
X147274819Y-107299285D02*
X146274819Y-107299285D01*
X146274819Y-107299285D02*
X146274819Y-106918333D01*
X146274819Y-106918333D02*
X146322438Y-106823095D01*
X146322438Y-106823095D02*
X146370057Y-106775476D01*
X146370057Y-106775476D02*
X146465295Y-106727857D01*
X146465295Y-106727857D02*
X146608152Y-106727857D01*
X146608152Y-106727857D02*
X146703390Y-106775476D01*
X146703390Y-106775476D02*
X146751009Y-106823095D01*
X146751009Y-106823095D02*
X146798628Y-106918333D01*
X146798628Y-106918333D02*
X146798628Y-107299285D01*
X147274819Y-105775476D02*
X147274819Y-106346904D01*
X147274819Y-106061190D02*
X146274819Y-106061190D01*
X146274819Y-106061190D02*
X146417676Y-106156428D01*
X146417676Y-106156428D02*
X146512914Y-106251666D01*
X146512914Y-106251666D02*
X146560533Y-106346904D01*
X147274819Y-104823095D02*
X147274819Y-105394523D01*
X147274819Y-105108809D02*
X146274819Y-105108809D01*
X146274819Y-105108809D02*
X146417676Y-105204047D01*
X146417676Y-105204047D02*
X146512914Y-105299285D01*
X146512914Y-105299285D02*
X146560533Y-105394523D01*
X148143333Y-93529580D02*
X148095714Y-93577200D01*
X148095714Y-93577200D02*
X147952857Y-93624819D01*
X147952857Y-93624819D02*
X147857619Y-93624819D01*
X147857619Y-93624819D02*
X147714762Y-93577200D01*
X147714762Y-93577200D02*
X147619524Y-93481961D01*
X147619524Y-93481961D02*
X147571905Y-93386723D01*
X147571905Y-93386723D02*
X147524286Y-93196247D01*
X147524286Y-93196247D02*
X147524286Y-93053390D01*
X147524286Y-93053390D02*
X147571905Y-92862914D01*
X147571905Y-92862914D02*
X147619524Y-92767676D01*
X147619524Y-92767676D02*
X147714762Y-92672438D01*
X147714762Y-92672438D02*
X147857619Y-92624819D01*
X147857619Y-92624819D02*
X147952857Y-92624819D01*
X147952857Y-92624819D02*
X148095714Y-92672438D01*
X148095714Y-92672438D02*
X148143333Y-92720057D01*
X149000476Y-92624819D02*
X148810000Y-92624819D01*
X148810000Y-92624819D02*
X148714762Y-92672438D01*
X148714762Y-92672438D02*
X148667143Y-92720057D01*
X148667143Y-92720057D02*
X148571905Y-92862914D01*
X148571905Y-92862914D02*
X148524286Y-93053390D01*
X148524286Y-93053390D02*
X148524286Y-93434342D01*
X148524286Y-93434342D02*
X148571905Y-93529580D01*
X148571905Y-93529580D02*
X148619524Y-93577200D01*
X148619524Y-93577200D02*
X148714762Y-93624819D01*
X148714762Y-93624819D02*
X148905238Y-93624819D01*
X148905238Y-93624819D02*
X149000476Y-93577200D01*
X149000476Y-93577200D02*
X149048095Y-93529580D01*
X149048095Y-93529580D02*
X149095714Y-93434342D01*
X149095714Y-93434342D02*
X149095714Y-93196247D01*
X149095714Y-93196247D02*
X149048095Y-93101009D01*
X149048095Y-93101009D02*
X149000476Y-93053390D01*
X149000476Y-93053390D02*
X148905238Y-93005771D01*
X148905238Y-93005771D02*
X148714762Y-93005771D01*
X148714762Y-93005771D02*
X148619524Y-93053390D01*
X148619524Y-93053390D02*
X148571905Y-93101009D01*
X148571905Y-93101009D02*
X148524286Y-93196247D01*
X132999580Y-99557857D02*
X133047200Y-99605476D01*
X133047200Y-99605476D02*
X133094819Y-99748333D01*
X133094819Y-99748333D02*
X133094819Y-99843571D01*
X133094819Y-99843571D02*
X133047200Y-99986428D01*
X133047200Y-99986428D02*
X132951961Y-100081666D01*
X132951961Y-100081666D02*
X132856723Y-100129285D01*
X132856723Y-100129285D02*
X132666247Y-100176904D01*
X132666247Y-100176904D02*
X132523390Y-100176904D01*
X132523390Y-100176904D02*
X132332914Y-100129285D01*
X132332914Y-100129285D02*
X132237676Y-100081666D01*
X132237676Y-100081666D02*
X132142438Y-99986428D01*
X132142438Y-99986428D02*
X132094819Y-99843571D01*
X132094819Y-99843571D02*
X132094819Y-99748333D01*
X132094819Y-99748333D02*
X132142438Y-99605476D01*
X132142438Y-99605476D02*
X132190057Y-99557857D01*
X133094819Y-98605476D02*
X133094819Y-99176904D01*
X133094819Y-98891190D02*
X132094819Y-98891190D01*
X132094819Y-98891190D02*
X132237676Y-98986428D01*
X132237676Y-98986428D02*
X132332914Y-99081666D01*
X132332914Y-99081666D02*
X132380533Y-99176904D01*
X132190057Y-98224523D02*
X132142438Y-98176904D01*
X132142438Y-98176904D02*
X132094819Y-98081666D01*
X132094819Y-98081666D02*
X132094819Y-97843571D01*
X132094819Y-97843571D02*
X132142438Y-97748333D01*
X132142438Y-97748333D02*
X132190057Y-97700714D01*
X132190057Y-97700714D02*
X132285295Y-97653095D01*
X132285295Y-97653095D02*
X132380533Y-97653095D01*
X132380533Y-97653095D02*
X132523390Y-97700714D01*
X132523390Y-97700714D02*
X133094819Y-98272142D01*
X133094819Y-98272142D02*
X133094819Y-97653095D01*
X150923333Y-81074819D02*
X150590000Y-80598628D01*
X150351905Y-81074819D02*
X150351905Y-80074819D01*
X150351905Y-80074819D02*
X150732857Y-80074819D01*
X150732857Y-80074819D02*
X150828095Y-80122438D01*
X150828095Y-80122438D02*
X150875714Y-80170057D01*
X150875714Y-80170057D02*
X150923333Y-80265295D01*
X150923333Y-80265295D02*
X150923333Y-80408152D01*
X150923333Y-80408152D02*
X150875714Y-80503390D01*
X150875714Y-80503390D02*
X150828095Y-80551009D01*
X150828095Y-80551009D02*
X150732857Y-80598628D01*
X150732857Y-80598628D02*
X150351905Y-80598628D01*
X151875714Y-81074819D02*
X151304286Y-81074819D01*
X151590000Y-81074819D02*
X151590000Y-80074819D01*
X151590000Y-80074819D02*
X151494762Y-80217676D01*
X151494762Y-80217676D02*
X151399524Y-80312914D01*
X151399524Y-80312914D02*
X151304286Y-80360533D01*
X133888333Y-79014819D02*
X133555000Y-78538628D01*
X133316905Y-79014819D02*
X133316905Y-78014819D01*
X133316905Y-78014819D02*
X133697857Y-78014819D01*
X133697857Y-78014819D02*
X133793095Y-78062438D01*
X133793095Y-78062438D02*
X133840714Y-78110057D01*
X133840714Y-78110057D02*
X133888333Y-78205295D01*
X133888333Y-78205295D02*
X133888333Y-78348152D01*
X133888333Y-78348152D02*
X133840714Y-78443390D01*
X133840714Y-78443390D02*
X133793095Y-78491009D01*
X133793095Y-78491009D02*
X133697857Y-78538628D01*
X133697857Y-78538628D02*
X133316905Y-78538628D01*
X134221667Y-78014819D02*
X134840714Y-78014819D01*
X134840714Y-78014819D02*
X134507381Y-78395771D01*
X134507381Y-78395771D02*
X134650238Y-78395771D01*
X134650238Y-78395771D02*
X134745476Y-78443390D01*
X134745476Y-78443390D02*
X134793095Y-78491009D01*
X134793095Y-78491009D02*
X134840714Y-78586247D01*
X134840714Y-78586247D02*
X134840714Y-78824342D01*
X134840714Y-78824342D02*
X134793095Y-78919580D01*
X134793095Y-78919580D02*
X134745476Y-78967200D01*
X134745476Y-78967200D02*
X134650238Y-79014819D01*
X134650238Y-79014819D02*
X134364524Y-79014819D01*
X134364524Y-79014819D02*
X134269286Y-78967200D01*
X134269286Y-78967200D02*
X134221667Y-78919580D01*
X134027142Y-105074819D02*
X133693809Y-104598628D01*
X133455714Y-105074819D02*
X133455714Y-104074819D01*
X133455714Y-104074819D02*
X133836666Y-104074819D01*
X133836666Y-104074819D02*
X133931904Y-104122438D01*
X133931904Y-104122438D02*
X133979523Y-104170057D01*
X133979523Y-104170057D02*
X134027142Y-104265295D01*
X134027142Y-104265295D02*
X134027142Y-104408152D01*
X134027142Y-104408152D02*
X133979523Y-104503390D01*
X133979523Y-104503390D02*
X133931904Y-104551009D01*
X133931904Y-104551009D02*
X133836666Y-104598628D01*
X133836666Y-104598628D02*
X133455714Y-104598628D01*
X134979523Y-105074819D02*
X134408095Y-105074819D01*
X134693809Y-105074819D02*
X134693809Y-104074819D01*
X134693809Y-104074819D02*
X134598571Y-104217676D01*
X134598571Y-104217676D02*
X134503333Y-104312914D01*
X134503333Y-104312914D02*
X134408095Y-104360533D01*
X135884285Y-104074819D02*
X135408095Y-104074819D01*
X135408095Y-104074819D02*
X135360476Y-104551009D01*
X135360476Y-104551009D02*
X135408095Y-104503390D01*
X135408095Y-104503390D02*
X135503333Y-104455771D01*
X135503333Y-104455771D02*
X135741428Y-104455771D01*
X135741428Y-104455771D02*
X135836666Y-104503390D01*
X135836666Y-104503390D02*
X135884285Y-104551009D01*
X135884285Y-104551009D02*
X135931904Y-104646247D01*
X135931904Y-104646247D02*
X135931904Y-104884342D01*
X135931904Y-104884342D02*
X135884285Y-104979580D01*
X135884285Y-104979580D02*
X135836666Y-105027200D01*
X135836666Y-105027200D02*
X135741428Y-105074819D01*
X135741428Y-105074819D02*
X135503333Y-105074819D01*
X135503333Y-105074819D02*
X135408095Y-105027200D01*
X135408095Y-105027200D02*
X135360476Y-104979580D01*
X128768333Y-99334819D02*
X128435000Y-98858628D01*
X128196905Y-99334819D02*
X128196905Y-98334819D01*
X128196905Y-98334819D02*
X128577857Y-98334819D01*
X128577857Y-98334819D02*
X128673095Y-98382438D01*
X128673095Y-98382438D02*
X128720714Y-98430057D01*
X128720714Y-98430057D02*
X128768333Y-98525295D01*
X128768333Y-98525295D02*
X128768333Y-98668152D01*
X128768333Y-98668152D02*
X128720714Y-98763390D01*
X128720714Y-98763390D02*
X128673095Y-98811009D01*
X128673095Y-98811009D02*
X128577857Y-98858628D01*
X128577857Y-98858628D02*
X128196905Y-98858628D01*
X129673095Y-98334819D02*
X129196905Y-98334819D01*
X129196905Y-98334819D02*
X129149286Y-98811009D01*
X129149286Y-98811009D02*
X129196905Y-98763390D01*
X129196905Y-98763390D02*
X129292143Y-98715771D01*
X129292143Y-98715771D02*
X129530238Y-98715771D01*
X129530238Y-98715771D02*
X129625476Y-98763390D01*
X129625476Y-98763390D02*
X129673095Y-98811009D01*
X129673095Y-98811009D02*
X129720714Y-98906247D01*
X129720714Y-98906247D02*
X129720714Y-99144342D01*
X129720714Y-99144342D02*
X129673095Y-99239580D01*
X129673095Y-99239580D02*
X129625476Y-99287200D01*
X129625476Y-99287200D02*
X129530238Y-99334819D01*
X129530238Y-99334819D02*
X129292143Y-99334819D01*
X129292143Y-99334819D02*
X129196905Y-99287200D01*
X129196905Y-99287200D02*
X129149286Y-99239580D01*
X128392142Y-95609580D02*
X128344523Y-95657200D01*
X128344523Y-95657200D02*
X128201666Y-95704819D01*
X128201666Y-95704819D02*
X128106428Y-95704819D01*
X128106428Y-95704819D02*
X127963571Y-95657200D01*
X127963571Y-95657200D02*
X127868333Y-95561961D01*
X127868333Y-95561961D02*
X127820714Y-95466723D01*
X127820714Y-95466723D02*
X127773095Y-95276247D01*
X127773095Y-95276247D02*
X127773095Y-95133390D01*
X127773095Y-95133390D02*
X127820714Y-94942914D01*
X127820714Y-94942914D02*
X127868333Y-94847676D01*
X127868333Y-94847676D02*
X127963571Y-94752438D01*
X127963571Y-94752438D02*
X128106428Y-94704819D01*
X128106428Y-94704819D02*
X128201666Y-94704819D01*
X128201666Y-94704819D02*
X128344523Y-94752438D01*
X128344523Y-94752438D02*
X128392142Y-94800057D01*
X129344523Y-95704819D02*
X128773095Y-95704819D01*
X129058809Y-95704819D02*
X129058809Y-94704819D01*
X129058809Y-94704819D02*
X128963571Y-94847676D01*
X128963571Y-94847676D02*
X128868333Y-94942914D01*
X128868333Y-94942914D02*
X128773095Y-94990533D01*
X130296904Y-95704819D02*
X129725476Y-95704819D01*
X130011190Y-95704819D02*
X130011190Y-94704819D01*
X130011190Y-94704819D02*
X129915952Y-94847676D01*
X129915952Y-94847676D02*
X129820714Y-94942914D01*
X129820714Y-94942914D02*
X129725476Y-94990533D01*
X153634819Y-77547857D02*
X153158628Y-77881190D01*
X153634819Y-78119285D02*
X152634819Y-78119285D01*
X152634819Y-78119285D02*
X152634819Y-77738333D01*
X152634819Y-77738333D02*
X152682438Y-77643095D01*
X152682438Y-77643095D02*
X152730057Y-77595476D01*
X152730057Y-77595476D02*
X152825295Y-77547857D01*
X152825295Y-77547857D02*
X152968152Y-77547857D01*
X152968152Y-77547857D02*
X153063390Y-77595476D01*
X153063390Y-77595476D02*
X153111009Y-77643095D01*
X153111009Y-77643095D02*
X153158628Y-77738333D01*
X153158628Y-77738333D02*
X153158628Y-78119285D01*
X153634819Y-76595476D02*
X153634819Y-77166904D01*
X153634819Y-76881190D02*
X152634819Y-76881190D01*
X152634819Y-76881190D02*
X152777676Y-76976428D01*
X152777676Y-76976428D02*
X152872914Y-77071666D01*
X152872914Y-77071666D02*
X152920533Y-77166904D01*
X152968152Y-75738333D02*
X153634819Y-75738333D01*
X152587200Y-75976428D02*
X153301485Y-76214523D01*
X153301485Y-76214523D02*
X153301485Y-75595476D01*
X139703333Y-92749580D02*
X139655714Y-92797200D01*
X139655714Y-92797200D02*
X139512857Y-92844819D01*
X139512857Y-92844819D02*
X139417619Y-92844819D01*
X139417619Y-92844819D02*
X139274762Y-92797200D01*
X139274762Y-92797200D02*
X139179524Y-92701961D01*
X139179524Y-92701961D02*
X139131905Y-92606723D01*
X139131905Y-92606723D02*
X139084286Y-92416247D01*
X139084286Y-92416247D02*
X139084286Y-92273390D01*
X139084286Y-92273390D02*
X139131905Y-92082914D01*
X139131905Y-92082914D02*
X139179524Y-91987676D01*
X139179524Y-91987676D02*
X139274762Y-91892438D01*
X139274762Y-91892438D02*
X139417619Y-91844819D01*
X139417619Y-91844819D02*
X139512857Y-91844819D01*
X139512857Y-91844819D02*
X139655714Y-91892438D01*
X139655714Y-91892438D02*
X139703333Y-91940057D01*
X140608095Y-91844819D02*
X140131905Y-91844819D01*
X140131905Y-91844819D02*
X140084286Y-92321009D01*
X140084286Y-92321009D02*
X140131905Y-92273390D01*
X140131905Y-92273390D02*
X140227143Y-92225771D01*
X140227143Y-92225771D02*
X140465238Y-92225771D01*
X140465238Y-92225771D02*
X140560476Y-92273390D01*
X140560476Y-92273390D02*
X140608095Y-92321009D01*
X140608095Y-92321009D02*
X140655714Y-92416247D01*
X140655714Y-92416247D02*
X140655714Y-92654342D01*
X140655714Y-92654342D02*
X140608095Y-92749580D01*
X140608095Y-92749580D02*
X140560476Y-92797200D01*
X140560476Y-92797200D02*
X140465238Y-92844819D01*
X140465238Y-92844819D02*
X140227143Y-92844819D01*
X140227143Y-92844819D02*
X140131905Y-92797200D01*
X140131905Y-92797200D02*
X140084286Y-92749580D01*
X144309580Y-97327857D02*
X144357200Y-97375476D01*
X144357200Y-97375476D02*
X144404819Y-97518333D01*
X144404819Y-97518333D02*
X144404819Y-97613571D01*
X144404819Y-97613571D02*
X144357200Y-97756428D01*
X144357200Y-97756428D02*
X144261961Y-97851666D01*
X144261961Y-97851666D02*
X144166723Y-97899285D01*
X144166723Y-97899285D02*
X143976247Y-97946904D01*
X143976247Y-97946904D02*
X143833390Y-97946904D01*
X143833390Y-97946904D02*
X143642914Y-97899285D01*
X143642914Y-97899285D02*
X143547676Y-97851666D01*
X143547676Y-97851666D02*
X143452438Y-97756428D01*
X143452438Y-97756428D02*
X143404819Y-97613571D01*
X143404819Y-97613571D02*
X143404819Y-97518333D01*
X143404819Y-97518333D02*
X143452438Y-97375476D01*
X143452438Y-97375476D02*
X143500057Y-97327857D01*
X144404819Y-96375476D02*
X144404819Y-96946904D01*
X144404819Y-96661190D02*
X143404819Y-96661190D01*
X143404819Y-96661190D02*
X143547676Y-96756428D01*
X143547676Y-96756428D02*
X143642914Y-96851666D01*
X143642914Y-96851666D02*
X143690533Y-96946904D01*
X143833390Y-95804047D02*
X143785771Y-95899285D01*
X143785771Y-95899285D02*
X143738152Y-95946904D01*
X143738152Y-95946904D02*
X143642914Y-95994523D01*
X143642914Y-95994523D02*
X143595295Y-95994523D01*
X143595295Y-95994523D02*
X143500057Y-95946904D01*
X143500057Y-95946904D02*
X143452438Y-95899285D01*
X143452438Y-95899285D02*
X143404819Y-95804047D01*
X143404819Y-95804047D02*
X143404819Y-95613571D01*
X143404819Y-95613571D02*
X143452438Y-95518333D01*
X143452438Y-95518333D02*
X143500057Y-95470714D01*
X143500057Y-95470714D02*
X143595295Y-95423095D01*
X143595295Y-95423095D02*
X143642914Y-95423095D01*
X143642914Y-95423095D02*
X143738152Y-95470714D01*
X143738152Y-95470714D02*
X143785771Y-95518333D01*
X143785771Y-95518333D02*
X143833390Y-95613571D01*
X143833390Y-95613571D02*
X143833390Y-95804047D01*
X143833390Y-95804047D02*
X143881009Y-95899285D01*
X143881009Y-95899285D02*
X143928628Y-95946904D01*
X143928628Y-95946904D02*
X144023866Y-95994523D01*
X144023866Y-95994523D02*
X144214342Y-95994523D01*
X144214342Y-95994523D02*
X144309580Y-95946904D01*
X144309580Y-95946904D02*
X144357200Y-95899285D01*
X144357200Y-95899285D02*
X144404819Y-95804047D01*
X144404819Y-95804047D02*
X144404819Y-95613571D01*
X144404819Y-95613571D02*
X144357200Y-95518333D01*
X144357200Y-95518333D02*
X144309580Y-95470714D01*
X144309580Y-95470714D02*
X144214342Y-95423095D01*
X144214342Y-95423095D02*
X144023866Y-95423095D01*
X144023866Y-95423095D02*
X143928628Y-95470714D01*
X143928628Y-95470714D02*
X143881009Y-95518333D01*
X143881009Y-95518333D02*
X143833390Y-95613571D01*
X131277142Y-83914819D02*
X130943809Y-83438628D01*
X130705714Y-83914819D02*
X130705714Y-82914819D01*
X130705714Y-82914819D02*
X131086666Y-82914819D01*
X131086666Y-82914819D02*
X131181904Y-82962438D01*
X131181904Y-82962438D02*
X131229523Y-83010057D01*
X131229523Y-83010057D02*
X131277142Y-83105295D01*
X131277142Y-83105295D02*
X131277142Y-83248152D01*
X131277142Y-83248152D02*
X131229523Y-83343390D01*
X131229523Y-83343390D02*
X131181904Y-83391009D01*
X131181904Y-83391009D02*
X131086666Y-83438628D01*
X131086666Y-83438628D02*
X130705714Y-83438628D01*
X132229523Y-83914819D02*
X131658095Y-83914819D01*
X131943809Y-83914819D02*
X131943809Y-82914819D01*
X131943809Y-82914819D02*
X131848571Y-83057676D01*
X131848571Y-83057676D02*
X131753333Y-83152914D01*
X131753333Y-83152914D02*
X131658095Y-83200533D01*
X133086666Y-82914819D02*
X132896190Y-82914819D01*
X132896190Y-82914819D02*
X132800952Y-82962438D01*
X132800952Y-82962438D02*
X132753333Y-83010057D01*
X132753333Y-83010057D02*
X132658095Y-83152914D01*
X132658095Y-83152914D02*
X132610476Y-83343390D01*
X132610476Y-83343390D02*
X132610476Y-83724342D01*
X132610476Y-83724342D02*
X132658095Y-83819580D01*
X132658095Y-83819580D02*
X132705714Y-83867200D01*
X132705714Y-83867200D02*
X132800952Y-83914819D01*
X132800952Y-83914819D02*
X132991428Y-83914819D01*
X132991428Y-83914819D02*
X133086666Y-83867200D01*
X133086666Y-83867200D02*
X133134285Y-83819580D01*
X133134285Y-83819580D02*
X133181904Y-83724342D01*
X133181904Y-83724342D02*
X133181904Y-83486247D01*
X133181904Y-83486247D02*
X133134285Y-83391009D01*
X133134285Y-83391009D02*
X133086666Y-83343390D01*
X133086666Y-83343390D02*
X132991428Y-83295771D01*
X132991428Y-83295771D02*
X132800952Y-83295771D01*
X132800952Y-83295771D02*
X132705714Y-83343390D01*
X132705714Y-83343390D02*
X132658095Y-83391009D01*
X132658095Y-83391009D02*
X132610476Y-83486247D01*
X150704819Y-92386666D02*
X150228628Y-92719999D01*
X150704819Y-92958094D02*
X149704819Y-92958094D01*
X149704819Y-92958094D02*
X149704819Y-92577142D01*
X149704819Y-92577142D02*
X149752438Y-92481904D01*
X149752438Y-92481904D02*
X149800057Y-92434285D01*
X149800057Y-92434285D02*
X149895295Y-92386666D01*
X149895295Y-92386666D02*
X150038152Y-92386666D01*
X150038152Y-92386666D02*
X150133390Y-92434285D01*
X150133390Y-92434285D02*
X150181009Y-92481904D01*
X150181009Y-92481904D02*
X150228628Y-92577142D01*
X150228628Y-92577142D02*
X150228628Y-92958094D01*
X150133390Y-91815237D02*
X150085771Y-91910475D01*
X150085771Y-91910475D02*
X150038152Y-91958094D01*
X150038152Y-91958094D02*
X149942914Y-92005713D01*
X149942914Y-92005713D02*
X149895295Y-92005713D01*
X149895295Y-92005713D02*
X149800057Y-91958094D01*
X149800057Y-91958094D02*
X149752438Y-91910475D01*
X149752438Y-91910475D02*
X149704819Y-91815237D01*
X149704819Y-91815237D02*
X149704819Y-91624761D01*
X149704819Y-91624761D02*
X149752438Y-91529523D01*
X149752438Y-91529523D02*
X149800057Y-91481904D01*
X149800057Y-91481904D02*
X149895295Y-91434285D01*
X149895295Y-91434285D02*
X149942914Y-91434285D01*
X149942914Y-91434285D02*
X150038152Y-91481904D01*
X150038152Y-91481904D02*
X150085771Y-91529523D01*
X150085771Y-91529523D02*
X150133390Y-91624761D01*
X150133390Y-91624761D02*
X150133390Y-91815237D01*
X150133390Y-91815237D02*
X150181009Y-91910475D01*
X150181009Y-91910475D02*
X150228628Y-91958094D01*
X150228628Y-91958094D02*
X150323866Y-92005713D01*
X150323866Y-92005713D02*
X150514342Y-92005713D01*
X150514342Y-92005713D02*
X150609580Y-91958094D01*
X150609580Y-91958094D02*
X150657200Y-91910475D01*
X150657200Y-91910475D02*
X150704819Y-91815237D01*
X150704819Y-91815237D02*
X150704819Y-91624761D01*
X150704819Y-91624761D02*
X150657200Y-91529523D01*
X150657200Y-91529523D02*
X150609580Y-91481904D01*
X150609580Y-91481904D02*
X150514342Y-91434285D01*
X150514342Y-91434285D02*
X150323866Y-91434285D01*
X150323866Y-91434285D02*
X150228628Y-91481904D01*
X150228628Y-91481904D02*
X150181009Y-91529523D01*
X150181009Y-91529523D02*
X150133390Y-91624761D01*
X131554819Y-83077857D02*
X131078628Y-83411190D01*
X131554819Y-83649285D02*
X130554819Y-83649285D01*
X130554819Y-83649285D02*
X130554819Y-83268333D01*
X130554819Y-83268333D02*
X130602438Y-83173095D01*
X130602438Y-83173095D02*
X130650057Y-83125476D01*
X130650057Y-83125476D02*
X130745295Y-83077857D01*
X130745295Y-83077857D02*
X130888152Y-83077857D01*
X130888152Y-83077857D02*
X130983390Y-83125476D01*
X130983390Y-83125476D02*
X131031009Y-83173095D01*
X131031009Y-83173095D02*
X131078628Y-83268333D01*
X131078628Y-83268333D02*
X131078628Y-83649285D01*
X131554819Y-82125476D02*
X131554819Y-82696904D01*
X131554819Y-82411190D02*
X130554819Y-82411190D01*
X130554819Y-82411190D02*
X130697676Y-82506428D01*
X130697676Y-82506428D02*
X130792914Y-82601666D01*
X130792914Y-82601666D02*
X130840533Y-82696904D01*
X130983390Y-81554047D02*
X130935771Y-81649285D01*
X130935771Y-81649285D02*
X130888152Y-81696904D01*
X130888152Y-81696904D02*
X130792914Y-81744523D01*
X130792914Y-81744523D02*
X130745295Y-81744523D01*
X130745295Y-81744523D02*
X130650057Y-81696904D01*
X130650057Y-81696904D02*
X130602438Y-81649285D01*
X130602438Y-81649285D02*
X130554819Y-81554047D01*
X130554819Y-81554047D02*
X130554819Y-81363571D01*
X130554819Y-81363571D02*
X130602438Y-81268333D01*
X130602438Y-81268333D02*
X130650057Y-81220714D01*
X130650057Y-81220714D02*
X130745295Y-81173095D01*
X130745295Y-81173095D02*
X130792914Y-81173095D01*
X130792914Y-81173095D02*
X130888152Y-81220714D01*
X130888152Y-81220714D02*
X130935771Y-81268333D01*
X130935771Y-81268333D02*
X130983390Y-81363571D01*
X130983390Y-81363571D02*
X130983390Y-81554047D01*
X130983390Y-81554047D02*
X131031009Y-81649285D01*
X131031009Y-81649285D02*
X131078628Y-81696904D01*
X131078628Y-81696904D02*
X131173866Y-81744523D01*
X131173866Y-81744523D02*
X131364342Y-81744523D01*
X131364342Y-81744523D02*
X131459580Y-81696904D01*
X131459580Y-81696904D02*
X131507200Y-81649285D01*
X131507200Y-81649285D02*
X131554819Y-81554047D01*
X131554819Y-81554047D02*
X131554819Y-81363571D01*
X131554819Y-81363571D02*
X131507200Y-81268333D01*
X131507200Y-81268333D02*
X131459580Y-81220714D01*
X131459580Y-81220714D02*
X131364342Y-81173095D01*
X131364342Y-81173095D02*
X131173866Y-81173095D01*
X131173866Y-81173095D02*
X131078628Y-81220714D01*
X131078628Y-81220714D02*
X131031009Y-81268333D01*
X131031009Y-81268333D02*
X130983390Y-81363571D01*
X126914819Y-87481666D02*
X126438628Y-87814999D01*
X126914819Y-88053094D02*
X125914819Y-88053094D01*
X125914819Y-88053094D02*
X125914819Y-87672142D01*
X125914819Y-87672142D02*
X125962438Y-87576904D01*
X125962438Y-87576904D02*
X126010057Y-87529285D01*
X126010057Y-87529285D02*
X126105295Y-87481666D01*
X126105295Y-87481666D02*
X126248152Y-87481666D01*
X126248152Y-87481666D02*
X126343390Y-87529285D01*
X126343390Y-87529285D02*
X126391009Y-87576904D01*
X126391009Y-87576904D02*
X126438628Y-87672142D01*
X126438628Y-87672142D02*
X126438628Y-88053094D01*
X126248152Y-86624523D02*
X126914819Y-86624523D01*
X125867200Y-86862618D02*
X126581485Y-87100713D01*
X126581485Y-87100713D02*
X126581485Y-86481666D01*
X138322142Y-81984819D02*
X137988809Y-81508628D01*
X137750714Y-81984819D02*
X137750714Y-80984819D01*
X137750714Y-80984819D02*
X138131666Y-80984819D01*
X138131666Y-80984819D02*
X138226904Y-81032438D01*
X138226904Y-81032438D02*
X138274523Y-81080057D01*
X138274523Y-81080057D02*
X138322142Y-81175295D01*
X138322142Y-81175295D02*
X138322142Y-81318152D01*
X138322142Y-81318152D02*
X138274523Y-81413390D01*
X138274523Y-81413390D02*
X138226904Y-81461009D01*
X138226904Y-81461009D02*
X138131666Y-81508628D01*
X138131666Y-81508628D02*
X137750714Y-81508628D01*
X139274523Y-81984819D02*
X138703095Y-81984819D01*
X138988809Y-81984819D02*
X138988809Y-80984819D01*
X138988809Y-80984819D02*
X138893571Y-81127676D01*
X138893571Y-81127676D02*
X138798333Y-81222914D01*
X138798333Y-81222914D02*
X138703095Y-81270533D01*
X139893571Y-80984819D02*
X139988809Y-80984819D01*
X139988809Y-80984819D02*
X140084047Y-81032438D01*
X140084047Y-81032438D02*
X140131666Y-81080057D01*
X140131666Y-81080057D02*
X140179285Y-81175295D01*
X140179285Y-81175295D02*
X140226904Y-81365771D01*
X140226904Y-81365771D02*
X140226904Y-81603866D01*
X140226904Y-81603866D02*
X140179285Y-81794342D01*
X140179285Y-81794342D02*
X140131666Y-81889580D01*
X140131666Y-81889580D02*
X140084047Y-81937200D01*
X140084047Y-81937200D02*
X139988809Y-81984819D01*
X139988809Y-81984819D02*
X139893571Y-81984819D01*
X139893571Y-81984819D02*
X139798333Y-81937200D01*
X139798333Y-81937200D02*
X139750714Y-81889580D01*
X139750714Y-81889580D02*
X139703095Y-81794342D01*
X139703095Y-81794342D02*
X139655476Y-81603866D01*
X139655476Y-81603866D02*
X139655476Y-81365771D01*
X139655476Y-81365771D02*
X139703095Y-81175295D01*
X139703095Y-81175295D02*
X139750714Y-81080057D01*
X139750714Y-81080057D02*
X139798333Y-81032438D01*
X139798333Y-81032438D02*
X139893571Y-80984819D01*
X127884819Y-79144404D02*
X128694342Y-79144404D01*
X128694342Y-79144404D02*
X128789580Y-79096785D01*
X128789580Y-79096785D02*
X128837200Y-79049166D01*
X128837200Y-79049166D02*
X128884819Y-78953928D01*
X128884819Y-78953928D02*
X128884819Y-78763452D01*
X128884819Y-78763452D02*
X128837200Y-78668214D01*
X128837200Y-78668214D02*
X128789580Y-78620595D01*
X128789580Y-78620595D02*
X128694342Y-78572976D01*
X128694342Y-78572976D02*
X127884819Y-78572976D01*
X128218152Y-77668214D02*
X128884819Y-77668214D01*
X127837200Y-77906309D02*
X128551485Y-78144404D01*
X128551485Y-78144404D02*
X128551485Y-77525357D01*
X128728333Y-97699580D02*
X128680714Y-97747200D01*
X128680714Y-97747200D02*
X128537857Y-97794819D01*
X128537857Y-97794819D02*
X128442619Y-97794819D01*
X128442619Y-97794819D02*
X128299762Y-97747200D01*
X128299762Y-97747200D02*
X128204524Y-97651961D01*
X128204524Y-97651961D02*
X128156905Y-97556723D01*
X128156905Y-97556723D02*
X128109286Y-97366247D01*
X128109286Y-97366247D02*
X128109286Y-97223390D01*
X128109286Y-97223390D02*
X128156905Y-97032914D01*
X128156905Y-97032914D02*
X128204524Y-96937676D01*
X128204524Y-96937676D02*
X128299762Y-96842438D01*
X128299762Y-96842438D02*
X128442619Y-96794819D01*
X128442619Y-96794819D02*
X128537857Y-96794819D01*
X128537857Y-96794819D02*
X128680714Y-96842438D01*
X128680714Y-96842438D02*
X128728333Y-96890057D01*
X129109286Y-96890057D02*
X129156905Y-96842438D01*
X129156905Y-96842438D02*
X129252143Y-96794819D01*
X129252143Y-96794819D02*
X129490238Y-96794819D01*
X129490238Y-96794819D02*
X129585476Y-96842438D01*
X129585476Y-96842438D02*
X129633095Y-96890057D01*
X129633095Y-96890057D02*
X129680714Y-96985295D01*
X129680714Y-96985295D02*
X129680714Y-97080533D01*
X129680714Y-97080533D02*
X129633095Y-97223390D01*
X129633095Y-97223390D02*
X129061667Y-97794819D01*
X129061667Y-97794819D02*
X129680714Y-97794819D01*
X133997142Y-105209580D02*
X133949523Y-105257200D01*
X133949523Y-105257200D02*
X133806666Y-105304819D01*
X133806666Y-105304819D02*
X133711428Y-105304819D01*
X133711428Y-105304819D02*
X133568571Y-105257200D01*
X133568571Y-105257200D02*
X133473333Y-105161961D01*
X133473333Y-105161961D02*
X133425714Y-105066723D01*
X133425714Y-105066723D02*
X133378095Y-104876247D01*
X133378095Y-104876247D02*
X133378095Y-104733390D01*
X133378095Y-104733390D02*
X133425714Y-104542914D01*
X133425714Y-104542914D02*
X133473333Y-104447676D01*
X133473333Y-104447676D02*
X133568571Y-104352438D01*
X133568571Y-104352438D02*
X133711428Y-104304819D01*
X133711428Y-104304819D02*
X133806666Y-104304819D01*
X133806666Y-104304819D02*
X133949523Y-104352438D01*
X133949523Y-104352438D02*
X133997142Y-104400057D01*
X134949523Y-105304819D02*
X134378095Y-105304819D01*
X134663809Y-105304819D02*
X134663809Y-104304819D01*
X134663809Y-104304819D02*
X134568571Y-104447676D01*
X134568571Y-104447676D02*
X134473333Y-104542914D01*
X134473333Y-104542914D02*
X134378095Y-104590533D01*
X135282857Y-104304819D02*
X135949523Y-104304819D01*
X135949523Y-104304819D02*
X135520952Y-105304819D01*
X130212142Y-74459580D02*
X130164523Y-74507200D01*
X130164523Y-74507200D02*
X130021666Y-74554819D01*
X130021666Y-74554819D02*
X129926428Y-74554819D01*
X129926428Y-74554819D02*
X129783571Y-74507200D01*
X129783571Y-74507200D02*
X129688333Y-74411961D01*
X129688333Y-74411961D02*
X129640714Y-74316723D01*
X129640714Y-74316723D02*
X129593095Y-74126247D01*
X129593095Y-74126247D02*
X129593095Y-73983390D01*
X129593095Y-73983390D02*
X129640714Y-73792914D01*
X129640714Y-73792914D02*
X129688333Y-73697676D01*
X129688333Y-73697676D02*
X129783571Y-73602438D01*
X129783571Y-73602438D02*
X129926428Y-73554819D01*
X129926428Y-73554819D02*
X130021666Y-73554819D01*
X130021666Y-73554819D02*
X130164523Y-73602438D01*
X130164523Y-73602438D02*
X130212142Y-73650057D01*
X131164523Y-74554819D02*
X130593095Y-74554819D01*
X130878809Y-74554819D02*
X130878809Y-73554819D01*
X130878809Y-73554819D02*
X130783571Y-73697676D01*
X130783571Y-73697676D02*
X130688333Y-73792914D01*
X130688333Y-73792914D02*
X130593095Y-73840533D01*
X132021666Y-73554819D02*
X131831190Y-73554819D01*
X131831190Y-73554819D02*
X131735952Y-73602438D01*
X131735952Y-73602438D02*
X131688333Y-73650057D01*
X131688333Y-73650057D02*
X131593095Y-73792914D01*
X131593095Y-73792914D02*
X131545476Y-73983390D01*
X131545476Y-73983390D02*
X131545476Y-74364342D01*
X131545476Y-74364342D02*
X131593095Y-74459580D01*
X131593095Y-74459580D02*
X131640714Y-74507200D01*
X131640714Y-74507200D02*
X131735952Y-74554819D01*
X131735952Y-74554819D02*
X131926428Y-74554819D01*
X131926428Y-74554819D02*
X132021666Y-74507200D01*
X132021666Y-74507200D02*
X132069285Y-74459580D01*
X132069285Y-74459580D02*
X132116904Y-74364342D01*
X132116904Y-74364342D02*
X132116904Y-74126247D01*
X132116904Y-74126247D02*
X132069285Y-74031009D01*
X132069285Y-74031009D02*
X132021666Y-73983390D01*
X132021666Y-73983390D02*
X131926428Y-73935771D01*
X131926428Y-73935771D02*
X131735952Y-73935771D01*
X131735952Y-73935771D02*
X131640714Y-73983390D01*
X131640714Y-73983390D02*
X131593095Y-74031009D01*
X131593095Y-74031009D02*
X131545476Y-74126247D01*
X134007142Y-106624819D02*
X133673809Y-106148628D01*
X133435714Y-106624819D02*
X133435714Y-105624819D01*
X133435714Y-105624819D02*
X133816666Y-105624819D01*
X133816666Y-105624819D02*
X133911904Y-105672438D01*
X133911904Y-105672438D02*
X133959523Y-105720057D01*
X133959523Y-105720057D02*
X134007142Y-105815295D01*
X134007142Y-105815295D02*
X134007142Y-105958152D01*
X134007142Y-105958152D02*
X133959523Y-106053390D01*
X133959523Y-106053390D02*
X133911904Y-106101009D01*
X133911904Y-106101009D02*
X133816666Y-106148628D01*
X133816666Y-106148628D02*
X133435714Y-106148628D01*
X134959523Y-106624819D02*
X134388095Y-106624819D01*
X134673809Y-106624819D02*
X134673809Y-105624819D01*
X134673809Y-105624819D02*
X134578571Y-105767676D01*
X134578571Y-105767676D02*
X134483333Y-105862914D01*
X134483333Y-105862914D02*
X134388095Y-105910533D01*
X135292857Y-105624819D02*
X135959523Y-105624819D01*
X135959523Y-105624819D02*
X135530952Y-106624819D01*
X130074819Y-84623094D02*
X129074819Y-84623094D01*
X129074819Y-84623094D02*
X129074819Y-84384999D01*
X129074819Y-84384999D02*
X129122438Y-84242142D01*
X129122438Y-84242142D02*
X129217676Y-84146904D01*
X129217676Y-84146904D02*
X129312914Y-84099285D01*
X129312914Y-84099285D02*
X129503390Y-84051666D01*
X129503390Y-84051666D02*
X129646247Y-84051666D01*
X129646247Y-84051666D02*
X129836723Y-84099285D01*
X129836723Y-84099285D02*
X129931961Y-84146904D01*
X129931961Y-84146904D02*
X130027200Y-84242142D01*
X130027200Y-84242142D02*
X130074819Y-84384999D01*
X130074819Y-84384999D02*
X130074819Y-84623094D01*
X130074819Y-83099285D02*
X130074819Y-83670713D01*
X130074819Y-83384999D02*
X129074819Y-83384999D01*
X129074819Y-83384999D02*
X129217676Y-83480237D01*
X129217676Y-83480237D02*
X129312914Y-83575475D01*
X129312914Y-83575475D02*
X129360533Y-83670713D01*
X146949580Y-106281666D02*
X146997200Y-106329285D01*
X146997200Y-106329285D02*
X147044819Y-106472142D01*
X147044819Y-106472142D02*
X147044819Y-106567380D01*
X147044819Y-106567380D02*
X146997200Y-106710237D01*
X146997200Y-106710237D02*
X146901961Y-106805475D01*
X146901961Y-106805475D02*
X146806723Y-106853094D01*
X146806723Y-106853094D02*
X146616247Y-106900713D01*
X146616247Y-106900713D02*
X146473390Y-106900713D01*
X146473390Y-106900713D02*
X146282914Y-106853094D01*
X146282914Y-106853094D02*
X146187676Y-106805475D01*
X146187676Y-106805475D02*
X146092438Y-106710237D01*
X146092438Y-106710237D02*
X146044819Y-106567380D01*
X146044819Y-106567380D02*
X146044819Y-106472142D01*
X146044819Y-106472142D02*
X146092438Y-106329285D01*
X146092438Y-106329285D02*
X146140057Y-106281666D01*
X147044819Y-105805475D02*
X147044819Y-105614999D01*
X147044819Y-105614999D02*
X146997200Y-105519761D01*
X146997200Y-105519761D02*
X146949580Y-105472142D01*
X146949580Y-105472142D02*
X146806723Y-105376904D01*
X146806723Y-105376904D02*
X146616247Y-105329285D01*
X146616247Y-105329285D02*
X146235295Y-105329285D01*
X146235295Y-105329285D02*
X146140057Y-105376904D01*
X146140057Y-105376904D02*
X146092438Y-105424523D01*
X146092438Y-105424523D02*
X146044819Y-105519761D01*
X146044819Y-105519761D02*
X146044819Y-105710237D01*
X146044819Y-105710237D02*
X146092438Y-105805475D01*
X146092438Y-105805475D02*
X146140057Y-105853094D01*
X146140057Y-105853094D02*
X146235295Y-105900713D01*
X146235295Y-105900713D02*
X146473390Y-105900713D01*
X146473390Y-105900713D02*
X146568628Y-105853094D01*
X146568628Y-105853094D02*
X146616247Y-105805475D01*
X146616247Y-105805475D02*
X146663866Y-105710237D01*
X146663866Y-105710237D02*
X146663866Y-105519761D01*
X146663866Y-105519761D02*
X146616247Y-105424523D01*
X146616247Y-105424523D02*
X146568628Y-105376904D01*
X146568628Y-105376904D02*
X146473390Y-105329285D01*
X150504819Y-89271666D02*
X150028628Y-89604999D01*
X150504819Y-89843094D02*
X149504819Y-89843094D01*
X149504819Y-89843094D02*
X149504819Y-89462142D01*
X149504819Y-89462142D02*
X149552438Y-89366904D01*
X149552438Y-89366904D02*
X149600057Y-89319285D01*
X149600057Y-89319285D02*
X149695295Y-89271666D01*
X149695295Y-89271666D02*
X149838152Y-89271666D01*
X149838152Y-89271666D02*
X149933390Y-89319285D01*
X149933390Y-89319285D02*
X149981009Y-89366904D01*
X149981009Y-89366904D02*
X150028628Y-89462142D01*
X150028628Y-89462142D02*
X150028628Y-89843094D01*
X149504819Y-88938332D02*
X149504819Y-88271666D01*
X149504819Y-88271666D02*
X150504819Y-88700237D01*
X149209580Y-77141666D02*
X149257200Y-77189285D01*
X149257200Y-77189285D02*
X149304819Y-77332142D01*
X149304819Y-77332142D02*
X149304819Y-77427380D01*
X149304819Y-77427380D02*
X149257200Y-77570237D01*
X149257200Y-77570237D02*
X149161961Y-77665475D01*
X149161961Y-77665475D02*
X149066723Y-77713094D01*
X149066723Y-77713094D02*
X148876247Y-77760713D01*
X148876247Y-77760713D02*
X148733390Y-77760713D01*
X148733390Y-77760713D02*
X148542914Y-77713094D01*
X148542914Y-77713094D02*
X148447676Y-77665475D01*
X148447676Y-77665475D02*
X148352438Y-77570237D01*
X148352438Y-77570237D02*
X148304819Y-77427380D01*
X148304819Y-77427380D02*
X148304819Y-77332142D01*
X148304819Y-77332142D02*
X148352438Y-77189285D01*
X148352438Y-77189285D02*
X148400057Y-77141666D01*
X148638152Y-76284523D02*
X149304819Y-76284523D01*
X148257200Y-76522618D02*
X148971485Y-76760713D01*
X148971485Y-76760713D02*
X148971485Y-76141666D01*
X146159580Y-83991666D02*
X146207200Y-84039285D01*
X146207200Y-84039285D02*
X146254819Y-84182142D01*
X146254819Y-84182142D02*
X146254819Y-84277380D01*
X146254819Y-84277380D02*
X146207200Y-84420237D01*
X146207200Y-84420237D02*
X146111961Y-84515475D01*
X146111961Y-84515475D02*
X146016723Y-84563094D01*
X146016723Y-84563094D02*
X145826247Y-84610713D01*
X145826247Y-84610713D02*
X145683390Y-84610713D01*
X145683390Y-84610713D02*
X145492914Y-84563094D01*
X145492914Y-84563094D02*
X145397676Y-84515475D01*
X145397676Y-84515475D02*
X145302438Y-84420237D01*
X145302438Y-84420237D02*
X145254819Y-84277380D01*
X145254819Y-84277380D02*
X145254819Y-84182142D01*
X145254819Y-84182142D02*
X145302438Y-84039285D01*
X145302438Y-84039285D02*
X145350057Y-83991666D01*
X146254819Y-83039285D02*
X146254819Y-83610713D01*
X146254819Y-83324999D02*
X145254819Y-83324999D01*
X145254819Y-83324999D02*
X145397676Y-83420237D01*
X145397676Y-83420237D02*
X145492914Y-83515475D01*
X145492914Y-83515475D02*
X145540533Y-83610713D01*
X141798333Y-83479580D02*
X141750714Y-83527200D01*
X141750714Y-83527200D02*
X141607857Y-83574819D01*
X141607857Y-83574819D02*
X141512619Y-83574819D01*
X141512619Y-83574819D02*
X141369762Y-83527200D01*
X141369762Y-83527200D02*
X141274524Y-83431961D01*
X141274524Y-83431961D02*
X141226905Y-83336723D01*
X141226905Y-83336723D02*
X141179286Y-83146247D01*
X141179286Y-83146247D02*
X141179286Y-83003390D01*
X141179286Y-83003390D02*
X141226905Y-82812914D01*
X141226905Y-82812914D02*
X141274524Y-82717676D01*
X141274524Y-82717676D02*
X141369762Y-82622438D01*
X141369762Y-82622438D02*
X141512619Y-82574819D01*
X141512619Y-82574819D02*
X141607857Y-82574819D01*
X141607857Y-82574819D02*
X141750714Y-82622438D01*
X141750714Y-82622438D02*
X141798333Y-82670057D01*
X142369762Y-83003390D02*
X142274524Y-82955771D01*
X142274524Y-82955771D02*
X142226905Y-82908152D01*
X142226905Y-82908152D02*
X142179286Y-82812914D01*
X142179286Y-82812914D02*
X142179286Y-82765295D01*
X142179286Y-82765295D02*
X142226905Y-82670057D01*
X142226905Y-82670057D02*
X142274524Y-82622438D01*
X142274524Y-82622438D02*
X142369762Y-82574819D01*
X142369762Y-82574819D02*
X142560238Y-82574819D01*
X142560238Y-82574819D02*
X142655476Y-82622438D01*
X142655476Y-82622438D02*
X142703095Y-82670057D01*
X142703095Y-82670057D02*
X142750714Y-82765295D01*
X142750714Y-82765295D02*
X142750714Y-82812914D01*
X142750714Y-82812914D02*
X142703095Y-82908152D01*
X142703095Y-82908152D02*
X142655476Y-82955771D01*
X142655476Y-82955771D02*
X142560238Y-83003390D01*
X142560238Y-83003390D02*
X142369762Y-83003390D01*
X142369762Y-83003390D02*
X142274524Y-83051009D01*
X142274524Y-83051009D02*
X142226905Y-83098628D01*
X142226905Y-83098628D02*
X142179286Y-83193866D01*
X142179286Y-83193866D02*
X142179286Y-83384342D01*
X142179286Y-83384342D02*
X142226905Y-83479580D01*
X142226905Y-83479580D02*
X142274524Y-83527200D01*
X142274524Y-83527200D02*
X142369762Y-83574819D01*
X142369762Y-83574819D02*
X142560238Y-83574819D01*
X142560238Y-83574819D02*
X142655476Y-83527200D01*
X142655476Y-83527200D02*
X142703095Y-83479580D01*
X142703095Y-83479580D02*
X142750714Y-83384342D01*
X142750714Y-83384342D02*
X142750714Y-83193866D01*
X142750714Y-83193866D02*
X142703095Y-83098628D01*
X142703095Y-83098628D02*
X142655476Y-83051009D01*
X142655476Y-83051009D02*
X142560238Y-83003390D01*
X138312142Y-83534819D02*
X137978809Y-83058628D01*
X137740714Y-83534819D02*
X137740714Y-82534819D01*
X137740714Y-82534819D02*
X138121666Y-82534819D01*
X138121666Y-82534819D02*
X138216904Y-82582438D01*
X138216904Y-82582438D02*
X138264523Y-82630057D01*
X138264523Y-82630057D02*
X138312142Y-82725295D01*
X138312142Y-82725295D02*
X138312142Y-82868152D01*
X138312142Y-82868152D02*
X138264523Y-82963390D01*
X138264523Y-82963390D02*
X138216904Y-83011009D01*
X138216904Y-83011009D02*
X138121666Y-83058628D01*
X138121666Y-83058628D02*
X137740714Y-83058628D01*
X139264523Y-83534819D02*
X138693095Y-83534819D01*
X138978809Y-83534819D02*
X138978809Y-82534819D01*
X138978809Y-82534819D02*
X138883571Y-82677676D01*
X138883571Y-82677676D02*
X138788333Y-82772914D01*
X138788333Y-82772914D02*
X138693095Y-82820533D01*
X139645476Y-82630057D02*
X139693095Y-82582438D01*
X139693095Y-82582438D02*
X139788333Y-82534819D01*
X139788333Y-82534819D02*
X140026428Y-82534819D01*
X140026428Y-82534819D02*
X140121666Y-82582438D01*
X140121666Y-82582438D02*
X140169285Y-82630057D01*
X140169285Y-82630057D02*
X140216904Y-82725295D01*
X140216904Y-82725295D02*
X140216904Y-82820533D01*
X140216904Y-82820533D02*
X140169285Y-82963390D01*
X140169285Y-82963390D02*
X139597857Y-83534819D01*
X139597857Y-83534819D02*
X140216904Y-83534819D01*
X144459580Y-77341666D02*
X144507200Y-77389285D01*
X144507200Y-77389285D02*
X144554819Y-77532142D01*
X144554819Y-77532142D02*
X144554819Y-77627380D01*
X144554819Y-77627380D02*
X144507200Y-77770237D01*
X144507200Y-77770237D02*
X144411961Y-77865475D01*
X144411961Y-77865475D02*
X144316723Y-77913094D01*
X144316723Y-77913094D02*
X144126247Y-77960713D01*
X144126247Y-77960713D02*
X143983390Y-77960713D01*
X143983390Y-77960713D02*
X143792914Y-77913094D01*
X143792914Y-77913094D02*
X143697676Y-77865475D01*
X143697676Y-77865475D02*
X143602438Y-77770237D01*
X143602438Y-77770237D02*
X143554819Y-77627380D01*
X143554819Y-77627380D02*
X143554819Y-77532142D01*
X143554819Y-77532142D02*
X143602438Y-77389285D01*
X143602438Y-77389285D02*
X143650057Y-77341666D01*
X143554819Y-77008332D02*
X143554819Y-76389285D01*
X143554819Y-76389285D02*
X143935771Y-76722618D01*
X143935771Y-76722618D02*
X143935771Y-76579761D01*
X143935771Y-76579761D02*
X143983390Y-76484523D01*
X143983390Y-76484523D02*
X144031009Y-76436904D01*
X144031009Y-76436904D02*
X144126247Y-76389285D01*
X144126247Y-76389285D02*
X144364342Y-76389285D01*
X144364342Y-76389285D02*
X144459580Y-76436904D01*
X144459580Y-76436904D02*
X144507200Y-76484523D01*
X144507200Y-76484523D02*
X144554819Y-76579761D01*
X144554819Y-76579761D02*
X144554819Y-76865475D01*
X144554819Y-76865475D02*
X144507200Y-76960713D01*
X144507200Y-76960713D02*
X144459580Y-77008332D01*
X138704819Y-80861666D02*
X138228628Y-81194999D01*
X138704819Y-81433094D02*
X137704819Y-81433094D01*
X137704819Y-81433094D02*
X137704819Y-81052142D01*
X137704819Y-81052142D02*
X137752438Y-80956904D01*
X137752438Y-80956904D02*
X137800057Y-80909285D01*
X137800057Y-80909285D02*
X137895295Y-80861666D01*
X137895295Y-80861666D02*
X138038152Y-80861666D01*
X138038152Y-80861666D02*
X138133390Y-80909285D01*
X138133390Y-80909285D02*
X138181009Y-80956904D01*
X138181009Y-80956904D02*
X138228628Y-81052142D01*
X138228628Y-81052142D02*
X138228628Y-81433094D01*
X137800057Y-80480713D02*
X137752438Y-80433094D01*
X137752438Y-80433094D02*
X137704819Y-80337856D01*
X137704819Y-80337856D02*
X137704819Y-80099761D01*
X137704819Y-80099761D02*
X137752438Y-80004523D01*
X137752438Y-80004523D02*
X137800057Y-79956904D01*
X137800057Y-79956904D02*
X137895295Y-79909285D01*
X137895295Y-79909285D02*
X137990533Y-79909285D01*
X137990533Y-79909285D02*
X138133390Y-79956904D01*
X138133390Y-79956904D02*
X138704819Y-80528332D01*
X138704819Y-80528332D02*
X138704819Y-79909285D01*
X130826531Y-91291127D02*
X131398951Y-91863547D01*
X131398951Y-91863547D02*
X131499966Y-91897219D01*
X131499966Y-91897219D02*
X131567310Y-91897219D01*
X131567310Y-91897219D02*
X131668325Y-91863547D01*
X131668325Y-91863547D02*
X131803012Y-91728860D01*
X131803012Y-91728860D02*
X131836684Y-91627845D01*
X131836684Y-91627845D02*
X131836684Y-91560501D01*
X131836684Y-91560501D02*
X131803012Y-91459486D01*
X131803012Y-91459486D02*
X131230592Y-90887066D01*
X132644806Y-90887066D02*
X132240745Y-91291127D01*
X132442775Y-91089097D02*
X131735669Y-90381990D01*
X131735669Y-90381990D02*
X131769340Y-90550349D01*
X131769340Y-90550349D02*
X131769340Y-90685036D01*
X131769340Y-90685036D02*
X131735669Y-90786051D01*
X144844580Y-80362857D02*
X144892200Y-80410476D01*
X144892200Y-80410476D02*
X144939819Y-80553333D01*
X144939819Y-80553333D02*
X144939819Y-80648571D01*
X144939819Y-80648571D02*
X144892200Y-80791428D01*
X144892200Y-80791428D02*
X144796961Y-80886666D01*
X144796961Y-80886666D02*
X144701723Y-80934285D01*
X144701723Y-80934285D02*
X144511247Y-80981904D01*
X144511247Y-80981904D02*
X144368390Y-80981904D01*
X144368390Y-80981904D02*
X144177914Y-80934285D01*
X144177914Y-80934285D02*
X144082676Y-80886666D01*
X144082676Y-80886666D02*
X143987438Y-80791428D01*
X143987438Y-80791428D02*
X143939819Y-80648571D01*
X143939819Y-80648571D02*
X143939819Y-80553333D01*
X143939819Y-80553333D02*
X143987438Y-80410476D01*
X143987438Y-80410476D02*
X144035057Y-80362857D01*
X144939819Y-79410476D02*
X144939819Y-79981904D01*
X144939819Y-79696190D02*
X143939819Y-79696190D01*
X143939819Y-79696190D02*
X144082676Y-79791428D01*
X144082676Y-79791428D02*
X144177914Y-79886666D01*
X144177914Y-79886666D02*
X144225533Y-79981904D01*
X144273152Y-78553333D02*
X144939819Y-78553333D01*
X143892200Y-78791428D02*
X144606485Y-79029523D01*
X144606485Y-79029523D02*
X144606485Y-78410476D01*
X144348333Y-90414819D02*
X144015000Y-89938628D01*
X143776905Y-90414819D02*
X143776905Y-89414819D01*
X143776905Y-89414819D02*
X144157857Y-89414819D01*
X144157857Y-89414819D02*
X144253095Y-89462438D01*
X144253095Y-89462438D02*
X144300714Y-89510057D01*
X144300714Y-89510057D02*
X144348333Y-89605295D01*
X144348333Y-89605295D02*
X144348333Y-89748152D01*
X144348333Y-89748152D02*
X144300714Y-89843390D01*
X144300714Y-89843390D02*
X144253095Y-89891009D01*
X144253095Y-89891009D02*
X144157857Y-89938628D01*
X144157857Y-89938628D02*
X143776905Y-89938628D01*
X144824524Y-90414819D02*
X145015000Y-90414819D01*
X145015000Y-90414819D02*
X145110238Y-90367200D01*
X145110238Y-90367200D02*
X145157857Y-90319580D01*
X145157857Y-90319580D02*
X145253095Y-90176723D01*
X145253095Y-90176723D02*
X145300714Y-89986247D01*
X145300714Y-89986247D02*
X145300714Y-89605295D01*
X145300714Y-89605295D02*
X145253095Y-89510057D01*
X145253095Y-89510057D02*
X145205476Y-89462438D01*
X145205476Y-89462438D02*
X145110238Y-89414819D01*
X145110238Y-89414819D02*
X144919762Y-89414819D01*
X144919762Y-89414819D02*
X144824524Y-89462438D01*
X144824524Y-89462438D02*
X144776905Y-89510057D01*
X144776905Y-89510057D02*
X144729286Y-89605295D01*
X144729286Y-89605295D02*
X144729286Y-89843390D01*
X144729286Y-89843390D02*
X144776905Y-89938628D01*
X144776905Y-89938628D02*
X144824524Y-89986247D01*
X144824524Y-89986247D02*
X144919762Y-90033866D01*
X144919762Y-90033866D02*
X145110238Y-90033866D01*
X145110238Y-90033866D02*
X145205476Y-89986247D01*
X145205476Y-89986247D02*
X145253095Y-89938628D01*
X145253095Y-89938628D02*
X145300714Y-89843390D01*
X142078333Y-91609580D02*
X142030714Y-91657200D01*
X142030714Y-91657200D02*
X141887857Y-91704819D01*
X141887857Y-91704819D02*
X141792619Y-91704819D01*
X141792619Y-91704819D02*
X141649762Y-91657200D01*
X141649762Y-91657200D02*
X141554524Y-91561961D01*
X141554524Y-91561961D02*
X141506905Y-91466723D01*
X141506905Y-91466723D02*
X141459286Y-91276247D01*
X141459286Y-91276247D02*
X141459286Y-91133390D01*
X141459286Y-91133390D02*
X141506905Y-90942914D01*
X141506905Y-90942914D02*
X141554524Y-90847676D01*
X141554524Y-90847676D02*
X141649762Y-90752438D01*
X141649762Y-90752438D02*
X141792619Y-90704819D01*
X141792619Y-90704819D02*
X141887857Y-90704819D01*
X141887857Y-90704819D02*
X142030714Y-90752438D01*
X142030714Y-90752438D02*
X142078333Y-90800057D01*
X142411667Y-90704819D02*
X143078333Y-90704819D01*
X143078333Y-90704819D02*
X142649762Y-91704819D01*
D11*
%TO.C,U6*%
X146055000Y-87790000D02*
X146055000Y-86930000D01*
X146060000Y-84130000D02*
X146060000Y-83270000D01*
X147165000Y-87790000D02*
X146055000Y-87790000D01*
X147170000Y-83270000D02*
X146060000Y-83270000D01*
X149465000Y-83270000D02*
X150575000Y-83270000D01*
X149465000Y-87790000D02*
X150575000Y-87790000D01*
X150575000Y-83270000D02*
X150575000Y-84130000D01*
X150575000Y-87790000D02*
X150575000Y-86930000D01*
X148245000Y-83270000D02*
X147965000Y-83270000D01*
X147965000Y-82990000D01*
X148245000Y-83270000D01*
G36*
X148245000Y-83270000D02*
G01*
X147965000Y-83270000D01*
X147965000Y-82990000D01*
X148245000Y-83270000D01*
G37*
%TO.C,C13*%
X150410000Y-81615580D02*
X150410000Y-81334420D01*
X151430000Y-81615580D02*
X151430000Y-81334420D01*
%TO.C,R13*%
X146207500Y-106342258D02*
X146207500Y-105867742D01*
X147252500Y-106342258D02*
X147252500Y-105867742D01*
%TO.C,J1*%
X133210000Y-74525000D02*
X133210000Y-76225000D01*
X142550000Y-74525000D02*
X142550000Y-76225000D01*
%TO.C,D2*%
X143285000Y-76852500D02*
X143285000Y-79137500D01*
X143285000Y-79137500D02*
X144755000Y-79137500D01*
X144755000Y-79137500D02*
X144755000Y-76852500D01*
%TO.C,R6*%
X147472742Y-90907500D02*
X147947258Y-90907500D01*
X147472742Y-91952500D02*
X147947258Y-91952500D01*
%TO.C,U5*%
X143485000Y-98895000D02*
X143485000Y-96945000D01*
X143485000Y-98895000D02*
X143485000Y-100845000D01*
X148605000Y-98895000D02*
X148605000Y-96945000D01*
X148605000Y-98895000D02*
X148605000Y-100845000D01*
X143580000Y-101595000D02*
X143250000Y-101835000D01*
X143250000Y-101355000D01*
X143580000Y-101595000D01*
G36*
X143580000Y-101595000D02*
G01*
X143250000Y-101835000D01*
X143250000Y-101355000D01*
X143580000Y-101595000D01*
G37*
%TO.C,C15*%
X132050580Y-85910000D02*
X131769420Y-85910000D01*
X132050580Y-86930000D02*
X131769420Y-86930000D01*
D12*
%TO.C,U2*%
G36*
X133576201Y-83117900D02*
G01*
X133322201Y-83117900D01*
X133322201Y-82736900D01*
X133576201Y-82736900D01*
X133576201Y-83117900D01*
G37*
D11*
%TO.C,D3*%
X130452500Y-87275000D02*
X130452500Y-88745000D01*
X130452500Y-88745000D02*
X132737500Y-88745000D01*
X132737500Y-87275000D02*
X130452500Y-87275000D01*
%TO.C,C10*%
X147014420Y-74400000D02*
X147295580Y-74400000D01*
X147014420Y-75420000D02*
X147295580Y-75420000D01*
%TO.C,U3*%
X147190000Y-76110000D02*
X148600000Y-76110000D01*
X147200000Y-78430000D02*
X148600000Y-78430000D01*
X146820000Y-76160000D02*
X146580000Y-75830000D01*
X147060000Y-75830000D01*
X146820000Y-76160000D01*
G36*
X146820000Y-76160000D02*
G01*
X146580000Y-75830000D01*
X147060000Y-75830000D01*
X146820000Y-76160000D01*
G37*
%TO.C,R11*%
X147727500Y-106322258D02*
X147727500Y-105847742D01*
X148772500Y-106322258D02*
X148772500Y-105847742D01*
%TO.C,C6*%
X149440000Y-92034420D02*
X149440000Y-92315580D01*
X150460000Y-92034420D02*
X150460000Y-92315580D01*
%TO.C,C12*%
X130700000Y-98774420D02*
X130700000Y-99055580D01*
X131720000Y-98774420D02*
X131720000Y-99055580D01*
%TO.C,R1*%
X151327258Y-78667500D02*
X150852742Y-78667500D01*
X151327258Y-79712500D02*
X150852742Y-79712500D01*
%TO.C,R3*%
X133817742Y-79467500D02*
X134292258Y-79467500D01*
X133817742Y-80512500D02*
X134292258Y-80512500D01*
%TO.C,R15*%
X134907258Y-102667500D02*
X134432742Y-102667500D01*
X134907258Y-103712500D02*
X134432742Y-103712500D01*
%TO.C,R5*%
X129172258Y-96927500D02*
X128697742Y-96927500D01*
X129172258Y-97972500D02*
X128697742Y-97972500D01*
%TO.C,C11*%
X129175580Y-93310000D02*
X128894420Y-93310000D01*
X129175580Y-94330000D02*
X128894420Y-94330000D01*
%TO.C,R14*%
X151227500Y-76667742D02*
X151227500Y-77142258D01*
X152272500Y-76667742D02*
X152272500Y-77142258D01*
%TO.C,C5*%
X139729420Y-93310000D02*
X140010580Y-93310000D01*
X139729420Y-94330000D02*
X140010580Y-94330000D01*
%TO.C,C18*%
X142010000Y-96544420D02*
X142010000Y-96825580D01*
X143030000Y-96544420D02*
X143030000Y-96825580D01*
%TO.C,R16*%
X131682742Y-84367500D02*
X132157258Y-84367500D01*
X131682742Y-85412500D02*
X132157258Y-85412500D01*
%TO.C,R8*%
X150957500Y-92402258D02*
X150957500Y-91927742D01*
X152002500Y-92402258D02*
X152002500Y-91927742D01*
%TO.C,R18*%
X132007500Y-82672258D02*
X132007500Y-82197742D01*
X133052500Y-82672258D02*
X133052500Y-82197742D01*
%TO.C,R4*%
X127367500Y-87552258D02*
X127367500Y-87077742D01*
X128412500Y-87552258D02*
X128412500Y-87077742D01*
%TO.C,R10*%
X138727742Y-82437500D02*
X139202258Y-82437500D01*
X138727742Y-83482500D02*
X139202258Y-83482500D01*
%TO.C,U4*%
X129270000Y-78382500D02*
X129270000Y-77582500D01*
X129270000Y-78382500D02*
X129270000Y-79182500D01*
X132390000Y-78382500D02*
X132390000Y-77582500D01*
X132390000Y-78382500D02*
X132390000Y-79182500D01*
X129320000Y-79682500D02*
X128990000Y-79922500D01*
X128990000Y-79442500D01*
X129320000Y-79682500D01*
G36*
X129320000Y-79682500D02*
G01*
X128990000Y-79922500D01*
X128990000Y-79442500D01*
X129320000Y-79682500D01*
G37*
%TO.C,C2*%
X129035580Y-95400000D02*
X128754420Y-95400000D01*
X129035580Y-96420000D02*
X128754420Y-96420000D01*
%TO.C,C17*%
X134499420Y-105770000D02*
X134780580Y-105770000D01*
X134499420Y-106790000D02*
X134780580Y-106790000D01*
%TO.C,C16*%
X130714420Y-75020000D02*
X130995580Y-75020000D01*
X130714420Y-76040000D02*
X130995580Y-76040000D01*
%TO.C,R17*%
X134887258Y-104217500D02*
X134412742Y-104217500D01*
X134887258Y-105262500D02*
X134412742Y-105262500D01*
%TO.C,D1*%
X126920000Y-82025000D02*
X126920000Y-84885000D01*
X128840000Y-82025000D02*
X126920000Y-82025000D01*
X128840000Y-84885000D02*
X128840000Y-82025000D01*
%TO.C,C9*%
X144650000Y-105974420D02*
X144650000Y-106255580D01*
X145670000Y-105974420D02*
X145670000Y-106255580D01*
%TO.C,R7*%
X150957500Y-89342258D02*
X150957500Y-88867742D01*
X152002500Y-89342258D02*
X152002500Y-88867742D01*
%TO.C,C4*%
X149770000Y-77115580D02*
X149770000Y-76834420D01*
X150790000Y-77115580D02*
X150790000Y-76834420D01*
%TO.C,C1*%
X142890000Y-80813748D02*
X142890000Y-82236252D01*
X144710000Y-80813748D02*
X144710000Y-82236252D01*
%TO.C,C8*%
X141824420Y-84040000D02*
X142105580Y-84040000D01*
X141824420Y-85060000D02*
X142105580Y-85060000D01*
%TO.C,R12*%
X138717742Y-83987500D02*
X139192258Y-83987500D01*
X138717742Y-85032500D02*
X139192258Y-85032500D01*
%TO.C,C3*%
X145020000Y-77315580D02*
X145020000Y-77034420D01*
X146040000Y-77315580D02*
X146040000Y-77034420D01*
%TO.C,R2*%
X139157500Y-80932258D02*
X139157500Y-80457742D01*
X140202500Y-80932258D02*
X140202500Y-80457742D01*
%TO.C,U1*%
X131103778Y-93510224D02*
X130980035Y-93633968D01*
X131103778Y-94181976D02*
X130937608Y-94015806D01*
X134123124Y-90490878D02*
X134459000Y-90155003D01*
X134459000Y-90155003D02*
X134794876Y-90490878D01*
X134459000Y-97537197D02*
X134123124Y-97201322D01*
X134794876Y-97201322D02*
X134459000Y-97537197D01*
X137814222Y-94181976D02*
X138150097Y-93846100D01*
X138150097Y-93846100D02*
X137814222Y-93510224D01*
X130767903Y-93846100D02*
X130364852Y-93782460D01*
X130704263Y-93443049D01*
X130767903Y-93846100D01*
G36*
X130767903Y-93846100D02*
G01*
X130364852Y-93782460D01*
X130704263Y-93443049D01*
X130767903Y-93846100D01*
G37*
%TO.C,C14*%
X148016252Y-78930000D02*
X146593748Y-78930000D01*
X148016252Y-80750000D02*
X146593748Y-80750000D01*
%TO.C,R9*%
X144277742Y-90867500D02*
X144752258Y-90867500D01*
X144277742Y-91912500D02*
X144752258Y-91912500D01*
%TO.C,C7*%
X142385580Y-89310000D02*
X142104420Y-89310000D01*
X142385580Y-90330000D02*
X142104420Y-90330000D01*
%TD*%
M02*
