%TF.GenerationSoftware,KiCad,Pcbnew,9.0.2*%
%TF.CreationDate,2025-07-12T05:54:41+02:00*%
%TF.ProjectId,synthmate_L432,73796e74-686d-4617-9465-5f4c3433322e,rev?*%
%TF.SameCoordinates,Original*%
%TF.FileFunction,Copper,L1,Top*%
%TF.FilePolarity,Positive*%
%FSLAX46Y46*%
G04 Gerber Fmt 4.6, Leading zero omitted, Abs format (unit mm)*
G04 Created by KiCad (PCBNEW 9.0.2) date 2025-07-12 05:54:41*
%MOMM*%
%LPD*%
G01*
G04 APERTURE LIST*
G04 Aperture macros list*
%AMRoundRect*
0 Rectangle with rounded corners*
0 $1 Rounding radius*
0 $2 $3 $4 $5 $6 $7 $8 $9 X,Y pos of 4 corners*
0 Add a 4 corners polygon primitive as box body*
4,1,4,$2,$3,$4,$5,$6,$7,$8,$9,$2,$3,0*
0 Add four circle primitives for the rounded corners*
1,1,$1+$1,$2,$3*
1,1,$1+$1,$4,$5*
1,1,$1+$1,$6,$7*
1,1,$1+$1,$8,$9*
0 Add four rect primitives between the rounded corners*
20,1,$1+$1,$2,$3,$4,$5,0*
20,1,$1+$1,$4,$5,$6,$7,0*
20,1,$1+$1,$6,$7,$8,$9,0*
20,1,$1+$1,$8,$9,$2,$3,0*%
G04 Aperture macros list end*
%TA.AperFunction,SMDPad,CuDef*%
%ADD10RoundRect,0.075000X-0.200000X0.075000X-0.200000X-0.075000X0.200000X-0.075000X0.200000X0.075000X0*%
%TD*%
%TA.AperFunction,SMDPad,CuDef*%
%ADD11R,0.850000X0.280000*%
%TD*%
%TA.AperFunction,SMDPad,CuDef*%
%ADD12R,0.280000X0.850000*%
%TD*%
%TA.AperFunction,SMDPad,CuDef*%
%ADD13R,2.050000X2.050000*%
%TD*%
%TA.AperFunction,SMDPad,CuDef*%
%ADD14RoundRect,0.237500X-0.237500X0.300000X-0.237500X-0.300000X0.237500X-0.300000X0.237500X0.300000X0*%
%TD*%
%TA.AperFunction,SMDPad,CuDef*%
%ADD15RoundRect,0.237500X-0.250000X-0.237500X0.250000X-0.237500X0.250000X0.237500X-0.250000X0.237500X0*%
%TD*%
%TA.AperFunction,SMDPad,CuDef*%
%ADD16RoundRect,0.218750X0.218750X0.256250X-0.218750X0.256250X-0.218750X-0.256250X0.218750X-0.256250X0*%
%TD*%
%TA.AperFunction,SMDPad,CuDef*%
%ADD17RoundRect,0.237500X-0.300000X-0.237500X0.300000X-0.237500X0.300000X0.237500X-0.300000X0.237500X0*%
%TD*%
%TA.AperFunction,ComponentPad*%
%ADD18R,1.700000X1.700000*%
%TD*%
%TA.AperFunction,ComponentPad*%
%ADD19C,1.700000*%
%TD*%
%TA.AperFunction,SMDPad,CuDef*%
%ADD20RoundRect,0.100000X-0.225000X-0.100000X0.225000X-0.100000X0.225000X0.100000X-0.225000X0.100000X0*%
%TD*%
%TA.AperFunction,SMDPad,CuDef*%
%ADD21RoundRect,0.237500X0.250000X0.237500X-0.250000X0.237500X-0.250000X-0.237500X0.250000X-0.237500X0*%
%TD*%
%TA.AperFunction,SMDPad,CuDef*%
%ADD22RoundRect,0.237500X0.237500X-0.300000X0.237500X0.300000X-0.237500X0.300000X-0.237500X-0.300000X0*%
%TD*%
%TA.AperFunction,SMDPad,CuDef*%
%ADD23R,0.740000X2.400000*%
%TD*%
%TA.AperFunction,SMDPad,CuDef*%
%ADD24RoundRect,0.237500X-0.237500X0.250000X-0.237500X-0.250000X0.237500X-0.250000X0.237500X0.250000X0*%
%TD*%
%TA.AperFunction,SMDPad,CuDef*%
%ADD25RoundRect,0.250000X-0.325000X-0.450000X0.325000X-0.450000X0.325000X0.450000X-0.325000X0.450000X0*%
%TD*%
%TA.AperFunction,SMDPad,CuDef*%
%ADD26RoundRect,0.250000X0.325000X0.650000X-0.325000X0.650000X-0.325000X-0.650000X0.325000X-0.650000X0*%
%TD*%
%TA.AperFunction,SMDPad,CuDef*%
%ADD27RoundRect,0.150000X0.425000X-0.150000X0.425000X0.150000X-0.425000X0.150000X-0.425000X-0.150000X0*%
%TD*%
%TA.AperFunction,SMDPad,CuDef*%
%ADD28RoundRect,0.075000X0.500000X-0.075000X0.500000X0.075000X-0.500000X0.075000X-0.500000X-0.075000X0*%
%TD*%
%TA.AperFunction,HeatsinkPad*%
%ADD29O,2.100000X1.000000*%
%TD*%
%TA.AperFunction,HeatsinkPad*%
%ADD30O,1.800000X1.000000*%
%TD*%
%TA.AperFunction,SMDPad,CuDef*%
%ADD31RoundRect,0.062500X0.375000X0.062500X-0.375000X0.062500X-0.375000X-0.062500X0.375000X-0.062500X0*%
%TD*%
%TA.AperFunction,SMDPad,CuDef*%
%ADD32RoundRect,0.062500X0.062500X0.375000X-0.062500X0.375000X-0.062500X-0.375000X0.062500X-0.375000X0*%
%TD*%
%TA.AperFunction,HeatsinkPad*%
%ADD33R,3.450000X3.450000*%
%TD*%
%TA.AperFunction,SMDPad,CuDef*%
%ADD34RoundRect,0.250000X-0.650000X0.325000X-0.650000X-0.325000X0.650000X-0.325000X0.650000X0.325000X0*%
%TD*%
%TA.AperFunction,ComponentPad*%
%ADD35C,2.000000*%
%TD*%
%TA.AperFunction,ComponentPad*%
%ADD36R,3.200000X2.000000*%
%TD*%
%TA.AperFunction,ComponentPad*%
%ADD37R,2.000000X2.000000*%
%TD*%
%TA.AperFunction,ViaPad*%
%ADD38C,0.500000*%
%TD*%
%TA.AperFunction,Conductor*%
%ADD39C,0.300000*%
%TD*%
%TA.AperFunction,Conductor*%
%ADD40C,0.130000*%
%TD*%
%TA.AperFunction,Conductor*%
%ADD41C,0.200000*%
%TD*%
G04 APERTURE END LIST*
D10*
%TO.P,U5,1,IO1*%
%TO.N,LPUART_TX*%
X102587500Y-45960000D03*
%TO.P,U5,2,IO2*%
%TO.N,LPUART_RX*%
X102587500Y-46460000D03*
%TO.P,U5,3,G*%
%TO.N,GND*%
X102587500Y-46960000D03*
%TO.P,U5,4,IO3*%
%TO.N,USB_DN*%
X102587500Y-47460000D03*
%TO.P,U5,5,IO4*%
%TO.N,USB_DP*%
X102587500Y-47960000D03*
%TO.P,U5,6,NC*%
X103357500Y-47960000D03*
%TO.P,U5,7,NC*%
%TO.N,USB_DN*%
X103357500Y-47460000D03*
%TO.P,U5,8,G*%
%TO.N,GND*%
X103357500Y-46960000D03*
%TO.P,U5,9,NC*%
%TO.N,LPUART_RX*%
X103357500Y-46460000D03*
%TO.P,U5,10,NC*%
%TO.N,LPUART_TX*%
X103357500Y-45960000D03*
%TD*%
D11*
%TO.P,U6,1*%
%TO.N,Net-(C6-Pad1)*%
X123945000Y-47780000D03*
D12*
%TO.P,U6,2*%
%TO.N,enc_A*%
X124670000Y-48755000D03*
%TO.P,U6,3*%
%TO.N,Net-(C7-Pad1)*%
X125170000Y-48755000D03*
%TO.P,U6,4*%
%TO.N,enc_B*%
X125670000Y-48755000D03*
%TO.P,U6,5*%
%TO.N,Net-(C10-Pad1)*%
X126170000Y-48755000D03*
%TO.P,U6,6*%
%TO.N,BOOT0*%
X126670000Y-48755000D03*
D11*
%TO.P,U6,7,GND*%
%TO.N,GND*%
X127395000Y-47780000D03*
%TO.P,U6,8*%
%TO.N,pushbutton_A*%
X127395000Y-46280000D03*
D12*
%TO.P,U6,9*%
%TO.N,Net-(C8-Pad1)*%
X126670000Y-45305000D03*
%TO.P,U6,10*%
%TO.N,pushbutton_B*%
X126170000Y-45305000D03*
%TO.P,U6,11*%
%TO.N,Net-(C9-Pad1)*%
X125670000Y-45305000D03*
%TO.P,U6,12*%
%TO.N,unconnected-(U6-Pad12)*%
X125170000Y-45305000D03*
%TO.P,U6,13*%
%TO.N,GND*%
X124670000Y-45305000D03*
D11*
%TO.P,U6,14,3.3V*%
%TO.N,3V3*%
X123945000Y-46280000D03*
D13*
%TO.P,U6,15*%
%TO.N,N/C*%
X125670000Y-47030000D03*
%TD*%
D14*
%TO.P,C13,1*%
%TO.N,3V3*%
X122200000Y-46137500D03*
%TO.P,C13,2*%
%TO.N,GND*%
X122200000Y-47862500D03*
%TD*%
D15*
%TO.P,R13,1*%
%TO.N,Net-(R11-Pad1)*%
X117187500Y-41700000D03*
%TO.P,R13,2*%
%TO.N,Net-(C9-Pad1)*%
X119012500Y-41700000D03*
%TD*%
D16*
%TO.P,D2,1,K*%
%TO.N,5V*%
X95637500Y-47300000D03*
%TO.P,D2,2,A*%
%TO.N,GND*%
X94062500Y-47300000D03*
%TD*%
D15*
%TO.P,R6,1*%
%TO.N,Net-(R6-Pad1)*%
X128887500Y-42500000D03*
%TO.P,R6,2*%
%TO.N,3V3*%
X130712500Y-42500000D03*
%TD*%
D17*
%TO.P,C10,1*%
%TO.N,Net-(C10-Pad1)*%
X132350000Y-42500000D03*
%TO.P,C10,2*%
%TO.N,GND*%
X134075000Y-42500000D03*
%TD*%
D18*
%TO.P,J5,1,Pin_1*%
%TO.N,3V3*%
X130880000Y-57810000D03*
D19*
%TO.P,J5,2,Pin_2*%
%TO.N,GND*%
X128340000Y-57810000D03*
%TO.P,J5,3,Pin_3*%
%TO.N,PB7*%
X125800000Y-57810000D03*
%TO.P,J5,4,Pin_4*%
%TO.N,PB6*%
X123260000Y-57810000D03*
%TO.P,J5,5,Pin_5*%
%TO.N,PB5*%
X120720000Y-57810000D03*
%TO.P,J5,6,Pin_6*%
%TO.N,PB4*%
X118180000Y-57810000D03*
%TO.P,J5,7,Pin_7*%
%TO.N,PB3*%
X115640000Y-57810000D03*
%TO.P,J5,8,Pin_8*%
%TO.N,PA15*%
X113100000Y-57810000D03*
%TO.P,J5,9,Pin_9*%
%TO.N,PA7*%
X110560000Y-57810000D03*
%TO.P,J5,10,Pin_10*%
%TO.N,PB0*%
X108020000Y-57810000D03*
%TO.P,J5,11,Pin_11*%
%TO.N,PB1*%
X105480000Y-57810000D03*
%TO.P,J5,12,Pin_12*%
%TO.N,USART1_TX*%
X102940000Y-57810000D03*
%TO.P,J5,13,Pin_13*%
%TO.N,USART1_RX*%
X100400000Y-57810000D03*
%TO.P,J5,14,Pin_14*%
%TO.N,GND*%
X97860000Y-57810000D03*
%TO.P,J5,15,Pin_15*%
%TO.N,3V3*%
X95320000Y-57810000D03*
%TD*%
D20*
%TO.P,U3,1,VIN*%
%TO.N,5V*%
X94800000Y-53350000D03*
%TO.P,U3,2,GND*%
%TO.N,GND*%
X94800000Y-54000000D03*
%TO.P,U3,3,EN*%
%TO.N,5V*%
X94800000Y-54650000D03*
%TO.P,U3,4,NC*%
%TO.N,unconnected-(U3-NC-Pad4)*%
X96700000Y-54650000D03*
%TO.P,U3,5,VOUT*%
%TO.N,3V3*%
X96700000Y-53350000D03*
%TD*%
D21*
%TO.P,R11,1*%
%TO.N,Net-(R11-Pad1)*%
X119012500Y-40150000D03*
%TO.P,R11,2*%
%TO.N,3V3*%
X117187500Y-40150000D03*
%TD*%
D17*
%TO.P,C6,1*%
%TO.N,Net-(C6-Pad1)*%
X125487500Y-53100000D03*
%TO.P,C6,2*%
%TO.N,GND*%
X127212500Y-53100000D03*
%TD*%
%TO.P,C12,1*%
%TO.N,3V3*%
X117237500Y-48600000D03*
%TO.P,C12,2*%
%TO.N,GND*%
X118962500Y-48600000D03*
%TD*%
D21*
%TO.P,R1,1*%
%TO.N,Net-(R1-Pad1)*%
X130712500Y-40900000D03*
%TO.P,R1,2*%
%TO.N,3V3*%
X128887500Y-40900000D03*
%TD*%
D15*
%TO.P,R3,1*%
%TO.N,GND*%
X93937500Y-44150000D03*
%TO.P,R3,2*%
%TO.N,Net-(J1-CC2)*%
X95762500Y-44150000D03*
%TD*%
D21*
%TO.P,R5,1*%
%TO.N,NRST*%
X119012500Y-45400000D03*
%TO.P,R5,2*%
%TO.N,3V3*%
X117187500Y-45400000D03*
%TD*%
D22*
%TO.P,C11,1*%
%TO.N,3V3*%
X109230000Y-44562500D03*
%TO.P,C11,2*%
%TO.N,GND*%
X109230000Y-42837500D03*
%TD*%
D18*
%TO.P,J7,1,Pin_1*%
%TO.N,adaptor_5V*%
X150590000Y-43260000D03*
D19*
%TO.P,J7,2,Pin_2*%
%TO.N,adaptor_LPUART_RX*%
X150590000Y-45800000D03*
%TO.P,J7,3,Pin_3*%
%TO.N,adaptor_LPUART_TX*%
X150590000Y-48340000D03*
%TO.P,J7,4,Pin_4*%
%TO.N,adaptor_GND*%
X150590000Y-50880000D03*
%TD*%
D15*
%TO.P,R14,1*%
%TO.N,Net-(C10-Pad1)*%
X132287500Y-40900000D03*
%TO.P,R14,2*%
%TO.N,Net-(R1-Pad1)*%
X134112500Y-40900000D03*
%TD*%
D17*
%TO.P,C5,1*%
%TO.N,3V3*%
X117237500Y-47000000D03*
%TO.P,C5,2*%
%TO.N,GND*%
X118962500Y-47000000D03*
%TD*%
D23*
%TO.P,J8,1,NC*%
%TO.N,unconnected-(J8-NC-Pad1)*%
X140330000Y-45050000D03*
%TO.P,J8,2,NC*%
%TO.N,unconnected-(J8-NC-Pad2)*%
X140330000Y-48950000D03*
%TO.P,J8,3,VCC*%
%TO.N,3V3*%
X139060000Y-45050000D03*
%TO.P,J8,4,JTMS/SWDIO*%
%TO.N,SWDIO*%
X139060000Y-48950000D03*
%TO.P,J8,5,GND*%
%TO.N,GND*%
X137790000Y-45050000D03*
%TO.P,J8,6,JCLK/SWCLK*%
%TO.N,SWCLK*%
X137790000Y-48950000D03*
%TO.P,J8,7,GND*%
%TO.N,GND*%
X136520000Y-45050000D03*
%TO.P,J8,8,JTDO/SWO*%
%TO.N,unconnected-(J8-JTDO{slash}SWO-Pad8)*%
X136520000Y-48950000D03*
%TO.P,J8,9,JRCLK/NC*%
%TO.N,unconnected-(J8-JRCLK{slash}NC-Pad9)*%
X135250000Y-45050000D03*
%TO.P,J8,10,JTDI/NC*%
%TO.N,unconnected-(J8-JTDI{slash}NC-Pad10)*%
X135250000Y-48950000D03*
%TO.P,J8,11,GNDDetect*%
%TO.N,unconnected-(J8-GNDDetect-Pad11)*%
X133980000Y-45050000D03*
%TO.P,J8,12,~{RST}*%
%TO.N,NRST*%
X133980000Y-48950000D03*
%TO.P,J8,13,VCP_RX*%
%TO.N,unconnected-(J8-VCP_RX-Pad13)*%
X132710000Y-45050000D03*
%TO.P,J8,14,VCP_TX*%
%TO.N,unconnected-(J8-VCP_TX-Pad14)*%
X132710000Y-48950000D03*
%TD*%
D15*
%TO.P,R8,1*%
%TO.N,Net-(C6-Pad1)*%
X125437500Y-51550000D03*
%TO.P,R8,2*%
%TO.N,Net-(R7-Pad1)*%
X127262500Y-51550000D03*
%TD*%
D24*
%TO.P,R4,1*%
%TO.N,LED*%
X107600000Y-49037500D03*
%TO.P,R4,2*%
%TO.N,Net-(D1-A)*%
X107600000Y-50862500D03*
%TD*%
D21*
%TO.P,R10,1*%
%TO.N,Net-(R10-Pad1)*%
X102062500Y-40150000D03*
%TO.P,R10,2*%
%TO.N,3V3*%
X100237500Y-40150000D03*
%TD*%
D14*
%TO.P,C2,1*%
%TO.N,NRST*%
X120600000Y-46137500D03*
%TO.P,C2,2*%
%TO.N,GND*%
X120600000Y-47862500D03*
%TD*%
D25*
%TO.P,D1,1,K*%
%TO.N,GND*%
X105275000Y-53700000D03*
%TO.P,D1,2,A*%
%TO.N,Net-(D1-A)*%
X107325000Y-53700000D03*
%TD*%
D17*
%TO.P,C9,1*%
%TO.N,Net-(C9-Pad1)*%
X120637500Y-40150000D03*
%TO.P,C9,2*%
%TO.N,GND*%
X122362500Y-40150000D03*
%TD*%
D15*
%TO.P,R7,1*%
%TO.N,Net-(R7-Pad1)*%
X128837500Y-51550000D03*
%TO.P,R7,2*%
%TO.N,3V3*%
X130662500Y-51550000D03*
%TD*%
D14*
%TO.P,C4,1*%
%TO.N,3V3*%
X98250000Y-53237500D03*
%TO.P,C4,2*%
%TO.N,GND*%
X98250000Y-54962500D03*
%TD*%
D26*
%TO.P,C1,1*%
%TO.N,5V*%
X95775000Y-49300000D03*
%TO.P,C1,2*%
%TO.N,GND*%
X92825000Y-49300000D03*
%TD*%
D17*
%TO.P,C8,1*%
%TO.N,Net-(C8-Pad1)*%
X103700000Y-40150000D03*
%TO.P,C8,2*%
%TO.N,GND*%
X105425000Y-40150000D03*
%TD*%
D15*
%TO.P,R12,1*%
%TO.N,Net-(R10-Pad1)*%
X100237500Y-41700000D03*
%TO.P,R12,2*%
%TO.N,Net-(C8-Pad1)*%
X102062500Y-41700000D03*
%TD*%
D27*
%TO.P,J3,A1,GND*%
%TO.N,adaptor_GND*%
X157525000Y-50410000D03*
%TO.P,J3,A4,VBUS*%
%TO.N,adaptor_5V*%
X157525000Y-49610000D03*
D28*
%TO.P,J3,A5,CC1*%
%TO.N,unconnected-(J3-CC1-PadA5)*%
X157525000Y-48460000D03*
%TO.P,J3,A6,D+*%
%TO.N,unconnected-(J3-D+-PadA6)*%
X157525000Y-47460000D03*
%TO.P,J3,A7,D-*%
%TO.N,unconnected-(J3-D--PadA7)*%
X157525000Y-46960000D03*
%TO.P,J3,A8,SBU1*%
%TO.N,adaptor_LPUART_RX*%
X157525000Y-45960000D03*
D27*
%TO.P,J3,A9,VBUS*%
%TO.N,adaptor_5V*%
X157525000Y-44810000D03*
%TO.P,J3,A12,GND*%
%TO.N,adaptor_GND*%
X157525000Y-44010000D03*
%TO.P,J3,B1,GND*%
X157525000Y-44010000D03*
%TO.P,J3,B4,VBUS*%
%TO.N,adaptor_5V*%
X157525000Y-44810000D03*
D28*
%TO.P,J3,B5,CC2*%
%TO.N,unconnected-(J3-CC2-PadB5)*%
X157525000Y-45460000D03*
%TO.P,J3,B6,D+*%
%TO.N,unconnected-(J3-D+-PadB6)*%
X157525000Y-46460000D03*
%TO.P,J3,B7,D-*%
%TO.N,unconnected-(J3-D--PadB7)*%
X157525000Y-47960000D03*
%TO.P,J3,B8,SBU2*%
%TO.N,adaptor_LPUART_TX*%
X157525000Y-48960000D03*
D27*
%TO.P,J3,B9,VBUS*%
%TO.N,adaptor_5V*%
X157525000Y-49610000D03*
%TO.P,J3,B12,GND*%
%TO.N,adaptor_GND*%
X157525000Y-50410000D03*
D29*
%TO.P,J3,S1,SHIELD*%
X158100000Y-51530000D03*
D30*
X162280000Y-51530000D03*
D29*
X158100000Y-42890000D03*
D30*
X162280000Y-42890000D03*
%TD*%
D14*
%TO.P,C3,1*%
%TO.N,5V*%
X93250000Y-53187500D03*
%TO.P,C3,2*%
%TO.N,GND*%
X93250000Y-54912500D03*
%TD*%
D15*
%TO.P,R2,1*%
%TO.N,GND*%
X93937500Y-45700000D03*
%TO.P,R2,2*%
%TO.N,Net-(J1-CC1)*%
X95762500Y-45700000D03*
%TD*%
D31*
%TO.P,U1,1,VDD*%
%TO.N,3V3*%
X115625000Y-49000000D03*
%TO.P,U1,2,PC14*%
%TO.N,unconnected-(U1-PC14-Pad2)*%
X115625000Y-48500000D03*
%TO.P,U1,3,PC15*%
%TO.N,unconnected-(U1-PC15-Pad3)*%
X115625000Y-48000000D03*
%TO.P,U1,4,NRST*%
%TO.N,NRST*%
X115625000Y-47500000D03*
%TO.P,U1,5,VDDA*%
%TO.N,3V3*%
X115625000Y-47000000D03*
%TO.P,U1,6,PA0*%
%TO.N,enc_B*%
X115625000Y-46500000D03*
%TO.P,U1,7,PA1*%
%TO.N,enc_A*%
X115625000Y-46000000D03*
%TO.P,U1,8,PA2*%
%TO.N,LPUART_TX*%
X115625000Y-45500000D03*
D32*
%TO.P,U1,9,PA3*%
%TO.N,LPUART_RX*%
X114937500Y-44812500D03*
%TO.P,U1,10,PA4*%
%TO.N,BOOT0*%
X114437500Y-44812500D03*
%TO.P,U1,11,PA5*%
%TO.N,pushbutton_A*%
X113937500Y-44812500D03*
%TO.P,U1,12,PA6*%
%TO.N,pushbutton_B*%
X113437500Y-44812500D03*
%TO.P,U1,13,PA7*%
%TO.N,PA7*%
X112937500Y-44812500D03*
%TO.P,U1,14,PB0*%
%TO.N,PB0*%
X112437500Y-44812500D03*
%TO.P,U1,15,PB1*%
%TO.N,PB1*%
X111937500Y-44812500D03*
%TO.P,U1,16,VSS*%
%TO.N,GND*%
X111437500Y-44812500D03*
D31*
%TO.P,U1,17,VDD*%
%TO.N,3V3*%
X110750000Y-45500000D03*
%TO.P,U1,18,PA8*%
%TO.N,LED*%
X110750000Y-46000000D03*
%TO.P,U1,19,PA9*%
%TO.N,USART1_TX*%
X110750000Y-46500000D03*
%TO.P,U1,20,PA10*%
%TO.N,USART1_RX*%
X110750000Y-47000000D03*
%TO.P,U1,21,PA11*%
%TO.N,USB_DN*%
X110750000Y-47500000D03*
%TO.P,U1,22,PA12*%
%TO.N,USB_DP*%
X110750000Y-48000000D03*
%TO.P,U1,23,PA13*%
%TO.N,SWDIO*%
X110750000Y-48500000D03*
%TO.P,U1,24,PA14*%
%TO.N,SWCLK*%
X110750000Y-49000000D03*
D32*
%TO.P,U1,25,PA15*%
%TO.N,PA15*%
X111437500Y-49687500D03*
%TO.P,U1,26,PB3*%
%TO.N,PB3*%
X111937500Y-49687500D03*
%TO.P,U1,27,PB4*%
%TO.N,PB4*%
X112437500Y-49687500D03*
%TO.P,U1,28,PB5*%
%TO.N,PB5*%
X112937500Y-49687500D03*
%TO.P,U1,29,PB6*%
%TO.N,PB6*%
X113437500Y-49687500D03*
%TO.P,U1,30,PB7*%
%TO.N,PB7*%
X113937500Y-49687500D03*
%TO.P,U1,31,PH3*%
%TO.N,BOOT0*%
X114437500Y-49687500D03*
%TO.P,U1,32,VSS*%
%TO.N,GND*%
X114937500Y-49687500D03*
D33*
%TO.P,U1,33,VSS*%
X113187500Y-47250000D03*
%TD*%
D34*
%TO.P,C14,1*%
%TO.N,3V3*%
X100750000Y-51975000D03*
%TO.P,C14,2*%
%TO.N,GND*%
X100750000Y-54925000D03*
%TD*%
D15*
%TO.P,R9,1*%
%TO.N,Net-(C7-Pad1)*%
X125487500Y-42500000D03*
%TO.P,R9,2*%
%TO.N,Net-(R6-Pad1)*%
X127312500Y-42500000D03*
%TD*%
D17*
%TO.P,C7,1*%
%TO.N,Net-(C7-Pad1)*%
X125537500Y-40900000D03*
%TO.P,C7,2*%
%TO.N,GND*%
X127262500Y-40900000D03*
%TD*%
D35*
%TO.P,SW1,S2,S2*%
%TO.N,GND*%
X144180000Y-49500000D03*
%TO.P,SW1,S1,S1*%
%TO.N,Net-(R1-Pad1)*%
X144180000Y-44500000D03*
D36*
%TO.P,SW1,MP*%
%TO.N,N/C*%
X137180000Y-52600000D03*
X137180000Y-41400000D03*
D35*
%TO.P,SW1,C,C*%
%TO.N,GND*%
X129680000Y-47000000D03*
%TO.P,SW1,B,B*%
%TO.N,Net-(R6-Pad1)*%
X129680000Y-44500000D03*
D37*
%TO.P,SW1,A,A*%
%TO.N,Net-(R7-Pad1)*%
X129680000Y-49500000D03*
%TD*%
D18*
%TO.P,SW2,1,1*%
%TO.N,GND*%
X105180000Y-50250000D03*
D19*
X105180000Y-43750000D03*
%TO.P,SW2,2,2*%
%TO.N,Net-(R10-Pad1)*%
X100680000Y-50250000D03*
X100680000Y-43750000D03*
%TD*%
D18*
%TO.P,SW3,1,1*%
%TO.N,GND*%
X122180000Y-50250000D03*
D19*
X122180000Y-43750000D03*
%TO.P,SW3,2,2*%
%TO.N,Net-(R11-Pad1)*%
X117680000Y-50250000D03*
X117680000Y-43750000D03*
%TD*%
D30*
%TO.P,J1,S1,SHIELD*%
%TO.N,GND*%
X93675000Y-51320000D03*
D29*
X97855000Y-51320000D03*
D30*
X93675000Y-42680000D03*
D29*
X97855000Y-42680000D03*
%TD*%
D38*
%TO.N,3V3*%
X99470000Y-51980000D03*
X102090000Y-51990000D03*
X128540000Y-41620000D03*
X99350000Y-40120000D03*
X95980000Y-53360000D03*
X116390000Y-45000000D03*
X109710000Y-43750000D03*
X110750000Y-44990000D03*
X131270000Y-41920000D03*
X123040000Y-46280000D03*
X129780000Y-51570000D03*
X118020000Y-40080000D03*
X99040000Y-53240000D03*
X139070000Y-46620000D03*
X116500000Y-47000000D03*
X116370000Y-49000000D03*
%TO.N,GND*%
X99450000Y-54950000D03*
X95630000Y-54040000D03*
X106450000Y-40130000D03*
X102010000Y-54940000D03*
X122340000Y-40930000D03*
X127270000Y-40140000D03*
X137760000Y-46600000D03*
X93080000Y-45670000D03*
X108620000Y-43620000D03*
X94050000Y-54940000D03*
X99290000Y-50160000D03*
X92810000Y-47850000D03*
X113940000Y-47380000D03*
X120610000Y-48820000D03*
X122200000Y-48850000D03*
X93140000Y-47290000D03*
X97460000Y-54940000D03*
X136530000Y-46570000D03*
X124160000Y-45290000D03*
X127430000Y-47320000D03*
X103900000Y-46950000D03*
X101900000Y-47050000D03*
X118190000Y-47300000D03*
X99260000Y-43770000D03*
X104410000Y-53700000D03*
X111410000Y-43990000D03*
X127940000Y-53110000D03*
X119530000Y-48840000D03*
X93060000Y-44160000D03*
X134970000Y-42510000D03*
X115177517Y-50288542D03*
%TO.N,PB0*%
X112430000Y-43250000D03*
%TO.N,LED*%
X108160000Y-45550000D03*
X106830000Y-49080000D03*
%TO.N,enc_A*%
X116300000Y-45950000D03*
X124050000Y-50800000D03*
%TO.N,PB3*%
X111937500Y-50780000D03*
%TO.N,BOOT0*%
X114850000Y-50850000D03*
X127350000Y-48800000D03*
X114490600Y-43992700D03*
%TO.N,PB6*%
X113437500Y-51080000D03*
%TO.N,PB4*%
X112437500Y-50330000D03*
%TO.N,PB5*%
X112910000Y-51470000D03*
%TO.N,enc_B*%
X125800000Y-50600000D03*
X120400000Y-45100000D03*
%TO.N,USART1_RX*%
X106000000Y-47000000D03*
%TO.N,USART1_TX*%
X109120000Y-46300000D03*
%TO.N,LPUART_RX*%
X100050000Y-46550000D03*
%TO.N,pushbutton_B*%
X113390000Y-44010000D03*
X123350000Y-42050000D03*
%TO.N,pushbutton_A*%
X127400000Y-45550000D03*
X113934863Y-43655565D03*
%TO.N,PA15*%
X111429933Y-51186053D03*
%TO.N,PB7*%
X114065728Y-50913168D03*
%TO.N,PB1*%
X111649607Y-43385772D03*
%TO.N,LPUART_TX*%
X99450000Y-45750000D03*
%TO.N,PA7*%
X113160000Y-43070000D03*
%TO.N,5V*%
X96749000Y-48858719D03*
%TO.N,Net-(J1-CC1)*%
X97300000Y-48250000D03*
%TO.N,Net-(J1-CC2)*%
X97500000Y-45400000D03*
%TO.N,Net-(C7-Pad1)*%
X126050000Y-43100000D03*
X125200000Y-50100000D03*
%TO.N,USB_DP*%
X97300000Y-47000000D03*
%TO.N,USB_DN*%
X99400000Y-47500000D03*
%TD*%
D39*
%TO.N,3V3*%
X130662500Y-51550000D02*
X129800000Y-51550000D01*
X139060000Y-46610000D02*
X139070000Y-46620000D01*
X102075000Y-51975000D02*
X102090000Y-51990000D01*
X116790000Y-45400000D02*
X116390000Y-45000000D01*
X128887500Y-41272500D02*
X128540000Y-41620000D01*
X99380000Y-40150000D02*
X99350000Y-40120000D01*
X117137500Y-47000000D02*
X117237500Y-46900000D01*
X100237500Y-40150000D02*
X99380000Y-40150000D01*
X139060000Y-45050000D02*
X139060000Y-46610000D01*
X117187500Y-40150000D02*
X117950000Y-40150000D01*
X100750000Y-51975000D02*
X99475000Y-51975000D01*
X122200000Y-46137500D02*
X122897500Y-46137500D01*
X117950000Y-40150000D02*
X118020000Y-40080000D01*
X98137500Y-53350000D02*
X98250000Y-53237500D01*
X109230000Y-44230000D02*
X109710000Y-43750000D01*
X109230000Y-44562500D02*
X109230000Y-44230000D01*
X116500000Y-47000000D02*
X117137500Y-47000000D01*
X115625000Y-47000000D02*
X116500000Y-47000000D01*
X117187500Y-45400000D02*
X116790000Y-45400000D01*
X115625000Y-49000000D02*
X116370000Y-49000000D01*
X96700000Y-53350000D02*
X95990000Y-53350000D01*
X130712500Y-42477500D02*
X131270000Y-41920000D01*
X122897500Y-46137500D02*
X123040000Y-46280000D01*
X128887500Y-40900000D02*
X128887500Y-41272500D01*
X116770000Y-48600000D02*
X116370000Y-49000000D01*
X99475000Y-51975000D02*
X99470000Y-51980000D01*
X123945000Y-46280000D02*
X123040000Y-46280000D01*
X110750000Y-44990000D02*
X110750000Y-45500000D01*
X98250000Y-53237500D02*
X99037500Y-53237500D01*
X95990000Y-53350000D02*
X95980000Y-53360000D01*
X100750000Y-51975000D02*
X102075000Y-51975000D01*
X117237500Y-47000000D02*
X116500000Y-47000000D01*
X130712500Y-42500000D02*
X130712500Y-42477500D01*
X129800000Y-51550000D02*
X129780000Y-51570000D01*
X99037500Y-53237500D02*
X99040000Y-53240000D01*
X117237500Y-48600000D02*
X116770000Y-48600000D01*
%TO.N,GND*%
X137790000Y-46570000D02*
X137760000Y-46600000D01*
X119290000Y-48600000D02*
X119530000Y-48840000D01*
X95590000Y-54000000D02*
X95630000Y-54040000D01*
X109230000Y-42837500D02*
X108952500Y-43115000D01*
X118490000Y-47000000D02*
X118190000Y-47300000D01*
X127262500Y-40147500D02*
X127270000Y-40140000D01*
X108952500Y-43115000D02*
X108952500Y-43287500D01*
X102587500Y-46960000D02*
X101990000Y-46960000D01*
X99475000Y-54925000D02*
X99450000Y-54950000D01*
X118962500Y-48600000D02*
X119290000Y-48600000D01*
X108952500Y-43287500D02*
X108620000Y-43620000D01*
X127395000Y-47355000D02*
X127430000Y-47320000D01*
X113187500Y-47242500D02*
X113210000Y-47220000D01*
X103357500Y-46960000D02*
X103890000Y-46960000D01*
X113187500Y-47250000D02*
X113187500Y-47242500D01*
X111410000Y-44785000D02*
X111437500Y-44812500D01*
X100750000Y-54925000D02*
X99475000Y-54925000D01*
X134960000Y-42500000D02*
X134970000Y-42510000D01*
X122200000Y-48850000D02*
X122200000Y-47862500D01*
X93150000Y-47300000D02*
X93140000Y-47290000D01*
X111410000Y-43990000D02*
X111410000Y-44785000D01*
X105445000Y-40130000D02*
X105425000Y-40150000D01*
X97482500Y-54962500D02*
X97460000Y-54940000D01*
X106450000Y-40130000D02*
X105445000Y-40130000D01*
X93937500Y-44150000D02*
X93070000Y-44150000D01*
X134075000Y-42500000D02*
X134960000Y-42500000D01*
X124670000Y-45305000D02*
X124175000Y-45305000D01*
X124175000Y-45305000D02*
X124160000Y-45290000D01*
X103890000Y-46960000D02*
X103900000Y-46950000D01*
X93937500Y-45700000D02*
X93110000Y-45700000D01*
D40*
X98287500Y-54925000D02*
X98250000Y-54962500D01*
D39*
X92825000Y-49300000D02*
X92825000Y-47865000D01*
X94062500Y-47300000D02*
X93150000Y-47300000D01*
X136520000Y-46560000D02*
X136530000Y-46570000D01*
X118962500Y-47000000D02*
X118490000Y-47000000D01*
X98250000Y-54962500D02*
X97482500Y-54962500D01*
X94022500Y-54912500D02*
X94050000Y-54940000D01*
X114937500Y-50048525D02*
X115177517Y-50288542D01*
X101995000Y-54925000D02*
X102010000Y-54940000D01*
X120600000Y-47862500D02*
X120610000Y-48820000D01*
X105275000Y-53700000D02*
X104410000Y-53700000D01*
X93070000Y-44150000D02*
X93060000Y-44160000D01*
X100750000Y-54925000D02*
X101995000Y-54925000D01*
X93250000Y-54912500D02*
X94022500Y-54912500D01*
X137790000Y-45050000D02*
X137790000Y-46570000D01*
X122362500Y-40907500D02*
X122340000Y-40930000D01*
X93110000Y-45700000D02*
X93080000Y-45670000D01*
D40*
X105180000Y-53605000D02*
X105275000Y-53700000D01*
D39*
X127262500Y-40900000D02*
X127262500Y-40147500D01*
X127212500Y-53100000D02*
X127930000Y-53100000D01*
X127395000Y-47780000D02*
X127395000Y-47355000D01*
X127930000Y-53100000D02*
X127940000Y-53110000D01*
X94800000Y-54000000D02*
X95590000Y-54000000D01*
X122362500Y-40150000D02*
X122362500Y-40907500D01*
X114937500Y-49687500D02*
X114937500Y-50048525D01*
X92825000Y-47865000D02*
X92810000Y-47850000D01*
X101990000Y-46960000D02*
X101900000Y-47050000D01*
X136520000Y-45050000D02*
X136520000Y-46560000D01*
D40*
%TO.N,NRST*%
X119400000Y-47800000D02*
X119250000Y-47800000D01*
X120000000Y-51850000D02*
X120000000Y-48400000D01*
X120600000Y-46550000D02*
X120600000Y-46261000D01*
X121921000Y-53771000D02*
X120000000Y-51850000D01*
X119350000Y-47800000D02*
X120600000Y-46550000D01*
X133980000Y-49780000D02*
X129989000Y-53771000D01*
X116300000Y-47500000D02*
X116600000Y-47800000D01*
X119862500Y-45400000D02*
X120600000Y-46137500D01*
X115625000Y-47500000D02*
X116300000Y-47500000D01*
X129989000Y-53771000D02*
X121921000Y-53771000D01*
X119250000Y-47800000D02*
X119350000Y-47800000D01*
X119012500Y-45400000D02*
X119862500Y-45400000D01*
X120000000Y-48400000D02*
X119400000Y-47800000D01*
X116600000Y-47800000D02*
X119250000Y-47800000D01*
X133980000Y-48950000D02*
X133980000Y-49780000D01*
%TO.N,Net-(D1-A)*%
X107600000Y-53425000D02*
X107325000Y-53700000D01*
X107600000Y-50862500D02*
X107600000Y-53425000D01*
%TO.N,PB0*%
X112430000Y-43250000D02*
X112430000Y-44805000D01*
X112430000Y-44805000D02*
X112437500Y-44812500D01*
D39*
%TO.N,LED*%
X108160000Y-45550000D02*
X109270000Y-45550000D01*
X109270000Y-45550000D02*
X109720000Y-46000000D01*
X107557500Y-49080000D02*
X107600000Y-49037500D01*
X106830000Y-49080000D02*
X107557500Y-49080000D01*
X109720000Y-46000000D02*
X110750000Y-46000000D01*
D40*
%TO.N,enc_A*%
X115675000Y-45950000D02*
X115625000Y-46000000D01*
X116300000Y-45950000D02*
X115675000Y-45950000D01*
X124670000Y-50180000D02*
X124050000Y-50800000D01*
X124670000Y-48755000D02*
X124670000Y-50180000D01*
%TO.N,PB3*%
X111937500Y-50780000D02*
X111937500Y-49687500D01*
%TO.N,BOOT0*%
X114490600Y-44759400D02*
X114437500Y-44812500D01*
X114490600Y-43992700D02*
X114490600Y-44759400D01*
X127305000Y-48755000D02*
X127350000Y-48800000D01*
X114437500Y-50437500D02*
X114437500Y-49687500D01*
X126670000Y-48755000D02*
X127305000Y-48755000D01*
X114850000Y-50850000D02*
X114437500Y-50437500D01*
%TO.N,PB6*%
X113437500Y-51080000D02*
X113437500Y-49687500D01*
%TO.N,SWCLK*%
X109840600Y-49309400D02*
X110150000Y-49000000D01*
X137790000Y-50850000D02*
X135150000Y-50850000D01*
X109840600Y-52220600D02*
X109840600Y-49309400D01*
X131890000Y-54110000D02*
X111730000Y-54110000D01*
X111730000Y-54110000D02*
X109840600Y-52220600D01*
X110150000Y-49000000D02*
X110750000Y-49000000D01*
X137790000Y-48950000D02*
X137790000Y-50850000D01*
X135150000Y-50850000D02*
X131890000Y-54110000D01*
%TO.N,PB4*%
X112437500Y-50330000D02*
X112437500Y-49687500D01*
%TO.N,PB5*%
X112970000Y-51410000D02*
X112970000Y-51289024D01*
X112937500Y-51256524D02*
X112937500Y-49687500D01*
X112970000Y-51289024D02*
X112937500Y-51256524D01*
X112910000Y-51470000D02*
X112970000Y-51410000D01*
%TO.N,enc_B*%
X118329000Y-44976358D02*
X118576358Y-44729000D01*
X116660148Y-46300000D02*
X117500000Y-46300000D01*
X118576358Y-44729000D02*
X120029000Y-44729000D01*
X125800000Y-50600000D02*
X125670000Y-50470000D01*
X116460148Y-46500000D02*
X116660148Y-46300000D01*
X120029000Y-44729000D02*
X120400000Y-45100000D01*
X117500000Y-46300000D02*
X118329000Y-45471000D01*
X125670000Y-50470000D02*
X125670000Y-48755000D01*
X118329000Y-45471000D02*
X118329000Y-44976358D01*
X115625000Y-46500000D02*
X116460148Y-46500000D01*
%TO.N,USART1_RX*%
X106000000Y-47000000D02*
X110750000Y-47000000D01*
%TO.N,USART1_TX*%
X109120000Y-46312000D02*
X109308000Y-46500000D01*
X109308000Y-46500000D02*
X110750000Y-46500000D01*
X109120000Y-46300000D02*
X109120000Y-46312000D01*
D39*
%TO.N,LPUART_RX*%
X115041600Y-42551126D02*
X114281474Y-41791000D01*
X108348526Y-41791000D02*
X107550000Y-42589526D01*
X114937500Y-44812500D02*
X115041600Y-44708400D01*
X106709000Y-46391000D02*
X103426500Y-46391000D01*
X115041600Y-44708400D02*
X115041600Y-42551126D01*
X103426500Y-46391000D02*
X103357500Y-46460000D01*
X100050000Y-46550000D02*
X100140000Y-46460000D01*
X107550000Y-45550000D02*
X106709000Y-46391000D01*
X107550000Y-42589526D02*
X107550000Y-45550000D01*
X103357500Y-46460000D02*
X102587500Y-46460000D01*
X100140000Y-46460000D02*
X102587500Y-46460000D01*
X114281474Y-41791000D02*
X108348526Y-41791000D01*
D40*
%TO.N,pushbutton_B*%
X126170000Y-44730682D02*
X126170000Y-45305000D01*
X125424830Y-44154000D02*
X125593318Y-44154000D01*
X123350000Y-42050000D02*
X123350000Y-42079170D01*
X123350000Y-42079170D02*
X125424830Y-44154000D01*
X113437500Y-44492400D02*
X113437500Y-44812500D01*
X125593318Y-44154000D02*
X126170000Y-44730682D01*
X113390000Y-44444900D02*
X113437500Y-44492400D01*
X113390000Y-44010000D02*
X113390000Y-44444900D01*
%TO.N,pushbutton_A*%
X113940000Y-43660702D02*
X113940000Y-44071400D01*
X113934863Y-43655565D02*
X113940000Y-43660702D01*
X127400000Y-46275000D02*
X127395000Y-46280000D01*
X127400000Y-45550000D02*
X127400000Y-46275000D01*
X113940000Y-44071400D02*
X113937500Y-44073900D01*
X113937500Y-44073900D02*
X113937500Y-44812500D01*
%TO.N,PA15*%
X111429933Y-51186053D02*
X111437500Y-51178486D01*
X111437500Y-51178486D02*
X111437500Y-49687500D01*
%TO.N,SWDIO*%
X109580400Y-49200490D02*
X109580400Y-49119600D01*
X135250000Y-51200000D02*
X132079000Y-54371000D01*
X109579600Y-49201290D02*
X109580400Y-49200490D01*
X111621890Y-54371000D02*
X109579600Y-52328710D01*
X139060000Y-50490000D02*
X138350000Y-51200000D01*
X109580400Y-49119600D02*
X110200000Y-48500000D01*
X138350000Y-51200000D02*
X135250000Y-51200000D01*
X132079000Y-54371000D02*
X111621890Y-54371000D01*
X109579600Y-52328710D02*
X109579600Y-49201290D01*
X139060000Y-48950000D02*
X139060000Y-50490000D01*
X110200000Y-48500000D02*
X110750000Y-48500000D01*
%TO.N,PB7*%
X114065728Y-50913168D02*
X113930000Y-50777440D01*
X113930000Y-50777440D02*
X113930000Y-49695000D01*
X113930000Y-49695000D02*
X113937500Y-49687500D01*
%TO.N,PB1*%
X111649607Y-43385772D02*
X111937500Y-43673665D01*
X111937500Y-43673665D02*
X111937500Y-44812500D01*
D39*
%TO.N,LPUART_TX*%
X103367500Y-45950000D02*
X106540474Y-45950000D01*
X106995237Y-42534763D02*
X108170000Y-41360000D01*
X106540474Y-45950000D02*
X106995237Y-45495237D01*
X108170000Y-41360000D02*
X114460000Y-41360000D01*
X103357500Y-45960000D02*
X102587500Y-45960000D01*
X99660000Y-45960000D02*
X102587500Y-45960000D01*
X103357500Y-45960000D02*
X103367500Y-45950000D01*
X106995237Y-45495237D02*
X106995237Y-42534763D01*
X115625000Y-42525000D02*
X115625000Y-45500000D01*
X114460000Y-41360000D02*
X115625000Y-42525000D01*
X99450000Y-45750000D02*
X99660000Y-45960000D01*
D40*
%TO.N,PA7*%
X112930000Y-44805000D02*
X112937500Y-44812500D01*
X112924000Y-43816976D02*
X112924000Y-44203024D01*
X112924000Y-44203024D02*
X112930000Y-44209024D01*
X112930000Y-44209024D02*
X112930000Y-44805000D01*
X112930000Y-43810976D02*
X112924000Y-43816976D01*
X112930000Y-43264826D02*
X112930000Y-43810976D01*
X113160000Y-43070000D02*
X113124826Y-43070000D01*
X113124826Y-43070000D02*
X112930000Y-43264826D01*
D39*
%TO.N,5V*%
X94475001Y-53350000D02*
X94800000Y-53350000D01*
X93250000Y-53187500D02*
X94637500Y-53187500D01*
X94194000Y-54260586D02*
X94194000Y-53631001D01*
X96307719Y-49300000D02*
X96749000Y-48858719D01*
X94800000Y-53350000D02*
X95775000Y-52375000D01*
X94800000Y-54650000D02*
X94583414Y-54650000D01*
X95637500Y-49162500D02*
X95775000Y-49300000D01*
X95637500Y-47300000D02*
X95637500Y-49162500D01*
X95775000Y-52375000D02*
X95775000Y-49300000D01*
X94194000Y-53631001D02*
X94475001Y-53350000D01*
X94637500Y-53187500D02*
X94800000Y-53350000D01*
X95775000Y-49300000D02*
X96307719Y-49300000D01*
X94583414Y-54650000D02*
X94194000Y-54260586D01*
%TO.N,Net-(J1-CC1)*%
X96750000Y-46887500D02*
X96750000Y-47700000D01*
X96750000Y-47700000D02*
X97300000Y-48250000D01*
X95762500Y-45900000D02*
X96750000Y-46887500D01*
%TO.N,Net-(J1-CC2)*%
X97100000Y-45400000D02*
X97500000Y-45400000D01*
X95762500Y-44300000D02*
X96000000Y-44300000D01*
X96000000Y-44300000D02*
X97100000Y-45400000D01*
D40*
%TO.N,adaptor_LPUART_RX*%
X150750000Y-45960000D02*
X150590000Y-45800000D01*
X157525000Y-45960000D02*
X150750000Y-45960000D01*
%TO.N,adaptor_5V*%
X158305400Y-49236200D02*
X158305400Y-45200800D01*
X153185100Y-44810000D02*
X151635100Y-43260000D01*
X150590000Y-43260000D02*
X151635100Y-43260000D01*
X157931600Y-49610000D02*
X158305400Y-49236200D01*
X157525000Y-49610000D02*
X157931600Y-49610000D01*
X158305400Y-45200800D02*
X157914600Y-44810000D01*
X157525000Y-44810000D02*
X153185100Y-44810000D01*
X157914600Y-44810000D02*
X157525000Y-44810000D01*
%TO.N,adaptor_LPUART_TX*%
X151210000Y-48960000D02*
X150590000Y-48340000D01*
X157525000Y-48960000D02*
X151210000Y-48960000D01*
%TO.N,adaptor_GND*%
X158100000Y-42890000D02*
X156854900Y-42890000D01*
X156854900Y-42890000D02*
X156854900Y-43339900D01*
X156854900Y-43339900D02*
X157525000Y-44010000D01*
X150775300Y-51065300D02*
X150590000Y-50880000D01*
X156854900Y-51065300D02*
X150775300Y-51065300D01*
X156869700Y-51065300D02*
X156854900Y-51065300D01*
X156854900Y-51065300D02*
X156854900Y-51530000D01*
X157525000Y-50410000D02*
X156869700Y-51065300D01*
X158100000Y-51530000D02*
X156854900Y-51530000D01*
D39*
%TO.N,Net-(C6-Pad1)*%
X123499000Y-51028232D02*
X123499000Y-48226000D01*
X125487500Y-53100000D02*
X125487500Y-51600000D01*
X125437500Y-51550000D02*
X124020768Y-51550000D01*
X123499000Y-48226000D02*
X123945000Y-47780000D01*
X124020768Y-51550000D02*
X123499000Y-51028232D01*
X125487500Y-51600000D02*
X125437500Y-51550000D01*
%TO.N,Net-(C7-Pad1)*%
X125487500Y-42500000D02*
X125487500Y-42537500D01*
X125200000Y-50100000D02*
X125200000Y-48785000D01*
X125200000Y-48785000D02*
X125170000Y-48755000D01*
X125487500Y-40950000D02*
X125537500Y-40900000D01*
X125487500Y-42500000D02*
X125487500Y-40950000D01*
X125487500Y-42537500D02*
X126050000Y-43100000D01*
%TO.N,Net-(C8-Pad1)*%
X103700000Y-41700000D02*
X104480000Y-40920000D01*
X110030000Y-40920000D02*
X112100000Y-38850000D01*
X125410148Y-43650000D02*
X126200000Y-43650000D01*
X126670000Y-44120000D02*
X126670000Y-45305000D01*
X102062500Y-41700000D02*
X103700000Y-41700000D01*
X124000000Y-42239852D02*
X125410148Y-43650000D01*
X103700000Y-40150000D02*
X103700000Y-41700000D01*
X112100000Y-38850000D02*
X124000000Y-38850000D01*
X124000000Y-38850000D02*
X124000000Y-42239852D01*
X126200000Y-43650000D02*
X126670000Y-44120000D01*
X104480000Y-40920000D02*
X110030000Y-40920000D01*
%TO.N,Net-(C9-Pad1)*%
X125670000Y-44720000D02*
X125670000Y-45240000D01*
X119012500Y-41700000D02*
X120700000Y-41700000D01*
X120850000Y-41700000D02*
X121550000Y-42400000D01*
X121550000Y-42400000D02*
X122750000Y-42400000D01*
X120637500Y-41637500D02*
X120700000Y-41700000D01*
X120700000Y-41700000D02*
X120850000Y-41700000D01*
X125450000Y-44500000D02*
X125670000Y-44720000D01*
X124850000Y-44500000D02*
X125450000Y-44500000D01*
X120637500Y-40150000D02*
X120637500Y-41637500D01*
X122750000Y-42400000D02*
X124850000Y-44500000D01*
D40*
%TO.N,Net-(C10-Pad1)*%
X132287500Y-40900000D02*
X132287500Y-42812500D01*
X132287500Y-42812500D02*
X131500000Y-43600000D01*
X126170000Y-49470000D02*
X126170000Y-48755000D01*
X127850000Y-49750000D02*
X126450000Y-49750000D01*
X128200000Y-49400000D02*
X127850000Y-49750000D01*
X126450000Y-49750000D02*
X126170000Y-49470000D01*
X131500000Y-44950000D02*
X130700000Y-45750000D01*
X128200000Y-46500000D02*
X128200000Y-49400000D01*
X130700000Y-45750000D02*
X128950000Y-45750000D01*
X131500000Y-43600000D02*
X131500000Y-44950000D01*
X128950000Y-45750000D02*
X128200000Y-46500000D01*
D39*
%TO.N,Net-(R1-Pad1)*%
X135412500Y-39600000D02*
X134112500Y-40900000D01*
D40*
X131383500Y-40229000D02*
X133441500Y-40229000D01*
D39*
X139280000Y-39600000D02*
X135412500Y-39600000D01*
D40*
X133441500Y-40229000D02*
X134112500Y-40900000D01*
D39*
X144180000Y-44500000D02*
X139280000Y-39600000D01*
D40*
X130712500Y-40900000D02*
X131383500Y-40229000D01*
D39*
%TO.N,Net-(R6-Pad1)*%
X127312500Y-42500000D02*
X128887500Y-42500000D01*
X128887500Y-43707500D02*
X129680000Y-44500000D01*
X128887500Y-42500000D02*
X128887500Y-43707500D01*
%TO.N,Net-(R7-Pad1)*%
X127262500Y-51550000D02*
X128837500Y-51550000D01*
X128837500Y-50342500D02*
X129680000Y-49500000D01*
X128837500Y-51550000D02*
X128837500Y-50342500D01*
%TO.N,Net-(R10-Pad1)*%
X100680000Y-43750000D02*
X100680000Y-42142500D01*
X100680000Y-42142500D02*
X100237500Y-41700000D01*
X100512500Y-41700000D02*
X102062500Y-40150000D01*
X100237500Y-41700000D02*
X100512500Y-41700000D01*
%TO.N,Net-(R11-Pad1)*%
X118737500Y-40150000D02*
X117187500Y-41700000D01*
X117680000Y-43750000D02*
X117680000Y-42192500D01*
X119012500Y-40150000D02*
X118737500Y-40150000D01*
X117680000Y-42192500D02*
X117187500Y-41700000D01*
%TO.N,USB_DP*%
X98410000Y-48110000D02*
X97300000Y-47000000D01*
D41*
X110750000Y-48000000D02*
X103397500Y-48000000D01*
D39*
X102587500Y-47960000D02*
X102437500Y-48110000D01*
X102437500Y-48110000D02*
X98410000Y-48110000D01*
D41*
X103357500Y-47960000D02*
X102587500Y-47960000D01*
X103397500Y-48000000D02*
X103357500Y-47960000D01*
D39*
%TO.N,USB_DN*%
X102587500Y-47460000D02*
X102269232Y-47460000D01*
X102128232Y-47601000D02*
X99501000Y-47601000D01*
X102269232Y-47460000D02*
X102128232Y-47601000D01*
D41*
X103397500Y-47500000D02*
X103357500Y-47460000D01*
D39*
X99501000Y-47601000D02*
X99400000Y-47500000D01*
D41*
X103357500Y-47460000D02*
X102587500Y-47460000D01*
X110750000Y-47500000D02*
X103397500Y-47500000D01*
%TD*%
M02*
