M48
; DRILL file {KiCad 9.0.2} date 2025-12-20T10:01:01+0100
; FORMAT={-:-/ absolute / metric / decimal}
; #@! TF.CreationDate,2025-12-20T10:01:01+01:00
; #@! TF.GenerationSoftware,Kicad,Pcbnew,9.0.2
; #@! TF.FileFunction,Plated,1,4,PTH
FMAT,2
METRIC
; #@! TA.AperFunction,Plated,PTH,ViaDrill
T1C0.300
; #@! TA.AperFunction,Plated,PTH,ComponentDrill
T2C0.600
; #@! TA.AperFunction,Plated,PTH,ComponentDrill
T3C0.900
; #@! TA.AperFunction,Plated,PTH,ComponentDrill
T4C1.000
; #@! TA.AperFunction,Plated,PTH,ComponentDrill
T5C1.500
%
G90
G05
T1
X127.87Y-82.18
X128.13Y-95.32
X128.6Y-97.43
X128.77Y-93.85
X130.455Y-96.884
X130.74Y-86.93
X130.78Y-95.02
X130.83Y-80.802
X130.85Y-92.77
X131.2Y-98.52
X131.217Y-90.858
X131.25Y-100.17
X131.351Y-92.387
X131.51Y-95.45
X131.65Y-88.03
X131.675Y-90.467
X131.726Y-85.714
X131.8Y-80.53
X131.801Y-89.673
X131.9Y-96.024
X132.03Y-83.31
X132.15Y-75.56
X132.21Y-86.35
X133.11Y-90.73
X133.2Y-79.26
X133.8Y-82.91
X133.814Y-97.535
X134.081Y-89.434
X134.17Y-78.91
X134.36Y-103.19
X134.372Y-97.104
X134.55Y-93.89
X134.827Y-98.448
X134.945Y-89.653
X134.95Y-106.3
X135.405Y-98.133
X135.538Y-90.136
X136.034Y-102.451
X136.07Y-81.26
X136.338Y-84.544
X136.83Y-82.93
X136.925Y-91.725
X137.17Y-100.25
X137.62Y-92.45
X137.84Y-95.1
X138.26Y-93.36
X138.85Y-81.51
X139.77Y-82.43
X139.795Y-94.579
X140.516Y-85.525
X141.02Y-89.81
X141.19Y-93.33
X141.67Y-78.9
X141.81Y-95.89
X142.52Y-96.86
X143.653Y-87.978
X143.8Y-83.0
X144.04Y-76.39
X145.21Y-107.52
X145.54Y-75.81
X146.59Y-87.592
X146.61Y-79.82
X147.512Y-93.479
X147.565Y-88.03
X147.95Y-75.68
X148.25Y-105.8
X148.27Y-98.44
X148.37Y-76.62
X148.525Y-90.94
X148.573Y-87.255
X148.8Y-78.97
X149.05Y-83.46
X149.54Y-76.19
X149.85Y-96.54
X149.93Y-100.26
X149.94Y-92.45
X150.322Y-87.506
X150.66Y-79.2
X150.665Y-86.973
X150.73Y-77.75
X150.849Y-85.054
X150.91Y-79.95
X150.95Y-82.69
X150.956Y-85.679
X150.97Y-74.51
X151.233Y-76.905
X151.45Y-88.79
X151.641Y-92.165
T3
X129.54Y-81.28
X129.54Y-86.36
X129.54Y-99.06
X129.54Y-104.14
X137.16Y-81.28
X137.16Y-86.36
X137.16Y-99.06
X137.16Y-104.14
X142.24Y-99.06
X142.24Y-104.14
X149.86Y-99.06
X149.86Y-104.14
T4
X144.63Y-74.5
X144.63Y-89.0
X147.13Y-89.0
X149.63Y-74.5
X149.63Y-89.0
T2
G00X133.56Y-73.75
M15
G01X133.56Y-72.95
M16
G05
G00X133.56Y-78.08
M15
G01X133.56Y-76.98
M16
G05
G00X142.2Y-73.75
M15
G01X142.2Y-72.95
M16
G05
G00X142.2Y-78.08
M15
G01X142.2Y-76.98
M16
G05
T5
G00X141.53Y-82.15
M15
G01X141.53Y-80.85
M16
G05
G00X152.73Y-82.15
M15
G01X152.73Y-80.85
M16
G05
M30
