%TF.GenerationSoftware,KiCad,Pcbnew,9.0.2*%
%TF.CreationDate,2025-10-12T11:55:11+02:00*%
%TF.ProjectId,synthmate_L432,73796e74-686d-4617-9465-5f4c3433322e,rev?*%
%TF.SameCoordinates,Original*%
%TF.FileFunction,Copper,L3,Inr*%
%TF.FilePolarity,Positive*%
%FSLAX46Y46*%
G04 Gerber Fmt 4.6, Leading zero omitted, Abs format (unit mm)*
G04 Created by KiCad (PCBNEW 9.0.2) date 2025-10-12 11:55:11*
%MOMM*%
%LPD*%
G01*
G04 APERTURE LIST*
%TA.AperFunction,HeatsinkPad*%
%ADD10O,2.100000X1.000000*%
%TD*%
%TA.AperFunction,HeatsinkPad*%
%ADD11O,1.800000X1.000000*%
%TD*%
%TA.AperFunction,ComponentPad*%
%ADD12R,2.000000X2.000000*%
%TD*%
%TA.AperFunction,ComponentPad*%
%ADD13C,2.000000*%
%TD*%
%TA.AperFunction,ComponentPad*%
%ADD14R,3.200000X2.000000*%
%TD*%
%TA.AperFunction,ViaPad*%
%ADD15C,0.500000*%
%TD*%
G04 APERTURE END LIST*
D10*
%TO.N,GND*%
%TO.C,J1*%
X97855000Y-42680000D03*
D11*
X93675000Y-42680000D03*
D10*
X97855000Y-51320000D03*
D11*
X93675000Y-51320000D03*
%TD*%
D12*
%TO.N,Net-(R7-Pad1)*%
%TO.C,SW1*%
X129680000Y-49500000D03*
D13*
%TO.N,Net-(R6-Pad1)*%
X129680000Y-44500000D03*
%TO.N,GND*%
X129680000Y-47000000D03*
D14*
%TO.N,N/C*%
X137180000Y-41400000D03*
X137180000Y-52600000D03*
D13*
%TO.N,Net-(R1-Pad1)*%
X144180000Y-44500000D03*
%TO.N,GND*%
X144180000Y-49500000D03*
%TD*%
D15*
%TO.N,LPUART_TX*%
X118830000Y-42480000D03*
X115260000Y-44950000D03*
X124580000Y-47460000D03*
X121790000Y-44010000D03*
%TO.N,LPUART_RX*%
X115210000Y-41590000D03*
X122190000Y-40650000D03*
%TO.N,3V3*%
X116065000Y-43190000D03*
%TO.N,usb_switch*%
X110110000Y-39370000D03*
%TO.N,Net-(U1-PA15)*%
X110540000Y-50670000D03*
X110460000Y-53320000D03*
%TO.N,GND*%
X114090000Y-50320000D03*
%TO.N,3V3*%
X116590000Y-49780000D03*
%TO.N,Net-(J1-CC1)*%
X96488238Y-45607896D03*
X97260000Y-46410000D03*
%TO.N,GND*%
X112070000Y-46990000D03*
X110090000Y-43800000D03*
%TO.N,3V3*%
X120390000Y-52490000D03*
X117340000Y-51530000D03*
X100770000Y-50940000D03*
X113860000Y-41245000D03*
X107410000Y-43940000D03*
%TO.N,GND*%
X103680000Y-39080000D03*
%TO.N,3V3*%
X103804106Y-52105894D03*
%TO.N,GND*%
X114380000Y-54940000D03*
X118700000Y-51760000D03*
X125730000Y-47290000D03*
X116280000Y-48340000D03*
X117800000Y-45010000D03*
X121150000Y-39910000D03*
%TO.N,Net-(U1-PA9)*%
X101625000Y-43695000D03*
X105920000Y-45260000D03*
%TO.N,SWDIO*%
X108590000Y-48310000D03*
X109540000Y-41620000D03*
%TO.N,SWCLK*%
X109560000Y-51830000D03*
X109560000Y-49310000D03*
%TO.N,Net-(C10-Pad1)*%
X131850000Y-43490000D03*
X113890000Y-53600000D03*
%TO.N,Net-(C9-Pad1)*%
X118740000Y-40850000D03*
X121040000Y-48510000D03*
%TO.N,Net-(C8-Pad1)*%
X107350000Y-40760000D03*
X107810000Y-48470000D03*
%TO.N,pushbutton_B*%
X112130000Y-43460000D03*
X119770000Y-53810000D03*
%TO.N,pushbutton_A*%
X117190000Y-54680000D03*
X113210161Y-43124132D03*
%TO.N,BOOT0*%
X113420000Y-50290000D03*
X113530000Y-43690000D03*
%TO.N,NRST*%
X122020000Y-52750000D03*
X116310000Y-47550000D03*
%TO.N,enc_B*%
X115300000Y-46308514D03*
X115280000Y-50320000D03*
%TO.N,enc_A*%
X115330000Y-51820000D03*
X115180000Y-45660000D03*
%TO.N,USART1_RX*%
X106860000Y-45230000D03*
%TO.N,Net-(J1-CC2)*%
X99180000Y-48730000D03*
%TO.N,usb_switch*%
X111330000Y-43640000D03*
X104240000Y-52800000D03*
%TO.N,LED*%
X106560000Y-50450000D03*
X107400000Y-45650000D03*
%TO.N,USART1_TX*%
X104280000Y-47250000D03*
X104110000Y-50140000D03*
%TO.N,USART1_RX*%
X107440000Y-46770000D03*
X104830000Y-49290000D03*
%TO.N,3V3*%
X99470000Y-51980000D03*
X100760000Y-52910000D03*
X128540000Y-41620000D03*
X97815000Y-39470000D03*
X95960000Y-53850000D03*
X131270000Y-41920000D03*
X127660000Y-53000000D03*
X99040000Y-53240000D03*
X139070000Y-46620000D03*
%TO.N,GND*%
X99450000Y-54950000D03*
X95610000Y-54530000D03*
X102010000Y-54940000D03*
X127270000Y-40140000D03*
X137860000Y-43420000D03*
X93080000Y-45670000D03*
X92200000Y-54970000D03*
X99290000Y-50160000D03*
X92810000Y-47850000D03*
X93140000Y-47290000D03*
X97460000Y-54940000D03*
X136570000Y-43450000D03*
X99260000Y-43770000D03*
X104610000Y-53430000D03*
X93060000Y-44160000D03*
X134970000Y-42510000D03*
%TO.N,Net-(J1-CC2)*%
X96690000Y-44990000D03*
%TD*%
%TA.AperFunction,Conductor*%
%TO.N,GND*%
G36*
X92236102Y-54727381D02*
G01*
X92259489Y-54732032D01*
X92282738Y-54739084D01*
X92304779Y-54748214D01*
X92326200Y-54759664D01*
X92346023Y-54772910D01*
X92364811Y-54788330D01*
X92381668Y-54805187D01*
X92397088Y-54823975D01*
X92410328Y-54843789D01*
X92421788Y-54865229D01*
X92430911Y-54887254D01*
X92437966Y-54910511D01*
X92439031Y-54915864D01*
X92439032Y-54915867D01*
X92441461Y-54928079D01*
X92442617Y-54933887D01*
X92445000Y-54958081D01*
X92445000Y-54981913D01*
X92442616Y-55006109D01*
X92437964Y-55029491D01*
X92430910Y-55052745D01*
X92421790Y-55074764D01*
X92410329Y-55096207D01*
X92397083Y-55116030D01*
X92381663Y-55134818D01*
X92364818Y-55151663D01*
X92346027Y-55167085D01*
X92326204Y-55180330D01*
X92304770Y-55191787D01*
X92304768Y-55191788D01*
X92282746Y-55200910D01*
X92259490Y-55207965D01*
X92236115Y-55212616D01*
X92211917Y-55215000D01*
X92188087Y-55215000D01*
X92163894Y-55212617D01*
X92140509Y-55207965D01*
X92117251Y-55200909D01*
X92095228Y-55191787D01*
X92073793Y-55180330D01*
X92034233Y-55153897D01*
X91934267Y-55102172D01*
X91907019Y-55091731D01*
X91889060Y-55084849D01*
X91833503Y-55042479D01*
X91809672Y-54976799D01*
X91825133Y-54908662D01*
X91874978Y-54859700D01*
X91877274Y-54858504D01*
X91886500Y-54853817D01*
X91904435Y-54848202D01*
X91904441Y-54848200D01*
X92034232Y-54786103D01*
X92079941Y-54755559D01*
X92086527Y-54752215D01*
X92088383Y-54751868D01*
X92095223Y-54748212D01*
X92117257Y-54739085D01*
X92140509Y-54732032D01*
X92163897Y-54727380D01*
X92188081Y-54725000D01*
X92211918Y-54725000D01*
X92236102Y-54727381D01*
G37*
%TD.AperFunction*%
%TA.AperFunction,Conductor*%
G36*
X114376283Y-54673274D02*
G01*
X114405468Y-54685362D01*
X114405468Y-54685363D01*
X114484765Y-54718208D01*
X114506203Y-54729667D01*
X114526022Y-54742910D01*
X114544811Y-54758330D01*
X114561665Y-54775184D01*
X114577085Y-54793972D01*
X114590331Y-54813795D01*
X114601791Y-54835235D01*
X114610910Y-54857250D01*
X114617965Y-54880508D01*
X114620270Y-54892093D01*
X114622617Y-54903888D01*
X114625000Y-54928079D01*
X114625000Y-54951915D01*
X114622616Y-54976111D01*
X114617965Y-54999488D01*
X114610910Y-55022746D01*
X114601788Y-55044768D01*
X114590330Y-55066204D01*
X114577085Y-55086027D01*
X114561664Y-55104817D01*
X114544818Y-55121663D01*
X114526030Y-55137083D01*
X114506207Y-55150329D01*
X114484764Y-55161790D01*
X114462745Y-55170910D01*
X114439493Y-55177964D01*
X114416113Y-55182616D01*
X114391915Y-55185000D01*
X114368087Y-55185000D01*
X114343894Y-55182617D01*
X114320509Y-55177965D01*
X114297252Y-55170909D01*
X114275229Y-55161787D01*
X114253791Y-55150328D01*
X114233975Y-55137087D01*
X114215188Y-55121670D01*
X114198334Y-55104817D01*
X114182911Y-55086024D01*
X114182126Y-55084849D01*
X114169665Y-55066200D01*
X114158208Y-55044765D01*
X114157261Y-55042479D01*
X114149085Y-55022741D01*
X114142030Y-54999479D01*
X114137382Y-54976108D01*
X114135000Y-54951921D01*
X114135000Y-54928079D01*
X114137381Y-54903894D01*
X114142033Y-54880504D01*
X114149083Y-54857262D01*
X114158215Y-54835215D01*
X114169666Y-54813795D01*
X114182003Y-54795333D01*
X114213731Y-54740755D01*
X114217943Y-54732339D01*
X114265547Y-54681199D01*
X114333245Y-54663914D01*
X114376283Y-54673274D01*
G37*
%TD.AperFunction*%
%TA.AperFunction,Conductor*%
G36*
X99286167Y-49880725D02*
G01*
X99320542Y-49882644D01*
X99321073Y-49882959D01*
X99321496Y-49882987D01*
X99323074Y-49884150D01*
X99361893Y-49907239D01*
X99388574Y-49931206D01*
X99436027Y-49962913D01*
X99454811Y-49978329D01*
X99471665Y-49995182D01*
X99487087Y-50013974D01*
X99500330Y-50033793D01*
X99511787Y-50055228D01*
X99520911Y-50077253D01*
X99520912Y-50077255D01*
X99527966Y-50100511D01*
X99531021Y-50115867D01*
X99531022Y-50115870D01*
X99531021Y-50115870D01*
X99532616Y-50123886D01*
X99535000Y-50148082D01*
X99535000Y-50171915D01*
X99532616Y-50196111D01*
X99527965Y-50219488D01*
X99520910Y-50242746D01*
X99511788Y-50264768D01*
X99500330Y-50286204D01*
X99487085Y-50306027D01*
X99471663Y-50324818D01*
X99454818Y-50341663D01*
X99436027Y-50357085D01*
X99416204Y-50370330D01*
X99394769Y-50381787D01*
X99359866Y-50396245D01*
X99349467Y-50400019D01*
X99266925Y-50425867D01*
X99264261Y-50426701D01*
X99215935Y-50447738D01*
X99215916Y-50447748D01*
X99210400Y-50450889D01*
X99142402Y-50466952D01*
X99076514Y-50443702D01*
X99033656Y-50388521D01*
X99026311Y-50325485D01*
X99045000Y-50195500D01*
X99045000Y-50148077D01*
X99047381Y-50123896D01*
X99052034Y-50100502D01*
X99059084Y-50077262D01*
X99068213Y-50055221D01*
X99079662Y-50033800D01*
X99092914Y-50013968D01*
X99108324Y-49995190D01*
X99168839Y-49934676D01*
X99173340Y-49930372D01*
X99190432Y-49912736D01*
X99190698Y-49912467D01*
X99220821Y-49895724D01*
X99250781Y-49878751D01*
X99251307Y-49878780D01*
X99251769Y-49878524D01*
X99286167Y-49880725D01*
G37*
%TD.AperFunction*%
%TA.AperFunction,Conductor*%
G36*
X93194431Y-47047929D02*
G01*
X93194809Y-47047175D01*
X93198276Y-47048910D01*
X93198410Y-47048945D01*
X93198764Y-47049155D01*
X93198766Y-47049156D01*
X93198768Y-47049157D01*
X93244769Y-47068211D01*
X93266203Y-47079668D01*
X93266209Y-47079671D01*
X93286022Y-47092910D01*
X93304809Y-47108327D01*
X93321665Y-47125182D01*
X93337086Y-47143973D01*
X93350328Y-47163791D01*
X93361790Y-47185233D01*
X93370913Y-47207260D01*
X93377966Y-47230512D01*
X93382616Y-47253883D01*
X93385000Y-47278080D01*
X93385000Y-47301915D01*
X93382616Y-47326111D01*
X93377965Y-47349488D01*
X93370910Y-47372746D01*
X93361788Y-47394768D01*
X93350330Y-47416204D01*
X93337085Y-47436027D01*
X93321663Y-47454818D01*
X93293029Y-47483452D01*
X93283113Y-47492281D01*
X93283125Y-47492296D01*
X93282673Y-47492673D01*
X93282319Y-47492989D01*
X93281879Y-47493337D01*
X93261510Y-47510360D01*
X93221917Y-47547224D01*
X93137760Y-47663927D01*
X93137758Y-47663929D01*
X93107684Y-47721421D01*
X93106500Y-47722647D01*
X93057507Y-47861522D01*
X93047965Y-47909490D01*
X93040910Y-47932745D01*
X93031790Y-47954764D01*
X93020329Y-47976207D01*
X93007083Y-47996030D01*
X92991663Y-48014818D01*
X92974818Y-48031663D01*
X92956030Y-48047083D01*
X92936207Y-48060329D01*
X92914764Y-48071790D01*
X92892745Y-48080910D01*
X92869493Y-48087964D01*
X92846113Y-48092616D01*
X92821915Y-48095000D01*
X92798087Y-48095000D01*
X92773894Y-48092617D01*
X92750509Y-48087965D01*
X92727252Y-48080909D01*
X92705229Y-48071787D01*
X92683791Y-48060328D01*
X92663975Y-48047087D01*
X92645188Y-48031670D01*
X92628334Y-48014817D01*
X92612911Y-47996024D01*
X92599667Y-47976203D01*
X92588208Y-47954765D01*
X92579087Y-47932745D01*
X92572030Y-47909479D01*
X92567382Y-47886108D01*
X92565000Y-47861921D01*
X92565000Y-47838079D01*
X92567381Y-47813894D01*
X92572033Y-47790504D01*
X92579083Y-47767262D01*
X92588213Y-47745220D01*
X92599659Y-47723806D01*
X92612920Y-47703960D01*
X92628328Y-47685187D01*
X92656978Y-47656537D01*
X92666895Y-47647711D01*
X92666883Y-47647696D01*
X92667381Y-47647279D01*
X92667737Y-47646963D01*
X92668146Y-47646638D01*
X92668161Y-47646628D01*
X92688495Y-47629633D01*
X92728080Y-47592777D01*
X92812236Y-47476075D01*
X92841583Y-47419972D01*
X92842445Y-47418520D01*
X92844621Y-47414166D01*
X92844622Y-47414164D01*
X92844624Y-47414161D01*
X92892492Y-47278476D01*
X92902034Y-47230502D01*
X92909085Y-47207260D01*
X92918213Y-47185221D01*
X92929669Y-47163791D01*
X92942910Y-47143975D01*
X92958323Y-47125192D01*
X92975187Y-47108327D01*
X92993966Y-47092916D01*
X93014977Y-47078878D01*
X93034366Y-47068292D01*
X93037792Y-47066801D01*
X93045843Y-47063124D01*
X93062114Y-47055339D01*
X93064417Y-47053739D01*
X93065465Y-47053390D01*
X93066430Y-47052830D01*
X93066546Y-47053030D01*
X93130709Y-47031670D01*
X93194431Y-47047929D01*
G37*
%TD.AperFunction*%
%TA.AperFunction,Conductor*%
G36*
X125766102Y-47047381D02*
G01*
X125789489Y-47052032D01*
X125812738Y-47059084D01*
X125834779Y-47068214D01*
X125856200Y-47079664D01*
X125876023Y-47092910D01*
X125894809Y-47108327D01*
X125911665Y-47125182D01*
X125927086Y-47143973D01*
X125940328Y-47163791D01*
X125951790Y-47185233D01*
X125960913Y-47207260D01*
X125967966Y-47230512D01*
X125972616Y-47253883D01*
X125975000Y-47278080D01*
X125975000Y-47301915D01*
X125972616Y-47326111D01*
X125967965Y-47349488D01*
X125960910Y-47372746D01*
X125951788Y-47394768D01*
X125940330Y-47416204D01*
X125927085Y-47436027D01*
X125911663Y-47454818D01*
X125894818Y-47471663D01*
X125876027Y-47487085D01*
X125856204Y-47500330D01*
X125834768Y-47511788D01*
X125812746Y-47520910D01*
X125789490Y-47527965D01*
X125766115Y-47532616D01*
X125741917Y-47535000D01*
X125718085Y-47535000D01*
X125693893Y-47532617D01*
X125693888Y-47532616D01*
X125670510Y-47527965D01*
X125647255Y-47520911D01*
X125625223Y-47511785D01*
X125604714Y-47500821D01*
X125604688Y-47500864D01*
X125604069Y-47500476D01*
X125603780Y-47500321D01*
X125603146Y-47499898D01*
X125552605Y-47470215D01*
X125552594Y-47470209D01*
X125552581Y-47470202D01*
X125527049Y-47457136D01*
X125527017Y-47457121D01*
X125467701Y-47430987D01*
X125468576Y-47428999D01*
X125419077Y-47395116D01*
X125391911Y-47330744D01*
X125403860Y-47261904D01*
X125440796Y-47217407D01*
X125501704Y-47171812D01*
X125565190Y-47108324D01*
X125583968Y-47092914D01*
X125603797Y-47079664D01*
X125625217Y-47068215D01*
X125647260Y-47059084D01*
X125670509Y-47052032D01*
X125693897Y-47047380D01*
X125718081Y-47045000D01*
X125741918Y-47045000D01*
X125766102Y-47047381D01*
G37*
%TD.AperFunction*%
%TA.AperFunction,Conductor*%
G36*
X93137740Y-45412607D02*
G01*
X93162150Y-45429717D01*
X93164387Y-45431727D01*
X93184375Y-45445082D01*
X93226018Y-45472907D01*
X93226026Y-45472912D01*
X93244812Y-45488330D01*
X93244817Y-45488334D01*
X93261664Y-45505181D01*
X93277081Y-45523965D01*
X93290331Y-45543795D01*
X93301787Y-45565227D01*
X93309464Y-45583760D01*
X93309470Y-45583774D01*
X93310916Y-45587266D01*
X93317966Y-45610511D01*
X93322617Y-45633891D01*
X93325000Y-45658080D01*
X93325000Y-45681915D01*
X93322616Y-45706111D01*
X93317965Y-45729488D01*
X93310910Y-45752746D01*
X93301788Y-45774768D01*
X93290330Y-45796204D01*
X93277085Y-45816027D01*
X93261666Y-45834814D01*
X93261663Y-45834818D01*
X93244818Y-45851663D01*
X93226027Y-45867084D01*
X93205028Y-45881115D01*
X93185658Y-45891696D01*
X93182152Y-45893223D01*
X93174124Y-45896890D01*
X93157896Y-45904654D01*
X93157888Y-45904658D01*
X93155561Y-45906274D01*
X93154505Y-45906625D01*
X93153587Y-45907159D01*
X93153475Y-45906967D01*
X93089264Y-45928330D01*
X93025562Y-45912069D01*
X93025186Y-45912822D01*
X93021729Y-45911091D01*
X93021594Y-45911057D01*
X93021236Y-45910844D01*
X92987541Y-45896888D01*
X92975226Y-45891786D01*
X92953795Y-45880332D01*
X92933970Y-45867084D01*
X92915187Y-45851669D01*
X92898332Y-45834814D01*
X92882911Y-45816024D01*
X92869667Y-45796203D01*
X92858208Y-45774765D01*
X92849087Y-45752746D01*
X92849085Y-45752741D01*
X92842030Y-45729479D01*
X92837382Y-45706108D01*
X92835000Y-45681921D01*
X92835000Y-45658079D01*
X92837382Y-45633891D01*
X92842031Y-45610516D01*
X92849085Y-45587257D01*
X92858213Y-45565221D01*
X92869669Y-45543791D01*
X92882912Y-45523972D01*
X92898330Y-45505186D01*
X92915186Y-45488330D01*
X92933975Y-45472909D01*
X92975612Y-45445090D01*
X93004094Y-45423368D01*
X93069336Y-45398367D01*
X93137740Y-45412607D01*
G37*
%TD.AperFunction*%
%TA.AperFunction,Conductor*%
G36*
X117836102Y-44767381D02*
G01*
X117859489Y-44772032D01*
X117882738Y-44779084D01*
X117904779Y-44788214D01*
X117926200Y-44799664D01*
X117946023Y-44812910D01*
X117964809Y-44828327D01*
X117981665Y-44845182D01*
X117997086Y-44863973D01*
X118010328Y-44883791D01*
X118021790Y-44905233D01*
X118030913Y-44927260D01*
X118037966Y-44950512D01*
X118042616Y-44973883D01*
X118045000Y-44998080D01*
X118045000Y-45021915D01*
X118042616Y-45046111D01*
X118037965Y-45069488D01*
X118030910Y-45092746D01*
X118021788Y-45114768D01*
X118010330Y-45136204D01*
X117997085Y-45156027D01*
X117981664Y-45174817D01*
X117964820Y-45191661D01*
X117946030Y-45207082D01*
X117876004Y-45253872D01*
X117875752Y-45254066D01*
X117875662Y-45254100D01*
X117872627Y-45256129D01*
X117872173Y-45255449D01*
X117810585Y-45279266D01*
X117742139Y-45265234D01*
X117731366Y-45258799D01*
X117653976Y-45207088D01*
X117635188Y-45191670D01*
X117618334Y-45174817D01*
X117602911Y-45156024D01*
X117589667Y-45136203D01*
X117578208Y-45114765D01*
X117569087Y-45092746D01*
X117569085Y-45092741D01*
X117562030Y-45069479D01*
X117557382Y-45046108D01*
X117555000Y-45021921D01*
X117555000Y-44998079D01*
X117557382Y-44973891D01*
X117562031Y-44950516D01*
X117569085Y-44927257D01*
X117578213Y-44905221D01*
X117589669Y-44883791D01*
X117589670Y-44883790D01*
X117602912Y-44863972D01*
X117618323Y-44845192D01*
X117635186Y-44828328D01*
X117653965Y-44812917D01*
X117673804Y-44799660D01*
X117695224Y-44788211D01*
X117717258Y-44779085D01*
X117740509Y-44772032D01*
X117758628Y-44768428D01*
X117763898Y-44767381D01*
X117788081Y-44765000D01*
X117811918Y-44765000D01*
X117836102Y-44767381D01*
G37*
%TD.AperFunction*%
%TA.AperFunction,Conductor*%
G36*
X93198779Y-43813726D02*
G01*
X93236553Y-43872504D01*
X93240865Y-43894182D01*
X93242134Y-43905990D01*
X93242135Y-43905994D01*
X93277006Y-44042617D01*
X93277715Y-44045394D01*
X93290912Y-44077258D01*
X93297966Y-44100509D01*
X93302617Y-44123887D01*
X93305000Y-44148082D01*
X93305000Y-44171914D01*
X93302617Y-44196107D01*
X93298213Y-44218246D01*
X93298207Y-44218277D01*
X93297960Y-44219517D01*
X93290909Y-44242748D01*
X93281787Y-44264769D01*
X93270330Y-44286204D01*
X93257085Y-44306027D01*
X93241663Y-44324818D01*
X93224817Y-44341664D01*
X93206030Y-44357083D01*
X93180851Y-44373907D01*
X93164389Y-44384908D01*
X93164378Y-44384916D01*
X93164367Y-44384924D01*
X93135898Y-44406634D01*
X93070654Y-44431632D01*
X93002251Y-44417387D01*
X92977848Y-44400281D01*
X92975610Y-44398270D01*
X92944984Y-44377807D01*
X92913965Y-44357081D01*
X92895179Y-44341663D01*
X92878337Y-44324821D01*
X92878335Y-44324818D01*
X92862918Y-44306033D01*
X92849665Y-44286200D01*
X92838209Y-44264766D01*
X92834440Y-44255669D01*
X92829087Y-44242744D01*
X92822030Y-44219479D01*
X92817382Y-44196108D01*
X92815000Y-44171921D01*
X92815000Y-44148079D01*
X92817381Y-44123894D01*
X92822033Y-44100504D01*
X92829085Y-44077258D01*
X92838211Y-44055224D01*
X92849660Y-44033804D01*
X92862917Y-44013965D01*
X92878327Y-43995187D01*
X92939115Y-43934402D01*
X93006924Y-43850258D01*
X93013261Y-43840398D01*
X93066065Y-43794643D01*
X93135224Y-43784700D01*
X93198779Y-43813726D01*
G37*
%TD.AperFunction*%
%TA.AperFunction,Conductor*%
G36*
X110126104Y-43557382D02*
G01*
X110149481Y-43562031D01*
X110172747Y-43569088D01*
X110181960Y-43572904D01*
X110194769Y-43578210D01*
X110216205Y-43589668D01*
X110233236Y-43601047D01*
X110282347Y-43633863D01*
X110341897Y-43665013D01*
X110360747Y-43683202D01*
X110382049Y-43698437D01*
X110385486Y-43707073D01*
X110392175Y-43713528D01*
X110398197Y-43739015D01*
X110407884Y-43763355D01*
X110406105Y-43772480D01*
X110408243Y-43781525D01*
X110399529Y-43806226D01*
X110394519Y-43831935D01*
X110387276Y-43840958D01*
X110384999Y-43847415D01*
X110373988Y-43860642D01*
X110369223Y-43865618D01*
X110360645Y-43872788D01*
X110334629Y-43901750D01*
X110333253Y-43903188D01*
X110333122Y-43903262D01*
X110331366Y-43905116D01*
X110254814Y-43981666D01*
X110236027Y-43997085D01*
X110216207Y-44010329D01*
X110194764Y-44021790D01*
X110172745Y-44030910D01*
X110149493Y-44037964D01*
X110126113Y-44042616D01*
X110101915Y-44045000D01*
X110078087Y-44045000D01*
X110053894Y-44042617D01*
X110030509Y-44037965D01*
X110007252Y-44030909D01*
X109985229Y-44021787D01*
X109963791Y-44010328D01*
X109943975Y-43997087D01*
X109925188Y-43981670D01*
X109908334Y-43964817D01*
X109892911Y-43946024D01*
X109885423Y-43934817D01*
X109879665Y-43926200D01*
X109868208Y-43904765D01*
X109867585Y-43903262D01*
X109859085Y-43882741D01*
X109852030Y-43859479D01*
X109847382Y-43836108D01*
X109845000Y-43811921D01*
X109845000Y-43788079D01*
X109847382Y-43763891D01*
X109852031Y-43740516D01*
X109859085Y-43717257D01*
X109868213Y-43695221D01*
X109879669Y-43673791D01*
X109892912Y-43653972D01*
X109908323Y-43635192D01*
X109925186Y-43618328D01*
X109943965Y-43602917D01*
X109963804Y-43589660D01*
X109985224Y-43578211D01*
X110007258Y-43569085D01*
X110030509Y-43562032D01*
X110048628Y-43558428D01*
X110053898Y-43557381D01*
X110078081Y-43555000D01*
X110101918Y-43555000D01*
X110126104Y-43557382D01*
G37*
%TD.AperFunction*%
%TA.AperFunction,Conductor*%
G36*
X99172363Y-43457145D02*
G01*
X99179726Y-43462066D01*
X99182006Y-43463711D01*
X99182011Y-43463713D01*
X99182014Y-43463716D01*
X99182020Y-43463719D01*
X99236452Y-43492200D01*
X99239008Y-43493537D01*
X99243090Y-43495673D01*
X99243142Y-43495700D01*
X99243329Y-43495798D01*
X99243770Y-43496029D01*
X99243771Y-43496029D01*
X99246978Y-43497709D01*
X99246981Y-43497711D01*
X99250080Y-43500705D01*
X99257567Y-43503806D01*
X99267609Y-43508501D01*
X99268372Y-43508900D01*
X99277022Y-43511865D01*
X99300187Y-43521460D01*
X99364767Y-43548209D01*
X99386199Y-43559664D01*
X99406025Y-43572911D01*
X99424810Y-43588328D01*
X99441667Y-43605185D01*
X99457085Y-43623971D01*
X99463692Y-43633859D01*
X99470328Y-43643790D01*
X99481787Y-43665227D01*
X99484122Y-43670864D01*
X99484122Y-43670865D01*
X99490911Y-43687255D01*
X99497966Y-43710512D01*
X99502616Y-43733884D01*
X99505000Y-43758080D01*
X99505000Y-43781915D01*
X99502616Y-43806111D01*
X99497965Y-43829488D01*
X99490910Y-43852746D01*
X99481788Y-43874768D01*
X99470330Y-43896204D01*
X99457085Y-43916027D01*
X99441664Y-43934817D01*
X99424818Y-43951663D01*
X99406027Y-43967085D01*
X99386207Y-43980328D01*
X99364774Y-43991784D01*
X99342749Y-44000908D01*
X99319488Y-44007965D01*
X99296111Y-44012616D01*
X99271915Y-44015000D01*
X99248087Y-44015000D01*
X99223894Y-44012617D01*
X99200509Y-44007965D01*
X99177252Y-44000909D01*
X99155229Y-43991787D01*
X99133791Y-43980328D01*
X99113975Y-43967087D01*
X99095188Y-43951670D01*
X99078334Y-43934817D01*
X99062911Y-43916024D01*
X99056209Y-43905994D01*
X99049665Y-43896200D01*
X99038209Y-43874766D01*
X99029086Y-43852742D01*
X99022031Y-43829489D01*
X99013650Y-43787352D01*
X99011987Y-43776478D01*
X99003446Y-43697038D01*
X98992240Y-43645529D01*
X98990501Y-43640303D01*
X98979840Y-43608273D01*
X98978858Y-43580795D01*
X98974462Y-43553651D01*
X98977629Y-43546376D01*
X98977346Y-43538448D01*
X98991374Y-43514804D01*
X99002352Y-43489589D01*
X99010878Y-43481931D01*
X99012998Y-43478359D01*
X99028611Y-43466006D01*
X99038306Y-43459529D01*
X99104984Y-43438656D01*
X99172363Y-43457145D01*
G37*
%TD.AperFunction*%
%TA.AperFunction,Conductor*%
G36*
X137962200Y-42920184D02*
G01*
X138007955Y-42972988D01*
X138019082Y-43028922D01*
X138018096Y-43056520D01*
X138018097Y-43056521D01*
X138024285Y-43114083D01*
X138025566Y-43125989D01*
X138025567Y-43125996D01*
X138025568Y-43125997D01*
X138061142Y-43265380D01*
X138061145Y-43265390D01*
X138061147Y-43265395D01*
X138062999Y-43269867D01*
X138090911Y-43337256D01*
X138097965Y-43360509D01*
X138102616Y-43383885D01*
X138105000Y-43408082D01*
X138105000Y-43431915D01*
X138102616Y-43456111D01*
X138097965Y-43479488D01*
X138090910Y-43502746D01*
X138081788Y-43524768D01*
X138070330Y-43546204D01*
X138057085Y-43566027D01*
X138041663Y-43584818D01*
X138024818Y-43601663D01*
X138006027Y-43617085D01*
X137986204Y-43630330D01*
X137964768Y-43641788D01*
X137942746Y-43650910D01*
X137919490Y-43657965D01*
X137896115Y-43662616D01*
X137871917Y-43665000D01*
X137848087Y-43665000D01*
X137823894Y-43662617D01*
X137800509Y-43657965D01*
X137777252Y-43650909D01*
X137755229Y-43641787D01*
X137733792Y-43630329D01*
X137713971Y-43617085D01*
X137695181Y-43601664D01*
X137675128Y-43581611D01*
X137675121Y-43581604D01*
X137616669Y-43534500D01*
X137590988Y-43513804D01*
X137590973Y-43513793D01*
X137546639Y-43485301D01*
X137546630Y-43485296D01*
X137449987Y-43436920D01*
X137449986Y-43436919D01*
X137449985Y-43436919D01*
X137449983Y-43436918D01*
X137449976Y-43436916D01*
X137309404Y-43406337D01*
X137309393Y-43406336D01*
X137286162Y-43404674D01*
X137239703Y-43401352D01*
X137239700Y-43401352D01*
X137096189Y-43411616D01*
X136961385Y-43461896D01*
X136961382Y-43461897D01*
X136961381Y-43461898D01*
X136958061Y-43463711D01*
X136900061Y-43495381D01*
X136900059Y-43495382D01*
X136900058Y-43495383D01*
X136820732Y-43554765D01*
X136784882Y-43581602D01*
X136784878Y-43581605D01*
X136734811Y-43631670D01*
X136716024Y-43647087D01*
X136716022Y-43647089D01*
X136696205Y-43660330D01*
X136674768Y-43671788D01*
X136652748Y-43680909D01*
X136629493Y-43687964D01*
X136606113Y-43692616D01*
X136581915Y-43695000D01*
X136558087Y-43695000D01*
X136533894Y-43692617D01*
X136510509Y-43687965D01*
X136487252Y-43680909D01*
X136465229Y-43671787D01*
X136443791Y-43660328D01*
X136423975Y-43647087D01*
X136405188Y-43631670D01*
X136388334Y-43614817D01*
X136372911Y-43596024D01*
X136367769Y-43588328D01*
X136359665Y-43576200D01*
X136348208Y-43554765D01*
X136347428Y-43552883D01*
X136339085Y-43532741D01*
X136332030Y-43509479D01*
X136327382Y-43486108D01*
X136325000Y-43461921D01*
X136325000Y-43438079D01*
X136327382Y-43413891D01*
X136332031Y-43390516D01*
X136339088Y-43367251D01*
X136341881Y-43360509D01*
X136371934Y-43287956D01*
X136371933Y-43287955D01*
X136377485Y-43274552D01*
X136377864Y-43273820D01*
X136378240Y-43272836D01*
X136378202Y-43272821D01*
X136379426Y-43269867D01*
X136379427Y-43269865D01*
X136379433Y-43269851D01*
X136381110Y-43265804D01*
X136382419Y-43262761D01*
X136384005Y-43259203D01*
X136385288Y-43255717D01*
X136388022Y-43249116D01*
X136389880Y-43242456D01*
X136397329Y-43223019D01*
X136425651Y-43114082D01*
X136425650Y-43024498D01*
X136445334Y-42957461D01*
X136498137Y-42911705D01*
X136549650Y-42900499D01*
X137895161Y-42900499D01*
X137962200Y-42920184D01*
G37*
%TD.AperFunction*%
%TA.AperFunction,Conductor*%
G36*
X121186102Y-39667381D02*
G01*
X121209489Y-39672032D01*
X121232738Y-39679084D01*
X121254779Y-39688214D01*
X121276200Y-39699664D01*
X121296023Y-39712910D01*
X121314809Y-39728327D01*
X121331665Y-39745182D01*
X121347082Y-39763967D01*
X121360333Y-39783798D01*
X121371787Y-39805228D01*
X121371791Y-39805235D01*
X121380911Y-39827255D01*
X121387965Y-39850510D01*
X121400862Y-39915343D01*
X121406747Y-39934136D01*
X121421565Y-39981460D01*
X121422115Y-39983214D01*
X121422525Y-40006181D01*
X121427500Y-40028608D01*
X121423137Y-40040452D01*
X121423363Y-40053073D01*
X121411291Y-40072615D01*
X121403352Y-40094172D01*
X121393277Y-40101778D01*
X121386645Y-40112516D01*
X121365924Y-40122429D01*
X121347591Y-40136272D01*
X121328680Y-40140249D01*
X121323618Y-40142672D01*
X121313134Y-40143916D01*
X121311759Y-40144019D01*
X121198921Y-40150069D01*
X121178749Y-40154081D01*
X121171273Y-40154647D01*
X121169450Y-40154258D01*
X121161920Y-40155000D01*
X121138087Y-40155000D01*
X121113894Y-40152617D01*
X121090509Y-40147965D01*
X121067252Y-40140909D01*
X121045229Y-40131787D01*
X121023791Y-40120328D01*
X121003975Y-40107087D01*
X120985188Y-40091670D01*
X120968334Y-40074817D01*
X120952911Y-40056024D01*
X120939665Y-40036200D01*
X120928208Y-40014765D01*
X120924652Y-40006181D01*
X120919085Y-39992741D01*
X120912030Y-39969479D01*
X120907382Y-39946108D01*
X120905000Y-39921921D01*
X120905000Y-39898079D01*
X120907382Y-39873891D01*
X120912031Y-39850516D01*
X120919085Y-39827257D01*
X120928213Y-39805221D01*
X120939669Y-39783791D01*
X120939670Y-39783790D01*
X120952912Y-39763972D01*
X120968323Y-39745192D01*
X120985186Y-39728328D01*
X121003965Y-39712917D01*
X121023804Y-39699660D01*
X121045224Y-39688211D01*
X121067258Y-39679085D01*
X121090509Y-39672032D01*
X121108628Y-39668428D01*
X121113898Y-39667381D01*
X121138081Y-39665000D01*
X121161918Y-39665000D01*
X121186102Y-39667381D01*
G37*
%TD.AperFunction*%
%TD*%
%TA.AperFunction,Conductor*%
%TO.N,3V3*%
G36*
X136061995Y-37560563D02*
G01*
X136664666Y-37579890D01*
X136672577Y-37580398D01*
X137270823Y-37638110D01*
X137278669Y-37639121D01*
X137872016Y-37735049D01*
X137879768Y-37736559D01*
X138465715Y-37870297D01*
X138473396Y-37872311D01*
X139049567Y-38043316D01*
X139057110Y-38045821D01*
X139621133Y-38253386D01*
X139628470Y-38256357D01*
X139986649Y-38414912D01*
X140178042Y-38499636D01*
X140185204Y-38503085D01*
X140718044Y-38781068D01*
X140724957Y-38784960D01*
X141111662Y-39019383D01*
X141238921Y-39096528D01*
X141245579Y-39100863D01*
X141529499Y-39298913D01*
X141738481Y-39444690D01*
X141744852Y-39449444D01*
X142214745Y-39824171D01*
X142220797Y-39829324D01*
X142665685Y-40233360D01*
X142671395Y-40238889D01*
X143089509Y-40670626D01*
X143094853Y-40676511D01*
X143474088Y-41121983D01*
X143484426Y-41134126D01*
X143489382Y-41140340D01*
X143848855Y-41622001D01*
X143853389Y-41628501D01*
X144181255Y-42132190D01*
X144185375Y-42138985D01*
X144194119Y-42154511D01*
X144480301Y-42662658D01*
X144483977Y-42669705D01*
X144568535Y-42845291D01*
X144579887Y-42914233D01*
X144552165Y-42978367D01*
X144494170Y-43017333D01*
X144437417Y-43021566D01*
X144298097Y-42999500D01*
X144298092Y-42999500D01*
X144061908Y-42999500D01*
X144061903Y-42999500D01*
X143828631Y-43036446D01*
X143604003Y-43109433D01*
X143393566Y-43216657D01*
X143294904Y-43288340D01*
X143202490Y-43355483D01*
X143202488Y-43355485D01*
X143202487Y-43355485D01*
X143035485Y-43522487D01*
X143035485Y-43522488D01*
X143035483Y-43522490D01*
X142992913Y-43581082D01*
X142896657Y-43713566D01*
X142789433Y-43924003D01*
X142716446Y-44148631D01*
X142679500Y-44381902D01*
X142679500Y-44618097D01*
X142716446Y-44851368D01*
X142789433Y-45075996D01*
X142879313Y-45252394D01*
X142896657Y-45286433D01*
X143035483Y-45477510D01*
X143202490Y-45644517D01*
X143393567Y-45783343D01*
X143478862Y-45826803D01*
X143604003Y-45890566D01*
X143604005Y-45890566D01*
X143604008Y-45890568D01*
X143724412Y-45929689D01*
X143828631Y-45963553D01*
X144061903Y-46000500D01*
X144061908Y-46000500D01*
X144298097Y-46000500D01*
X144531368Y-45963553D01*
X144567977Y-45951658D01*
X144755992Y-45890568D01*
X144966433Y-45783343D01*
X145157510Y-45644517D01*
X145238825Y-45563201D01*
X145300144Y-45529719D01*
X145369836Y-45534703D01*
X145425770Y-45576574D01*
X145449485Y-45635028D01*
X145515096Y-46143889D01*
X145515859Y-46151801D01*
X145554364Y-46751554D01*
X145554619Y-46759499D01*
X145554619Y-47360500D01*
X145554364Y-47368445D01*
X145515859Y-47968198D01*
X145515096Y-47976110D01*
X145463190Y-48378676D01*
X145435094Y-48442648D01*
X145376872Y-48481275D01*
X145307010Y-48482292D01*
X145252527Y-48450500D01*
X145157512Y-48355485D01*
X145157510Y-48355483D01*
X144966433Y-48216657D01*
X144944538Y-48205501D01*
X144755996Y-48109433D01*
X144531368Y-48036446D01*
X144298097Y-47999500D01*
X144298092Y-47999500D01*
X144061908Y-47999500D01*
X144061903Y-47999500D01*
X143828631Y-48036446D01*
X143604003Y-48109433D01*
X143393566Y-48216657D01*
X143291130Y-48291082D01*
X143202490Y-48355483D01*
X143202488Y-48355485D01*
X143202487Y-48355485D01*
X143035485Y-48522487D01*
X143035485Y-48522488D01*
X143035483Y-48522490D01*
X143002169Y-48568343D01*
X142896657Y-48713566D01*
X142789433Y-48924003D01*
X142716446Y-49148631D01*
X142679500Y-49381902D01*
X142679500Y-49618097D01*
X142716446Y-49851368D01*
X142789433Y-50075996D01*
X142892810Y-50278882D01*
X142896657Y-50286433D01*
X143035483Y-50477510D01*
X143202490Y-50644517D01*
X143393567Y-50783343D01*
X143475494Y-50825087D01*
X143604003Y-50890566D01*
X143604005Y-50890566D01*
X143604008Y-50890568D01*
X143667590Y-50911227D01*
X143828631Y-50963553D01*
X144061903Y-51000500D01*
X144061908Y-51000500D01*
X144298096Y-51000500D01*
X144386874Y-50986438D01*
X144499979Y-50968524D01*
X144569271Y-50977478D01*
X144622723Y-51022474D01*
X144643363Y-51089226D01*
X144631096Y-51144799D01*
X144483977Y-51450294D01*
X144480301Y-51457341D01*
X144185376Y-51981012D01*
X144181255Y-51987809D01*
X143853396Y-52491488D01*
X143848848Y-52498008D01*
X143489382Y-52979659D01*
X143484426Y-52985873D01*
X143094853Y-53443488D01*
X143089509Y-53449373D01*
X142671395Y-53881110D01*
X142665685Y-53886639D01*
X142220797Y-54290675D01*
X142214745Y-54295828D01*
X141744852Y-54670555D01*
X141738481Y-54675309D01*
X141245582Y-55019134D01*
X141238921Y-55023471D01*
X140724963Y-55335035D01*
X140718037Y-55338935D01*
X140185204Y-55616914D01*
X140178042Y-55620363D01*
X139628485Y-55863636D01*
X139621117Y-55866619D01*
X139057110Y-56074178D01*
X139049567Y-56076683D01*
X138473396Y-56247688D01*
X138465707Y-56249704D01*
X137879797Y-56383434D01*
X137871994Y-56384954D01*
X137278688Y-56480875D01*
X137270805Y-56481891D01*
X136672588Y-56539600D01*
X136664656Y-56540109D01*
X136100301Y-56558207D01*
X136061994Y-56559436D01*
X136058022Y-56559500D01*
X91684500Y-56559500D01*
X91617461Y-56539815D01*
X91571706Y-56487011D01*
X91560500Y-56435500D01*
X91560500Y-55677306D01*
X91580185Y-55610267D01*
X91632989Y-55564512D01*
X91702147Y-55554568D01*
X91753391Y-55574204D01*
X91844498Y-55635080D01*
X91844511Y-55635087D01*
X91946438Y-55677306D01*
X91981087Y-55691658D01*
X91981091Y-55691658D01*
X91981092Y-55691659D01*
X92126079Y-55720500D01*
X92126082Y-55720500D01*
X92273920Y-55720500D01*
X92374462Y-55700500D01*
X92418913Y-55691658D01*
X92555495Y-55635084D01*
X92678416Y-55552951D01*
X92782951Y-55448416D01*
X92865084Y-55325495D01*
X92921658Y-55188913D01*
X92950500Y-55043918D01*
X92950500Y-54896082D01*
X92950500Y-54896079D01*
X92921659Y-54751092D01*
X92921658Y-54751091D01*
X92921658Y-54751087D01*
X92909230Y-54721082D01*
X92865087Y-54614511D01*
X92865080Y-54614498D01*
X92858012Y-54603920D01*
X94859499Y-54603920D01*
X94888340Y-54748907D01*
X94888343Y-54748917D01*
X94944912Y-54885488D01*
X94944919Y-54885501D01*
X95027048Y-55008415D01*
X95027051Y-55008419D01*
X95131580Y-55112948D01*
X95131584Y-55112951D01*
X95254498Y-55195080D01*
X95254511Y-55195087D01*
X95391082Y-55251656D01*
X95391087Y-55251658D01*
X95391091Y-55251658D01*
X95391092Y-55251659D01*
X95536079Y-55280500D01*
X95536082Y-55280500D01*
X95683920Y-55280500D01*
X95781462Y-55261096D01*
X95828913Y-55251658D01*
X95965495Y-55195084D01*
X96088416Y-55112951D01*
X96187447Y-55013920D01*
X96709499Y-55013920D01*
X96738340Y-55158907D01*
X96738343Y-55158917D01*
X96794912Y-55295488D01*
X96794919Y-55295501D01*
X96877048Y-55418415D01*
X96877051Y-55418419D01*
X96981580Y-55522948D01*
X96981584Y-55522951D01*
X97104498Y-55605080D01*
X97104511Y-55605087D01*
X97241082Y-55661656D01*
X97241087Y-55661658D01*
X97241091Y-55661658D01*
X97241092Y-55661659D01*
X97386079Y-55690500D01*
X97386082Y-55690500D01*
X97533920Y-55690500D01*
X97631462Y-55671096D01*
X97678913Y-55661658D01*
X97791353Y-55615084D01*
X97815488Y-55605087D01*
X97815488Y-55605086D01*
X97815495Y-55605084D01*
X97938416Y-55522951D01*
X98042951Y-55418416D01*
X98125084Y-55295495D01*
X98181658Y-55158913D01*
X98204532Y-55043920D01*
X98208511Y-55023920D01*
X98699499Y-55023920D01*
X98728340Y-55168907D01*
X98728343Y-55168917D01*
X98784912Y-55305488D01*
X98784919Y-55305501D01*
X98867048Y-55428415D01*
X98867051Y-55428419D01*
X98971580Y-55532948D01*
X98971584Y-55532951D01*
X99094498Y-55615080D01*
X99094511Y-55615087D01*
X99206947Y-55661659D01*
X99231087Y-55671658D01*
X99231091Y-55671658D01*
X99231092Y-55671659D01*
X99376079Y-55700500D01*
X99376082Y-55700500D01*
X99523920Y-55700500D01*
X99640519Y-55677306D01*
X99668913Y-55671658D01*
X99805495Y-55615084D01*
X99928416Y-55532951D01*
X100032951Y-55428416D01*
X100115084Y-55305495D01*
X100171658Y-55168913D01*
X100182790Y-55112948D01*
X100200500Y-55023920D01*
X100200500Y-55013920D01*
X101259499Y-55013920D01*
X101288340Y-55158907D01*
X101288343Y-55158917D01*
X101344912Y-55295488D01*
X101344919Y-55295501D01*
X101427048Y-55418415D01*
X101427051Y-55418419D01*
X101531580Y-55522948D01*
X101531584Y-55522951D01*
X101654498Y-55605080D01*
X101654511Y-55605087D01*
X101791082Y-55661656D01*
X101791087Y-55661658D01*
X101791091Y-55661658D01*
X101791092Y-55661659D01*
X101936079Y-55690500D01*
X101936082Y-55690500D01*
X102083920Y-55690500D01*
X102181462Y-55671096D01*
X102228913Y-55661658D01*
X102341353Y-55615084D01*
X102365488Y-55605087D01*
X102365488Y-55605086D01*
X102365495Y-55605084D01*
X102488416Y-55522951D01*
X102592951Y-55418416D01*
X102675084Y-55295495D01*
X102731658Y-55158913D01*
X102754532Y-55043920D01*
X102760500Y-55013920D01*
X102760500Y-54866079D01*
X102731659Y-54721092D01*
X102731658Y-54721091D01*
X102731658Y-54721087D01*
X102710727Y-54670555D01*
X102675087Y-54584511D01*
X102675080Y-54584498D01*
X102592951Y-54461584D01*
X102592948Y-54461580D01*
X102488419Y-54357051D01*
X102488415Y-54357048D01*
X102365501Y-54274919D01*
X102365488Y-54274912D01*
X102228917Y-54218343D01*
X102228907Y-54218340D01*
X102083920Y-54189500D01*
X102083918Y-54189500D01*
X101936082Y-54189500D01*
X101936080Y-54189500D01*
X101791092Y-54218340D01*
X101791082Y-54218343D01*
X101654511Y-54274912D01*
X101654498Y-54274919D01*
X101531584Y-54357048D01*
X101531580Y-54357051D01*
X101427051Y-54461580D01*
X101427048Y-54461584D01*
X101344919Y-54584498D01*
X101344912Y-54584511D01*
X101288343Y-54721082D01*
X101288340Y-54721092D01*
X101259500Y-54866079D01*
X101259500Y-54866082D01*
X101259500Y-55013918D01*
X101259500Y-55013920D01*
X101259499Y-55013920D01*
X100200500Y-55013920D01*
X100200500Y-54876084D01*
X100200499Y-54876075D01*
X100171659Y-54731092D01*
X100171658Y-54731091D01*
X100171658Y-54731087D01*
X100146585Y-54670555D01*
X100115087Y-54594511D01*
X100115080Y-54594498D01*
X100032951Y-54471584D01*
X100032948Y-54471580D01*
X99928419Y-54367051D01*
X99928415Y-54367048D01*
X99805501Y-54284919D01*
X99805488Y-54284912D01*
X99668917Y-54228343D01*
X99668907Y-54228340D01*
X99523920Y-54199500D01*
X99523918Y-54199500D01*
X99376082Y-54199500D01*
X99376080Y-54199500D01*
X99231092Y-54228340D01*
X99231082Y-54228343D01*
X99094511Y-54284912D01*
X99094498Y-54284919D01*
X98971584Y-54367048D01*
X98971580Y-54367051D01*
X98867051Y-54471580D01*
X98867048Y-54471584D01*
X98784919Y-54594498D01*
X98784912Y-54594511D01*
X98728343Y-54731082D01*
X98728340Y-54731092D01*
X98699500Y-54876079D01*
X98699500Y-54876082D01*
X98699500Y-55023918D01*
X98699500Y-55023920D01*
X98699499Y-55023920D01*
X98208511Y-55023920D01*
X98210500Y-55013920D01*
X98210500Y-54866079D01*
X98181659Y-54721092D01*
X98181658Y-54721091D01*
X98181658Y-54721087D01*
X98160727Y-54670555D01*
X98125087Y-54584511D01*
X98125080Y-54584498D01*
X98042951Y-54461584D01*
X98042948Y-54461580D01*
X97938419Y-54357051D01*
X97938415Y-54357048D01*
X97815501Y-54274919D01*
X97815488Y-54274912D01*
X97678917Y-54218343D01*
X97678907Y-54218340D01*
X97533920Y-54189500D01*
X97533918Y-54189500D01*
X97386082Y-54189500D01*
X97386080Y-54189500D01*
X97241092Y-54218340D01*
X97241082Y-54218343D01*
X97104511Y-54274912D01*
X97104498Y-54274919D01*
X96981584Y-54357048D01*
X96981580Y-54357051D01*
X96877051Y-54461580D01*
X96877048Y-54461584D01*
X96794919Y-54584498D01*
X96794912Y-54584511D01*
X96738343Y-54721082D01*
X96738340Y-54721092D01*
X96709500Y-54866079D01*
X96709500Y-54866082D01*
X96709500Y-55013918D01*
X96709500Y-55013920D01*
X96709499Y-55013920D01*
X96187447Y-55013920D01*
X96192951Y-55008416D01*
X96275084Y-54885495D01*
X96283125Y-54866082D01*
X96305304Y-54812538D01*
X96305304Y-54812537D01*
X96323554Y-54768477D01*
X96331658Y-54748913D01*
X96347245Y-54670555D01*
X96360500Y-54603920D01*
X96360500Y-54456079D01*
X96331659Y-54311092D01*
X96331658Y-54311091D01*
X96331658Y-54311087D01*
X96322269Y-54288419D01*
X96275087Y-54174511D01*
X96275080Y-54174498D01*
X96192951Y-54051584D01*
X96192948Y-54051580D01*
X96088419Y-53947051D01*
X96088415Y-53947048D01*
X95965501Y-53864919D01*
X95965488Y-53864912D01*
X95828917Y-53808343D01*
X95828907Y-53808340D01*
X95683920Y-53779500D01*
X95683918Y-53779500D01*
X95536082Y-53779500D01*
X95536080Y-53779500D01*
X95391092Y-53808340D01*
X95391082Y-53808343D01*
X95254511Y-53864912D01*
X95254498Y-53864919D01*
X95131584Y-53947048D01*
X95131580Y-53947051D01*
X95027051Y-54051580D01*
X95027048Y-54051584D01*
X94944919Y-54174498D01*
X94944912Y-54174511D01*
X94888343Y-54311082D01*
X94888340Y-54311092D01*
X94859500Y-54456079D01*
X94859500Y-54456082D01*
X94859500Y-54603918D01*
X94859500Y-54603920D01*
X94859499Y-54603920D01*
X92858012Y-54603920D01*
X92801192Y-54518883D01*
X92801191Y-54518882D01*
X92796891Y-54512447D01*
X92782951Y-54491584D01*
X92782950Y-54491583D01*
X92782948Y-54491580D01*
X92678419Y-54387051D01*
X92678415Y-54387048D01*
X92555501Y-54304919D01*
X92555488Y-54304912D01*
X92418917Y-54248343D01*
X92418907Y-54248340D01*
X92273920Y-54219500D01*
X92273918Y-54219500D01*
X92126082Y-54219500D01*
X92126080Y-54219500D01*
X91981092Y-54248340D01*
X91981082Y-54248343D01*
X91844511Y-54304912D01*
X91844500Y-54304918D01*
X91753390Y-54365796D01*
X91686713Y-54386673D01*
X91619333Y-54368188D01*
X91572643Y-54316209D01*
X91560500Y-54262693D01*
X91560500Y-51418543D01*
X92274499Y-51418543D01*
X92312947Y-51611829D01*
X92312950Y-51611839D01*
X92388364Y-51793907D01*
X92388371Y-51793920D01*
X92497860Y-51957781D01*
X92497863Y-51957785D01*
X92637214Y-52097136D01*
X92637218Y-52097139D01*
X92801079Y-52206628D01*
X92801092Y-52206635D01*
X92957895Y-52271584D01*
X92983165Y-52282051D01*
X92983169Y-52282051D01*
X92983170Y-52282052D01*
X93176456Y-52320500D01*
X93176459Y-52320500D01*
X94173543Y-52320500D01*
X94303582Y-52294632D01*
X94366835Y-52282051D01*
X94548914Y-52206632D01*
X94640116Y-52145692D01*
X94706789Y-52124816D01*
X94774170Y-52143300D01*
X94820860Y-52195278D01*
X94830621Y-52224604D01*
X94854104Y-52342659D01*
X94854106Y-52342667D01*
X94921983Y-52506540D01*
X94921990Y-52506553D01*
X95020535Y-52654034D01*
X95020538Y-52654038D01*
X95145961Y-52779461D01*
X95145965Y-52779464D01*
X95293446Y-52878009D01*
X95293459Y-52878016D01*
X95416363Y-52928923D01*
X95457334Y-52945894D01*
X95457336Y-52945894D01*
X95457341Y-52945896D01*
X95631304Y-52980499D01*
X95631307Y-52980500D01*
X95631309Y-52980500D01*
X95808693Y-52980500D01*
X95808694Y-52980499D01*
X95889138Y-52964498D01*
X95982658Y-52945896D01*
X95982661Y-52945894D01*
X95982666Y-52945894D01*
X96122535Y-52887958D01*
X96146540Y-52878016D01*
X96146540Y-52878015D01*
X96146547Y-52878013D01*
X96152673Y-52873920D01*
X103489499Y-52873920D01*
X103518340Y-53018907D01*
X103518343Y-53018917D01*
X103574912Y-53155488D01*
X103574919Y-53155501D01*
X103657048Y-53278415D01*
X103657051Y-53278419D01*
X103761581Y-53382949D01*
X103761584Y-53382951D01*
X103804880Y-53411880D01*
X103849684Y-53465491D01*
X103858132Y-53497978D01*
X103858311Y-53497943D01*
X103858922Y-53501018D01*
X103859391Y-53502819D01*
X103859499Y-53503915D01*
X103888340Y-53648907D01*
X103888343Y-53648917D01*
X103944912Y-53785488D01*
X103944919Y-53785501D01*
X104027048Y-53908415D01*
X104027051Y-53908419D01*
X104131580Y-54012948D01*
X104131584Y-54012951D01*
X104254498Y-54095080D01*
X104254511Y-54095087D01*
X104391082Y-54151656D01*
X104391087Y-54151658D01*
X104391091Y-54151658D01*
X104391092Y-54151659D01*
X104536079Y-54180500D01*
X104536082Y-54180500D01*
X104683920Y-54180500D01*
X104781462Y-54161096D01*
X104828913Y-54151658D01*
X104952422Y-54100499D01*
X104965488Y-54095087D01*
X104965488Y-54095086D01*
X104965495Y-54095084D01*
X105088416Y-54012951D01*
X105192951Y-53908416D01*
X105275084Y-53785495D01*
X105331658Y-53648913D01*
X105353540Y-53538907D01*
X105360500Y-53503920D01*
X105360500Y-53393920D01*
X109709499Y-53393920D01*
X109738340Y-53538907D01*
X109738343Y-53538917D01*
X109794912Y-53675488D01*
X109794919Y-53675501D01*
X109877048Y-53798415D01*
X109877051Y-53798419D01*
X109981580Y-53902948D01*
X109981584Y-53902951D01*
X110104498Y-53985080D01*
X110104511Y-53985087D01*
X110210327Y-54028917D01*
X110241087Y-54041658D01*
X110241091Y-54041658D01*
X110241092Y-54041659D01*
X110386079Y-54070500D01*
X110386082Y-54070500D01*
X110533920Y-54070500D01*
X110631462Y-54051096D01*
X110678913Y-54041658D01*
X110815495Y-53985084D01*
X110938416Y-53902951D01*
X111042951Y-53798416D01*
X111125084Y-53675495D01*
X111125736Y-53673920D01*
X113139499Y-53673920D01*
X113168340Y-53818907D01*
X113168343Y-53818917D01*
X113224912Y-53955488D01*
X113224919Y-53955501D01*
X113307048Y-54078415D01*
X113307051Y-54078419D01*
X113411580Y-54182948D01*
X113411584Y-54182951D01*
X113534498Y-54265080D01*
X113534511Y-54265087D01*
X113630675Y-54304919D01*
X113671087Y-54321658D01*
X113682784Y-54323984D01*
X113744694Y-54356369D01*
X113779269Y-54417084D01*
X113775530Y-54486854D01*
X113761696Y-54514492D01*
X113714918Y-54584500D01*
X113714912Y-54584511D01*
X113658343Y-54721082D01*
X113658340Y-54721092D01*
X113629500Y-54866079D01*
X113629500Y-54866082D01*
X113629500Y-55013918D01*
X113629500Y-55013920D01*
X113629499Y-55013920D01*
X113658340Y-55158907D01*
X113658343Y-55158917D01*
X113714912Y-55295488D01*
X113714919Y-55295501D01*
X113797048Y-55418415D01*
X113797051Y-55418419D01*
X113901580Y-55522948D01*
X113901584Y-55522951D01*
X114024498Y-55605080D01*
X114024511Y-55605087D01*
X114161082Y-55661656D01*
X114161087Y-55661658D01*
X114161091Y-55661658D01*
X114161092Y-55661659D01*
X114306079Y-55690500D01*
X114306082Y-55690500D01*
X114453920Y-55690500D01*
X114551462Y-55671096D01*
X114598913Y-55661658D01*
X114711353Y-55615084D01*
X114735488Y-55605087D01*
X114735488Y-55605086D01*
X114735495Y-55605084D01*
X114858416Y-55522951D01*
X114962951Y-55418416D01*
X115045084Y-55295495D01*
X115101658Y-55158913D01*
X115124532Y-55043920D01*
X115130500Y-55013920D01*
X115130500Y-54866079D01*
X115108189Y-54753920D01*
X116439499Y-54753920D01*
X116468340Y-54898907D01*
X116468343Y-54898917D01*
X116524912Y-55035488D01*
X116524919Y-55035501D01*
X116607048Y-55158415D01*
X116607051Y-55158419D01*
X116711580Y-55262948D01*
X116711584Y-55262951D01*
X116834498Y-55345080D01*
X116834511Y-55345087D01*
X116971082Y-55401656D01*
X116971087Y-55401658D01*
X116971091Y-55401658D01*
X116971092Y-55401659D01*
X117116079Y-55430500D01*
X117116082Y-55430500D01*
X117263920Y-55430500D01*
X117361462Y-55411096D01*
X117408913Y-55401658D01*
X117545495Y-55345084D01*
X117668416Y-55262951D01*
X117772951Y-55158416D01*
X117855084Y-55035495D01*
X117860065Y-55023471D01*
X117911656Y-54898917D01*
X117911658Y-54898913D01*
X117921096Y-54851462D01*
X117940500Y-54753920D01*
X117940500Y-54606079D01*
X117911659Y-54461092D01*
X117911658Y-54461091D01*
X117911658Y-54461087D01*
X117909584Y-54456079D01*
X117855087Y-54324511D01*
X117855080Y-54324498D01*
X117772951Y-54201584D01*
X117772948Y-54201580D01*
X117668419Y-54097051D01*
X117668415Y-54097048D01*
X117545501Y-54014919D01*
X117545488Y-54014912D01*
X117408917Y-53958343D01*
X117408907Y-53958340D01*
X117263920Y-53929500D01*
X117263918Y-53929500D01*
X117116082Y-53929500D01*
X117116080Y-53929500D01*
X116971092Y-53958340D01*
X116971082Y-53958343D01*
X116834511Y-54014912D01*
X116834498Y-54014919D01*
X116711584Y-54097048D01*
X116711580Y-54097051D01*
X116607051Y-54201580D01*
X116607048Y-54201584D01*
X116524919Y-54324498D01*
X116524912Y-54324511D01*
X116468343Y-54461082D01*
X116468340Y-54461092D01*
X116439500Y-54606079D01*
X116439500Y-54606082D01*
X116439500Y-54753918D01*
X116439500Y-54753920D01*
X116439499Y-54753920D01*
X115108189Y-54753920D01*
X115101659Y-54721092D01*
X115101658Y-54721091D01*
X115101658Y-54721087D01*
X115095085Y-54705218D01*
X115071154Y-54647442D01*
X115045085Y-54584507D01*
X115045080Y-54584498D01*
X114962951Y-54461584D01*
X114962948Y-54461580D01*
X114858419Y-54357051D01*
X114858415Y-54357048D01*
X114735501Y-54274919D01*
X114735488Y-54274912D01*
X114598917Y-54218343D01*
X114598911Y-54218341D01*
X114587211Y-54216014D01*
X114525301Y-54183626D01*
X114490729Y-54122910D01*
X114494471Y-54053140D01*
X114508304Y-54025506D01*
X114525866Y-53999223D01*
X114555084Y-53955495D01*
X114558583Y-53947049D01*
X114584731Y-53883920D01*
X119019499Y-53883920D01*
X119048340Y-54028907D01*
X119048343Y-54028917D01*
X119104912Y-54165488D01*
X119104919Y-54165501D01*
X119187048Y-54288415D01*
X119187051Y-54288419D01*
X119291580Y-54392948D01*
X119291584Y-54392951D01*
X119414498Y-54475080D01*
X119414511Y-54475087D01*
X119520243Y-54518882D01*
X119551087Y-54531658D01*
X119551091Y-54531658D01*
X119551092Y-54531659D01*
X119696079Y-54560500D01*
X119696082Y-54560500D01*
X119843920Y-54560500D01*
X119941462Y-54541096D01*
X119988913Y-54531658D01*
X120125495Y-54475084D01*
X120248416Y-54392951D01*
X120352951Y-54288416D01*
X120435084Y-54165495D01*
X120440816Y-54151658D01*
X120462006Y-54100499D01*
X120491658Y-54028913D01*
X120506262Y-53955495D01*
X120520500Y-53883920D01*
X120520500Y-53736079D01*
X120491659Y-53591092D01*
X120491658Y-53591091D01*
X120491658Y-53591087D01*
X120470045Y-53538908D01*
X120435087Y-53454511D01*
X120435080Y-53454498D01*
X120352951Y-53331584D01*
X120352948Y-53331580D01*
X120248419Y-53227051D01*
X120248415Y-53227048D01*
X120125501Y-53144919D01*
X120125488Y-53144912D01*
X119988917Y-53088343D01*
X119988907Y-53088340D01*
X119843920Y-53059500D01*
X119843918Y-53059500D01*
X119696082Y-53059500D01*
X119696080Y-53059500D01*
X119551092Y-53088340D01*
X119551082Y-53088343D01*
X119414511Y-53144912D01*
X119414498Y-53144919D01*
X119291584Y-53227048D01*
X119291580Y-53227051D01*
X119187051Y-53331580D01*
X119187048Y-53331584D01*
X119104919Y-53454498D01*
X119104912Y-53454511D01*
X119048343Y-53591082D01*
X119048340Y-53591092D01*
X119019500Y-53736079D01*
X119019500Y-53736082D01*
X119019500Y-53883918D01*
X119019500Y-53883920D01*
X119019499Y-53883920D01*
X114584731Y-53883920D01*
X114592603Y-53864916D01*
X114611658Y-53818913D01*
X114628135Y-53736079D01*
X114634159Y-53705798D01*
X114640500Y-53673920D01*
X114640500Y-53526079D01*
X114611659Y-53381092D01*
X114611658Y-53381091D01*
X114611658Y-53381087D01*
X114601301Y-53356082D01*
X114555087Y-53244511D01*
X114555080Y-53244498D01*
X114472951Y-53121584D01*
X114472948Y-53121580D01*
X114368419Y-53017051D01*
X114368415Y-53017048D01*
X114245501Y-52934919D01*
X114245488Y-52934912D01*
X114108917Y-52878343D01*
X114108907Y-52878340D01*
X113963920Y-52849500D01*
X113963918Y-52849500D01*
X113816082Y-52849500D01*
X113816080Y-52849500D01*
X113671092Y-52878340D01*
X113671082Y-52878343D01*
X113534511Y-52934912D01*
X113534498Y-52934919D01*
X113411584Y-53017048D01*
X113411580Y-53017051D01*
X113307051Y-53121580D01*
X113307048Y-53121584D01*
X113224919Y-53244498D01*
X113224912Y-53244511D01*
X113168343Y-53381082D01*
X113168340Y-53381092D01*
X113139500Y-53526079D01*
X113139500Y-53526082D01*
X113139500Y-53673918D01*
X113139500Y-53673920D01*
X113139499Y-53673920D01*
X111125736Y-53673920D01*
X111181658Y-53538913D01*
X111188619Y-53503920D01*
X111190235Y-53495797D01*
X111190235Y-53495796D01*
X111210500Y-53393920D01*
X111210500Y-53246079D01*
X111181659Y-53101092D01*
X111181658Y-53101091D01*
X111181658Y-53101087D01*
X111170650Y-53074511D01*
X111125087Y-52964511D01*
X111125080Y-52964498D01*
X111042951Y-52841584D01*
X111042948Y-52841580D01*
X110938419Y-52737051D01*
X110938415Y-52737048D01*
X110815501Y-52654919D01*
X110815488Y-52654912D01*
X110678917Y-52598343D01*
X110678907Y-52598340D01*
X110533920Y-52569500D01*
X110533918Y-52569500D01*
X110386082Y-52569500D01*
X110386080Y-52569500D01*
X110241092Y-52598340D01*
X110241082Y-52598343D01*
X110149326Y-52636349D01*
X110149317Y-52636354D01*
X110104505Y-52654916D01*
X109992653Y-52729652D01*
X109992621Y-52729672D01*
X109981588Y-52737045D01*
X109981580Y-52737051D01*
X109877051Y-52841580D01*
X109877048Y-52841584D01*
X109794919Y-52964498D01*
X109794912Y-52964511D01*
X109738343Y-53101082D01*
X109738340Y-53101092D01*
X109709500Y-53246079D01*
X109709500Y-53246082D01*
X109709500Y-53393918D01*
X109709500Y-53393920D01*
X109709499Y-53393920D01*
X105360500Y-53393920D01*
X105360500Y-53356079D01*
X105331659Y-53211092D01*
X105331658Y-53211091D01*
X105331658Y-53211087D01*
X105308628Y-53155488D01*
X105275087Y-53074511D01*
X105275080Y-53074498D01*
X105192951Y-52951584D01*
X105192948Y-52951580D01*
X105088419Y-52847051D01*
X105045118Y-52818118D01*
X105000314Y-52764505D01*
X104991869Y-52732021D01*
X104991689Y-52732057D01*
X104991070Y-52728948D01*
X104990607Y-52727165D01*
X104990500Y-52726081D01*
X104961659Y-52581092D01*
X104961658Y-52581091D01*
X104961658Y-52581087D01*
X104949467Y-52551656D01*
X104905087Y-52444511D01*
X104905080Y-52444498D01*
X104822951Y-52321584D01*
X104822948Y-52321580D01*
X104718419Y-52217051D01*
X104718415Y-52217048D01*
X104595501Y-52134919D01*
X104595488Y-52134912D01*
X104458917Y-52078343D01*
X104458907Y-52078340D01*
X104313920Y-52049500D01*
X104313918Y-52049500D01*
X104166082Y-52049500D01*
X104166080Y-52049500D01*
X104021092Y-52078340D01*
X104021082Y-52078343D01*
X103884511Y-52134912D01*
X103884498Y-52134919D01*
X103761584Y-52217048D01*
X103761580Y-52217051D01*
X103657051Y-52321580D01*
X103657048Y-52321584D01*
X103574919Y-52444498D01*
X103574912Y-52444511D01*
X103518343Y-52581082D01*
X103518340Y-52581092D01*
X103489500Y-52726079D01*
X103489500Y-52726081D01*
X103489500Y-52726082D01*
X103489500Y-52873918D01*
X103489500Y-52873920D01*
X103489499Y-52873920D01*
X96152673Y-52873920D01*
X96294035Y-52779464D01*
X96419464Y-52654035D01*
X96518013Y-52506547D01*
X96585894Y-52342666D01*
X96585894Y-52342661D01*
X96585896Y-52342658D01*
X96602339Y-52259993D01*
X96634724Y-52198082D01*
X96695439Y-52163508D01*
X96765209Y-52167247D01*
X96792847Y-52181082D01*
X96831079Y-52206628D01*
X96831092Y-52206635D01*
X96987895Y-52271584D01*
X97013165Y-52282051D01*
X97013169Y-52282051D01*
X97013170Y-52282052D01*
X97206456Y-52320500D01*
X97206459Y-52320500D01*
X98503543Y-52320500D01*
X98633582Y-52294632D01*
X98696835Y-52282051D01*
X98878914Y-52206632D01*
X99042782Y-52097139D01*
X99182139Y-51957782D01*
X99291632Y-51793914D01*
X99367051Y-51611835D01*
X99394368Y-51474505D01*
X99405500Y-51418543D01*
X99405500Y-51221456D01*
X99368609Y-51035996D01*
X99374836Y-50966404D01*
X99417699Y-50911227D01*
X99466031Y-50890187D01*
X99508913Y-50881658D01*
X99645495Y-50825084D01*
X99768416Y-50742951D01*
X99872951Y-50638416D01*
X99955084Y-50515495D01*
X100011658Y-50378913D01*
X100037896Y-50247011D01*
X100040500Y-50233920D01*
X100040500Y-50213920D01*
X103359499Y-50213920D01*
X103388340Y-50358907D01*
X103388343Y-50358917D01*
X103444912Y-50495488D01*
X103444919Y-50495501D01*
X103527048Y-50618415D01*
X103527051Y-50618419D01*
X103631580Y-50722948D01*
X103631584Y-50722951D01*
X103754498Y-50805080D01*
X103754511Y-50805087D01*
X103881162Y-50857547D01*
X103891087Y-50861658D01*
X103891091Y-50861658D01*
X103891092Y-50861659D01*
X104036079Y-50890500D01*
X104036082Y-50890500D01*
X104183920Y-50890500D01*
X104326409Y-50862156D01*
X104328913Y-50861658D01*
X104434547Y-50817902D01*
X104465488Y-50805087D01*
X104465488Y-50805086D01*
X104465495Y-50805084D01*
X104588416Y-50722951D01*
X104692951Y-50618416D01*
X104756091Y-50523920D01*
X105809499Y-50523920D01*
X105838340Y-50668907D01*
X105838343Y-50668917D01*
X105894912Y-50805488D01*
X105894919Y-50805501D01*
X105977048Y-50928415D01*
X105977051Y-50928419D01*
X106081580Y-51032948D01*
X106081584Y-51032951D01*
X106204498Y-51115080D01*
X106204511Y-51115087D01*
X106335877Y-51169500D01*
X106341087Y-51171658D01*
X106341091Y-51171658D01*
X106341092Y-51171659D01*
X106486079Y-51200500D01*
X106486082Y-51200500D01*
X106633920Y-51200500D01*
X106731462Y-51181096D01*
X106778913Y-51171658D01*
X106915495Y-51115084D01*
X107038416Y-51032951D01*
X107142951Y-50928416D01*
X107225084Y-50805495D01*
X107281658Y-50668913D01*
X107291703Y-50618415D01*
X107310500Y-50523920D01*
X107310500Y-50376079D01*
X107281659Y-50231092D01*
X107281658Y-50231091D01*
X107281658Y-50231087D01*
X107275443Y-50216082D01*
X107225087Y-50094511D01*
X107225080Y-50094498D01*
X107142951Y-49971584D01*
X107142948Y-49971580D01*
X107038419Y-49867051D01*
X107038415Y-49867048D01*
X106915501Y-49784919D01*
X106915488Y-49784912D01*
X106778917Y-49728343D01*
X106778907Y-49728340D01*
X106633920Y-49699500D01*
X106633918Y-49699500D01*
X106486082Y-49699500D01*
X106486080Y-49699500D01*
X106341092Y-49728340D01*
X106341082Y-49728343D01*
X106204511Y-49784912D01*
X106204498Y-49784919D01*
X106081584Y-49867048D01*
X106081580Y-49867051D01*
X105977051Y-49971580D01*
X105977048Y-49971584D01*
X105894919Y-50094498D01*
X105894912Y-50094511D01*
X105838343Y-50231082D01*
X105838340Y-50231092D01*
X105809500Y-50376079D01*
X105809500Y-50376082D01*
X105809500Y-50523918D01*
X105809500Y-50523920D01*
X105809499Y-50523920D01*
X104756091Y-50523920D01*
X104775084Y-50495495D01*
X104831658Y-50358913D01*
X104860500Y-50213918D01*
X104860500Y-50142832D01*
X104861544Y-50134840D01*
X104872523Y-50109953D01*
X104880185Y-50083861D01*
X104886416Y-50078461D01*
X104889746Y-50070915D01*
X104912436Y-50055914D01*
X104932989Y-50038106D01*
X104945475Y-50034073D01*
X104948031Y-50032384D01*
X104950818Y-50032347D01*
X104960309Y-50029283D01*
X104977274Y-50025908D01*
X105048913Y-50011658D01*
X105162768Y-49964498D01*
X105185488Y-49955087D01*
X105185488Y-49955086D01*
X105185495Y-49955084D01*
X105308416Y-49872951D01*
X105412951Y-49768416D01*
X105495084Y-49645495D01*
X105551658Y-49508913D01*
X105561096Y-49461462D01*
X105580500Y-49363920D01*
X105580500Y-49216079D01*
X105551659Y-49071092D01*
X105551658Y-49071091D01*
X105551658Y-49071087D01*
X105535272Y-49031528D01*
X105495087Y-48934511D01*
X105495080Y-48934498D01*
X105412951Y-48811584D01*
X105412948Y-48811580D01*
X105308419Y-48707051D01*
X105308415Y-48707048D01*
X105185501Y-48624919D01*
X105185488Y-48624912D01*
X105048917Y-48568343D01*
X105048907Y-48568340D01*
X104926141Y-48543920D01*
X107059499Y-48543920D01*
X107088340Y-48688907D01*
X107088343Y-48688917D01*
X107144912Y-48825488D01*
X107144919Y-48825501D01*
X107227048Y-48948415D01*
X107227051Y-48948419D01*
X107331580Y-49052948D01*
X107331584Y-49052951D01*
X107454498Y-49135080D01*
X107454511Y-49135087D01*
X107591082Y-49191656D01*
X107591087Y-49191658D01*
X107591091Y-49191658D01*
X107591092Y-49191659D01*
X107736079Y-49220500D01*
X107736082Y-49220500D01*
X107883920Y-49220500D01*
X107981462Y-49201096D01*
X108028913Y-49191658D01*
X108165495Y-49135084D01*
X108288416Y-49052951D01*
X108288421Y-49052945D01*
X108289229Y-49052406D01*
X108355907Y-49031528D01*
X108382313Y-49033891D01*
X108516079Y-49060500D01*
X108516082Y-49060500D01*
X108663919Y-49060500D01*
X108669846Y-49059321D01*
X108739438Y-49065548D01*
X108794616Y-49108410D01*
X108817861Y-49174300D01*
X108815657Y-49205128D01*
X108810380Y-49231656D01*
X108809500Y-49236082D01*
X108809500Y-49383918D01*
X108809500Y-49383920D01*
X108809499Y-49383920D01*
X108838340Y-49528907D01*
X108838343Y-49528917D01*
X108894912Y-49665488D01*
X108894919Y-49665501D01*
X108977048Y-49788415D01*
X108977051Y-49788419D01*
X109081580Y-49892948D01*
X109081584Y-49892951D01*
X109204498Y-49975080D01*
X109204511Y-49975087D01*
X109306653Y-50017395D01*
X109341087Y-50031658D01*
X109341091Y-50031658D01*
X109341092Y-50031659D01*
X109486079Y-50060500D01*
X109486082Y-50060500D01*
X109633920Y-50060500D01*
X109734462Y-50040500D01*
X109778913Y-50031658D01*
X109795313Y-50024864D01*
X109864779Y-50017395D01*
X109927259Y-50048668D01*
X109962913Y-50108756D01*
X109960421Y-50178581D01*
X109945868Y-50208315D01*
X109874922Y-50314493D01*
X109874912Y-50314511D01*
X109818343Y-50451082D01*
X109818340Y-50451092D01*
X109789500Y-50596079D01*
X109789500Y-50596082D01*
X109789500Y-50743918D01*
X109789500Y-50743920D01*
X109789499Y-50743920D01*
X109818340Y-50888907D01*
X109818342Y-50888913D01*
X109832156Y-50922264D01*
X109839623Y-50991734D01*
X109808347Y-51054212D01*
X109748258Y-51089864D01*
X109693402Y-51091332D01*
X109633920Y-51079500D01*
X109633918Y-51079500D01*
X109486082Y-51079500D01*
X109486080Y-51079500D01*
X109341092Y-51108340D01*
X109341082Y-51108343D01*
X109204511Y-51164912D01*
X109204498Y-51164919D01*
X109081584Y-51247048D01*
X109081580Y-51247051D01*
X108977051Y-51351580D01*
X108977048Y-51351584D01*
X108894919Y-51474498D01*
X108894912Y-51474511D01*
X108838343Y-51611082D01*
X108838340Y-51611092D01*
X108809500Y-51756079D01*
X108809500Y-51756082D01*
X108809500Y-51903918D01*
X108809500Y-51903920D01*
X108809499Y-51903920D01*
X108838340Y-52048907D01*
X108838343Y-52048917D01*
X108894912Y-52185488D01*
X108894919Y-52185501D01*
X108977048Y-52308415D01*
X108977051Y-52308419D01*
X109081580Y-52412948D01*
X109081584Y-52412951D01*
X109204498Y-52495080D01*
X109204511Y-52495087D01*
X109316947Y-52541659D01*
X109341087Y-52551658D01*
X109341091Y-52551658D01*
X109341092Y-52551659D01*
X109486079Y-52580500D01*
X109486082Y-52580500D01*
X109633920Y-52580500D01*
X109731462Y-52561096D01*
X109778913Y-52551658D01*
X109915495Y-52495084D01*
X110038416Y-52412951D01*
X110142951Y-52308416D01*
X110225084Y-52185495D01*
X110281658Y-52048913D01*
X110291487Y-51999500D01*
X110295107Y-51981304D01*
X111853233Y-51981304D01*
X111853233Y-52158695D01*
X111887836Y-52332658D01*
X111887839Y-52332667D01*
X111955716Y-52496540D01*
X111955723Y-52496553D01*
X112054268Y-52644034D01*
X112054271Y-52644038D01*
X112179694Y-52769461D01*
X112179698Y-52769464D01*
X112327179Y-52868009D01*
X112327192Y-52868016D01*
X112450096Y-52918923D01*
X112491067Y-52935894D01*
X112491069Y-52935894D01*
X112491074Y-52935896D01*
X112665037Y-52970499D01*
X112665040Y-52970500D01*
X112665042Y-52970500D01*
X112842426Y-52970500D01*
X112842427Y-52970499D01*
X112937541Y-52951580D01*
X113016391Y-52935896D01*
X113016394Y-52935894D01*
X113016399Y-52935894D01*
X113180280Y-52868013D01*
X113246269Y-52823920D01*
X121269499Y-52823920D01*
X121298340Y-52968907D01*
X121298343Y-52968917D01*
X121354912Y-53105488D01*
X121354919Y-53105501D01*
X121437048Y-53228415D01*
X121437051Y-53228419D01*
X121541580Y-53332948D01*
X121541584Y-53332951D01*
X121664498Y-53415080D01*
X121664511Y-53415087D01*
X121801082Y-53471656D01*
X121801087Y-53471658D01*
X121801091Y-53471658D01*
X121801092Y-53471659D01*
X121946079Y-53500500D01*
X121946082Y-53500500D01*
X122093920Y-53500500D01*
X122191462Y-53481096D01*
X122238913Y-53471658D01*
X122375495Y-53415084D01*
X122401590Y-53397648D01*
X123449500Y-53397648D01*
X123449500Y-53602351D01*
X123481522Y-53804534D01*
X123544781Y-53999223D01*
X123593627Y-54095087D01*
X123637147Y-54180500D01*
X123637715Y-54181613D01*
X123758028Y-54347213D01*
X123902786Y-54491971D01*
X124030159Y-54584511D01*
X124068390Y-54612287D01*
X124182747Y-54670555D01*
X124250776Y-54705218D01*
X124250778Y-54705218D01*
X124250781Y-54705220D01*
X124330407Y-54731092D01*
X124445465Y-54768477D01*
X124546557Y-54784488D01*
X124647648Y-54800500D01*
X124647649Y-54800500D01*
X124852351Y-54800500D01*
X124852352Y-54800500D01*
X125054534Y-54768477D01*
X125249219Y-54705220D01*
X125431610Y-54612287D01*
X125560172Y-54518882D01*
X125597213Y-54491971D01*
X125597215Y-54491968D01*
X125597219Y-54491966D01*
X125741966Y-54347219D01*
X125741968Y-54347215D01*
X125741971Y-54347213D01*
X125813805Y-54248340D01*
X125862287Y-54181610D01*
X125955220Y-53999219D01*
X126018477Y-53804534D01*
X126050500Y-53602352D01*
X126050500Y-53397648D01*
X126047876Y-53381082D01*
X126018477Y-53195465D01*
X125974299Y-53059500D01*
X125955220Y-53000781D01*
X125955218Y-53000778D01*
X125955218Y-53000776D01*
X125921503Y-52934607D01*
X125862287Y-52818390D01*
X125854556Y-52807749D01*
X125741971Y-52652786D01*
X125597213Y-52508028D01*
X125431613Y-52387715D01*
X125431612Y-52387714D01*
X125431610Y-52387713D01*
X125343754Y-52342948D01*
X125249223Y-52294781D01*
X125054534Y-52231522D01*
X124879995Y-52203878D01*
X124852352Y-52199500D01*
X124647648Y-52199500D01*
X124623329Y-52203351D01*
X124445465Y-52231522D01*
X124250776Y-52294781D01*
X124068386Y-52387715D01*
X123902786Y-52508028D01*
X123758028Y-52652786D01*
X123637715Y-52818386D01*
X123544781Y-53000776D01*
X123481522Y-53195465D01*
X123449500Y-53397648D01*
X122401590Y-53397648D01*
X122498416Y-53332951D01*
X122499787Y-53331580D01*
X122526273Y-53305095D01*
X122602948Y-53228419D01*
X122602951Y-53228416D01*
X122685084Y-53105495D01*
X122741658Y-52968913D01*
X122759740Y-52878013D01*
X122770500Y-52823920D01*
X122770500Y-52676079D01*
X122741659Y-52531092D01*
X122741658Y-52531091D01*
X122741658Y-52531087D01*
X122727348Y-52496540D01*
X122685087Y-52394511D01*
X122685080Y-52394498D01*
X122602951Y-52271584D01*
X122602948Y-52271580D01*
X122498419Y-52167051D01*
X122498415Y-52167048D01*
X122375501Y-52084919D01*
X122375488Y-52084912D01*
X122238917Y-52028343D01*
X122238907Y-52028340D01*
X122093920Y-51999500D01*
X122093918Y-51999500D01*
X121946082Y-51999500D01*
X121946080Y-51999500D01*
X121801092Y-52028340D01*
X121801082Y-52028343D01*
X121664511Y-52084912D01*
X121664498Y-52084919D01*
X121541584Y-52167048D01*
X121541580Y-52167051D01*
X121437051Y-52271580D01*
X121437048Y-52271584D01*
X121354919Y-52394498D01*
X121354912Y-52394511D01*
X121298343Y-52531082D01*
X121298340Y-52531092D01*
X121269500Y-52676079D01*
X121269500Y-52676082D01*
X121269500Y-52823918D01*
X121269500Y-52823920D01*
X121269499Y-52823920D01*
X113246269Y-52823920D01*
X113327768Y-52769464D01*
X113453197Y-52644035D01*
X113551746Y-52496547D01*
X113553842Y-52491488D01*
X113581345Y-52425087D01*
X113619627Y-52332666D01*
X113621832Y-52321584D01*
X113644698Y-52206628D01*
X113654233Y-52158691D01*
X113654233Y-51981309D01*
X113654233Y-51981306D01*
X113654232Y-51981304D01*
X113619629Y-51807341D01*
X113619626Y-51807332D01*
X113551749Y-51643459D01*
X113551742Y-51643446D01*
X113453197Y-51495965D01*
X113453194Y-51495961D01*
X113327771Y-51370538D01*
X113327767Y-51370535D01*
X113180286Y-51271990D01*
X113180273Y-51271983D01*
X113016400Y-51204106D01*
X113016391Y-51204103D01*
X112842427Y-51169500D01*
X112842424Y-51169500D01*
X112665042Y-51169500D01*
X112665039Y-51169500D01*
X112491074Y-51204103D01*
X112491065Y-51204106D01*
X112327192Y-51271983D01*
X112327179Y-51271990D01*
X112179698Y-51370535D01*
X112179694Y-51370538D01*
X112054271Y-51495961D01*
X112054268Y-51495965D01*
X111955723Y-51643446D01*
X111955716Y-51643459D01*
X111887839Y-51807332D01*
X111887836Y-51807341D01*
X111853233Y-51981304D01*
X110295107Y-51981304D01*
X110301130Y-51951025D01*
X110310500Y-51903920D01*
X110310500Y-51756079D01*
X110281659Y-51611092D01*
X110281658Y-51611091D01*
X110281658Y-51611087D01*
X110267844Y-51577736D01*
X110260375Y-51508267D01*
X110291650Y-51445788D01*
X110351740Y-51410136D01*
X110406595Y-51408667D01*
X110451436Y-51417586D01*
X110466081Y-51420500D01*
X110466082Y-51420500D01*
X110613920Y-51420500D01*
X110711462Y-51401096D01*
X110758913Y-51391658D01*
X110895495Y-51335084D01*
X111018416Y-51252951D01*
X111122951Y-51148416D01*
X111205084Y-51025495D01*
X111210816Y-51011658D01*
X111220975Y-50987130D01*
X111261658Y-50888913D01*
X111274355Y-50825084D01*
X111290500Y-50743920D01*
X111290500Y-50596079D01*
X111261659Y-50451092D01*
X111261658Y-50451091D01*
X111261658Y-50451087D01*
X111254317Y-50433364D01*
X111225553Y-50363920D01*
X112669499Y-50363920D01*
X112698340Y-50508907D01*
X112698343Y-50508917D01*
X112754912Y-50645488D01*
X112754919Y-50645501D01*
X112837048Y-50768415D01*
X112837051Y-50768419D01*
X112941580Y-50872948D01*
X112941584Y-50872951D01*
X113064498Y-50955080D01*
X113064511Y-50955087D01*
X113174149Y-51000500D01*
X113201087Y-51011658D01*
X113201091Y-51011658D01*
X113201092Y-51011659D01*
X113346079Y-51040500D01*
X113346082Y-51040500D01*
X113493920Y-51040500D01*
X113638908Y-51011659D01*
X113638908Y-51011658D01*
X113638913Y-51011658D01*
X113671333Y-50998228D01*
X113740799Y-50990759D01*
X113766233Y-50998226D01*
X113871087Y-51041658D01*
X113871091Y-51041658D01*
X113871092Y-51041659D01*
X114016079Y-51070500D01*
X114016082Y-51070500D01*
X114163920Y-51070500D01*
X114302719Y-51042890D01*
X114308913Y-51041658D01*
X114423750Y-50994091D01*
X114445488Y-50985087D01*
X114445488Y-50985086D01*
X114445495Y-50985084D01*
X114568416Y-50902951D01*
X114582460Y-50888907D01*
X114597319Y-50874049D01*
X114658642Y-50840564D01*
X114728334Y-50845548D01*
X114758899Y-50862156D01*
X114766228Y-50867595D01*
X114801584Y-50902951D01*
X114924505Y-50985084D01*
X114924577Y-50985114D01*
X114927294Y-50987130D01*
X114946571Y-51012660D01*
X114967091Y-51037214D01*
X114967486Y-51040360D01*
X114969396Y-51042890D01*
X114971810Y-51074788D01*
X114975798Y-51106539D01*
X114974429Y-51109398D01*
X114974669Y-51112560D01*
X114959454Y-51140699D01*
X114945644Y-51169567D01*
X114942263Y-51172496D01*
X114941439Y-51174021D01*
X114938867Y-51175439D01*
X114922287Y-51189806D01*
X114851580Y-51237051D01*
X114747051Y-51341580D01*
X114747048Y-51341584D01*
X114664919Y-51464498D01*
X114664912Y-51464511D01*
X114608343Y-51601082D01*
X114608340Y-51601092D01*
X114579500Y-51746079D01*
X114579500Y-51746082D01*
X114579500Y-51893918D01*
X114579500Y-51893920D01*
X114579499Y-51893920D01*
X114608340Y-52038907D01*
X114608343Y-52038917D01*
X114664912Y-52175488D01*
X114664919Y-52175501D01*
X114747048Y-52298415D01*
X114747051Y-52298419D01*
X114851580Y-52402948D01*
X114851584Y-52402951D01*
X114974498Y-52485080D01*
X114974511Y-52485087D01*
X115085554Y-52531082D01*
X115111087Y-52541658D01*
X115111091Y-52541658D01*
X115111092Y-52541659D01*
X115256079Y-52570500D01*
X115256082Y-52570500D01*
X115403920Y-52570500D01*
X115515157Y-52548373D01*
X115536909Y-52544045D01*
X115548913Y-52541658D01*
X115661353Y-52495084D01*
X115685488Y-52485087D01*
X115685488Y-52485086D01*
X115685495Y-52485084D01*
X115808416Y-52402951D01*
X115912951Y-52298416D01*
X115995084Y-52175495D01*
X115998501Y-52167247D01*
X116032603Y-52084916D01*
X116051658Y-52038913D01*
X116067797Y-51957781D01*
X116080500Y-51893920D01*
X116080500Y-51833920D01*
X117949499Y-51833920D01*
X117978340Y-51978907D01*
X117978343Y-51978917D01*
X118034912Y-52115488D01*
X118034919Y-52115501D01*
X118117048Y-52238415D01*
X118117051Y-52238419D01*
X118221580Y-52342948D01*
X118221584Y-52342951D01*
X118344498Y-52425080D01*
X118344511Y-52425087D01*
X118481082Y-52481656D01*
X118481087Y-52481658D01*
X118481091Y-52481658D01*
X118481092Y-52481659D01*
X118626079Y-52510500D01*
X118626082Y-52510500D01*
X118773920Y-52510500D01*
X118871462Y-52491096D01*
X118918913Y-52481658D01*
X119055495Y-52425084D01*
X119178416Y-52342951D01*
X119282951Y-52238416D01*
X119365084Y-52115495D01*
X119421658Y-51978913D01*
X119431096Y-51931462D01*
X119450500Y-51833920D01*
X119450500Y-51686079D01*
X119428006Y-51572998D01*
X119423856Y-51552135D01*
X135079500Y-51552135D01*
X135079500Y-53647870D01*
X135079501Y-53647876D01*
X135085908Y-53707483D01*
X135136202Y-53842328D01*
X135136206Y-53842335D01*
X135222452Y-53957544D01*
X135222455Y-53957547D01*
X135337664Y-54043793D01*
X135337671Y-54043797D01*
X135472517Y-54094091D01*
X135472516Y-54094091D01*
X135479444Y-54094835D01*
X135532127Y-54100500D01*
X138827872Y-54100499D01*
X138887483Y-54094091D01*
X139022331Y-54043796D01*
X139137546Y-53957546D01*
X139223796Y-53842331D01*
X139274091Y-53707483D01*
X139280500Y-53647873D01*
X139280499Y-51552128D01*
X139274091Y-51492517D01*
X139267375Y-51474511D01*
X139223797Y-51357671D01*
X139223793Y-51357664D01*
X139137547Y-51242455D01*
X139137544Y-51242452D01*
X139022335Y-51156206D01*
X139022328Y-51156202D01*
X138887482Y-51105908D01*
X138887483Y-51105908D01*
X138827883Y-51099501D01*
X138827881Y-51099500D01*
X138827873Y-51099500D01*
X138827864Y-51099500D01*
X135532129Y-51099500D01*
X135532123Y-51099501D01*
X135472516Y-51105908D01*
X135337671Y-51156202D01*
X135337664Y-51156206D01*
X135222455Y-51242452D01*
X135222452Y-51242455D01*
X135136206Y-51357664D01*
X135136202Y-51357671D01*
X135085908Y-51492517D01*
X135080687Y-51541087D01*
X135079501Y-51552123D01*
X135079500Y-51552135D01*
X119423856Y-51552135D01*
X119421659Y-51541092D01*
X119421658Y-51541091D01*
X119421658Y-51541087D01*
X119401540Y-51492517D01*
X119365087Y-51404511D01*
X119365080Y-51404498D01*
X119282951Y-51281584D01*
X119282948Y-51281580D01*
X119178419Y-51177051D01*
X119178415Y-51177048D01*
X119055501Y-51094919D01*
X119055488Y-51094912D01*
X118918917Y-51038343D01*
X118918907Y-51038340D01*
X118773920Y-51009500D01*
X118773918Y-51009500D01*
X118626082Y-51009500D01*
X118626080Y-51009500D01*
X118481092Y-51038340D01*
X118481082Y-51038343D01*
X118344511Y-51094912D01*
X118344498Y-51094919D01*
X118221584Y-51177048D01*
X118221580Y-51177051D01*
X118117051Y-51281580D01*
X118117048Y-51281584D01*
X118034919Y-51404498D01*
X118034912Y-51404511D01*
X117978343Y-51541082D01*
X117978340Y-51541092D01*
X117949500Y-51686079D01*
X117949500Y-51686082D01*
X117949500Y-51833918D01*
X117949500Y-51833920D01*
X117949499Y-51833920D01*
X116080500Y-51833920D01*
X116080500Y-51746079D01*
X116080499Y-51746077D01*
X116072166Y-51704181D01*
X116051659Y-51601092D01*
X116051658Y-51601091D01*
X116051658Y-51601087D01*
X116040023Y-51572998D01*
X115995087Y-51464511D01*
X115995080Y-51464498D01*
X115912951Y-51341584D01*
X115912948Y-51341580D01*
X115808419Y-51237051D01*
X115808415Y-51237048D01*
X115687713Y-51156397D01*
X115642908Y-51102785D01*
X115634201Y-51033460D01*
X115664356Y-50970432D01*
X115687711Y-50950194D01*
X115758416Y-50902951D01*
X115862951Y-50798416D01*
X115945084Y-50675495D01*
X116001658Y-50538913D01*
X116030500Y-50393918D01*
X116030500Y-50246082D01*
X116030500Y-50246079D01*
X116001659Y-50101092D01*
X116001658Y-50101091D01*
X116001658Y-50101087D01*
X115995442Y-50086080D01*
X115945087Y-49964511D01*
X115945080Y-49964498D01*
X115862951Y-49841584D01*
X115862948Y-49841580D01*
X115758419Y-49737051D01*
X115758415Y-49737048D01*
X115635501Y-49654919D01*
X115635488Y-49654912D01*
X115498917Y-49598343D01*
X115498907Y-49598340D01*
X115353920Y-49569500D01*
X115353918Y-49569500D01*
X115206082Y-49569500D01*
X115206080Y-49569500D01*
X115061092Y-49598340D01*
X115061082Y-49598343D01*
X114924511Y-49654912D01*
X114924498Y-49654919D01*
X114801584Y-49737048D01*
X114801580Y-49737051D01*
X114772681Y-49765951D01*
X114711358Y-49799436D01*
X114641666Y-49794452D01*
X114597319Y-49765951D01*
X114568419Y-49737051D01*
X114568415Y-49737048D01*
X114445501Y-49654919D01*
X114445488Y-49654912D01*
X114308917Y-49598343D01*
X114308907Y-49598340D01*
X114163920Y-49569500D01*
X114163918Y-49569500D01*
X114016082Y-49569500D01*
X114016080Y-49569500D01*
X113871093Y-49598340D01*
X113871090Y-49598341D01*
X113871088Y-49598341D01*
X113871087Y-49598342D01*
X113871085Y-49598343D01*
X113838664Y-49611772D01*
X113769194Y-49619239D01*
X113743760Y-49611771D01*
X113711339Y-49598342D01*
X113638913Y-49568342D01*
X113638907Y-49568340D01*
X113493920Y-49539500D01*
X113493918Y-49539500D01*
X113346082Y-49539500D01*
X113346080Y-49539500D01*
X113201092Y-49568340D01*
X113201082Y-49568343D01*
X113064511Y-49624912D01*
X113064498Y-49624919D01*
X112941584Y-49707048D01*
X112941580Y-49707051D01*
X112837051Y-49811580D01*
X112837048Y-49811584D01*
X112754919Y-49934498D01*
X112754912Y-49934511D01*
X112698343Y-50071082D01*
X112698340Y-50071092D01*
X112669500Y-50216079D01*
X112669500Y-50216082D01*
X112669500Y-50363918D01*
X112669500Y-50363920D01*
X112669499Y-50363920D01*
X111225553Y-50363920D01*
X111205087Y-50314511D01*
X111205083Y-50314504D01*
X111195268Y-50299815D01*
X111159986Y-50247011D01*
X111122954Y-50191588D01*
X111122948Y-50191580D01*
X111018419Y-50087051D01*
X111018415Y-50087048D01*
X110895501Y-50004919D01*
X110895488Y-50004912D01*
X110758917Y-49948343D01*
X110758907Y-49948340D01*
X110613920Y-49919500D01*
X110613918Y-49919500D01*
X110466082Y-49919500D01*
X110466080Y-49919500D01*
X110321092Y-49948340D01*
X110321082Y-49948343D01*
X110304683Y-49955136D01*
X110235213Y-49962603D01*
X110172735Y-49931327D01*
X110137084Y-49871237D01*
X110139580Y-49801412D01*
X110154129Y-49771686D01*
X110225084Y-49665495D01*
X110281658Y-49528913D01*
X110292400Y-49474912D01*
X110310500Y-49383920D01*
X110310500Y-49236079D01*
X110281659Y-49091092D01*
X110281658Y-49091091D01*
X110281658Y-49091087D01*
X110273372Y-49071082D01*
X110225087Y-48954511D01*
X110225080Y-48954498D01*
X110142951Y-48831584D01*
X110142948Y-48831580D01*
X110038419Y-48727051D01*
X110038415Y-48727048D01*
X109915501Y-48644919D01*
X109915488Y-48644912D01*
X109778917Y-48588343D01*
X109778907Y-48588340D01*
X109633920Y-48559500D01*
X109633918Y-48559500D01*
X109486082Y-48559500D01*
X109486077Y-48559500D01*
X109480151Y-48560679D01*
X109410559Y-48554452D01*
X109355382Y-48511588D01*
X109332138Y-48445698D01*
X109334342Y-48414872D01*
X109340500Y-48383918D01*
X109340500Y-48236082D01*
X109340500Y-48236079D01*
X109311659Y-48091092D01*
X109311658Y-48091091D01*
X109311658Y-48091087D01*
X109311656Y-48091082D01*
X109255087Y-47954511D01*
X109255080Y-47954498D01*
X109172951Y-47831584D01*
X109172948Y-47831580D01*
X109068419Y-47727051D01*
X109068415Y-47727048D01*
X108945501Y-47644919D01*
X108945488Y-47644912D01*
X108808917Y-47588343D01*
X108808907Y-47588340D01*
X108663920Y-47559500D01*
X108663918Y-47559500D01*
X108516082Y-47559500D01*
X108516080Y-47559500D01*
X108371092Y-47588340D01*
X108371082Y-47588343D01*
X108234511Y-47644912D01*
X108234498Y-47644919D01*
X108110769Y-47727593D01*
X108044091Y-47748471D01*
X108017686Y-47746108D01*
X107883920Y-47719500D01*
X107883918Y-47719500D01*
X107736082Y-47719500D01*
X107591087Y-47748342D01*
X107555559Y-47763058D01*
X107555555Y-47763059D01*
X107454507Y-47804914D01*
X107454498Y-47804919D01*
X107331584Y-47887048D01*
X107331580Y-47887051D01*
X107227051Y-47991580D01*
X107227048Y-47991584D01*
X107144919Y-48114498D01*
X107144912Y-48114511D01*
X107088343Y-48251082D01*
X107088340Y-48251092D01*
X107059500Y-48396079D01*
X107059500Y-48396082D01*
X107059500Y-48543918D01*
X107059500Y-48543920D01*
X107059499Y-48543920D01*
X104926141Y-48543920D01*
X104903920Y-48539500D01*
X104903918Y-48539500D01*
X104756082Y-48539500D01*
X104756080Y-48539500D01*
X104611092Y-48568340D01*
X104611082Y-48568343D01*
X104474511Y-48624912D01*
X104474498Y-48624919D01*
X104351584Y-48707048D01*
X104351580Y-48707051D01*
X104247051Y-48811580D01*
X104247048Y-48811584D01*
X104164919Y-48934498D01*
X104164912Y-48934511D01*
X104108343Y-49071082D01*
X104108340Y-49071092D01*
X104079500Y-49216079D01*
X104079500Y-49279099D01*
X104059815Y-49346138D01*
X104007011Y-49391893D01*
X103979693Y-49400716D01*
X103891091Y-49418341D01*
X103891082Y-49418343D01*
X103754511Y-49474912D01*
X103754498Y-49474919D01*
X103631584Y-49557048D01*
X103631580Y-49557051D01*
X103527051Y-49661580D01*
X103527048Y-49661584D01*
X103444919Y-49784498D01*
X103444912Y-49784511D01*
X103388343Y-49921082D01*
X103388340Y-49921092D01*
X103359500Y-50066079D01*
X103359500Y-50066082D01*
X103359500Y-50213918D01*
X103359500Y-50213920D01*
X103359499Y-50213920D01*
X100040500Y-50213920D01*
X100040500Y-50086080D01*
X100040121Y-50084175D01*
X100040121Y-50084172D01*
X100011659Y-49941092D01*
X100011658Y-49941091D01*
X100011658Y-49941087D01*
X100003372Y-49921082D01*
X99955087Y-49804511D01*
X99955080Y-49804498D01*
X99872951Y-49681584D01*
X99872948Y-49681580D01*
X99768419Y-49577051D01*
X99768415Y-49577048D01*
X99669417Y-49510899D01*
X99624612Y-49457286D01*
X99615905Y-49387961D01*
X99646060Y-49324934D01*
X99654604Y-49316763D01*
X99762948Y-49208419D01*
X99762951Y-49208416D01*
X99845084Y-49085495D01*
X99901658Y-48948913D01*
X99926208Y-48825495D01*
X99930500Y-48803920D01*
X99930500Y-48656079D01*
X99901659Y-48511092D01*
X99901658Y-48511091D01*
X99901658Y-48511087D01*
X99889731Y-48482292D01*
X99845087Y-48374511D01*
X99845080Y-48374498D01*
X99762951Y-48251584D01*
X99762948Y-48251580D01*
X99658419Y-48147051D01*
X99658415Y-48147048D01*
X99535501Y-48064919D01*
X99535488Y-48064912D01*
X99398917Y-48008343D01*
X99398907Y-48008340D01*
X99253920Y-47979500D01*
X99253918Y-47979500D01*
X99106082Y-47979500D01*
X99106080Y-47979500D01*
X98961092Y-48008340D01*
X98961082Y-48008343D01*
X98824511Y-48064912D01*
X98824498Y-48064919D01*
X98701584Y-48147048D01*
X98701580Y-48147051D01*
X98597051Y-48251580D01*
X98597048Y-48251584D01*
X98514919Y-48374498D01*
X98514912Y-48374511D01*
X98458343Y-48511082D01*
X98458340Y-48511092D01*
X98429500Y-48656079D01*
X98429500Y-48656082D01*
X98429500Y-48803918D01*
X98429500Y-48803920D01*
X98429499Y-48803920D01*
X98458340Y-48948907D01*
X98458343Y-48948917D01*
X98514912Y-49085488D01*
X98514919Y-49085501D01*
X98597048Y-49208415D01*
X98597051Y-49208419D01*
X98701580Y-49312948D01*
X98701584Y-49312951D01*
X98800582Y-49379100D01*
X98845387Y-49432712D01*
X98854094Y-49502037D01*
X98823939Y-49565065D01*
X98815372Y-49573259D01*
X98707051Y-49681580D01*
X98707048Y-49681584D01*
X98624919Y-49804498D01*
X98624912Y-49804511D01*
X98568343Y-49941082D01*
X98568340Y-49941092D01*
X98539500Y-50086079D01*
X98539500Y-50195500D01*
X98519815Y-50262539D01*
X98467011Y-50308294D01*
X98415500Y-50319500D01*
X97986333Y-50319500D01*
X97919294Y-50299815D01*
X97873539Y-50247011D01*
X97863595Y-50177853D01*
X97878947Y-50133499D01*
X97891278Y-50112140D01*
X97891277Y-50112140D01*
X97891281Y-50112135D01*
X97930500Y-49965766D01*
X97930500Y-49814234D01*
X97891281Y-49667865D01*
X97815515Y-49536635D01*
X97708365Y-49429485D01*
X97636444Y-49387961D01*
X97577136Y-49353719D01*
X97503950Y-49334109D01*
X97430766Y-49314500D01*
X97279234Y-49314500D01*
X97132863Y-49353719D01*
X97001635Y-49429485D01*
X97001632Y-49429487D01*
X96894487Y-49536632D01*
X96894485Y-49536635D01*
X96818719Y-49667863D01*
X96779500Y-49814234D01*
X96779500Y-49965765D01*
X96818719Y-50112136D01*
X96856661Y-50177853D01*
X96894485Y-50243365D01*
X96894486Y-50243366D01*
X96898549Y-50250403D01*
X96896220Y-50251747D01*
X96916645Y-50304584D01*
X96902603Y-50373029D01*
X96853787Y-50423016D01*
X96840528Y-50429456D01*
X96831094Y-50433363D01*
X96831079Y-50433371D01*
X96667218Y-50542860D01*
X96667214Y-50542863D01*
X96527863Y-50682214D01*
X96527860Y-50682218D01*
X96418371Y-50846079D01*
X96418364Y-50846092D01*
X96342950Y-51028160D01*
X96342947Y-51028170D01*
X96310829Y-51189634D01*
X96278444Y-51251545D01*
X96217728Y-51286119D01*
X96147958Y-51282378D01*
X96141760Y-51280004D01*
X96122395Y-51271983D01*
X95982666Y-51214106D01*
X95982659Y-51214104D01*
X95982658Y-51214104D01*
X95982658Y-51214103D01*
X95808694Y-51179500D01*
X95808691Y-51179500D01*
X95631309Y-51179500D01*
X95631306Y-51179500D01*
X95457341Y-51214103D01*
X95457332Y-51214106D01*
X95293459Y-51281983D01*
X95293443Y-51281992D01*
X95265998Y-51300330D01*
X95199320Y-51321207D01*
X95131940Y-51302721D01*
X95085251Y-51250742D01*
X95075492Y-51221418D01*
X95053209Y-51109398D01*
X95037051Y-51028165D01*
X95025592Y-51000500D01*
X94961635Y-50846092D01*
X94961628Y-50846079D01*
X94852139Y-50682218D01*
X94852136Y-50682214D01*
X94712785Y-50542863D01*
X94712781Y-50542860D01*
X94548920Y-50433371D01*
X94548907Y-50433364D01*
X94366839Y-50357950D01*
X94366829Y-50357947D01*
X94173543Y-50319500D01*
X94173541Y-50319500D01*
X93176459Y-50319500D01*
X93176457Y-50319500D01*
X92983170Y-50357947D01*
X92983160Y-50357950D01*
X92801092Y-50433364D01*
X92801079Y-50433371D01*
X92637218Y-50542860D01*
X92637214Y-50542863D01*
X92497863Y-50682214D01*
X92497860Y-50682218D01*
X92388371Y-50846079D01*
X92388364Y-50846092D01*
X92312950Y-51028160D01*
X92312947Y-51028170D01*
X92274500Y-51221456D01*
X92274500Y-51221459D01*
X92274500Y-51418541D01*
X92274500Y-51418543D01*
X92274499Y-51418543D01*
X91560500Y-51418543D01*
X91560500Y-47923920D01*
X92059499Y-47923920D01*
X92088340Y-48068907D01*
X92088343Y-48068917D01*
X92144912Y-48205488D01*
X92144919Y-48205501D01*
X92227048Y-48328415D01*
X92227051Y-48328419D01*
X92331580Y-48432948D01*
X92331584Y-48432951D01*
X92454498Y-48515080D01*
X92454511Y-48515087D01*
X92583081Y-48568342D01*
X92591087Y-48571658D01*
X92591091Y-48571658D01*
X92591092Y-48571659D01*
X92736079Y-48600500D01*
X92736082Y-48600500D01*
X92883920Y-48600500D01*
X92981462Y-48581096D01*
X93028913Y-48571658D01*
X93165495Y-48515084D01*
X93288416Y-48432951D01*
X93392951Y-48328416D01*
X93475084Y-48205495D01*
X93531658Y-48068913D01*
X93553294Y-47960143D01*
X93585679Y-47898233D01*
X93606022Y-47881231D01*
X93618416Y-47872951D01*
X93722951Y-47768416D01*
X93805084Y-47645495D01*
X93805326Y-47644912D01*
X93821650Y-47605501D01*
X93861658Y-47508913D01*
X93889600Y-47368445D01*
X93890500Y-47363920D01*
X93890500Y-47216079D01*
X93861659Y-47071092D01*
X93861658Y-47071091D01*
X93861658Y-47071087D01*
X93848611Y-47039588D01*
X93805087Y-46934511D01*
X93805080Y-46934498D01*
X93722951Y-46811584D01*
X93722948Y-46811580D01*
X93618419Y-46707051D01*
X93618415Y-46707048D01*
X93495501Y-46624919D01*
X93495491Y-46624914D01*
X93392211Y-46582134D01*
X93337808Y-46538293D01*
X93315743Y-46471999D01*
X93333022Y-46404299D01*
X93384160Y-46356689D01*
X93392190Y-46353021D01*
X93435495Y-46335084D01*
X93558416Y-46252951D01*
X93662951Y-46148416D01*
X93745084Y-46025495D01*
X93749015Y-46016006D01*
X93783070Y-45933788D01*
X93801658Y-45888913D01*
X93814013Y-45826803D01*
X93830500Y-45743920D01*
X93830500Y-45681816D01*
X95737737Y-45681816D01*
X95766578Y-45826803D01*
X95766581Y-45826813D01*
X95823150Y-45963384D01*
X95823157Y-45963397D01*
X95905286Y-46086311D01*
X95905289Y-46086315D01*
X96009818Y-46190844D01*
X96009822Y-46190847D01*
X96132736Y-46272976D01*
X96132749Y-46272983D01*
X96258118Y-46324912D01*
X96269325Y-46329554D01*
X96409691Y-46357475D01*
X96471602Y-46389860D01*
X96506176Y-46450575D01*
X96509500Y-46479092D01*
X96509500Y-46483918D01*
X96509500Y-46483920D01*
X96509499Y-46483920D01*
X96538340Y-46628907D01*
X96538343Y-46628917D01*
X96594912Y-46765488D01*
X96594919Y-46765501D01*
X96677048Y-46888415D01*
X96677051Y-46888419D01*
X96781580Y-46992948D01*
X96781584Y-46992951D01*
X96904498Y-47075080D01*
X96904511Y-47075087D01*
X97041082Y-47131656D01*
X97041087Y-47131658D01*
X97041091Y-47131658D01*
X97041092Y-47131659D01*
X97186079Y-47160500D01*
X97186082Y-47160500D01*
X97333920Y-47160500D01*
X97431462Y-47141096D01*
X97478913Y-47131658D01*
X97597712Y-47082450D01*
X97615488Y-47075087D01*
X97615488Y-47075086D01*
X97615495Y-47075084D01*
X97738416Y-46992951D01*
X97821919Y-46909448D01*
X99649500Y-46909448D01*
X99649500Y-47090551D01*
X99677829Y-47269410D01*
X99733787Y-47441636D01*
X99733788Y-47441639D01*
X99768064Y-47508907D01*
X99810910Y-47592997D01*
X99816006Y-47602997D01*
X99922441Y-47749494D01*
X99922445Y-47749499D01*
X100050500Y-47877554D01*
X100050505Y-47877558D01*
X100134270Y-47938416D01*
X100197006Y-47983996D01*
X100290394Y-48031580D01*
X100358360Y-48066211D01*
X100358363Y-48066212D01*
X100434907Y-48091082D01*
X100530591Y-48122171D01*
X100613429Y-48135291D01*
X100709449Y-48150500D01*
X100709454Y-48150500D01*
X100890551Y-48150500D01*
X100977259Y-48136765D01*
X101069409Y-48122171D01*
X101241639Y-48066211D01*
X101402994Y-47983996D01*
X101549501Y-47877553D01*
X101677553Y-47749501D01*
X101783996Y-47602994D01*
X101866211Y-47441639D01*
X101904460Y-47323920D01*
X103529499Y-47323920D01*
X103558340Y-47468907D01*
X103558343Y-47468917D01*
X103614912Y-47605488D01*
X103614919Y-47605501D01*
X103697048Y-47728415D01*
X103697051Y-47728419D01*
X103801580Y-47832948D01*
X103801584Y-47832951D01*
X103924498Y-47915080D01*
X103924511Y-47915087D01*
X104052734Y-47968198D01*
X104061087Y-47971658D01*
X104061091Y-47971658D01*
X104061092Y-47971659D01*
X104206079Y-48000500D01*
X104206082Y-48000500D01*
X104353920Y-48000500D01*
X104451462Y-47981096D01*
X104498913Y-47971658D01*
X104614168Y-47923918D01*
X104635488Y-47915087D01*
X104635488Y-47915086D01*
X104635495Y-47915084D01*
X104758416Y-47832951D01*
X104789881Y-47801486D01*
X104834476Y-47756892D01*
X104895799Y-47723407D01*
X104965491Y-47728391D01*
X105009838Y-47756892D01*
X105130500Y-47877554D01*
X105130505Y-47877558D01*
X105214270Y-47938416D01*
X105277006Y-47983996D01*
X105370394Y-48031580D01*
X105438360Y-48066211D01*
X105438363Y-48066212D01*
X105514907Y-48091082D01*
X105610591Y-48122171D01*
X105693429Y-48135291D01*
X105789449Y-48150500D01*
X105789454Y-48150500D01*
X105970551Y-48150500D01*
X106057259Y-48136765D01*
X106149409Y-48122171D01*
X106321639Y-48066211D01*
X106482994Y-47983996D01*
X106629501Y-47877553D01*
X106757553Y-47749501D01*
X106863996Y-47602994D01*
X106921031Y-47491056D01*
X106969006Y-47440261D01*
X107036827Y-47423466D01*
X107078968Y-47432791D01*
X107219636Y-47491057D01*
X107221087Y-47491658D01*
X107221091Y-47491658D01*
X107221092Y-47491659D01*
X107366079Y-47520500D01*
X107366082Y-47520500D01*
X107503771Y-47520500D01*
X107513918Y-47520500D01*
X107658913Y-47491658D01*
X107795495Y-47435084D01*
X107918416Y-47352951D01*
X108022951Y-47248416D01*
X108105084Y-47125495D01*
X108130589Y-47063920D01*
X111319499Y-47063920D01*
X111348340Y-47208907D01*
X111348343Y-47208917D01*
X111404912Y-47345488D01*
X111404919Y-47345501D01*
X111487048Y-47468415D01*
X111487051Y-47468419D01*
X111591580Y-47572948D01*
X111591584Y-47572951D01*
X111714498Y-47655080D01*
X111714511Y-47655087D01*
X111772033Y-47678913D01*
X111851087Y-47711658D01*
X111851091Y-47711658D01*
X111851092Y-47711659D01*
X111996079Y-47740500D01*
X111996082Y-47740500D01*
X112143920Y-47740500D01*
X112241462Y-47721096D01*
X112288913Y-47711658D01*
X112425495Y-47655084D01*
X112548416Y-47572951D01*
X112652951Y-47468416D01*
X112735084Y-47345495D01*
X112791658Y-47208913D01*
X112809724Y-47118092D01*
X112820500Y-47063920D01*
X112820500Y-46916079D01*
X112791659Y-46771092D01*
X112791658Y-46771091D01*
X112791658Y-46771087D01*
X112786858Y-46759499D01*
X112735087Y-46634511D01*
X112735080Y-46634498D01*
X112652951Y-46511584D01*
X112652948Y-46511580D01*
X112548419Y-46407051D01*
X112548415Y-46407048D01*
X112425501Y-46324919D01*
X112425488Y-46324912D01*
X112288917Y-46268343D01*
X112288907Y-46268340D01*
X112143920Y-46239500D01*
X112143918Y-46239500D01*
X111996082Y-46239500D01*
X111996080Y-46239500D01*
X111851092Y-46268340D01*
X111851082Y-46268343D01*
X111714511Y-46324912D01*
X111714498Y-46324919D01*
X111591584Y-46407048D01*
X111591580Y-46407051D01*
X111487051Y-46511580D01*
X111487048Y-46511584D01*
X111404919Y-46634498D01*
X111404912Y-46634511D01*
X111348343Y-46771082D01*
X111348340Y-46771092D01*
X111319500Y-46916079D01*
X111319500Y-46916082D01*
X111319500Y-47063918D01*
X111319500Y-47063920D01*
X111319499Y-47063920D01*
X108130589Y-47063920D01*
X108161658Y-46988913D01*
X108166350Y-46965323D01*
X108182170Y-46885798D01*
X108182170Y-46885797D01*
X108190499Y-46843922D01*
X108190500Y-46843920D01*
X108190500Y-46696079D01*
X108161659Y-46551092D01*
X108161658Y-46551091D01*
X108161658Y-46551087D01*
X108160529Y-46548361D01*
X108105087Y-46414511D01*
X108105080Y-46414498D01*
X108022951Y-46291584D01*
X108022948Y-46291580D01*
X108005575Y-46274207D01*
X107972090Y-46212884D01*
X107977074Y-46143192D01*
X107990151Y-46117638D01*
X108065084Y-46005495D01*
X108121658Y-45868913D01*
X108136363Y-45794988D01*
X108148511Y-45733920D01*
X114429499Y-45733920D01*
X114458340Y-45878907D01*
X114458342Y-45878913D01*
X114514914Y-46015491D01*
X114514921Y-46015503D01*
X114546615Y-46062938D01*
X114567492Y-46129615D01*
X114565130Y-46156017D01*
X114549500Y-46234596D01*
X114549500Y-46382432D01*
X114549500Y-46382434D01*
X114549499Y-46382434D01*
X114578340Y-46527421D01*
X114578343Y-46527431D01*
X114634912Y-46664002D01*
X114634919Y-46664015D01*
X114717048Y-46786929D01*
X114717051Y-46786933D01*
X114821580Y-46891462D01*
X114821584Y-46891465D01*
X114944498Y-46973594D01*
X114944511Y-46973601D01*
X115081082Y-47030170D01*
X115081087Y-47030172D01*
X115081091Y-47030172D01*
X115081092Y-47030173D01*
X115226079Y-47059014D01*
X115226082Y-47059014D01*
X115373919Y-47059014D01*
X115404592Y-47052912D01*
X115502880Y-47033361D01*
X115572470Y-47039588D01*
X115627648Y-47082450D01*
X115650893Y-47148340D01*
X115641632Y-47202430D01*
X115588343Y-47331082D01*
X115588340Y-47331092D01*
X115559500Y-47476079D01*
X115559500Y-47476082D01*
X115559500Y-47623918D01*
X115559500Y-47623920D01*
X115559499Y-47623920D01*
X115588340Y-47768907D01*
X115588343Y-47768917D01*
X115628274Y-47865319D01*
X115635743Y-47934788D01*
X115616819Y-47981656D01*
X115614921Y-47984496D01*
X115614914Y-47984508D01*
X115558342Y-48121086D01*
X115558340Y-48121092D01*
X115529500Y-48266079D01*
X115529500Y-48266082D01*
X115529500Y-48413918D01*
X115529500Y-48413920D01*
X115529499Y-48413920D01*
X115558340Y-48558907D01*
X115558343Y-48558917D01*
X115614912Y-48695488D01*
X115614919Y-48695501D01*
X115697048Y-48818415D01*
X115697051Y-48818419D01*
X115801580Y-48922948D01*
X115801584Y-48922951D01*
X115924498Y-49005080D01*
X115924511Y-49005087D01*
X116040059Y-49052948D01*
X116061087Y-49061658D01*
X116061091Y-49061658D01*
X116061092Y-49061659D01*
X116206079Y-49090500D01*
X116206082Y-49090500D01*
X116353920Y-49090500D01*
X116479357Y-49065548D01*
X116498913Y-49061658D01*
X116635495Y-49005084D01*
X116758416Y-48922951D01*
X116862951Y-48818416D01*
X116945084Y-48695495D01*
X116991300Y-48583920D01*
X120289499Y-48583920D01*
X120318340Y-48728907D01*
X120318343Y-48728917D01*
X120374912Y-48865488D01*
X120374919Y-48865501D01*
X120457048Y-48988415D01*
X120457051Y-48988419D01*
X120561580Y-49092948D01*
X120561584Y-49092951D01*
X120684498Y-49175080D01*
X120684511Y-49175087D01*
X120783483Y-49216082D01*
X120821087Y-49231658D01*
X120821091Y-49231658D01*
X120821092Y-49231659D01*
X120966079Y-49260500D01*
X120966082Y-49260500D01*
X121113920Y-49260500D01*
X121211462Y-49241096D01*
X121258913Y-49231658D01*
X121395495Y-49175084D01*
X121518416Y-49092951D01*
X121622951Y-48988416D01*
X121705084Y-48865495D01*
X121761658Y-48728913D01*
X121778366Y-48644919D01*
X121790500Y-48583920D01*
X121790500Y-48436079D01*
X121761659Y-48291092D01*
X121761658Y-48291091D01*
X121761658Y-48291087D01*
X121751301Y-48266082D01*
X121705087Y-48154511D01*
X121705080Y-48154498D01*
X121622951Y-48031584D01*
X121622948Y-48031580D01*
X121518419Y-47927051D01*
X121518415Y-47927048D01*
X121395501Y-47844919D01*
X121395488Y-47844912D01*
X121258917Y-47788343D01*
X121258907Y-47788340D01*
X121113920Y-47759500D01*
X121113918Y-47759500D01*
X120966082Y-47759500D01*
X120966080Y-47759500D01*
X120821092Y-47788340D01*
X120821082Y-47788343D01*
X120684511Y-47844912D01*
X120684498Y-47844919D01*
X120561584Y-47927048D01*
X120561580Y-47927051D01*
X120457051Y-48031580D01*
X120457048Y-48031584D01*
X120374919Y-48154498D01*
X120374912Y-48154511D01*
X120318343Y-48291082D01*
X120318340Y-48291092D01*
X120289500Y-48436079D01*
X120289500Y-48436082D01*
X120289500Y-48583918D01*
X120289500Y-48583920D01*
X120289499Y-48583920D01*
X116991300Y-48583920D01*
X117001658Y-48558913D01*
X117023223Y-48450500D01*
X117030499Y-48413924D01*
X117030499Y-48413921D01*
X117030500Y-48413918D01*
X117030500Y-48266082D01*
X117030500Y-48266079D01*
X117001659Y-48121092D01*
X117001658Y-48121091D01*
X117001658Y-48121087D01*
X116984136Y-48078786D01*
X116976668Y-48009320D01*
X117007942Y-47946841D01*
X117068031Y-47911188D01*
X117137856Y-47913681D01*
X117171583Y-47931017D01*
X117230739Y-47973996D01*
X117392093Y-48056211D01*
X117392096Y-48056212D01*
X117461586Y-48078790D01*
X117564324Y-48112171D01*
X117645829Y-48125080D01*
X117743182Y-48140500D01*
X117743187Y-48140500D01*
X117924284Y-48140500D01*
X118021637Y-48125080D01*
X118103142Y-48112171D01*
X118275372Y-48056211D01*
X118436727Y-47973996D01*
X118583234Y-47867553D01*
X118711286Y-47739501D01*
X118817729Y-47592994D01*
X118899944Y-47431639D01*
X118955904Y-47259409D01*
X118978286Y-47118097D01*
X118984233Y-47080551D01*
X118984233Y-46899448D01*
X121763233Y-46899448D01*
X121763233Y-47080551D01*
X121791562Y-47259410D01*
X121847520Y-47431636D01*
X121847521Y-47431639D01*
X121879550Y-47494498D01*
X121927367Y-47588343D01*
X121929739Y-47592997D01*
X122036174Y-47739494D01*
X122036178Y-47739499D01*
X122164233Y-47867554D01*
X122164238Y-47867558D01*
X122261767Y-47938416D01*
X122310739Y-47973996D01*
X122416217Y-48027740D01*
X122472093Y-48056211D01*
X122472096Y-48056212D01*
X122541586Y-48078790D01*
X122644324Y-48112171D01*
X122725829Y-48125080D01*
X122823182Y-48140500D01*
X122823187Y-48140500D01*
X123004284Y-48140500D01*
X123101637Y-48125080D01*
X123183142Y-48112171D01*
X123355372Y-48056211D01*
X123516727Y-47973996D01*
X123655804Y-47872951D01*
X123663226Y-47867559D01*
X123663226Y-47867558D01*
X123663234Y-47867553D01*
X123728120Y-47802666D01*
X123789439Y-47769184D01*
X123859131Y-47774168D01*
X123915065Y-47816039D01*
X123918900Y-47821459D01*
X123997048Y-47938415D01*
X123997051Y-47938419D01*
X124101580Y-48042948D01*
X124101584Y-48042951D01*
X124224498Y-48125080D01*
X124224511Y-48125087D01*
X124295548Y-48154511D01*
X124361087Y-48181658D01*
X124361091Y-48181658D01*
X124361092Y-48181659D01*
X124506079Y-48210500D01*
X124506082Y-48210500D01*
X124653920Y-48210500D01*
X124751462Y-48191096D01*
X124798913Y-48181658D01*
X124935495Y-48125084D01*
X125058416Y-48042951D01*
X125162951Y-47938416D01*
X125162952Y-47938413D01*
X125165736Y-47935630D01*
X125227059Y-47902144D01*
X125296751Y-47907128D01*
X125322309Y-47920208D01*
X125349564Y-47938419D01*
X125374505Y-47955084D01*
X125374507Y-47955085D01*
X125374511Y-47955087D01*
X125508815Y-48010717D01*
X125511087Y-48011658D01*
X125511091Y-48011658D01*
X125511092Y-48011659D01*
X125656079Y-48040500D01*
X125656082Y-48040500D01*
X125803920Y-48040500D01*
X125926994Y-48016018D01*
X125948913Y-48011658D01*
X126085495Y-47955084D01*
X126208416Y-47872951D01*
X126312951Y-47768416D01*
X126395084Y-47645495D01*
X126395326Y-47644912D01*
X126411650Y-47605501D01*
X126451658Y-47508913D01*
X126479600Y-47368445D01*
X126480500Y-47363920D01*
X126480500Y-47216079D01*
X126451659Y-47071092D01*
X126451658Y-47071091D01*
X126451658Y-47071087D01*
X126438611Y-47039588D01*
X126395087Y-46934511D01*
X126395080Y-46934498D01*
X126312951Y-46811584D01*
X126312948Y-46811580D01*
X126208419Y-46707051D01*
X126208415Y-46707048D01*
X126085501Y-46624919D01*
X126085488Y-46624912D01*
X125948917Y-46568343D01*
X125948907Y-46568340D01*
X125803920Y-46539500D01*
X125803918Y-46539500D01*
X125656082Y-46539500D01*
X125656080Y-46539500D01*
X125511092Y-46568340D01*
X125511082Y-46568343D01*
X125374511Y-46624912D01*
X125374498Y-46624919D01*
X125251584Y-46707048D01*
X125144262Y-46814370D01*
X125082939Y-46847854D01*
X125013247Y-46842870D01*
X124987691Y-46829791D01*
X124935499Y-46794918D01*
X124935488Y-46794912D01*
X124798917Y-46738343D01*
X124798907Y-46738340D01*
X124653920Y-46709500D01*
X124653918Y-46709500D01*
X124506082Y-46709500D01*
X124506080Y-46709500D01*
X124361092Y-46738340D01*
X124361082Y-46738343D01*
X124224511Y-46794912D01*
X124219130Y-46797789D01*
X124218459Y-46796534D01*
X124158590Y-46815273D01*
X124091212Y-46796779D01*
X124044529Y-46744794D01*
X124037570Y-46725172D01*
X124037410Y-46725225D01*
X123979945Y-46548363D01*
X123979944Y-46548360D01*
X123930119Y-46450575D01*
X123897729Y-46387006D01*
X123855988Y-46329554D01*
X123791291Y-46240505D01*
X123791287Y-46240500D01*
X123663232Y-46112445D01*
X123663227Y-46112441D01*
X123516730Y-46006006D01*
X123516729Y-46006005D01*
X123516727Y-46006004D01*
X123433095Y-45963391D01*
X123355372Y-45923788D01*
X123355369Y-45923787D01*
X123183143Y-45867829D01*
X123004284Y-45839500D01*
X123004279Y-45839500D01*
X122823187Y-45839500D01*
X122823182Y-45839500D01*
X122644322Y-45867829D01*
X122472096Y-45923787D01*
X122472093Y-45923788D01*
X122310735Y-46006006D01*
X122164238Y-46112441D01*
X122164233Y-46112445D01*
X122036178Y-46240500D01*
X122036174Y-46240505D01*
X121929739Y-46387002D01*
X121847521Y-46548360D01*
X121847520Y-46548363D01*
X121791562Y-46720589D01*
X121763233Y-46899448D01*
X118984233Y-46899448D01*
X118963980Y-46771580D01*
X118955904Y-46720591D01*
X118920070Y-46610303D01*
X118899945Y-46548363D01*
X118899944Y-46548360D01*
X118850119Y-46450575D01*
X118817729Y-46387006D01*
X118775988Y-46329554D01*
X118711291Y-46240505D01*
X118711287Y-46240500D01*
X118583232Y-46112445D01*
X118583227Y-46112441D01*
X118436730Y-46006006D01*
X118436729Y-46006005D01*
X118436727Y-46006004D01*
X118353095Y-45963391D01*
X118275372Y-45923788D01*
X118275369Y-45923787D01*
X118187422Y-45895212D01*
X118129746Y-45855775D01*
X118102548Y-45791416D01*
X118114463Y-45722570D01*
X118156848Y-45674179D01*
X118278416Y-45592951D01*
X118382951Y-45488416D01*
X118465084Y-45365495D01*
X118521658Y-45228913D01*
X118541437Y-45129480D01*
X118550500Y-45083920D01*
X118550500Y-44936079D01*
X118521659Y-44791092D01*
X118521658Y-44791091D01*
X118521658Y-44791087D01*
X118513372Y-44771082D01*
X118465087Y-44654511D01*
X118465080Y-44654498D01*
X118382951Y-44531584D01*
X118382948Y-44531580D01*
X118278419Y-44427051D01*
X118278415Y-44427048D01*
X118155501Y-44344919D01*
X118155488Y-44344912D01*
X118018917Y-44288343D01*
X118018907Y-44288340D01*
X117873920Y-44259500D01*
X117873918Y-44259500D01*
X117726082Y-44259500D01*
X117726080Y-44259500D01*
X117581092Y-44288340D01*
X117581082Y-44288343D01*
X117444511Y-44344912D01*
X117444498Y-44344919D01*
X117321584Y-44427048D01*
X117321580Y-44427051D01*
X117217051Y-44531580D01*
X117217048Y-44531584D01*
X117134919Y-44654498D01*
X117134912Y-44654511D01*
X117078343Y-44791082D01*
X117078340Y-44791092D01*
X117049500Y-44936079D01*
X117049500Y-44936082D01*
X117049500Y-45083918D01*
X117049500Y-45083920D01*
X117049499Y-45083920D01*
X117078340Y-45228907D01*
X117078343Y-45228917D01*
X117134912Y-45365488D01*
X117134919Y-45365501D01*
X117217048Y-45488415D01*
X117217051Y-45488419D01*
X117321580Y-45592948D01*
X117321584Y-45592951D01*
X117444498Y-45675080D01*
X117444502Y-45675082D01*
X117444505Y-45675084D01*
X117447409Y-45676286D01*
X117448696Y-45677323D01*
X117449875Y-45677954D01*
X117449755Y-45678177D01*
X117501814Y-45720124D01*
X117523883Y-45786417D01*
X117506607Y-45854118D01*
X117455473Y-45901731D01*
X117438282Y-45908780D01*
X117392101Y-45923785D01*
X117392093Y-45923788D01*
X117230735Y-46006006D01*
X117084238Y-46112441D01*
X117084233Y-46112445D01*
X116956178Y-46240500D01*
X116956174Y-46240505D01*
X116849739Y-46387002D01*
X116767521Y-46548360D01*
X116767520Y-46548363D01*
X116711562Y-46720587D01*
X116708907Y-46737352D01*
X116678975Y-46800486D01*
X116619663Y-46837416D01*
X116549800Y-46836416D01*
X116538984Y-46832513D01*
X116528917Y-46828343D01*
X116528907Y-46828340D01*
X116383920Y-46799500D01*
X116383918Y-46799500D01*
X116236082Y-46799500D01*
X116236080Y-46799500D01*
X116107120Y-46825152D01*
X116037528Y-46818925D01*
X115982351Y-46776062D01*
X115959106Y-46710172D01*
X115968367Y-46656082D01*
X115971453Y-46648632D01*
X116021658Y-46527427D01*
X116045603Y-46407051D01*
X116050500Y-46382434D01*
X116050500Y-46234593D01*
X116021659Y-46089606D01*
X116021658Y-46089605D01*
X116021658Y-46089601D01*
X115995107Y-46025501D01*
X115965085Y-45953021D01*
X115965084Y-45953019D01*
X115933383Y-45905575D01*
X115912506Y-45838900D01*
X115914868Y-45812502D01*
X115930500Y-45733918D01*
X115930500Y-45586082D01*
X115930500Y-45586079D01*
X115901659Y-45441092D01*
X115901658Y-45441087D01*
X115901317Y-45440264D01*
X115901266Y-45439797D01*
X115899891Y-45435263D01*
X115900751Y-45435002D01*
X115893845Y-45370794D01*
X115912774Y-45323917D01*
X115925084Y-45305495D01*
X115981658Y-45168913D01*
X116002543Y-45063920D01*
X116010500Y-45023920D01*
X116010500Y-44876079D01*
X115981659Y-44731092D01*
X115981658Y-44731091D01*
X115981658Y-44731087D01*
X115981656Y-44731082D01*
X115925087Y-44594511D01*
X115925080Y-44594498D01*
X115842951Y-44471584D01*
X115842948Y-44471580D01*
X115738419Y-44367051D01*
X115738415Y-44367048D01*
X115615501Y-44284919D01*
X115615488Y-44284912D01*
X115478917Y-44228343D01*
X115478907Y-44228340D01*
X115333920Y-44199500D01*
X115333918Y-44199500D01*
X115186082Y-44199500D01*
X115186080Y-44199500D01*
X115041092Y-44228340D01*
X115041082Y-44228343D01*
X114904511Y-44284912D01*
X114904498Y-44284919D01*
X114781584Y-44367048D01*
X114781580Y-44367051D01*
X114677051Y-44471580D01*
X114677048Y-44471584D01*
X114594919Y-44594498D01*
X114594912Y-44594511D01*
X114538343Y-44731082D01*
X114538340Y-44731092D01*
X114509500Y-44876079D01*
X114509500Y-44876082D01*
X114509500Y-45023918D01*
X114509500Y-45023920D01*
X114509499Y-45023920D01*
X114538340Y-45168907D01*
X114538341Y-45168909D01*
X114538342Y-45168913D01*
X114538684Y-45169739D01*
X114538734Y-45170205D01*
X114540110Y-45174740D01*
X114539249Y-45175000D01*
X114546153Y-45239206D01*
X114527227Y-45286079D01*
X114514914Y-45304506D01*
X114458343Y-45441082D01*
X114458340Y-45441092D01*
X114429500Y-45586079D01*
X114429500Y-45586082D01*
X114429500Y-45733918D01*
X114429500Y-45733920D01*
X114429499Y-45733920D01*
X108148511Y-45733920D01*
X108150500Y-45723920D01*
X108150500Y-45576079D01*
X108121659Y-45431092D01*
X108121658Y-45431091D01*
X108121658Y-45431087D01*
X108095796Y-45368651D01*
X108065087Y-45294511D01*
X108065080Y-45294498D01*
X107982951Y-45171584D01*
X107982948Y-45171580D01*
X107878419Y-45067051D01*
X107878415Y-45067048D01*
X107755501Y-44984919D01*
X107755488Y-44984912D01*
X107618917Y-44928343D01*
X107618910Y-44928341D01*
X107602561Y-44925089D01*
X107540651Y-44892703D01*
X107523653Y-44872363D01*
X107442951Y-44751583D01*
X107338419Y-44647051D01*
X107338415Y-44647048D01*
X107215501Y-44564919D01*
X107215488Y-44564912D01*
X107078917Y-44508343D01*
X107078907Y-44508340D01*
X106933920Y-44479500D01*
X106933918Y-44479500D01*
X106786082Y-44479500D01*
X106786080Y-44479500D01*
X106641092Y-44508340D01*
X106641082Y-44508343D01*
X106504511Y-44564912D01*
X106504500Y-44564918D01*
X106436440Y-44610394D01*
X106369762Y-44631271D01*
X106302382Y-44612786D01*
X106298661Y-44610394D01*
X106275495Y-44594915D01*
X106275493Y-44594914D01*
X106138917Y-44538343D01*
X106138907Y-44538340D01*
X105993920Y-44509500D01*
X105993918Y-44509500D01*
X105846082Y-44509500D01*
X105846080Y-44509500D01*
X105701092Y-44538340D01*
X105701082Y-44538343D01*
X105564511Y-44594912D01*
X105564498Y-44594919D01*
X105441584Y-44677048D01*
X105441580Y-44677051D01*
X105337051Y-44781580D01*
X105337048Y-44781584D01*
X105254919Y-44904498D01*
X105254912Y-44904511D01*
X105198343Y-45041082D01*
X105198340Y-45041092D01*
X105169500Y-45186079D01*
X105169500Y-45186082D01*
X105169500Y-45333918D01*
X105169500Y-45333920D01*
X105169499Y-45333920D01*
X105198340Y-45478907D01*
X105198343Y-45478917D01*
X105254912Y-45615488D01*
X105254919Y-45615501D01*
X105337048Y-45738415D01*
X105337051Y-45738419D01*
X105379989Y-45781357D01*
X105413474Y-45842680D01*
X105408490Y-45912372D01*
X105366618Y-45968305D01*
X105348604Y-45979522D01*
X105277004Y-46016004D01*
X105130505Y-46122441D01*
X105130500Y-46122445D01*
X105002445Y-46250500D01*
X105002441Y-46250505D01*
X104896004Y-46397004D01*
X104821761Y-46542713D01*
X104773787Y-46593508D01*
X104705966Y-46610303D01*
X104642391Y-46589522D01*
X104635506Y-46584922D01*
X104635488Y-46584912D01*
X104498917Y-46528343D01*
X104498907Y-46528340D01*
X104353920Y-46499500D01*
X104353918Y-46499500D01*
X104206082Y-46499500D01*
X104206080Y-46499500D01*
X104061092Y-46528340D01*
X104061082Y-46528343D01*
X103924511Y-46584912D01*
X103924498Y-46584919D01*
X103801584Y-46667048D01*
X103801580Y-46667051D01*
X103697051Y-46771580D01*
X103697048Y-46771584D01*
X103614919Y-46894498D01*
X103614912Y-46894511D01*
X103558343Y-47031082D01*
X103558340Y-47031092D01*
X103529500Y-47176079D01*
X103529500Y-47176082D01*
X103529500Y-47323918D01*
X103529500Y-47323920D01*
X103529499Y-47323920D01*
X101904460Y-47323920D01*
X101922171Y-47269409D01*
X101940990Y-47150591D01*
X101950500Y-47090550D01*
X101950500Y-46909448D01*
X101932358Y-46794912D01*
X101922171Y-46730591D01*
X101873935Y-46582134D01*
X101866212Y-46558363D01*
X101866211Y-46558360D01*
X101822207Y-46471999D01*
X101783996Y-46397006D01*
X101743683Y-46341519D01*
X101677558Y-46250505D01*
X101677554Y-46250500D01*
X101549499Y-46122445D01*
X101549494Y-46122441D01*
X101402997Y-46016006D01*
X101402996Y-46016005D01*
X101402994Y-46016004D01*
X101351300Y-45989664D01*
X101241639Y-45933788D01*
X101241636Y-45933787D01*
X101069410Y-45877829D01*
X100890551Y-45849500D01*
X100890546Y-45849500D01*
X100709454Y-45849500D01*
X100709449Y-45849500D01*
X100530589Y-45877829D01*
X100358363Y-45933787D01*
X100358360Y-45933788D01*
X100197002Y-46016006D01*
X100050505Y-46122441D01*
X100050500Y-46122445D01*
X99922445Y-46250500D01*
X99922441Y-46250505D01*
X99816006Y-46397002D01*
X99733788Y-46558360D01*
X99733787Y-46558363D01*
X99677829Y-46730589D01*
X99649500Y-46909448D01*
X97821919Y-46909448D01*
X97842951Y-46888416D01*
X97877028Y-46837416D01*
X97878181Y-46835691D01*
X97925080Y-46765501D01*
X97925080Y-46765500D01*
X97925084Y-46765495D01*
X97981658Y-46628913D01*
X97997681Y-46548361D01*
X98010500Y-46483920D01*
X98010500Y-46336079D01*
X97981659Y-46191092D01*
X97981658Y-46191091D01*
X97981658Y-46191087D01*
X97965385Y-46151801D01*
X97925087Y-46054511D01*
X97925080Y-46054498D01*
X97842951Y-45931584D01*
X97842948Y-45931580D01*
X97738419Y-45827051D01*
X97738415Y-45827048D01*
X97615501Y-45744919D01*
X97615488Y-45744912D01*
X97478917Y-45688343D01*
X97478907Y-45688340D01*
X97349416Y-45662582D01*
X97287505Y-45630197D01*
X97252931Y-45569481D01*
X97256672Y-45499711D01*
X97270506Y-45472074D01*
X97272948Y-45468418D01*
X97272951Y-45468416D01*
X97355084Y-45345495D01*
X97411658Y-45208913D01*
X97427459Y-45129478D01*
X97440500Y-45063920D01*
X97440500Y-44916079D01*
X97419120Y-44808599D01*
X97425347Y-44739007D01*
X97468210Y-44683830D01*
X97508641Y-44664633D01*
X97577135Y-44646281D01*
X97708365Y-44570515D01*
X97815515Y-44463365D01*
X97891281Y-44332135D01*
X97930500Y-44185766D01*
X97930500Y-44034234D01*
X97891281Y-43887865D01*
X97883229Y-43873918D01*
X97878947Y-43866501D01*
X97862473Y-43798602D01*
X97885325Y-43732574D01*
X97940245Y-43689383D01*
X97986333Y-43680500D01*
X98385500Y-43680500D01*
X98452539Y-43700185D01*
X98498294Y-43752989D01*
X98509500Y-43804498D01*
X98509500Y-43843918D01*
X98509500Y-43843920D01*
X98509499Y-43843920D01*
X98538340Y-43988907D01*
X98538343Y-43988917D01*
X98594912Y-44125488D01*
X98594919Y-44125501D01*
X98677048Y-44248415D01*
X98677051Y-44248419D01*
X98781580Y-44352948D01*
X98781584Y-44352951D01*
X98904498Y-44435080D01*
X98904511Y-44435087D01*
X99033260Y-44488416D01*
X99041087Y-44491658D01*
X99041091Y-44491658D01*
X99041092Y-44491659D01*
X99186079Y-44520500D01*
X99186082Y-44520500D01*
X99333920Y-44520500D01*
X99431462Y-44501096D01*
X99478913Y-44491658D01*
X99584547Y-44447902D01*
X99615488Y-44435087D01*
X99615488Y-44435086D01*
X99615495Y-44435084D01*
X99738416Y-44352951D01*
X99842951Y-44248416D01*
X99925084Y-44125495D01*
X99981658Y-43988913D01*
X99997571Y-43908917D01*
X100010500Y-43843920D01*
X100010500Y-43768920D01*
X100874499Y-43768920D01*
X100903340Y-43913907D01*
X100903343Y-43913917D01*
X100959912Y-44050488D01*
X100959919Y-44050501D01*
X101042048Y-44173415D01*
X101042051Y-44173419D01*
X101146580Y-44277948D01*
X101146584Y-44277951D01*
X101269498Y-44360080D01*
X101269511Y-44360087D01*
X101394011Y-44411656D01*
X101406087Y-44416658D01*
X101406091Y-44416658D01*
X101406092Y-44416659D01*
X101551079Y-44445500D01*
X101551082Y-44445500D01*
X101698920Y-44445500D01*
X101796462Y-44426096D01*
X101843913Y-44416658D01*
X101980495Y-44360084D01*
X102103416Y-44277951D01*
X102207951Y-44173416D01*
X102290084Y-44050495D01*
X102297011Y-44033773D01*
X102315592Y-43988913D01*
X102346658Y-43913913D01*
X102354613Y-43873920D01*
X109339499Y-43873920D01*
X109368340Y-44018907D01*
X109368343Y-44018917D01*
X109424912Y-44155488D01*
X109424919Y-44155501D01*
X109507048Y-44278415D01*
X109507051Y-44278419D01*
X109611580Y-44382948D01*
X109611584Y-44382951D01*
X109734498Y-44465080D01*
X109734511Y-44465087D01*
X109868291Y-44520500D01*
X109871087Y-44521658D01*
X109871091Y-44521658D01*
X109871092Y-44521659D01*
X110016079Y-44550500D01*
X110016082Y-44550500D01*
X110163920Y-44550500D01*
X110261462Y-44531096D01*
X110308913Y-44521658D01*
X110445495Y-44465084D01*
X110568416Y-44382951D01*
X110672951Y-44278416D01*
X110684817Y-44260657D01*
X110738427Y-44215851D01*
X110807752Y-44207142D01*
X110856811Y-44226444D01*
X110974498Y-44305080D01*
X110974511Y-44305087D01*
X111039814Y-44332136D01*
X111111087Y-44361658D01*
X111111091Y-44361658D01*
X111111092Y-44361659D01*
X111256079Y-44390500D01*
X111256082Y-44390500D01*
X111403920Y-44390500D01*
X111529593Y-44365501D01*
X111548913Y-44361658D01*
X111685495Y-44305084D01*
X111726103Y-44277951D01*
X111808413Y-44222953D01*
X111808416Y-44222951D01*
X111813022Y-44218344D01*
X111874341Y-44184857D01*
X111924896Y-44184405D01*
X111974958Y-44194363D01*
X112056080Y-44210500D01*
X112056082Y-44210500D01*
X112203920Y-44210500D01*
X112328271Y-44185764D01*
X112348913Y-44181658D01*
X112461659Y-44134957D01*
X112485488Y-44125087D01*
X112485488Y-44125086D01*
X112485495Y-44125084D01*
X112608416Y-44042951D01*
X112657818Y-43993549D01*
X112719141Y-43960063D01*
X112788832Y-43965047D01*
X112844766Y-44006918D01*
X112860060Y-44033773D01*
X112864914Y-44045492D01*
X112864919Y-44045501D01*
X112947048Y-44168415D01*
X112947051Y-44168419D01*
X113051580Y-44272948D01*
X113051584Y-44272951D01*
X113174498Y-44355080D01*
X113174511Y-44355087D01*
X113311082Y-44411656D01*
X113311087Y-44411658D01*
X113311091Y-44411658D01*
X113311092Y-44411659D01*
X113456079Y-44440500D01*
X113456082Y-44440500D01*
X113603920Y-44440500D01*
X113701462Y-44421096D01*
X113748913Y-44411658D01*
X113860375Y-44365489D01*
X113885488Y-44355087D01*
X113885488Y-44355086D01*
X113885495Y-44355084D01*
X114008416Y-44272951D01*
X114112951Y-44168416D01*
X114169409Y-44083920D01*
X121039499Y-44083920D01*
X121068340Y-44228907D01*
X121068343Y-44228917D01*
X121124912Y-44365488D01*
X121124919Y-44365501D01*
X121207048Y-44488415D01*
X121207051Y-44488419D01*
X121311580Y-44592948D01*
X121311584Y-44592951D01*
X121434498Y-44675080D01*
X121434511Y-44675087D01*
X121571082Y-44731656D01*
X121571087Y-44731658D01*
X121571091Y-44731658D01*
X121571092Y-44731659D01*
X121716079Y-44760500D01*
X121716082Y-44760500D01*
X121863920Y-44760500D01*
X121971968Y-44739007D01*
X122008913Y-44731658D01*
X122114547Y-44687902D01*
X122145488Y-44675087D01*
X122145488Y-44675086D01*
X122145495Y-44675084D01*
X122268416Y-44592951D01*
X122372951Y-44488416D01*
X122444121Y-44381902D01*
X128179500Y-44381902D01*
X128179500Y-44618097D01*
X128216446Y-44851368D01*
X128289433Y-45075996D01*
X128379313Y-45252394D01*
X128396657Y-45286433D01*
X128535483Y-45477510D01*
X128535485Y-45477512D01*
X128702490Y-45644517D01*
X128709603Y-45649685D01*
X128752266Y-45705017D01*
X128758242Y-45774630D01*
X128725634Y-45836424D01*
X128709603Y-45850315D01*
X128702490Y-45855482D01*
X128535485Y-46022487D01*
X128535485Y-46022488D01*
X128535483Y-46022490D01*
X128486724Y-46089601D01*
X128396657Y-46213566D01*
X128289433Y-46424003D01*
X128216446Y-46648631D01*
X128179500Y-46881902D01*
X128179500Y-47118097D01*
X128216446Y-47351368D01*
X128289433Y-47575996D01*
X128377838Y-47749499D01*
X128396657Y-47786433D01*
X128462863Y-47877558D01*
X128466205Y-47882157D01*
X128489685Y-47947964D01*
X128473860Y-48016018D01*
X128440199Y-48054309D01*
X128322452Y-48142455D01*
X128236206Y-48257664D01*
X128236202Y-48257671D01*
X128185908Y-48392517D01*
X128181225Y-48436079D01*
X128179501Y-48452123D01*
X128179500Y-48452135D01*
X128179500Y-50547870D01*
X128179501Y-50547876D01*
X128185908Y-50607483D01*
X128236202Y-50742328D01*
X128236206Y-50742335D01*
X128322452Y-50857544D01*
X128322455Y-50857547D01*
X128437664Y-50943793D01*
X128437671Y-50943797D01*
X128572517Y-50994091D01*
X128572516Y-50994091D01*
X128579444Y-50994835D01*
X128632127Y-51000500D01*
X130727872Y-51000499D01*
X130787483Y-50994091D01*
X130922331Y-50943796D01*
X131037546Y-50857546D01*
X131123796Y-50742331D01*
X131174091Y-50607483D01*
X131180500Y-50547873D01*
X131180499Y-48452128D01*
X131174091Y-48392517D01*
X131170883Y-48383917D01*
X131123797Y-48257671D01*
X131123793Y-48257664D01*
X131037547Y-48142455D01*
X131037544Y-48142452D01*
X130919801Y-48054309D01*
X130877930Y-47998375D01*
X130872946Y-47928684D01*
X130893795Y-47882157D01*
X130897137Y-47877558D01*
X130963343Y-47786433D01*
X131070568Y-47575992D01*
X131143553Y-47351368D01*
X131158118Y-47259409D01*
X131180500Y-47118097D01*
X131180500Y-46881902D01*
X131143553Y-46648631D01*
X131091360Y-46488000D01*
X131070568Y-46424008D01*
X131070566Y-46424005D01*
X131070566Y-46424003D01*
X131003095Y-46291584D01*
X130963343Y-46213567D01*
X130824517Y-46022490D01*
X130657510Y-45855483D01*
X130650401Y-45850318D01*
X130607735Y-45794988D01*
X130601756Y-45725375D01*
X130634362Y-45663580D01*
X130650401Y-45649682D01*
X130650500Y-45649609D01*
X130657510Y-45644517D01*
X130824517Y-45477510D01*
X130963343Y-45286433D01*
X131070568Y-45075992D01*
X131143553Y-44851368D01*
X131153100Y-44791092D01*
X131180500Y-44618097D01*
X131180500Y-44381903D01*
X131161113Y-44259500D01*
X131146097Y-44164696D01*
X131155051Y-44095405D01*
X131200047Y-44041953D01*
X131266799Y-44021313D01*
X131334113Y-44040038D01*
X131356251Y-44057619D01*
X131371580Y-44072948D01*
X131371584Y-44072951D01*
X131494498Y-44155080D01*
X131494511Y-44155087D01*
X131601735Y-44199500D01*
X131631087Y-44211658D01*
X131631091Y-44211658D01*
X131631092Y-44211659D01*
X131776079Y-44240500D01*
X131776082Y-44240500D01*
X131923920Y-44240500D01*
X132035291Y-44218346D01*
X132068913Y-44211658D01*
X132184742Y-44163680D01*
X132205488Y-44155087D01*
X132205488Y-44155086D01*
X132205495Y-44155084D01*
X132328416Y-44072951D01*
X132432951Y-43968416D01*
X132515084Y-43845495D01*
X132571658Y-43708913D01*
X132581096Y-43661462D01*
X132600500Y-43563920D01*
X132600500Y-43416079D01*
X132571659Y-43271092D01*
X132571658Y-43271091D01*
X132571658Y-43271087D01*
X132555822Y-43232856D01*
X132515087Y-43134511D01*
X132515080Y-43134498D01*
X132432951Y-43011584D01*
X132432948Y-43011580D01*
X132328419Y-42907051D01*
X132328415Y-42907048D01*
X132205501Y-42824919D01*
X132205488Y-42824912D01*
X132068917Y-42768343D01*
X132068907Y-42768340D01*
X131923920Y-42739500D01*
X131923918Y-42739500D01*
X131776082Y-42739500D01*
X131776080Y-42739500D01*
X131631092Y-42768340D01*
X131631082Y-42768343D01*
X131494511Y-42824912D01*
X131494498Y-42824919D01*
X131371584Y-42907048D01*
X131371580Y-42907051D01*
X131267051Y-43011580D01*
X131267048Y-43011584D01*
X131184919Y-43134498D01*
X131184912Y-43134511D01*
X131128343Y-43271082D01*
X131128340Y-43271092D01*
X131099500Y-43416079D01*
X131099500Y-43519338D01*
X131079815Y-43586377D01*
X131027011Y-43632132D01*
X130957853Y-43642076D01*
X130894297Y-43613051D01*
X130875183Y-43592224D01*
X130825556Y-43523920D01*
X130824517Y-43522490D01*
X130657510Y-43355483D01*
X130466433Y-43216657D01*
X130435875Y-43201087D01*
X130255996Y-43109433D01*
X130031368Y-43036446D01*
X129798097Y-42999500D01*
X129798092Y-42999500D01*
X129561908Y-42999500D01*
X129561903Y-42999500D01*
X129328631Y-43036446D01*
X129104003Y-43109433D01*
X128893566Y-43216657D01*
X128794904Y-43288340D01*
X128702490Y-43355483D01*
X128702488Y-43355485D01*
X128702487Y-43355485D01*
X128535485Y-43522487D01*
X128535485Y-43522488D01*
X128535483Y-43522490D01*
X128492913Y-43581082D01*
X128396657Y-43713566D01*
X128289433Y-43924003D01*
X128216446Y-44148631D01*
X128179500Y-44381902D01*
X122444121Y-44381902D01*
X122455084Y-44365495D01*
X122455085Y-44365492D01*
X122455087Y-44365489D01*
X122469959Y-44329584D01*
X122469959Y-44329583D01*
X122471894Y-44324912D01*
X122511658Y-44228913D01*
X122526262Y-44155495D01*
X122540500Y-44083920D01*
X122540500Y-43936079D01*
X122511659Y-43791092D01*
X122511658Y-43791091D01*
X122511658Y-43791087D01*
X122495895Y-43753032D01*
X122455087Y-43654511D01*
X122455080Y-43654498D01*
X122372951Y-43531584D01*
X122372948Y-43531580D01*
X122268419Y-43427051D01*
X122268415Y-43427048D01*
X122145501Y-43344919D01*
X122145488Y-43344912D01*
X122008917Y-43288343D01*
X122008907Y-43288340D01*
X121863920Y-43259500D01*
X121863918Y-43259500D01*
X121716082Y-43259500D01*
X121716080Y-43259500D01*
X121571092Y-43288340D01*
X121571082Y-43288343D01*
X121434511Y-43344912D01*
X121434498Y-43344919D01*
X121311584Y-43427048D01*
X121311580Y-43427051D01*
X121207051Y-43531580D01*
X121207048Y-43531584D01*
X121124919Y-43654498D01*
X121124912Y-43654511D01*
X121068343Y-43791082D01*
X121068340Y-43791092D01*
X121039500Y-43936079D01*
X121039500Y-43936082D01*
X121039500Y-44083918D01*
X121039500Y-44083920D01*
X121039499Y-44083920D01*
X114169409Y-44083920D01*
X114195084Y-44045495D01*
X114199749Y-44034234D01*
X114212706Y-44002951D01*
X114251658Y-43908913D01*
X114252278Y-43905798D01*
X114280500Y-43763920D01*
X114280500Y-43616079D01*
X114251659Y-43471092D01*
X114251658Y-43471091D01*
X114251658Y-43471087D01*
X114240650Y-43444511D01*
X114195087Y-43334511D01*
X114195080Y-43334498D01*
X114112951Y-43211584D01*
X114112948Y-43211580D01*
X114008419Y-43107051D01*
X114003708Y-43103185D01*
X114004585Y-43102115D01*
X113964275Y-43053871D01*
X113956359Y-43028585D01*
X113931820Y-42905224D01*
X113931819Y-42905223D01*
X113931819Y-42905219D01*
X113931817Y-42905214D01*
X113875248Y-42768643D01*
X113875241Y-42768630D01*
X113793112Y-42645716D01*
X113793109Y-42645712D01*
X113688580Y-42541183D01*
X113688576Y-42541180D01*
X113565662Y-42459051D01*
X113565649Y-42459044D01*
X113429078Y-42402475D01*
X113429068Y-42402472D01*
X113284081Y-42373632D01*
X113284079Y-42373632D01*
X113136243Y-42373632D01*
X113136241Y-42373632D01*
X112991253Y-42402472D01*
X112991243Y-42402475D01*
X112854672Y-42459044D01*
X112854659Y-42459051D01*
X112731745Y-42541180D01*
X112731741Y-42541183D01*
X112627212Y-42645712D01*
X112627209Y-42645716D01*
X112574945Y-42723935D01*
X112521333Y-42768740D01*
X112452008Y-42777447D01*
X112424391Y-42769605D01*
X112348917Y-42738343D01*
X112348907Y-42738340D01*
X112203920Y-42709500D01*
X112203918Y-42709500D01*
X112056082Y-42709500D01*
X112056080Y-42709500D01*
X111911092Y-42738340D01*
X111911082Y-42738343D01*
X111774511Y-42794912D01*
X111774498Y-42794919D01*
X111651587Y-42877046D01*
X111651580Y-42877052D01*
X111646969Y-42881663D01*
X111585644Y-42915145D01*
X111535101Y-42915594D01*
X111403920Y-42889500D01*
X111403918Y-42889500D01*
X111256082Y-42889500D01*
X111256080Y-42889500D01*
X111111092Y-42918340D01*
X111111082Y-42918343D01*
X110974511Y-42974912D01*
X110974498Y-42974919D01*
X110851584Y-43057048D01*
X110851580Y-43057051D01*
X110747051Y-43161580D01*
X110747049Y-43161583D01*
X110735180Y-43179346D01*
X110681566Y-43224150D01*
X110612241Y-43232856D01*
X110563188Y-43213555D01*
X110445501Y-43134919D01*
X110445488Y-43134912D01*
X110308917Y-43078343D01*
X110308907Y-43078340D01*
X110163920Y-43049500D01*
X110163918Y-43049500D01*
X110016082Y-43049500D01*
X110016080Y-43049500D01*
X109871092Y-43078340D01*
X109871082Y-43078343D01*
X109734511Y-43134912D01*
X109734498Y-43134919D01*
X109611584Y-43217048D01*
X109611580Y-43217051D01*
X109507051Y-43321580D01*
X109507048Y-43321584D01*
X109424919Y-43444498D01*
X109424912Y-43444511D01*
X109368343Y-43581082D01*
X109368340Y-43581092D01*
X109339500Y-43726079D01*
X109339500Y-43726082D01*
X109339500Y-43873918D01*
X109339500Y-43873920D01*
X109339499Y-43873920D01*
X102354613Y-43873920D01*
X102368423Y-43804498D01*
X102375500Y-43768920D01*
X102375500Y-43621079D01*
X102346659Y-43476092D01*
X102346658Y-43476091D01*
X102346658Y-43476087D01*
X102341204Y-43462919D01*
X102290087Y-43339511D01*
X102290080Y-43339498D01*
X102207951Y-43216584D01*
X102207948Y-43216580D01*
X102103419Y-43112051D01*
X102103415Y-43112048D01*
X101980501Y-43029919D01*
X101980488Y-43029912D01*
X101843917Y-42973343D01*
X101843907Y-42973340D01*
X101698920Y-42944500D01*
X101698918Y-42944500D01*
X101551082Y-42944500D01*
X101551080Y-42944500D01*
X101406092Y-42973340D01*
X101406082Y-42973343D01*
X101269511Y-43029912D01*
X101269498Y-43029919D01*
X101146584Y-43112048D01*
X101146580Y-43112051D01*
X101042051Y-43216580D01*
X101042048Y-43216584D01*
X100959919Y-43339498D01*
X100959912Y-43339511D01*
X100903343Y-43476082D01*
X100903340Y-43476092D01*
X100874500Y-43621079D01*
X100874500Y-43621082D01*
X100874500Y-43768918D01*
X100874500Y-43768920D01*
X100874499Y-43768920D01*
X100010500Y-43768920D01*
X100010500Y-43696079D01*
X99999182Y-43639182D01*
X99981659Y-43551092D01*
X99981658Y-43551091D01*
X99981658Y-43551087D01*
X99942744Y-43457139D01*
X99925087Y-43414511D01*
X99925080Y-43414498D01*
X99842951Y-43291584D01*
X99842948Y-43291580D01*
X99738419Y-43187051D01*
X99738415Y-43187048D01*
X99615501Y-43104919D01*
X99615488Y-43104912D01*
X99478915Y-43048342D01*
X99478906Y-43048340D01*
X99478273Y-43048214D01*
X99477972Y-43048056D01*
X99473079Y-43046572D01*
X99473360Y-43045643D01*
X99416366Y-43015822D01*
X99381798Y-42955102D01*
X99380861Y-42902407D01*
X99383429Y-42889500D01*
X99390211Y-42855400D01*
X99405500Y-42778543D01*
X99405500Y-42581456D01*
X99367052Y-42388170D01*
X99367051Y-42388169D01*
X99367051Y-42388165D01*
X99349815Y-42346553D01*
X99291635Y-42206092D01*
X99291628Y-42206079D01*
X99182139Y-42042218D01*
X99182136Y-42042214D01*
X99042785Y-41902863D01*
X99042781Y-41902860D01*
X98935690Y-41831304D01*
X104979500Y-41831304D01*
X104979500Y-42008695D01*
X105014103Y-42182658D01*
X105014106Y-42182667D01*
X105081983Y-42346540D01*
X105081990Y-42346553D01*
X105180535Y-42494034D01*
X105180538Y-42494038D01*
X105305961Y-42619461D01*
X105305965Y-42619464D01*
X105453446Y-42718009D01*
X105453459Y-42718016D01*
X105574954Y-42768340D01*
X105617334Y-42785894D01*
X105617336Y-42785894D01*
X105617341Y-42785896D01*
X105791304Y-42820499D01*
X105791307Y-42820500D01*
X105791309Y-42820500D01*
X105968693Y-42820500D01*
X105968694Y-42820499D01*
X106026682Y-42808964D01*
X106142658Y-42785896D01*
X106142661Y-42785894D01*
X106142666Y-42785894D01*
X106306547Y-42718013D01*
X106454035Y-42619464D01*
X106579464Y-42494035D01*
X106678013Y-42346547D01*
X106745894Y-42182666D01*
X106747827Y-42172951D01*
X106780499Y-42008695D01*
X106780500Y-42008693D01*
X106780500Y-41831306D01*
X106780499Y-41831304D01*
X106753172Y-41693920D01*
X108789499Y-41693920D01*
X108818340Y-41838907D01*
X108818343Y-41838917D01*
X108874912Y-41975488D01*
X108874919Y-41975501D01*
X108957048Y-42098415D01*
X108957051Y-42098419D01*
X109061580Y-42202948D01*
X109061584Y-42202951D01*
X109184498Y-42285080D01*
X109184511Y-42285087D01*
X109308731Y-42336540D01*
X109321087Y-42341658D01*
X109321091Y-42341658D01*
X109321092Y-42341659D01*
X109466079Y-42370500D01*
X109466082Y-42370500D01*
X109613920Y-42370500D01*
X109711462Y-42351096D01*
X109758913Y-42341658D01*
X109864547Y-42297902D01*
X109895488Y-42285087D01*
X109895488Y-42285086D01*
X109895495Y-42285084D01*
X110018416Y-42202951D01*
X110122951Y-42098416D01*
X110205084Y-41975495D01*
X110261658Y-41838913D01*
X110285720Y-41717949D01*
X110290500Y-41693920D01*
X110290500Y-41663920D01*
X114459499Y-41663920D01*
X114488340Y-41808907D01*
X114488343Y-41808917D01*
X114544912Y-41945488D01*
X114544919Y-41945501D01*
X114627048Y-42068415D01*
X114627051Y-42068419D01*
X114731580Y-42172948D01*
X114731584Y-42172951D01*
X114854498Y-42255080D01*
X114854511Y-42255087D01*
X114941424Y-42291087D01*
X114991087Y-42311658D01*
X114991091Y-42311658D01*
X114991092Y-42311659D01*
X115136079Y-42340500D01*
X115136082Y-42340500D01*
X115283920Y-42340500D01*
X115381462Y-42321096D01*
X115428913Y-42311658D01*
X115534547Y-42267902D01*
X115565488Y-42255087D01*
X115565488Y-42255086D01*
X115565495Y-42255084D01*
X115688416Y-42172951D01*
X115792951Y-42068416D01*
X115875084Y-41945495D01*
X115931658Y-41808913D01*
X115954532Y-41693920D01*
X115960500Y-41663920D01*
X115960500Y-41516079D01*
X115931659Y-41371092D01*
X115931658Y-41371091D01*
X115931658Y-41371087D01*
X115921252Y-41345965D01*
X115875087Y-41234511D01*
X115875080Y-41234498D01*
X115792951Y-41111584D01*
X115792948Y-41111580D01*
X115688419Y-41007051D01*
X115688415Y-41007048D01*
X115565501Y-40924919D01*
X115565488Y-40924912D01*
X115563093Y-40923920D01*
X117989499Y-40923920D01*
X118018340Y-41068907D01*
X118018343Y-41068917D01*
X118074912Y-41205488D01*
X118074919Y-41205501D01*
X118157048Y-41328415D01*
X118157051Y-41328419D01*
X118261580Y-41432948D01*
X118261584Y-41432951D01*
X118384498Y-41515080D01*
X118384511Y-41515087D01*
X118514858Y-41569078D01*
X118569262Y-41612919D01*
X118591327Y-41679213D01*
X118574048Y-41746912D01*
X118522911Y-41794523D01*
X118514860Y-41798200D01*
X118474505Y-41814916D01*
X118474498Y-41814919D01*
X118351584Y-41897048D01*
X118351580Y-41897051D01*
X118247051Y-42001580D01*
X118247048Y-42001584D01*
X118164919Y-42124498D01*
X118164912Y-42124511D01*
X118108343Y-42261082D01*
X118108340Y-42261092D01*
X118079500Y-42406079D01*
X118079500Y-42406082D01*
X118079500Y-42553918D01*
X118079500Y-42553920D01*
X118079499Y-42553920D01*
X118108340Y-42698907D01*
X118108343Y-42698917D01*
X118164912Y-42835488D01*
X118164919Y-42835501D01*
X118247048Y-42958415D01*
X118247051Y-42958419D01*
X118351580Y-43062948D01*
X118351584Y-43062951D01*
X118474498Y-43145080D01*
X118474511Y-43145087D01*
X118611082Y-43201656D01*
X118611087Y-43201658D01*
X118611091Y-43201658D01*
X118611092Y-43201659D01*
X118756079Y-43230500D01*
X118756082Y-43230500D01*
X118903920Y-43230500D01*
X119001462Y-43211096D01*
X119048913Y-43201658D01*
X119164163Y-43153920D01*
X119185488Y-43145087D01*
X119185488Y-43145086D01*
X119185495Y-43145084D01*
X119308416Y-43062951D01*
X119412951Y-42958416D01*
X119495084Y-42835495D01*
X119551658Y-42698913D01*
X119567462Y-42619464D01*
X119580500Y-42553920D01*
X119580500Y-42406079D01*
X119551659Y-42261092D01*
X119551658Y-42261091D01*
X119551658Y-42261087D01*
X119549173Y-42255087D01*
X119495087Y-42124511D01*
X119495080Y-42124498D01*
X119412951Y-42001584D01*
X119412948Y-42001580D01*
X119308419Y-41897051D01*
X119308415Y-41897048D01*
X119185501Y-41814919D01*
X119185492Y-41814914D01*
X119055140Y-41760921D01*
X119000737Y-41717080D01*
X118978672Y-41650786D01*
X118995951Y-41583087D01*
X119047088Y-41535476D01*
X119055124Y-41531805D01*
X119095495Y-41515084D01*
X119218416Y-41432951D01*
X119322951Y-41328416D01*
X119405084Y-41205495D01*
X119461658Y-41068913D01*
X119471487Y-41019500D01*
X119490500Y-40923920D01*
X119490500Y-40776079D01*
X119461659Y-40631092D01*
X119461658Y-40631091D01*
X119461658Y-40631087D01*
X119456409Y-40618415D01*
X119405087Y-40494511D01*
X119405080Y-40494498D01*
X119322951Y-40371584D01*
X119322948Y-40371580D01*
X119218419Y-40267051D01*
X119218415Y-40267048D01*
X119095501Y-40184919D01*
X119095488Y-40184912D01*
X118958917Y-40128343D01*
X118958907Y-40128340D01*
X118813920Y-40099500D01*
X118813918Y-40099500D01*
X118666082Y-40099500D01*
X118666080Y-40099500D01*
X118521092Y-40128340D01*
X118521082Y-40128343D01*
X118384511Y-40184912D01*
X118384498Y-40184919D01*
X118261584Y-40267048D01*
X118261580Y-40267051D01*
X118157051Y-40371580D01*
X118157048Y-40371584D01*
X118074919Y-40494498D01*
X118074912Y-40494511D01*
X118018343Y-40631082D01*
X118018340Y-40631092D01*
X117989500Y-40776079D01*
X117989500Y-40776082D01*
X117989500Y-40923918D01*
X117989500Y-40923920D01*
X117989499Y-40923920D01*
X115563093Y-40923920D01*
X115468046Y-40884551D01*
X115428917Y-40868343D01*
X115428907Y-40868340D01*
X115283920Y-40839500D01*
X115283918Y-40839500D01*
X115136082Y-40839500D01*
X115136080Y-40839500D01*
X114991092Y-40868340D01*
X114991082Y-40868343D01*
X114854511Y-40924912D01*
X114854498Y-40924919D01*
X114731584Y-41007048D01*
X114731580Y-41007051D01*
X114627051Y-41111580D01*
X114627048Y-41111584D01*
X114544919Y-41234498D01*
X114544912Y-41234511D01*
X114488343Y-41371082D01*
X114488340Y-41371092D01*
X114459500Y-41516079D01*
X114459500Y-41516082D01*
X114459500Y-41663918D01*
X114459500Y-41663920D01*
X114459499Y-41663920D01*
X110290500Y-41663920D01*
X110290500Y-41546082D01*
X110290499Y-41546079D01*
X110284532Y-41516082D01*
X110261659Y-41401092D01*
X110261658Y-41401091D01*
X110261658Y-41401087D01*
X110243760Y-41357877D01*
X110205087Y-41264511D01*
X110205080Y-41264498D01*
X110122951Y-41141584D01*
X110122948Y-41141580D01*
X110018419Y-41037051D01*
X110018415Y-41037048D01*
X109895501Y-40954919D01*
X109895488Y-40954912D01*
X109758917Y-40898343D01*
X109758907Y-40898340D01*
X109613920Y-40869500D01*
X109613918Y-40869500D01*
X109466082Y-40869500D01*
X109466080Y-40869500D01*
X109321092Y-40898340D01*
X109321082Y-40898343D01*
X109184511Y-40954912D01*
X109184498Y-40954919D01*
X109061584Y-41037048D01*
X109061580Y-41037051D01*
X108957051Y-41141580D01*
X108957048Y-41141584D01*
X108874919Y-41264498D01*
X108874912Y-41264511D01*
X108818343Y-41401082D01*
X108818340Y-41401092D01*
X108789500Y-41546079D01*
X108789500Y-41546082D01*
X108789500Y-41693918D01*
X108789500Y-41693920D01*
X108789499Y-41693920D01*
X106753172Y-41693920D01*
X106745896Y-41657341D01*
X106745893Y-41657332D01*
X106678013Y-41493452D01*
X106676982Y-41491523D01*
X106676747Y-41490396D01*
X106675682Y-41487824D01*
X106676169Y-41487621D01*
X106662740Y-41423120D01*
X106687740Y-41357877D01*
X106744045Y-41316506D01*
X106813778Y-41312144D01*
X106865541Y-41340709D01*
X106866874Y-41339086D01*
X106871584Y-41342951D01*
X106994498Y-41425080D01*
X106994511Y-41425087D01*
X107103830Y-41470368D01*
X107131087Y-41481658D01*
X107131091Y-41481658D01*
X107131092Y-41481659D01*
X107276079Y-41510500D01*
X107276082Y-41510500D01*
X107423920Y-41510500D01*
X107537915Y-41487824D01*
X107568913Y-41481658D01*
X107666869Y-41441083D01*
X107704660Y-41425430D01*
X107704661Y-41425430D01*
X107705099Y-41425247D01*
X107705495Y-41425084D01*
X107828416Y-41342951D01*
X107932951Y-41238416D01*
X108015084Y-41115495D01*
X108071658Y-40978913D01*
X108093540Y-40868907D01*
X108100500Y-40833920D01*
X108100500Y-40686079D01*
X108071659Y-40541092D01*
X108071658Y-40541091D01*
X108071658Y-40541087D01*
X108052773Y-40495495D01*
X108015087Y-40404511D01*
X108015080Y-40404498D01*
X107932951Y-40281584D01*
X107932948Y-40281580D01*
X107828419Y-40177051D01*
X107828415Y-40177048D01*
X107705501Y-40094919D01*
X107705488Y-40094912D01*
X107568917Y-40038343D01*
X107568907Y-40038340D01*
X107423920Y-40009500D01*
X107423918Y-40009500D01*
X107276082Y-40009500D01*
X107276080Y-40009500D01*
X107131092Y-40038340D01*
X107131082Y-40038343D01*
X106994511Y-40094912D01*
X106994498Y-40094919D01*
X106871584Y-40177048D01*
X106871580Y-40177051D01*
X106767051Y-40281580D01*
X106767048Y-40281584D01*
X106684919Y-40404498D01*
X106684912Y-40404511D01*
X106628343Y-40541082D01*
X106628340Y-40541092D01*
X106599500Y-40686079D01*
X106599500Y-40686082D01*
X106599500Y-40833918D01*
X106599500Y-40833920D01*
X106599499Y-40833920D01*
X106628340Y-40978907D01*
X106628343Y-40978917D01*
X106683886Y-41113011D01*
X106691355Y-41182480D01*
X106660079Y-41244959D01*
X106599990Y-41280611D01*
X106530165Y-41278117D01*
X106481644Y-41248144D01*
X106454038Y-41220538D01*
X106454034Y-41220535D01*
X106306553Y-41121990D01*
X106306540Y-41121983D01*
X106142667Y-41054106D01*
X106142658Y-41054103D01*
X105968694Y-41019500D01*
X105968691Y-41019500D01*
X105791309Y-41019500D01*
X105791306Y-41019500D01*
X105617341Y-41054103D01*
X105617332Y-41054106D01*
X105453459Y-41121983D01*
X105453446Y-41121990D01*
X105305965Y-41220535D01*
X105305961Y-41220538D01*
X105180538Y-41345961D01*
X105180535Y-41345965D01*
X105081990Y-41493446D01*
X105081983Y-41493459D01*
X105014106Y-41657332D01*
X105014103Y-41657341D01*
X104979500Y-41831304D01*
X98935690Y-41831304D01*
X98878920Y-41793371D01*
X98878907Y-41793364D01*
X98696839Y-41717950D01*
X98696829Y-41717947D01*
X98503543Y-41679500D01*
X98503541Y-41679500D01*
X97206459Y-41679500D01*
X97206457Y-41679500D01*
X97013170Y-41717947D01*
X97013160Y-41717950D01*
X96831092Y-41793364D01*
X96831079Y-41793371D01*
X96667218Y-41902860D01*
X96667214Y-41902863D01*
X96527863Y-42042214D01*
X96527860Y-42042218D01*
X96418371Y-42206079D01*
X96418364Y-42206092D01*
X96342950Y-42388160D01*
X96342947Y-42388170D01*
X96304500Y-42581456D01*
X96304500Y-42581459D01*
X96304500Y-42778541D01*
X96304500Y-42778543D01*
X96304499Y-42778543D01*
X96342947Y-42971829D01*
X96342950Y-42971839D01*
X96418364Y-43153907D01*
X96418371Y-43153920D01*
X96527860Y-43317781D01*
X96527863Y-43317785D01*
X96667214Y-43457136D01*
X96667218Y-43457139D01*
X96831079Y-43566628D01*
X96831083Y-43566630D01*
X96831086Y-43566632D01*
X96840523Y-43570541D01*
X96894927Y-43614378D01*
X96916995Y-43680672D01*
X96899719Y-43748372D01*
X96896565Y-43753032D01*
X96818719Y-43887863D01*
X96779500Y-44034234D01*
X96779500Y-44115500D01*
X96759815Y-44182539D01*
X96707011Y-44228294D01*
X96655500Y-44239500D01*
X96616080Y-44239500D01*
X96471092Y-44268340D01*
X96471082Y-44268343D01*
X96334511Y-44324912D01*
X96334498Y-44324919D01*
X96211584Y-44407048D01*
X96211580Y-44407051D01*
X96107051Y-44511580D01*
X96107048Y-44511584D01*
X96024919Y-44634498D01*
X96024912Y-44634511D01*
X95968343Y-44771082D01*
X95968340Y-44771092D01*
X95939500Y-44916079D01*
X95939500Y-45043904D01*
X95919815Y-45110943D01*
X95908867Y-45124528D01*
X95909156Y-45124765D01*
X95905288Y-45129478D01*
X95823157Y-45252394D01*
X95823150Y-45252407D01*
X95766581Y-45388978D01*
X95766578Y-45388988D01*
X95737738Y-45533975D01*
X95737738Y-45533978D01*
X95737738Y-45681814D01*
X95737738Y-45681816D01*
X95737737Y-45681816D01*
X93830500Y-45681816D01*
X93830500Y-45596080D01*
X93821747Y-45552079D01*
X93821747Y-45552078D01*
X93801659Y-45451092D01*
X93801658Y-45451091D01*
X93801658Y-45451087D01*
X93796982Y-45439797D01*
X93745087Y-45314511D01*
X93745080Y-45314498D01*
X93662951Y-45191584D01*
X93662948Y-45191580D01*
X93558419Y-45087051D01*
X93558415Y-45087048D01*
X93445230Y-45011420D01*
X93400425Y-44957808D01*
X93391718Y-44888483D01*
X93421872Y-44825455D01*
X93445230Y-44805216D01*
X93538416Y-44742951D01*
X93642948Y-44638419D01*
X93642951Y-44638416D01*
X93725084Y-44515495D01*
X93728047Y-44508343D01*
X93745965Y-44465084D01*
X93781658Y-44378913D01*
X93800356Y-44284916D01*
X93810500Y-44233920D01*
X93810500Y-44086079D01*
X93781659Y-43941092D01*
X93781658Y-43941091D01*
X93781658Y-43941087D01*
X93770400Y-43913907D01*
X93744738Y-43851952D01*
X93737269Y-43782483D01*
X93768545Y-43720004D01*
X93828634Y-43684352D01*
X93859299Y-43680500D01*
X94173543Y-43680500D01*
X94329462Y-43649485D01*
X94366835Y-43642051D01*
X94548914Y-43566632D01*
X94712782Y-43457139D01*
X94852139Y-43317782D01*
X94961632Y-43153914D01*
X94965290Y-43145084D01*
X94986703Y-43093386D01*
X95037051Y-42971835D01*
X95055906Y-42877046D01*
X95075500Y-42778543D01*
X95075500Y-42581456D01*
X95037052Y-42388170D01*
X95037051Y-42388169D01*
X95037051Y-42388165D01*
X95019815Y-42346553D01*
X94961635Y-42206092D01*
X94961628Y-42206079D01*
X94852139Y-42042218D01*
X94852136Y-42042214D01*
X94712785Y-41902863D01*
X94712781Y-41902860D01*
X94548920Y-41793371D01*
X94548907Y-41793364D01*
X94366839Y-41717950D01*
X94366829Y-41717947D01*
X94173543Y-41679500D01*
X94173541Y-41679500D01*
X93176459Y-41679500D01*
X93176457Y-41679500D01*
X92983170Y-41717947D01*
X92983160Y-41717950D01*
X92801092Y-41793364D01*
X92801079Y-41793371D01*
X92637218Y-41902860D01*
X92637214Y-41902863D01*
X92497863Y-42042214D01*
X92497860Y-42042218D01*
X92388371Y-42206079D01*
X92388364Y-42206092D01*
X92312950Y-42388160D01*
X92312947Y-42388170D01*
X92274500Y-42581456D01*
X92274500Y-42581459D01*
X92274500Y-42778541D01*
X92274500Y-42778543D01*
X92274499Y-42778543D01*
X92312947Y-42971829D01*
X92312950Y-42971839D01*
X92388364Y-43153907D01*
X92388371Y-43153920D01*
X92497860Y-43317781D01*
X92497863Y-43317785D01*
X92581674Y-43401596D01*
X92615159Y-43462919D01*
X92610175Y-43532611D01*
X92581674Y-43576958D01*
X92477051Y-43681580D01*
X92477048Y-43681584D01*
X92394919Y-43804498D01*
X92394912Y-43804511D01*
X92338343Y-43941082D01*
X92338340Y-43941092D01*
X92309500Y-44086079D01*
X92309500Y-44086082D01*
X92309500Y-44233918D01*
X92309500Y-44233920D01*
X92309499Y-44233920D01*
X92338340Y-44378907D01*
X92338343Y-44378917D01*
X92394912Y-44515488D01*
X92394919Y-44515501D01*
X92477048Y-44638415D01*
X92477051Y-44638419D01*
X92581583Y-44742951D01*
X92694769Y-44818579D01*
X92739574Y-44872191D01*
X92748281Y-44941516D01*
X92718127Y-45004543D01*
X92694770Y-45024783D01*
X92601580Y-45087051D01*
X92497051Y-45191580D01*
X92497048Y-45191584D01*
X92414919Y-45314498D01*
X92414912Y-45314511D01*
X92358343Y-45451082D01*
X92358340Y-45451092D01*
X92329500Y-45596079D01*
X92329500Y-45596080D01*
X92329500Y-45596082D01*
X92329500Y-45743918D01*
X92329500Y-45743920D01*
X92329499Y-45743920D01*
X92358340Y-45888907D01*
X92358343Y-45888917D01*
X92414912Y-46025488D01*
X92414919Y-46025501D01*
X92497048Y-46148415D01*
X92497051Y-46148419D01*
X92601580Y-46252948D01*
X92601584Y-46252951D01*
X92724498Y-46335080D01*
X92724511Y-46335087D01*
X92827787Y-46377865D01*
X92882191Y-46421706D01*
X92904256Y-46488000D01*
X92886977Y-46555699D01*
X92835840Y-46603310D01*
X92827789Y-46606987D01*
X92784504Y-46624916D01*
X92784498Y-46624919D01*
X92661584Y-46707048D01*
X92661580Y-46707051D01*
X92557051Y-46811580D01*
X92557048Y-46811584D01*
X92474919Y-46934498D01*
X92474912Y-46934511D01*
X92418343Y-47071082D01*
X92418340Y-47071092D01*
X92396705Y-47179856D01*
X92364319Y-47241767D01*
X92343985Y-47258762D01*
X92331584Y-47267049D01*
X92331577Y-47267055D01*
X92227051Y-47371580D01*
X92227048Y-47371584D01*
X92144919Y-47494498D01*
X92144912Y-47494511D01*
X92088343Y-47631082D01*
X92088340Y-47631092D01*
X92059500Y-47776079D01*
X92059500Y-47776082D01*
X92059500Y-47923918D01*
X92059500Y-47923920D01*
X92059499Y-47923920D01*
X91560500Y-47923920D01*
X91560500Y-39217648D01*
X92779500Y-39217648D01*
X92779500Y-39422351D01*
X92811522Y-39624534D01*
X92874781Y-39819223D01*
X92938691Y-39944653D01*
X92959208Y-39984919D01*
X92967715Y-40001613D01*
X93088028Y-40167213D01*
X93232786Y-40311971D01*
X93338006Y-40388416D01*
X93398390Y-40432287D01*
X93514607Y-40491503D01*
X93580776Y-40525218D01*
X93580778Y-40525218D01*
X93580781Y-40525220D01*
X93685137Y-40559127D01*
X93775465Y-40588477D01*
X93863491Y-40602419D01*
X93977648Y-40620500D01*
X93977649Y-40620500D01*
X94182351Y-40620500D01*
X94182352Y-40620500D01*
X94384534Y-40588477D01*
X94579219Y-40525220D01*
X94761610Y-40432287D01*
X94862596Y-40358917D01*
X94927213Y-40311971D01*
X94927215Y-40311968D01*
X94927219Y-40311966D01*
X95071966Y-40167219D01*
X95071968Y-40167215D01*
X95071971Y-40167213D01*
X95126865Y-40091656D01*
X95192287Y-40001610D01*
X95285220Y-39819219D01*
X95348477Y-39624534D01*
X95380500Y-39422352D01*
X95380500Y-39217648D01*
X95370406Y-39153920D01*
X102929499Y-39153920D01*
X102958340Y-39298907D01*
X102958343Y-39298917D01*
X103014912Y-39435488D01*
X103014919Y-39435501D01*
X103097048Y-39558415D01*
X103097051Y-39558419D01*
X103201580Y-39662948D01*
X103201584Y-39662951D01*
X103324498Y-39745080D01*
X103324511Y-39745087D01*
X103419690Y-39784511D01*
X103461087Y-39801658D01*
X103461091Y-39801658D01*
X103461092Y-39801659D01*
X103606079Y-39830500D01*
X103606082Y-39830500D01*
X103753920Y-39830500D01*
X103851462Y-39811096D01*
X103898913Y-39801658D01*
X104035495Y-39745084D01*
X104158416Y-39662951D01*
X104262951Y-39558416D01*
X104339455Y-39443920D01*
X109359499Y-39443920D01*
X109388340Y-39588907D01*
X109388343Y-39588917D01*
X109444912Y-39725488D01*
X109444919Y-39725501D01*
X109527048Y-39848415D01*
X109527051Y-39848419D01*
X109631580Y-39952948D01*
X109631584Y-39952951D01*
X109754498Y-40035080D01*
X109754511Y-40035087D01*
X109831675Y-40067049D01*
X109891087Y-40091658D01*
X109891091Y-40091658D01*
X109891092Y-40091659D01*
X110036079Y-40120500D01*
X110036082Y-40120500D01*
X110183920Y-40120500D01*
X110281462Y-40101096D01*
X110328913Y-40091658D01*
X110457627Y-40038343D01*
X110465488Y-40035087D01*
X110465488Y-40035086D01*
X110465495Y-40035084D01*
X110542068Y-39983920D01*
X120399499Y-39983920D01*
X120428340Y-40128907D01*
X120428343Y-40128917D01*
X120484912Y-40265488D01*
X120484919Y-40265501D01*
X120567048Y-40388415D01*
X120567051Y-40388419D01*
X120671580Y-40492948D01*
X120671584Y-40492951D01*
X120794498Y-40575080D01*
X120794511Y-40575087D01*
X120931082Y-40631656D01*
X120931087Y-40631658D01*
X120931091Y-40631658D01*
X120931092Y-40631659D01*
X121076079Y-40660500D01*
X121076082Y-40660500D01*
X121223919Y-40660500D01*
X121297542Y-40645855D01*
X121367133Y-40652082D01*
X121422311Y-40694944D01*
X121443351Y-40743280D01*
X121468340Y-40868907D01*
X121468343Y-40868917D01*
X121524912Y-41005488D01*
X121524919Y-41005500D01*
X121607048Y-41128415D01*
X121607051Y-41128419D01*
X121711580Y-41232948D01*
X121711584Y-41232951D01*
X121834498Y-41315080D01*
X121834511Y-41315087D01*
X121971082Y-41371656D01*
X121971087Y-41371658D01*
X121999301Y-41377270D01*
X122061211Y-41409653D01*
X122095786Y-41470368D01*
X122092047Y-41540138D01*
X122089672Y-41546338D01*
X122047838Y-41647337D01*
X122047836Y-41647341D01*
X122013233Y-41821304D01*
X122013233Y-41998695D01*
X122047836Y-42172658D01*
X122047839Y-42172667D01*
X122115716Y-42336540D01*
X122115723Y-42336553D01*
X122214268Y-42484034D01*
X122214271Y-42484038D01*
X122339694Y-42609461D01*
X122339698Y-42609464D01*
X122487179Y-42708009D01*
X122487192Y-42708016D01*
X122606773Y-42757547D01*
X122651067Y-42775894D01*
X122651069Y-42775894D01*
X122651074Y-42775896D01*
X122825037Y-42810499D01*
X122825040Y-42810500D01*
X122825042Y-42810500D01*
X123002426Y-42810500D01*
X123002427Y-42810499D01*
X123060415Y-42798964D01*
X123176391Y-42775896D01*
X123176394Y-42775894D01*
X123176399Y-42775894D01*
X123340280Y-42708013D01*
X123487768Y-42609464D01*
X123513312Y-42583920D01*
X134219499Y-42583920D01*
X134248340Y-42728907D01*
X134248343Y-42728917D01*
X134304912Y-42865488D01*
X134304919Y-42865501D01*
X134387048Y-42988415D01*
X134387051Y-42988419D01*
X134491580Y-43092948D01*
X134491584Y-43092951D01*
X134614498Y-43175080D01*
X134614511Y-43175087D01*
X134751082Y-43231656D01*
X134751087Y-43231658D01*
X134751091Y-43231658D01*
X134751092Y-43231659D01*
X134896079Y-43260500D01*
X134896082Y-43260500D01*
X135043920Y-43260500D01*
X135182890Y-43232856D01*
X135188913Y-43231658D01*
X135325495Y-43175084D01*
X135448416Y-43092951D01*
X135552951Y-42988416D01*
X135574872Y-42955608D01*
X135580962Y-42950517D01*
X135584261Y-42943296D01*
X135607386Y-42928434D01*
X135628483Y-42910803D01*
X135637859Y-42908850D01*
X135643039Y-42905522D01*
X135677974Y-42900499D01*
X135802558Y-42900499D01*
X135869597Y-42920184D01*
X135915352Y-42972988D01*
X135925296Y-43042146D01*
X135907377Y-43088910D01*
X135907789Y-43089130D01*
X135906039Y-43092402D01*
X135905663Y-43093386D01*
X135904919Y-43094499D01*
X135904912Y-43094511D01*
X135848343Y-43231082D01*
X135848340Y-43231092D01*
X135819500Y-43376079D01*
X135819500Y-43376082D01*
X135819500Y-43523918D01*
X135819500Y-43523920D01*
X135819499Y-43523920D01*
X135848340Y-43668907D01*
X135848343Y-43668917D01*
X135904912Y-43805488D01*
X135904919Y-43805501D01*
X135987048Y-43928415D01*
X135987051Y-43928419D01*
X136091580Y-44032948D01*
X136091584Y-44032951D01*
X136214498Y-44115080D01*
X136214511Y-44115087D01*
X136343260Y-44168416D01*
X136351087Y-44171658D01*
X136351091Y-44171658D01*
X136351092Y-44171659D01*
X136496079Y-44200500D01*
X136496082Y-44200500D01*
X136643920Y-44200500D01*
X136741462Y-44181096D01*
X136788913Y-44171658D01*
X136900361Y-44125495D01*
X136925488Y-44115087D01*
X136925488Y-44115086D01*
X136925495Y-44115084D01*
X137048416Y-44032951D01*
X137092460Y-43988907D01*
X137142319Y-43939049D01*
X137203642Y-43905564D01*
X137273334Y-43910548D01*
X137317681Y-43939049D01*
X137381580Y-44002948D01*
X137381584Y-44002951D01*
X137504498Y-44085080D01*
X137504511Y-44085087D01*
X137602049Y-44125488D01*
X137641087Y-44141658D01*
X137641091Y-44141658D01*
X137641092Y-44141659D01*
X137786079Y-44170500D01*
X137786082Y-44170500D01*
X137933920Y-44170500D01*
X138043858Y-44148631D01*
X138078913Y-44141658D01*
X138215495Y-44085084D01*
X138338416Y-44002951D01*
X138442951Y-43898416D01*
X138525084Y-43775495D01*
X138527808Y-43768920D01*
X138552663Y-43708913D01*
X138581658Y-43638913D01*
X138596037Y-43566628D01*
X138610500Y-43493920D01*
X138610500Y-43346079D01*
X138581659Y-43201092D01*
X138581658Y-43201091D01*
X138581658Y-43201087D01*
X138572653Y-43179346D01*
X138528169Y-43071951D01*
X138520700Y-43002482D01*
X138551975Y-42940003D01*
X138612064Y-42904351D01*
X138642730Y-42900499D01*
X138827871Y-42900499D01*
X138827872Y-42900499D01*
X138887483Y-42894091D01*
X139022331Y-42843796D01*
X139137546Y-42757546D01*
X139223796Y-42642331D01*
X139274091Y-42507483D01*
X139280500Y-42447873D01*
X139280499Y-40352128D01*
X139274091Y-40292517D01*
X139270013Y-40281584D01*
X139223797Y-40157671D01*
X139223793Y-40157664D01*
X139137547Y-40042455D01*
X139137544Y-40042452D01*
X139022335Y-39956206D01*
X139022328Y-39956202D01*
X138887482Y-39905908D01*
X138887483Y-39905908D01*
X138827883Y-39899501D01*
X138827881Y-39899500D01*
X138827873Y-39899500D01*
X138827864Y-39899500D01*
X135532129Y-39899500D01*
X135532123Y-39899501D01*
X135472516Y-39905908D01*
X135337671Y-39956202D01*
X135337664Y-39956206D01*
X135222455Y-40042452D01*
X135222452Y-40042455D01*
X135136206Y-40157664D01*
X135136202Y-40157671D01*
X135085908Y-40292517D01*
X135083817Y-40311971D01*
X135079501Y-40352123D01*
X135079500Y-40352135D01*
X135079500Y-41635500D01*
X135059815Y-41702539D01*
X135007011Y-41748294D01*
X134955500Y-41759500D01*
X134896080Y-41759500D01*
X134751092Y-41788340D01*
X134751082Y-41788343D01*
X134614511Y-41844912D01*
X134614498Y-41844919D01*
X134491584Y-41927048D01*
X134491580Y-41927051D01*
X134387051Y-42031580D01*
X134387048Y-42031584D01*
X134304919Y-42154498D01*
X134304912Y-42154511D01*
X134248343Y-42291082D01*
X134248340Y-42291092D01*
X134219500Y-42436079D01*
X134219500Y-42436082D01*
X134219500Y-42583918D01*
X134219500Y-42583920D01*
X134219499Y-42583920D01*
X123513312Y-42583920D01*
X123613197Y-42484035D01*
X123677259Y-42388160D01*
X123695341Y-42361099D01*
X123695341Y-42361098D01*
X123711741Y-42336555D01*
X123711742Y-42336552D01*
X123711746Y-42336547D01*
X123779627Y-42172666D01*
X123783239Y-42154511D01*
X123812244Y-42008691D01*
X123814233Y-41998691D01*
X123814233Y-41821309D01*
X123814233Y-41821306D01*
X123814232Y-41821304D01*
X123779629Y-41647341D01*
X123779626Y-41647332D01*
X123711749Y-41483459D01*
X123711742Y-41483446D01*
X123613197Y-41335965D01*
X123613194Y-41335961D01*
X123487771Y-41210538D01*
X123487767Y-41210535D01*
X123340286Y-41111990D01*
X123340273Y-41111983D01*
X123176400Y-41044106D01*
X123176392Y-41044104D01*
X123009829Y-41010972D01*
X122947918Y-40978587D01*
X122913344Y-40917871D01*
X122912404Y-40865163D01*
X122940500Y-40723920D01*
X122940500Y-40576079D01*
X122911659Y-40431092D01*
X122911658Y-40431091D01*
X122911658Y-40431087D01*
X122900650Y-40404511D01*
X122855087Y-40294511D01*
X122855080Y-40294498D01*
X122801239Y-40213920D01*
X126519499Y-40213920D01*
X126548340Y-40358907D01*
X126548343Y-40358917D01*
X126604912Y-40495488D01*
X126604919Y-40495501D01*
X126687048Y-40618415D01*
X126687051Y-40618419D01*
X126791580Y-40722948D01*
X126791584Y-40722951D01*
X126914498Y-40805080D01*
X126914511Y-40805087D01*
X127051082Y-40861656D01*
X127051087Y-40861658D01*
X127051091Y-40861658D01*
X127051092Y-40861659D01*
X127196079Y-40890500D01*
X127196082Y-40890500D01*
X127343920Y-40890500D01*
X127441462Y-40871096D01*
X127488913Y-40861658D01*
X127625495Y-40805084D01*
X127748416Y-40722951D01*
X127852951Y-40618416D01*
X127935084Y-40495495D01*
X127991658Y-40358913D01*
X128009931Y-40267051D01*
X128020500Y-40213920D01*
X128020500Y-40066079D01*
X127991659Y-39921092D01*
X127991658Y-39921091D01*
X127991658Y-39921087D01*
X127982717Y-39899501D01*
X127935087Y-39784511D01*
X127935080Y-39784498D01*
X127852951Y-39661584D01*
X127852948Y-39661580D01*
X127748419Y-39557051D01*
X127748415Y-39557048D01*
X127625501Y-39474919D01*
X127625488Y-39474912D01*
X127488917Y-39418343D01*
X127488907Y-39418340D01*
X127343920Y-39389500D01*
X127343918Y-39389500D01*
X127196082Y-39389500D01*
X127196080Y-39389500D01*
X127051092Y-39418340D01*
X127051082Y-39418343D01*
X126914511Y-39474912D01*
X126914498Y-39474919D01*
X126791584Y-39557048D01*
X126791580Y-39557051D01*
X126687051Y-39661580D01*
X126687048Y-39661584D01*
X126604919Y-39784498D01*
X126604912Y-39784511D01*
X126548343Y-39921082D01*
X126548340Y-39921092D01*
X126519500Y-40066079D01*
X126519500Y-40066082D01*
X126519500Y-40213918D01*
X126519500Y-40213920D01*
X126519499Y-40213920D01*
X122801239Y-40213920D01*
X122772951Y-40171584D01*
X122772948Y-40171580D01*
X122668419Y-40067051D01*
X122668415Y-40067048D01*
X122545501Y-39984919D01*
X122545488Y-39984912D01*
X122408917Y-39928343D01*
X122408907Y-39928340D01*
X122263920Y-39899500D01*
X122263918Y-39899500D01*
X122116082Y-39899500D01*
X122116077Y-39899500D01*
X122042456Y-39914144D01*
X121972864Y-39907917D01*
X121917687Y-39865053D01*
X121896648Y-39816718D01*
X121871658Y-39691087D01*
X121860004Y-39662951D01*
X121815087Y-39554511D01*
X121815080Y-39554498D01*
X121732951Y-39431584D01*
X121732948Y-39431580D01*
X121628419Y-39327051D01*
X121628415Y-39327048D01*
X121505501Y-39244919D01*
X121505488Y-39244912D01*
X121368917Y-39188343D01*
X121368907Y-39188340D01*
X121223920Y-39159500D01*
X121223918Y-39159500D01*
X121076082Y-39159500D01*
X121076080Y-39159500D01*
X120931092Y-39188340D01*
X120931082Y-39188343D01*
X120794511Y-39244912D01*
X120794498Y-39244919D01*
X120671584Y-39327048D01*
X120671580Y-39327051D01*
X120567051Y-39431580D01*
X120567048Y-39431584D01*
X120484919Y-39554498D01*
X120484912Y-39554511D01*
X120428343Y-39691082D01*
X120428340Y-39691092D01*
X120399500Y-39836079D01*
X120399500Y-39836082D01*
X120399500Y-39983918D01*
X120399500Y-39983920D01*
X120399499Y-39983920D01*
X110542068Y-39983920D01*
X110588416Y-39952951D01*
X110692951Y-39848416D01*
X110735660Y-39784498D01*
X110751295Y-39761099D01*
X110751296Y-39761097D01*
X110775077Y-39725506D01*
X110775080Y-39725501D01*
X110775084Y-39725495D01*
X110831658Y-39588913D01*
X110841096Y-39541462D01*
X110860500Y-39443920D01*
X110860500Y-39296079D01*
X110831659Y-39151092D01*
X110831658Y-39151091D01*
X110831658Y-39151087D01*
X110831656Y-39151082D01*
X110775087Y-39014511D01*
X110775080Y-39014498D01*
X110692951Y-38891584D01*
X110692948Y-38891580D01*
X110588419Y-38787051D01*
X110588415Y-38787048D01*
X110465501Y-38704919D01*
X110465488Y-38704912D01*
X110328917Y-38648343D01*
X110328907Y-38648340D01*
X110183920Y-38619500D01*
X110183918Y-38619500D01*
X110036082Y-38619500D01*
X110036080Y-38619500D01*
X109891092Y-38648340D01*
X109891082Y-38648343D01*
X109754511Y-38704912D01*
X109754498Y-38704919D01*
X109631584Y-38787048D01*
X109631580Y-38787051D01*
X109527051Y-38891580D01*
X109527048Y-38891584D01*
X109444919Y-39014498D01*
X109444912Y-39014511D01*
X109388343Y-39151082D01*
X109388340Y-39151092D01*
X109359500Y-39296079D01*
X109359500Y-39296082D01*
X109359500Y-39443918D01*
X109359500Y-39443920D01*
X109359499Y-39443920D01*
X104339455Y-39443920D01*
X104345084Y-39435495D01*
X104355369Y-39410666D01*
X104390003Y-39327051D01*
X104401658Y-39298913D01*
X104402222Y-39296079D01*
X104408246Y-39265797D01*
X104408246Y-39265795D01*
X104423653Y-39188340D01*
X104430500Y-39153918D01*
X104430500Y-39006082D01*
X104430500Y-39006079D01*
X104401659Y-38861092D01*
X104401658Y-38861091D01*
X104401658Y-38861087D01*
X104384961Y-38820776D01*
X104345087Y-38724511D01*
X104345080Y-38724498D01*
X104262951Y-38601584D01*
X104262948Y-38601580D01*
X104158419Y-38497051D01*
X104158415Y-38497048D01*
X104035501Y-38414919D01*
X104035488Y-38414912D01*
X103898917Y-38358343D01*
X103898907Y-38358340D01*
X103753920Y-38329500D01*
X103753918Y-38329500D01*
X103606082Y-38329500D01*
X103606080Y-38329500D01*
X103461092Y-38358340D01*
X103461082Y-38358343D01*
X103324511Y-38414912D01*
X103324498Y-38414919D01*
X103201584Y-38497048D01*
X103201580Y-38497051D01*
X103097051Y-38601580D01*
X103097048Y-38601584D01*
X103014919Y-38724498D01*
X103014912Y-38724511D01*
X102958343Y-38861082D01*
X102958340Y-38861092D01*
X102929500Y-39006079D01*
X102929500Y-39006082D01*
X102929500Y-39153918D01*
X102929500Y-39153920D01*
X102929499Y-39153920D01*
X95370406Y-39153920D01*
X95348477Y-39015466D01*
X95348162Y-39014498D01*
X95298316Y-38861087D01*
X95285220Y-38820781D01*
X95285218Y-38820778D01*
X95285218Y-38820776D01*
X95226185Y-38704919D01*
X95192287Y-38638390D01*
X95165543Y-38601580D01*
X95071971Y-38472786D01*
X94927213Y-38328028D01*
X94761613Y-38207715D01*
X94761612Y-38207714D01*
X94761610Y-38207713D01*
X94704653Y-38178691D01*
X94579223Y-38114781D01*
X94384534Y-38051522D01*
X94209995Y-38023878D01*
X94182352Y-38019500D01*
X93977648Y-38019500D01*
X93953329Y-38023351D01*
X93775465Y-38051522D01*
X93580776Y-38114781D01*
X93398386Y-38207715D01*
X93232786Y-38328028D01*
X93088028Y-38472786D01*
X92967715Y-38638386D01*
X92874781Y-38820776D01*
X92811522Y-39015465D01*
X92779500Y-39217648D01*
X91560500Y-39217648D01*
X91560500Y-37684500D01*
X91580185Y-37617461D01*
X91632989Y-37571706D01*
X91684500Y-37560500D01*
X135994108Y-37560500D01*
X136058022Y-37560500D01*
X136061995Y-37560563D01*
G37*
%TD.AperFunction*%
%TD*%
M02*
