%TF.GenerationSoftware,KiCad,Pcbnew,9.0.2*%
%TF.CreationDate,2025-10-12T11:55:11+02:00*%
%TF.ProjectId,synthmate_L432,73796e74-686d-4617-9465-5f4c3433322e,rev?*%
%TF.SameCoordinates,Original*%
%TF.FileFunction,Copper,L1,Top*%
%TF.FilePolarity,Positive*%
%FSLAX46Y46*%
G04 Gerber Fmt 4.6, Leading zero omitted, Abs format (unit mm)*
G04 Created by KiCad (PCBNEW 9.0.2) date 2025-10-12 11:55:11*
%MOMM*%
%LPD*%
G01*
G04 APERTURE LIST*
G04 Aperture macros list*
%AMRoundRect*
0 Rectangle with rounded corners*
0 $1 Rounding radius*
0 $2 $3 $4 $5 $6 $7 $8 $9 X,Y pos of 4 corners*
0 Add a 4 corners polygon primitive as box body*
4,1,4,$2,$3,$4,$5,$6,$7,$8,$9,$2,$3,0*
0 Add four circle primitives for the rounded corners*
1,1,$1+$1,$2,$3*
1,1,$1+$1,$4,$5*
1,1,$1+$1,$6,$7*
1,1,$1+$1,$8,$9*
0 Add four rect primitives between the rounded corners*
20,1,$1+$1,$2,$3,$4,$5,0*
20,1,$1+$1,$4,$5,$6,$7,0*
20,1,$1+$1,$6,$7,$8,$9,0*
20,1,$1+$1,$8,$9,$2,$3,0*%
G04 Aperture macros list end*
%TA.AperFunction,SMDPad,CuDef*%
%ADD10R,1.000000X1.000000*%
%TD*%
%TA.AperFunction,ComponentPad*%
%ADD11C,2.200000*%
%TD*%
%TA.AperFunction,SMDPad,CuDef*%
%ADD12R,0.280000X0.850000*%
%TD*%
%TA.AperFunction,SMDPad,CuDef*%
%ADD13R,0.850000X0.280000*%
%TD*%
%TA.AperFunction,SMDPad,CuDef*%
%ADD14R,2.050000X2.050000*%
%TD*%
%TA.AperFunction,SMDPad,CuDef*%
%ADD15RoundRect,0.237500X0.237500X-0.300000X0.237500X0.300000X-0.237500X0.300000X-0.237500X-0.300000X0*%
%TD*%
%TA.AperFunction,SMDPad,CuDef*%
%ADD16RoundRect,0.237500X-0.250000X-0.237500X0.250000X-0.237500X0.250000X0.237500X-0.250000X0.237500X0*%
%TD*%
%TA.AperFunction,SMDPad,CuDef*%
%ADD17RoundRect,0.218750X0.218750X0.256250X-0.218750X0.256250X-0.218750X-0.256250X0.218750X-0.256250X0*%
%TD*%
%TA.AperFunction,SMDPad,CuDef*%
%ADD18RoundRect,0.237500X-0.300000X-0.237500X0.300000X-0.237500X0.300000X0.237500X-0.300000X0.237500X0*%
%TD*%
%TA.AperFunction,SMDPad,CuDef*%
%ADD19R,0.704800X0.300000*%
%TD*%
%TA.AperFunction,SMDPad,CuDef*%
%ADD20R,0.704850X0.249936*%
%TD*%
%TA.AperFunction,SMDPad,CuDef*%
%ADD21R,0.350012X0.754888*%
%TD*%
%TA.AperFunction,SMDPad,CuDef*%
%ADD22RoundRect,0.218750X-0.256250X0.218750X-0.256250X-0.218750X0.256250X-0.218750X0.256250X0.218750X0*%
%TD*%
%TA.AperFunction,SMDPad,CuDef*%
%ADD23RoundRect,0.100000X-0.225000X-0.100000X0.225000X-0.100000X0.225000X0.100000X-0.225000X0.100000X0*%
%TD*%
%TA.AperFunction,SMDPad,CuDef*%
%ADD24RoundRect,0.237500X0.250000X0.237500X-0.250000X0.237500X-0.250000X-0.237500X0.250000X-0.237500X0*%
%TD*%
%TA.AperFunction,SMDPad,CuDef*%
%ADD25RoundRect,0.237500X-0.237500X0.300000X-0.237500X-0.300000X0.237500X-0.300000X0.237500X0.300000X0*%
%TD*%
%TA.AperFunction,SMDPad,CuDef*%
%ADD26R,0.740000X2.400000*%
%TD*%
%TA.AperFunction,SMDPad,CuDef*%
%ADD27RoundRect,0.237500X-0.237500X0.250000X-0.237500X-0.250000X0.237500X-0.250000X0.237500X0.250000X0*%
%TD*%
%TA.AperFunction,SMDPad,CuDef*%
%ADD28RoundRect,0.237500X0.237500X-0.250000X0.237500X0.250000X-0.237500X0.250000X-0.237500X-0.250000X0*%
%TD*%
%TA.AperFunction,SMDPad,CuDef*%
%ADD29RoundRect,0.150000X0.150000X-0.512500X0.150000X0.512500X-0.150000X0.512500X-0.150000X-0.512500X0*%
%TD*%
%TA.AperFunction,SMDPad,CuDef*%
%ADD30RoundRect,0.150000X-0.425000X0.150000X-0.425000X-0.150000X0.425000X-0.150000X0.425000X0.150000X0*%
%TD*%
%TA.AperFunction,SMDPad,CuDef*%
%ADD31RoundRect,0.075000X-0.500000X0.075000X-0.500000X-0.075000X0.500000X-0.075000X0.500000X0.075000X0*%
%TD*%
%TA.AperFunction,HeatsinkPad*%
%ADD32O,2.100000X1.000000*%
%TD*%
%TA.AperFunction,HeatsinkPad*%
%ADD33O,1.800000X1.000000*%
%TD*%
%TA.AperFunction,SMDPad,CuDef*%
%ADD34RoundRect,0.237500X0.300000X0.237500X-0.300000X0.237500X-0.300000X-0.237500X0.300000X-0.237500X0*%
%TD*%
%TA.AperFunction,SMDPad,CuDef*%
%ADD35RoundRect,0.250000X-0.325000X-0.450000X0.325000X-0.450000X0.325000X0.450000X-0.325000X0.450000X0*%
%TD*%
%TA.AperFunction,SMDPad,CuDef*%
%ADD36RoundRect,0.250000X0.325000X0.650000X-0.325000X0.650000X-0.325000X-0.650000X0.325000X-0.650000X0*%
%TD*%
%TA.AperFunction,HeatsinkPad*%
%ADD37R,3.450000X3.450000*%
%TD*%
%TA.AperFunction,SMDPad,CuDef*%
%ADD38RoundRect,0.062500X0.062500X0.375000X-0.062500X0.375000X-0.062500X-0.375000X0.062500X-0.375000X0*%
%TD*%
%TA.AperFunction,SMDPad,CuDef*%
%ADD39RoundRect,0.062500X0.375000X0.062500X-0.375000X0.062500X-0.375000X-0.062500X0.375000X-0.062500X0*%
%TD*%
%TA.AperFunction,SMDPad,CuDef*%
%ADD40RoundRect,0.250000X-0.650000X0.325000X-0.650000X-0.325000X0.650000X-0.325000X0.650000X0.325000X0*%
%TD*%
%TA.AperFunction,ComponentPad*%
%ADD41R,2.000000X2.000000*%
%TD*%
%TA.AperFunction,ComponentPad*%
%ADD42C,2.000000*%
%TD*%
%TA.AperFunction,ComponentPad*%
%ADD43R,3.200000X2.000000*%
%TD*%
%TA.AperFunction,ViaPad*%
%ADD44C,0.500000*%
%TD*%
%TA.AperFunction,Conductor*%
%ADD45C,0.300000*%
%TD*%
%TA.AperFunction,Conductor*%
%ADD46C,0.200000*%
%TD*%
G04 APERTURE END LIST*
D10*
%TO.P,TP6,1,1*%
%TO.N,LPUART_TX*%
X124410000Y-49580000D03*
%TD*%
%TO.P,TP5,1,1*%
%TO.N,LPUART_RX*%
X123530000Y-39810000D03*
%TD*%
%TO.P,TP4,1,1*%
%TO.N,usb_switch*%
X109090000Y-39340000D03*
%TD*%
%TO.P,TP3,1,1*%
%TO.N,Net-(U1-PA15)*%
X110590000Y-54890000D03*
%TD*%
%TO.P,TP2,1,1*%
%TO.N,USART1_RX*%
X108530000Y-54880000D03*
%TD*%
%TO.P,TP1,1,1*%
%TO.N,Net-(U1-PA9)*%
X107000000Y-39340000D03*
%TD*%
D11*
%TO.P,SW2,2,2*%
%TO.N,Net-(R10-Pad1)*%
X105880000Y-47000000D03*
%TO.P,SW2,1,1*%
%TO.N,GND*%
X100800000Y-47000000D03*
%TD*%
D12*
%TO.P,U6,1*%
%TO.N,Net-(C6-Pad1)*%
X116315000Y-51505000D03*
D13*
%TO.P,U6,2*%
%TO.N,enc_A*%
X115340000Y-52230000D03*
%TO.P,U6,3*%
%TO.N,Net-(C7-Pad1)*%
X115340000Y-52730000D03*
%TO.P,U6,4*%
%TO.N,enc_B*%
X115340000Y-53230000D03*
%TO.P,U6,5*%
%TO.N,Net-(C10-Pad1)*%
X115340000Y-53730000D03*
%TO.P,U6,6*%
%TO.N,BOOT0*%
X115340000Y-54230000D03*
D12*
%TO.P,U6,7,GND*%
%TO.N,GND*%
X116315000Y-54955000D03*
%TO.P,U6,8*%
%TO.N,pushbutton_A*%
X117815000Y-54955000D03*
D13*
%TO.P,U6,9*%
%TO.N,Net-(C8-Pad1)*%
X118790000Y-54230000D03*
%TO.P,U6,10*%
%TO.N,pushbutton_B*%
X118790000Y-53730000D03*
%TO.P,U6,11*%
%TO.N,Net-(C9-Pad1)*%
X118790000Y-53230000D03*
%TO.P,U6,12*%
%TO.N,unconnected-(U6-Pad12)*%
X118790000Y-52730000D03*
%TO.P,U6,13*%
%TO.N,GND*%
X118790000Y-52230000D03*
D12*
%TO.P,U6,14,3.3V*%
%TO.N,3V3*%
X117815000Y-51505000D03*
D14*
%TO.P,U6,15*%
%TO.N,N/C*%
X117065000Y-53230000D03*
%TD*%
D15*
%TO.P,C13,2*%
%TO.N,GND*%
X120380000Y-49775000D03*
%TO.P,C13,1*%
%TO.N,3V3*%
X120380000Y-51500000D03*
%TD*%
D16*
%TO.P,R13,1*%
%TO.N,Net-(R11-Pad1)*%
X115985000Y-40740000D03*
%TO.P,R13,2*%
%TO.N,Net-(C9-Pad1)*%
X117810000Y-40740000D03*
%TD*%
D17*
%TO.P,D2,1,K*%
%TO.N,5V*%
X95637500Y-47300000D03*
%TO.P,D2,2,A*%
%TO.N,GND*%
X94062500Y-47300000D03*
%TD*%
D16*
%TO.P,R6,1*%
%TO.N,Net-(R6-Pad1)*%
X128887500Y-42500000D03*
%TO.P,R6,2*%
%TO.N,3V3*%
X130712500Y-42500000D03*
%TD*%
D18*
%TO.P,C15,1*%
%TO.N,3V3*%
X103137500Y-51300000D03*
%TO.P,C15,2*%
%TO.N,GND*%
X104862500Y-51300000D03*
%TD*%
D19*
%TO.P,U2,1,1D+*%
%TO.N,USART1_TX*%
X104117400Y-49702445D03*
D20*
%TO.P,U2,2,1D-*%
%TO.N,USART1_RX*%
X104117400Y-49202444D03*
%TO.P,U2,3,2D+*%
%TO.N,/usb_mcu_P*%
X104117400Y-48702444D03*
D19*
%TO.P,U2,4,2D-*%
%TO.N,/usb_mcu_N*%
X104117400Y-48202443D03*
D21*
%TO.P,U2,5,GND*%
%TO.N,GND*%
X103390000Y-48000000D03*
D19*
%TO.P,U2,6,\u002AOE*%
X102662600Y-48202443D03*
D20*
%TO.P,U2,7,D-*%
%TO.N,/usb_N*%
X102662600Y-48702444D03*
%TO.P,U2,8,D+*%
%TO.N,/usb_P*%
X102662600Y-49202444D03*
D19*
%TO.P,U2,9,S*%
%TO.N,usb_switch*%
X102662600Y-49702445D03*
D21*
%TO.P,U2,10,VCC*%
%TO.N,3V3*%
X103390000Y-49904888D03*
%TD*%
D22*
%TO.P,D3,1,K*%
%TO.N,3V3*%
X110780000Y-41245000D03*
%TO.P,D3,2,A*%
%TO.N,USART1_RX*%
X110780000Y-42820000D03*
%TD*%
D18*
%TO.P,C10,1*%
%TO.N,Net-(C10-Pad1)*%
X132350000Y-42500000D03*
%TO.P,C10,2*%
%TO.N,GND*%
X134075000Y-42500000D03*
%TD*%
D23*
%TO.P,U3,1,VIN*%
%TO.N,5V*%
X94780000Y-53840000D03*
%TO.P,U3,2,GND*%
%TO.N,GND*%
X94780000Y-54490000D03*
%TO.P,U3,3,EN*%
%TO.N,5V*%
X94780000Y-55140000D03*
%TO.P,U3,4,NC*%
%TO.N,unconnected-(U3-NC-Pad4)*%
X96680000Y-55140000D03*
%TO.P,U3,5,VOUT*%
%TO.N,3V3*%
X96680000Y-53840000D03*
%TD*%
D24*
%TO.P,R11,1*%
%TO.N,Net-(R11-Pad1)*%
X117810000Y-39190000D03*
%TO.P,R11,2*%
%TO.N,3V3*%
X115985000Y-39190000D03*
%TD*%
D25*
%TO.P,C6,1*%
%TO.N,Net-(C6-Pad1)*%
X125750000Y-44420000D03*
%TO.P,C6,2*%
%TO.N,GND*%
X125750000Y-46145000D03*
%TD*%
D18*
%TO.P,C12,1*%
%TO.N,3V3*%
X116037500Y-49240000D03*
%TO.P,C12,2*%
%TO.N,GND*%
X117762500Y-49240000D03*
%TD*%
D24*
%TO.P,R1,1*%
%TO.N,Net-(R1-Pad1)*%
X130712500Y-40900000D03*
%TO.P,R1,2*%
%TO.N,3V3*%
X128887500Y-40900000D03*
%TD*%
D16*
%TO.P,R3,1*%
%TO.N,GND*%
X93937500Y-44150000D03*
%TO.P,R3,2*%
%TO.N,Net-(J1-CC2)*%
X95762500Y-44150000D03*
%TD*%
D24*
%TO.P,R5,1*%
%TO.N,NRST*%
X117850000Y-42370000D03*
%TO.P,R5,2*%
%TO.N,3V3*%
X116025000Y-42370000D03*
%TD*%
D15*
%TO.P,C11,2*%
%TO.N,GND*%
X108120000Y-43127500D03*
%TO.P,C11,1*%
%TO.N,3V3*%
X108120000Y-44852500D03*
%TD*%
D16*
%TO.P,R14,1*%
%TO.N,Net-(C10-Pad1)*%
X132287500Y-40900000D03*
%TO.P,R14,2*%
%TO.N,Net-(R1-Pad1)*%
X134112500Y-40900000D03*
%TD*%
D18*
%TO.P,C5,1*%
%TO.N,3V3*%
X116065000Y-44070000D03*
%TO.P,C5,2*%
%TO.N,GND*%
X117790000Y-44070000D03*
%TD*%
D26*
%TO.P,J8,1,NC*%
%TO.N,unconnected-(J8-NC-Pad1)*%
X140330000Y-45050000D03*
%TO.P,J8,2,NC*%
%TO.N,unconnected-(J8-NC-Pad2)*%
X140330000Y-48950000D03*
%TO.P,J8,3,VCC*%
%TO.N,3V3*%
X139060000Y-45050000D03*
%TO.P,J8,4,JTMS/SWDIO*%
%TO.N,SWDIO*%
X139060000Y-48950000D03*
%TO.P,J8,5,GND*%
%TO.N,GND*%
X137790000Y-45050000D03*
%TO.P,J8,6,JCLK/SWCLK*%
%TO.N,SWCLK*%
X137790000Y-48950000D03*
%TO.P,J8,7,GND*%
%TO.N,GND*%
X136520000Y-45050000D03*
%TO.P,J8,8,JTDO/SWO*%
%TO.N,unconnected-(J8-JTDO{slash}SWO-Pad8)*%
X136520000Y-48950000D03*
%TO.P,J8,9,JRCLK/NC*%
%TO.N,unconnected-(J8-JRCLK{slash}NC-Pad9)*%
X135250000Y-45050000D03*
%TO.P,J8,10,JTDI/NC*%
%TO.N,unconnected-(J8-JTDI{slash}NC-Pad10)*%
X135250000Y-48950000D03*
%TO.P,J8,11,GNDDetect*%
%TO.N,unconnected-(J8-GNDDetect-Pad11)*%
X133980000Y-45050000D03*
%TO.P,J8,12,~{RST}*%
%TO.N,NRST*%
X133980000Y-48950000D03*
%TO.P,J8,13,VCP_RX*%
%TO.N,unconnected-(J8-VCP_RX-Pad13)*%
X132710000Y-45050000D03*
%TO.P,J8,14,VCP_TX*%
%TO.N,unconnected-(J8-VCP_TX-Pad14)*%
X132710000Y-48950000D03*
%TD*%
D27*
%TO.P,R16,1*%
%TO.N,Net-(U4-Y)*%
X104450000Y-43197500D03*
%TO.P,R16,2*%
%TO.N,USART1_TX*%
X104450000Y-45022500D03*
%TD*%
%TO.P,R8,1*%
%TO.N,Net-(C6-Pad1)*%
X127300000Y-44370000D03*
%TO.P,R8,2*%
%TO.N,Net-(R7-Pad1)*%
X127300000Y-46195000D03*
%TD*%
D28*
%TO.P,R18,1*%
%TO.N,3V3*%
X102930000Y-54620000D03*
%TO.P,R18,2*%
%TO.N,usb_switch*%
X102930000Y-52795000D03*
%TD*%
D16*
%TO.P,R4,1*%
%TO.N,LED*%
X106575000Y-51300000D03*
%TO.P,R4,2*%
%TO.N,Net-(D1-A)*%
X108400000Y-51300000D03*
%TD*%
D24*
%TO.P,R10,2*%
%TO.N,3V3*%
X97185000Y-39080000D03*
%TO.P,R10,1*%
%TO.N,Net-(R10-Pad1)*%
X99010000Y-39080000D03*
%TD*%
D29*
%TO.P,U4,1,NC*%
%TO.N,unconnected-(U4-NC-Pad1)*%
X100730000Y-44795000D03*
%TO.P,U4,2,A*%
%TO.N,Net-(U1-PA9)*%
X101680000Y-44795000D03*
%TO.P,U4,3,GND*%
%TO.N,GND*%
X102630000Y-44795000D03*
%TO.P,U4,4,Y*%
%TO.N,Net-(U4-Y)*%
X102630000Y-42520000D03*
%TO.P,U4,5,VCC*%
%TO.N,5V*%
X100730000Y-42520000D03*
%TD*%
D15*
%TO.P,C2,2*%
%TO.N,GND*%
X121980000Y-49775000D03*
%TO.P,C2,1*%
%TO.N,NRST*%
X121980000Y-51500000D03*
%TD*%
D30*
%TO.P,J1,A1,GND*%
%TO.N,GND*%
X98430000Y-43800000D03*
%TO.P,J1,A4,VBUS*%
%TO.N,5V*%
X98430000Y-44600000D03*
D31*
%TO.P,J1,A5,CC1*%
%TO.N,Net-(J1-CC1)*%
X98430000Y-45750000D03*
%TO.P,J1,A6,D+*%
%TO.N,/usb_P*%
X98430000Y-46750000D03*
%TO.P,J1,A7,D-*%
%TO.N,/usb_N*%
X98430000Y-47250000D03*
%TO.P,J1,A8,SBU1*%
%TO.N,unconnected-(J1-SBU1-PadA8)*%
X98430000Y-48250000D03*
D30*
%TO.P,J1,A9,VBUS*%
%TO.N,5V*%
X98430000Y-49400000D03*
%TO.P,J1,A12,GND*%
%TO.N,GND*%
X98430000Y-50200000D03*
%TO.P,J1,B1,GND*%
X98430000Y-50200000D03*
%TO.P,J1,B4,VBUS*%
%TO.N,5V*%
X98430000Y-49400000D03*
D31*
%TO.P,J1,B5,CC2*%
%TO.N,Net-(J1-CC2)*%
X98430000Y-48750000D03*
%TO.P,J1,B6,D+*%
%TO.N,/usb_P*%
X98430000Y-47750000D03*
%TO.P,J1,B7,D-*%
%TO.N,/usb_N*%
X98430000Y-46250000D03*
%TO.P,J1,B8,SBU2*%
%TO.N,unconnected-(J1-SBU2-PadB8)*%
X98430000Y-45250000D03*
D30*
%TO.P,J1,B9,VBUS*%
%TO.N,5V*%
X98430000Y-44600000D03*
%TO.P,J1,B12,GND*%
%TO.N,GND*%
X98430000Y-43800000D03*
D32*
%TO.P,J1,S1,SHIELD*%
X97855000Y-42680000D03*
D33*
X93675000Y-42680000D03*
D32*
X97855000Y-51320000D03*
D33*
X93675000Y-51320000D03*
%TD*%
D34*
%TO.P,C16,1*%
%TO.N,5V*%
X98960000Y-40740000D03*
%TO.P,C16,2*%
%TO.N,GND*%
X97235000Y-40740000D03*
%TD*%
D35*
%TO.P,D1,1,K*%
%TO.N,GND*%
X104590000Y-54830000D03*
%TO.P,D1,2,A*%
%TO.N,Net-(D1-A)*%
X106640000Y-54830000D03*
%TD*%
D18*
%TO.P,C9,1*%
%TO.N,Net-(C9-Pad1)*%
X119435000Y-39190000D03*
%TO.P,C9,2*%
%TO.N,GND*%
X121160000Y-39190000D03*
%TD*%
D27*
%TO.P,R7,1*%
%TO.N,Net-(R7-Pad1)*%
X127660000Y-49990000D03*
%TO.P,R7,2*%
%TO.N,3V3*%
X127660000Y-51815000D03*
%TD*%
D25*
%TO.P,C4,1*%
%TO.N,3V3*%
X98250000Y-53237500D03*
%TO.P,C4,2*%
%TO.N,GND*%
X98250000Y-54962500D03*
%TD*%
D36*
%TO.P,C1,1*%
%TO.N,5V*%
X95775000Y-49300000D03*
%TO.P,C1,2*%
%TO.N,GND*%
X92825000Y-49300000D03*
%TD*%
D18*
%TO.P,C8,1*%
%TO.N,Net-(C8-Pad1)*%
X100830000Y-39080000D03*
%TO.P,C8,2*%
%TO.N,GND*%
X102555000Y-39080000D03*
%TD*%
D16*
%TO.P,R12,1*%
%TO.N,Net-(R10-Pad1)*%
X100815000Y-40760000D03*
%TO.P,R12,2*%
%TO.N,Net-(C8-Pad1)*%
X102640000Y-40760000D03*
%TD*%
D25*
%TO.P,C3,1*%
%TO.N,5V*%
X93170000Y-53277500D03*
%TO.P,C3,2*%
%TO.N,GND*%
X93170000Y-55002500D03*
%TD*%
D16*
%TO.P,R2,1*%
%TO.N,GND*%
X93937500Y-45700000D03*
%TO.P,R2,2*%
%TO.N,Net-(J1-CC1)*%
X95762500Y-45700000D03*
%TD*%
D37*
%TO.P,U1,33,VSS*%
%TO.N,GND*%
X112000000Y-47000000D03*
D38*
%TO.P,U1,32,VSS*%
X113750000Y-49437500D03*
%TO.P,U1,31,PH3*%
%TO.N,BOOT0*%
X113250000Y-49437500D03*
%TO.P,U1,30,PB7*%
%TO.N,PB7*%
X112750000Y-49437500D03*
%TO.P,U1,29,PB6*%
%TO.N,PB6*%
X112250000Y-49437500D03*
%TO.P,U1,28,PB5*%
%TO.N,PB5*%
X111750000Y-49437500D03*
%TO.P,U1,27,PB4*%
%TO.N,PB4*%
X111250000Y-49437500D03*
%TO.P,U1,26,PB3*%
%TO.N,PB3*%
X110750000Y-49437500D03*
%TO.P,U1,25,PA15*%
%TO.N,Net-(U1-PA15)*%
X110250000Y-49437500D03*
D39*
%TO.P,U1,24,PA14*%
%TO.N,SWCLK*%
X109562500Y-48750000D03*
%TO.P,U1,23,PA13*%
%TO.N,SWDIO*%
X109562500Y-48250000D03*
%TO.P,U1,22,PA12*%
%TO.N,/usb_mcu_P*%
X109562500Y-47750000D03*
%TO.P,U1,21,PA11*%
%TO.N,/usb_mcu_N*%
X109562500Y-47250000D03*
%TO.P,U1,20,PA10*%
%TO.N,USART1_RX*%
X109562500Y-46750000D03*
%TO.P,U1,19,PA9*%
%TO.N,Net-(U1-PA9)*%
X109562500Y-46250000D03*
%TO.P,U1,18,PA8*%
%TO.N,LED*%
X109562500Y-45750000D03*
%TO.P,U1,17,VDD*%
%TO.N,3V3*%
X109562500Y-45250000D03*
D38*
%TO.P,U1,16,VSS*%
%TO.N,GND*%
X110250000Y-44562500D03*
%TO.P,U1,15,PB1*%
%TO.N,PB1*%
X110750000Y-44562500D03*
%TO.P,U1,14,PB0*%
%TO.N,PB0*%
X111250000Y-44562500D03*
%TO.P,U1,13,PA7*%
%TO.N,usb_switch*%
X111750000Y-44562500D03*
%TO.P,U1,12,PA6*%
%TO.N,pushbutton_B*%
X112250000Y-44562500D03*
%TO.P,U1,11,PA5*%
%TO.N,pushbutton_A*%
X112750000Y-44562500D03*
%TO.P,U1,10,PA4*%
%TO.N,BOOT0*%
X113250000Y-44562500D03*
%TO.P,U1,9,PA3*%
%TO.N,LPUART_RX*%
X113750000Y-44562500D03*
D39*
%TO.P,U1,8,PA2*%
%TO.N,LPUART_TX*%
X114437500Y-45250000D03*
%TO.P,U1,7,PA1*%
%TO.N,enc_A*%
X114437500Y-45750000D03*
%TO.P,U1,6,PA0*%
%TO.N,enc_B*%
X114437500Y-46250000D03*
%TO.P,U1,5,VDDA*%
%TO.N,3V3*%
X114437500Y-46750000D03*
%TO.P,U1,4,NRST*%
%TO.N,NRST*%
X114437500Y-47250000D03*
%TO.P,U1,3,PC15*%
%TO.N,unconnected-(U1-PC15-Pad3)*%
X114437500Y-47750000D03*
%TO.P,U1,2,PC14*%
%TO.N,unconnected-(U1-PC14-Pad2)*%
X114437500Y-48250000D03*
%TO.P,U1,1,VDD*%
%TO.N,3V3*%
X114437500Y-48750000D03*
%TD*%
D40*
%TO.P,C14,1*%
%TO.N,3V3*%
X100750000Y-51975000D03*
%TO.P,C14,2*%
%TO.N,GND*%
X100750000Y-54925000D03*
%TD*%
D16*
%TO.P,R9,1*%
%TO.N,Net-(C7-Pad1)*%
X125487500Y-42500000D03*
%TO.P,R9,2*%
%TO.N,Net-(R6-Pad1)*%
X127312500Y-42500000D03*
%TD*%
D18*
%TO.P,C7,1*%
%TO.N,Net-(C7-Pad1)*%
X125537500Y-40900000D03*
%TO.P,C7,2*%
%TO.N,GND*%
X127262500Y-40900000D03*
%TD*%
D41*
%TO.P,SW1,A,A*%
%TO.N,Net-(R7-Pad1)*%
X129680000Y-49500000D03*
D42*
%TO.P,SW1,B,B*%
%TO.N,Net-(R6-Pad1)*%
X129680000Y-44500000D03*
%TO.P,SW1,C,C*%
%TO.N,GND*%
X129680000Y-47000000D03*
D43*
%TO.P,SW1,MP*%
%TO.N,N/C*%
X137180000Y-41400000D03*
X137180000Y-52600000D03*
D42*
%TO.P,SW1,S1,S1*%
%TO.N,Net-(R1-Pad1)*%
X144180000Y-44500000D03*
%TO.P,SW1,S2,S2*%
%TO.N,GND*%
X144180000Y-49500000D03*
%TD*%
D11*
%TO.P,SW3,1,1*%
%TO.N,Net-(R11-Pad1)*%
X117833733Y-46990000D03*
%TO.P,SW3,2,2*%
%TO.N,GND*%
X122913733Y-46990000D03*
%TD*%
D44*
%TO.N,LPUART_TX*%
X118830000Y-42480000D03*
X115260000Y-44950000D03*
X124580000Y-47460000D03*
X121790000Y-44010000D03*
%TO.N,LPUART_RX*%
X115210000Y-41590000D03*
X122190000Y-40650000D03*
%TO.N,3V3*%
X116065000Y-43190000D03*
%TO.N,usb_switch*%
X110110000Y-39370000D03*
%TO.N,Net-(U1-PA15)*%
X110540000Y-50670000D03*
X110460000Y-53320000D03*
%TO.N,GND*%
X114090000Y-50320000D03*
%TO.N,3V3*%
X116590000Y-49780000D03*
%TO.N,Net-(J1-CC1)*%
X96488238Y-45607896D03*
X97260000Y-46410000D03*
%TO.N,GND*%
X112070000Y-46990000D03*
X110090000Y-43800000D03*
%TO.N,3V3*%
X120390000Y-52490000D03*
X117340000Y-51530000D03*
X100770000Y-50940000D03*
X113860000Y-41245000D03*
X107410000Y-43940000D03*
%TO.N,GND*%
X103680000Y-39080000D03*
%TO.N,3V3*%
X103804106Y-52105894D03*
%TO.N,GND*%
X114380000Y-54940000D03*
X118700000Y-51760000D03*
X125730000Y-47290000D03*
X116280000Y-48340000D03*
X117800000Y-45010000D03*
X121150000Y-39910000D03*
%TO.N,Net-(U1-PA9)*%
X101625000Y-43695000D03*
X105920000Y-45260000D03*
%TO.N,SWDIO*%
X108590000Y-48310000D03*
X109540000Y-41620000D03*
%TO.N,SWCLK*%
X109560000Y-51830000D03*
X109560000Y-49310000D03*
%TO.N,Net-(C10-Pad1)*%
X131850000Y-43490000D03*
X113890000Y-53600000D03*
%TO.N,Net-(C9-Pad1)*%
X118740000Y-40850000D03*
X121040000Y-48510000D03*
%TO.N,Net-(C8-Pad1)*%
X107350000Y-40760000D03*
X107810000Y-48470000D03*
%TO.N,pushbutton_B*%
X112130000Y-43460000D03*
X119770000Y-53810000D03*
%TO.N,pushbutton_A*%
X117190000Y-54680000D03*
X113210161Y-43124132D03*
%TO.N,BOOT0*%
X113420000Y-50290000D03*
X113530000Y-43690000D03*
%TO.N,NRST*%
X122020000Y-52750000D03*
X116310000Y-47550000D03*
%TO.N,enc_B*%
X115300000Y-46308514D03*
X115280000Y-50320000D03*
%TO.N,enc_A*%
X115330000Y-51820000D03*
X115180000Y-45660000D03*
%TO.N,USART1_RX*%
X106860000Y-45230000D03*
%TO.N,Net-(J1-CC2)*%
X99180000Y-48730000D03*
%TO.N,usb_switch*%
X111330000Y-43640000D03*
X104240000Y-52800000D03*
%TO.N,LED*%
X106560000Y-50450000D03*
X107400000Y-45650000D03*
%TO.N,USART1_TX*%
X104280000Y-47250000D03*
X104110000Y-50140000D03*
%TO.N,USART1_RX*%
X107440000Y-46770000D03*
X104830000Y-49290000D03*
%TO.N,3V3*%
X99470000Y-51980000D03*
X100760000Y-52910000D03*
X128540000Y-41620000D03*
X97815000Y-39470000D03*
X95960000Y-53850000D03*
X131270000Y-41920000D03*
X127660000Y-53000000D03*
X99040000Y-53240000D03*
X139070000Y-46620000D03*
%TO.N,GND*%
X99450000Y-54950000D03*
X95610000Y-54530000D03*
X102010000Y-54940000D03*
X127270000Y-40140000D03*
X137860000Y-43420000D03*
X93080000Y-45670000D03*
X92200000Y-54970000D03*
X99290000Y-50160000D03*
X92810000Y-47850000D03*
X93140000Y-47290000D03*
X97460000Y-54940000D03*
X136570000Y-43450000D03*
X99260000Y-43770000D03*
X104610000Y-53430000D03*
X93060000Y-44160000D03*
X134970000Y-42510000D03*
%TO.N,Net-(J1-CC2)*%
X96690000Y-44990000D03*
%TD*%
D45*
%TO.N,SWCLK*%
X109560000Y-51830000D02*
X109770000Y-51830000D01*
X114032000Y-56092000D02*
X126578000Y-56092000D01*
X126578000Y-56092000D02*
X131351000Y-51319000D01*
X109770000Y-51830000D02*
X114032000Y-56092000D01*
X131351000Y-51319000D02*
X136283000Y-51319000D01*
X136283000Y-51319000D02*
X137790000Y-49812000D01*
%TO.N,NRST*%
X133980000Y-49780000D02*
X132950000Y-50810000D01*
X132950000Y-50810000D02*
X122670000Y-50810000D01*
X122670000Y-50810000D02*
X121980000Y-51500000D01*
%TO.N,Net-(C8-Pad1)*%
X107350000Y-40760000D02*
X107241000Y-40869000D01*
X107241000Y-40869000D02*
X102749000Y-40869000D01*
X102749000Y-40869000D02*
X102640000Y-40760000D01*
%TO.N,BOOT0*%
X115340000Y-54230000D02*
X113389052Y-54230000D01*
X112956516Y-50156000D02*
X113156000Y-49956516D01*
X113250000Y-49860000D02*
X113250000Y-49437500D01*
X111480000Y-52320948D02*
X111480000Y-51630000D01*
X112954000Y-50156000D02*
X112956516Y-50156000D01*
X113156000Y-49954000D02*
X113250000Y-49860000D01*
X113389052Y-54230000D02*
X111480000Y-52320948D01*
X111480000Y-51630000D02*
X112954000Y-50156000D01*
X113156000Y-49956516D02*
X113156000Y-49954000D01*
%TO.N,Net-(C8-Pad1)*%
X107810000Y-48470000D02*
X107810000Y-49260474D01*
X118790000Y-55107000D02*
X118790000Y-54230000D01*
X107810000Y-49260474D02*
X114210526Y-55661000D01*
X118236000Y-55661000D02*
X118790000Y-55107000D01*
X114210526Y-55661000D02*
X118236000Y-55661000D01*
%TO.N,LPUART_TX*%
X118830000Y-42480000D02*
X120230000Y-42480000D01*
X120230000Y-42480000D02*
X121760000Y-44010000D01*
X121760000Y-44010000D02*
X121790000Y-44010000D01*
X124580000Y-47460000D02*
X124580000Y-49410000D01*
X114437500Y-45250000D02*
X114737500Y-44950000D01*
X114737500Y-44950000D02*
X115260000Y-44950000D01*
X124580000Y-49410000D02*
X124410000Y-49580000D01*
%TO.N,LPUART_RX*%
X113750000Y-44562500D02*
X115210000Y-43102500D01*
X115210000Y-43102500D02*
X115210000Y-41590000D01*
X122190000Y-40650000D02*
X122690000Y-40650000D01*
X122690000Y-40650000D02*
X123530000Y-39810000D01*
%TO.N,3V3*%
X116065000Y-44070000D02*
X116065000Y-43190000D01*
X116025000Y-42370000D02*
X116025000Y-43150000D01*
X116025000Y-43150000D02*
X116065000Y-43190000D01*
%TO.N,usb_switch*%
X110080000Y-39340000D02*
X110110000Y-39370000D01*
X109090000Y-39340000D02*
X110080000Y-39340000D01*
%TO.N,Net-(U1-PA9)*%
X107000000Y-39340000D02*
X107901000Y-40241000D01*
X107901000Y-40241000D02*
X107901000Y-41459474D01*
X107901000Y-41459474D02*
X105920000Y-43440474D01*
X105920000Y-43440474D02*
X105920000Y-45260000D01*
%TO.N,USART1_RX*%
X110780000Y-42820000D02*
X110219000Y-42259000D01*
X106859000Y-43711768D02*
X106859000Y-44168232D01*
X107244000Y-43389000D02*
X107181768Y-43389000D01*
X110219000Y-42259000D02*
X107711000Y-42259000D01*
X107711000Y-42259000D02*
X107244000Y-42726000D01*
X107244000Y-42726000D02*
X107244000Y-43389000D01*
X107181768Y-43389000D02*
X106859000Y-43711768D01*
X106859000Y-44168232D02*
X106860000Y-44169232D01*
X106860000Y-44169232D02*
X106860000Y-45230000D01*
%TO.N,GND*%
X110250000Y-44562500D02*
X109485000Y-44562500D01*
X109485000Y-44562500D02*
X108120000Y-43197500D01*
X108120000Y-43197500D02*
X108120000Y-43127500D01*
%TO.N,3V3*%
X109562500Y-45250000D02*
X108447500Y-45250000D01*
X108447500Y-45250000D02*
X108120000Y-44922500D01*
X108120000Y-44922500D02*
X108120000Y-44852500D01*
%TO.N,Net-(U1-PA15)*%
X110590000Y-54890000D02*
X110590000Y-53450000D01*
X110590000Y-53450000D02*
X110460000Y-53320000D01*
X110250000Y-50380000D02*
X110250000Y-49437500D01*
X110540000Y-50670000D02*
X110250000Y-50380000D01*
%TO.N,USART1_RX*%
X104830000Y-49290000D02*
X105681000Y-50141000D01*
X105681000Y-50141000D02*
X105681000Y-55403874D01*
X105681000Y-55403874D02*
X106088126Y-55811000D01*
X107599000Y-55811000D02*
X108530000Y-54880000D01*
X106088126Y-55811000D02*
X107599000Y-55811000D01*
%TO.N,GND*%
X104610000Y-53430000D02*
X104862500Y-53177500D01*
X104862500Y-53177500D02*
X104862500Y-51300000D01*
X104590000Y-54830000D02*
X104590000Y-53450000D01*
X104590000Y-53450000D02*
X104610000Y-53430000D01*
%TO.N,Net-(D1-A)*%
X106640000Y-54830000D02*
X106640000Y-53060000D01*
X106640000Y-53060000D02*
X108400000Y-51300000D01*
%TO.N,NRST*%
X114437500Y-47250000D02*
X114487500Y-47300000D01*
X116060000Y-47300000D02*
X116310000Y-47550000D01*
X114487500Y-47300000D02*
X116060000Y-47300000D01*
%TO.N,3V3*%
X114437500Y-46750000D02*
X114962254Y-46750000D01*
X115730486Y-46859514D02*
X116065000Y-46525000D01*
X114962254Y-46750000D02*
X115071768Y-46859514D01*
X115071768Y-46859514D02*
X115730486Y-46859514D01*
X116065000Y-46525000D02*
X116065000Y-44070000D01*
%TO.N,NRST*%
X119214733Y-47562029D02*
X119214733Y-43734733D01*
X116310000Y-47550000D02*
X117131000Y-48371000D01*
X117131000Y-48371000D02*
X118405762Y-48371000D01*
X118405762Y-48371000D02*
X119214733Y-47562029D01*
X119214733Y-43734733D02*
X117850000Y-42370000D01*
%TO.N,Net-(C10-Pad1)*%
X113890000Y-53600000D02*
X114020000Y-53730000D01*
X114020000Y-53730000D02*
X115340000Y-53730000D01*
%TO.N,enc_B*%
X115136033Y-46308514D02*
X115077519Y-46250000D01*
X115300000Y-46308514D02*
X115136033Y-46308514D01*
X115077519Y-46250000D02*
X114437500Y-46250000D01*
%TO.N,GND*%
X114090000Y-49777500D02*
X114090000Y-50320000D01*
X113750000Y-49437500D02*
X114090000Y-49777500D01*
%TO.N,3V3*%
X116050000Y-49240000D02*
X116590000Y-49780000D01*
%TO.N,BOOT0*%
X113420000Y-50290000D02*
X113250000Y-50120000D01*
X113250000Y-50120000D02*
X113250000Y-49437500D01*
%TO.N,Net-(C7-Pad1)*%
X114634000Y-52651000D02*
X114634000Y-51736768D01*
X115340000Y-52730000D02*
X114713000Y-52730000D01*
X115599232Y-50780000D02*
X116430474Y-50780000D01*
X115499768Y-50871000D02*
X115508232Y-50871000D01*
X115508232Y-50871000D02*
X115599232Y-50780000D01*
X114634000Y-51736768D02*
X115499768Y-50871000D01*
X116430474Y-50780000D02*
X117214474Y-49996000D01*
X117214474Y-49996000D02*
X118283852Y-49996000D01*
X120490000Y-46380000D02*
X124370000Y-42500000D01*
X118581000Y-49698852D02*
X118581000Y-48839000D01*
X118283852Y-49996000D02*
X118581000Y-49698852D01*
X114713000Y-52730000D02*
X114634000Y-52651000D01*
X120490000Y-46930000D02*
X120490000Y-46380000D01*
X118581000Y-48839000D02*
X120490000Y-46930000D01*
X124370000Y-42500000D02*
X125487500Y-42500000D01*
%TO.N,3V3*%
X114437500Y-48750000D02*
X115547500Y-48750000D01*
X115547500Y-48750000D02*
X116037500Y-49240000D01*
%TO.N,GND*%
X98430000Y-43800000D02*
X98430000Y-43255000D01*
X98430000Y-43255000D02*
X97855000Y-42680000D01*
X98430000Y-50200000D02*
X98430000Y-50745000D01*
X98430000Y-50745000D02*
X97855000Y-51320000D01*
%TO.N,5V*%
X98430000Y-49400000D02*
X97970000Y-49400000D01*
X97970000Y-49400000D02*
X97734000Y-49164000D01*
X97734000Y-49164000D02*
X95911000Y-49164000D01*
%TO.N,Net-(J1-CC1)*%
X96488238Y-45607896D02*
X95854604Y-45607896D01*
%TO.N,5V*%
X96709000Y-46181768D02*
X96709000Y-46228500D01*
X98337500Y-44600000D02*
X98118500Y-44819000D01*
X98118500Y-44819000D02*
X97780462Y-44819000D01*
X97780462Y-44819000D02*
X97574000Y-45025462D01*
X97574000Y-45363500D02*
X97078500Y-45859000D01*
X97031768Y-45859000D02*
X96709000Y-46181768D01*
X97574000Y-45025462D02*
X97574000Y-45363500D01*
X97078500Y-45859000D02*
X97031768Y-45859000D01*
X96709000Y-46228500D02*
X95637500Y-47300000D01*
%TO.N,Net-(J1-CC1)*%
X97260000Y-46339462D02*
X97260000Y-46410000D01*
X97849462Y-45750000D02*
X97260000Y-46339462D01*
X98430000Y-45750000D02*
X97849462Y-45750000D01*
%TO.N,Net-(J1-CC2)*%
X96690000Y-44990000D02*
X96000000Y-44300000D01*
%TO.N,GND*%
X110250000Y-43960000D02*
X110090000Y-43800000D01*
X110250000Y-44562500D02*
X110250000Y-43960000D01*
%TO.N,3V3*%
X120380000Y-52480000D02*
X120390000Y-52490000D01*
X120380000Y-51500000D02*
X120380000Y-52480000D01*
X117365000Y-51505000D02*
X117340000Y-51530000D01*
X117815000Y-51505000D02*
X117365000Y-51505000D01*
X100750000Y-50960000D02*
X100770000Y-50940000D01*
X100750000Y-51975000D02*
X100750000Y-50960000D01*
X103804106Y-52105894D02*
X103137500Y-51439287D01*
X113930000Y-41245000D02*
X113860000Y-41245000D01*
X108000000Y-44530000D02*
X107410000Y-43940000D01*
X116065000Y-43190000D02*
X116065000Y-42410000D01*
X110780000Y-41245000D02*
X113860000Y-41245000D01*
X113930000Y-41245000D02*
X115985000Y-39190000D01*
%TO.N,GND*%
X102555000Y-39080000D02*
X103680000Y-39080000D01*
X97235000Y-40740000D02*
X97235000Y-42060000D01*
X97235000Y-42060000D02*
X97855000Y-42680000D01*
X102662600Y-48202443D02*
X102002443Y-48202443D01*
X102002443Y-48202443D02*
X100800000Y-47000000D01*
X103390000Y-48000000D02*
X102865043Y-48000000D01*
X102865043Y-48000000D02*
X102662600Y-48202443D01*
X100800000Y-47000000D02*
X102630000Y-45170000D01*
%TO.N,usb_switch*%
X104240000Y-52800000D02*
X103440000Y-52800000D01*
X103440000Y-52800000D02*
X103435000Y-52795000D01*
X103435000Y-52795000D02*
X102930000Y-52795000D01*
%TO.N,3V3*%
X102930000Y-54620000D02*
X102470000Y-54620000D01*
X102470000Y-54620000D02*
X100760000Y-52910000D01*
%TO.N,GND*%
X114395000Y-54955000D02*
X114380000Y-54940000D01*
X116315000Y-54955000D02*
X114395000Y-54955000D01*
X118790000Y-51850000D02*
X118700000Y-51760000D01*
X118790000Y-52230000D02*
X118790000Y-51850000D01*
X125750000Y-47270000D02*
X125730000Y-47290000D01*
X125750000Y-46145000D02*
X125750000Y-47270000D01*
X122913733Y-46990000D02*
X122913733Y-48841267D01*
X122913733Y-48841267D02*
X121980000Y-49775000D01*
X121980000Y-49775000D02*
X120380000Y-49775000D01*
X116414852Y-48340000D02*
X116280000Y-48340000D01*
X117314852Y-49240000D02*
X116414852Y-48340000D01*
X117762500Y-49240000D02*
X117314852Y-49240000D01*
X125750000Y-46145000D02*
X123758733Y-46145000D01*
X123758733Y-46145000D02*
X122913733Y-46990000D01*
X117790000Y-45000000D02*
X117800000Y-45010000D01*
X117790000Y-44070000D02*
X117790000Y-45000000D01*
X121160000Y-39900000D02*
X121150000Y-39910000D01*
X121160000Y-39190000D02*
X121160000Y-39900000D01*
%TO.N,Net-(C9-Pad1)*%
X117810000Y-40740000D02*
X118630000Y-40740000D01*
X118630000Y-40740000D02*
X118740000Y-40850000D01*
%TO.N,Net-(C6-Pad1)*%
X118462378Y-50427000D02*
X119012000Y-49877378D01*
X120921000Y-46558526D02*
X123059526Y-44420000D01*
X119012000Y-49017526D02*
X120921000Y-47108526D01*
X117393000Y-50427000D02*
X118462378Y-50427000D01*
X116315000Y-51505000D02*
X117393000Y-50427000D01*
X119012000Y-49877378D02*
X119012000Y-49017526D01*
X120921000Y-47108526D02*
X120921000Y-46558526D01*
X123059526Y-44420000D02*
X125750000Y-44420000D01*
%TO.N,5V*%
X95775000Y-49300000D02*
X94536000Y-50539000D01*
X94536000Y-50539000D02*
X92951499Y-50539000D01*
X92951499Y-50539000D02*
X92494000Y-50996499D01*
X92494000Y-50996499D02*
X92494000Y-52601500D01*
X92494000Y-52601500D02*
X93170000Y-53277500D01*
X94780000Y-55140000D02*
X94390000Y-55140000D01*
X94390000Y-55140000D02*
X93926000Y-54676000D01*
X93926000Y-54676000D02*
X93926000Y-54033500D01*
X93926000Y-54033500D02*
X93170000Y-53277500D01*
%TO.N,GND*%
X92200000Y-54970000D02*
X93137500Y-54970000D01*
%TO.N,5V*%
X94780000Y-53840000D02*
X93732500Y-53840000D01*
X93732500Y-53840000D02*
X93170000Y-53277500D01*
%TO.N,Net-(U1-PA9)*%
X101680000Y-44795000D02*
X101680000Y-43750000D01*
X101680000Y-43750000D02*
X101625000Y-43695000D01*
X109562500Y-46250000D02*
X109531500Y-46219000D01*
X106093029Y-45260000D02*
X105920000Y-45260000D01*
X109531500Y-46219000D02*
X107052029Y-46219000D01*
X107052029Y-46219000D02*
X106093029Y-45260000D01*
%TO.N,Net-(R10-Pad1)*%
X100815000Y-40760000D02*
X102049000Y-41994000D01*
X102049000Y-41994000D02*
X102049000Y-43215182D01*
X102049000Y-43215182D02*
X102297318Y-43463500D01*
X104754852Y-44100000D02*
X105206000Y-44551148D01*
X103200648Y-43463500D02*
X103837148Y-44100000D01*
X105206000Y-44576000D02*
X105280000Y-44650000D01*
X105280000Y-44650000D02*
X105280000Y-46400000D01*
X102297318Y-43463500D02*
X103200648Y-43463500D01*
X103837148Y-44100000D02*
X104754852Y-44100000D01*
X105206000Y-44551148D02*
X105206000Y-44576000D01*
%TO.N,Net-(C8-Pad1)*%
X100960000Y-39080000D02*
X102640000Y-40760000D01*
%TO.N,Net-(U4-Y)*%
X102630000Y-42520000D02*
X103772500Y-42520000D01*
X103772500Y-42520000D02*
X104450000Y-43197500D01*
%TO.N,5V*%
X98430000Y-44600000D02*
X99209232Y-44600000D01*
X99209232Y-44600000D02*
X100730000Y-43079232D01*
X100730000Y-43079232D02*
X100730000Y-42520000D01*
X98960000Y-40750000D02*
X100730000Y-42520000D01*
%TO.N,Net-(R10-Pad1)*%
X99135000Y-39080000D02*
X100815000Y-40760000D01*
%TO.N,USART1_TX*%
X104280000Y-47250000D02*
X104190000Y-47250000D01*
X104450000Y-46990000D02*
X104450000Y-45022500D01*
X104190000Y-47250000D02*
X104450000Y-46990000D01*
%TO.N,Net-(C10-Pad1)*%
X132287500Y-40900000D02*
X132287500Y-42437500D01*
%TO.N,Net-(R1-Pad1)*%
X130712500Y-40900000D02*
X131468500Y-40144000D01*
X133356500Y-40144000D02*
X134112500Y-40900000D01*
X131468500Y-40144000D02*
X133356500Y-40144000D01*
%TO.N,Net-(R7-Pad1)*%
X129680000Y-49500000D02*
X128150000Y-49500000D01*
X128150000Y-49500000D02*
X127660000Y-49990000D01*
X127660000Y-49990000D02*
X127660000Y-46555000D01*
X127660000Y-46555000D02*
X127300000Y-46195000D01*
%TO.N,Net-(R11-Pad1)*%
X115985000Y-40740000D02*
X116971500Y-41726500D01*
X116971500Y-41726500D02*
X116971500Y-46127767D01*
X116971500Y-46127767D02*
X117833733Y-46990000D01*
%TO.N,Net-(C9-Pad1)*%
X119435000Y-39190000D02*
X119435000Y-40155000D01*
X119435000Y-40155000D02*
X118740000Y-40850000D01*
%TO.N,Net-(R11-Pad1)*%
X116260000Y-40740000D02*
X117810000Y-39190000D01*
%TO.N,3V3*%
X127660000Y-53000000D02*
X127660000Y-51815000D01*
%TO.N,SWDIO*%
X139060000Y-47560000D02*
X138230000Y-46730000D01*
X131183852Y-45655852D02*
X131183852Y-43256000D01*
X139060000Y-48950000D02*
X139060000Y-47560000D01*
X130241148Y-43256000D02*
X129944000Y-42958852D01*
X138021000Y-46531000D02*
X132059000Y-46531000D01*
X138230000Y-46730000D02*
X138220000Y-46730000D01*
X112403186Y-38434000D02*
X109581000Y-41256186D01*
X138220000Y-46730000D02*
X138021000Y-46531000D01*
X132059000Y-46531000D02*
X132059000Y-46520000D01*
X131183852Y-43256000D02*
X130241148Y-43256000D01*
X109581000Y-41579000D02*
X109540000Y-41620000D01*
X132059000Y-46520000D02*
X132048000Y-46520000D01*
X132048000Y-46520000D02*
X131183852Y-45655852D01*
X109581000Y-41256186D02*
X109581000Y-41579000D01*
X129944000Y-42958852D02*
X129944000Y-39106768D01*
X129944000Y-39106768D02*
X129271232Y-38434000D01*
X129271232Y-38434000D02*
X112403186Y-38434000D01*
%TO.N,GND*%
X137860000Y-43420000D02*
X137860000Y-44980000D01*
X136570000Y-43450000D02*
X136570000Y-45000000D01*
%TO.N,SWDIO*%
X108590000Y-48310000D02*
X109502500Y-48310000D01*
X109502500Y-48310000D02*
X109562500Y-48250000D01*
%TO.N,SWCLK*%
X109610000Y-48797500D02*
X109562500Y-48750000D01*
X109610000Y-49260000D02*
X109610000Y-48797500D01*
X109560000Y-49310000D02*
X109610000Y-49260000D01*
%TO.N,Net-(C9-Pad1)*%
X121040000Y-48510000D02*
X120593500Y-48956500D01*
X119496000Y-49381648D02*
X119496000Y-53151000D01*
X119496000Y-53151000D02*
X119417000Y-53230000D01*
X120593500Y-48956500D02*
X119921148Y-48956500D01*
X119921148Y-48956500D02*
X119496000Y-49381648D01*
X119417000Y-53230000D02*
X118790000Y-53230000D01*
%TO.N,Net-(C10-Pad1)*%
X131850000Y-43000000D02*
X132350000Y-42500000D01*
X131850000Y-43490000D02*
X131850000Y-43000000D01*
%TO.N,pushbutton_A*%
X117540000Y-54680000D02*
X117815000Y-54955000D01*
X117190000Y-54680000D02*
X117540000Y-54680000D01*
%TO.N,pushbutton_B*%
X119770000Y-53810000D02*
X119690000Y-53730000D01*
X119690000Y-53730000D02*
X118790000Y-53730000D01*
X112250000Y-44562500D02*
X112250000Y-43580000D01*
X112250000Y-43580000D02*
X112130000Y-43460000D01*
%TO.N,pushbutton_A*%
X113210161Y-43124132D02*
X112750000Y-43584293D01*
X112750000Y-43584293D02*
X112750000Y-44562500D01*
%TO.N,usb_switch*%
X111330000Y-43640000D02*
X111750000Y-44060000D01*
X111750000Y-44060000D02*
X111750000Y-44562500D01*
%TO.N,BOOT0*%
X113530000Y-43690000D02*
X113509484Y-43690000D01*
X113509484Y-43690000D02*
X113250000Y-43949484D01*
X113250000Y-43949484D02*
X113250000Y-44562500D01*
%TO.N,NRST*%
X122020000Y-52750000D02*
X122020000Y-51540000D01*
%TO.N,enc_B*%
X115340000Y-53230000D02*
X114603474Y-53230000D01*
X114603474Y-53230000D02*
X114203000Y-52829526D01*
X114203000Y-51397000D02*
X115280000Y-50320000D01*
X114203000Y-52829526D02*
X114203000Y-51397000D01*
%TO.N,enc_A*%
X114437500Y-45750000D02*
X115090000Y-45750000D01*
X115090000Y-45750000D02*
X115180000Y-45660000D01*
X115330000Y-51820000D02*
X115330000Y-52220000D01*
X115330000Y-52220000D02*
X115340000Y-52230000D01*
%TO.N,Net-(J1-CC2)*%
X99160000Y-48750000D02*
X99180000Y-48730000D01*
X98430000Y-48750000D02*
X99160000Y-48750000D01*
%TO.N,usb_switch*%
X102930000Y-52795000D02*
X102319000Y-52184000D01*
X102319000Y-50046045D02*
X102662600Y-49702445D01*
X102319000Y-52184000D02*
X102319000Y-50046045D01*
%TO.N,3V3*%
X100760000Y-52910000D02*
X100760000Y-51985000D01*
%TO.N,LED*%
X109562500Y-45750000D02*
X107500000Y-45750000D01*
X107500000Y-45750000D02*
X107400000Y-45650000D01*
X106560000Y-50450000D02*
X106560000Y-51285000D01*
%TO.N,3V3*%
X103137500Y-51300000D02*
X103137500Y-50157388D01*
X103137500Y-50157388D02*
X103390000Y-49904888D01*
%TO.N,USART1_TX*%
X104117400Y-49702445D02*
X104117400Y-50132600D01*
X104117400Y-50132600D02*
X104110000Y-50140000D01*
%TO.N,USART1_RX*%
X104117400Y-49202444D02*
X104742444Y-49202444D01*
X104742444Y-49202444D02*
X104830000Y-49290000D01*
X107440000Y-46770000D02*
X109542500Y-46770000D01*
X109542500Y-46770000D02*
X109562500Y-46750000D01*
D46*
%TO.N,/usb_mcu_P*%
X106617707Y-48780980D02*
X106721244Y-48677443D01*
X104117400Y-48702444D02*
X104646038Y-48702444D01*
X104646038Y-48702444D02*
X104724574Y-48780980D01*
X104724574Y-48780980D02*
X106617707Y-48780980D01*
X108881249Y-47725000D02*
X108906249Y-47750000D01*
X106730755Y-48677443D02*
X107683198Y-47725000D01*
X107683198Y-47725000D02*
X108881249Y-47725000D01*
%TO.N,/usb_mcu_N*%
X104117400Y-48202443D02*
X104646038Y-48202443D01*
%TO.N,/usb_mcu_P*%
X106721244Y-48677443D02*
X106730755Y-48677443D01*
X108906249Y-47750000D02*
X109562500Y-47750000D01*
%TO.N,/usb_mcu_N*%
X108881249Y-47275000D02*
X108906249Y-47250000D01*
X104646038Y-48202443D02*
X104774595Y-48331000D01*
X104774595Y-48331000D02*
X106431319Y-48331000D01*
X106431319Y-48331000D02*
X106534875Y-48227444D01*
X106534875Y-48227444D02*
X106544358Y-48227444D01*
X106544358Y-48227444D02*
X107496802Y-47275000D01*
X107496802Y-47275000D02*
X108881249Y-47275000D01*
X108906249Y-47250000D02*
X109562500Y-47250000D01*
D45*
%TO.N,/usb_P*%
X98430000Y-46750000D02*
X97849462Y-46750000D01*
X97849462Y-46750000D02*
X97574000Y-47025462D01*
X97574000Y-47025462D02*
X97574000Y-47474538D01*
X97574000Y-47474538D02*
X97849462Y-47750000D01*
X97849462Y-47750000D02*
X98430000Y-47750000D01*
%TO.N,/usb_N*%
X98430000Y-47250000D02*
X99010538Y-47250000D01*
X99286000Y-46974538D02*
X99286000Y-46525462D01*
X99286000Y-46525462D02*
X99010538Y-46250000D01*
X99010538Y-47250000D02*
X99286000Y-46974538D01*
X99010538Y-46250000D02*
X98430000Y-46250000D01*
%TO.N,3V3*%
X97345000Y-39000000D02*
X97815000Y-39470000D01*
X139060000Y-46610000D02*
X139070000Y-46620000D01*
X128887500Y-41272500D02*
X128540000Y-41620000D01*
X139060000Y-45050000D02*
X139060000Y-46610000D01*
X100750000Y-51975000D02*
X99475000Y-51975000D01*
X96680000Y-53840000D02*
X95970000Y-53840000D01*
X130712500Y-42477500D02*
X131270000Y-41920000D01*
X128887500Y-40900000D02*
X128887500Y-41272500D01*
X99475000Y-51975000D02*
X99470000Y-51980000D01*
X98250000Y-53237500D02*
X99037500Y-53237500D01*
X95970000Y-53840000D02*
X95960000Y-53850000D01*
X99037500Y-53237500D02*
X99040000Y-53240000D01*
%TO.N,GND*%
X95570000Y-54490000D02*
X95610000Y-54530000D01*
X127262500Y-40147500D02*
X127270000Y-40140000D01*
X99475000Y-54925000D02*
X99450000Y-54950000D01*
X100750000Y-54925000D02*
X99475000Y-54925000D01*
X134960000Y-42500000D02*
X134970000Y-42510000D01*
X93150000Y-47300000D02*
X93140000Y-47290000D01*
X97482500Y-54962500D02*
X97460000Y-54940000D01*
X93937500Y-44150000D02*
X93070000Y-44150000D01*
X134075000Y-42500000D02*
X134960000Y-42500000D01*
X93937500Y-45700000D02*
X93110000Y-45700000D01*
X92825000Y-49300000D02*
X92825000Y-47865000D01*
X94062500Y-47300000D02*
X93150000Y-47300000D01*
X98250000Y-54962500D02*
X97482500Y-54962500D01*
X101995000Y-54925000D02*
X102010000Y-54940000D01*
X93070000Y-44150000D02*
X93060000Y-44160000D01*
X100750000Y-54925000D02*
X101995000Y-54925000D01*
X93110000Y-45700000D02*
X93080000Y-45670000D01*
X127262500Y-40900000D02*
X127262500Y-40147500D01*
X94780000Y-54490000D02*
X95570000Y-54490000D01*
X92825000Y-47865000D02*
X92810000Y-47850000D01*
%TO.N,5V*%
X95637500Y-47300000D02*
X95637500Y-49162500D01*
%TO.N,Net-(C6-Pad1)*%
X125750000Y-44420000D02*
X127250000Y-44420000D01*
%TO.N,Net-(C7-Pad1)*%
X125487500Y-42500000D02*
X125487500Y-40950000D01*
%TO.N,Net-(R1-Pad1)*%
X135412500Y-39600000D02*
X134112500Y-40900000D01*
X139280000Y-39600000D02*
X135412500Y-39600000D01*
X144180000Y-44500000D02*
X139280000Y-39600000D01*
%TO.N,Net-(R6-Pad1)*%
X127312500Y-42500000D02*
X128887500Y-42500000D01*
X128887500Y-43707500D02*
X129680000Y-44500000D01*
X128887500Y-42500000D02*
X128887500Y-43707500D01*
D46*
%TO.N,/usb_N*%
X102133962Y-48702444D02*
X102662600Y-48702444D01*
X102108962Y-48727444D02*
X102133962Y-48702444D01*
X98880000Y-47275000D02*
X99143198Y-47275000D01*
X100595642Y-48727444D02*
X102108962Y-48727444D01*
%TO.N,/usb_P*%
X102133962Y-49202444D02*
X102662600Y-49202444D01*
%TO.N,/usb_N*%
X99143198Y-47275000D02*
X100595642Y-48727444D01*
%TO.N,/usb_P*%
X98880000Y-47725000D02*
X98956802Y-47725000D01*
X102108962Y-49177444D02*
X102133962Y-49202444D01*
X100409246Y-49177444D02*
X102108962Y-49177444D01*
X98956802Y-47725000D02*
X100409246Y-49177444D01*
%TD*%
M02*
