%TF.GenerationSoftware,KiCad,Pcbnew,9.0.2*%
%TF.CreationDate,2025-07-12T05:54:42+02:00*%
%TF.ProjectId,synthmate_L432,73796e74-686d-4617-9465-5f4c3433322e,rev?*%
%TF.SameCoordinates,Original*%
%TF.FileFunction,Copper,L4,Bot*%
%TF.FilePolarity,Positive*%
%FSLAX46Y46*%
G04 Gerber Fmt 4.6, Leading zero omitted, Abs format (unit mm)*
G04 Created by KiCad (PCBNEW 9.0.2) date 2025-07-12 05:54:42*
%MOMM*%
%LPD*%
G01*
G04 APERTURE LIST*
G04 Aperture macros list*
%AMRoundRect*
0 Rectangle with rounded corners*
0 $1 Rounding radius*
0 $2 $3 $4 $5 $6 $7 $8 $9 X,Y pos of 4 corners*
0 Add a 4 corners polygon primitive as box body*
4,1,4,$2,$3,$4,$5,$6,$7,$8,$9,$2,$3,0*
0 Add four circle primitives for the rounded corners*
1,1,$1+$1,$2,$3*
1,1,$1+$1,$4,$5*
1,1,$1+$1,$6,$7*
1,1,$1+$1,$8,$9*
0 Add four rect primitives between the rounded corners*
20,1,$1+$1,$2,$3,$4,$5,0*
20,1,$1+$1,$4,$5,$6,$7,0*
20,1,$1+$1,$6,$7,$8,$9,0*
20,1,$1+$1,$8,$9,$2,$3,0*%
G04 Aperture macros list end*
%TA.AperFunction,ComponentPad*%
%ADD10R,1.700000X1.700000*%
%TD*%
%TA.AperFunction,ComponentPad*%
%ADD11C,1.700000*%
%TD*%
%TA.AperFunction,HeatsinkPad*%
%ADD12O,2.100000X1.000000*%
%TD*%
%TA.AperFunction,HeatsinkPad*%
%ADD13O,1.800000X1.000000*%
%TD*%
%TA.AperFunction,ComponentPad*%
%ADD14C,2.000000*%
%TD*%
%TA.AperFunction,ComponentPad*%
%ADD15R,3.200000X2.000000*%
%TD*%
%TA.AperFunction,ComponentPad*%
%ADD16R,2.000000X2.000000*%
%TD*%
%TA.AperFunction,SMDPad,CuDef*%
%ADD17RoundRect,0.150000X0.425000X-0.150000X0.425000X0.150000X-0.425000X0.150000X-0.425000X-0.150000X0*%
%TD*%
%TA.AperFunction,SMDPad,CuDef*%
%ADD18RoundRect,0.075000X0.500000X-0.075000X0.500000X0.075000X-0.500000X0.075000X-0.500000X-0.075000X0*%
%TD*%
%TA.AperFunction,ViaPad*%
%ADD19C,0.500000*%
%TD*%
%TA.AperFunction,Conductor*%
%ADD20C,0.300000*%
%TD*%
%TA.AperFunction,Conductor*%
%ADD21C,0.130000*%
%TD*%
G04 APERTURE END LIST*
D10*
%TO.P,J5,1,Pin_1*%
%TO.N,3V3*%
X130880000Y-57810000D03*
D11*
%TO.P,J5,2,Pin_2*%
%TO.N,GND*%
X128340000Y-57810000D03*
%TO.P,J5,3,Pin_3*%
%TO.N,PB7*%
X125800000Y-57810000D03*
%TO.P,J5,4,Pin_4*%
%TO.N,PB6*%
X123260000Y-57810000D03*
%TO.P,J5,5,Pin_5*%
%TO.N,PB5*%
X120720000Y-57810000D03*
%TO.P,J5,6,Pin_6*%
%TO.N,PB4*%
X118180000Y-57810000D03*
%TO.P,J5,7,Pin_7*%
%TO.N,PB3*%
X115640000Y-57810000D03*
%TO.P,J5,8,Pin_8*%
%TO.N,PA15*%
X113100000Y-57810000D03*
%TO.P,J5,9,Pin_9*%
%TO.N,PA7*%
X110560000Y-57810000D03*
%TO.P,J5,10,Pin_10*%
%TO.N,PB0*%
X108020000Y-57810000D03*
%TO.P,J5,11,Pin_11*%
%TO.N,PB1*%
X105480000Y-57810000D03*
%TO.P,J5,12,Pin_12*%
%TO.N,USART1_TX*%
X102940000Y-57810000D03*
%TO.P,J5,13,Pin_13*%
%TO.N,USART1_RX*%
X100400000Y-57810000D03*
%TO.P,J5,14,Pin_14*%
%TO.N,GND*%
X97860000Y-57810000D03*
%TO.P,J5,15,Pin_15*%
%TO.N,3V3*%
X95320000Y-57810000D03*
%TD*%
D10*
%TO.P,J7,1,Pin_1*%
%TO.N,adaptor_5V*%
X150590000Y-43260000D03*
D11*
%TO.P,J7,2,Pin_2*%
%TO.N,adaptor_LPUART_RX*%
X150590000Y-45800000D03*
%TO.P,J7,3,Pin_3*%
%TO.N,adaptor_LPUART_TX*%
X150590000Y-48340000D03*
%TO.P,J7,4,Pin_4*%
%TO.N,adaptor_GND*%
X150590000Y-50880000D03*
%TD*%
D12*
%TO.P,J3,S1,SHIELD*%
%TO.N,adaptor_GND*%
X158100000Y-51530000D03*
D13*
X162280000Y-51530000D03*
D12*
X158100000Y-42890000D03*
D13*
X162280000Y-42890000D03*
%TD*%
D14*
%TO.P,SW1,S2,S2*%
%TO.N,GND*%
X144180000Y-49500000D03*
%TO.P,SW1,S1,S1*%
%TO.N,Net-(R1-Pad1)*%
X144180000Y-44500000D03*
D15*
%TO.P,SW1,MP*%
%TO.N,N/C*%
X137180000Y-52600000D03*
X137180000Y-41400000D03*
D14*
%TO.P,SW1,C,C*%
%TO.N,GND*%
X129680000Y-47000000D03*
%TO.P,SW1,B,B*%
%TO.N,Net-(R6-Pad1)*%
X129680000Y-44500000D03*
D16*
%TO.P,SW1,A,A*%
%TO.N,Net-(R7-Pad1)*%
X129680000Y-49500000D03*
%TD*%
D10*
%TO.P,SW2,1,1*%
%TO.N,GND*%
X105180000Y-50250000D03*
D11*
X105180000Y-43750000D03*
%TO.P,SW2,2,2*%
%TO.N,Net-(R10-Pad1)*%
X100680000Y-50250000D03*
X100680000Y-43750000D03*
%TD*%
D10*
%TO.P,SW3,1,1*%
%TO.N,GND*%
X122180000Y-50250000D03*
D11*
X122180000Y-43750000D03*
%TO.P,SW3,2,2*%
%TO.N,Net-(R11-Pad1)*%
X117680000Y-50250000D03*
X117680000Y-43750000D03*
%TD*%
D17*
%TO.P,J1,A1,GND*%
%TO.N,GND*%
X98430000Y-50200000D03*
%TO.P,J1,A4,VBUS*%
%TO.N,5V*%
X98430000Y-49400000D03*
D18*
%TO.P,J1,A5,CC1*%
%TO.N,Net-(J1-CC1)*%
X98430000Y-48250000D03*
%TO.P,J1,A6,D+*%
%TO.N,USB_DP*%
X98430000Y-47250000D03*
%TO.P,J1,A7,D-*%
%TO.N,USB_DN*%
X98430000Y-46750000D03*
%TO.P,J1,A8,SBU1*%
%TO.N,LPUART_TX*%
X98430000Y-45750000D03*
D17*
%TO.P,J1,A9,VBUS*%
%TO.N,5V*%
X98430000Y-44600000D03*
%TO.P,J1,A12,GND*%
%TO.N,GND*%
X98430000Y-43800000D03*
%TO.P,J1,B1,GND*%
X98430000Y-43800000D03*
%TO.P,J1,B4,VBUS*%
%TO.N,5V*%
X98430000Y-44600000D03*
D18*
%TO.P,J1,B5,CC2*%
%TO.N,Net-(J1-CC2)*%
X98430000Y-45250000D03*
%TO.P,J1,B6,D+*%
%TO.N,USB_DP*%
X98430000Y-46250000D03*
%TO.P,J1,B7,D-*%
%TO.N,USB_DN*%
X98430000Y-47750000D03*
%TO.P,J1,B8,SBU2*%
%TO.N,LPUART_RX*%
X98430000Y-48750000D03*
D17*
%TO.P,J1,B9,VBUS*%
%TO.N,5V*%
X98430000Y-49400000D03*
%TO.P,J1,B12,GND*%
%TO.N,GND*%
X98430000Y-50200000D03*
D13*
%TO.P,J1,S1,SHIELD*%
X93675000Y-51320000D03*
D12*
X97855000Y-51320000D03*
D13*
X93675000Y-42680000D03*
D12*
X97855000Y-42680000D03*
%TD*%
D19*
%TO.N,3V3*%
X99470000Y-51980000D03*
X102090000Y-51990000D03*
X128540000Y-41620000D03*
X99350000Y-40120000D03*
X95980000Y-53360000D03*
X116390000Y-45000000D03*
X109710000Y-43750000D03*
X110750000Y-44990000D03*
X131270000Y-41920000D03*
X123040000Y-46280000D03*
X129780000Y-51570000D03*
X118020000Y-40080000D03*
X99040000Y-53240000D03*
X139070000Y-46620000D03*
X116500000Y-47000000D03*
X116370000Y-49000000D03*
%TO.N,GND*%
X99450000Y-54950000D03*
X95630000Y-54040000D03*
X106450000Y-40130000D03*
X102010000Y-54940000D03*
X122340000Y-40930000D03*
X127270000Y-40140000D03*
X137760000Y-46600000D03*
X93080000Y-45670000D03*
X108620000Y-43620000D03*
X94050000Y-54940000D03*
X99290000Y-50160000D03*
X92810000Y-47850000D03*
X113940000Y-47380000D03*
X120610000Y-48820000D03*
X122200000Y-48850000D03*
X93140000Y-47290000D03*
X97460000Y-54940000D03*
X136530000Y-46570000D03*
X124160000Y-45290000D03*
X127430000Y-47320000D03*
X103900000Y-46950000D03*
X101900000Y-47050000D03*
X118190000Y-47300000D03*
X99260000Y-43770000D03*
X104410000Y-53700000D03*
X111410000Y-43990000D03*
X127940000Y-53110000D03*
X119530000Y-48840000D03*
X93060000Y-44160000D03*
X134970000Y-42510000D03*
X115177517Y-50288542D03*
%TO.N,PB0*%
X112430000Y-43250000D03*
%TO.N,LED*%
X108160000Y-45550000D03*
X106830000Y-49080000D03*
%TO.N,enc_A*%
X116300000Y-45950000D03*
X124050000Y-50800000D03*
%TO.N,PB3*%
X111937500Y-50780000D03*
%TO.N,BOOT0*%
X114850000Y-50850000D03*
X127350000Y-48800000D03*
X114490600Y-43992700D03*
%TO.N,PB6*%
X113437500Y-51080000D03*
%TO.N,PB4*%
X112437500Y-50330000D03*
%TO.N,PB5*%
X112910000Y-51470000D03*
%TO.N,enc_B*%
X125800000Y-50600000D03*
X120400000Y-45100000D03*
%TO.N,USART1_RX*%
X106000000Y-47000000D03*
%TO.N,USART1_TX*%
X109120000Y-46300000D03*
%TO.N,LPUART_RX*%
X100050000Y-46550000D03*
%TO.N,pushbutton_B*%
X113390000Y-44010000D03*
X123350000Y-42050000D03*
%TO.N,pushbutton_A*%
X127400000Y-45550000D03*
X113934863Y-43655565D03*
%TO.N,PA15*%
X111429933Y-51186053D03*
%TO.N,PB7*%
X114065728Y-50913168D03*
%TO.N,PB1*%
X111649607Y-43385772D03*
%TO.N,LPUART_TX*%
X99450000Y-45750000D03*
%TO.N,PA7*%
X113160000Y-43070000D03*
%TO.N,5V*%
X96749000Y-48858719D03*
%TO.N,Net-(J1-CC1)*%
X97300000Y-48250000D03*
%TO.N,Net-(J1-CC2)*%
X97500000Y-45400000D03*
%TO.N,Net-(C7-Pad1)*%
X126050000Y-43100000D03*
X125200000Y-50100000D03*
%TO.N,USB_DP*%
X97300000Y-47000000D03*
%TO.N,USB_DN*%
X99400000Y-47500000D03*
%TD*%
D20*
%TO.N,GND*%
X99250000Y-50200000D02*
X99290000Y-50160000D01*
X98430000Y-43800000D02*
X99230000Y-43800000D01*
X98430000Y-50200000D02*
X99250000Y-50200000D01*
X99230000Y-43800000D02*
X99260000Y-43770000D01*
D21*
%TO.N,PB0*%
X112430000Y-43250000D02*
X112290000Y-43390000D01*
X112290000Y-43390000D02*
X112290000Y-48180000D01*
X112290000Y-48180000D02*
X108020000Y-52450000D01*
X108020000Y-52450000D02*
X108020000Y-57810000D01*
D20*
%TO.N,LED*%
X108160000Y-45740000D02*
X106830000Y-47070000D01*
X106830000Y-47070000D02*
X106830000Y-49080000D01*
X108160000Y-45550000D02*
X108160000Y-45740000D01*
D21*
%TO.N,enc_A*%
X119972000Y-45950000D02*
X116300000Y-45950000D01*
X124050000Y-50800000D02*
X124050000Y-50028000D01*
X124050000Y-50028000D02*
X119972000Y-45950000D01*
%TO.N,PB3*%
X111937500Y-54107500D02*
X115640000Y-57810000D01*
X111937500Y-50780000D02*
X111937500Y-54107500D01*
%TO.N,BOOT0*%
X127350000Y-48800000D02*
X127350000Y-49709024D01*
X115660000Y-44860000D02*
X115660000Y-50470000D01*
X115280000Y-50850000D02*
X114850000Y-50850000D01*
X115660000Y-50470000D02*
X115280000Y-50850000D01*
X127350000Y-49709024D02*
X125763024Y-51296000D01*
X114490600Y-43992700D02*
X114792700Y-43992700D01*
X114792700Y-43992700D02*
X115660000Y-44860000D01*
X125763024Y-51296000D02*
X115296000Y-51296000D01*
X115296000Y-51296000D02*
X114850000Y-50850000D01*
%TO.N,PB6*%
X113670000Y-51312500D02*
X113670000Y-51370000D01*
X114500000Y-52200000D02*
X117650000Y-52200000D01*
X113437500Y-51080000D02*
X113670000Y-51312500D01*
X113670000Y-51370000D02*
X114500000Y-52200000D01*
X117650000Y-52200000D02*
X123260000Y-57810000D01*
%TO.N,PB4*%
X112437500Y-52067500D02*
X118180000Y-57810000D01*
X112437500Y-50330000D02*
X112437500Y-52067500D01*
%TO.N,PB5*%
X112970000Y-51545632D02*
X114413392Y-52989024D01*
X112970000Y-51530000D02*
X112970000Y-51545632D01*
X115899024Y-52989024D02*
X120720000Y-57810000D01*
X112910000Y-51470000D02*
X112970000Y-51530000D01*
X114413392Y-52989024D02*
X115899024Y-52989024D01*
%TO.N,enc_B*%
X124550000Y-50650000D02*
X125750000Y-50650000D01*
X125750000Y-50650000D02*
X125800000Y-50600000D01*
X124550000Y-49250000D02*
X124550000Y-50650000D01*
X120400000Y-45100000D02*
X124550000Y-49250000D01*
%TO.N,USART1_RX*%
X100400000Y-52600000D02*
X100400000Y-57810000D01*
X106000000Y-47000000D02*
X100400000Y-52600000D01*
%TO.N,USART1_TX*%
X109120000Y-48530000D02*
X104416000Y-53234000D01*
X103944000Y-53506976D02*
X103944000Y-53706000D01*
X102940000Y-54710000D02*
X102940000Y-57810000D01*
X103944000Y-53706000D02*
X102940000Y-54710000D01*
X104416000Y-53234000D02*
X104216976Y-53234000D01*
X104216976Y-53234000D02*
X103944000Y-53506976D01*
X109120000Y-46300000D02*
X109120000Y-48530000D01*
D20*
%TO.N,LPUART_RX*%
X99450000Y-48750000D02*
X100050000Y-48150000D01*
X98430000Y-48750000D02*
X99450000Y-48750000D01*
X100050000Y-48150000D02*
X100050000Y-46550000D01*
D21*
%TO.N,pushbutton_B*%
X113390000Y-44010000D02*
X113390000Y-43510000D01*
X113390000Y-43510000D02*
X114486600Y-42413400D01*
X114486600Y-42413400D02*
X123550000Y-42413400D01*
X123550000Y-42250000D02*
X123350000Y-42050000D01*
X123550000Y-42413400D02*
X123550000Y-42250000D01*
%TO.N,pushbutton_A*%
X113950428Y-43640000D02*
X114185800Y-43640000D01*
X125856976Y-42634000D02*
X126243024Y-42634000D01*
X115141200Y-42684600D02*
X125806376Y-42684600D01*
X126243024Y-42634000D02*
X127400000Y-43790976D01*
X127400000Y-43790976D02*
X127400000Y-45550000D01*
X125806376Y-42684600D02*
X125856976Y-42634000D01*
X114185800Y-43640000D02*
X115141200Y-42684600D01*
X113934863Y-43655565D02*
X113950428Y-43640000D01*
%TO.N,PA15*%
X113100000Y-57280000D02*
X113100000Y-57810000D01*
X111429933Y-55609933D02*
X113100000Y-57280000D01*
X111429933Y-51186053D02*
X111429933Y-55609933D01*
%TO.N,PB7*%
X114065728Y-50913168D02*
X114233168Y-50913168D01*
X114233168Y-50913168D02*
X115080000Y-51760000D01*
X115080000Y-51760000D02*
X119750000Y-51760000D01*
X119750000Y-51760000D02*
X125800000Y-57810000D01*
%TO.N,PB1*%
X111876000Y-43612165D02*
X111649607Y-43385772D01*
X105480000Y-57810000D02*
X105480000Y-53799110D01*
X105480000Y-53799110D02*
X111876000Y-47403110D01*
X111876000Y-47403110D02*
X111876000Y-43612165D01*
D20*
%TO.N,LPUART_TX*%
X98430000Y-45750000D02*
X99450000Y-45750000D01*
D21*
%TO.N,PA7*%
X110560000Y-51360000D02*
X110560000Y-57810000D01*
X112680000Y-43659024D02*
X112680000Y-49240000D01*
X113160000Y-43070000D02*
X113160000Y-43179024D01*
X113160000Y-43179024D02*
X112680000Y-43659024D01*
X112680000Y-49240000D02*
X110560000Y-51360000D01*
D20*
%TO.N,5V*%
X97763462Y-49164000D02*
X97999462Y-49400000D01*
X97054281Y-49164000D02*
X97763462Y-49164000D01*
X97999462Y-49400000D02*
X98430000Y-49400000D01*
X96749000Y-48858719D02*
X97054281Y-49164000D01*
X97655719Y-44836000D02*
X97514000Y-44836000D01*
X97891719Y-44600000D02*
X97655719Y-44836000D01*
X96749000Y-45251000D02*
X96749000Y-48858719D01*
X97150000Y-44850000D02*
X96749000Y-45251000D01*
X97514000Y-44836000D02*
X97500000Y-44850000D01*
X97500000Y-44850000D02*
X97150000Y-44850000D01*
X98430000Y-44600000D02*
X97891719Y-44600000D01*
%TO.N,Net-(J1-CC1)*%
X98430000Y-48250000D02*
X97300000Y-48250000D01*
%TO.N,Net-(J1-CC2)*%
X97699462Y-45400000D02*
X97500000Y-45400000D01*
X98430000Y-45250000D02*
X97849462Y-45250000D01*
X97849462Y-45250000D02*
X97699462Y-45400000D01*
D21*
%TO.N,adaptor_GND*%
X158100000Y-51530000D02*
X160637300Y-51530000D01*
X162280000Y-51530000D02*
X161732500Y-51530000D01*
X161184900Y-50982400D02*
X161184900Y-42890000D01*
X160637300Y-51530000D02*
X161184900Y-50982400D01*
X161732500Y-51530000D02*
X161184900Y-50982400D01*
X162280000Y-42890000D02*
X161184900Y-42890000D01*
X158100000Y-42890000D02*
X161184900Y-42890000D01*
D20*
%TO.N,Net-(C7-Pad1)*%
X126050000Y-43100000D02*
X126050000Y-49250000D01*
X126050000Y-49250000D02*
X125200000Y-50100000D01*
D21*
%TO.N,Net-(R10-Pad1)*%
X100680000Y-50250000D02*
X100781900Y-50148100D01*
D20*
X100680000Y-50250000D02*
X100680000Y-43750000D01*
D21*
X100781900Y-43851900D02*
X100680000Y-43750000D01*
D20*
%TO.N,USB_DP*%
X97750000Y-46250000D02*
X97500000Y-46500000D01*
D21*
X98674200Y-47185000D02*
X98495000Y-47185000D01*
D20*
X97500000Y-47000000D02*
X97750000Y-47250000D01*
X97500000Y-46800000D02*
X97300000Y-47000000D01*
X97750000Y-47250000D02*
X98430000Y-47250000D01*
D21*
X98495000Y-47185000D02*
X98430000Y-47250000D01*
D20*
X98430000Y-46250000D02*
X97750000Y-46250000D01*
X97500000Y-46800000D02*
X97500000Y-47000000D01*
X97500000Y-46500000D02*
X97500000Y-46800000D01*
%TO.N,USB_DN*%
X99200000Y-46750000D02*
X99400000Y-46950000D01*
X99150000Y-47750000D02*
X98430000Y-47750000D01*
X99400000Y-46950000D02*
X99400000Y-47500000D01*
X98430000Y-46750000D02*
X99200000Y-46750000D01*
X99400000Y-47500000D02*
X99150000Y-47750000D01*
%TD*%
M02*
