%TF.GenerationSoftware,KiCad,Pcbnew,9.0.2*%
%TF.CreationDate,2025-12-20T10:00:59+01:00*%
%TF.ProjectId,synthmate_L432,73796e74-686d-4617-9465-5f4c3433322e,rev?*%
%TF.SameCoordinates,Original*%
%TF.FileFunction,Paste,Top*%
%TF.FilePolarity,Positive*%
%FSLAX46Y46*%
G04 Gerber Fmt 4.6, Leading zero omitted, Abs format (unit mm)*
G04 Created by KiCad (PCBNEW 9.0.2) date 2025-12-20 10:00:59*
%MOMM*%
%LPD*%
G01*
G04 APERTURE LIST*
G04 Aperture macros list*
%AMRoundRect*
0 Rectangle with rounded corners*
0 $1 Rounding radius*
0 $2 $3 $4 $5 $6 $7 $8 $9 X,Y pos of 4 corners*
0 Add a 4 corners polygon primitive as box body*
4,1,4,$2,$3,$4,$5,$6,$7,$8,$9,$2,$3,0*
0 Add four circle primitives for the rounded corners*
1,1,$1+$1,$2,$3*
1,1,$1+$1,$4,$5*
1,1,$1+$1,$6,$7*
1,1,$1+$1,$8,$9*
0 Add four rect primitives between the rounded corners*
20,1,$1+$1,$2,$3,$4,$5,0*
20,1,$1+$1,$4,$5,$6,$7,0*
20,1,$1+$1,$6,$7,$8,$9,0*
20,1,$1+$1,$8,$9,$2,$3,0*%
G04 Aperture macros list end*
%ADD10R,0.820000X0.820000*%
%ADD11R,0.280000X0.850000*%
%ADD12R,0.850000X0.280000*%
%ADD13RoundRect,0.225000X0.250000X-0.225000X0.250000X0.225000X-0.250000X0.225000X-0.250000X-0.225000X0*%
%ADD14RoundRect,0.200000X0.275000X-0.200000X0.275000X0.200000X-0.275000X0.200000X-0.275000X-0.200000X0*%
%ADD15RoundRect,0.150000X0.150000X0.425000X-0.150000X0.425000X-0.150000X-0.425000X0.150000X-0.425000X0*%
%ADD16RoundRect,0.075000X0.075000X0.500000X-0.075000X0.500000X-0.075000X-0.500000X0.075000X-0.500000X0*%
%ADD17O,1.000000X2.100000*%
%ADD18O,1.000000X1.800000*%
%ADD19RoundRect,0.218750X0.256250X-0.218750X0.256250X0.218750X-0.256250X0.218750X-0.256250X-0.218750X0*%
%ADD20RoundRect,0.200000X-0.200000X-0.275000X0.200000X-0.275000X0.200000X0.275000X-0.200000X0.275000X0*%
%ADD21RoundRect,0.150000X0.150000X-0.825000X0.150000X0.825000X-0.150000X0.825000X-0.150000X-0.825000X0*%
%ADD22RoundRect,0.225000X0.225000X0.250000X-0.225000X0.250000X-0.225000X-0.250000X0.225000X-0.250000X0*%
%ADD23R,0.300000X0.704800*%
%ADD24R,0.249936X0.704850*%
%ADD25R,0.754888X0.350012*%
%ADD26RoundRect,0.218750X-0.218750X-0.256250X0.218750X-0.256250X0.218750X0.256250X-0.218750X0.256250X0*%
%ADD27RoundRect,0.225000X-0.225000X-0.250000X0.225000X-0.250000X0.225000X0.250000X-0.225000X0.250000X0*%
%ADD28RoundRect,0.100000X-0.225000X-0.100000X0.225000X-0.100000X0.225000X0.100000X-0.225000X0.100000X0*%
%ADD29RoundRect,0.225000X-0.250000X0.225000X-0.250000X-0.225000X0.250000X-0.225000X0.250000X0.225000X0*%
%ADD30RoundRect,0.200000X0.200000X0.275000X-0.200000X0.275000X-0.200000X-0.275000X0.200000X-0.275000X0*%
%ADD31RoundRect,0.200000X-0.275000X0.200000X-0.275000X-0.200000X0.275000X-0.200000X0.275000X0.200000X0*%
%ADD32RoundRect,0.150000X0.150000X-0.512500X0.150000X0.512500X-0.150000X0.512500X-0.150000X-0.512500X0*%
%ADD33RoundRect,0.250000X-0.450000X0.325000X-0.450000X-0.325000X0.450000X-0.325000X0.450000X0.325000X0*%
%ADD34RoundRect,0.250000X-0.650000X0.325000X-0.650000X-0.325000X0.650000X-0.325000X0.650000X0.325000X0*%
%ADD35RoundRect,0.232500X0.000000X-0.328805X0.328805X0.000000X0.000000X0.328805X-0.328805X0.000000X0*%
%ADD36RoundRect,0.062500X-0.220971X-0.309359X0.309359X0.220971X0.220971X0.309359X-0.309359X-0.220971X0*%
%ADD37RoundRect,0.062500X0.220971X-0.309359X0.309359X-0.220971X-0.220971X0.309359X-0.309359X0.220971X0*%
%ADD38RoundRect,0.250000X0.325000X0.650000X-0.325000X0.650000X-0.325000X-0.650000X0.325000X-0.650000X0*%
G04 APERTURE END LIST*
D10*
%TO.C,U6*%
X147755000Y-84970000D03*
X147755000Y-86090000D03*
X148875000Y-84970000D03*
X148875000Y-86090000D03*
D11*
X147565000Y-83805000D03*
D12*
X146590000Y-84530000D03*
X146590000Y-85030000D03*
X146590000Y-85530000D03*
X146590000Y-86030000D03*
X146590000Y-86530000D03*
D11*
X147565000Y-87255000D03*
X149065000Y-87255000D03*
D12*
X150040000Y-86530000D03*
X150040000Y-86030000D03*
X150040000Y-85530000D03*
X150040000Y-85030000D03*
X150040000Y-84530000D03*
D11*
X149065000Y-83805000D03*
%TD*%
D13*
%TO.C,C13*%
X150920000Y-82250000D03*
X150920000Y-80700000D03*
%TD*%
D14*
%TO.C,R13*%
X146730000Y-106930000D03*
X146730000Y-105280000D03*
%TD*%
D15*
%TO.C,J1*%
X141080000Y-78105000D03*
X140280000Y-78105000D03*
D16*
X139130000Y-78105000D03*
X138130000Y-78105000D03*
X137630000Y-78105000D03*
X136630000Y-78105000D03*
D15*
X135480000Y-78105000D03*
X134680000Y-78105000D03*
X134680000Y-78105000D03*
X135480000Y-78105000D03*
D16*
X136130000Y-78105000D03*
X137130000Y-78105000D03*
X138630000Y-78105000D03*
X139630000Y-78105000D03*
D15*
X140280000Y-78105000D03*
X141080000Y-78105000D03*
D17*
X142200000Y-77530000D03*
D18*
X142200000Y-73350000D03*
D17*
X133560000Y-77530000D03*
D18*
X133560000Y-73350000D03*
%TD*%
D19*
%TO.C,D2*%
X144020000Y-78440000D03*
X144020000Y-76865000D03*
%TD*%
D20*
%TO.C,R6*%
X146885000Y-91430000D03*
X148535000Y-91430000D03*
%TD*%
D21*
%TO.C,U5*%
X144140000Y-101370000D03*
X145410000Y-101370000D03*
X146680000Y-101370000D03*
X147950000Y-101370000D03*
X147950000Y-96420000D03*
X146680000Y-96420000D03*
X145410000Y-96420000D03*
X144140000Y-96420000D03*
%TD*%
D22*
%TO.C,C15*%
X132685000Y-86420000D03*
X131135000Y-86420000D03*
%TD*%
D23*
%TO.C,U2*%
X134409999Y-83654800D03*
D24*
X134910000Y-83654800D03*
X135410000Y-83654800D03*
D23*
X135910001Y-83654800D03*
D25*
X136112444Y-82927400D03*
D23*
X135910001Y-82200000D03*
D24*
X135410000Y-82200000D03*
X134910000Y-82200000D03*
D23*
X134409999Y-82200000D03*
D25*
X134207556Y-82927400D03*
%TD*%
D26*
%TO.C,D3*%
X131150000Y-88010000D03*
X132725000Y-88010000D03*
%TD*%
D27*
%TO.C,C10*%
X146380000Y-74910000D03*
X147930000Y-74910000D03*
%TD*%
D28*
%TO.C,U3*%
X146950000Y-76620000D03*
X146950000Y-77270000D03*
X146950000Y-77920000D03*
X148850000Y-77920000D03*
X148850000Y-76620000D03*
%TD*%
D14*
%TO.C,R11*%
X148250000Y-106910000D03*
X148250000Y-105260000D03*
%TD*%
D29*
%TO.C,C6*%
X149950000Y-91400000D03*
X149950000Y-92950000D03*
%TD*%
%TO.C,C12*%
X131210000Y-98140000D03*
X131210000Y-99690000D03*
%TD*%
D30*
%TO.C,R1*%
X151915000Y-79190000D03*
X150265000Y-79190000D03*
%TD*%
D20*
%TO.C,R3*%
X133230000Y-79990000D03*
X134880000Y-79990000D03*
%TD*%
D30*
%TO.C,R15*%
X135495000Y-103190000D03*
X133845000Y-103190000D03*
%TD*%
%TO.C,R5*%
X129760000Y-97450000D03*
X128110000Y-97450000D03*
%TD*%
D22*
%TO.C,C11*%
X129810000Y-93820000D03*
X128260000Y-93820000D03*
%TD*%
D31*
%TO.C,R14*%
X151750000Y-76080000D03*
X151750000Y-77730000D03*
%TD*%
D27*
%TO.C,C5*%
X139095000Y-93820000D03*
X140645000Y-93820000D03*
%TD*%
D29*
%TO.C,C18*%
X142520000Y-95910000D03*
X142520000Y-97460000D03*
%TD*%
D20*
%TO.C,R16*%
X131095000Y-84890000D03*
X132745000Y-84890000D03*
%TD*%
D14*
%TO.C,R8*%
X151480000Y-92990000D03*
X151480000Y-91340000D03*
%TD*%
%TO.C,R18*%
X132530000Y-83260000D03*
X132530000Y-81610000D03*
%TD*%
%TO.C,R4*%
X127890000Y-88140000D03*
X127890000Y-86490000D03*
%TD*%
D20*
%TO.C,R10*%
X138140000Y-82960000D03*
X139790000Y-82960000D03*
%TD*%
D32*
%TO.C,U4*%
X129880000Y-79520000D03*
X130830000Y-79520000D03*
X131780000Y-79520000D03*
X131780000Y-77245000D03*
X129880000Y-77245000D03*
%TD*%
D22*
%TO.C,C2*%
X129670000Y-95910000D03*
X128120000Y-95910000D03*
%TD*%
D27*
%TO.C,C17*%
X133865000Y-106280000D03*
X135415000Y-106280000D03*
%TD*%
%TO.C,C16*%
X130080000Y-75530000D03*
X131630000Y-75530000D03*
%TD*%
D30*
%TO.C,R17*%
X135475000Y-104740000D03*
X133825000Y-104740000D03*
%TD*%
D33*
%TO.C,D1*%
X127880000Y-82860000D03*
X127880000Y-84910000D03*
%TD*%
D29*
%TO.C,C9*%
X145160000Y-105340000D03*
X145160000Y-106890000D03*
%TD*%
D14*
%TO.C,R7*%
X151480000Y-89930000D03*
X151480000Y-88280000D03*
%TD*%
D13*
%TO.C,C4*%
X150280000Y-77750000D03*
X150280000Y-76200000D03*
%TD*%
D34*
%TO.C,C1*%
X143800000Y-80050000D03*
X143800000Y-83000000D03*
%TD*%
D27*
%TO.C,C8*%
X141190000Y-84550000D03*
X142740000Y-84550000D03*
%TD*%
D20*
%TO.C,R12*%
X138130000Y-84510000D03*
X139780000Y-84510000D03*
%TD*%
D13*
%TO.C,C3*%
X145530000Y-77950000D03*
X145530000Y-76400000D03*
%TD*%
D14*
%TO.C,R2*%
X139680000Y-81520000D03*
X139680000Y-79870000D03*
%TD*%
D35*
%TO.C,U1*%
X132832654Y-93846100D03*
X133645827Y-94659273D03*
X134459000Y-95472446D03*
X133645827Y-93032927D03*
X134459000Y-93846100D03*
X135272173Y-94659273D03*
X134459000Y-92219754D03*
X135272173Y-93032927D03*
X136085346Y-93846100D03*
D36*
X131497990Y-94332236D03*
X131851544Y-94685789D03*
X132205097Y-95039343D03*
X132558651Y-95392896D03*
X132912204Y-95746449D03*
X133265757Y-96100003D03*
X133619311Y-96453556D03*
X133972864Y-96807110D03*
D37*
X134945136Y-96807110D03*
X135298689Y-96453556D03*
X135652243Y-96100003D03*
X136005796Y-95746449D03*
X136359349Y-95392896D03*
X136712903Y-95039343D03*
X137066456Y-94685789D03*
X137420010Y-94332236D03*
D36*
X137420010Y-93359964D03*
X137066456Y-93006411D03*
X136712903Y-92652857D03*
X136359349Y-92299304D03*
X136005796Y-91945751D03*
X135652243Y-91592197D03*
X135298689Y-91238644D03*
X134945136Y-90885090D03*
D37*
X133972864Y-90885090D03*
X133619311Y-91238644D03*
X133265757Y-91592197D03*
X132912204Y-91945751D03*
X132558651Y-92299304D03*
X132205097Y-92652857D03*
X131851544Y-93006411D03*
X131497990Y-93359964D03*
%TD*%
D38*
%TO.C,C14*%
X148780000Y-79840000D03*
X145830000Y-79840000D03*
%TD*%
D20*
%TO.C,R9*%
X143690000Y-91390000D03*
X145340000Y-91390000D03*
%TD*%
D22*
%TO.C,C7*%
X143020000Y-89820000D03*
X141470000Y-89820000D03*
%TD*%
M02*
