%TF.GenerationSoftware,KiCad,Pcbnew,9.0.2*%
%TF.CreationDate,2025-07-12T05:54:42+02:00*%
%TF.ProjectId,synthmate_L432,73796e74-686d-4617-9465-5f4c3433322e,rev?*%
%TF.SameCoordinates,Original*%
%TF.FileFunction,Paste,Top*%
%TF.FilePolarity,Positive*%
%FSLAX46Y46*%
G04 Gerber Fmt 4.6, Leading zero omitted, Abs format (unit mm)*
G04 Created by KiCad (PCBNEW 9.0.2) date 2025-07-12 05:54:42*
%MOMM*%
%LPD*%
G01*
G04 APERTURE LIST*
G04 Aperture macros list*
%AMRoundRect*
0 Rectangle with rounded corners*
0 $1 Rounding radius*
0 $2 $3 $4 $5 $6 $7 $8 $9 X,Y pos of 4 corners*
0 Add a 4 corners polygon primitive as box body*
4,1,4,$2,$3,$4,$5,$6,$7,$8,$9,$2,$3,0*
0 Add four circle primitives for the rounded corners*
1,1,$1+$1,$2,$3*
1,1,$1+$1,$4,$5*
1,1,$1+$1,$6,$7*
1,1,$1+$1,$8,$9*
0 Add four rect primitives between the rounded corners*
20,1,$1+$1,$2,$3,$4,$5,0*
20,1,$1+$1,$4,$5,$6,$7,0*
20,1,$1+$1,$6,$7,$8,$9,0*
20,1,$1+$1,$8,$9,$2,$3,0*%
G04 Aperture macros list end*
%ADD10RoundRect,0.075000X-0.200000X0.075000X-0.200000X-0.075000X0.200000X-0.075000X0.200000X0.075000X0*%
%ADD11R,0.820000X0.820000*%
%ADD12R,0.850000X0.280000*%
%ADD13R,0.280000X0.850000*%
%ADD14RoundRect,0.237500X-0.237500X0.300000X-0.237500X-0.300000X0.237500X-0.300000X0.237500X0.300000X0*%
%ADD15RoundRect,0.237500X-0.250000X-0.237500X0.250000X-0.237500X0.250000X0.237500X-0.250000X0.237500X0*%
%ADD16RoundRect,0.218750X0.218750X0.256250X-0.218750X0.256250X-0.218750X-0.256250X0.218750X-0.256250X0*%
%ADD17RoundRect,0.237500X-0.300000X-0.237500X0.300000X-0.237500X0.300000X0.237500X-0.300000X0.237500X0*%
%ADD18RoundRect,0.100000X-0.225000X-0.100000X0.225000X-0.100000X0.225000X0.100000X-0.225000X0.100000X0*%
%ADD19RoundRect,0.237500X0.250000X0.237500X-0.250000X0.237500X-0.250000X-0.237500X0.250000X-0.237500X0*%
%ADD20RoundRect,0.237500X0.237500X-0.300000X0.237500X0.300000X-0.237500X0.300000X-0.237500X-0.300000X0*%
%ADD21R,0.740000X2.400000*%
%ADD22RoundRect,0.237500X-0.237500X0.250000X-0.237500X-0.250000X0.237500X-0.250000X0.237500X0.250000X0*%
%ADD23RoundRect,0.250000X-0.325000X-0.450000X0.325000X-0.450000X0.325000X0.450000X-0.325000X0.450000X0*%
%ADD24RoundRect,0.250000X0.325000X0.650000X-0.325000X0.650000X-0.325000X-0.650000X0.325000X-0.650000X0*%
%ADD25RoundRect,0.150000X0.425000X-0.150000X0.425000X0.150000X-0.425000X0.150000X-0.425000X-0.150000X0*%
%ADD26RoundRect,0.075000X0.500000X-0.075000X0.500000X0.075000X-0.500000X0.075000X-0.500000X-0.075000X0*%
%ADD27O,2.100000X1.000000*%
%ADD28O,1.800000X1.000000*%
%ADD29RoundRect,0.232500X0.232500X0.232500X-0.232500X0.232500X-0.232500X-0.232500X0.232500X-0.232500X0*%
%ADD30RoundRect,0.062500X0.375000X0.062500X-0.375000X0.062500X-0.375000X-0.062500X0.375000X-0.062500X0*%
%ADD31RoundRect,0.062500X0.062500X0.375000X-0.062500X0.375000X-0.062500X-0.375000X0.062500X-0.375000X0*%
%ADD32RoundRect,0.250000X-0.650000X0.325000X-0.650000X-0.325000X0.650000X-0.325000X0.650000X0.325000X0*%
G04 APERTURE END LIST*
D10*
%TO.C,U5*%
X102587500Y-45960000D03*
X102587500Y-46460000D03*
X102587500Y-46960000D03*
X102587500Y-47460000D03*
X102587500Y-47960000D03*
X103357500Y-47960000D03*
X103357500Y-47460000D03*
X103357500Y-46960000D03*
X103357500Y-46460000D03*
X103357500Y-45960000D03*
%TD*%
D11*
%TO.C,U6*%
X125110000Y-47590000D03*
X126230000Y-47590000D03*
X125110000Y-46470000D03*
X126230000Y-46470000D03*
D12*
X123945000Y-47780000D03*
D13*
X124670000Y-48755000D03*
X125170000Y-48755000D03*
X125670000Y-48755000D03*
X126170000Y-48755000D03*
X126670000Y-48755000D03*
D12*
X127395000Y-47780000D03*
X127395000Y-46280000D03*
D13*
X126670000Y-45305000D03*
X126170000Y-45305000D03*
X125670000Y-45305000D03*
X125170000Y-45305000D03*
X124670000Y-45305000D03*
D12*
X123945000Y-46280000D03*
%TD*%
D14*
%TO.C,C13*%
X122200000Y-46137500D03*
X122200000Y-47862500D03*
%TD*%
D15*
%TO.C,R13*%
X117187500Y-41700000D03*
X119012500Y-41700000D03*
%TD*%
D16*
%TO.C,D2*%
X95637500Y-47300000D03*
X94062500Y-47300000D03*
%TD*%
D15*
%TO.C,R6*%
X128887500Y-42500000D03*
X130712500Y-42500000D03*
%TD*%
D17*
%TO.C,C10*%
X132350000Y-42500000D03*
X134075000Y-42500000D03*
%TD*%
D18*
%TO.C,U3*%
X94800000Y-53350000D03*
X94800000Y-54000000D03*
X94800000Y-54650000D03*
X96700000Y-54650000D03*
X96700000Y-53350000D03*
%TD*%
D19*
%TO.C,R11*%
X119012500Y-40150000D03*
X117187500Y-40150000D03*
%TD*%
D17*
%TO.C,C6*%
X125487500Y-53100000D03*
X127212500Y-53100000D03*
%TD*%
%TO.C,C12*%
X117237500Y-48600000D03*
X118962500Y-48600000D03*
%TD*%
D19*
%TO.C,R1*%
X130712500Y-40900000D03*
X128887500Y-40900000D03*
%TD*%
D15*
%TO.C,R3*%
X93937500Y-44150000D03*
X95762500Y-44150000D03*
%TD*%
D19*
%TO.C,R5*%
X119012500Y-45400000D03*
X117187500Y-45400000D03*
%TD*%
D20*
%TO.C,C11*%
X109230000Y-44562500D03*
X109230000Y-42837500D03*
%TD*%
D15*
%TO.C,R14*%
X132287500Y-40900000D03*
X134112500Y-40900000D03*
%TD*%
D17*
%TO.C,C5*%
X117237500Y-47000000D03*
X118962500Y-47000000D03*
%TD*%
D21*
%TO.C,J8*%
X140330000Y-45050000D03*
X140330000Y-48950000D03*
X139060000Y-45050000D03*
X139060000Y-48950000D03*
X137790000Y-45050000D03*
X137790000Y-48950000D03*
X136520000Y-45050000D03*
X136520000Y-48950000D03*
X135250000Y-45050000D03*
X135250000Y-48950000D03*
X133980000Y-45050000D03*
X133980000Y-48950000D03*
X132710000Y-45050000D03*
X132710000Y-48950000D03*
%TD*%
D15*
%TO.C,R8*%
X125437500Y-51550000D03*
X127262500Y-51550000D03*
%TD*%
D22*
%TO.C,R4*%
X107600000Y-49037500D03*
X107600000Y-50862500D03*
%TD*%
D19*
%TO.C,R10*%
X102062500Y-40150000D03*
X100237500Y-40150000D03*
%TD*%
D14*
%TO.C,C2*%
X120600000Y-46137500D03*
X120600000Y-47862500D03*
%TD*%
D23*
%TO.C,D1*%
X105275000Y-53700000D03*
X107325000Y-53700000D03*
%TD*%
D17*
%TO.C,C9*%
X120637500Y-40150000D03*
X122362500Y-40150000D03*
%TD*%
D15*
%TO.C,R7*%
X128837500Y-51550000D03*
X130662500Y-51550000D03*
%TD*%
D14*
%TO.C,C4*%
X98250000Y-53237500D03*
X98250000Y-54962500D03*
%TD*%
D24*
%TO.C,C1*%
X95775000Y-49300000D03*
X92825000Y-49300000D03*
%TD*%
D17*
%TO.C,C8*%
X103700000Y-40150000D03*
X105425000Y-40150000D03*
%TD*%
D15*
%TO.C,R12*%
X100237500Y-41700000D03*
X102062500Y-41700000D03*
%TD*%
D25*
%TO.C,J3*%
X157525000Y-50410000D03*
X157525000Y-49610000D03*
D26*
X157525000Y-48460000D03*
X157525000Y-47460000D03*
X157525000Y-46960000D03*
X157525000Y-45960000D03*
D25*
X157525000Y-44810000D03*
X157525000Y-44010000D03*
X157525000Y-44010000D03*
X157525000Y-44810000D03*
D26*
X157525000Y-45460000D03*
X157525000Y-46460000D03*
X157525000Y-47960000D03*
X157525000Y-48960000D03*
D25*
X157525000Y-49610000D03*
X157525000Y-50410000D03*
D27*
X158100000Y-51530000D03*
D28*
X162280000Y-51530000D03*
D27*
X158100000Y-42890000D03*
D28*
X162280000Y-42890000D03*
%TD*%
D14*
%TO.C,C3*%
X93250000Y-53187500D03*
X93250000Y-54912500D03*
%TD*%
D15*
%TO.C,R2*%
X93937500Y-45700000D03*
X95762500Y-45700000D03*
%TD*%
D29*
%TO.C,U1*%
X114337500Y-48400000D03*
X114337500Y-47250000D03*
X114337500Y-46100000D03*
X113187500Y-48400000D03*
X113187500Y-47250000D03*
X113187500Y-46100000D03*
X112037500Y-48400000D03*
X112037500Y-47250000D03*
X112037500Y-46100000D03*
D30*
X115625000Y-49000000D03*
X115625000Y-48500000D03*
X115625000Y-48000000D03*
X115625000Y-47500000D03*
X115625000Y-47000000D03*
X115625000Y-46500000D03*
X115625000Y-46000000D03*
X115625000Y-45500000D03*
D31*
X114937500Y-44812500D03*
X114437500Y-44812500D03*
X113937500Y-44812500D03*
X113437500Y-44812500D03*
X112937500Y-44812500D03*
X112437500Y-44812500D03*
X111937500Y-44812500D03*
X111437500Y-44812500D03*
D30*
X110750000Y-45500000D03*
X110750000Y-46000000D03*
X110750000Y-46500000D03*
X110750000Y-47000000D03*
X110750000Y-47500000D03*
X110750000Y-48000000D03*
X110750000Y-48500000D03*
X110750000Y-49000000D03*
D31*
X111437500Y-49687500D03*
X111937500Y-49687500D03*
X112437500Y-49687500D03*
X112937500Y-49687500D03*
X113437500Y-49687500D03*
X113937500Y-49687500D03*
X114437500Y-49687500D03*
X114937500Y-49687500D03*
%TD*%
D32*
%TO.C,C14*%
X100750000Y-51975000D03*
X100750000Y-54925000D03*
%TD*%
D15*
%TO.C,R9*%
X125487500Y-42500000D03*
X127312500Y-42500000D03*
%TD*%
D17*
%TO.C,C7*%
X125537500Y-40900000D03*
X127262500Y-40900000D03*
%TD*%
M02*
