M48
; DRILL file {KiCad 9.0.2} date 2025-10-12T11:55:10+0200
; FORMAT={-:-/ absolute / metric / decimal}
; #@! TF.CreationDate,2025-10-12T11:55:10+02:00
; #@! TF.GenerationSoftware,Kicad,Pcbnew,9.0.2
; #@! TF.FileFunction,Plated,1,4,PTH
FMAT,2
METRIC
; #@! TA.AperFunction,Plated,PTH,ViaDrill
T1C0.300
; #@! TA.AperFunction,Plated,PTH,ComponentDrill
T2C0.600
; #@! TA.AperFunction,Plated,PTH,ComponentDrill
T3C1.000
; #@! TA.AperFunction,Plated,PTH,ComponentDrill
T4C1.300
; #@! TA.AperFunction,Plated,PTH,ComponentDrill
T5C1.500
%
G90
G05
T1
X92.2Y-54.97
X92.81Y-47.85
X93.06Y-44.16
X93.08Y-45.67
X93.14Y-47.29
X95.61Y-54.53
X95.96Y-53.85
X96.488Y-45.608
X96.69Y-44.99
X97.26Y-46.41
X97.46Y-54.94
X97.815Y-39.47
X99.04Y-53.24
X99.18Y-48.73
X99.26Y-43.77
X99.29Y-50.16
X99.45Y-54.95
X99.47Y-51.98
X100.76Y-52.91
X100.77Y-50.94
X101.625Y-43.695
X102.01Y-54.94
X103.68Y-39.08
X103.804Y-52.106
X104.11Y-50.14
X104.24Y-52.8
X104.28Y-47.25
X104.61Y-53.43
X104.83Y-49.29
X105.92Y-45.26
X106.56Y-50.45
X106.86Y-45.23
X107.35Y-40.76
X107.4Y-45.65
X107.41Y-43.94
X107.44Y-46.77
X107.81Y-48.47
X108.59Y-48.31
X109.54Y-41.62
X109.56Y-49.31
X109.56Y-51.83
X110.09Y-43.8
X110.11Y-39.37
X110.46Y-53.32
X110.54Y-50.67
X111.33Y-43.64
X112.07Y-46.99
X112.13Y-43.46
X113.21Y-43.124
X113.42Y-50.29
X113.53Y-43.69
X113.86Y-41.245
X113.89Y-53.6
X114.09Y-50.32
X114.38Y-54.94
X115.18Y-45.66
X115.21Y-41.59
X115.26Y-44.95
X115.28Y-50.32
X115.3Y-46.309
X115.33Y-51.82
X116.065Y-43.19
X116.28Y-48.34
X116.31Y-47.55
X116.59Y-49.78
X117.19Y-54.68
X117.34Y-51.53
X117.8Y-45.01
X118.7Y-51.76
X118.74Y-40.85
X118.83Y-42.48
X119.77Y-53.81
X120.39Y-52.49
X121.04Y-48.51
X121.15Y-39.91
X121.79Y-44.01
X122.02Y-52.75
X122.19Y-40.65
X124.58Y-47.46
X125.73Y-47.29
X127.27Y-40.14
X127.66Y-53.0
X128.54Y-41.62
X131.27Y-41.92
X131.85Y-43.49
X134.97Y-42.51
X136.57Y-43.45
X137.86Y-43.42
X139.07Y-46.62
T3
X129.68Y-44.5
X129.68Y-47.0
X129.68Y-49.5
X144.18Y-44.5
X144.18Y-49.5
T4
X100.8Y-47.0
X105.88Y-47.0
X117.834Y-46.99
X122.914Y-46.99
T2
G00X94.075Y-42.68
M15
G01X93.275Y-42.68
M16
G05
G00X94.075Y-51.32
M15
G01X93.275Y-51.32
M16
G05
G00X98.405Y-42.68
M15
G01X97.305Y-42.68
M16
G05
G00X98.405Y-51.32
M15
G01X97.305Y-51.32
M16
G05
T5
G00X136.53Y-41.4
M15
G01X137.83Y-41.4
M16
G05
G00X136.53Y-52.6
M15
G01X137.83Y-52.6
M16
G05
M30
