%TF.GenerationSoftware,KiCad,Pcbnew,9.0.2*%
%TF.CreationDate,2025-07-12T05:54:42+02:00*%
%TF.ProjectId,synthmate_L432,73796e74-686d-4617-9465-5f4c3433322e,rev?*%
%TF.SameCoordinates,Original*%
%TF.FileFunction,Soldermask,Bot*%
%TF.FilePolarity,Negative*%
%FSLAX46Y46*%
G04 Gerber Fmt 4.6, Leading zero omitted, Abs format (unit mm)*
G04 Created by KiCad (PCBNEW 9.0.2) date 2025-07-12 05:54:42*
%MOMM*%
%LPD*%
G01*
G04 APERTURE LIST*
G04 Aperture macros list*
%AMRoundRect*
0 Rectangle with rounded corners*
0 $1 Rounding radius*
0 $2 $3 $4 $5 $6 $7 $8 $9 X,Y pos of 4 corners*
0 Add a 4 corners polygon primitive as box body*
4,1,4,$2,$3,$4,$5,$6,$7,$8,$9,$2,$3,0*
0 Add four circle primitives for the rounded corners*
1,1,$1+$1,$2,$3*
1,1,$1+$1,$4,$5*
1,1,$1+$1,$6,$7*
1,1,$1+$1,$8,$9*
0 Add four rect primitives between the rounded corners*
20,1,$1+$1,$2,$3,$4,$5,0*
20,1,$1+$1,$4,$5,$6,$7,0*
20,1,$1+$1,$6,$7,$8,$9,0*
20,1,$1+$1,$8,$9,$2,$3,0*%
G04 Aperture macros list end*
%ADD10R,1.700000X1.700000*%
%ADD11C,1.700000*%
%ADD12C,0.650000*%
%ADD13O,2.100000X1.000000*%
%ADD14O,1.800000X1.000000*%
%ADD15C,2.000000*%
%ADD16R,3.200000X2.000000*%
%ADD17R,2.000000X2.000000*%
%ADD18RoundRect,0.150000X0.425000X-0.150000X0.425000X0.150000X-0.425000X0.150000X-0.425000X-0.150000X0*%
%ADD19RoundRect,0.075000X0.500000X-0.075000X0.500000X0.075000X-0.500000X0.075000X-0.500000X-0.075000X0*%
G04 APERTURE END LIST*
D10*
%TO.C,J5*%
X130880000Y-57810000D03*
D11*
X128340000Y-57810000D03*
X125800000Y-57810000D03*
X123260000Y-57810000D03*
X120720000Y-57810000D03*
X118180000Y-57810000D03*
X115640000Y-57810000D03*
X113100000Y-57810000D03*
X110560000Y-57810000D03*
X108020000Y-57810000D03*
X105480000Y-57810000D03*
X102940000Y-57810000D03*
X100400000Y-57810000D03*
X97860000Y-57810000D03*
X95320000Y-57810000D03*
%TD*%
D10*
%TO.C,J7*%
X150590000Y-43260000D03*
D11*
X150590000Y-45800000D03*
X150590000Y-48340000D03*
X150590000Y-50880000D03*
%TD*%
D12*
%TO.C,J3*%
X158600000Y-50100000D03*
X158600000Y-44320000D03*
D13*
X158100000Y-51530000D03*
D14*
X162280000Y-51530000D03*
D13*
X158100000Y-42890000D03*
D14*
X162280000Y-42890000D03*
%TD*%
D15*
%TO.C,SW1*%
X144180000Y-49500000D03*
X144180000Y-44500000D03*
D16*
X137180000Y-52600000D03*
X137180000Y-41400000D03*
D15*
X129680000Y-47000000D03*
X129680000Y-44500000D03*
D17*
X129680000Y-49500000D03*
%TD*%
D10*
%TO.C,SW2*%
X105180000Y-50250000D03*
D11*
X105180000Y-43750000D03*
X100680000Y-50250000D03*
X100680000Y-43750000D03*
%TD*%
D10*
%TO.C,SW3*%
X122180000Y-50250000D03*
D11*
X122180000Y-43750000D03*
X117680000Y-50250000D03*
X117680000Y-43750000D03*
%TD*%
D12*
%TO.C,J1*%
X97355000Y-49890000D03*
X97355000Y-44110000D03*
D18*
X98430000Y-50200000D03*
X98430000Y-49400000D03*
D19*
X98430000Y-48250000D03*
X98430000Y-47250000D03*
X98430000Y-46750000D03*
X98430000Y-45750000D03*
D18*
X98430000Y-44600000D03*
X98430000Y-43800000D03*
X98430000Y-43800000D03*
X98430000Y-44600000D03*
D19*
X98430000Y-45250000D03*
X98430000Y-46250000D03*
X98430000Y-47750000D03*
X98430000Y-48750000D03*
D18*
X98430000Y-49400000D03*
X98430000Y-50200000D03*
D14*
X93675000Y-51320000D03*
D13*
X97855000Y-51320000D03*
D14*
X93675000Y-42680000D03*
D13*
X97855000Y-42680000D03*
%TD*%
M02*
