%TF.GenerationSoftware,KiCad,Pcbnew,9.0.2*%
%TF.CreationDate,2025-12-20T10:00:59+01:00*%
%TF.ProjectId,synthmate_L432,73796e74-686d-4617-9465-5f4c3433322e,rev?*%
%TF.SameCoordinates,Original*%
%TF.FileFunction,Legend,Bot*%
%TF.FilePolarity,Positive*%
%FSLAX46Y46*%
G04 Gerber Fmt 4.6, Leading zero omitted, Abs format (unit mm)*
G04 Created by KiCad (PCBNEW 9.0.2) date 2025-12-20 10:00:59*
%MOMM*%
%LPD*%
G01*
G04 APERTURE LIST*
%ADD10C,0.150000*%
%ADD11C,0.120000*%
G04 APERTURE END LIST*
D10*
X134683332Y-102007200D02*
X134540475Y-102054819D01*
X134540475Y-102054819D02*
X134302380Y-102054819D01*
X134302380Y-102054819D02*
X134207142Y-102007200D01*
X134207142Y-102007200D02*
X134159523Y-101959580D01*
X134159523Y-101959580D02*
X134111904Y-101864342D01*
X134111904Y-101864342D02*
X134111904Y-101769104D01*
X134111904Y-101769104D02*
X134159523Y-101673866D01*
X134159523Y-101673866D02*
X134207142Y-101626247D01*
X134207142Y-101626247D02*
X134302380Y-101578628D01*
X134302380Y-101578628D02*
X134492856Y-101531009D01*
X134492856Y-101531009D02*
X134588094Y-101483390D01*
X134588094Y-101483390D02*
X134635713Y-101435771D01*
X134635713Y-101435771D02*
X134683332Y-101340533D01*
X134683332Y-101340533D02*
X134683332Y-101245295D01*
X134683332Y-101245295D02*
X134635713Y-101150057D01*
X134635713Y-101150057D02*
X134588094Y-101102438D01*
X134588094Y-101102438D02*
X134492856Y-101054819D01*
X134492856Y-101054819D02*
X134254761Y-101054819D01*
X134254761Y-101054819D02*
X134111904Y-101102438D01*
X133778570Y-101054819D02*
X133540475Y-102054819D01*
X133540475Y-102054819D02*
X133349999Y-101340533D01*
X133349999Y-101340533D02*
X133159523Y-102054819D01*
X133159523Y-102054819D02*
X132921428Y-101054819D01*
X132635713Y-101054819D02*
X132016666Y-101054819D01*
X132016666Y-101054819D02*
X132349999Y-101435771D01*
X132349999Y-101435771D02*
X132207142Y-101435771D01*
X132207142Y-101435771D02*
X132111904Y-101483390D01*
X132111904Y-101483390D02*
X132064285Y-101531009D01*
X132064285Y-101531009D02*
X132016666Y-101626247D01*
X132016666Y-101626247D02*
X132016666Y-101864342D01*
X132016666Y-101864342D02*
X132064285Y-101959580D01*
X132064285Y-101959580D02*
X132111904Y-102007200D01*
X132111904Y-102007200D02*
X132207142Y-102054819D01*
X132207142Y-102054819D02*
X132492856Y-102054819D01*
X132492856Y-102054819D02*
X132588094Y-102007200D01*
X132588094Y-102007200D02*
X132635713Y-101959580D01*
X147383332Y-102007200D02*
X147240475Y-102054819D01*
X147240475Y-102054819D02*
X147002380Y-102054819D01*
X147002380Y-102054819D02*
X146907142Y-102007200D01*
X146907142Y-102007200D02*
X146859523Y-101959580D01*
X146859523Y-101959580D02*
X146811904Y-101864342D01*
X146811904Y-101864342D02*
X146811904Y-101769104D01*
X146811904Y-101769104D02*
X146859523Y-101673866D01*
X146859523Y-101673866D02*
X146907142Y-101626247D01*
X146907142Y-101626247D02*
X147002380Y-101578628D01*
X147002380Y-101578628D02*
X147192856Y-101531009D01*
X147192856Y-101531009D02*
X147288094Y-101483390D01*
X147288094Y-101483390D02*
X147335713Y-101435771D01*
X147335713Y-101435771D02*
X147383332Y-101340533D01*
X147383332Y-101340533D02*
X147383332Y-101245295D01*
X147383332Y-101245295D02*
X147335713Y-101150057D01*
X147335713Y-101150057D02*
X147288094Y-101102438D01*
X147288094Y-101102438D02*
X147192856Y-101054819D01*
X147192856Y-101054819D02*
X146954761Y-101054819D01*
X146954761Y-101054819D02*
X146811904Y-101102438D01*
X146478570Y-101054819D02*
X146240475Y-102054819D01*
X146240475Y-102054819D02*
X146049999Y-101340533D01*
X146049999Y-101340533D02*
X145859523Y-102054819D01*
X145859523Y-102054819D02*
X145621428Y-101054819D01*
X145288094Y-101150057D02*
X145240475Y-101102438D01*
X145240475Y-101102438D02*
X145145237Y-101054819D01*
X145145237Y-101054819D02*
X144907142Y-101054819D01*
X144907142Y-101054819D02*
X144811904Y-101102438D01*
X144811904Y-101102438D02*
X144764285Y-101150057D01*
X144764285Y-101150057D02*
X144716666Y-101245295D01*
X144716666Y-101245295D02*
X144716666Y-101340533D01*
X144716666Y-101340533D02*
X144764285Y-101483390D01*
X144764285Y-101483390D02*
X145335713Y-102054819D01*
X145335713Y-102054819D02*
X144716666Y-102054819D01*
X154737200Y-84866667D02*
X154784819Y-85009524D01*
X154784819Y-85009524D02*
X154784819Y-85247619D01*
X154784819Y-85247619D02*
X154737200Y-85342857D01*
X154737200Y-85342857D02*
X154689580Y-85390476D01*
X154689580Y-85390476D02*
X154594342Y-85438095D01*
X154594342Y-85438095D02*
X154499104Y-85438095D01*
X154499104Y-85438095D02*
X154403866Y-85390476D01*
X154403866Y-85390476D02*
X154356247Y-85342857D01*
X154356247Y-85342857D02*
X154308628Y-85247619D01*
X154308628Y-85247619D02*
X154261009Y-85057143D01*
X154261009Y-85057143D02*
X154213390Y-84961905D01*
X154213390Y-84961905D02*
X154165771Y-84914286D01*
X154165771Y-84914286D02*
X154070533Y-84866667D01*
X154070533Y-84866667D02*
X153975295Y-84866667D01*
X153975295Y-84866667D02*
X153880057Y-84914286D01*
X153880057Y-84914286D02*
X153832438Y-84961905D01*
X153832438Y-84961905D02*
X153784819Y-85057143D01*
X153784819Y-85057143D02*
X153784819Y-85295238D01*
X153784819Y-85295238D02*
X153832438Y-85438095D01*
X153784819Y-85771429D02*
X154784819Y-86009524D01*
X154784819Y-86009524D02*
X154070533Y-86200000D01*
X154070533Y-86200000D02*
X154784819Y-86390476D01*
X154784819Y-86390476D02*
X153784819Y-86628572D01*
X154784819Y-87533333D02*
X154784819Y-86961905D01*
X154784819Y-87247619D02*
X153784819Y-87247619D01*
X153784819Y-87247619D02*
X153927676Y-87152381D01*
X153927676Y-87152381D02*
X154022914Y-87057143D01*
X154022914Y-87057143D02*
X154070533Y-86961905D01*
X146828333Y-92309819D02*
X146828333Y-93024104D01*
X146828333Y-93024104D02*
X146875952Y-93166961D01*
X146875952Y-93166961D02*
X146971190Y-93262200D01*
X146971190Y-93262200D02*
X147114047Y-93309819D01*
X147114047Y-93309819D02*
X147209285Y-93309819D01*
X146209285Y-92738390D02*
X146304523Y-92690771D01*
X146304523Y-92690771D02*
X146352142Y-92643152D01*
X146352142Y-92643152D02*
X146399761Y-92547914D01*
X146399761Y-92547914D02*
X146399761Y-92500295D01*
X146399761Y-92500295D02*
X146352142Y-92405057D01*
X146352142Y-92405057D02*
X146304523Y-92357438D01*
X146304523Y-92357438D02*
X146209285Y-92309819D01*
X146209285Y-92309819D02*
X146018809Y-92309819D01*
X146018809Y-92309819D02*
X145923571Y-92357438D01*
X145923571Y-92357438D02*
X145875952Y-92405057D01*
X145875952Y-92405057D02*
X145828333Y-92500295D01*
X145828333Y-92500295D02*
X145828333Y-92547914D01*
X145828333Y-92547914D02*
X145875952Y-92643152D01*
X145875952Y-92643152D02*
X145923571Y-92690771D01*
X145923571Y-92690771D02*
X146018809Y-92738390D01*
X146018809Y-92738390D02*
X146209285Y-92738390D01*
X146209285Y-92738390D02*
X146304523Y-92786009D01*
X146304523Y-92786009D02*
X146352142Y-92833628D01*
X146352142Y-92833628D02*
X146399761Y-92928866D01*
X146399761Y-92928866D02*
X146399761Y-93119342D01*
X146399761Y-93119342D02*
X146352142Y-93214580D01*
X146352142Y-93214580D02*
X146304523Y-93262200D01*
X146304523Y-93262200D02*
X146209285Y-93309819D01*
X146209285Y-93309819D02*
X146018809Y-93309819D01*
X146018809Y-93309819D02*
X145923571Y-93262200D01*
X145923571Y-93262200D02*
X145875952Y-93214580D01*
X145875952Y-93214580D02*
X145828333Y-93119342D01*
X145828333Y-93119342D02*
X145828333Y-92928866D01*
X145828333Y-92928866D02*
X145875952Y-92833628D01*
X145875952Y-92833628D02*
X145923571Y-92786009D01*
X145923571Y-92786009D02*
X146018809Y-92738390D01*
X134683332Y-84227200D02*
X134540475Y-84274819D01*
X134540475Y-84274819D02*
X134302380Y-84274819D01*
X134302380Y-84274819D02*
X134207142Y-84227200D01*
X134207142Y-84227200D02*
X134159523Y-84179580D01*
X134159523Y-84179580D02*
X134111904Y-84084342D01*
X134111904Y-84084342D02*
X134111904Y-83989104D01*
X134111904Y-83989104D02*
X134159523Y-83893866D01*
X134159523Y-83893866D02*
X134207142Y-83846247D01*
X134207142Y-83846247D02*
X134302380Y-83798628D01*
X134302380Y-83798628D02*
X134492856Y-83751009D01*
X134492856Y-83751009D02*
X134588094Y-83703390D01*
X134588094Y-83703390D02*
X134635713Y-83655771D01*
X134635713Y-83655771D02*
X134683332Y-83560533D01*
X134683332Y-83560533D02*
X134683332Y-83465295D01*
X134683332Y-83465295D02*
X134635713Y-83370057D01*
X134635713Y-83370057D02*
X134588094Y-83322438D01*
X134588094Y-83322438D02*
X134492856Y-83274819D01*
X134492856Y-83274819D02*
X134254761Y-83274819D01*
X134254761Y-83274819D02*
X134111904Y-83322438D01*
X133778570Y-83274819D02*
X133540475Y-84274819D01*
X133540475Y-84274819D02*
X133349999Y-83560533D01*
X133349999Y-83560533D02*
X133159523Y-84274819D01*
X133159523Y-84274819D02*
X132921428Y-83274819D01*
X132064285Y-83274819D02*
X132540475Y-83274819D01*
X132540475Y-83274819D02*
X132588094Y-83751009D01*
X132588094Y-83751009D02*
X132540475Y-83703390D01*
X132540475Y-83703390D02*
X132445237Y-83655771D01*
X132445237Y-83655771D02*
X132207142Y-83655771D01*
X132207142Y-83655771D02*
X132111904Y-83703390D01*
X132111904Y-83703390D02*
X132064285Y-83751009D01*
X132064285Y-83751009D02*
X132016666Y-83846247D01*
X132016666Y-83846247D02*
X132016666Y-84084342D01*
X132016666Y-84084342D02*
X132064285Y-84179580D01*
X132064285Y-84179580D02*
X132111904Y-84227200D01*
X132111904Y-84227200D02*
X132207142Y-84274819D01*
X132207142Y-84274819D02*
X132445237Y-84274819D01*
X132445237Y-84274819D02*
X132540475Y-84227200D01*
X132540475Y-84227200D02*
X132588094Y-84179580D01*
D11*
%TO.C,SW3*%
X127175000Y-90560000D02*
X127175000Y-107560000D01*
X127175000Y-107560000D02*
X139525000Y-107560000D01*
X139525000Y-90560000D02*
X127175000Y-90560000D01*
X139525000Y-107560000D02*
X139525000Y-90560000D01*
%TO.C,SW2*%
X139875000Y-90560000D02*
X139875000Y-107560000D01*
X139875000Y-107560000D02*
X152225000Y-107560000D01*
X152225000Y-90560000D02*
X139875000Y-90560000D01*
X152225000Y-107560000D02*
X152225000Y-90560000D01*
%TO.C,SW1*%
X141230000Y-75400000D02*
X141230000Y-79500000D01*
X141230000Y-83500000D02*
X141230000Y-87600000D01*
X143630000Y-75400000D02*
X141230000Y-75400000D01*
X147130000Y-82000000D02*
X147130000Y-81000000D01*
X147630000Y-81500000D02*
X146630000Y-81500000D01*
X148430000Y-75400000D02*
X145830000Y-75400000D01*
X150930000Y-89000000D02*
X151230000Y-89300000D01*
X151230000Y-88700000D02*
X150930000Y-89000000D01*
X151230000Y-89300000D02*
X151230000Y-88700000D01*
X153030000Y-75400000D02*
X150630000Y-75400000D01*
X153030000Y-79500000D02*
X153030000Y-75400000D01*
X153030000Y-83500000D02*
X153030000Y-87600000D01*
X153030000Y-87600000D02*
X141230000Y-87600000D01*
X150130000Y-81500000D02*
G75*
G02*
X144130000Y-81500000I-3000000J0D01*
G01*
X144130000Y-81500000D02*
G75*
G02*
X150130000Y-81500000I3000000J0D01*
G01*
%TO.C,J8*%
X144505000Y-94505000D02*
X144505000Y-94570000D01*
X144505000Y-103550000D02*
X144505000Y-103615000D01*
X148135000Y-94505000D02*
X144505000Y-94505000D01*
X148135000Y-94505000D02*
X148135000Y-94570000D01*
X148135000Y-103550000D02*
X148135000Y-103615000D01*
X148135000Y-103615000D02*
X144505000Y-103615000D01*
X149410000Y-94570000D02*
X148135000Y-94570000D01*
%TO.C,SW5*%
X127175000Y-72780000D02*
X127175000Y-89780000D01*
X127175000Y-89780000D02*
X139525000Y-89780000D01*
X139525000Y-72780000D02*
X127175000Y-72780000D01*
X139525000Y-89780000D02*
X139525000Y-72780000D01*
%TD*%
M02*
